<?xml version="1.0" encoding="utf-8" standalone="no"?>
<!DOCTYPE svg PUBLIC "-//W3C//DTD SVG 1.1//EN"
  "http://www.w3.org/Graphics/SVG/1.1/DTD/svg11.dtd">
<svg height="345.6pt" version="1.1" viewBox="0 0 460.8 345.6" width="460.8pt" xmlns="http://www.w3.org/2000/svg" xmlns:xlink="http://www.w3.org/1999/xlink">
 <metadata>
  <rdf:RDF xmlns:cc="http://creativecommons.org/ns#" xmlns:dc="http://purl.org/dc/elements/1.1/" xmlns:rdf="http://www.w3.org/1999/02/22-rdf-syntax-ns#">
   <cc:Work>
    <dc:type rdf:resource="http://purl.org/dc/dcmitype/StillImage"/>
    <dc:date>2022-01-03T20:30:47.745965</dc:date>
    <dc:format>image/svg+xml</dc:format>
    <dc:creator>
     <cc:Agent>
      <dc:title>Matplotlib v3.4.2, https://matplotlib.org/</dc:title>
     </cc:Agent>
    </dc:creator>
   </cc:Work>
  </rdf:RDF>
 </metadata>
 <defs>
  <style type="text/css">*{stroke-linecap:butt;stroke-linejoin:round;}</style>
 </defs>
 <g id="figure_1">
  <g id="patch_1">
   <path d="M 0 345.6 
L 460.8 345.6 
L 460.8 0 
L 0 0 
z
" style="fill:#ffffff;"/>
  </g>
  <g id="axes_1">
   <g id="patch_2">
    <path d="M 57.6 307.584 
L 414.72 307.584 
L 414.72 41.472 
L 57.6 41.472 
z
" style="fill:#ffffff;"/>
   </g>
   <g id="PolyCollection_1">
    <path clip-path="url(#p04c96dc5e3)" d="M 73.832727 259.30448 
L 73.832727 259.30448 
L 82.157203 259.30448 
L 90.481678 259.30448 
L 98.806154 259.30448 
L 107.130629 259.30448 
L 115.455105 259.30448 
L 123.77958 259.30448 
L 132.104056 259.30448 
L 140.428531 259.30448 
L 148.753007 259.30448 
L 157.077483 259.30448 
L 165.401958 259.30448 
L 173.726434 259.30448 
L 182.050909 259.30448 
L 190.375385 259.30448 
L 198.69986 259.30448 
L 207.024336 259.30448 
L 215.348811 259.30448 
L 223.673287 259.30448 
L 231.997762 259.30448 
L 240.322238 259.30448 
L 248.646713 259.30448 
L 256.971189 259.30448 
L 265.295664 259.30448 
L 273.62014 259.30448 
L 281.944615 259.30448 
L 290.269091 259.30448 
L 298.593566 259.30448 
L 306.918042 259.30448 
L 315.242517 259.30448 
L 323.566993 283.503759 
L 331.891469 295.488 
L 340.215944 284.632944 
L 348.54042 266.844089 
L 356.864895 241.74009 
L 365.189371 247.009407 
L 373.513846 252.721801 
L 381.838322 265.355005 
L 390.162797 227.312689 
L 398.487273 214.580988 
L 398.487273 214.580988 
L 398.487273 53.568 
L 390.162797 64.69153 
L 381.838322 82.993487 
L 373.513846 137.441011 
L 365.189371 136.385829 
L 356.864895 83.706407 
L 348.54042 120.932846 
L 340.215944 164.777366 
L 331.891469 124.265746 
L 323.566993 168.991543 
L 315.242517 259.30448 
L 306.918042 259.30448 
L 298.593566 259.30448 
L 290.269091 259.30448 
L 281.944615 259.30448 
L 273.62014 259.30448 
L 265.295664 259.30448 
L 256.971189 259.30448 
L 248.646713 259.30448 
L 240.322238 259.30448 
L 231.997762 259.30448 
L 223.673287 259.30448 
L 215.348811 259.30448 
L 207.024336 259.30448 
L 198.69986 259.30448 
L 190.375385 259.30448 
L 182.050909 259.30448 
L 173.726434 259.30448 
L 165.401958 259.30448 
L 157.077483 259.30448 
L 148.753007 259.30448 
L 140.428531 259.30448 
L 132.104056 259.30448 
L 123.77958 259.30448 
L 115.455105 259.30448 
L 107.130629 259.30448 
L 98.806154 259.30448 
L 90.481678 259.30448 
L 82.157203 259.30448 
L 73.832727 259.30448 
z
" style="fill:#1f77b4;fill-opacity:0.3;"/>
   </g>
   <g id="PolyCollection_2">
    <path clip-path="url(#p04c96dc5e3)" d="M 73.832727 259.30448 
L 73.832727 259.30448 
L 82.157203 259.30448 
L 90.481678 259.30448 
L 98.806154 259.30448 
L 107.130629 259.30448 
L 115.455105 259.30448 
L 123.77958 259.30448 
L 132.104056 259.30448 
L 140.428531 259.30448 
L 148.753007 259.30448 
L 157.077483 259.30448 
L 165.401958 259.30448 
L 173.726434 259.30448 
L 182.050909 259.30448 
L 190.375385 259.30448 
L 198.69986 259.30448 
L 207.024336 259.30448 
L 215.348811 259.30448 
L 223.673287 259.30448 
L 231.997762 259.30448 
L 240.322238 259.30448 
L 248.646713 259.30448 
L 256.971189 263.465359 
L 265.295664 262.217096 
L 273.62014 261.343311 
L 281.944615 260.731662 
L 290.269091 260.303507 
L 298.593566 260.003799 
L 306.918042 259.794003 
L 315.242517 259.647146 
L 323.566993 259.544347 
L 331.891469 259.472387 
L 340.215944 259.422015 
L 348.54042 259.838025 
L 356.864895 259.677961 
L 365.189371 276.118458 
L 373.513846 261.430243 
L 381.838322 265.27861 
L 390.162797 269.851348 
L 398.487273 266.687288 
L 398.487273 266.687288 
L 398.487273 196.498314 
L 390.162797 169.581385 
L 381.838322 168.107964 
L 373.513846 173.427784 
L 365.189371 196.206678 
L 356.864895 257.434421 
L 348.54042 256.632967 
L 340.215944 258.865835 
L 331.891469 258.677845 
L 323.566993 258.409287 
L 315.242517 258.025632 
L 306.918042 257.477554 
L 298.593566 256.694586 
L 290.269091 255.57606 
L 281.944615 253.978166 
L 273.62014 251.69546 
L 265.295664 248.434451 
L 256.971189 243.775867 
L 248.646713 259.30448 
L 240.322238 259.30448 
L 231.997762 259.30448 
L 223.673287 259.30448 
L 215.348811 259.30448 
L 207.024336 259.30448 
L 198.69986 259.30448 
L 190.375385 259.30448 
L 182.050909 259.30448 
L 173.726434 259.30448 
L 165.401958 259.30448 
L 157.077483 259.30448 
L 148.753007 259.30448 
L 140.428531 259.30448 
L 132.104056 259.30448 
L 123.77958 259.30448 
L 115.455105 259.30448 
L 107.130629 259.30448 
L 98.806154 259.30448 
L 90.481678 259.30448 
L 82.157203 259.30448 
L 73.832727 259.30448 
z
" style="fill:#ff7f0e;fill-opacity:0.3;"/>
   </g>
   <g id="PolyCollection_3">
    <path clip-path="url(#p04c96dc5e3)" d="M 73.832727 259.30448 
L 73.832727 259.30448 
L 82.157203 259.30448 
L 90.481678 259.30448 
L 98.806154 259.30448 
L 107.130629 259.30448 
L 115.455105 259.30448 
L 123.77958 259.30448 
L 132.104056 259.30448 
L 140.428531 259.30448 
L 148.753007 259.30448 
L 157.077483 259.30448 
L 165.401958 259.30448 
L 173.726434 259.30448 
L 182.050909 259.30448 
L 190.375385 259.30448 
L 198.69986 259.30448 
L 207.024336 259.30448 
L 215.348811 259.30448 
L 223.673287 259.30448 
L 231.997762 259.30448 
L 240.322238 259.30448 
L 248.646713 259.30448 
L 256.971189 259.30448 
L 265.295664 259.30448 
L 273.62014 259.30448 
L 281.944615 259.30448 
L 290.269091 259.30448 
L 298.593566 259.30448 
L 306.918042 259.30448 
L 315.242517 259.30448 
L 323.566993 259.30448 
L 331.891469 259.30448 
L 340.215944 259.30448 
L 348.54042 259.30448 
L 356.864895 259.30448 
L 365.189371 259.30448 
L 373.513846 259.30448 
L 381.838322 266.778346 
L 390.162797 264.536187 
L 398.487273 263.456132 
L 398.487273 263.456132 
L 398.487273 243.810304 
L 390.162797 239.779486 
L 381.838322 231.411632 
L 373.513846 259.30448 
L 365.189371 259.30448 
L 356.864895 259.30448 
L 348.54042 259.30448 
L 340.215944 259.30448 
L 331.891469 259.30448 
L 323.566993 259.30448 
L 315.242517 259.30448 
L 306.918042 259.30448 
L 298.593566 259.30448 
L 290.269091 259.30448 
L 281.944615 259.30448 
L 273.62014 259.30448 
L 265.295664 259.30448 
L 256.971189 259.30448 
L 248.646713 259.30448 
L 240.322238 259.30448 
L 231.997762 259.30448 
L 223.673287 259.30448 
L 215.348811 259.30448 
L 207.024336 259.30448 
L 198.69986 259.30448 
L 190.375385 259.30448 
L 182.050909 259.30448 
L 173.726434 259.30448 
L 165.401958 259.30448 
L 157.077483 259.30448 
L 148.753007 259.30448 
L 140.428531 259.30448 
L 132.104056 259.30448 
L 123.77958 259.30448 
L 115.455105 259.30448 
L 107.130629 259.30448 
L 98.806154 259.30448 
L 90.481678 259.30448 
L 82.157203 259.30448 
L 73.832727 259.30448 
z
" style="fill:#2ca02c;fill-opacity:0.3;"/>
   </g>
   <g id="matplotlib.axis_1">
    <g id="xtick_1">
     <g id="line2d_1">
      <defs>
       <path d="M 0 0 
L 0 3.5 
" id="m7107f9ddb5" style="stroke:#000000;stroke-width:0.8;"/>
      </defs>
      <g>
       <use style="stroke:#000000;stroke-width:0.8;" x="65.508252" xlink:href="#m7107f9ddb5" y="307.584"/>
      </g>
     </g>
     <g id="text_1">
      <!-- 0 -->
      <g transform="translate(62.327002 322.182437)scale(0.1 -0.1)">
       <defs>
        <path d="M 2034 4250 
Q 1547 4250 1301 3770 
Q 1056 3291 1056 2328 
Q 1056 1369 1301 889 
Q 1547 409 2034 409 
Q 2525 409 2770 889 
Q 3016 1369 3016 2328 
Q 3016 3291 2770 3770 
Q 2525 4250 2034 4250 
z
M 2034 4750 
Q 2819 4750 3233 4129 
Q 3647 3509 3647 2328 
Q 3647 1150 3233 529 
Q 2819 -91 2034 -91 
Q 1250 -91 836 529 
Q 422 1150 422 2328 
Q 422 3509 836 4129 
Q 1250 4750 2034 4750 
z
" id="DejaVuSans-30" transform="scale(0.015625)"/>
       </defs>
       <use xlink:href="#DejaVuSans-30"/>
      </g>
     </g>
    </g>
    <g id="xtick_2">
     <g id="line2d_2">
      <g>
       <use style="stroke:#000000;stroke-width:0.8;" x="107.130629" xlink:href="#m7107f9ddb5" y="307.584"/>
      </g>
     </g>
     <g id="text_2">
      <!-- 50 -->
      <g transform="translate(100.768129 322.182437)scale(0.1 -0.1)">
       <defs>
        <path d="M 691 4666 
L 3169 4666 
L 3169 4134 
L 1269 4134 
L 1269 2991 
Q 1406 3038 1543 3061 
Q 1681 3084 1819 3084 
Q 2600 3084 3056 2656 
Q 3513 2228 3513 1497 
Q 3513 744 3044 326 
Q 2575 -91 1722 -91 
Q 1428 -91 1123 -41 
Q 819 9 494 109 
L 494 744 
Q 775 591 1075 516 
Q 1375 441 1709 441 
Q 2250 441 2565 725 
Q 2881 1009 2881 1497 
Q 2881 1984 2565 2268 
Q 2250 2553 1709 2553 
Q 1456 2553 1204 2497 
Q 953 2441 691 2322 
L 691 4666 
z
" id="DejaVuSans-35" transform="scale(0.015625)"/>
       </defs>
       <use xlink:href="#DejaVuSans-35"/>
       <use x="63.623047" xlink:href="#DejaVuSans-30"/>
      </g>
     </g>
    </g>
    <g id="xtick_3">
     <g id="line2d_3">
      <g>
       <use style="stroke:#000000;stroke-width:0.8;" x="148.753007" xlink:href="#m7107f9ddb5" y="307.584"/>
      </g>
     </g>
     <g id="text_3">
      <!-- 100 -->
      <g transform="translate(139.209257 322.182437)scale(0.1 -0.1)">
       <defs>
        <path d="M 794 531 
L 1825 531 
L 1825 4091 
L 703 3866 
L 703 4441 
L 1819 4666 
L 2450 4666 
L 2450 531 
L 3481 531 
L 3481 0 
L 794 0 
L 794 531 
z
" id="DejaVuSans-31" transform="scale(0.015625)"/>
       </defs>
       <use xlink:href="#DejaVuSans-31"/>
       <use x="63.623047" xlink:href="#DejaVuSans-30"/>
       <use x="127.246094" xlink:href="#DejaVuSans-30"/>
      </g>
     </g>
    </g>
    <g id="xtick_4">
     <g id="line2d_4">
      <g>
       <use style="stroke:#000000;stroke-width:0.8;" x="190.375385" xlink:href="#m7107f9ddb5" y="307.584"/>
      </g>
     </g>
     <g id="text_4">
      <!-- 150 -->
      <g transform="translate(180.831635 322.182437)scale(0.1 -0.1)">
       <use xlink:href="#DejaVuSans-31"/>
       <use x="63.623047" xlink:href="#DejaVuSans-35"/>
       <use x="127.246094" xlink:href="#DejaVuSans-30"/>
      </g>
     </g>
    </g>
    <g id="xtick_5">
     <g id="line2d_5">
      <g>
       <use style="stroke:#000000;stroke-width:0.8;" x="231.997762" xlink:href="#m7107f9ddb5" y="307.584"/>
      </g>
     </g>
     <g id="text_5">
      <!-- 200 -->
      <g transform="translate(222.454012 322.182437)scale(0.1 -0.1)">
       <defs>
        <path d="M 1228 531 
L 3431 531 
L 3431 0 
L 469 0 
L 469 531 
Q 828 903 1448 1529 
Q 2069 2156 2228 2338 
Q 2531 2678 2651 2914 
Q 2772 3150 2772 3378 
Q 2772 3750 2511 3984 
Q 2250 4219 1831 4219 
Q 1534 4219 1204 4116 
Q 875 4013 500 3803 
L 500 4441 
Q 881 4594 1212 4672 
Q 1544 4750 1819 4750 
Q 2544 4750 2975 4387 
Q 3406 4025 3406 3419 
Q 3406 3131 3298 2873 
Q 3191 2616 2906 2266 
Q 2828 2175 2409 1742 
Q 1991 1309 1228 531 
z
" id="DejaVuSans-32" transform="scale(0.015625)"/>
       </defs>
       <use xlink:href="#DejaVuSans-32"/>
       <use x="63.623047" xlink:href="#DejaVuSans-30"/>
       <use x="127.246094" xlink:href="#DejaVuSans-30"/>
      </g>
     </g>
    </g>
    <g id="xtick_6">
     <g id="line2d_6">
      <g>
       <use style="stroke:#000000;stroke-width:0.8;" x="273.62014" xlink:href="#m7107f9ddb5" y="307.584"/>
      </g>
     </g>
     <g id="text_6">
      <!-- 250 -->
      <g transform="translate(264.07639 322.182437)scale(0.1 -0.1)">
       <use xlink:href="#DejaVuSans-32"/>
       <use x="63.623047" xlink:href="#DejaVuSans-35"/>
       <use x="127.246094" xlink:href="#DejaVuSans-30"/>
      </g>
     </g>
    </g>
    <g id="xtick_7">
     <g id="line2d_7">
      <g>
       <use style="stroke:#000000;stroke-width:0.8;" x="315.242517" xlink:href="#m7107f9ddb5" y="307.584"/>
      </g>
     </g>
     <g id="text_7">
      <!-- 300 -->
      <g transform="translate(305.698767 322.182437)scale(0.1 -0.1)">
       <defs>
        <path d="M 2597 2516 
Q 3050 2419 3304 2112 
Q 3559 1806 3559 1356 
Q 3559 666 3084 287 
Q 2609 -91 1734 -91 
Q 1441 -91 1130 -33 
Q 819 25 488 141 
L 488 750 
Q 750 597 1062 519 
Q 1375 441 1716 441 
Q 2309 441 2620 675 
Q 2931 909 2931 1356 
Q 2931 1769 2642 2001 
Q 2353 2234 1838 2234 
L 1294 2234 
L 1294 2753 
L 1863 2753 
Q 2328 2753 2575 2939 
Q 2822 3125 2822 3475 
Q 2822 3834 2567 4026 
Q 2313 4219 1838 4219 
Q 1578 4219 1281 4162 
Q 984 4106 628 3988 
L 628 4550 
Q 988 4650 1302 4700 
Q 1616 4750 1894 4750 
Q 2613 4750 3031 4423 
Q 3450 4097 3450 3541 
Q 3450 3153 3228 2886 
Q 3006 2619 2597 2516 
z
" id="DejaVuSans-33" transform="scale(0.015625)"/>
       </defs>
       <use xlink:href="#DejaVuSans-33"/>
       <use x="63.623047" xlink:href="#DejaVuSans-30"/>
       <use x="127.246094" xlink:href="#DejaVuSans-30"/>
      </g>
     </g>
    </g>
    <g id="xtick_8">
     <g id="line2d_8">
      <g>
       <use style="stroke:#000000;stroke-width:0.8;" x="356.864895" xlink:href="#m7107f9ddb5" y="307.584"/>
      </g>
     </g>
     <g id="text_8">
      <!-- 350 -->
      <g transform="translate(347.321145 322.182437)scale(0.1 -0.1)">
       <use xlink:href="#DejaVuSans-33"/>
       <use x="63.623047" xlink:href="#DejaVuSans-35"/>
       <use x="127.246094" xlink:href="#DejaVuSans-30"/>
      </g>
     </g>
    </g>
    <g id="xtick_9">
     <g id="line2d_9">
      <g>
       <use style="stroke:#000000;stroke-width:0.8;" x="398.487273" xlink:href="#m7107f9ddb5" y="307.584"/>
      </g>
     </g>
     <g id="text_9">
      <!-- 400 -->
      <g transform="translate(388.943523 322.182437)scale(0.1 -0.1)">
       <defs>
        <path d="M 2419 4116 
L 825 1625 
L 2419 1625 
L 2419 4116 
z
M 2253 4666 
L 3047 4666 
L 3047 1625 
L 3713 1625 
L 3713 1100 
L 3047 1100 
L 3047 0 
L 2419 0 
L 2419 1100 
L 313 1100 
L 313 1709 
L 2253 4666 
z
" id="DejaVuSans-34" transform="scale(0.015625)"/>
       </defs>
       <use xlink:href="#DejaVuSans-34"/>
       <use x="63.623047" xlink:href="#DejaVuSans-30"/>
       <use x="127.246094" xlink:href="#DejaVuSans-30"/>
      </g>
     </g>
    </g>
   </g>
   <g id="matplotlib.axis_2">
    <g id="ytick_1">
     <g id="line2d_10">
      <defs>
       <path d="M 0 0 
L -3.5 0 
" id="m84569af2ce" style="stroke:#000000;stroke-width:0.8;"/>
      </defs>
      <g>
       <use style="stroke:#000000;stroke-width:0.8;" x="57.6" xlink:href="#m84569af2ce" y="287.572901"/>
      </g>
     </g>
     <g id="text_10">
      <!-- −185 -->
      <g transform="translate(23.132812 291.37212)scale(0.1 -0.1)">
       <defs>
        <path d="M 678 2272 
L 4684 2272 
L 4684 1741 
L 678 1741 
L 678 2272 
z
" id="DejaVuSans-2212" transform="scale(0.015625)"/>
        <path d="M 2034 2216 
Q 1584 2216 1326 1975 
Q 1069 1734 1069 1313 
Q 1069 891 1326 650 
Q 1584 409 2034 409 
Q 2484 409 2743 651 
Q 3003 894 3003 1313 
Q 3003 1734 2745 1975 
Q 2488 2216 2034 2216 
z
M 1403 2484 
Q 997 2584 770 2862 
Q 544 3141 544 3541 
Q 544 4100 942 4425 
Q 1341 4750 2034 4750 
Q 2731 4750 3128 4425 
Q 3525 4100 3525 3541 
Q 3525 3141 3298 2862 
Q 3072 2584 2669 2484 
Q 3125 2378 3379 2068 
Q 3634 1759 3634 1313 
Q 3634 634 3220 271 
Q 2806 -91 2034 -91 
Q 1263 -91 848 271 
Q 434 634 434 1313 
Q 434 1759 690 2068 
Q 947 2378 1403 2484 
z
M 1172 3481 
Q 1172 3119 1398 2916 
Q 1625 2713 2034 2713 
Q 2441 2713 2670 2916 
Q 2900 3119 2900 3481 
Q 2900 3844 2670 4047 
Q 2441 4250 2034 4250 
Q 1625 4250 1398 4047 
Q 1172 3844 1172 3481 
z
" id="DejaVuSans-38" transform="scale(0.015625)"/>
       </defs>
       <use xlink:href="#DejaVuSans-2212"/>
       <use x="83.789062" xlink:href="#DejaVuSans-31"/>
       <use x="147.412109" xlink:href="#DejaVuSans-38"/>
       <use x="211.035156" xlink:href="#DejaVuSans-35"/>
      </g>
     </g>
    </g>
    <g id="ytick_2">
     <g id="line2d_11">
      <g>
       <use style="stroke:#000000;stroke-width:0.8;" x="57.6" xlink:href="#m84569af2ce" y="248.836615"/>
      </g>
     </g>
     <g id="text_11">
      <!-- −180 -->
      <g transform="translate(23.132812 252.635833)scale(0.1 -0.1)">
       <use xlink:href="#DejaVuSans-2212"/>
       <use x="83.789062" xlink:href="#DejaVuSans-31"/>
       <use x="147.412109" xlink:href="#DejaVuSans-38"/>
       <use x="211.035156" xlink:href="#DejaVuSans-30"/>
      </g>
     </g>
    </g>
    <g id="ytick_3">
     <g id="line2d_12">
      <g>
       <use style="stroke:#000000;stroke-width:0.8;" x="57.6" xlink:href="#m84569af2ce" y="210.100328"/>
      </g>
     </g>
     <g id="text_12">
      <!-- −175 -->
      <g transform="translate(23.132812 213.899547)scale(0.1 -0.1)">
       <defs>
        <path d="M 525 4666 
L 3525 4666 
L 3525 4397 
L 1831 0 
L 1172 0 
L 2766 4134 
L 525 4134 
L 525 4666 
z
" id="DejaVuSans-37" transform="scale(0.015625)"/>
       </defs>
       <use xlink:href="#DejaVuSans-2212"/>
       <use x="83.789062" xlink:href="#DejaVuSans-31"/>
       <use x="147.412109" xlink:href="#DejaVuSans-37"/>
       <use x="211.035156" xlink:href="#DejaVuSans-35"/>
      </g>
     </g>
    </g>
    <g id="ytick_4">
     <g id="line2d_13">
      <g>
       <use style="stroke:#000000;stroke-width:0.8;" x="57.6" xlink:href="#m84569af2ce" y="171.364042"/>
      </g>
     </g>
     <g id="text_13">
      <!-- −170 -->
      <g transform="translate(23.132812 175.16326)scale(0.1 -0.1)">
       <use xlink:href="#DejaVuSans-2212"/>
       <use x="83.789062" xlink:href="#DejaVuSans-31"/>
       <use x="147.412109" xlink:href="#DejaVuSans-37"/>
       <use x="211.035156" xlink:href="#DejaVuSans-30"/>
      </g>
     </g>
    </g>
    <g id="ytick_5">
     <g id="line2d_14">
      <g>
       <use style="stroke:#000000;stroke-width:0.8;" x="57.6" xlink:href="#m84569af2ce" y="132.627755"/>
      </g>
     </g>
     <g id="text_14">
      <!-- −165 -->
      <g transform="translate(23.132812 136.426974)scale(0.1 -0.1)">
       <defs>
        <path d="M 2113 2584 
Q 1688 2584 1439 2293 
Q 1191 2003 1191 1497 
Q 1191 994 1439 701 
Q 1688 409 2113 409 
Q 2538 409 2786 701 
Q 3034 994 3034 1497 
Q 3034 2003 2786 2293 
Q 2538 2584 2113 2584 
z
M 3366 4563 
L 3366 3988 
Q 3128 4100 2886 4159 
Q 2644 4219 2406 4219 
Q 1781 4219 1451 3797 
Q 1122 3375 1075 2522 
Q 1259 2794 1537 2939 
Q 1816 3084 2150 3084 
Q 2853 3084 3261 2657 
Q 3669 2231 3669 1497 
Q 3669 778 3244 343 
Q 2819 -91 2113 -91 
Q 1303 -91 875 529 
Q 447 1150 447 2328 
Q 447 3434 972 4092 
Q 1497 4750 2381 4750 
Q 2619 4750 2861 4703 
Q 3103 4656 3366 4563 
z
" id="DejaVuSans-36" transform="scale(0.015625)"/>
       </defs>
       <use xlink:href="#DejaVuSans-2212"/>
       <use x="83.789062" xlink:href="#DejaVuSans-31"/>
       <use x="147.412109" xlink:href="#DejaVuSans-36"/>
       <use x="211.035156" xlink:href="#DejaVuSans-35"/>
      </g>
     </g>
    </g>
    <g id="ytick_6">
     <g id="line2d_15">
      <g>
       <use style="stroke:#000000;stroke-width:0.8;" x="57.6" xlink:href="#m84569af2ce" y="93.891469"/>
      </g>
     </g>
     <g id="text_15">
      <!-- −160 -->
      <g transform="translate(23.132812 97.690687)scale(0.1 -0.1)">
       <use xlink:href="#DejaVuSans-2212"/>
       <use x="83.789062" xlink:href="#DejaVuSans-31"/>
       <use x="147.412109" xlink:href="#DejaVuSans-36"/>
       <use x="211.035156" xlink:href="#DejaVuSans-30"/>
      </g>
     </g>
    </g>
    <g id="ytick_7">
     <g id="line2d_16">
      <g>
       <use style="stroke:#000000;stroke-width:0.8;" x="57.6" xlink:href="#m84569af2ce" y="55.155182"/>
      </g>
     </g>
     <g id="text_16">
      <!-- −155 -->
      <g transform="translate(23.132812 58.954401)scale(0.1 -0.1)">
       <use xlink:href="#DejaVuSans-2212"/>
       <use x="83.789062" xlink:href="#DejaVuSans-31"/>
       <use x="147.412109" xlink:href="#DejaVuSans-35"/>
       <use x="211.035156" xlink:href="#DejaVuSans-35"/>
      </g>
     </g>
    </g>
   </g>
   <g id="line2d_17">
    <path clip-path="url(#p04c96dc5e3)" d="M 73.832727 259.30448 
L 82.157203 259.30448 
L 90.481678 259.30448 
L 98.806154 259.30448 
L 107.130629 259.30448 
L 115.455105 259.30448 
L 123.77958 259.30448 
L 132.104056 259.30448 
L 140.428531 259.30448 
L 148.753007 259.30448 
L 157.077483 259.30448 
L 165.401958 259.30448 
L 173.726434 259.30448 
L 182.050909 259.30448 
L 190.375385 259.30448 
L 198.69986 259.30448 
L 207.024336 259.30448 
L 215.348811 259.30448 
L 223.673287 259.30448 
L 231.997762 259.30448 
L 240.322238 259.30448 
L 248.646713 259.30448 
L 256.971189 259.30448 
L 265.295664 259.30448 
L 273.62014 259.30448 
L 281.944615 259.30448 
L 290.269091 259.30448 
L 298.593566 259.30448 
L 306.918042 259.30448 
L 315.242517 259.30448 
L 323.566993 226.247651 
L 331.891469 209.876873 
L 340.215944 224.705155 
L 348.54042 193.888467 
L 356.864895 162.723248 
L 365.189371 191.697618 
L 373.513846 195.081406 
L 381.838322 174.174246 
L 390.162797 146.002109 
L 398.487273 134.074494 
" style="fill:none;stroke:#1f77b4;stroke-linecap:square;stroke-width:1.5;"/>
   </g>
   <g id="line2d_18">
    <path clip-path="url(#p04c96dc5e3)" d="M 73.832727 259.30448 
L 82.157203 259.30448 
L 90.481678 259.30448 
L 98.806154 259.30448 
L 107.130629 259.30448 
L 115.455105 259.30448 
L 123.77958 259.30448 
L 132.104056 259.30448 
L 140.428531 259.30448 
L 148.753007 259.30448 
L 157.077483 259.30448 
L 165.401958 259.30448 
L 173.726434 259.30448 
L 182.050909 259.30448 
L 190.375385 259.30448 
L 198.69986 259.30448 
L 207.024336 259.30448 
L 215.348811 259.30448 
L 223.673287 259.30448 
L 231.997762 259.30448 
L 240.322238 259.30448 
L 248.646713 259.30448 
L 256.971189 253.620613 
L 265.295664 255.325773 
L 273.62014 256.519385 
L 281.944615 257.354914 
L 290.269091 257.939784 
L 298.593566 258.349193 
L 306.918042 258.635779 
L 315.242517 258.836389 
L 323.566993 258.976817 
L 331.891469 259.075116 
L 340.215944 259.143925 
L 348.54042 258.235496 
L 356.864895 258.556191 
L 365.189371 236.162568 
L 373.513846 217.429014 
L 381.838322 216.693287 
L 390.162797 219.716367 
L 398.487273 231.592801 
" style="fill:none;stroke:#ff7f0e;stroke-linecap:square;stroke-width:1.5;"/>
   </g>
   <g id="line2d_19">
    <path clip-path="url(#p04c96dc5e3)" d="M 73.832727 259.30448 
L 82.157203 259.30448 
L 90.481678 259.30448 
L 98.806154 259.30448 
L 107.130629 259.30448 
L 115.455105 259.30448 
L 123.77958 259.30448 
L 132.104056 259.30448 
L 140.428531 259.30448 
L 148.753007 259.30448 
L 157.077483 259.30448 
L 165.401958 259.30448 
L 173.726434 259.30448 
L 182.050909 259.30448 
L 190.375385 259.30448 
L 198.69986 259.30448 
L 207.024336 259.30448 
L 215.348811 259.30448 
L 223.673287 259.30448 
L 231.997762 259.30448 
L 240.322238 259.30448 
L 248.646713 259.30448 
L 256.971189 259.30448 
L 265.295664 259.30448 
L 273.62014 259.30448 
L 281.944615 259.30448 
L 290.269091 259.30448 
L 298.593566 259.30448 
L 306.918042 259.30448 
L 315.242517 259.30448 
L 323.566993 259.30448 
L 331.891469 259.30448 
L 340.215944 259.30448 
L 348.54042 259.30448 
L 356.864895 259.30448 
L 365.189371 259.30448 
L 373.513846 259.30448 
L 381.838322 249.094989 
L 390.162797 252.157836 
L 398.487273 253.633218 
" style="fill:none;stroke:#2ca02c;stroke-linecap:square;stroke-width:1.5;"/>
   </g>
   <g id="patch_3">
    <path d="M 57.6 307.584 
L 57.6 41.472 
" style="fill:none;stroke:#000000;stroke-linecap:square;stroke-linejoin:miter;stroke-width:0.8;"/>
   </g>
   <g id="patch_4">
    <path d="M 414.72 307.584 
L 414.72 41.472 
" style="fill:none;stroke:#000000;stroke-linecap:square;stroke-linejoin:miter;stroke-width:0.8;"/>
   </g>
   <g id="patch_5">
    <path d="M 57.6 307.584 
L 414.72 307.584 
" style="fill:none;stroke:#000000;stroke-linecap:square;stroke-linejoin:miter;stroke-width:0.8;"/>
   </g>
   <g id="patch_6">
    <path d="M 57.6 41.472 
L 414.72 41.472 
" style="fill:none;stroke:#000000;stroke-linecap:square;stroke-linejoin:miter;stroke-width:0.8;"/>
   </g>
   <g id="legend_1">
    <g id="patch_7">
     <path d="M 303.443438 93.506375 
L 407.72 93.506375 
Q 409.72 93.506375 409.72 91.506375 
L 409.72 48.472 
Q 409.72 46.472 407.72 46.472 
L 303.443438 46.472 
Q 301.443438 46.472 301.443438 48.472 
L 301.443438 91.506375 
Q 301.443438 93.506375 303.443438 93.506375 
z
" style="fill:#ffffff;opacity:0.8;stroke:#cccccc;stroke-linejoin:miter;"/>
    </g>
    <g id="line2d_20">
     <path d="M 305.443438 54.570438 
L 325.443438 54.570438 
" style="fill:none;stroke:#1f77b4;stroke-linecap:square;stroke-width:1.5;"/>
    </g>
    <g id="line2d_21"/>
    <g id="text_17">
     <!-- beta = 0.01 -->
     <g transform="translate(333.443438 58.070438)scale(0.1 -0.1)">
      <defs>
       <path d="M 3116 1747 
Q 3116 2381 2855 2742 
Q 2594 3103 2138 3103 
Q 1681 3103 1420 2742 
Q 1159 2381 1159 1747 
Q 1159 1113 1420 752 
Q 1681 391 2138 391 
Q 2594 391 2855 752 
Q 3116 1113 3116 1747 
z
M 1159 2969 
Q 1341 3281 1617 3432 
Q 1894 3584 2278 3584 
Q 2916 3584 3314 3078 
Q 3713 2572 3713 1747 
Q 3713 922 3314 415 
Q 2916 -91 2278 -91 
Q 1894 -91 1617 61 
Q 1341 213 1159 525 
L 1159 0 
L 581 0 
L 581 4863 
L 1159 4863 
L 1159 2969 
z
" id="DejaVuSans-62" transform="scale(0.015625)"/>
       <path d="M 3597 1894 
L 3597 1613 
L 953 1613 
Q 991 1019 1311 708 
Q 1631 397 2203 397 
Q 2534 397 2845 478 
Q 3156 559 3463 722 
L 3463 178 
Q 3153 47 2828 -22 
Q 2503 -91 2169 -91 
Q 1331 -91 842 396 
Q 353 884 353 1716 
Q 353 2575 817 3079 
Q 1281 3584 2069 3584 
Q 2775 3584 3186 3129 
Q 3597 2675 3597 1894 
z
M 3022 2063 
Q 3016 2534 2758 2815 
Q 2500 3097 2075 3097 
Q 1594 3097 1305 2825 
Q 1016 2553 972 2059 
L 3022 2063 
z
" id="DejaVuSans-65" transform="scale(0.015625)"/>
       <path d="M 1172 4494 
L 1172 3500 
L 2356 3500 
L 2356 3053 
L 1172 3053 
L 1172 1153 
Q 1172 725 1289 603 
Q 1406 481 1766 481 
L 2356 481 
L 2356 0 
L 1766 0 
Q 1100 0 847 248 
Q 594 497 594 1153 
L 594 3053 
L 172 3053 
L 172 3500 
L 594 3500 
L 594 4494 
L 1172 4494 
z
" id="DejaVuSans-74" transform="scale(0.015625)"/>
       <path d="M 2194 1759 
Q 1497 1759 1228 1600 
Q 959 1441 959 1056 
Q 959 750 1161 570 
Q 1363 391 1709 391 
Q 2188 391 2477 730 
Q 2766 1069 2766 1631 
L 2766 1759 
L 2194 1759 
z
M 3341 1997 
L 3341 0 
L 2766 0 
L 2766 531 
Q 2569 213 2275 61 
Q 1981 -91 1556 -91 
Q 1019 -91 701 211 
Q 384 513 384 1019 
Q 384 1609 779 1909 
Q 1175 2209 1959 2209 
L 2766 2209 
L 2766 2266 
Q 2766 2663 2505 2880 
Q 2244 3097 1772 3097 
Q 1472 3097 1187 3025 
Q 903 2953 641 2809 
L 641 3341 
Q 956 3463 1253 3523 
Q 1550 3584 1831 3584 
Q 2591 3584 2966 3190 
Q 3341 2797 3341 1997 
z
" id="DejaVuSans-61" transform="scale(0.015625)"/>
       <path id="DejaVuSans-20" transform="scale(0.015625)"/>
       <path d="M 678 2906 
L 4684 2906 
L 4684 2381 
L 678 2381 
L 678 2906 
z
M 678 1631 
L 4684 1631 
L 4684 1100 
L 678 1100 
L 678 1631 
z
" id="DejaVuSans-3d" transform="scale(0.015625)"/>
       <path d="M 684 794 
L 1344 794 
L 1344 0 
L 684 0 
L 684 794 
z
" id="DejaVuSans-2e" transform="scale(0.015625)"/>
      </defs>
      <use xlink:href="#DejaVuSans-62"/>
      <use x="63.476562" xlink:href="#DejaVuSans-65"/>
      <use x="125" xlink:href="#DejaVuSans-74"/>
      <use x="164.208984" xlink:href="#DejaVuSans-61"/>
      <use x="225.488281" xlink:href="#DejaVuSans-20"/>
      <use x="257.275391" xlink:href="#DejaVuSans-3d"/>
      <use x="341.064453" xlink:href="#DejaVuSans-20"/>
      <use x="372.851562" xlink:href="#DejaVuSans-30"/>
      <use x="436.474609" xlink:href="#DejaVuSans-2e"/>
      <use x="468.261719" xlink:href="#DejaVuSans-30"/>
      <use x="531.884766" xlink:href="#DejaVuSans-31"/>
     </g>
    </g>
    <g id="line2d_22">
     <path d="M 305.443438 69.248563 
L 325.443438 69.248563 
" style="fill:none;stroke:#ff7f0e;stroke-linecap:square;stroke-width:1.5;"/>
    </g>
    <g id="line2d_23"/>
    <g id="text_18">
     <!-- beta = 0.001 -->
     <g transform="translate(333.443438 72.748563)scale(0.1 -0.1)">
      <use xlink:href="#DejaVuSans-62"/>
      <use x="63.476562" xlink:href="#DejaVuSans-65"/>
      <use x="125" xlink:href="#DejaVuSans-74"/>
      <use x="164.208984" xlink:href="#DejaVuSans-61"/>
      <use x="225.488281" xlink:href="#DejaVuSans-20"/>
      <use x="257.275391" xlink:href="#DejaVuSans-3d"/>
      <use x="341.064453" xlink:href="#DejaVuSans-20"/>
      <use x="372.851562" xlink:href="#DejaVuSans-30"/>
      <use x="436.474609" xlink:href="#DejaVuSans-2e"/>
      <use x="468.261719" xlink:href="#DejaVuSans-30"/>
      <use x="531.884766" xlink:href="#DejaVuSans-30"/>
      <use x="595.507812" xlink:href="#DejaVuSans-31"/>
     </g>
    </g>
    <g id="line2d_24">
     <path d="M 305.443438 83.926688 
L 325.443438 83.926688 
" style="fill:none;stroke:#2ca02c;stroke-linecap:square;stroke-width:1.5;"/>
    </g>
    <g id="line2d_25"/>
    <g id="text_19">
     <!-- beta = 0.0001 -->
     <g transform="translate(333.443438 87.426688)scale(0.1 -0.1)">
      <use xlink:href="#DejaVuSans-62"/>
      <use x="63.476562" xlink:href="#DejaVuSans-65"/>
      <use x="125" xlink:href="#DejaVuSans-74"/>
      <use x="164.208984" xlink:href="#DejaVuSans-61"/>
      <use x="225.488281" xlink:href="#DejaVuSans-20"/>
      <use x="257.275391" xlink:href="#DejaVuSans-3d"/>
      <use x="341.064453" xlink:href="#DejaVuSans-20"/>
      <use x="372.851562" xlink:href="#DejaVuSans-30"/>
      <use x="436.474609" xlink:href="#DejaVuSans-2e"/>
      <use x="468.261719" xlink:href="#DejaVuSans-30"/>
      <use x="531.884766" xlink:href="#DejaVuSans-30"/>
      <use x="595.507812" xlink:href="#DejaVuSans-30"/>
      <use x="659.130859" xlink:href="#DejaVuSans-31"/>
     </g>
    </g>
   </g>
  </g>
 </g>
 <defs>
  <clipPath id="p04c96dc5e3">
   <rect height="266.112" width="357.12" x="57.6" y="41.472"/>
  </clipPath>
 </defs>
</svg>
