<?xml version="1.0" encoding="utf-8" standalone="no"?>
<!DOCTYPE svg PUBLIC "-//W3C//DTD SVG 1.1//EN"
  "http://www.w3.org/Graphics/SVG/1.1/DTD/svg11.dtd">
<svg height="345.6pt" version="1.1" viewBox="0 0 460.8 345.6" width="460.8pt" xmlns="http://www.w3.org/2000/svg" xmlns:xlink="http://www.w3.org/1999/xlink">
 <metadata>
  <rdf:RDF xmlns:cc="http://creativecommons.org/ns#" xmlns:dc="http://purl.org/dc/elements/1.1/" xmlns:rdf="http://www.w3.org/1999/02/22-rdf-syntax-ns#">
   <cc:Work>
    <dc:type rdf:resource="http://purl.org/dc/dcmitype/StillImage"/>
    <dc:date>2022-01-03T18:35:16.254250</dc:date>
    <dc:format>image/svg+xml</dc:format>
    <dc:creator>
     <cc:Agent>
      <dc:title>Matplotlib v3.4.3, https://matplotlib.org/</dc:title>
     </cc:Agent>
    </dc:creator>
   </cc:Work>
  </rdf:RDF>
 </metadata>
 <defs>
  <style type="text/css">*{stroke-linecap:butt;stroke-linejoin:round;}</style>
 </defs>
 <g id="figure_1">
  <g id="patch_1">
   <path d="M 0 345.6 
L 460.8 345.6 
L 460.8 0 
L 0 0 
z
" style="fill:#ffffff;"/>
  </g>
  <g id="axes_1">
   <g id="patch_2">
    <path d="M 57.6 307.584 
L 414.72 307.584 
L 414.72 41.472 
L 57.6 41.472 
z
" style="fill:#ffffff;"/>
   </g>
   <g id="PolyCollection_1">
    <path clip-path="url(#p10a5a491b6)" d="M 73.832727 264.71635 
L 73.832727 264.71635 
L 77.942278 264.71635 
L 82.05183 264.71635 
L 86.161381 264.71635 
L 90.270932 264.71635 
L 94.380483 264.71635 
L 98.490035 264.71635 
L 102.599586 264.71635 
L 106.709137 264.71635 
L 110.818688 264.71635 
L 114.928239 264.71635 
L 119.037791 264.71635 
L 123.147342 264.71635 
L 127.256893 264.71635 
L 131.366444 264.71635 
L 135.475995 264.71635 
L 139.585547 264.71635 
L 143.695098 264.71635 
L 147.804649 264.71635 
L 151.9142 264.71635 
L 156.023751 264.71635 
L 160.133303 264.71635 
L 164.242854 264.71635 
L 168.352405 264.71635 
L 172.461956 264.71635 
L 176.571507 264.71635 
L 180.681059 264.71635 
L 184.79061 264.71635 
L 188.900161 264.71635 
L 193.009712 264.71635 
L 197.119264 264.71635 
L 201.228815 264.71635 
L 205.338366 264.71635 
L 209.447917 264.71635 
L 213.557468 264.71635 
L 217.66702 264.71635 
L 221.776571 264.71635 
L 225.886122 264.71635 
L 229.995673 264.71635 
L 234.105224 264.71635 
L 238.214776 264.71635 
L 242.324327 264.71635 
L 246.433878 264.71635 
L 250.543429 264.71635 
L 254.65298 264.71635 
L 258.762532 264.71635 
L 262.872083 264.71635 
L 266.981634 264.71635 
L 271.091185 264.71635 
L 275.200736 264.71635 
L 279.310288 264.71635 
L 283.419839 264.71635 
L 287.52939 264.71635 
L 291.638941 264.71635 
L 295.748493 264.71635 
L 299.858044 264.71635 
L 303.967595 264.71635 
L 308.077146 264.71635 
L 312.186697 264.71635 
L 316.296249 264.71635 
L 320.4058 264.71635 
L 324.515351 264.71635 
L 328.624902 264.71635 
L 332.734453 264.71635 
L 336.844005 264.71635 
L 340.953556 264.71635 
L 345.063107 264.71635 
L 349.172658 264.71635 
L 353.282209 264.71635 
L 357.391761 264.71635 
L 361.501312 264.71635 
L 365.610863 264.71635 
L 369.720414 264.71635 
L 373.829965 264.71635 
L 377.939517 264.71635 
L 382.049068 264.71635 
L 386.158619 264.71635 
L 390.26817 264.71635 
L 394.377722 264.71635 
L 398.487273 264.71635 
L 398.487273 264.71635 
L 398.487273 264.71635 
L 394.377722 264.71635 
L 390.26817 264.71635 
L 386.158619 264.71635 
L 382.049068 264.71635 
L 377.939517 264.71635 
L 373.829965 264.71635 
L 369.720414 264.71635 
L 365.610863 264.71635 
L 361.501312 264.71635 
L 357.391761 264.71635 
L 353.282209 264.71635 
L 349.172658 264.71635 
L 345.063107 264.71635 
L 340.953556 264.71635 
L 336.844005 264.71635 
L 332.734453 264.71635 
L 328.624902 264.71635 
L 324.515351 264.71635 
L 320.4058 264.71635 
L 316.296249 264.71635 
L 312.186697 264.71635 
L 308.077146 264.71635 
L 303.967595 264.71635 
L 299.858044 264.71635 
L 295.748493 264.71635 
L 291.638941 264.71635 
L 287.52939 264.71635 
L 283.419839 264.71635 
L 279.310288 264.71635 
L 275.200736 264.71635 
L 271.091185 264.71635 
L 266.981634 264.71635 
L 262.872083 264.71635 
L 258.762532 264.71635 
L 254.65298 264.71635 
L 250.543429 264.71635 
L 246.433878 264.71635 
L 242.324327 264.71635 
L 238.214776 264.71635 
L 234.105224 264.71635 
L 229.995673 264.71635 
L 225.886122 264.71635 
L 221.776571 264.71635 
L 217.66702 264.71635 
L 213.557468 264.71635 
L 209.447917 264.71635 
L 205.338366 264.71635 
L 201.228815 264.71635 
L 197.119264 264.71635 
L 193.009712 264.71635 
L 188.900161 264.71635 
L 184.79061 264.71635 
L 180.681059 264.71635 
L 176.571507 264.71635 
L 172.461956 264.71635 
L 168.352405 264.71635 
L 164.242854 264.71635 
L 160.133303 264.71635 
L 156.023751 264.71635 
L 151.9142 264.71635 
L 147.804649 264.71635 
L 143.695098 264.71635 
L 139.585547 264.71635 
L 135.475995 264.71635 
L 131.366444 264.71635 
L 127.256893 264.71635 
L 123.147342 264.71635 
L 119.037791 264.71635 
L 114.928239 264.71635 
L 110.818688 264.71635 
L 106.709137 264.71635 
L 102.599586 264.71635 
L 98.490035 264.71635 
L 94.380483 264.71635 
L 90.270932 264.71635 
L 86.161381 264.71635 
L 82.05183 264.71635 
L 77.942278 264.71635 
L 73.832727 264.71635 
z
" style="fill:#1f77b4;fill-opacity:0.3;"/>
   </g>
   <g id="PolyCollection_2">
    <path clip-path="url(#p10a5a491b6)" d="M 73.832727 264.71635 
L 73.832727 264.71635 
L 77.942278 264.71635 
L 82.05183 264.71635 
L 86.161381 264.71635 
L 90.270932 264.71635 
L 94.380483 264.71635 
L 98.490035 264.71635 
L 102.599586 264.71635 
L 106.709137 264.71635 
L 110.818688 264.71635 
L 114.928239 264.71635 
L 119.037791 264.71635 
L 123.147342 264.71635 
L 127.256893 264.71635 
L 131.366444 264.71635 
L 135.475995 264.71635 
L 139.585547 264.71635 
L 143.695098 264.71635 
L 147.804649 264.71635 
L 151.9142 264.71635 
L 156.023751 264.71635 
L 160.133303 264.71635 
L 164.242854 264.71635 
L 168.352405 264.71635 
L 172.461956 264.71635 
L 176.571507 264.71635 
L 180.681059 264.71635 
L 184.79061 264.71635 
L 188.900161 264.71635 
L 193.009712 264.71635 
L 197.119264 264.71635 
L 201.228815 264.71635 
L 205.338366 264.71635 
L 209.447917 264.71635 
L 213.557468 264.71635 
L 217.66702 264.71635 
L 221.776571 264.71635 
L 225.886122 264.71635 
L 229.995673 264.71635 
L 234.105224 264.71635 
L 238.214776 264.71635 
L 242.324327 264.71635 
L 246.433878 264.71635 
L 250.543429 264.71635 
L 254.65298 264.71635 
L 258.762532 264.71635 
L 262.872083 264.71635 
L 266.981634 264.71635 
L 271.091185 264.896381 
L 275.200736 265.294485 
L 279.310288 276.321077 
L 283.419839 272.839659 
L 287.52939 276.750345 
L 291.638941 273.140147 
L 295.748493 268.875977 
L 299.858044 264.722961 
L 303.967595 264.720978 
L 308.077146 264.719589 
L 312.186697 272.222547 
L 316.296249 276.65204 
L 320.4058 273.071333 
L 324.515351 270.564838 
L 328.624902 264.799954 
L 332.734453 265.001163 
L 336.844005 267.91175 
L 340.953556 264.839758 
L 345.063107 264.810957 
L 349.172658 267.805141 
L 353.282209 274.089116 
L 357.391761 272.423585 
L 361.501312 269.207132 
L 365.610863 271.134463 
L 369.720414 264.723741 
L 373.829965 265.05959 
L 377.939517 264.956618 
L 382.049068 264.884537 
L 386.158619 264.834081 
L 390.26817 264.798762 
L 394.377722 260.185201 
L 398.487273 261.544546 
L 398.487273 261.544546 
L 398.487273 234.525176 
L 394.377722 221.586102 
L 390.26817 250.181302 
L 386.158619 243.951996 
L 382.049068 235.052987 
L 377.939517 222.340117 
L 373.829965 204.178874 
L 369.720414 186.853717 
L 365.610863 207.410808 
L 361.501312 218.965361 
L 357.391761 213.316762 
L 353.282209 197.690934 
L 349.172658 211.828583 
L 345.063107 231.740748 
L 340.953556 224.345128 
L 336.844005 216.980818 
L 332.734453 242.513988 
L 328.624902 240.418009 
L 324.515351 238.805137 
L 320.4058 227.700332 
L 316.296249 211.836324 
L 312.186697 225.081122 
L 308.077146 253.926079 
L 303.967595 249.301677 
L 299.858044 242.695389 
L 295.748493 242.064398 
L 291.638941 233.278312 
L 287.52939 219.804868 
L 283.419839 234.399747 
L 279.310288 221.406918 
L 275.200736 262.558722 
L 271.091185 264.044464 
L 266.981634 264.71635 
L 262.872083 264.71635 
L 258.762532 264.71635 
L 254.65298 264.71635 
L 250.543429 264.71635 
L 246.433878 264.71635 
L 242.324327 264.71635 
L 238.214776 264.71635 
L 234.105224 264.71635 
L 229.995673 264.71635 
L 225.886122 264.71635 
L 221.776571 264.71635 
L 217.66702 264.71635 
L 213.557468 264.71635 
L 209.447917 264.71635 
L 205.338366 264.71635 
L 201.228815 264.71635 
L 197.119264 264.71635 
L 193.009712 264.71635 
L 188.900161 264.71635 
L 184.79061 264.71635 
L 180.681059 264.71635 
L 176.571507 264.71635 
L 172.461956 264.71635 
L 168.352405 264.71635 
L 164.242854 264.71635 
L 160.133303 264.71635 
L 156.023751 264.71635 
L 151.9142 264.71635 
L 147.804649 264.71635 
L 143.695098 264.71635 
L 139.585547 264.71635 
L 135.475995 264.71635 
L 131.366444 264.71635 
L 127.256893 264.71635 
L 123.147342 264.71635 
L 119.037791 264.71635 
L 114.928239 264.71635 
L 110.818688 264.71635 
L 106.709137 264.71635 
L 102.599586 264.71635 
L 98.490035 264.71635 
L 94.380483 264.71635 
L 90.270932 264.71635 
L 86.161381 264.71635 
L 82.05183 264.71635 
L 77.942278 264.71635 
L 73.832727 264.71635 
z
" style="fill:#ff7f0e;fill-opacity:0.3;"/>
   </g>
   <g id="PolyCollection_3">
    <path clip-path="url(#p10a5a491b6)" d="M 73.832727 264.71635 
L 73.832727 264.71635 
L 77.942278 264.71635 
L 82.05183 264.71635 
L 86.161381 264.71635 
L 90.270932 264.71635 
L 94.380483 264.71635 
L 98.490035 264.71635 
L 102.599586 264.71635 
L 106.709137 264.71635 
L 110.818688 264.71635 
L 114.928239 264.71635 
L 119.037791 264.71635 
L 123.147342 264.71635 
L 127.256893 264.71635 
L 131.366444 264.71635 
L 135.475995 264.71635 
L 139.585547 264.71635 
L 143.695098 264.71635 
L 147.804649 264.71635 
L 151.9142 264.71635 
L 156.023751 264.71635 
L 160.133303 264.71635 
L 164.242854 264.71635 
L 168.352405 264.71635 
L 172.461956 264.71635 
L 176.571507 264.71635 
L 180.681059 264.71635 
L 184.79061 264.71635 
L 188.900161 264.71635 
L 193.009712 264.71635 
L 197.119264 264.71635 
L 201.228815 264.71635 
L 205.338366 264.71635 
L 209.447917 264.71635 
L 213.557468 264.71635 
L 217.66702 264.71635 
L 221.776571 264.71635 
L 225.886122 264.71635 
L 229.995673 264.71635 
L 234.105224 264.71635 
L 238.214776 264.71635 
L 242.324327 264.71635 
L 246.433878 264.71635 
L 250.543429 268.295272 
L 254.65298 275.9639 
L 258.762532 276.004222 
L 262.872083 276.898684 
L 266.981634 273.243984 
L 271.091185 278.292295 
L 275.200736 274.219511 
L 279.310288 280.467037 
L 283.419839 288.263342 
L 287.52939 290.927052 
L 291.638941 289.972676 
L 295.748493 285.116398 
L 299.858044 289.35218 
L 303.967595 292.070154 
L 308.077146 292.630663 
L 312.186697 277.816656 
L 316.296249 265.390228 
L 320.4058 261.55288 
L 324.515351 254.66433 
L 328.624902 256.362777 
L 332.734453 251.161871 
L 336.844005 260.336395 
L 340.953556 268.247259 
L 345.063107 279.859587 
L 349.172658 287.864452 
L 353.282209 277.117209 
L 357.391761 269.317085 
L 361.501312 267.555445 
L 365.610863 272.234581 
L 369.720414 265.696884 
L 373.829965 266.180313 
L 377.939517 257.09856 
L 382.049068 259.862006 
L 386.158619 259.717607 
L 390.26817 261.099026 
L 394.377722 263.232579 
L 398.487273 263.114942 
L 398.487273 263.114942 
L 398.487273 64.999377 
L 394.377722 57.829681 
L 390.26817 53.568 
L 386.158619 66.182805 
L 382.049068 82.390194 
L 377.939517 72.329057 
L 373.829965 74.880195 
L 369.720414 80.123499 
L 365.610863 79.316004 
L 361.501312 87.109238 
L 357.391761 110.325887 
L 353.282209 137.406994 
L 349.172658 121.148428 
L 345.063107 127.809988 
L 340.953556 140.374085 
L 336.844005 160.856161 
L 332.734453 164.87268 
L 328.624902 166.717585 
L 324.515351 159.746716 
L 320.4058 140.515801 
L 316.296249 148.648393 
L 312.186697 149.855328 
L 308.077146 160.538716 
L 303.967595 162.630564 
L 299.858044 172.774181 
L 295.748493 188.582332 
L 291.638941 170.458456 
L 287.52939 166.896679 
L 283.419839 176.837778 
L 279.310288 205.933985 
L 275.200736 229.250069 
L 271.091185 214.050235 
L 266.981634 232.890786 
L 262.872083 219.251259 
L 258.762532 222.589437 
L 254.65298 222.73992 
L 250.543429 251.359629 
L 246.433878 264.71635 
L 242.324327 264.71635 
L 238.214776 264.71635 
L 234.105224 264.71635 
L 229.995673 264.71635 
L 225.886122 264.71635 
L 221.776571 264.71635 
L 217.66702 264.71635 
L 213.557468 264.71635 
L 209.447917 264.71635 
L 205.338366 264.71635 
L 201.228815 264.71635 
L 197.119264 264.71635 
L 193.009712 264.71635 
L 188.900161 264.71635 
L 184.79061 264.71635 
L 180.681059 264.71635 
L 176.571507 264.71635 
L 172.461956 264.71635 
L 168.352405 264.71635 
L 164.242854 264.71635 
L 160.133303 264.71635 
L 156.023751 264.71635 
L 151.9142 264.71635 
L 147.804649 264.71635 
L 143.695098 264.71635 
L 139.585547 264.71635 
L 135.475995 264.71635 
L 131.366444 264.71635 
L 127.256893 264.71635 
L 123.147342 264.71635 
L 119.037791 264.71635 
L 114.928239 264.71635 
L 110.818688 264.71635 
L 106.709137 264.71635 
L 102.599586 264.71635 
L 98.490035 264.71635 
L 94.380483 264.71635 
L 90.270932 264.71635 
L 86.161381 264.71635 
L 82.05183 264.71635 
L 77.942278 264.71635 
L 73.832727 264.71635 
z
" style="fill:#2ca02c;fill-opacity:0.3;"/>
   </g>
   <g id="PolyCollection_4">
    <path clip-path="url(#p10a5a491b6)" d="M 73.832727 264.71635 
L 73.832727 264.71635 
L 77.942278 264.71635 
L 82.05183 264.71635 
L 86.161381 264.71635 
L 90.270932 264.71635 
L 94.380483 264.71635 
L 98.490035 264.71635 
L 102.599586 264.71635 
L 106.709137 264.71635 
L 110.818688 264.71635 
L 114.928239 264.71635 
L 119.037791 264.71635 
L 123.147342 264.71635 
L 127.256893 264.71635 
L 131.366444 264.71635 
L 135.475995 264.71635 
L 139.585547 264.71635 
L 143.695098 264.71635 
L 147.804649 264.71635 
L 151.9142 264.71635 
L 156.023751 264.71635 
L 160.133303 264.71635 
L 164.242854 264.71635 
L 168.352405 264.71635 
L 172.461956 264.71635 
L 176.571507 264.71635 
L 180.681059 264.71635 
L 184.79061 264.71635 
L 188.900161 264.71635 
L 193.009712 264.71635 
L 197.119264 264.71635 
L 201.228815 264.71635 
L 205.338366 264.71635 
L 209.447917 264.71635 
L 213.557468 264.71635 
L 217.66702 264.71635 
L 221.776571 264.71635 
L 225.886122 264.71635 
L 229.995673 264.71635 
L 234.105224 264.71635 
L 238.214776 264.71635 
L 242.324327 264.71635 
L 246.433878 264.71635 
L 250.543429 264.71635 
L 254.65298 264.71635 
L 258.762532 264.71635 
L 262.872083 264.71635 
L 266.981634 264.71635 
L 271.091185 264.71635 
L 275.200736 264.71635 
L 279.310288 264.71635 
L 283.419839 264.71635 
L 287.52939 264.71635 
L 291.638941 264.71635 
L 295.748493 264.71635 
L 299.858044 264.71635 
L 303.967595 264.71635 
L 308.077146 265.226424 
L 312.186697 265.073402 
L 316.296249 264.966286 
L 320.4058 264.891305 
L 324.515351 267.811117 
L 328.624902 266.882687 
L 332.734453 266.232786 
L 336.844005 265.777855 
L 340.953556 265.459404 
L 345.063107 265.236487 
L 349.172658 265.080446 
L 353.282209 269.80446 
L 357.391761 280.671278 
L 361.501312 290.803995 
L 365.610863 295.488 
L 369.720414 286.256505 
L 373.829965 287.759318 
L 377.939517 290.090148 
L 382.049068 295.14104 
L 386.158619 275.881194 
L 390.26817 283.581824 
L 394.377722 282.818818 
L 398.487273 282.486534 
L 398.487273 282.486534 
L 398.487273 154.391316 
L 394.377722 135.430412 
L 390.26817 107.812532 
L 386.158619 117.195046 
L 382.049068 151.136375 
L 377.939517 169.972211 
L 373.829965 178.650486 
L 369.720414 184.22978 
L 365.610863 149.735536 
L 361.501312 167.156739 
L 357.391761 204.887299 
L 353.282209 245.321865 
L 349.172658 262.803862 
L 345.063107 261.984224 
L 340.953556 260.813313 
L 336.844005 259.140582 
L 332.734453 256.750968 
L 328.624902 253.337232 
L 324.515351 248.460468 
L 320.4058 264.063408 
L 316.296249 263.783575 
L 312.186697 263.383815 
L 308.077146 262.812728 
L 303.967595 264.71635 
L 299.858044 264.71635 
L 295.748493 264.71635 
L 291.638941 264.71635 
L 287.52939 264.71635 
L 283.419839 264.71635 
L 279.310288 264.71635 
L 275.200736 264.71635 
L 271.091185 264.71635 
L 266.981634 264.71635 
L 262.872083 264.71635 
L 258.762532 264.71635 
L 254.65298 264.71635 
L 250.543429 264.71635 
L 246.433878 264.71635 
L 242.324327 264.71635 
L 238.214776 264.71635 
L 234.105224 264.71635 
L 229.995673 264.71635 
L 225.886122 264.71635 
L 221.776571 264.71635 
L 217.66702 264.71635 
L 213.557468 264.71635 
L 209.447917 264.71635 
L 205.338366 264.71635 
L 201.228815 264.71635 
L 197.119264 264.71635 
L 193.009712 264.71635 
L 188.900161 264.71635 
L 184.79061 264.71635 
L 180.681059 264.71635 
L 176.571507 264.71635 
L 172.461956 264.71635 
L 168.352405 264.71635 
L 164.242854 264.71635 
L 160.133303 264.71635 
L 156.023751 264.71635 
L 151.9142 264.71635 
L 147.804649 264.71635 
L 143.695098 264.71635 
L 139.585547 264.71635 
L 135.475995 264.71635 
L 131.366444 264.71635 
L 127.256893 264.71635 
L 123.147342 264.71635 
L 119.037791 264.71635 
L 114.928239 264.71635 
L 110.818688 264.71635 
L 106.709137 264.71635 
L 102.599586 264.71635 
L 98.490035 264.71635 
L 94.380483 264.71635 
L 90.270932 264.71635 
L 86.161381 264.71635 
L 82.05183 264.71635 
L 77.942278 264.71635 
L 73.832727 264.71635 
z
" style="fill:#d62728;fill-opacity:0.3;"/>
   </g>
   <g id="matplotlib.axis_1">
    <g id="xtick_1">
     <g id="line2d_1">
      <defs>
       <path d="M 0 0 
L 0 3.5 
" id="m43c680f51a" style="stroke:#000000;stroke-width:0.8;"/>
      </defs>
      <g>
       <use style="stroke:#000000;stroke-width:0.8;" x="69.723176" xlink:href="#m43c680f51a" y="307.584"/>
      </g>
     </g>
     <g id="text_1">
      <!-- 0 -->
      <g transform="translate(66.541926 322.182437)scale(0.1 -0.1)">
       <defs>
        <path d="M 2034 4250 
Q 1547 4250 1301 3770 
Q 1056 3291 1056 2328 
Q 1056 1369 1301 889 
Q 1547 409 2034 409 
Q 2525 409 2770 889 
Q 3016 1369 3016 2328 
Q 3016 3291 2770 3770 
Q 2525 4250 2034 4250 
z
M 2034 4750 
Q 2819 4750 3233 4129 
Q 3647 3509 3647 2328 
Q 3647 1150 3233 529 
Q 2819 -91 2034 -91 
Q 1250 -91 836 529 
Q 422 1150 422 2328 
Q 422 3509 836 4129 
Q 1250 4750 2034 4750 
z
" id="DejaVuSans-30" transform="scale(0.015625)"/>
       </defs>
       <use xlink:href="#DejaVuSans-30"/>
      </g>
     </g>
    </g>
    <g id="xtick_2">
     <g id="line2d_2">
      <g>
       <use style="stroke:#000000;stroke-width:0.8;" x="110.818688" xlink:href="#m43c680f51a" y="307.584"/>
      </g>
     </g>
     <g id="text_2">
      <!-- 50 -->
      <g transform="translate(104.456188 322.182437)scale(0.1 -0.1)">
       <defs>
        <path d="M 691 4666 
L 3169 4666 
L 3169 4134 
L 1269 4134 
L 1269 2991 
Q 1406 3038 1543 3061 
Q 1681 3084 1819 3084 
Q 2600 3084 3056 2656 
Q 3513 2228 3513 1497 
Q 3513 744 3044 326 
Q 2575 -91 1722 -91 
Q 1428 -91 1123 -41 
Q 819 9 494 109 
L 494 744 
Q 775 591 1075 516 
Q 1375 441 1709 441 
Q 2250 441 2565 725 
Q 2881 1009 2881 1497 
Q 2881 1984 2565 2268 
Q 2250 2553 1709 2553 
Q 1456 2553 1204 2497 
Q 953 2441 691 2322 
L 691 4666 
z
" id="DejaVuSans-35" transform="scale(0.015625)"/>
       </defs>
       <use xlink:href="#DejaVuSans-35"/>
       <use x="63.623047" xlink:href="#DejaVuSans-30"/>
      </g>
     </g>
    </g>
    <g id="xtick_3">
     <g id="line2d_3">
      <g>
       <use style="stroke:#000000;stroke-width:0.8;" x="151.9142" xlink:href="#m43c680f51a" y="307.584"/>
      </g>
     </g>
     <g id="text_3">
      <!-- 100 -->
      <g transform="translate(142.37045 322.182437)scale(0.1 -0.1)">
       <defs>
        <path d="M 794 531 
L 1825 531 
L 1825 4091 
L 703 3866 
L 703 4441 
L 1819 4666 
L 2450 4666 
L 2450 531 
L 3481 531 
L 3481 0 
L 794 0 
L 794 531 
z
" id="DejaVuSans-31" transform="scale(0.015625)"/>
       </defs>
       <use xlink:href="#DejaVuSans-31"/>
       <use x="63.623047" xlink:href="#DejaVuSans-30"/>
       <use x="127.246094" xlink:href="#DejaVuSans-30"/>
      </g>
     </g>
    </g>
    <g id="xtick_4">
     <g id="line2d_4">
      <g>
       <use style="stroke:#000000;stroke-width:0.8;" x="193.009712" xlink:href="#m43c680f51a" y="307.584"/>
      </g>
     </g>
     <g id="text_4">
      <!-- 150 -->
      <g transform="translate(183.465962 322.182437)scale(0.1 -0.1)">
       <use xlink:href="#DejaVuSans-31"/>
       <use x="63.623047" xlink:href="#DejaVuSans-35"/>
       <use x="127.246094" xlink:href="#DejaVuSans-30"/>
      </g>
     </g>
    </g>
    <g id="xtick_5">
     <g id="line2d_5">
      <g>
       <use style="stroke:#000000;stroke-width:0.8;" x="234.105224" xlink:href="#m43c680f51a" y="307.584"/>
      </g>
     </g>
     <g id="text_5">
      <!-- 200 -->
      <g transform="translate(224.561474 322.182437)scale(0.1 -0.1)">
       <defs>
        <path d="M 1228 531 
L 3431 531 
L 3431 0 
L 469 0 
L 469 531 
Q 828 903 1448 1529 
Q 2069 2156 2228 2338 
Q 2531 2678 2651 2914 
Q 2772 3150 2772 3378 
Q 2772 3750 2511 3984 
Q 2250 4219 1831 4219 
Q 1534 4219 1204 4116 
Q 875 4013 500 3803 
L 500 4441 
Q 881 4594 1212 4672 
Q 1544 4750 1819 4750 
Q 2544 4750 2975 4387 
Q 3406 4025 3406 3419 
Q 3406 3131 3298 2873 
Q 3191 2616 2906 2266 
Q 2828 2175 2409 1742 
Q 1991 1309 1228 531 
z
" id="DejaVuSans-32" transform="scale(0.015625)"/>
       </defs>
       <use xlink:href="#DejaVuSans-32"/>
       <use x="63.623047" xlink:href="#DejaVuSans-30"/>
       <use x="127.246094" xlink:href="#DejaVuSans-30"/>
      </g>
     </g>
    </g>
    <g id="xtick_6">
     <g id="line2d_6">
      <g>
       <use style="stroke:#000000;stroke-width:0.8;" x="275.200736" xlink:href="#m43c680f51a" y="307.584"/>
      </g>
     </g>
     <g id="text_6">
      <!-- 250 -->
      <g transform="translate(265.656986 322.182437)scale(0.1 -0.1)">
       <use xlink:href="#DejaVuSans-32"/>
       <use x="63.623047" xlink:href="#DejaVuSans-35"/>
       <use x="127.246094" xlink:href="#DejaVuSans-30"/>
      </g>
     </g>
    </g>
    <g id="xtick_7">
     <g id="line2d_7">
      <g>
       <use style="stroke:#000000;stroke-width:0.8;" x="316.296249" xlink:href="#m43c680f51a" y="307.584"/>
      </g>
     </g>
     <g id="text_7">
      <!-- 300 -->
      <g transform="translate(306.752499 322.182437)scale(0.1 -0.1)">
       <defs>
        <path d="M 2597 2516 
Q 3050 2419 3304 2112 
Q 3559 1806 3559 1356 
Q 3559 666 3084 287 
Q 2609 -91 1734 -91 
Q 1441 -91 1130 -33 
Q 819 25 488 141 
L 488 750 
Q 750 597 1062 519 
Q 1375 441 1716 441 
Q 2309 441 2620 675 
Q 2931 909 2931 1356 
Q 2931 1769 2642 2001 
Q 2353 2234 1838 2234 
L 1294 2234 
L 1294 2753 
L 1863 2753 
Q 2328 2753 2575 2939 
Q 2822 3125 2822 3475 
Q 2822 3834 2567 4026 
Q 2313 4219 1838 4219 
Q 1578 4219 1281 4162 
Q 984 4106 628 3988 
L 628 4550 
Q 988 4650 1302 4700 
Q 1616 4750 1894 4750 
Q 2613 4750 3031 4423 
Q 3450 4097 3450 3541 
Q 3450 3153 3228 2886 
Q 3006 2619 2597 2516 
z
" id="DejaVuSans-33" transform="scale(0.015625)"/>
       </defs>
       <use xlink:href="#DejaVuSans-33"/>
       <use x="63.623047" xlink:href="#DejaVuSans-30"/>
       <use x="127.246094" xlink:href="#DejaVuSans-30"/>
      </g>
     </g>
    </g>
    <g id="xtick_8">
     <g id="line2d_8">
      <g>
       <use style="stroke:#000000;stroke-width:0.8;" x="357.391761" xlink:href="#m43c680f51a" y="307.584"/>
      </g>
     </g>
     <g id="text_8">
      <!-- 350 -->
      <g transform="translate(347.848011 322.182437)scale(0.1 -0.1)">
       <use xlink:href="#DejaVuSans-33"/>
       <use x="63.623047" xlink:href="#DejaVuSans-35"/>
       <use x="127.246094" xlink:href="#DejaVuSans-30"/>
      </g>
     </g>
    </g>
    <g id="xtick_9">
     <g id="line2d_9">
      <g>
       <use style="stroke:#000000;stroke-width:0.8;" x="398.487273" xlink:href="#m43c680f51a" y="307.584"/>
      </g>
     </g>
     <g id="text_9">
      <!-- 400 -->
      <g transform="translate(388.943523 322.182437)scale(0.1 -0.1)">
       <defs>
        <path d="M 2419 4116 
L 825 1625 
L 2419 1625 
L 2419 4116 
z
M 2253 4666 
L 3047 4666 
L 3047 1625 
L 3713 1625 
L 3713 1100 
L 3047 1100 
L 3047 0 
L 2419 0 
L 2419 1100 
L 313 1100 
L 313 1709 
L 2253 4666 
z
" id="DejaVuSans-34" transform="scale(0.015625)"/>
       </defs>
       <use xlink:href="#DejaVuSans-34"/>
       <use x="63.623047" xlink:href="#DejaVuSans-30"/>
       <use x="127.246094" xlink:href="#DejaVuSans-30"/>
      </g>
     </g>
    </g>
   </g>
   <g id="matplotlib.axis_2">
    <g id="ytick_1">
     <g id="line2d_10">
      <defs>
       <path d="M 0 0 
L -3.5 0 
" id="mfd2711995f" style="stroke:#000000;stroke-width:0.8;"/>
      </defs>
      <g>
       <use style="stroke:#000000;stroke-width:0.8;" x="57.6" xlink:href="#mfd2711995f" y="293.483884"/>
      </g>
     </g>
     <g id="text_10">
      <!-- −190 -->
      <g transform="translate(23.132812 297.283103)scale(0.1 -0.1)">
       <defs>
        <path d="M 678 2272 
L 4684 2272 
L 4684 1741 
L 678 1741 
L 678 2272 
z
" id="DejaVuSans-2212" transform="scale(0.015625)"/>
        <path d="M 703 97 
L 703 672 
Q 941 559 1184 500 
Q 1428 441 1663 441 
Q 2288 441 2617 861 
Q 2947 1281 2994 2138 
Q 2813 1869 2534 1725 
Q 2256 1581 1919 1581 
Q 1219 1581 811 2004 
Q 403 2428 403 3163 
Q 403 3881 828 4315 
Q 1253 4750 1959 4750 
Q 2769 4750 3195 4129 
Q 3622 3509 3622 2328 
Q 3622 1225 3098 567 
Q 2575 -91 1691 -91 
Q 1453 -91 1209 -44 
Q 966 3 703 97 
z
M 1959 2075 
Q 2384 2075 2632 2365 
Q 2881 2656 2881 3163 
Q 2881 3666 2632 3958 
Q 2384 4250 1959 4250 
Q 1534 4250 1286 3958 
Q 1038 3666 1038 3163 
Q 1038 2656 1286 2365 
Q 1534 2075 1959 2075 
z
" id="DejaVuSans-39" transform="scale(0.015625)"/>
       </defs>
       <use xlink:href="#DejaVuSans-2212"/>
       <use x="83.789062" xlink:href="#DejaVuSans-31"/>
       <use x="147.412109" xlink:href="#DejaVuSans-39"/>
       <use x="211.035156" xlink:href="#DejaVuSans-30"/>
      </g>
     </g>
    </g>
    <g id="ytick_2">
     <g id="line2d_11">
      <g>
       <use style="stroke:#000000;stroke-width:0.8;" x="57.6" xlink:href="#mfd2711995f" y="260.222118"/>
      </g>
     </g>
     <g id="text_11">
      <!-- −180 -->
      <g transform="translate(23.132812 264.021337)scale(0.1 -0.1)">
       <defs>
        <path d="M 2034 2216 
Q 1584 2216 1326 1975 
Q 1069 1734 1069 1313 
Q 1069 891 1326 650 
Q 1584 409 2034 409 
Q 2484 409 2743 651 
Q 3003 894 3003 1313 
Q 3003 1734 2745 1975 
Q 2488 2216 2034 2216 
z
M 1403 2484 
Q 997 2584 770 2862 
Q 544 3141 544 3541 
Q 544 4100 942 4425 
Q 1341 4750 2034 4750 
Q 2731 4750 3128 4425 
Q 3525 4100 3525 3541 
Q 3525 3141 3298 2862 
Q 3072 2584 2669 2484 
Q 3125 2378 3379 2068 
Q 3634 1759 3634 1313 
Q 3634 634 3220 271 
Q 2806 -91 2034 -91 
Q 1263 -91 848 271 
Q 434 634 434 1313 
Q 434 1759 690 2068 
Q 947 2378 1403 2484 
z
M 1172 3481 
Q 1172 3119 1398 2916 
Q 1625 2713 2034 2713 
Q 2441 2713 2670 2916 
Q 2900 3119 2900 3481 
Q 2900 3844 2670 4047 
Q 2441 4250 2034 4250 
Q 1625 4250 1398 4047 
Q 1172 3844 1172 3481 
z
" id="DejaVuSans-38" transform="scale(0.015625)"/>
       </defs>
       <use xlink:href="#DejaVuSans-2212"/>
       <use x="83.789062" xlink:href="#DejaVuSans-31"/>
       <use x="147.412109" xlink:href="#DejaVuSans-38"/>
       <use x="211.035156" xlink:href="#DejaVuSans-30"/>
      </g>
     </g>
    </g>
    <g id="ytick_3">
     <g id="line2d_12">
      <g>
       <use style="stroke:#000000;stroke-width:0.8;" x="57.6" xlink:href="#mfd2711995f" y="226.960352"/>
      </g>
     </g>
     <g id="text_12">
      <!-- −170 -->
      <g transform="translate(23.132812 230.759571)scale(0.1 -0.1)">
       <defs>
        <path d="M 525 4666 
L 3525 4666 
L 3525 4397 
L 1831 0 
L 1172 0 
L 2766 4134 
L 525 4134 
L 525 4666 
z
" id="DejaVuSans-37" transform="scale(0.015625)"/>
       </defs>
       <use xlink:href="#DejaVuSans-2212"/>
       <use x="83.789062" xlink:href="#DejaVuSans-31"/>
       <use x="147.412109" xlink:href="#DejaVuSans-37"/>
       <use x="211.035156" xlink:href="#DejaVuSans-30"/>
      </g>
     </g>
    </g>
    <g id="ytick_4">
     <g id="line2d_13">
      <g>
       <use style="stroke:#000000;stroke-width:0.8;" x="57.6" xlink:href="#mfd2711995f" y="193.698587"/>
      </g>
     </g>
     <g id="text_13">
      <!-- −160 -->
      <g transform="translate(23.132812 197.497805)scale(0.1 -0.1)">
       <defs>
        <path d="M 2113 2584 
Q 1688 2584 1439 2293 
Q 1191 2003 1191 1497 
Q 1191 994 1439 701 
Q 1688 409 2113 409 
Q 2538 409 2786 701 
Q 3034 994 3034 1497 
Q 3034 2003 2786 2293 
Q 2538 2584 2113 2584 
z
M 3366 4563 
L 3366 3988 
Q 3128 4100 2886 4159 
Q 2644 4219 2406 4219 
Q 1781 4219 1451 3797 
Q 1122 3375 1075 2522 
Q 1259 2794 1537 2939 
Q 1816 3084 2150 3084 
Q 2853 3084 3261 2657 
Q 3669 2231 3669 1497 
Q 3669 778 3244 343 
Q 2819 -91 2113 -91 
Q 1303 -91 875 529 
Q 447 1150 447 2328 
Q 447 3434 972 4092 
Q 1497 4750 2381 4750 
Q 2619 4750 2861 4703 
Q 3103 4656 3366 4563 
z
" id="DejaVuSans-36" transform="scale(0.015625)"/>
       </defs>
       <use xlink:href="#DejaVuSans-2212"/>
       <use x="83.789062" xlink:href="#DejaVuSans-31"/>
       <use x="147.412109" xlink:href="#DejaVuSans-36"/>
       <use x="211.035156" xlink:href="#DejaVuSans-30"/>
      </g>
     </g>
    </g>
    <g id="ytick_5">
     <g id="line2d_14">
      <g>
       <use style="stroke:#000000;stroke-width:0.8;" x="57.6" xlink:href="#mfd2711995f" y="160.436821"/>
      </g>
     </g>
     <g id="text_14">
      <!-- −150 -->
      <g transform="translate(23.132812 164.23604)scale(0.1 -0.1)">
       <use xlink:href="#DejaVuSans-2212"/>
       <use x="83.789062" xlink:href="#DejaVuSans-31"/>
       <use x="147.412109" xlink:href="#DejaVuSans-35"/>
       <use x="211.035156" xlink:href="#DejaVuSans-30"/>
      </g>
     </g>
    </g>
    <g id="ytick_6">
     <g id="line2d_15">
      <g>
       <use style="stroke:#000000;stroke-width:0.8;" x="57.6" xlink:href="#mfd2711995f" y="127.175055"/>
      </g>
     </g>
     <g id="text_15">
      <!-- −140 -->
      <g transform="translate(23.132812 130.974274)scale(0.1 -0.1)">
       <use xlink:href="#DejaVuSans-2212"/>
       <use x="83.789062" xlink:href="#DejaVuSans-31"/>
       <use x="147.412109" xlink:href="#DejaVuSans-34"/>
       <use x="211.035156" xlink:href="#DejaVuSans-30"/>
      </g>
     </g>
    </g>
    <g id="ytick_7">
     <g id="line2d_16">
      <g>
       <use style="stroke:#000000;stroke-width:0.8;" x="57.6" xlink:href="#mfd2711995f" y="93.913289"/>
      </g>
     </g>
     <g id="text_16">
      <!-- −130 -->
      <g transform="translate(23.132812 97.712508)scale(0.1 -0.1)">
       <use xlink:href="#DejaVuSans-2212"/>
       <use x="83.789062" xlink:href="#DejaVuSans-31"/>
       <use x="147.412109" xlink:href="#DejaVuSans-33"/>
       <use x="211.035156" xlink:href="#DejaVuSans-30"/>
      </g>
     </g>
    </g>
    <g id="ytick_8">
     <g id="line2d_17">
      <g>
       <use style="stroke:#000000;stroke-width:0.8;" x="57.6" xlink:href="#mfd2711995f" y="60.651523"/>
      </g>
     </g>
     <g id="text_17">
      <!-- −120 -->
      <g transform="translate(23.132812 64.450742)scale(0.1 -0.1)">
       <use xlink:href="#DejaVuSans-2212"/>
       <use x="83.789062" xlink:href="#DejaVuSans-31"/>
       <use x="147.412109" xlink:href="#DejaVuSans-32"/>
       <use x="211.035156" xlink:href="#DejaVuSans-30"/>
      </g>
     </g>
    </g>
   </g>
   <g id="line2d_18">
    <path clip-path="url(#p10a5a491b6)" d="M 73.832727 264.71635 
L 77.942278 264.71635 
L 82.05183 264.71635 
L 86.161381 264.71635 
L 90.270932 264.71635 
L 94.380483 264.71635 
L 98.490035 264.71635 
L 102.599586 264.71635 
L 106.709137 264.71635 
L 110.818688 264.71635 
L 114.928239 264.71635 
L 119.037791 264.71635 
L 123.147342 264.71635 
L 127.256893 264.71635 
L 131.366444 264.71635 
L 135.475995 264.71635 
L 139.585547 264.71635 
L 143.695098 264.71635 
L 147.804649 264.71635 
L 151.9142 264.71635 
L 156.023751 264.71635 
L 160.133303 264.71635 
L 164.242854 264.71635 
L 168.352405 264.71635 
L 172.461956 264.71635 
L 176.571507 264.71635 
L 180.681059 264.71635 
L 184.79061 264.71635 
L 188.900161 264.71635 
L 193.009712 264.71635 
L 197.119264 264.71635 
L 201.228815 264.71635 
L 205.338366 264.71635 
L 209.447917 264.71635 
L 213.557468 264.71635 
L 217.66702 264.71635 
L 221.776571 264.71635 
L 225.886122 264.71635 
L 229.995673 264.71635 
L 234.105224 264.71635 
L 238.214776 264.71635 
L 242.324327 264.71635 
L 246.433878 264.71635 
L 250.543429 264.71635 
L 254.65298 264.71635 
L 258.762532 264.71635 
L 262.872083 264.71635 
L 266.981634 264.71635 
L 271.091185 264.71635 
L 275.200736 264.71635 
L 279.310288 264.71635 
L 283.419839 264.71635 
L 287.52939 264.71635 
L 291.638941 264.71635 
L 295.748493 264.71635 
L 299.858044 264.71635 
L 303.967595 264.71635 
L 308.077146 264.71635 
L 312.186697 264.71635 
L 316.296249 264.71635 
L 320.4058 264.71635 
L 324.515351 264.71635 
L 328.624902 264.71635 
L 332.734453 264.71635 
L 336.844005 264.71635 
L 340.953556 264.71635 
L 345.063107 264.71635 
L 349.172658 264.71635 
L 353.282209 264.71635 
L 357.391761 264.71635 
L 361.501312 264.71635 
L 365.610863 264.71635 
L 369.720414 264.71635 
L 373.829965 264.71635 
L 377.939517 264.71635 
L 382.049068 264.71635 
L 386.158619 264.71635 
L 390.26817 264.71635 
L 394.377722 264.71635 
L 398.487273 264.71635 
" style="fill:none;stroke:#1f77b4;stroke-linecap:square;stroke-width:1.5;"/>
   </g>
   <g id="line2d_19">
    <path clip-path="url(#p10a5a491b6)" d="M 73.832727 264.71635 
L 77.942278 264.71635 
L 82.05183 264.71635 
L 86.161381 264.71635 
L 90.270932 264.71635 
L 94.380483 264.71635 
L 98.490035 264.71635 
L 102.599586 264.71635 
L 106.709137 264.71635 
L 110.818688 264.71635 
L 114.928239 264.71635 
L 119.037791 264.71635 
L 123.147342 264.71635 
L 127.256893 264.71635 
L 131.366444 264.71635 
L 135.475995 264.71635 
L 139.585547 264.71635 
L 143.695098 264.71635 
L 147.804649 264.71635 
L 151.9142 264.71635 
L 156.023751 264.71635 
L 160.133303 264.71635 
L 164.242854 264.71635 
L 168.352405 264.71635 
L 172.461956 264.71635 
L 176.571507 264.71635 
L 180.681059 264.71635 
L 184.79061 264.71635 
L 188.900161 264.71635 
L 193.009712 264.71635 
L 197.119264 264.71635 
L 201.228815 264.71635 
L 205.338366 264.71635 
L 209.447917 264.71635 
L 213.557468 264.71635 
L 217.66702 264.71635 
L 221.776571 264.71635 
L 225.886122 264.71635 
L 229.995673 264.71635 
L 234.105224 264.71635 
L 238.214776 264.71635 
L 242.324327 264.71635 
L 246.433878 264.71635 
L 250.543429 264.71635 
L 254.65298 264.71635 
L 258.762532 264.71635 
L 262.872083 264.71635 
L 266.981634 264.71635 
L 271.091185 264.470422 
L 275.200736 263.926603 
L 279.310288 248.863997 
L 283.419839 253.619703 
L 287.52939 248.277606 
L 291.638941 253.209229 
L 295.748493 255.470187 
L 299.858044 253.709175 
L 303.967595 257.011328 
L 308.077146 259.322834 
L 312.186697 248.651834 
L 316.296249 244.244182 
L 320.4058 250.385832 
L 324.515351 254.684987 
L 328.624902 252.608982 
L 332.734453 253.757575 
L 336.844005 242.446284 
L 340.953556 244.592443 
L 345.063107 248.275853 
L 349.172658 239.816862 
L 353.282209 235.890025 
L 357.391761 242.870174 
L 361.501312 244.086247 
L 365.610863 239.272636 
L 369.720414 225.788729 
L 373.829965 234.619232 
L 377.939517 243.648367 
L 382.049068 249.968762 
L 386.158619 254.393038 
L 390.26817 257.490032 
L 394.377722 240.885651 
L 398.487273 248.034861 
" style="fill:none;stroke:#ff7f0e;stroke-linecap:square;stroke-width:1.5;"/>
   </g>
   <g id="line2d_20">
    <path clip-path="url(#p10a5a491b6)" d="M 73.832727 264.71635 
L 77.942278 264.71635 
L 82.05183 264.71635 
L 86.161381 264.71635 
L 90.270932 264.71635 
L 94.380483 264.71635 
L 98.490035 264.71635 
L 102.599586 264.71635 
L 106.709137 264.71635 
L 110.818688 264.71635 
L 114.928239 264.71635 
L 119.037791 264.71635 
L 123.147342 264.71635 
L 127.256893 264.71635 
L 131.366444 264.71635 
L 135.475995 264.71635 
L 139.585547 264.71635 
L 143.695098 264.71635 
L 147.804649 264.71635 
L 151.9142 264.71635 
L 156.023751 264.71635 
L 160.133303 264.71635 
L 164.242854 264.71635 
L 168.352405 264.71635 
L 172.461956 264.71635 
L 176.571507 264.71635 
L 180.681059 264.71635 
L 184.79061 264.71635 
L 188.900161 264.71635 
L 193.009712 264.71635 
L 197.119264 264.71635 
L 201.228815 264.71635 
L 205.338366 264.71635 
L 209.447917 264.71635 
L 213.557468 264.71635 
L 217.66702 264.71635 
L 221.776571 264.71635 
L 225.886122 264.71635 
L 229.995673 264.71635 
L 234.105224 264.71635 
L 238.214776 264.71635 
L 242.324327 264.71635 
L 246.433878 264.71635 
L 250.543429 259.827451 
L 254.65298 249.35191 
L 258.762532 249.296829 
L 262.872083 248.074972 
L 266.981634 253.067385 
L 271.091185 246.171265 
L 275.200736 251.73479 
L 279.310288 243.200511 
L 283.419839 232.55056 
L 287.52939 228.911865 
L 291.638941 230.215566 
L 295.748493 236.849365 
L 299.858044 231.06318 
L 303.967595 227.350359 
L 308.077146 226.584689 
L 312.186697 213.835992 
L 316.296249 207.019311 
L 320.4058 201.034341 
L 324.515351 207.205523 
L 328.624902 211.540181 
L 332.734453 208.017276 
L 336.844005 210.596278 
L 340.953556 204.310672 
L 345.063107 203.834787 
L 349.172658 204.50644 
L 353.282209 207.262102 
L 357.391761 189.821486 
L 361.501312 177.332341 
L 365.610863 175.775292 
L 369.720414 172.910192 
L 373.829965 170.530254 
L 377.939517 164.713808 
L 382.049068 171.1261 
L 386.158619 162.950206 
L 390.26817 157.333513 
L 394.377722 160.53113 
L 398.487273 164.057159 
" style="fill:none;stroke:#2ca02c;stroke-linecap:square;stroke-width:1.5;"/>
   </g>
   <g id="line2d_21">
    <path clip-path="url(#p10a5a491b6)" d="M 73.832727 264.71635 
L 77.942278 264.71635 
L 82.05183 264.71635 
L 86.161381 264.71635 
L 90.270932 264.71635 
L 94.380483 264.71635 
L 98.490035 264.71635 
L 102.599586 264.71635 
L 106.709137 264.71635 
L 110.818688 264.71635 
L 114.928239 264.71635 
L 119.037791 264.71635 
L 123.147342 264.71635 
L 127.256893 264.71635 
L 131.366444 264.71635 
L 135.475995 264.71635 
L 139.585547 264.71635 
L 143.695098 264.71635 
L 147.804649 264.71635 
L 151.9142 264.71635 
L 156.023751 264.71635 
L 160.133303 264.71635 
L 164.242854 264.71635 
L 168.352405 264.71635 
L 172.461956 264.71635 
L 176.571507 264.71635 
L 180.681059 264.71635 
L 184.79061 264.71635 
L 188.900161 264.71635 
L 193.009712 264.71635 
L 197.119264 264.71635 
L 201.228815 264.71635 
L 205.338366 264.71635 
L 209.447917 264.71635 
L 213.557468 264.71635 
L 217.66702 264.71635 
L 221.776571 264.71635 
L 225.886122 264.71635 
L 229.995673 264.71635 
L 234.105224 264.71635 
L 238.214776 264.71635 
L 242.324327 264.71635 
L 246.433878 264.71635 
L 250.543429 264.71635 
L 254.65298 264.71635 
L 258.762532 264.71635 
L 262.872083 264.71635 
L 266.981634 264.71635 
L 271.091185 264.71635 
L 275.200736 264.71635 
L 279.310288 264.71635 
L 283.419839 264.71635 
L 287.52939 264.71635 
L 291.638941 264.71635 
L 295.748493 264.71635 
L 299.858044 264.71635 
L 303.967595 264.71635 
L 308.077146 264.019576 
L 312.186697 264.228608 
L 316.296249 264.374931 
L 320.4058 264.477356 
L 324.515351 258.135792 
L 328.624902 260.10996 
L 332.734453 261.491877 
L 336.844005 262.459219 
L 340.953556 263.136358 
L 345.063107 263.610356 
L 349.172658 263.942154 
L 353.282209 257.563162 
L 357.391761 242.779288 
L 361.501312 228.980367 
L 365.610863 222.611768 
L 369.720414 235.243143 
L 373.829965 233.204902 
L 377.939517 230.031179 
L 382.049068 223.138707 
L 386.158619 196.53812 
L 390.26817 195.697178 
L 394.377722 209.124615 
L 398.487273 218.438925 
" style="fill:none;stroke:#d62728;stroke-linecap:square;stroke-width:1.5;"/>
   </g>
   <g id="patch_3">
    <path d="M 57.6 307.584 
L 57.6 41.472 
" style="fill:none;stroke:#000000;stroke-linecap:square;stroke-linejoin:miter;stroke-width:0.8;"/>
   </g>
   <g id="patch_4">
    <path d="M 414.72 307.584 
L 414.72 41.472 
" style="fill:none;stroke:#000000;stroke-linecap:square;stroke-linejoin:miter;stroke-width:0.8;"/>
   </g>
   <g id="patch_5">
    <path d="M 57.6 307.584 
L 414.72 307.584 
" style="fill:none;stroke:#000000;stroke-linecap:square;stroke-linejoin:miter;stroke-width:0.8;"/>
   </g>
   <g id="patch_6">
    <path d="M 57.6 41.472 
L 414.72 41.472 
" style="fill:none;stroke:#000000;stroke-linecap:square;stroke-linejoin:miter;stroke-width:0.8;"/>
   </g>
   <g id="legend_1">
    <g id="patch_7">
     <path d="M 64.6 108.1845 
L 188.182812 108.1845 
Q 190.182812 108.1845 190.182812 106.1845 
L 190.182812 48.472 
Q 190.182812 46.472 188.182812 46.472 
L 64.6 46.472 
Q 62.6 46.472 62.6 48.472 
L 62.6 106.1845 
Q 62.6 108.1845 64.6 108.1845 
z
" style="fill:#ffffff;opacity:0.8;stroke:#cccccc;stroke-linejoin:miter;"/>
    </g>
    <g id="line2d_19">
     <path d="M 66.6 54.570438 
L 86.6 54.570438 
" style="fill:none;stroke:#1f77b4;stroke-linecap:square;stroke-width:1.5;"/>
    </g>
    <g id="line2d_20"/>
    <g id="text_15">
     <!-- buffersize = 10^2 -->
     <g transform="translate(94.6 58.070438)scale(0.1 -0.1)">
      <defs>
       <path d="M 3116 1747 
Q 3116 2381 2855 2742 
Q 2594 3103 2138 3103 
Q 1681 3103 1420 2742 
Q 1159 2381 1159 1747 
Q 1159 1113 1420 752 
Q 1681 391 2138 391 
Q 2594 391 2855 752 
Q 3116 1113 3116 1747 
z
M 1159 2969 
Q 1341 3281 1617 3432 
Q 1894 3584 2278 3584 
Q 2916 3584 3314 3078 
Q 3713 2572 3713 1747 
Q 3713 922 3314 415 
Q 2916 -91 2278 -91 
Q 1894 -91 1617 61 
Q 1341 213 1159 525 
L 1159 0 
L 581 0 
L 581 4863 
L 1159 4863 
L 1159 2969 
z
" id="DejaVuSans-62" transform="scale(0.015625)"/>
       <path d="M 544 1381 
L 544 3500 
L 1119 3500 
L 1119 1403 
Q 1119 906 1312 657 
Q 1506 409 1894 409 
Q 2359 409 2629 706 
Q 2900 1003 2900 1516 
L 2900 3500 
L 3475 3500 
L 3475 0 
L 2900 0 
L 2900 538 
Q 2691 219 2414 64 
Q 2138 -91 1772 -91 
Q 1169 -91 856 284 
Q 544 659 544 1381 
z
M 1991 3584 
L 1991 3584 
z
" id="DejaVuSans-75" transform="scale(0.015625)"/>
       <path d="M 2375 4863 
L 2375 4384 
L 1825 4384 
Q 1516 4384 1395 4259 
Q 1275 4134 1275 3809 
L 1275 3500 
L 2222 3500 
L 2222 3053 
L 1275 3053 
L 1275 0 
L 697 0 
L 697 3053 
L 147 3053 
L 147 3500 
L 697 3500 
L 697 3744 
Q 697 4328 969 4595 
Q 1241 4863 1831 4863 
L 2375 4863 
z
" id="DejaVuSans-66" transform="scale(0.015625)"/>
       <path d="M 3597 1894 
L 3597 1613 
L 953 1613 
Q 991 1019 1311 708 
Q 1631 397 2203 397 
Q 2534 397 2845 478 
Q 3156 559 3463 722 
L 3463 178 
Q 3153 47 2828 -22 
Q 2503 -91 2169 -91 
Q 1331 -91 842 396 
Q 353 884 353 1716 
Q 353 2575 817 3079 
Q 1281 3584 2069 3584 
Q 2775 3584 3186 3129 
Q 3597 2675 3597 1894 
z
M 3022 2063 
Q 3016 2534 2758 2815 
Q 2500 3097 2075 3097 
Q 1594 3097 1305 2825 
Q 1016 2553 972 2059 
L 3022 2063 
z
" id="DejaVuSans-65" transform="scale(0.015625)"/>
       <path d="M 2631 2963 
Q 2534 3019 2420 3045 
Q 2306 3072 2169 3072 
Q 1681 3072 1420 2755 
Q 1159 2438 1159 1844 
L 1159 0 
L 581 0 
L 581 3500 
L 1159 3500 
L 1159 2956 
Q 1341 3275 1631 3429 
Q 1922 3584 2338 3584 
Q 2397 3584 2469 3576 
Q 2541 3569 2628 3553 
L 2631 2963 
z
" id="DejaVuSans-72" transform="scale(0.015625)"/>
       <path d="M 2834 3397 
L 2834 2853 
Q 2591 2978 2328 3040 
Q 2066 3103 1784 3103 
Q 1356 3103 1142 2972 
Q 928 2841 928 2578 
Q 928 2378 1081 2264 
Q 1234 2150 1697 2047 
L 1894 2003 
Q 2506 1872 2764 1633 
Q 3022 1394 3022 966 
Q 3022 478 2636 193 
Q 2250 -91 1575 -91 
Q 1294 -91 989 -36 
Q 684 19 347 128 
L 347 722 
Q 666 556 975 473 
Q 1284 391 1588 391 
Q 1994 391 2212 530 
Q 2431 669 2431 922 
Q 2431 1156 2273 1281 
Q 2116 1406 1581 1522 
L 1381 1569 
Q 847 1681 609 1914 
Q 372 2147 372 2553 
Q 372 3047 722 3315 
Q 1072 3584 1716 3584 
Q 2034 3584 2315 3537 
Q 2597 3491 2834 3397 
z
" id="DejaVuSans-73" transform="scale(0.015625)"/>
       <path d="M 603 3500 
L 1178 3500 
L 1178 0 
L 603 0 
L 603 3500 
z
M 603 4863 
L 1178 4863 
L 1178 4134 
L 603 4134 
L 603 4863 
z
" id="DejaVuSans-69" transform="scale(0.015625)"/>
       <path d="M 353 3500 
L 3084 3500 
L 3084 2975 
L 922 459 
L 3084 459 
L 3084 0 
L 275 0 
L 275 525 
L 2438 3041 
L 353 3041 
L 353 3500 
z
" id="DejaVuSans-7a" transform="scale(0.015625)"/>
       <path id="DejaVuSans-20" transform="scale(0.015625)"/>
       <path d="M 678 2906 
L 4684 2906 
L 4684 2381 
L 678 2381 
L 678 2906 
z
M 678 1631 
L 4684 1631 
L 4684 1100 
L 678 1100 
L 678 1631 
z
" id="DejaVuSans-3d" transform="scale(0.015625)"/>
       <path d="M 2988 4666 
L 4684 2925 
L 4056 2925 
L 2681 4159 
L 1306 2925 
L 678 2925 
L 2375 4666 
L 2988 4666 
z
" id="DejaVuSans-5e" transform="scale(0.015625)"/>
       <path d="M 1228 531 
L 3431 531 
L 3431 0 
L 469 0 
L 469 531 
Q 828 903 1448 1529 
Q 2069 2156 2228 2338 
Q 2531 2678 2651 2914 
Q 2772 3150 2772 3378 
Q 2772 3750 2511 3984 
Q 2250 4219 1831 4219 
Q 1534 4219 1204 4116 
Q 875 4013 500 3803 
L 500 4441 
Q 881 4594 1212 4672 
Q 1544 4750 1819 4750 
Q 2544 4750 2975 4387 
Q 3406 4025 3406 3419 
Q 3406 3131 3298 2873 
Q 3191 2616 2906 2266 
Q 2828 2175 2409 1742 
Q 1991 1309 1228 531 
z
" id="DejaVuSans-32" transform="scale(0.015625)"/>
      </defs>
      <use xlink:href="#DejaVuSans-62"/>
      <use x="63.476562" xlink:href="#DejaVuSans-75"/>
      <use x="126.855469" xlink:href="#DejaVuSans-66"/>
      <use x="162.060547" xlink:href="#DejaVuSans-66"/>
      <use x="197.265625" xlink:href="#DejaVuSans-65"/>
      <use x="258.789062" xlink:href="#DejaVuSans-72"/>
      <use x="299.902344" xlink:href="#DejaVuSans-73"/>
      <use x="352.001953" xlink:href="#DejaVuSans-69"/>
      <use x="379.785156" xlink:href="#DejaVuSans-7a"/>
      <use x="432.275391" xlink:href="#DejaVuSans-65"/>
      <use x="493.798828" xlink:href="#DejaVuSans-20"/>
      <use x="525.585938" xlink:href="#DejaVuSans-3d"/>
      <use x="609.375" xlink:href="#DejaVuSans-20"/>
      <use x="641.162109" xlink:href="#DejaVuSans-31"/>
      <use x="704.785156" xlink:href="#DejaVuSans-30"/>
      <use x="768.408203" xlink:href="#DejaVuSans-5e"/>
      <use x="852.197266" xlink:href="#DejaVuSans-32"/>
     </g>
    </g>
    <g id="line2d_21">
     <path d="M 66.6 69.248563 
L 86.6 69.248563 
" style="fill:none;stroke:#ff7f0e;stroke-linecap:square;stroke-width:1.5;"/>
    </g>
    <g id="line2d_22"/>
    <g id="text_16">
     <!-- buffersize = 10^3 -->
     <g transform="translate(94.6 72.748563)scale(0.1 -0.1)">
      <use xlink:href="#DejaVuSans-62"/>
      <use x="63.476562" xlink:href="#DejaVuSans-75"/>
      <use x="126.855469" xlink:href="#DejaVuSans-66"/>
      <use x="162.060547" xlink:href="#DejaVuSans-66"/>
      <use x="197.265625" xlink:href="#DejaVuSans-65"/>
      <use x="258.789062" xlink:href="#DejaVuSans-72"/>
      <use x="299.902344" xlink:href="#DejaVuSans-73"/>
      <use x="352.001953" xlink:href="#DejaVuSans-69"/>
      <use x="379.785156" xlink:href="#DejaVuSans-7a"/>
      <use x="432.275391" xlink:href="#DejaVuSans-65"/>
      <use x="493.798828" xlink:href="#DejaVuSans-20"/>
      <use x="525.585938" xlink:href="#DejaVuSans-3d"/>
      <use x="609.375" xlink:href="#DejaVuSans-20"/>
      <use x="641.162109" xlink:href="#DejaVuSans-31"/>
      <use x="704.785156" xlink:href="#DejaVuSans-30"/>
      <use x="768.408203" xlink:href="#DejaVuSans-5e"/>
      <use x="852.197266" xlink:href="#DejaVuSans-33"/>
     </g>
    </g>
    <g id="line2d_23">
     <path d="M 66.6 83.926688 
L 86.6 83.926688 
" style="fill:none;stroke:#2ca02c;stroke-linecap:square;stroke-width:1.5;"/>
    </g>
    <g id="line2d_24"/>
    <g id="text_17">
     <!-- buffersize = 10^4 -->
     <g transform="translate(94.6 87.426688)scale(0.1 -0.1)">
      <use xlink:href="#DejaVuSans-62"/>
      <use x="63.476562" xlink:href="#DejaVuSans-75"/>
      <use x="126.855469" xlink:href="#DejaVuSans-66"/>
      <use x="162.060547" xlink:href="#DejaVuSans-66"/>
      <use x="197.265625" xlink:href="#DejaVuSans-65"/>
      <use x="258.789062" xlink:href="#DejaVuSans-72"/>
      <use x="299.902344" xlink:href="#DejaVuSans-73"/>
      <use x="352.001953" xlink:href="#DejaVuSans-69"/>
      <use x="379.785156" xlink:href="#DejaVuSans-7a"/>
      <use x="432.275391" xlink:href="#DejaVuSans-65"/>
      <use x="493.798828" xlink:href="#DejaVuSans-20"/>
      <use x="525.585938" xlink:href="#DejaVuSans-3d"/>
      <use x="609.375" xlink:href="#DejaVuSans-20"/>
      <use x="641.162109" xlink:href="#DejaVuSans-31"/>
      <use x="704.785156" xlink:href="#DejaVuSans-30"/>
      <use x="768.408203" xlink:href="#DejaVuSans-5e"/>
      <use x="852.197266" xlink:href="#DejaVuSans-34"/>
     </g>
    </g>
    <g id="line2d_25">
     <path d="M 66.6 98.604813 
L 86.6 98.604813 
" style="fill:none;stroke:#d62728;stroke-linecap:square;stroke-width:1.5;"/>
    </g>
    <g id="line2d_26"/>
    <g id="text_18">
     <!-- buffersize = 10^5 -->
     <g transform="translate(94.6 102.104813)scale(0.1 -0.1)">
      <use xlink:href="#DejaVuSans-62"/>
      <use x="63.476562" xlink:href="#DejaVuSans-75"/>
      <use x="126.855469" xlink:href="#DejaVuSans-66"/>
      <use x="162.060547" xlink:href="#DejaVuSans-66"/>
      <use x="197.265625" xlink:href="#DejaVuSans-65"/>
      <use x="258.789062" xlink:href="#DejaVuSans-72"/>
      <use x="299.902344" xlink:href="#DejaVuSans-73"/>
      <use x="352.001953" xlink:href="#DejaVuSans-69"/>
      <use x="379.785156" xlink:href="#DejaVuSans-7a"/>
      <use x="432.275391" xlink:href="#DejaVuSans-65"/>
      <use x="493.798828" xlink:href="#DejaVuSans-20"/>
      <use x="525.585938" xlink:href="#DejaVuSans-3d"/>
      <use x="609.375" xlink:href="#DejaVuSans-20"/>
      <use x="641.162109" xlink:href="#DejaVuSans-31"/>
      <use x="704.785156" xlink:href="#DejaVuSans-30"/>
      <use x="768.408203" xlink:href="#DejaVuSans-5e"/>
      <use x="852.197266" xlink:href="#DejaVuSans-35"/>
     </g>
    </g>
   </g>
  </g>
 </g>
 <defs>
  <clipPath id="pafaf32837d">
   <rect height="266.112" width="357.12" x="57.6" y="41.472"/>
  </clipPath>
 </defs>
</svg>
