<?xml version="1.0" encoding="utf-8" standalone="no"?>
<!DOCTYPE svg PUBLIC "-//W3C//DTD SVG 1.1//EN"
  "http://www.w3.org/Graphics/SVG/1.1/DTD/svg11.dtd">
<svg height="345.6pt" version="1.1" viewBox="0 0 460.8 345.6" width="460.8pt" xmlns="http://www.w3.org/2000/svg" xmlns:xlink="http://www.w3.org/1999/xlink">
 <metadata>
  <rdf:RDF xmlns:cc="http://creativecommons.org/ns#" xmlns:dc="http://purl.org/dc/elements/1.1/" xmlns:rdf="http://www.w3.org/1999/02/22-rdf-syntax-ns#">
   <cc:Work>
    <dc:type rdf:resource="http://purl.org/dc/dcmitype/StillImage"/>
    <dc:date>2022-01-03T19:11:25.842514</dc:date>
    <dc:format>image/svg+xml</dc:format>
    <dc:creator>
     <cc:Agent>
      <dc:title>Matplotlib v3.4.3, https://matplotlib.org/</dc:title>
     </cc:Agent>
    </dc:creator>
   </cc:Work>
  </rdf:RDF>
 </metadata>
 <defs>
  <style type="text/css">*{stroke-linecap:butt;stroke-linejoin:round;}</style>
 </defs>
 <g id="figure_1">
  <g id="patch_1">
   <path d="M 0 345.6 
L 460.8 345.6 
L 460.8 0 
L 0 0 
z
" style="fill:#ffffff;"/>
  </g>
  <g id="axes_1">
   <g id="patch_2">
    <path d="M 57.6 307.584 
L 414.72 307.584 
L 414.72 41.472 
L 57.6 41.472 
z
" style="fill:#ffffff;"/>
   </g>
   <g id="PolyCollection_1">
    <path clip-path="url(#p9f25f6c070)" d="M 73.832727 290.250951 
L 73.832727 290.250951 
L 82.157203 290.359275 
L 90.481678 290.517664 
L 98.806154 294.687517 
L 107.130629 285.512493 
L 115.455105 280.741376 
L 123.77958 274.058599 
L 132.104056 259.889891 
L 140.428531 267.925105 
L 148.753007 248.933347 
L 157.077483 217.456952 
L 165.401958 219.576512 
L 173.726434 200.950308 
L 182.050909 185.865523 
L 190.375385 178.732308 
L 198.69986 158.216994 
L 207.024336 170.439007 
L 215.348811 138.348161 
L 223.673287 121.623661 
L 231.997762 113.198184 
L 240.322238 99.159979 
L 248.646713 88.265699 
L 256.971189 85.856116 
L 265.295664 78.655937 
L 273.62014 73.724199 
L 281.944615 96.364137 
L 290.269091 118.556814 
L 298.593566 159.588623 
L 306.918042 157.368965 
L 315.242517 130.991821 
L 323.566993 128.400808 
L 331.891469 108.437221 
L 340.215944 94.46271 
L 348.54042 101.122284 
L 356.864895 144.06439 
L 365.189371 119.401728 
L 373.513846 126.522485 
L 381.838322 113.574908 
L 390.162797 103.929485 
L 398.487273 123.69341 
L 398.487273 123.69341 
L 398.487273 75.958076 
L 390.162797 79.478725 
L 381.838322 87.839835 
L 373.513846 72.572427 
L 365.189371 66.563499 
L 356.864895 68.581205 
L 348.54042 63.898854 
L 340.215944 63.379517 
L 331.891469 64.032659 
L 323.566993 64.965718 
L 315.242517 71.641808 
L 306.918042 76.356978 
L 298.593566 83.641092 
L 290.269091 65.761791 
L 281.944615 65.647014 
L 273.62014 64.422005 
L 265.295664 65.536666 
L 256.971189 67.114301 
L 248.646713 68.642403 
L 240.322238 71.31802 
L 231.997762 73.862731 
L 223.673287 76.788636 
L 215.348811 80.097014 
L 207.024336 88.090748 
L 198.69986 94.588529 
L 190.375385 102.03338 
L 182.050909 111.864742 
L 173.726434 124.559662 
L 165.401958 133.300721 
L 157.077483 147.050545 
L 148.753007 179.094967 
L 140.428531 198.616665 
L 132.104056 213.911105 
L 123.77958 216.46036 
L 115.455105 240.689845 
L 107.130629 266.574412 
L 98.806154 274.132127 
L 90.481678 290.161147 
L 82.157203 290.046809 
L 73.832727 289.87859 
z
" style="fill:#1f77b4;fill-opacity:0.3;"/>
   </g>
   <g id="PolyCollection_2">
    <path clip-path="url(#p9f25f6c070)" d="M 73.832727 290.250951 
L 73.832727 290.250951 
L 82.157203 290.359275 
L 90.481678 290.595697 
L 98.806154 294.714858 
L 107.130629 295.488 
L 115.455105 279.403171 
L 123.77958 259.253319 
L 132.104056 241.483172 
L 140.428531 225.754897 
L 148.753007 221.760901 
L 157.077483 198.585631 
L 165.401958 174.182583 
L 173.726434 145.4332 
L 182.050909 120.359896 
L 190.375385 111.715263 
L 198.69986 97.311793 
L 207.024336 86.674911 
L 215.348811 79.229093 
L 223.673287 74.017021 
L 231.997762 70.36857 
L 240.322238 82.424441 
L 248.646713 76.253764 
L 256.971189 71.934291 
L 265.295664 70.570916 
L 273.62014 72.940631 
L 281.944615 91.825292 
L 290.269091 109.772493 
L 298.593566 98.457535 
L 306.918042 117.787119 
L 315.242517 106.284494 
L 323.566993 92.95045 
L 331.891469 101.579456 
L 340.215944 89.861485 
L 348.54042 83.845011 
L 356.864895 86.516663 
L 365.189371 79.11832 
L 373.513846 85.387748 
L 381.838322 78.328079 
L 390.162797 73.386311 
L 398.487273 69.927073 
L 398.487273 69.927073 
L 398.487273 63.978155 
L 390.162797 64.887856 
L 381.838322 66.18743 
L 373.513846 68.043963 
L 365.189371 71.931375 
L 356.864895 76.2496 
L 348.54042 70.191438 
L 340.215944 64.871342 
L 331.891469 64.281097 
L 323.566993 64.590607 
L 315.242517 65.003056 
L 306.918042 68.073896 
L 298.593566 65.280017 
L 290.269091 53.568 
L 281.944615 60.187889 
L 273.62014 62.210274 
L 265.295664 63.184426 
L 256.971189 61.147874 
L 248.646713 60.844598 
L 240.322238 60.411347 
L 231.997762 64.605736 
L 223.673287 65.784401 
L 215.348811 67.468207 
L 207.024336 69.873645 
L 198.69986 73.309985 
L 190.375385 70.883283 
L 182.050909 71.666304 
L 173.726434 75.870926 
L 165.401958 83.36201 
L 157.077483 96.847645 
L 148.753007 114.709454 
L 140.428531 135.561542 
L 132.104056 160.175879 
L 123.77958 187.805795 
L 115.455105 218.170051 
L 107.130629 255.868449 
L 98.806154 274.650717 
L 90.481678 290.201677 
L 82.157203 290.046809 
L 73.832727 289.87859 
z
" style="fill:#ff7f0e;fill-opacity:0.3;"/>
   </g>
   <g id="PolyCollection_3">
    <path clip-path="url(#p9f25f6c070)" d="M 73.832727 290.250951 
L 73.832727 290.250951 
L 82.157203 290.359275 
L 90.481678 290.595697 
L 98.806154 294.714858 
L 107.130629 295.488 
L 115.455105 277.256745 
L 123.77958 260.25627 
L 132.104056 243.469344 
L 140.428531 214.203273 
L 148.753007 205.092951 
L 157.077483 206.924475 
L 165.401958 192.674204 
L 173.726434 182.300759 
L 182.050909 166.087078 
L 190.375385 152.796538 
L 198.69986 136.939769 
L 207.024336 114.414494 
L 215.348811 98.646801 
L 223.673287 87.609417 
L 231.997762 79.883247 
L 240.322238 74.474929 
L 248.646713 70.689106 
L 256.971189 68.060158 
L 265.295664 66.666182 
L 273.62014 65.222983 
L 281.944615 64.212744 
L 290.269091 63.505576 
L 298.593566 63.786689 
L 306.918042 78.841511 
L 315.242517 73.803515 
L 323.566993 70.535928 
L 331.891469 67.967135 
L 340.215944 79.833084 
L 348.54042 75.798434 
L 356.864895 71.615559 
L 365.189371 109.472914 
L 373.513846 95.187695 
L 381.838322 85.188042 
L 390.162797 78.188285 
L 398.487273 73.288455 
L 398.487273 73.288455 
L 398.487273 60.103528 
L 390.162797 59.352675 
L 381.838322 58.280028 
L 373.513846 56.747674 
L 365.189371 54.558598 
L 356.864895 61.582673 
L 348.54042 61.465739 
L 340.215944 59.617482 
L 331.891469 61.417673 
L 323.566993 61.140396 
L 315.242517 59.541686 
L 306.918042 58.211051 
L 298.593566 61.876615 
L 290.269091 62.152124 
L 281.944615 62.27924 
L 273.62014 62.460835 
L 265.295664 62.720256 
L 256.971189 62.014538 
L 248.646713 62.019519 
L 240.322238 62.089804 
L 231.997762 62.190212 
L 223.673287 62.333652 
L 215.348811 62.538567 
L 207.024336 62.831301 
L 198.69986 63.249494 
L 190.375385 68.144178 
L 182.050909 77.039824 
L 173.726434 90.710923 
L 165.401958 101.224102 
L 157.077483 121.568861 
L 148.753007 142.641351 
L 140.428531 158.382114 
L 132.104056 180.485418 
L 123.77958 197.887227 
L 115.455105 226.968406 
L 107.130629 255.868449 
L 98.806154 274.650717 
L 90.481678 290.201677 
L 82.157203 290.046809 
L 73.832727 289.87859 
z
" style="fill:#2ca02c;fill-opacity:0.3;"/>
   </g>
   <g id="PolyCollection_4">
    <path clip-path="url(#p9f25f6c070)" d="M 73.832727 290.250951 
L 73.832727 290.250951 
L 82.157203 290.359275 
L 90.481678 290.595697 
L 98.806154 294.714858 
L 107.130629 295.488 
L 115.455105 277.256745 
L 123.77958 260.25627 
L 132.104056 243.469344 
L 140.428531 214.203273 
L 148.753007 205.092951 
L 157.077483 206.924475 
L 165.401958 192.674204 
L 173.726434 182.300759 
L 182.050909 166.087078 
L 190.375385 152.796538 
L 198.69986 136.939769 
L 207.024336 114.414494 
L 215.348811 98.646801 
L 223.673287 87.609417 
L 231.997762 79.883247 
L 240.322238 74.474929 
L 248.646713 70.689106 
L 256.971189 68.226302 
L 265.295664 66.344761 
L 273.62014 65.980536 
L 281.944615 64.743031 
L 290.269091 63.876777 
L 298.593566 64.948747 
L 306.918042 64.020778 
L 315.242517 63.3712 
L 323.566993 62.916496 
L 331.891469 67.981913 
L 340.215944 70.918572 
L 348.54042 68.230583 
L 356.864895 66.318064 
L 365.189371 64.9793 
L 373.513846 64.340814 
L 381.838322 63.625025 
L 390.162797 75.560179 
L 398.487273 71.448781 
L 398.487273 71.448781 
L 398.487273 59.620045 
L 390.162797 58.661985 
L 381.838322 62.005782 
L 373.513846 61.832129 
L 365.189371 61.169479 
L 356.864895 60.875462 
L 348.54042 60.455437 
L 340.215944 59.71269 
L 331.891469 60.620616 
L 323.566993 62.020008 
L 315.242517 62.090504 
L 306.918042 62.191212 
L 298.593566 62.33508 
L 290.269091 62.336527 
L 281.944615 62.542673 
L 273.62014 62.837168 
L 265.295664 62.125338 
L 256.971189 62.143294 
L 248.646713 62.019519 
L 240.322238 62.089804 
L 231.997762 62.190212 
L 223.673287 62.333652 
L 215.348811 62.538567 
L 207.024336 62.831301 
L 198.69986 63.249494 
L 190.375385 68.144178 
L 182.050909 77.039824 
L 173.726434 90.710923 
L 165.401958 101.224102 
L 157.077483 121.568861 
L 148.753007 142.641351 
L 140.428531 158.382114 
L 132.104056 180.485418 
L 123.77958 197.887227 
L 115.455105 226.968406 
L 107.130629 255.868449 
L 98.806154 274.650717 
L 90.481678 290.201677 
L 82.157203 290.046809 
L 73.832727 289.87859 
z
" style="fill:#d62728;fill-opacity:0.3;"/>
   </g>
   <g id="matplotlib.axis_1">
    <g id="xtick_1">
     <g id="line2d_1">
      <defs>
       <path d="M 0 0 
L 0 3.5 
" id="m70fdfe78e5" style="stroke:#000000;stroke-width:0.8;"/>
      </defs>
      <g>
       <use style="stroke:#000000;stroke-width:0.8;" x="65.508252" xlink:href="#m70fdfe78e5" y="307.584"/>
      </g>
     </g>
     <g id="text_1">
      <!-- 0 -->
      <g transform="translate(62.327002 322.182437)scale(0.1 -0.1)">
       <defs>
        <path d="M 2034 4250 
Q 1547 4250 1301 3770 
Q 1056 3291 1056 2328 
Q 1056 1369 1301 889 
Q 1547 409 2034 409 
Q 2525 409 2770 889 
Q 3016 1369 3016 2328 
Q 3016 3291 2770 3770 
Q 2525 4250 2034 4250 
z
M 2034 4750 
Q 2819 4750 3233 4129 
Q 3647 3509 3647 2328 
Q 3647 1150 3233 529 
Q 2819 -91 2034 -91 
Q 1250 -91 836 529 
Q 422 1150 422 2328 
Q 422 3509 836 4129 
Q 1250 4750 2034 4750 
z
" id="DejaVuSans-30" transform="scale(0.015625)"/>
       </defs>
       <use xlink:href="#DejaVuSans-30"/>
      </g>
     </g>
    </g>
    <g id="xtick_2">
     <g id="line2d_2">
      <g>
       <use style="stroke:#000000;stroke-width:0.8;" x="107.130629" xlink:href="#m70fdfe78e5" y="307.584"/>
      </g>
     </g>
     <g id="text_2">
      <!-- 25 -->
      <g transform="translate(100.768129 322.182437)scale(0.1 -0.1)">
       <defs>
        <path d="M 1228 531 
L 3431 531 
L 3431 0 
L 469 0 
L 469 531 
Q 828 903 1448 1529 
Q 2069 2156 2228 2338 
Q 2531 2678 2651 2914 
Q 2772 3150 2772 3378 
Q 2772 3750 2511 3984 
Q 2250 4219 1831 4219 
Q 1534 4219 1204 4116 
Q 875 4013 500 3803 
L 500 4441 
Q 881 4594 1212 4672 
Q 1544 4750 1819 4750 
Q 2544 4750 2975 4387 
Q 3406 4025 3406 3419 
Q 3406 3131 3298 2873 
Q 3191 2616 2906 2266 
Q 2828 2175 2409 1742 
Q 1991 1309 1228 531 
z
" id="DejaVuSans-32" transform="scale(0.015625)"/>
        <path d="M 691 4666 
L 3169 4666 
L 3169 4134 
L 1269 4134 
L 1269 2991 
Q 1406 3038 1543 3061 
Q 1681 3084 1819 3084 
Q 2600 3084 3056 2656 
Q 3513 2228 3513 1497 
Q 3513 744 3044 326 
Q 2575 -91 1722 -91 
Q 1428 -91 1123 -41 
Q 819 9 494 109 
L 494 744 
Q 775 591 1075 516 
Q 1375 441 1709 441 
Q 2250 441 2565 725 
Q 2881 1009 2881 1497 
Q 2881 1984 2565 2268 
Q 2250 2553 1709 2553 
Q 1456 2553 1204 2497 
Q 953 2441 691 2322 
L 691 4666 
z
" id="DejaVuSans-35" transform="scale(0.015625)"/>
       </defs>
       <use xlink:href="#DejaVuSans-32"/>
       <use x="63.623047" xlink:href="#DejaVuSans-35"/>
      </g>
     </g>
    </g>
    <g id="xtick_3">
     <g id="line2d_3">
      <g>
       <use style="stroke:#000000;stroke-width:0.8;" x="148.753007" xlink:href="#m70fdfe78e5" y="307.584"/>
      </g>
     </g>
     <g id="text_3">
      <!-- 50 -->
      <g transform="translate(142.390507 322.182437)scale(0.1 -0.1)">
       <use xlink:href="#DejaVuSans-35"/>
       <use x="63.623047" xlink:href="#DejaVuSans-30"/>
      </g>
     </g>
    </g>
    <g id="xtick_4">
     <g id="line2d_4">
      <g>
       <use style="stroke:#000000;stroke-width:0.8;" x="190.375385" xlink:href="#m70fdfe78e5" y="307.584"/>
      </g>
     </g>
     <g id="text_4">
      <!-- 75 -->
      <g transform="translate(184.012885 322.182437)scale(0.1 -0.1)">
       <defs>
        <path d="M 525 4666 
L 3525 4666 
L 3525 4397 
L 1831 0 
L 1172 0 
L 2766 4134 
L 525 4134 
L 525 4666 
z
" id="DejaVuSans-37" transform="scale(0.015625)"/>
       </defs>
       <use xlink:href="#DejaVuSans-37"/>
       <use x="63.623047" xlink:href="#DejaVuSans-35"/>
      </g>
     </g>
    </g>
    <g id="xtick_5">
     <g id="line2d_5">
      <g>
       <use style="stroke:#000000;stroke-width:0.8;" x="231.997762" xlink:href="#m70fdfe78e5" y="307.584"/>
      </g>
     </g>
     <g id="text_5">
      <!-- 100 -->
      <g transform="translate(222.454012 322.182437)scale(0.1 -0.1)">
       <defs>
        <path d="M 794 531 
L 1825 531 
L 1825 4091 
L 703 3866 
L 703 4441 
L 1819 4666 
L 2450 4666 
L 2450 531 
L 3481 531 
L 3481 0 
L 794 0 
L 794 531 
z
" id="DejaVuSans-31" transform="scale(0.015625)"/>
       </defs>
       <use xlink:href="#DejaVuSans-31"/>
       <use x="63.623047" xlink:href="#DejaVuSans-30"/>
       <use x="127.246094" xlink:href="#DejaVuSans-30"/>
      </g>
     </g>
    </g>
    <g id="xtick_6">
     <g id="line2d_6">
      <g>
       <use style="stroke:#000000;stroke-width:0.8;" x="273.62014" xlink:href="#m70fdfe78e5" y="307.584"/>
      </g>
     </g>
     <g id="text_6">
      <!-- 125 -->
      <g transform="translate(264.07639 322.182437)scale(0.1 -0.1)">
       <use xlink:href="#DejaVuSans-31"/>
       <use x="63.623047" xlink:href="#DejaVuSans-32"/>
       <use x="127.246094" xlink:href="#DejaVuSans-35"/>
      </g>
     </g>
    </g>
    <g id="xtick_7">
     <g id="line2d_7">
      <g>
       <use style="stroke:#000000;stroke-width:0.8;" x="315.242517" xlink:href="#m70fdfe78e5" y="307.584"/>
      </g>
     </g>
     <g id="text_7">
      <!-- 150 -->
      <g transform="translate(305.698767 322.182437)scale(0.1 -0.1)">
       <use xlink:href="#DejaVuSans-31"/>
       <use x="63.623047" xlink:href="#DejaVuSans-35"/>
       <use x="127.246094" xlink:href="#DejaVuSans-30"/>
      </g>
     </g>
    </g>
    <g id="xtick_8">
     <g id="line2d_8">
      <g>
       <use style="stroke:#000000;stroke-width:0.8;" x="356.864895" xlink:href="#m70fdfe78e5" y="307.584"/>
      </g>
     </g>
     <g id="text_8">
      <!-- 175 -->
      <g transform="translate(347.321145 322.182437)scale(0.1 -0.1)">
       <use xlink:href="#DejaVuSans-31"/>
       <use x="63.623047" xlink:href="#DejaVuSans-37"/>
       <use x="127.246094" xlink:href="#DejaVuSans-35"/>
      </g>
     </g>
    </g>
    <g id="xtick_9">
     <g id="line2d_9">
      <g>
       <use style="stroke:#000000;stroke-width:0.8;" x="398.487273" xlink:href="#m70fdfe78e5" y="307.584"/>
      </g>
     </g>
     <g id="text_9">
      <!-- 200 -->
      <g transform="translate(388.943523 322.182437)scale(0.1 -0.1)">
       <use xlink:href="#DejaVuSans-32"/>
       <use x="63.623047" xlink:href="#DejaVuSans-30"/>
       <use x="127.246094" xlink:href="#DejaVuSans-30"/>
      </g>
     </g>
    </g>
   </g>
   <g id="matplotlib.axis_2">
    <g id="ytick_1">
     <g id="line2d_10">
      <defs>
       <path d="M 0 0 
L -3.5 0 
" id="mf7a63882dc" style="stroke:#000000;stroke-width:0.8;"/>
      </defs>
      <g>
       <use style="stroke:#000000;stroke-width:0.8;" x="57.6" xlink:href="#mf7a63882dc" y="302.762493"/>
      </g>
     </g>
     <g id="text_10">
      <!-- 0 -->
      <g transform="translate(44.2375 306.561712)scale(0.1 -0.1)">
       <use xlink:href="#DejaVuSans-30"/>
      </g>
     </g>
    </g>
    <g id="ytick_2">
     <g id="line2d_11">
      <g>
       <use style="stroke:#000000;stroke-width:0.8;" x="57.6" xlink:href="#mf7a63882dc" y="269.552482"/>
      </g>
     </g>
     <g id="text_11">
      <!-- 25 -->
      <g transform="translate(37.875 273.351701)scale(0.1 -0.1)">
       <use xlink:href="#DejaVuSans-32"/>
       <use x="63.623047" xlink:href="#DejaVuSans-35"/>
      </g>
     </g>
    </g>
    <g id="ytick_3">
     <g id="line2d_12">
      <g>
       <use style="stroke:#000000;stroke-width:0.8;" x="57.6" xlink:href="#mf7a63882dc" y="236.342471"/>
      </g>
     </g>
     <g id="text_12">
      <!-- 50 -->
      <g transform="translate(37.875 240.14169)scale(0.1 -0.1)">
       <use xlink:href="#DejaVuSans-35"/>
       <use x="63.623047" xlink:href="#DejaVuSans-30"/>
      </g>
     </g>
    </g>
    <g id="ytick_4">
     <g id="line2d_13">
      <g>
       <use style="stroke:#000000;stroke-width:0.8;" x="57.6" xlink:href="#mf7a63882dc" y="203.13246"/>
      </g>
     </g>
     <g id="text_13">
      <!-- 75 -->
      <g transform="translate(37.875 206.931679)scale(0.1 -0.1)">
       <use xlink:href="#DejaVuSans-37"/>
       <use x="63.623047" xlink:href="#DejaVuSans-35"/>
      </g>
     </g>
    </g>
    <g id="ytick_5">
     <g id="line2d_14">
      <g>
       <use style="stroke:#000000;stroke-width:0.8;" x="57.6" xlink:href="#mf7a63882dc" y="169.922449"/>
      </g>
     </g>
     <g id="text_14">
      <!-- 100 -->
      <g transform="translate(31.5125 173.721668)scale(0.1 -0.1)">
       <use xlink:href="#DejaVuSans-31"/>
       <use x="63.623047" xlink:href="#DejaVuSans-30"/>
       <use x="127.246094" xlink:href="#DejaVuSans-30"/>
      </g>
     </g>
    </g>
    <g id="ytick_6">
     <g id="line2d_15">
      <g>
       <use style="stroke:#000000;stroke-width:0.8;" x="57.6" xlink:href="#mf7a63882dc" y="136.712438"/>
      </g>
     </g>
     <g id="text_15">
      <!-- 125 -->
      <g transform="translate(31.5125 140.511657)scale(0.1 -0.1)">
       <use xlink:href="#DejaVuSans-31"/>
       <use x="63.623047" xlink:href="#DejaVuSans-32"/>
       <use x="127.246094" xlink:href="#DejaVuSans-35"/>
      </g>
     </g>
    </g>
    <g id="ytick_7">
     <g id="line2d_16">
      <g>
       <use style="stroke:#000000;stroke-width:0.8;" x="57.6" xlink:href="#mf7a63882dc" y="103.502427"/>
      </g>
     </g>
     <g id="text_16">
      <!-- 150 -->
      <g transform="translate(31.5125 107.301646)scale(0.1 -0.1)">
       <use xlink:href="#DejaVuSans-31"/>
       <use x="63.623047" xlink:href="#DejaVuSans-35"/>
       <use x="127.246094" xlink:href="#DejaVuSans-30"/>
      </g>
     </g>
    </g>
    <g id="ytick_8">
     <g id="line2d_17">
      <g>
       <use style="stroke:#000000;stroke-width:0.8;" x="57.6" xlink:href="#mf7a63882dc" y="70.292416"/>
      </g>
     </g>
     <g id="text_17">
      <!-- 175 -->
      <g transform="translate(31.5125 74.091635)scale(0.1 -0.1)">
       <use xlink:href="#DejaVuSans-31"/>
       <use x="63.623047" xlink:href="#DejaVuSans-37"/>
       <use x="127.246094" xlink:href="#DejaVuSans-35"/>
      </g>
     </g>
    </g>
   </g>
   <g id="line2d_18">
    <path clip-path="url(#p9f25f6c070)" d="M 73.832727 290.06477 
L 82.157203 290.203042 
L 90.481678 290.339405 
L 98.806154 284.409822 
L 107.130629 276.043453 
L 115.455105 260.71561 
L 123.77958 245.25948 
L 132.104056 236.900498 
L 140.428531 233.270885 
L 148.753007 214.014157 
L 157.077483 182.253748 
L 165.401958 176.438617 
L 173.726434 162.754985 
L 182.050909 148.865133 
L 190.375385 140.382844 
L 198.69986 126.402762 
L 207.024336 129.264878 
L 215.348811 109.222588 
L 223.673287 99.206149 
L 231.997762 93.530458 
L 240.322238 85.239 
L 248.646713 78.454051 
L 256.971189 76.485208 
L 265.295664 72.096302 
L 273.62014 69.073102 
L 281.944615 81.005575 
L 290.269091 92.159302 
L 298.593566 121.614858 
L 306.918042 116.862971 
L 315.242517 101.316815 
L 323.566993 96.683263 
L 331.891469 86.23494 
L 340.215944 78.921114 
L 348.54042 82.510569 
L 356.864895 106.322798 
L 365.189371 92.982614 
L 373.513846 99.547456 
L 381.838322 100.707371 
L 390.162797 91.704105 
L 398.487273 99.825743 
" style="fill:none;stroke:#1f77b4;stroke-linecap:square;stroke-width:1.5;"/>
   </g>
   <g id="line2d_19">
    <path clip-path="url(#p9f25f6c070)" d="M 73.832727 290.06477 
L 82.157203 290.203042 
L 90.481678 290.398687 
L 98.806154 284.682788 
L 107.130629 275.678225 
L 115.455105 248.786611 
L 123.77958 223.529557 
L 132.104056 200.829525 
L 140.428531 180.658219 
L 148.753007 168.235178 
L 157.077483 147.716638 
L 165.401958 128.772296 
L 173.726434 110.652063 
L 182.050909 96.0131 
L 190.375385 91.299273 
L 198.69986 85.310889 
L 207.024336 78.274278 
L 215.348811 73.34865 
L 223.673287 69.900711 
L 231.997762 67.487153 
L 240.322238 71.417894 
L 248.646713 68.549181 
L 256.971189 66.541082 
L 265.295664 66.877671 
L 273.62014 67.575453 
L 281.944615 76.00659 
L 290.269091 81.670247 
L 298.593566 81.868776 
L 306.918042 92.930507 
L 315.242517 85.643775 
L 323.566993 78.770529 
L 331.891469 82.930277 
L 340.215944 77.366413 
L 348.54042 77.018225 
L 356.864895 81.383131 
L 365.189371 75.524848 
L 373.513846 76.715855 
L 381.838322 72.257754 
L 390.162797 69.137084 
L 398.487273 66.952614 
" style="fill:none;stroke:#ff7f0e;stroke-linecap:square;stroke-width:1.5;"/>
   </g>
   <g id="line2d_20">
    <path clip-path="url(#p9f25f6c070)" d="M 73.832727 290.06477 
L 82.157203 290.203042 
L 90.481678 290.398687 
L 98.806154 284.682788 
L 107.130629 275.678225 
L 115.455105 252.112575 
L 123.77958 229.071748 
L 132.104056 211.977381 
L 140.428531 186.292693 
L 148.753007 173.867151 
L 157.077483 164.246668 
L 165.401958 146.949153 
L 173.726434 136.505841 
L 182.050909 121.563451 
L 190.375385 110.470358 
L 198.69986 100.094631 
L 207.024336 88.622898 
L 215.348811 80.592684 
L 223.673287 74.971534 
L 231.997762 71.03673 
L 240.322238 68.282366 
L 248.646713 66.354312 
L 256.971189 65.037348 
L 265.295664 64.693219 
L 273.62014 63.841909 
L 281.944615 63.245992 
L 290.269091 62.82885 
L 298.593566 62.831652 
L 306.918042 68.526281 
L 315.242517 66.672601 
L 323.566993 65.838162 
L 331.891469 64.692404 
L 340.215944 69.725283 
L 348.54042 68.632087 
L 356.864895 66.599116 
L 365.189371 82.015756 
L 373.513846 75.967685 
L 381.838322 71.734035 
L 390.162797 68.77048 
L 398.487273 66.695992 
" style="fill:none;stroke:#2ca02c;stroke-linecap:square;stroke-width:1.5;"/>
   </g>
   <g id="line2d_21">
    <path clip-path="url(#p9f25f6c070)" d="M 73.832727 290.06477 
L 82.157203 290.203042 
L 90.481678 290.398687 
L 98.806154 284.682788 
L 107.130629 275.678225 
L 115.455105 252.112575 
L 123.77958 229.071748 
L 132.104056 211.977381 
L 140.428531 186.292693 
L 148.753007 173.867151 
L 157.077483 164.246668 
L 165.401958 146.949153 
L 173.726434 136.505841 
L 182.050909 121.563451 
L 190.375385 110.470358 
L 198.69986 100.094631 
L 207.024336 88.622898 
L 215.348811 80.592684 
L 223.673287 74.971534 
L 231.997762 71.03673 
L 240.322238 68.282366 
L 248.646713 66.354312 
L 256.971189 65.184798 
L 265.295664 64.235049 
L 273.62014 64.408852 
L 281.944615 63.642852 
L 290.269091 63.106652 
L 298.593566 63.641913 
L 306.918042 63.105995 
L 315.242517 62.730852 
L 323.566993 62.468252 
L 331.891469 64.301264 
L 340.215944 65.315631 
L 348.54042 64.34301 
L 356.864895 63.596763 
L 365.189371 63.07439 
L 373.513846 63.086471 
L 381.838322 62.815404 
L 390.162797 67.111082 
L 398.487273 65.534413 
" style="fill:none;stroke:#d62728;stroke-linecap:square;stroke-width:1.5;"/>
   </g>
   <g id="patch_3">
    <path d="M 57.6 307.584 
L 57.6 41.472 
" style="fill:none;stroke:#000000;stroke-linecap:square;stroke-linejoin:miter;stroke-width:0.8;"/>
   </g>
   <g id="patch_4">
    <path d="M 414.72 307.584 
L 414.72 41.472 
" style="fill:none;stroke:#000000;stroke-linecap:square;stroke-linejoin:miter;stroke-width:0.8;"/>
   </g>
   <g id="patch_5">
    <path d="M 57.6 307.584 
L 414.72 307.584 
" style="fill:none;stroke:#000000;stroke-linecap:square;stroke-linejoin:miter;stroke-width:0.8;"/>
   </g>
   <g id="patch_6">
    <path d="M 57.6 41.472 
L 414.72 41.472 
" style="fill:none;stroke:#000000;stroke-linecap:square;stroke-linejoin:miter;stroke-width:0.8;"/>
   </g>
   <g id="legend_1">
    <g id="patch_7">
     <path d="M 64.6 108.1845 
L 188.182812 108.1845 
Q 190.182812 108.1845 190.182812 106.1845 
L 190.182812 48.472 
Q 190.182812 46.472 188.182812 46.472 
L 64.6 46.472 
Q 62.6 46.472 62.6 48.472 
L 62.6 106.1845 
Q 62.6 108.1845 64.6 108.1845 
z
" style="fill:#ffffff;opacity:0.8;stroke:#cccccc;stroke-linejoin:miter;"/>
    </g>
    <g id="line2d_20">
     <path d="M 66.6 54.570438 
L 86.6 54.570438 
" style="fill:none;stroke:#1f77b4;stroke-linecap:square;stroke-width:1.5;"/>
    </g>
    <g id="line2d_21"/>
    <g id="text_16">
     <!-- buffersize = 10^2 -->
     <g transform="translate(94.6 58.070438)scale(0.1 -0.1)">
      <defs>
       <path d="M 3116 1747 
Q 3116 2381 2855 2742 
Q 2594 3103 2138 3103 
Q 1681 3103 1420 2742 
Q 1159 2381 1159 1747 
Q 1159 1113 1420 752 
Q 1681 391 2138 391 
Q 2594 391 2855 752 
Q 3116 1113 3116 1747 
z
M 1159 2969 
Q 1341 3281 1617 3432 
Q 1894 3584 2278 3584 
Q 2916 3584 3314 3078 
Q 3713 2572 3713 1747 
Q 3713 922 3314 415 
Q 2916 -91 2278 -91 
Q 1894 -91 1617 61 
Q 1341 213 1159 525 
L 1159 0 
L 581 0 
L 581 4863 
L 1159 4863 
L 1159 2969 
z
" id="DejaVuSans-62" transform="scale(0.015625)"/>
       <path d="M 544 1381 
L 544 3500 
L 1119 3500 
L 1119 1403 
Q 1119 906 1312 657 
Q 1506 409 1894 409 
Q 2359 409 2629 706 
Q 2900 1003 2900 1516 
L 2900 3500 
L 3475 3500 
L 3475 0 
L 2900 0 
L 2900 538 
Q 2691 219 2414 64 
Q 2138 -91 1772 -91 
Q 1169 -91 856 284 
Q 544 659 544 1381 
z
M 1991 3584 
L 1991 3584 
z
" id="DejaVuSans-75" transform="scale(0.015625)"/>
       <path d="M 2375 4863 
L 2375 4384 
L 1825 4384 
Q 1516 4384 1395 4259 
Q 1275 4134 1275 3809 
L 1275 3500 
L 2222 3500 
L 2222 3053 
L 1275 3053 
L 1275 0 
L 697 0 
L 697 3053 
L 147 3053 
L 147 3500 
L 697 3500 
L 697 3744 
Q 697 4328 969 4595 
Q 1241 4863 1831 4863 
L 2375 4863 
z
" id="DejaVuSans-66" transform="scale(0.015625)"/>
       <path d="M 3597 1894 
L 3597 1613 
L 953 1613 
Q 991 1019 1311 708 
Q 1631 397 2203 397 
Q 2534 397 2845 478 
Q 3156 559 3463 722 
L 3463 178 
Q 3153 47 2828 -22 
Q 2503 -91 2169 -91 
Q 1331 -91 842 396 
Q 353 884 353 1716 
Q 353 2575 817 3079 
Q 1281 3584 2069 3584 
Q 2775 3584 3186 3129 
Q 3597 2675 3597 1894 
z
M 3022 2063 
Q 3016 2534 2758 2815 
Q 2500 3097 2075 3097 
Q 1594 3097 1305 2825 
Q 1016 2553 972 2059 
L 3022 2063 
z
" id="DejaVuSans-65" transform="scale(0.015625)"/>
       <path d="M 2631 2963 
Q 2534 3019 2420 3045 
Q 2306 3072 2169 3072 
Q 1681 3072 1420 2755 
Q 1159 2438 1159 1844 
L 1159 0 
L 581 0 
L 581 3500 
L 1159 3500 
L 1159 2956 
Q 1341 3275 1631 3429 
Q 1922 3584 2338 3584 
Q 2397 3584 2469 3576 
Q 2541 3569 2628 3553 
L 2631 2963 
z
" id="DejaVuSans-72" transform="scale(0.015625)"/>
       <path d="M 2834 3397 
L 2834 2853 
Q 2591 2978 2328 3040 
Q 2066 3103 1784 3103 
Q 1356 3103 1142 2972 
Q 928 2841 928 2578 
Q 928 2378 1081 2264 
Q 1234 2150 1697 2047 
L 1894 2003 
Q 2506 1872 2764 1633 
Q 3022 1394 3022 966 
Q 3022 478 2636 193 
Q 2250 -91 1575 -91 
Q 1294 -91 989 -36 
Q 684 19 347 128 
L 347 722 
Q 666 556 975 473 
Q 1284 391 1588 391 
Q 1994 391 2212 530 
Q 2431 669 2431 922 
Q 2431 1156 2273 1281 
Q 2116 1406 1581 1522 
L 1381 1569 
Q 847 1681 609 1914 
Q 372 2147 372 2553 
Q 372 3047 722 3315 
Q 1072 3584 1716 3584 
Q 2034 3584 2315 3537 
Q 2597 3491 2834 3397 
z
" id="DejaVuSans-73" transform="scale(0.015625)"/>
       <path d="M 603 3500 
L 1178 3500 
L 1178 0 
L 603 0 
L 603 3500 
z
M 603 4863 
L 1178 4863 
L 1178 4134 
L 603 4134 
L 603 4863 
z
" id="DejaVuSans-69" transform="scale(0.015625)"/>
       <path d="M 353 3500 
L 3084 3500 
L 3084 2975 
L 922 459 
L 3084 459 
L 3084 0 
L 275 0 
L 275 525 
L 2438 3041 
L 353 3041 
L 353 3500 
z
" id="DejaVuSans-7a" transform="scale(0.015625)"/>
       <path id="DejaVuSans-20" transform="scale(0.015625)"/>
       <path d="M 678 2906 
L 4684 2906 
L 4684 2381 
L 678 2381 
L 678 2906 
z
M 678 1631 
L 4684 1631 
L 4684 1100 
L 678 1100 
L 678 1631 
z
" id="DejaVuSans-3d" transform="scale(0.015625)"/>
       <path d="M 2988 4666 
L 4684 2925 
L 4056 2925 
L 2681 4159 
L 1306 2925 
L 678 2925 
L 2375 4666 
L 2988 4666 
z
" id="DejaVuSans-5e" transform="scale(0.015625)"/>
      </defs>
      <use xlink:href="#DejaVuSans-62"/>
      <use x="63.476562" xlink:href="#DejaVuSans-75"/>
      <use x="126.855469" xlink:href="#DejaVuSans-66"/>
      <use x="162.060547" xlink:href="#DejaVuSans-66"/>
      <use x="197.265625" xlink:href="#DejaVuSans-65"/>
      <use x="258.789062" xlink:href="#DejaVuSans-72"/>
      <use x="299.902344" xlink:href="#DejaVuSans-73"/>
      <use x="352.001953" xlink:href="#DejaVuSans-69"/>
      <use x="379.785156" xlink:href="#DejaVuSans-7a"/>
      <use x="432.275391" xlink:href="#DejaVuSans-65"/>
      <use x="493.798828" xlink:href="#DejaVuSans-20"/>
      <use x="525.585938" xlink:href="#DejaVuSans-3d"/>
      <use x="609.375" xlink:href="#DejaVuSans-20"/>
      <use x="641.162109" xlink:href="#DejaVuSans-31"/>
      <use x="704.785156" xlink:href="#DejaVuSans-30"/>
      <use x="768.408203" xlink:href="#DejaVuSans-5e"/>
      <use x="852.197266" xlink:href="#DejaVuSans-32"/>
     </g>
    </g>
    <g id="line2d_22">
     <path d="M 66.6 69.248563 
L 86.6 69.248563 
" style="fill:none;stroke:#ff7f0e;stroke-linecap:square;stroke-width:1.5;"/>
    </g>
    <g id="line2d_23"/>
    <g id="text_17">
     <!-- buffersize = 10^3 -->
     <g transform="translate(94.6 72.748563)scale(0.1 -0.1)">
      <defs>
       <path d="M 2597 2516 
Q 3050 2419 3304 2112 
Q 3559 1806 3559 1356 
Q 3559 666 3084 287 
Q 2609 -91 1734 -91 
Q 1441 -91 1130 -33 
Q 819 25 488 141 
L 488 750 
Q 750 597 1062 519 
Q 1375 441 1716 441 
Q 2309 441 2620 675 
Q 2931 909 2931 1356 
Q 2931 1769 2642 2001 
Q 2353 2234 1838 2234 
L 1294 2234 
L 1294 2753 
L 1863 2753 
Q 2328 2753 2575 2939 
Q 2822 3125 2822 3475 
Q 2822 3834 2567 4026 
Q 2313 4219 1838 4219 
Q 1578 4219 1281 4162 
Q 984 4106 628 3988 
L 628 4550 
Q 988 4650 1302 4700 
Q 1616 4750 1894 4750 
Q 2613 4750 3031 4423 
Q 3450 4097 3450 3541 
Q 3450 3153 3228 2886 
Q 3006 2619 2597 2516 
z
" id="DejaVuSans-33" transform="scale(0.015625)"/>
      </defs>
      <use xlink:href="#DejaVuSans-62"/>
      <use x="63.476562" xlink:href="#DejaVuSans-75"/>
      <use x="126.855469" xlink:href="#DejaVuSans-66"/>
      <use x="162.060547" xlink:href="#DejaVuSans-66"/>
      <use x="197.265625" xlink:href="#DejaVuSans-65"/>
      <use x="258.789062" xlink:href="#DejaVuSans-72"/>
      <use x="299.902344" xlink:href="#DejaVuSans-73"/>
      <use x="352.001953" xlink:href="#DejaVuSans-69"/>
      <use x="379.785156" xlink:href="#DejaVuSans-7a"/>
      <use x="432.275391" xlink:href="#DejaVuSans-65"/>
      <use x="493.798828" xlink:href="#DejaVuSans-20"/>
      <use x="525.585938" xlink:href="#DejaVuSans-3d"/>
      <use x="609.375" xlink:href="#DejaVuSans-20"/>
      <use x="641.162109" xlink:href="#DejaVuSans-31"/>
      <use x="704.785156" xlink:href="#DejaVuSans-30"/>
      <use x="768.408203" xlink:href="#DejaVuSans-5e"/>
      <use x="852.197266" xlink:href="#DejaVuSans-33"/>
     </g>
    </g>
    <g id="line2d_24">
     <path d="M 66.6 83.926688 
L 86.6 83.926688 
" style="fill:none;stroke:#2ca02c;stroke-linecap:square;stroke-width:1.5;"/>
    </g>
    <g id="line2d_25"/>
    <g id="text_18">
     <!-- buffersize = 10^4 -->
     <g transform="translate(94.6 87.426688)scale(0.1 -0.1)">
      <defs>
       <path d="M 2419 4116 
L 825 1625 
L 2419 1625 
L 2419 4116 
z
M 2253 4666 
L 3047 4666 
L 3047 1625 
L 3713 1625 
L 3713 1100 
L 3047 1100 
L 3047 0 
L 2419 0 
L 2419 1100 
L 313 1100 
L 313 1709 
L 2253 4666 
z
" id="DejaVuSans-34" transform="scale(0.015625)"/>
      </defs>
      <use xlink:href="#DejaVuSans-62"/>
      <use x="63.476562" xlink:href="#DejaVuSans-75"/>
      <use x="126.855469" xlink:href="#DejaVuSans-66"/>
      <use x="162.060547" xlink:href="#DejaVuSans-66"/>
      <use x="197.265625" xlink:href="#DejaVuSans-65"/>
      <use x="258.789062" xlink:href="#DejaVuSans-72"/>
      <use x="299.902344" xlink:href="#DejaVuSans-73"/>
      <use x="352.001953" xlink:href="#DejaVuSans-69"/>
      <use x="379.785156" xlink:href="#DejaVuSans-7a"/>
      <use x="432.275391" xlink:href="#DejaVuSans-65"/>
      <use x="493.798828" xlink:href="#DejaVuSans-20"/>
      <use x="525.585938" xlink:href="#DejaVuSans-3d"/>
      <use x="609.375" xlink:href="#DejaVuSans-20"/>
      <use x="641.162109" xlink:href="#DejaVuSans-31"/>
      <use x="704.785156" xlink:href="#DejaVuSans-30"/>
      <use x="768.408203" xlink:href="#DejaVuSans-5e"/>
      <use x="852.197266" xlink:href="#DejaVuSans-34"/>
     </g>
    </g>
    <g id="line2d_26">
     <path d="M 66.6 98.604813 
L 86.6 98.604813 
" style="fill:none;stroke:#d62728;stroke-linecap:square;stroke-width:1.5;"/>
    </g>
    <g id="line2d_27"/>
    <g id="text_19">
     <!-- buffersize = 10^5 -->
     <g transform="translate(94.6 102.104813)scale(0.1 -0.1)">
      <use xlink:href="#DejaVuSans-62"/>
      <use x="63.476562" xlink:href="#DejaVuSans-75"/>
      <use x="126.855469" xlink:href="#DejaVuSans-66"/>
      <use x="162.060547" xlink:href="#DejaVuSans-66"/>
      <use x="197.265625" xlink:href="#DejaVuSans-65"/>
      <use x="258.789062" xlink:href="#DejaVuSans-72"/>
      <use x="299.902344" xlink:href="#DejaVuSans-73"/>
      <use x="352.001953" xlink:href="#DejaVuSans-69"/>
      <use x="379.785156" xlink:href="#DejaVuSans-7a"/>
      <use x="432.275391" xlink:href="#DejaVuSans-65"/>
      <use x="493.798828" xlink:href="#DejaVuSans-20"/>
      <use x="525.585938" xlink:href="#DejaVuSans-3d"/>
      <use x="609.375" xlink:href="#DejaVuSans-20"/>
      <use x="641.162109" xlink:href="#DejaVuSans-31"/>
      <use x="704.785156" xlink:href="#DejaVuSans-30"/>
      <use x="768.408203" xlink:href="#DejaVuSans-5e"/>
      <use x="852.197266" xlink:href="#DejaVuSans-35"/>
     </g>
    </g>
   </g>
  </g>
 </g>
 <defs>
  <clipPath id="p71b1e9ab0b">
   <rect height="266.112" width="357.12" x="57.6" y="41.472"/>
  </clipPath>
 </defs>
</svg>
