<?xml version="1.0" encoding="utf-8" standalone="no"?>
<!DOCTYPE svg PUBLIC "-//W3C//DTD SVG 1.1//EN"
  "http://www.w3.org/Graphics/SVG/1.1/DTD/svg11.dtd">
<svg height="345.6pt" version="1.1" viewBox="0 0 460.8 345.6" width="460.8pt" xmlns="http://www.w3.org/2000/svg" xmlns:xlink="http://www.w3.org/1999/xlink">
 <metadata>
  <rdf:RDF xmlns:cc="http://creativecommons.org/ns#" xmlns:dc="http://purl.org/dc/elements/1.1/" xmlns:rdf="http://www.w3.org/1999/02/22-rdf-syntax-ns#">
   <cc:Work>
    <dc:type rdf:resource="http://purl.org/dc/dcmitype/StillImage"/>
    <dc:date>2022-01-03T18:02:09.069307</dc:date>
    <dc:format>image/svg+xml</dc:format>
    <dc:creator>
     <cc:Agent>
      <dc:title>Matplotlib v3.4.3, https://matplotlib.org/</dc:title>
     </cc:Agent>
    </dc:creator>
   </cc:Work>
  </rdf:RDF>
 </metadata>
 <defs>
  <style type="text/css">*{stroke-linecap:butt;stroke-linejoin:round;}</style>
 </defs>
 <g id="figure_1">
  <g id="patch_1">
   <path d="M 0 345.6 
L 460.8 345.6 
L 460.8 0 
L 0 0 
z
" style="fill:#ffffff;"/>
  </g>
  <g id="axes_1">
   <g id="patch_2">
    <path d="M 57.6 307.584 
L 414.72 307.584 
L 414.72 41.472 
L 57.6 41.472 
z
" style="fill:#ffffff;"/>
   </g>
   <g id="PolyCollection_1">
    <path clip-path="url(#pad6d358122)" d="M 73.832727 273.808244 
L 73.832727 273.808244 
L 82.157203 273.808244 
L 90.481678 273.808244 
L 98.806154 273.808244 
L 107.130629 275.057886 
L 115.455105 274.682994 
L 123.77958 274.420569 
L 132.104056 274.236871 
L 140.428531 274.108283 
L 148.753007 274.018272 
L 157.077483 280.900034 
L 165.401958 279.679276 
L 173.726434 273.837209 
L 182.050909 273.82852 
L 190.375385 256.414656 
L 198.69986 261.632732 
L 207.024336 265.285386 
L 215.348811 275.428641 
L 223.673287 273.918204 
L 231.997762 273.885216 
L 240.322238 273.862125 
L 248.646713 273.845961 
L 256.971189 273.834646 
L 265.295664 278.03302 
L 273.62014 285.678129 
L 281.944615 282.117163 
L 290.269091 279.624488 
L 298.593566 272.742574 
L 306.918042 273.062275 
L 315.242517 278.64063 
L 323.566993 277.190914 
L 331.891469 279.575264 
L 340.215944 279.631073 
L 348.54042 277.884224 
L 356.864895 276.66143 
L 365.189371 275.805475 
L 373.513846 275.206305 
L 381.838322 278.179714 
L 390.162797 276.868273 
L 398.487273 273.63985 
L 398.487273 273.63985 
L 398.487273 255.446562 
L 390.162797 254.166288 
L 381.838322 245.748307 
L 373.513846 266.803473 
L 365.189371 263.801428 
L 356.864895 259.512792 
L 348.54042 253.38617 
L 340.215944 244.633853 
L 331.891469 241.763712 
L 323.566993 246.664292 
L 315.242517 235.03117 
L 306.918042 253.593661 
L 298.593566 244.930268 
L 290.269091 243.013525 
L 281.944615 229.815789 
L 273.62014 210.961879 
L 265.295664 231.832624 
L 256.971189 264.461831 
L 248.646713 260.456225 
L 240.322238 254.733932 
L 231.997762 246.559226 
L 223.673287 234.881076 
L 215.348811 219.205851 
L 207.024336 244.091391 
L 198.69986 231.355597 
L 190.375385 213.161606 
L 182.050909 257.249374 
L 173.726434 250.152716 
L 165.401958 251.897255 
L 157.077483 247.341324 
L 148.753007 273.024411 
L 140.428531 272.688483 
L 132.104056 272.208585 
L 123.77958 271.523017 
L 115.455105 270.543635 
L 107.130629 269.144516 
L 98.806154 273.808244 
L 90.481678 273.808244 
L 82.157203 273.808244 
L 73.832727 273.808244 
z
" style="fill:#1f77b4;fill-opacity:0.3;"/>
   </g>
   <g id="PolyCollection_2">
    <path clip-path="url(#pad6d358122)" d="M 73.832727 295.488 
L 73.832727 295.488 
L 82.157203 293.678374 
L 90.481678 285.448456 
L 98.806154 270.025179 
L 107.130629 265.252559 
L 115.455105 267.819265 
L 123.77958 267.599388 
L 132.104056 259.705572 
L 140.428531 263.936374 
L 148.753007 260.295988 
L 157.077483 241.21376 
L 165.401958 221.672948 
L 173.726434 245.949467 
L 182.050909 220.391359 
L 190.375385 216.186123 
L 198.69986 207.449423 
L 207.024336 171.528212 
L 215.348811 181.531223 
L 223.673287 158.947901 
L 231.997762 133.5119 
L 240.322238 154.64762 
L 248.646713 125.606954 
L 256.971189 134.447546 
L 265.295664 137.853597 
L 273.62014 121.511114 
L 281.944615 153.354632 
L 290.269091 130.832273 
L 298.593566 110.924621 
L 306.918042 113.029141 
L 315.242517 96.201801 
L 323.566993 84.101471 
L 331.891469 75.405422 
L 340.215944 135.094203 
L 348.54042 109.924477 
L 356.864895 133.449795 
L 365.189371 121.934838 
L 373.513846 100.285587 
L 381.838322 94.218795 
L 390.162797 81.043484 
L 398.487273 79.738969 
L 398.487273 79.738969 
L 398.487273 58.709988 
L 390.162797 59.878344 
L 381.838322 65.47176 
L 373.513846 62.768278 
L 365.189371 65.334953 
L 356.864895 53.568 
L 348.54042 64.934663 
L 340.215944 63.744907 
L 331.891469 60.383777 
L 323.566993 64.649646 
L 315.242517 68.109732 
L 306.918042 71.50074 
L 298.593566 84.029361 
L 290.269091 92.056957 
L 281.944615 97.329442 
L 273.62014 96.980698 
L 265.295664 92.22585 
L 256.971189 88.903911 
L 248.646713 96.311363 
L 240.322238 114.702969 
L 231.997762 81.424566 
L 223.673287 91.04079 
L 215.348811 81.893002 
L 207.024336 101.893591 
L 198.69986 120.4769 
L 190.375385 159.359699 
L 182.050909 172.024069 
L 173.726434 162.368223 
L 165.401958 175.905908 
L 157.077483 179.214157 
L 148.753007 224.367408 
L 140.428531 234.58566 
L 132.104056 217.775981 
L 123.77958 217.710842 
L 115.455105 232.673302 
L 107.130629 215.044041 
L 98.806154 209.429918 
L 90.481678 213.095897 
L 82.157203 187.958885 
L 73.832727 192.898294 
z
" style="fill:#ff7f0e;fill-opacity:0.3;"/>
   </g>
   <g id="PolyCollection_3">
    <path clip-path="url(#pad6d358122)" d="M 73.832727 295.488 
L 73.832727 295.488 
L 82.157203 288.984073 
L 90.481678 282.96798 
L 98.806154 280.220059 
L 107.130629 278.296515 
L 115.455105 276.950033 
L 123.77958 276.007497 
L 132.104056 275.347721 
L 140.428531 282.165985 
L 148.753007 272.37747 
L 157.077483 276.938539 
L 165.401958 242.417496 
L 173.726434 251.83472 
L 182.050909 262.004087 
L 190.375385 260.760951 
L 198.69986 264.675139 
L 207.024336 266.596083 
L 215.348811 266.121952 
L 223.673287 236.381437 
L 231.997762 240.441856 
L 240.322238 230.425417 
L 248.646713 239.071771 
L 256.971189 247.743007 
L 265.295664 259.542508 
L 273.62014 207.401824 
L 281.944615 225.859443 
L 290.269091 227.043982 
L 298.593566 224.549816 
L 306.918042 225.303052 
L 315.242517 239.395572 
L 323.566993 212.342829 
L 331.891469 231.885607 
L 340.215944 210.832674 
L 348.54042 228.840098 
L 356.864895 178.237915 
L 365.189371 185.234643 
L 373.513846 157.252647 
L 381.838322 190.902288 
L 390.162797 169.616955 
L 398.487273 172.898074 
L 398.487273 172.898074 
L 398.487273 105.718033 
L 390.162797 99.262357 
L 381.838322 98.56458 
L 373.513846 117.834449 
L 365.189371 114.476494 
L 356.864895 122.751589 
L 348.54042 77.206544 
L 340.215944 86.02831 
L 331.891469 95.256163 
L 323.566993 95.935393 
L 315.242517 102.014279 
L 306.918042 118.972225 
L 298.593566 152.691758 
L 290.269091 171.942224 
L 281.944615 163.416866 
L 273.62014 154.961129 
L 265.295664 127.785066 
L 256.971189 118.140313 
L 248.646713 141.895556 
L 240.322238 105.751344 
L 231.997762 124.159932 
L 223.673287 146.586268 
L 215.348811 180.744931 
L 207.024336 213.0304 
L 198.69986 235.496527 
L 190.375385 219.07722 
L 182.050909 208.212159 
L 173.726434 232.368749 
L 165.401958 214.608965 
L 157.077483 200.376789 
L 148.753007 221.710027 
L 140.428531 232.271936 
L 132.104056 267.068433 
L 123.77958 264.179943 
L 115.455105 260.053528 
L 107.130629 254.15865 
L 98.806154 245.737396 
L 90.481678 233.707032 
L 82.157203 217.171279 
L 73.832727 192.898294 
z
" style="fill:#2ca02c;fill-opacity:0.3;"/>
   </g>
   <g id="PolyCollection_4">
    <path clip-path="url(#pad6d358122)" d="M 73.832727 295.488 
L 73.832727 295.488 
L 82.157203 288.984073 
L 90.481678 282.96798 
L 98.806154 280.220059 
L 107.130629 278.296515 
L 115.455105 276.950033 
L 123.77958 276.007497 
L 132.104056 275.347721 
L 140.428531 274.885878 
L 148.753007 274.562588 
L 157.077483 274.336285 
L 165.401958 276.613337 
L 173.726434 274.179271 
L 182.050909 274.067963 
L 190.375385 267.042542 
L 198.69986 268.557506 
L 207.024336 259.575826 
L 215.348811 261.310673 
L 223.673287 247.087896 
L 231.997762 233.71581 
L 240.322238 248.749973 
L 248.646713 206.729022 
L 256.971189 206.147276 
L 265.295664 213.220977 
L 273.62014 228.335868 
L 281.944615 224.464522 
L 290.269091 228.182397 
L 298.593566 213.068033 
L 306.918042 193.405407 
L 315.242517 182.869247 
L 323.566993 187.466399 
L 331.891469 206.992393 
L 340.215944 214.995181 
L 348.54042 201.381598 
L 356.864895 208.439903 
L 365.189371 187.618436 
L 373.513846 211.271657 
L 381.838322 214.841503 
L 390.162797 194.775567 
L 398.487273 181.442239 
L 398.487273 181.442239 
L 398.487273 107.885216 
L 390.162797 115.232814 
L 381.838322 83.277026 
L 373.513846 93.494119 
L 365.189371 88.215825 
L 356.864895 109.806924 
L 348.54042 95.066077 
L 340.215944 71.461512 
L 331.891469 82.131816 
L 323.566993 86.340683 
L 315.242517 116.190908 
L 306.918042 149.095981 
L 298.593566 134.982536 
L 290.269091 118.670238 
L 281.944615 143.208026 
L 273.62014 110.176004 
L 265.295664 132.880272 
L 256.971189 143.998346 
L 248.646713 173.237772 
L 240.322238 175.252873 
L 231.997762 187.024145 
L 223.673287 171.634992 
L 215.348811 196.371729 
L 207.024336 176.854401 
L 198.69986 216.039532 
L 190.375385 220.262777 
L 182.050909 234.13871 
L 173.726434 217.137481 
L 165.401958 247.507511 
L 157.077483 271.496489 
L 148.753007 270.505737 
L 140.428531 269.090377 
L 132.104056 267.068433 
L 123.77958 264.179943 
L 115.455105 260.053528 
L 107.130629 254.15865 
L 98.806154 245.737396 
L 90.481678 233.707032 
L 82.157203 217.171279 
L 73.832727 192.898294 
z
" style="fill:#d62728;fill-opacity:0.3;"/>
   </g>
   <g id="matplotlib.axis_1">
    <g id="xtick_1">
     <g id="line2d_1">
      <defs>
       <path d="M 0 0 
L 0 3.5 
" id="mc8dab4b414" style="stroke:#000000;stroke-width:0.8;"/>
      </defs>
      <g>
       <use style="stroke:#000000;stroke-width:0.8;" x="65.508252" xlink:href="#mc8dab4b414" y="307.584"/>
      </g>
     </g>
     <g id="text_1">
      <!-- 0 -->
      <g transform="translate(62.327002 322.182437)scale(0.1 -0.1)">
       <defs>
        <path d="M 2034 4250 
Q 1547 4250 1301 3770 
Q 1056 3291 1056 2328 
Q 1056 1369 1301 889 
Q 1547 409 2034 409 
Q 2525 409 2770 889 
Q 3016 1369 3016 2328 
Q 3016 3291 2770 3770 
Q 2525 4250 2034 4250 
z
M 2034 4750 
Q 2819 4750 3233 4129 
Q 3647 3509 3647 2328 
Q 3647 1150 3233 529 
Q 2819 -91 2034 -91 
Q 1250 -91 836 529 
Q 422 1150 422 2328 
Q 422 3509 836 4129 
Q 1250 4750 2034 4750 
z
" id="DejaVuSans-30" transform="scale(0.015625)"/>
       </defs>
       <use xlink:href="#DejaVuSans-30"/>
      </g>
     </g>
    </g>
    <g id="xtick_2">
     <g id="line2d_2">
      <g>
       <use style="stroke:#000000;stroke-width:0.8;" x="107.130629" xlink:href="#mc8dab4b414" y="307.584"/>
      </g>
     </g>
     <g id="text_2">
      <!-- 25 -->
      <g transform="translate(100.768129 322.182437)scale(0.1 -0.1)">
       <defs>
        <path d="M 1228 531 
L 3431 531 
L 3431 0 
L 469 0 
L 469 531 
Q 828 903 1448 1529 
Q 2069 2156 2228 2338 
Q 2531 2678 2651 2914 
Q 2772 3150 2772 3378 
Q 2772 3750 2511 3984 
Q 2250 4219 1831 4219 
Q 1534 4219 1204 4116 
Q 875 4013 500 3803 
L 500 4441 
Q 881 4594 1212 4672 
Q 1544 4750 1819 4750 
Q 2544 4750 2975 4387 
Q 3406 4025 3406 3419 
Q 3406 3131 3298 2873 
Q 3191 2616 2906 2266 
Q 2828 2175 2409 1742 
Q 1991 1309 1228 531 
z
" id="DejaVuSans-32" transform="scale(0.015625)"/>
        <path d="M 691 4666 
L 3169 4666 
L 3169 4134 
L 1269 4134 
L 1269 2991 
Q 1406 3038 1543 3061 
Q 1681 3084 1819 3084 
Q 2600 3084 3056 2656 
Q 3513 2228 3513 1497 
Q 3513 744 3044 326 
Q 2575 -91 1722 -91 
Q 1428 -91 1123 -41 
Q 819 9 494 109 
L 494 744 
Q 775 591 1075 516 
Q 1375 441 1709 441 
Q 2250 441 2565 725 
Q 2881 1009 2881 1497 
Q 2881 1984 2565 2268 
Q 2250 2553 1709 2553 
Q 1456 2553 1204 2497 
Q 953 2441 691 2322 
L 691 4666 
z
" id="DejaVuSans-35" transform="scale(0.015625)"/>
       </defs>
       <use xlink:href="#DejaVuSans-32"/>
       <use x="63.623047" xlink:href="#DejaVuSans-35"/>
      </g>
     </g>
    </g>
    <g id="xtick_3">
     <g id="line2d_3">
      <g>
       <use style="stroke:#000000;stroke-width:0.8;" x="148.753007" xlink:href="#mc8dab4b414" y="307.584"/>
      </g>
     </g>
     <g id="text_3">
      <!-- 50 -->
      <g transform="translate(142.390507 322.182437)scale(0.1 -0.1)">
       <use xlink:href="#DejaVuSans-35"/>
       <use x="63.623047" xlink:href="#DejaVuSans-30"/>
      </g>
     </g>
    </g>
    <g id="xtick_4">
     <g id="line2d_4">
      <g>
       <use style="stroke:#000000;stroke-width:0.8;" x="190.375385" xlink:href="#mc8dab4b414" y="307.584"/>
      </g>
     </g>
     <g id="text_4">
      <!-- 75 -->
      <g transform="translate(184.012885 322.182437)scale(0.1 -0.1)">
       <defs>
        <path d="M 525 4666 
L 3525 4666 
L 3525 4397 
L 1831 0 
L 1172 0 
L 2766 4134 
L 525 4134 
L 525 4666 
z
" id="DejaVuSans-37" transform="scale(0.015625)"/>
       </defs>
       <use xlink:href="#DejaVuSans-37"/>
       <use x="63.623047" xlink:href="#DejaVuSans-35"/>
      </g>
     </g>
    </g>
    <g id="xtick_5">
     <g id="line2d_5">
      <g>
       <use style="stroke:#000000;stroke-width:0.8;" x="231.997762" xlink:href="#mc8dab4b414" y="307.584"/>
      </g>
     </g>
     <g id="text_5">
      <!-- 100 -->
      <g transform="translate(222.454012 322.182437)scale(0.1 -0.1)">
       <defs>
        <path d="M 794 531 
L 1825 531 
L 1825 4091 
L 703 3866 
L 703 4441 
L 1819 4666 
L 2450 4666 
L 2450 531 
L 3481 531 
L 3481 0 
L 794 0 
L 794 531 
z
" id="DejaVuSans-31" transform="scale(0.015625)"/>
       </defs>
       <use xlink:href="#DejaVuSans-31"/>
       <use x="63.623047" xlink:href="#DejaVuSans-30"/>
       <use x="127.246094" xlink:href="#DejaVuSans-30"/>
      </g>
     </g>
    </g>
    <g id="xtick_6">
     <g id="line2d_6">
      <g>
       <use style="stroke:#000000;stroke-width:0.8;" x="273.62014" xlink:href="#mc8dab4b414" y="307.584"/>
      </g>
     </g>
     <g id="text_6">
      <!-- 125 -->
      <g transform="translate(264.07639 322.182437)scale(0.1 -0.1)">
       <use xlink:href="#DejaVuSans-31"/>
       <use x="63.623047" xlink:href="#DejaVuSans-32"/>
       <use x="127.246094" xlink:href="#DejaVuSans-35"/>
      </g>
     </g>
    </g>
    <g id="xtick_7">
     <g id="line2d_7">
      <g>
       <use style="stroke:#000000;stroke-width:0.8;" x="315.242517" xlink:href="#mc8dab4b414" y="307.584"/>
      </g>
     </g>
     <g id="text_7">
      <!-- 150 -->
      <g transform="translate(305.698767 322.182437)scale(0.1 -0.1)">
       <use xlink:href="#DejaVuSans-31"/>
       <use x="63.623047" xlink:href="#DejaVuSans-35"/>
       <use x="127.246094" xlink:href="#DejaVuSans-30"/>
      </g>
     </g>
    </g>
    <g id="xtick_8">
     <g id="line2d_8">
      <g>
       <use style="stroke:#000000;stroke-width:0.8;" x="356.864895" xlink:href="#mc8dab4b414" y="307.584"/>
      </g>
     </g>
     <g id="text_8">
      <!-- 175 -->
      <g transform="translate(347.321145 322.182437)scale(0.1 -0.1)">
       <use xlink:href="#DejaVuSans-31"/>
       <use x="63.623047" xlink:href="#DejaVuSans-37"/>
       <use x="127.246094" xlink:href="#DejaVuSans-35"/>
      </g>
     </g>
    </g>
    <g id="xtick_9">
     <g id="line2d_9">
      <g>
       <use style="stroke:#000000;stroke-width:0.8;" x="398.487273" xlink:href="#mc8dab4b414" y="307.584"/>
      </g>
     </g>
     <g id="text_9">
      <!-- 200 -->
      <g transform="translate(388.943523 322.182437)scale(0.1 -0.1)">
       <use xlink:href="#DejaVuSans-32"/>
       <use x="63.623047" xlink:href="#DejaVuSans-30"/>
       <use x="127.246094" xlink:href="#DejaVuSans-30"/>
      </g>
     </g>
    </g>
   </g>
   <g id="matplotlib.axis_2">
    <g id="ytick_1">
     <g id="line2d_10">
      <defs>
       <path d="M 0 0 
L -3.5 0 
" id="m2d2cda3e86" style="stroke:#000000;stroke-width:0.8;"/>
      </defs>
      <g>
       <use style="stroke:#000000;stroke-width:0.8;" x="57.6" xlink:href="#m2d2cda3e86" y="278.48054"/>
      </g>
     </g>
     <g id="text_10">
      <!-- −400 -->
      <g transform="translate(23.132812 282.279758)scale(0.1 -0.1)">
       <defs>
        <path d="M 678 2272 
L 4684 2272 
L 4684 1741 
L 678 1741 
L 678 2272 
z
" id="DejaVuSans-2212" transform="scale(0.015625)"/>
        <path d="M 2419 4116 
L 825 1625 
L 2419 1625 
L 2419 4116 
z
M 2253 4666 
L 3047 4666 
L 3047 1625 
L 3713 1625 
L 3713 1100 
L 3047 1100 
L 3047 0 
L 2419 0 
L 2419 1100 
L 313 1100 
L 313 1709 
L 2253 4666 
z
" id="DejaVuSans-34" transform="scale(0.015625)"/>
       </defs>
       <use xlink:href="#DejaVuSans-2212"/>
       <use x="83.789062" xlink:href="#DejaVuSans-34"/>
       <use x="147.412109" xlink:href="#DejaVuSans-30"/>
       <use x="211.035156" xlink:href="#DejaVuSans-30"/>
      </g>
     </g>
    </g>
    <g id="ytick_2">
     <g id="line2d_11">
      <g>
       <use style="stroke:#000000;stroke-width:0.8;" x="57.6" xlink:href="#m2d2cda3e86" y="241.857748"/>
      </g>
     </g>
     <g id="text_11">
      <!-- −350 -->
      <g transform="translate(23.132812 245.656967)scale(0.1 -0.1)">
       <defs>
        <path d="M 2597 2516 
Q 3050 2419 3304 2112 
Q 3559 1806 3559 1356 
Q 3559 666 3084 287 
Q 2609 -91 1734 -91 
Q 1441 -91 1130 -33 
Q 819 25 488 141 
L 488 750 
Q 750 597 1062 519 
Q 1375 441 1716 441 
Q 2309 441 2620 675 
Q 2931 909 2931 1356 
Q 2931 1769 2642 2001 
Q 2353 2234 1838 2234 
L 1294 2234 
L 1294 2753 
L 1863 2753 
Q 2328 2753 2575 2939 
Q 2822 3125 2822 3475 
Q 2822 3834 2567 4026 
Q 2313 4219 1838 4219 
Q 1578 4219 1281 4162 
Q 984 4106 628 3988 
L 628 4550 
Q 988 4650 1302 4700 
Q 1616 4750 1894 4750 
Q 2613 4750 3031 4423 
Q 3450 4097 3450 3541 
Q 3450 3153 3228 2886 
Q 3006 2619 2597 2516 
z
" id="DejaVuSans-33" transform="scale(0.015625)"/>
       </defs>
       <use xlink:href="#DejaVuSans-2212"/>
       <use x="83.789062" xlink:href="#DejaVuSans-33"/>
       <use x="147.412109" xlink:href="#DejaVuSans-35"/>
       <use x="211.035156" xlink:href="#DejaVuSans-30"/>
      </g>
     </g>
    </g>
    <g id="ytick_3">
     <g id="line2d_12">
      <g>
       <use style="stroke:#000000;stroke-width:0.8;" x="57.6" xlink:href="#m2d2cda3e86" y="205.234957"/>
      </g>
     </g>
     <g id="text_12">
      <!-- −300 -->
      <g transform="translate(23.132812 209.034176)scale(0.1 -0.1)">
       <use xlink:href="#DejaVuSans-2212"/>
       <use x="83.789062" xlink:href="#DejaVuSans-33"/>
       <use x="147.412109" xlink:href="#DejaVuSans-30"/>
       <use x="211.035156" xlink:href="#DejaVuSans-30"/>
      </g>
     </g>
    </g>
    <g id="ytick_4">
     <g id="line2d_13">
      <g>
       <use style="stroke:#000000;stroke-width:0.8;" x="57.6" xlink:href="#m2d2cda3e86" y="168.612166"/>
      </g>
     </g>
     <g id="text_13">
      <!-- −250 -->
      <g transform="translate(23.132812 172.411385)scale(0.1 -0.1)">
       <use xlink:href="#DejaVuSans-2212"/>
       <use x="83.789062" xlink:href="#DejaVuSans-32"/>
       <use x="147.412109" xlink:href="#DejaVuSans-35"/>
       <use x="211.035156" xlink:href="#DejaVuSans-30"/>
      </g>
     </g>
    </g>
    <g id="ytick_5">
     <g id="line2d_14">
      <g>
       <use style="stroke:#000000;stroke-width:0.8;" x="57.6" xlink:href="#m2d2cda3e86" y="131.989375"/>
      </g>
     </g>
     <g id="text_14">
      <!-- −200 -->
      <g transform="translate(23.132812 135.788594)scale(0.1 -0.1)">
       <use xlink:href="#DejaVuSans-2212"/>
       <use x="83.789062" xlink:href="#DejaVuSans-32"/>
       <use x="147.412109" xlink:href="#DejaVuSans-30"/>
       <use x="211.035156" xlink:href="#DejaVuSans-30"/>
      </g>
     </g>
    </g>
    <g id="ytick_6">
     <g id="line2d_15">
      <g>
       <use style="stroke:#000000;stroke-width:0.8;" x="57.6" xlink:href="#m2d2cda3e86" y="95.366584"/>
      </g>
     </g>
     <g id="text_15">
      <!-- −150 -->
      <g transform="translate(23.132812 99.165803)scale(0.1 -0.1)">
       <use xlink:href="#DejaVuSans-2212"/>
       <use x="83.789062" xlink:href="#DejaVuSans-31"/>
       <use x="147.412109" xlink:href="#DejaVuSans-35"/>
       <use x="211.035156" xlink:href="#DejaVuSans-30"/>
      </g>
     </g>
    </g>
    <g id="ytick_7">
     <g id="line2d_16">
      <g>
       <use style="stroke:#000000;stroke-width:0.8;" x="57.6" xlink:href="#m2d2cda3e86" y="58.743793"/>
      </g>
     </g>
     <g id="text_16">
      <!-- −100 -->
      <g transform="translate(23.132812 62.543011)scale(0.1 -0.1)">
       <use xlink:href="#DejaVuSans-2212"/>
       <use x="83.789062" xlink:href="#DejaVuSans-31"/>
       <use x="147.412109" xlink:href="#DejaVuSans-30"/>
       <use x="211.035156" xlink:href="#DejaVuSans-30"/>
      </g>
     </g>
    </g>
   </g>
   <g id="line2d_17">
    <path clip-path="url(#pad6d358122)" d="M 73.832727 273.808244 
L 82.157203 273.808244 
L 90.481678 273.808244 
L 98.806154 273.808244 
L 107.130629 272.101201 
L 115.455105 272.613314 
L 123.77958 272.971793 
L 132.104056 273.222728 
L 140.428531 273.398383 
L 148.753007 273.521341 
L 157.077483 264.120679 
L 165.401958 265.788266 
L 173.726434 261.994962 
L 182.050909 265.538947 
L 190.375385 234.788131 
L 198.69986 246.494165 
L 207.024336 254.688389 
L 215.348811 247.317246 
L 223.673287 254.39964 
L 231.997762 260.222221 
L 240.322238 264.298028 
L 248.646713 267.151093 
L 256.971189 269.148238 
L 265.295664 254.932822 
L 273.62014 248.320004 
L 281.944615 255.966476 
L 290.269091 261.319006 
L 298.593566 258.836421 
L 306.918042 263.327968 
L 315.242517 256.8359 
L 323.566993 261.927603 
L 331.891469 260.669488 
L 340.215944 262.132463 
L 348.54042 265.635197 
L 356.864895 268.087111 
L 365.189371 269.803451 
L 373.513846 271.004889 
L 381.838322 261.964011 
L 390.162797 265.517281 
L 398.487273 264.543206 
" style="fill:none;stroke:#1f77b4;stroke-linecap:square;stroke-width:1.5;"/>
   </g>
   <g id="line2d_18">
    <path clip-path="url(#pad6d358122)" d="M 73.832727 244.193147 
L 82.157203 240.818629 
L 90.481678 249.272176 
L 98.806154 239.727548 
L 107.130629 240.1483 
L 115.455105 250.246283 
L 123.77958 242.655115 
L 132.104056 238.740776 
L 140.428531 249.261017 
L 148.753007 242.331698 
L 157.077483 210.213958 
L 165.401958 198.789428 
L 173.726434 204.158845 
L 182.050909 196.207714 
L 190.375385 187.772911 
L 198.69986 163.963161 
L 207.024336 136.710902 
L 215.348811 131.712112 
L 223.673287 124.994345 
L 231.997762 107.468233 
L 240.322238 134.675294 
L 248.646713 110.959158 
L 256.971189 111.675729 
L 265.295664 115.039724 
L 273.62014 109.245906 
L 281.944615 125.342037 
L 290.269091 111.444615 
L 298.593566 97.476991 
L 306.918042 92.264941 
L 315.242517 82.155767 
L 323.566993 74.375559 
L 331.891469 67.894599 
L 340.215944 99.419555 
L 348.54042 87.42957 
L 356.864895 93.508897 
L 365.189371 93.634895 
L 373.513846 81.526932 
L 381.838322 79.845277 
L 390.162797 70.460914 
L 398.487273 69.224478 
" style="fill:none;stroke:#ff7f0e;stroke-linecap:square;stroke-width:1.5;"/>
   </g>
   <g id="line2d_19">
    <path clip-path="url(#pad6d358122)" d="M 73.832727 244.193147 
L 82.157203 253.077676 
L 90.481678 258.337506 
L 98.806154 262.978727 
L 107.130629 266.227582 
L 115.455105 268.501781 
L 123.77958 270.09372 
L 132.104056 271.208077 
L 140.428531 257.218961 
L 148.753007 247.043749 
L 157.077483 238.657664 
L 165.401958 228.51323 
L 173.726434 242.101735 
L 182.050909 235.108123 
L 190.375385 239.919085 
L 198.69986 250.085833 
L 207.024336 239.813242 
L 215.348811 223.433442 
L 223.673287 191.483852 
L 231.997762 182.300894 
L 240.322238 168.08838 
L 248.646713 190.483663 
L 256.971189 182.94166 
L 265.295664 193.663787 
L 273.62014 181.181477 
L 281.944615 194.638155 
L 290.269091 199.493103 
L 298.593566 188.620787 
L 306.918042 172.137638 
L 315.242517 170.704925 
L 323.566993 154.139111 
L 331.891469 163.570885 
L 340.215944 148.430492 
L 348.54042 153.023321 
L 356.864895 150.494752 
L 365.189371 149.855569 
L 373.513846 137.543548 
L 381.838322 144.733434 
L 390.162797 134.439656 
L 398.487273 139.308053 
" style="fill:none;stroke:#2ca02c;stroke-linecap:square;stroke-width:1.5;"/>
   </g>
   <g id="line2d_20">
    <path clip-path="url(#pad6d358122)" d="M 73.832727 244.193147 
L 82.157203 253.077676 
L 90.481678 258.337506 
L 98.806154 262.978727 
L 107.130629 266.227582 
L 115.455105 268.501781 
L 123.77958 270.09372 
L 132.104056 271.208077 
L 140.428531 271.988127 
L 148.753007 272.534162 
L 157.077483 272.916387 
L 165.401958 262.060424 
L 173.726434 245.658376 
L 182.050909 254.103337 
L 190.375385 243.65266 
L 198.69986 242.298519 
L 207.024336 218.215114 
L 215.348811 228.841201 
L 223.673287 209.361444 
L 231.997762 210.369978 
L 240.322238 212.001423 
L 248.646713 189.983397 
L 256.971189 175.072811 
L 265.295664 173.050624 
L 273.62014 169.255936 
L 281.944615 183.836274 
L 290.269091 173.426317 
L 298.593566 174.025284 
L 306.918042 171.250694 
L 315.242517 149.530078 
L 323.566993 136.903541 
L 331.891469 144.562104 
L 340.215944 143.228347 
L 348.54042 148.223837 
L 356.864895 159.123413 
L 365.189371 137.917131 
L 373.513846 152.382888 
L 381.838322 149.059265 
L 390.162797 155.00419 
L 398.487273 144.663728 
" style="fill:none;stroke:#d62728;stroke-linecap:square;stroke-width:1.5;"/>
   </g>
   <g id="patch_3">
    <path d="M 57.6 307.584 
L 57.6 41.472 
" style="fill:none;stroke:#000000;stroke-linecap:square;stroke-linejoin:miter;stroke-width:0.8;"/>
   </g>
   <g id="patch_4">
    <path d="M 414.72 307.584 
L 414.72 41.472 
" style="fill:none;stroke:#000000;stroke-linecap:square;stroke-linejoin:miter;stroke-width:0.8;"/>
   </g>
   <g id="patch_5">
    <path d="M 57.6 307.584 
L 414.72 307.584 
" style="fill:none;stroke:#000000;stroke-linecap:square;stroke-linejoin:miter;stroke-width:0.8;"/>
   </g>
   <g id="patch_6">
    <path d="M 57.6 41.472 
L 414.72 41.472 
" style="fill:none;stroke:#000000;stroke-linecap:square;stroke-linejoin:miter;stroke-width:0.8;"/>
   </g>
   <g id="legend_1">
    <g id="patch_7">
     <path d="M 64.6 108.1845 
L 188.182812 108.1845 
Q 190.182812 108.1845 190.182812 106.1845 
L 190.182812 48.472 
Q 190.182812 46.472 188.182812 46.472 
L 64.6 46.472 
Q 62.6 46.472 62.6 48.472 
L 62.6 106.1845 
Q 62.6 108.1845 64.6 108.1845 
z
" style="fill:#ffffff;opacity:0.8;stroke:#cccccc;stroke-linejoin:miter;"/>
    </g>
    <g id="line2d_19">
     <path d="M 66.6 54.570438 
L 86.6 54.570438 
" style="fill:none;stroke:#1f77b4;stroke-linecap:square;stroke-width:1.5;"/>
    </g>
    <g id="line2d_20"/>
    <g id="text_15">
     <!-- buffersize = 10^2 -->
     <g transform="translate(94.6 58.070438)scale(0.1 -0.1)">
      <defs>
       <path d="M 3116 1747 
Q 3116 2381 2855 2742 
Q 2594 3103 2138 3103 
Q 1681 3103 1420 2742 
Q 1159 2381 1159 1747 
Q 1159 1113 1420 752 
Q 1681 391 2138 391 
Q 2594 391 2855 752 
Q 3116 1113 3116 1747 
z
M 1159 2969 
Q 1341 3281 1617 3432 
Q 1894 3584 2278 3584 
Q 2916 3584 3314 3078 
Q 3713 2572 3713 1747 
Q 3713 922 3314 415 
Q 2916 -91 2278 -91 
Q 1894 -91 1617 61 
Q 1341 213 1159 525 
L 1159 0 
L 581 0 
L 581 4863 
L 1159 4863 
L 1159 2969 
z
" id="DejaVuSans-62" transform="scale(0.015625)"/>
       <path d="M 544 1381 
L 544 3500 
L 1119 3500 
L 1119 1403 
Q 1119 906 1312 657 
Q 1506 409 1894 409 
Q 2359 409 2629 706 
Q 2900 1003 2900 1516 
L 2900 3500 
L 3475 3500 
L 3475 0 
L 2900 0 
L 2900 538 
Q 2691 219 2414 64 
Q 2138 -91 1772 -91 
Q 1169 -91 856 284 
Q 544 659 544 1381 
z
M 1991 3584 
L 1991 3584 
z
" id="DejaVuSans-75" transform="scale(0.015625)"/>
       <path d="M 2375 4863 
L 2375 4384 
L 1825 4384 
Q 1516 4384 1395 4259 
Q 1275 4134 1275 3809 
L 1275 3500 
L 2222 3500 
L 2222 3053 
L 1275 3053 
L 1275 0 
L 697 0 
L 697 3053 
L 147 3053 
L 147 3500 
L 697 3500 
L 697 3744 
Q 697 4328 969 4595 
Q 1241 4863 1831 4863 
L 2375 4863 
z
" id="DejaVuSans-66" transform="scale(0.015625)"/>
       <path d="M 3597 1894 
L 3597 1613 
L 953 1613 
Q 991 1019 1311 708 
Q 1631 397 2203 397 
Q 2534 397 2845 478 
Q 3156 559 3463 722 
L 3463 178 
Q 3153 47 2828 -22 
Q 2503 -91 2169 -91 
Q 1331 -91 842 396 
Q 353 884 353 1716 
Q 353 2575 817 3079 
Q 1281 3584 2069 3584 
Q 2775 3584 3186 3129 
Q 3597 2675 3597 1894 
z
M 3022 2063 
Q 3016 2534 2758 2815 
Q 2500 3097 2075 3097 
Q 1594 3097 1305 2825 
Q 1016 2553 972 2059 
L 3022 2063 
z
" id="DejaVuSans-65" transform="scale(0.015625)"/>
       <path d="M 2631 2963 
Q 2534 3019 2420 3045 
Q 2306 3072 2169 3072 
Q 1681 3072 1420 2755 
Q 1159 2438 1159 1844 
L 1159 0 
L 581 0 
L 581 3500 
L 1159 3500 
L 1159 2956 
Q 1341 3275 1631 3429 
Q 1922 3584 2338 3584 
Q 2397 3584 2469 3576 
Q 2541 3569 2628 3553 
L 2631 2963 
z
" id="DejaVuSans-72" transform="scale(0.015625)"/>
       <path d="M 2834 3397 
L 2834 2853 
Q 2591 2978 2328 3040 
Q 2066 3103 1784 3103 
Q 1356 3103 1142 2972 
Q 928 2841 928 2578 
Q 928 2378 1081 2264 
Q 1234 2150 1697 2047 
L 1894 2003 
Q 2506 1872 2764 1633 
Q 3022 1394 3022 966 
Q 3022 478 2636 193 
Q 2250 -91 1575 -91 
Q 1294 -91 989 -36 
Q 684 19 347 128 
L 347 722 
Q 666 556 975 473 
Q 1284 391 1588 391 
Q 1994 391 2212 530 
Q 2431 669 2431 922 
Q 2431 1156 2273 1281 
Q 2116 1406 1581 1522 
L 1381 1569 
Q 847 1681 609 1914 
Q 372 2147 372 2553 
Q 372 3047 722 3315 
Q 1072 3584 1716 3584 
Q 2034 3584 2315 3537 
Q 2597 3491 2834 3397 
z
" id="DejaVuSans-73" transform="scale(0.015625)"/>
       <path d="M 603 3500 
L 1178 3500 
L 1178 0 
L 603 0 
L 603 3500 
z
M 603 4863 
L 1178 4863 
L 1178 4134 
L 603 4134 
L 603 4863 
z
" id="DejaVuSans-69" transform="scale(0.015625)"/>
       <path d="M 353 3500 
L 3084 3500 
L 3084 2975 
L 922 459 
L 3084 459 
L 3084 0 
L 275 0 
L 275 525 
L 2438 3041 
L 353 3041 
L 353 3500 
z
" id="DejaVuSans-7a" transform="scale(0.015625)"/>
       <path id="DejaVuSans-20" transform="scale(0.015625)"/>
       <path d="M 678 2906 
L 4684 2906 
L 4684 2381 
L 678 2381 
L 678 2906 
z
M 678 1631 
L 4684 1631 
L 4684 1100 
L 678 1100 
L 678 1631 
z
" id="DejaVuSans-3d" transform="scale(0.015625)"/>
       <path d="M 2988 4666 
L 4684 2925 
L 4056 2925 
L 2681 4159 
L 1306 2925 
L 678 2925 
L 2375 4666 
L 2988 4666 
z
" id="DejaVuSans-5e" transform="scale(0.015625)"/>
       <path d="M 1228 531 
L 3431 531 
L 3431 0 
L 469 0 
L 469 531 
Q 828 903 1448 1529 
Q 2069 2156 2228 2338 
Q 2531 2678 2651 2914 
Q 2772 3150 2772 3378 
Q 2772 3750 2511 3984 
Q 2250 4219 1831 4219 
Q 1534 4219 1204 4116 
Q 875 4013 500 3803 
L 500 4441 
Q 881 4594 1212 4672 
Q 1544 4750 1819 4750 
Q 2544 4750 2975 4387 
Q 3406 4025 3406 3419 
Q 3406 3131 3298 2873 
Q 3191 2616 2906 2266 
Q 2828 2175 2409 1742 
Q 1991 1309 1228 531 
z
" id="DejaVuSans-32" transform="scale(0.015625)"/>
      </defs>
      <use xlink:href="#DejaVuSans-62"/>
      <use x="63.476562" xlink:href="#DejaVuSans-75"/>
      <use x="126.855469" xlink:href="#DejaVuSans-66"/>
      <use x="162.060547" xlink:href="#DejaVuSans-66"/>
      <use x="197.265625" xlink:href="#DejaVuSans-65"/>
      <use x="258.789062" xlink:href="#DejaVuSans-72"/>
      <use x="299.902344" xlink:href="#DejaVuSans-73"/>
      <use x="352.001953" xlink:href="#DejaVuSans-69"/>
      <use x="379.785156" xlink:href="#DejaVuSans-7a"/>
      <use x="432.275391" xlink:href="#DejaVuSans-65"/>
      <use x="493.798828" xlink:href="#DejaVuSans-20"/>
      <use x="525.585938" xlink:href="#DejaVuSans-3d"/>
      <use x="609.375" xlink:href="#DejaVuSans-20"/>
      <use x="641.162109" xlink:href="#DejaVuSans-31"/>
      <use x="704.785156" xlink:href="#DejaVuSans-30"/>
      <use x="768.408203" xlink:href="#DejaVuSans-5e"/>
      <use x="852.197266" xlink:href="#DejaVuSans-32"/>
     </g>
    </g>
    <g id="line2d_21">
     <path d="M 66.6 69.248563 
L 86.6 69.248563 
" style="fill:none;stroke:#ff7f0e;stroke-linecap:square;stroke-width:1.5;"/>
    </g>
    <g id="line2d_22"/>
    <g id="text_16">
     <!-- buffersize = 10^3 -->
     <g transform="translate(94.6 72.748563)scale(0.1 -0.1)">
      <use xlink:href="#DejaVuSans-62"/>
      <use x="63.476562" xlink:href="#DejaVuSans-75"/>
      <use x="126.855469" xlink:href="#DejaVuSans-66"/>
      <use x="162.060547" xlink:href="#DejaVuSans-66"/>
      <use x="197.265625" xlink:href="#DejaVuSans-65"/>
      <use x="258.789062" xlink:href="#DejaVuSans-72"/>
      <use x="299.902344" xlink:href="#DejaVuSans-73"/>
      <use x="352.001953" xlink:href="#DejaVuSans-69"/>
      <use x="379.785156" xlink:href="#DejaVuSans-7a"/>
      <use x="432.275391" xlink:href="#DejaVuSans-65"/>
      <use x="493.798828" xlink:href="#DejaVuSans-20"/>
      <use x="525.585938" xlink:href="#DejaVuSans-3d"/>
      <use x="609.375" xlink:href="#DejaVuSans-20"/>
      <use x="641.162109" xlink:href="#DejaVuSans-31"/>
      <use x="704.785156" xlink:href="#DejaVuSans-30"/>
      <use x="768.408203" xlink:href="#DejaVuSans-5e"/>
      <use x="852.197266" xlink:href="#DejaVuSans-33"/>
     </g>
    </g>
    <g id="line2d_23">
     <path d="M 66.6 83.926688 
L 86.6 83.926688 
" style="fill:none;stroke:#2ca02c;stroke-linecap:square;stroke-width:1.5;"/>
    </g>
    <g id="line2d_24"/>
    <g id="text_17">
     <!-- buffersize = 10^4 -->
     <g transform="translate(94.6 87.426688)scale(0.1 -0.1)">
      <use xlink:href="#DejaVuSans-62"/>
      <use x="63.476562" xlink:href="#DejaVuSans-75"/>
      <use x="126.855469" xlink:href="#DejaVuSans-66"/>
      <use x="162.060547" xlink:href="#DejaVuSans-66"/>
      <use x="197.265625" xlink:href="#DejaVuSans-65"/>
      <use x="258.789062" xlink:href="#DejaVuSans-72"/>
      <use x="299.902344" xlink:href="#DejaVuSans-73"/>
      <use x="352.001953" xlink:href="#DejaVuSans-69"/>
      <use x="379.785156" xlink:href="#DejaVuSans-7a"/>
      <use x="432.275391" xlink:href="#DejaVuSans-65"/>
      <use x="493.798828" xlink:href="#DejaVuSans-20"/>
      <use x="525.585938" xlink:href="#DejaVuSans-3d"/>
      <use x="609.375" xlink:href="#DejaVuSans-20"/>
      <use x="641.162109" xlink:href="#DejaVuSans-31"/>
      <use x="704.785156" xlink:href="#DejaVuSans-30"/>
      <use x="768.408203" xlink:href="#DejaVuSans-5e"/>
      <use x="852.197266" xlink:href="#DejaVuSans-34"/>
     </g>
    </g>
    <g id="line2d_25">
     <path d="M 66.6 98.604813 
L 86.6 98.604813 
" style="fill:none;stroke:#d62728;stroke-linecap:square;stroke-width:1.5;"/>
    </g>
    <g id="line2d_26"/>
    <g id="text_18">
     <!-- buffersize = 10^5 -->
     <g transform="translate(94.6 102.104813)scale(0.1 -0.1)">
      <use xlink:href="#DejaVuSans-62"/>
      <use x="63.476562" xlink:href="#DejaVuSans-75"/>
      <use x="126.855469" xlink:href="#DejaVuSans-66"/>
      <use x="162.060547" xlink:href="#DejaVuSans-66"/>
      <use x="197.265625" xlink:href="#DejaVuSans-65"/>
      <use x="258.789062" xlink:href="#DejaVuSans-72"/>
      <use x="299.902344" xlink:href="#DejaVuSans-73"/>
      <use x="352.001953" xlink:href="#DejaVuSans-69"/>
      <use x="379.785156" xlink:href="#DejaVuSans-7a"/>
      <use x="432.275391" xlink:href="#DejaVuSans-65"/>
      <use x="493.798828" xlink:href="#DejaVuSans-20"/>
      <use x="525.585938" xlink:href="#DejaVuSans-3d"/>
      <use x="609.375" xlink:href="#DejaVuSans-20"/>
      <use x="641.162109" xlink:href="#DejaVuSans-31"/>
      <use x="704.785156" xlink:href="#DejaVuSans-30"/>
      <use x="768.408203" xlink:href="#DejaVuSans-5e"/>
      <use x="852.197266" xlink:href="#DejaVuSans-35"/>
     </g>
    </g>
   </g>
  </g>
 </g>
 <defs>
  <clipPath id="pafaf32837d">
   <rect height="266.112" width="357.12" x="57.6" y="41.472"/>
  </clipPath>
 </defs>
</svg>
