<?xml version="1.0" encoding="utf-8" standalone="no"?>
<!DOCTYPE svg PUBLIC "-//W3C//DTD SVG 1.1//EN"
  "http://www.w3.org/Graphics/SVG/1.1/DTD/svg11.dtd">
<svg height="345.6pt" version="1.1" viewBox="0 0 460.8 345.6" width="460.8pt" xmlns="http://www.w3.org/2000/svg" xmlns:xlink="http://www.w3.org/1999/xlink">
 <metadata>
  <rdf:RDF xmlns:cc="http://creativecommons.org/ns#" xmlns:dc="http://purl.org/dc/elements/1.1/" xmlns:rdf="http://www.w3.org/1999/02/22-rdf-syntax-ns#">
   <cc:Work>
    <dc:type rdf:resource="http://purl.org/dc/dcmitype/StillImage"/>
    <dc:date>2022-01-03T17:49:56.844579</dc:date>
    <dc:format>image/svg+xml</dc:format>
    <dc:creator>
     <cc:Agent>
      <dc:title>Matplotlib v3.4.3, https://matplotlib.org/</dc:title>
     </cc:Agent>
    </dc:creator>
   </cc:Work>
  </rdf:RDF>
 </metadata>
 <defs>
  <style type="text/css">*{stroke-linecap:butt;stroke-linejoin:round;}</style>
 </defs>
 <g id="figure_1">
  <g id="patch_1">
   <path d="M 0 345.6 
L 460.8 345.6 
L 460.8 0 
L 0 0 
z
" style="fill:#ffffff;"/>
  </g>
  <g id="axes_1">
   <g id="patch_2">
    <path d="M 57.6 307.584 
L 414.72 307.584 
L 414.72 41.472 
L 57.6 41.472 
z
" style="fill:#ffffff;"/>
   </g>
   <g id="PolyCollection_1">
    <path clip-path="url(#p6235521b9c)" d="M 73.832727 279.038124 
L 73.832727 279.038124 
L 82.157203 279.038124 
L 90.481678 281.341213 
L 98.806154 283.687755 
L 107.130629 276.211062 
L 115.455105 277.059181 
L 123.77958 277.652863 
L 132.104056 278.068442 
L 140.428531 278.359346 
L 148.753007 278.562979 
L 157.077483 278.705523 
L 165.401958 278.805303 
L 173.726434 266.482019 
L 182.050909 270.24885 
L 190.375385 276.066856 
L 198.69986 276.958237 
L 207.024336 277.582203 
L 215.348811 269.478027 
L 223.673287 239.776422 
L 231.997762 258.05657 
L 240.322238 274.390413 
L 248.646713 261.708135 
L 256.971189 271.975932 
L 265.295664 263.551925 
L 273.62014 254.966744 
L 281.944615 253.490995 
L 290.269091 261.155133 
L 298.593566 253.837618 
L 306.918042 254.195236 
L 315.242517 268.668781 
L 323.566993 263.988975 
L 331.891469 256.014662 
L 340.215944 262.9217 
L 348.54042 260.174411 
L 356.864895 260.104833 
L 365.189371 265.78482 
L 373.513846 264.782332 
L 381.838322 255.037628 
L 390.162797 233.735674 
L 398.487273 251.649851 
L 398.487273 251.649851 
L 398.487273 133.997913 
L 390.162797 125.822753 
L 381.838322 167.452488 
L 373.513846 209.882727 
L 365.189371 218.989386 
L 356.864895 193.254212 
L 348.54042 200.220377 
L 340.215944 202.536133 
L 331.891469 169.749566 
L 323.566993 187.053077 
L 315.242517 184.265678 
L 306.918042 201.379702 
L 298.593566 177.807427 
L 290.269091 220.918709 
L 281.944615 196.010388 
L 273.62014 198.826795 
L 265.295664 164.70256 
L 256.971189 185.150072 
L 248.646713 192.196485 
L 240.322238 185.634015 
L 231.997762 199.830815 
L 223.673287 224.441844 
L 215.348811 203.980109 
L 207.024336 251.440346 
L 198.69986 239.612727 
L 190.375385 222.716128 
L 182.050909 230.208885 
L 173.726434 209.282069 
L 165.401958 276.725822 
L 157.077483 275.734836 
L 148.753007 274.319141 
L 140.428531 272.29672 
L 132.104056 269.407547 
L 123.77958 265.280157 
L 115.455105 259.383885 
L 107.130629 250.96064 
L 98.806154 248.814786 
L 90.481678 270.442878 
L 82.157203 279.038124 
L 73.832727 279.038124 
z
" style="fill:#1f77b4;fill-opacity:0.3;"/>
   </g>
   <g id="PolyCollection_2">
    <path clip-path="url(#p6235521b9c)" d="M 73.832727 279.038124 
L 73.832727 279.038124 
L 82.157203 279.038124 
L 90.481678 287.337378 
L 98.806154 275.103049 
L 107.130629 286.10564 
L 115.455105 274.395111 
L 123.77958 273.251644 
L 132.104056 277.786245 
L 140.428531 278.161808 
L 148.753007 261.023584 
L 157.077483 232.844636 
L 165.401958 195.026366 
L 173.726434 164.961145 
L 182.050909 196.205251 
L 190.375385 211.004323 
L 198.69986 193.713053 
L 207.024336 209.486262 
L 215.348811 169.866003 
L 223.673287 137.448718 
L 231.997762 169.609865 
L 240.322238 152.346664 
L 248.646713 124.942485 
L 256.971189 145.922362 
L 265.295664 184.516382 
L 273.62014 217.818812 
L 281.944615 236.547782 
L 290.269091 234.64521 
L 298.593566 209.119771 
L 306.918042 203.610285 
L 315.242517 222.782688 
L 323.566993 215.215595 
L 331.891469 207.506045 
L 340.215944 200.646418 
L 348.54042 216.946492 
L 356.864895 204.768921 
L 365.189371 222.793657 
L 373.513846 192.013986 
L 381.838322 151.675253 
L 390.162797 156.7731 
L 398.487273 186.46347 
L 398.487273 186.46347 
L 398.487273 82.261772 
L 390.162797 83.794381 
L 381.838322 106.273717 
L 373.513846 125.445366 
L 365.189371 137.347005 
L 356.864895 155.571273 
L 348.54042 107.237823 
L 340.215944 116.319261 
L 331.891469 139.843532 
L 323.566993 130.395531 
L 315.242517 128.967388 
L 306.918042 108.832067 
L 298.593566 120.563436 
L 290.269091 120.134249 
L 281.944615 95.60638 
L 273.62014 105.165249 
L 265.295664 87.858572 
L 256.971189 98.228786 
L 248.646713 78.648969 
L 240.322238 91.019268 
L 231.997762 87.252806 
L 223.673287 91.06278 
L 215.348811 97.020044 
L 207.024336 102.492008 
L 198.69986 108.204279 
L 190.375385 126.813725 
L 182.050909 125.427081 
L 173.726434 141.427308 
L 165.401958 172.347845 
L 157.077483 160.648053 
L 148.753007 202.157215 
L 140.428531 228.728636 
L 132.104056 207.167428 
L 123.77958 228.298553 
L 115.455105 211.024836 
L 107.130629 193.623787 
L 98.806154 219.277827 
L 90.481678 231.673077 
L 82.157203 279.038124 
L 73.832727 279.038124 
z
" style="fill:#ff7f0e;fill-opacity:0.3;"/>
   </g>
   <g id="PolyCollection_3">
    <path clip-path="url(#p6235521b9c)" d="M 73.832727 279.038124 
L 73.832727 279.038124 
L 82.157203 279.038124 
L 90.481678 279.038124 
L 98.806154 279.038124 
L 107.130629 279.038124 
L 115.455105 284.321401 
L 123.77958 295.488 
L 132.104056 282.461795 
L 140.428531 260.639604 
L 148.753007 263.845315 
L 157.077483 233.310651 
L 165.401958 247.028892 
L 173.726434 222.760409 
L 182.050909 232.373219 
L 190.375385 218.969378 
L 198.69986 217.669684 
L 207.024336 192.985522 
L 215.348811 218.228265 
L 223.673287 171.420239 
L 231.997762 176.822989 
L 240.322238 184.665246 
L 248.646713 178.494789 
L 256.971189 181.275437 
L 265.295664 184.120121 
L 273.62014 166.836968 
L 281.944615 145.934261 
L 290.269091 173.158195 
L 298.593566 174.268855 
L 306.918042 193.368178 
L 315.242517 205.780855 
L 323.566993 189.941992 
L 331.891469 215.48908 
L 340.215944 234.872003 
L 348.54042 248.869137 
L 356.864895 239.602144 
L 365.189371 251.432938 
L 373.513846 193.090415 
L 381.838322 184.34773 
L 390.162797 174.514525 
L 398.487273 203.735242 
L 398.487273 203.735242 
L 398.487273 124.921437 
L 390.162797 128.50513 
L 381.838322 103.458691 
L 373.513846 131.90198 
L 365.189371 167.794241 
L 356.864895 120.118292 
L 348.54042 121.217648 
L 340.215944 103.843587 
L 331.891469 75.989626 
L 323.566993 79.633403 
L 315.242517 90.387532 
L 306.918042 101.277028 
L 298.593566 103.847618 
L 290.269091 107.348697 
L 281.944615 109.857165 
L 273.62014 105.306878 
L 265.295664 63.515062 
L 256.971189 84.235626 
L 248.646713 90.007443 
L 240.322238 53.568 
L 231.997762 72.122382 
L 223.673287 92.617537 
L 215.348811 113.556741 
L 207.024336 137.643242 
L 198.69986 154.755098 
L 190.375385 184.17761 
L 182.050909 171.290746 
L 173.726434 193.028086 
L 165.401958 195.081846 
L 157.077483 159.100585 
L 148.753007 189.250976 
L 140.428531 196.919054 
L 132.104056 177.785758 
L 123.77958 217.646349 
L 115.455105 259.320663 
L 107.130629 279.038124 
L 98.806154 279.038124 
L 90.481678 279.038124 
L 82.157203 279.038124 
L 73.832727 279.038124 
z
" style="fill:#2ca02c;fill-opacity:0.3;"/>
   </g>
   <g id="PolyCollection_4">
    <path clip-path="url(#p6235521b9c)" d="M 73.832727 279.038124 
L 73.832727 279.038124 
L 82.157203 279.038124 
L 90.481678 279.038124 
L 98.806154 279.038124 
L 107.130629 279.038124 
L 115.455105 282.521635 
L 123.77958 281.476582 
L 132.104056 275.92934 
L 140.428531 263.549417 
L 148.753007 276.400272 
L 157.077483 246.652271 
L 165.401958 232.112572 
L 173.726434 236.874399 
L 182.050909 248.039433 
L 190.375385 257.33904 
L 198.69986 244.991347 
L 207.024336 185.896517 
L 215.348811 174.0672 
L 223.673287 183.777518 
L 231.997762 169.366973 
L 240.322238 207.543917 
L 248.646713 206.75105 
L 256.971189 189.87308 
L 265.295664 187.016428 
L 273.62014 152.564987 
L 281.944615 164.837666 
L 290.269091 137.606911 
L 298.593566 164.330526 
L 306.918042 155.252952 
L 315.242517 180.508679 
L 323.566993 154.835038 
L 331.891469 180.82095 
L 340.215944 164.141909 
L 348.54042 169.384171 
L 356.864895 156.40124 
L 365.189371 166.392235 
L 373.513846 133.934816 
L 381.838322 146.202292 
L 390.162797 159.591145 
L 398.487273 185.302748 
L 398.487273 185.302748 
L 398.487273 126.757712 
L 390.162797 144.389459 
L 381.838322 94.809101 
L 373.513846 65.882393 
L 365.189371 74.633958 
L 356.864895 97.878329 
L 348.54042 97.041185 
L 340.215944 87.559441 
L 331.891469 86.807819 
L 323.566993 83.164872 
L 315.242517 91.217238 
L 306.918042 102.085341 
L 298.593566 90.537982 
L 290.269091 96.715755 
L 281.944615 87.559289 
L 273.62014 119.070024 
L 265.295664 142.085878 
L 256.971189 130.583591 
L 248.646713 126.726961 
L 240.322238 127.902075 
L 231.997762 113.286678 
L 223.673287 150.147618 
L 215.348811 114.949255 
L 207.024336 124.423481 
L 198.69986 157.602301 
L 190.375385 166.705562 
L 182.050909 118.563036 
L 173.726434 147.833244 
L 165.401958 171.663065 
L 157.077483 187.548896 
L 148.753007 188.647732 
L 140.428531 206.98008 
L 132.104056 252.588978 
L 123.77958 243.164921 
L 115.455105 227.790691 
L 107.130629 279.038124 
L 98.806154 279.038124 
L 90.481678 279.038124 
L 82.157203 279.038124 
L 73.832727 279.038124 
z
" style="fill:#d62728;fill-opacity:0.3;"/>
   </g>
   <g id="matplotlib.axis_1">
    <g id="xtick_1">
     <g id="line2d_1">
      <defs>
       <path d="M 0 0 
L 0 3.5 
" id="m8eb01e55d9" style="stroke:#000000;stroke-width:0.8;"/>
      </defs>
      <g>
       <use style="stroke:#000000;stroke-width:0.8;" x="65.508252" xlink:href="#m8eb01e55d9" y="307.584"/>
      </g>
     </g>
     <g id="text_1">
      <!-- 0 -->
      <g transform="translate(62.327002 322.182437)scale(0.1 -0.1)">
       <defs>
        <path d="M 2034 4250 
Q 1547 4250 1301 3770 
Q 1056 3291 1056 2328 
Q 1056 1369 1301 889 
Q 1547 409 2034 409 
Q 2525 409 2770 889 
Q 3016 1369 3016 2328 
Q 3016 3291 2770 3770 
Q 2525 4250 2034 4250 
z
M 2034 4750 
Q 2819 4750 3233 4129 
Q 3647 3509 3647 2328 
Q 3647 1150 3233 529 
Q 2819 -91 2034 -91 
Q 1250 -91 836 529 
Q 422 1150 422 2328 
Q 422 3509 836 4129 
Q 1250 4750 2034 4750 
z
" id="DejaVuSans-30" transform="scale(0.015625)"/>
       </defs>
       <use xlink:href="#DejaVuSans-30"/>
      </g>
     </g>
    </g>
    <g id="xtick_2">
     <g id="line2d_2">
      <g>
       <use style="stroke:#000000;stroke-width:0.8;" x="107.130629" xlink:href="#m8eb01e55d9" y="307.584"/>
      </g>
     </g>
     <g id="text_2">
      <!-- 25 -->
      <g transform="translate(100.768129 322.182437)scale(0.1 -0.1)">
       <defs>
        <path d="M 1228 531 
L 3431 531 
L 3431 0 
L 469 0 
L 469 531 
Q 828 903 1448 1529 
Q 2069 2156 2228 2338 
Q 2531 2678 2651 2914 
Q 2772 3150 2772 3378 
Q 2772 3750 2511 3984 
Q 2250 4219 1831 4219 
Q 1534 4219 1204 4116 
Q 875 4013 500 3803 
L 500 4441 
Q 881 4594 1212 4672 
Q 1544 4750 1819 4750 
Q 2544 4750 2975 4387 
Q 3406 4025 3406 3419 
Q 3406 3131 3298 2873 
Q 3191 2616 2906 2266 
Q 2828 2175 2409 1742 
Q 1991 1309 1228 531 
z
" id="DejaVuSans-32" transform="scale(0.015625)"/>
        <path d="M 691 4666 
L 3169 4666 
L 3169 4134 
L 1269 4134 
L 1269 2991 
Q 1406 3038 1543 3061 
Q 1681 3084 1819 3084 
Q 2600 3084 3056 2656 
Q 3513 2228 3513 1497 
Q 3513 744 3044 326 
Q 2575 -91 1722 -91 
Q 1428 -91 1123 -41 
Q 819 9 494 109 
L 494 744 
Q 775 591 1075 516 
Q 1375 441 1709 441 
Q 2250 441 2565 725 
Q 2881 1009 2881 1497 
Q 2881 1984 2565 2268 
Q 2250 2553 1709 2553 
Q 1456 2553 1204 2497 
Q 953 2441 691 2322 
L 691 4666 
z
" id="DejaVuSans-35" transform="scale(0.015625)"/>
       </defs>
       <use xlink:href="#DejaVuSans-32"/>
       <use x="63.623047" xlink:href="#DejaVuSans-35"/>
      </g>
     </g>
    </g>
    <g id="xtick_3">
     <g id="line2d_3">
      <g>
       <use style="stroke:#000000;stroke-width:0.8;" x="148.753007" xlink:href="#m8eb01e55d9" y="307.584"/>
      </g>
     </g>
     <g id="text_3">
      <!-- 50 -->
      <g transform="translate(142.390507 322.182437)scale(0.1 -0.1)">
       <use xlink:href="#DejaVuSans-35"/>
       <use x="63.623047" xlink:href="#DejaVuSans-30"/>
      </g>
     </g>
    </g>
    <g id="xtick_4">
     <g id="line2d_4">
      <g>
       <use style="stroke:#000000;stroke-width:0.8;" x="190.375385" xlink:href="#m8eb01e55d9" y="307.584"/>
      </g>
     </g>
     <g id="text_4">
      <!-- 75 -->
      <g transform="translate(184.012885 322.182437)scale(0.1 -0.1)">
       <defs>
        <path d="M 525 4666 
L 3525 4666 
L 3525 4397 
L 1831 0 
L 1172 0 
L 2766 4134 
L 525 4134 
L 525 4666 
z
" id="DejaVuSans-37" transform="scale(0.015625)"/>
       </defs>
       <use xlink:href="#DejaVuSans-37"/>
       <use x="63.623047" xlink:href="#DejaVuSans-35"/>
      </g>
     </g>
    </g>
    <g id="xtick_5">
     <g id="line2d_5">
      <g>
       <use style="stroke:#000000;stroke-width:0.8;" x="231.997762" xlink:href="#m8eb01e55d9" y="307.584"/>
      </g>
     </g>
     <g id="text_5">
      <!-- 100 -->
      <g transform="translate(222.454012 322.182437)scale(0.1 -0.1)">
       <defs>
        <path d="M 794 531 
L 1825 531 
L 1825 4091 
L 703 3866 
L 703 4441 
L 1819 4666 
L 2450 4666 
L 2450 531 
L 3481 531 
L 3481 0 
L 794 0 
L 794 531 
z
" id="DejaVuSans-31" transform="scale(0.015625)"/>
       </defs>
       <use xlink:href="#DejaVuSans-31"/>
       <use x="63.623047" xlink:href="#DejaVuSans-30"/>
       <use x="127.246094" xlink:href="#DejaVuSans-30"/>
      </g>
     </g>
    </g>
    <g id="xtick_6">
     <g id="line2d_6">
      <g>
       <use style="stroke:#000000;stroke-width:0.8;" x="273.62014" xlink:href="#m8eb01e55d9" y="307.584"/>
      </g>
     </g>
     <g id="text_6">
      <!-- 125 -->
      <g transform="translate(264.07639 322.182437)scale(0.1 -0.1)">
       <use xlink:href="#DejaVuSans-31"/>
       <use x="63.623047" xlink:href="#DejaVuSans-32"/>
       <use x="127.246094" xlink:href="#DejaVuSans-35"/>
      </g>
     </g>
    </g>
    <g id="xtick_7">
     <g id="line2d_7">
      <g>
       <use style="stroke:#000000;stroke-width:0.8;" x="315.242517" xlink:href="#m8eb01e55d9" y="307.584"/>
      </g>
     </g>
     <g id="text_7">
      <!-- 150 -->
      <g transform="translate(305.698767 322.182437)scale(0.1 -0.1)">
       <use xlink:href="#DejaVuSans-31"/>
       <use x="63.623047" xlink:href="#DejaVuSans-35"/>
       <use x="127.246094" xlink:href="#DejaVuSans-30"/>
      </g>
     </g>
    </g>
    <g id="xtick_8">
     <g id="line2d_8">
      <g>
       <use style="stroke:#000000;stroke-width:0.8;" x="356.864895" xlink:href="#m8eb01e55d9" y="307.584"/>
      </g>
     </g>
     <g id="text_8">
      <!-- 175 -->
      <g transform="translate(347.321145 322.182437)scale(0.1 -0.1)">
       <use xlink:href="#DejaVuSans-31"/>
       <use x="63.623047" xlink:href="#DejaVuSans-37"/>
       <use x="127.246094" xlink:href="#DejaVuSans-35"/>
      </g>
     </g>
    </g>
    <g id="xtick_9">
     <g id="line2d_9">
      <g>
       <use style="stroke:#000000;stroke-width:0.8;" x="398.487273" xlink:href="#m8eb01e55d9" y="307.584"/>
      </g>
     </g>
     <g id="text_9">
      <!-- 200 -->
      <g transform="translate(388.943523 322.182437)scale(0.1 -0.1)">
       <use xlink:href="#DejaVuSans-32"/>
       <use x="63.623047" xlink:href="#DejaVuSans-30"/>
       <use x="127.246094" xlink:href="#DejaVuSans-30"/>
      </g>
     </g>
    </g>
   </g>
   <g id="matplotlib.axis_2">
    <g id="ytick_1">
     <g id="line2d_10">
      <defs>
       <path d="M 0 0 
L -3.5 0 
" id="mbb17dad255" style="stroke:#000000;stroke-width:0.8;"/>
      </defs>
      <g>
       <use style="stroke:#000000;stroke-width:0.8;" x="57.6" xlink:href="#mbb17dad255" y="283.793009"/>
      </g>
     </g>
     <g id="text_10">
      <!-- −400 -->
      <g transform="translate(23.132812 287.592228)scale(0.1 -0.1)">
       <defs>
        <path d="M 678 2272 
L 4684 2272 
L 4684 1741 
L 678 1741 
L 678 2272 
z
" id="DejaVuSans-2212" transform="scale(0.015625)"/>
        <path d="M 2419 4116 
L 825 1625 
L 2419 1625 
L 2419 4116 
z
M 2253 4666 
L 3047 4666 
L 3047 1625 
L 3713 1625 
L 3713 1100 
L 3047 1100 
L 3047 0 
L 2419 0 
L 2419 1100 
L 313 1100 
L 313 1709 
L 2253 4666 
z
" id="DejaVuSans-34" transform="scale(0.015625)"/>
       </defs>
       <use xlink:href="#DejaVuSans-2212"/>
       <use x="83.789062" xlink:href="#DejaVuSans-34"/>
       <use x="147.412109" xlink:href="#DejaVuSans-30"/>
       <use x="211.035156" xlink:href="#DejaVuSans-30"/>
      </g>
     </g>
    </g>
    <g id="ytick_2">
     <g id="line2d_11">
      <g>
       <use style="stroke:#000000;stroke-width:0.8;" x="57.6" xlink:href="#mbb17dad255" y="246.522852"/>
      </g>
     </g>
     <g id="text_11">
      <!-- −350 -->
      <g transform="translate(23.132812 250.322071)scale(0.1 -0.1)">
       <defs>
        <path d="M 2597 2516 
Q 3050 2419 3304 2112 
Q 3559 1806 3559 1356 
Q 3559 666 3084 287 
Q 2609 -91 1734 -91 
Q 1441 -91 1130 -33 
Q 819 25 488 141 
L 488 750 
Q 750 597 1062 519 
Q 1375 441 1716 441 
Q 2309 441 2620 675 
Q 2931 909 2931 1356 
Q 2931 1769 2642 2001 
Q 2353 2234 1838 2234 
L 1294 2234 
L 1294 2753 
L 1863 2753 
Q 2328 2753 2575 2939 
Q 2822 3125 2822 3475 
Q 2822 3834 2567 4026 
Q 2313 4219 1838 4219 
Q 1578 4219 1281 4162 
Q 984 4106 628 3988 
L 628 4550 
Q 988 4650 1302 4700 
Q 1616 4750 1894 4750 
Q 2613 4750 3031 4423 
Q 3450 4097 3450 3541 
Q 3450 3153 3228 2886 
Q 3006 2619 2597 2516 
z
" id="DejaVuSans-33" transform="scale(0.015625)"/>
       </defs>
       <use xlink:href="#DejaVuSans-2212"/>
       <use x="83.789062" xlink:href="#DejaVuSans-33"/>
       <use x="147.412109" xlink:href="#DejaVuSans-35"/>
       <use x="211.035156" xlink:href="#DejaVuSans-30"/>
      </g>
     </g>
    </g>
    <g id="ytick_3">
     <g id="line2d_12">
      <g>
       <use style="stroke:#000000;stroke-width:0.8;" x="57.6" xlink:href="#mbb17dad255" y="209.252696"/>
      </g>
     </g>
     <g id="text_12">
      <!-- −300 -->
      <g transform="translate(23.132812 213.051915)scale(0.1 -0.1)">
       <use xlink:href="#DejaVuSans-2212"/>
       <use x="83.789062" xlink:href="#DejaVuSans-33"/>
       <use x="147.412109" xlink:href="#DejaVuSans-30"/>
       <use x="211.035156" xlink:href="#DejaVuSans-30"/>
      </g>
     </g>
    </g>
    <g id="ytick_4">
     <g id="line2d_13">
      <g>
       <use style="stroke:#000000;stroke-width:0.8;" x="57.6" xlink:href="#mbb17dad255" y="171.982539"/>
      </g>
     </g>
     <g id="text_13">
      <!-- −250 -->
      <g transform="translate(23.132812 175.781758)scale(0.1 -0.1)">
       <use xlink:href="#DejaVuSans-2212"/>
       <use x="83.789062" xlink:href="#DejaVuSans-32"/>
       <use x="147.412109" xlink:href="#DejaVuSans-35"/>
       <use x="211.035156" xlink:href="#DejaVuSans-30"/>
      </g>
     </g>
    </g>
    <g id="ytick_5">
     <g id="line2d_14">
      <g>
       <use style="stroke:#000000;stroke-width:0.8;" x="57.6" xlink:href="#mbb17dad255" y="134.712383"/>
      </g>
     </g>
     <g id="text_14">
      <!-- −200 -->
      <g transform="translate(23.132812 138.511601)scale(0.1 -0.1)">
       <use xlink:href="#DejaVuSans-2212"/>
       <use x="83.789062" xlink:href="#DejaVuSans-32"/>
       <use x="147.412109" xlink:href="#DejaVuSans-30"/>
       <use x="211.035156" xlink:href="#DejaVuSans-30"/>
      </g>
     </g>
    </g>
    <g id="ytick_6">
     <g id="line2d_15">
      <g>
       <use style="stroke:#000000;stroke-width:0.8;" x="57.6" xlink:href="#mbb17dad255" y="97.442226"/>
      </g>
     </g>
     <g id="text_15">
      <!-- −150 -->
      <g transform="translate(23.132812 101.241445)scale(0.1 -0.1)">
       <use xlink:href="#DejaVuSans-2212"/>
       <use x="83.789062" xlink:href="#DejaVuSans-31"/>
       <use x="147.412109" xlink:href="#DejaVuSans-35"/>
       <use x="211.035156" xlink:href="#DejaVuSans-30"/>
      </g>
     </g>
    </g>
    <g id="ytick_7">
     <g id="line2d_16">
      <g>
       <use style="stroke:#000000;stroke-width:0.8;" x="57.6" xlink:href="#mbb17dad255" y="60.172069"/>
      </g>
     </g>
     <g id="text_16">
      <!-- −100 -->
      <g transform="translate(23.132812 63.971288)scale(0.1 -0.1)">
       <use xlink:href="#DejaVuSans-2212"/>
       <use x="83.789062" xlink:href="#DejaVuSans-31"/>
       <use x="147.412109" xlink:href="#DejaVuSans-30"/>
       <use x="211.035156" xlink:href="#DejaVuSans-30"/>
      </g>
     </g>
    </g>
   </g>
   <g id="line2d_17">
    <path clip-path="url(#p6235521b9c)" d="M 73.832727 279.038124 
L 82.157203 279.038124 
L 90.481678 275.892045 
L 98.806154 266.25127 
L 107.130629 263.585851 
L 115.455105 268.221533 
L 123.77958 271.46651 
L 132.104056 273.737994 
L 140.428531 275.328033 
L 148.753007 276.44106 
L 157.077483 277.220179 
L 165.401958 277.765563 
L 173.726434 237.882044 
L 182.050909 250.228868 
L 190.375385 249.391492 
L 198.69986 258.285482 
L 207.024336 264.511274 
L 215.348811 236.729068 
L 223.673287 232.109133 
L 231.997762 228.943692 
L 240.322238 230.012214 
L 248.646713 226.95231 
L 256.971189 228.563002 
L 265.295664 214.127242 
L 273.62014 226.89677 
L 281.944615 224.750691 
L 290.269091 241.036921 
L 298.593566 215.822522 
L 306.918042 227.787469 
L 315.242517 226.46723 
L 323.566993 225.521026 
L 331.891469 212.882114 
L 340.215944 232.728917 
L 348.54042 230.197394 
L 356.864895 226.679522 
L 365.189371 242.387103 
L 373.513846 237.33253 
L 381.838322 211.245058 
L 390.162797 179.779213 
L 398.487273 192.823882 
" style="fill:none;stroke:#1f77b4;stroke-linecap:square;stroke-width:1.5;"/>
   </g>
   <g id="line2d_18">
    <path clip-path="url(#p6235521b9c)" d="M 73.832727 279.038124 
L 82.157203 279.038124 
L 90.481678 259.505227 
L 98.806154 247.190438 
L 107.130629 239.864713 
L 115.455105 242.709973 
L 123.77958 250.775099 
L 132.104056 242.476836 
L 140.428531 253.445222 
L 148.753007 231.590399 
L 157.077483 196.746345 
L 165.401958 183.687105 
L 173.726434 153.194226 
L 182.050909 160.816166 
L 190.375385 168.909024 
L 198.69986 150.958666 
L 207.024336 155.989135 
L 215.348811 133.443023 
L 223.673287 114.255749 
L 231.997762 128.431336 
L 240.322238 121.682966 
L 248.646713 101.795727 
L 256.971189 122.075574 
L 265.295664 136.187477 
L 273.62014 161.492031 
L 281.944615 166.077081 
L 290.269091 177.38973 
L 298.593566 164.841604 
L 306.918042 156.221176 
L 315.242517 175.875038 
L 323.566993 172.805563 
L 331.891469 173.674789 
L 340.215944 158.482839 
L 348.54042 162.092157 
L 356.864895 180.170097 
L 365.189371 180.070331 
L 373.513846 158.729676 
L 381.838322 128.974485 
L 390.162797 120.283741 
L 398.487273 134.362621 
" style="fill:none;stroke:#ff7f0e;stroke-linecap:square;stroke-width:1.5;"/>
   </g>
   <g id="line2d_19">
    <path clip-path="url(#p6235521b9c)" d="M 73.832727 279.038124 
L 82.157203 279.038124 
L 90.481678 279.038124 
L 98.806154 279.038124 
L 107.130629 279.038124 
L 115.455105 271.821032 
L 123.77958 256.567175 
L 132.104056 230.123777 
L 140.428531 228.779329 
L 148.753007 226.548146 
L 157.077483 196.205618 
L 165.401958 221.055369 
L 173.726434 207.894248 
L 182.050909 201.831983 
L 190.375385 201.573494 
L 198.69986 186.212391 
L 207.024336 165.314382 
L 215.348811 165.892503 
L 223.673287 132.018888 
L 231.997762 124.472686 
L 240.322238 119.116623 
L 248.646713 134.251116 
L 256.971189 132.755531 
L 265.295664 123.817592 
L 273.62014 136.071923 
L 281.944615 127.895713 
L 290.269091 140.253446 
L 298.593566 139.058236 
L 306.918042 147.322603 
L 315.242517 148.084194 
L 323.566993 134.787697 
L 331.891469 145.739353 
L 340.215944 169.357795 
L 348.54042 185.043393 
L 356.864895 179.860218 
L 365.189371 209.61359 
L 373.513846 162.496197 
L 381.838322 143.90321 
L 390.162797 151.509828 
L 398.487273 164.328339 
" style="fill:none;stroke:#2ca02c;stroke-linecap:square;stroke-width:1.5;"/>
   </g>
   <g id="line2d_20">
    <path clip-path="url(#p6235521b9c)" d="M 73.832727 279.038124 
L 82.157203 279.038124 
L 90.481678 279.038124 
L 98.806154 279.038124 
L 107.130629 279.038124 
L 115.455105 255.156163 
L 123.77958 262.320751 
L 132.104056 264.259159 
L 140.428531 235.264748 
L 148.753007 232.524002 
L 157.077483 217.100584 
L 165.401958 201.887818 
L 173.726434 192.353822 
L 182.050909 183.301234 
L 190.375385 212.022301 
L 198.69986 201.296824 
L 207.024336 155.159999 
L 215.348811 144.508227 
L 223.673287 166.962568 
L 231.997762 141.326826 
L 240.322238 167.722996 
L 248.646713 166.739005 
L 256.971189 160.228336 
L 265.295664 164.551153 
L 273.62014 135.817506 
L 281.944615 126.198478 
L 290.269091 117.161333 
L 298.593566 127.434254 
L 306.918042 128.669146 
L 315.242517 135.862958 
L 323.566993 118.999955 
L 331.891469 133.814384 
L 340.215944 125.850675 
L 348.54042 133.212678 
L 356.864895 127.139785 
L 365.189371 120.513096 
L 373.513846 99.908604 
L 381.838322 120.505697 
L 390.162797 151.990302 
L 398.487273 156.03023 
" style="fill:none;stroke:#d62728;stroke-linecap:square;stroke-width:1.5;"/>
   </g>
   <g id="patch_3">
    <path d="M 57.6 307.584 
L 57.6 41.472 
" style="fill:none;stroke:#000000;stroke-linecap:square;stroke-linejoin:miter;stroke-width:0.8;"/>
   </g>
   <g id="patch_4">
    <path d="M 414.72 307.584 
L 414.72 41.472 
" style="fill:none;stroke:#000000;stroke-linecap:square;stroke-linejoin:miter;stroke-width:0.8;"/>
   </g>
   <g id="patch_5">
    <path d="M 57.6 307.584 
L 414.72 307.584 
" style="fill:none;stroke:#000000;stroke-linecap:square;stroke-linejoin:miter;stroke-width:0.8;"/>
   </g>
   <g id="patch_6">
    <path d="M 57.6 41.472 
L 414.72 41.472 
" style="fill:none;stroke:#000000;stroke-linecap:square;stroke-linejoin:miter;stroke-width:0.8;"/>
   </g>
   <g id="legend_1">
    <g id="patch_7">
     <path d="M 64.6 108.1845 
L 188.182812 108.1845 
Q 190.182812 108.1845 190.182812 106.1845 
L 190.182812 48.472 
Q 190.182812 46.472 188.182812 46.472 
L 64.6 46.472 
Q 62.6 46.472 62.6 48.472 
L 62.6 106.1845 
Q 62.6 108.1845 64.6 108.1845 
z
" style="fill:#ffffff;opacity:0.8;stroke:#cccccc;stroke-linejoin:miter;"/>
    </g>
    <g id="line2d_19">
     <path d="M 66.6 54.570438 
L 86.6 54.570438 
" style="fill:none;stroke:#1f77b4;stroke-linecap:square;stroke-width:1.5;"/>
    </g>
    <g id="line2d_20"/>
    <g id="text_15">
     <!-- buffersize = 10^2 -->
     <g transform="translate(94.6 58.070438)scale(0.1 -0.1)">
      <defs>
       <path d="M 3116 1747 
Q 3116 2381 2855 2742 
Q 2594 3103 2138 3103 
Q 1681 3103 1420 2742 
Q 1159 2381 1159 1747 
Q 1159 1113 1420 752 
Q 1681 391 2138 391 
Q 2594 391 2855 752 
Q 3116 1113 3116 1747 
z
M 1159 2969 
Q 1341 3281 1617 3432 
Q 1894 3584 2278 3584 
Q 2916 3584 3314 3078 
Q 3713 2572 3713 1747 
Q 3713 922 3314 415 
Q 2916 -91 2278 -91 
Q 1894 -91 1617 61 
Q 1341 213 1159 525 
L 1159 0 
L 581 0 
L 581 4863 
L 1159 4863 
L 1159 2969 
z
" id="DejaVuSans-62" transform="scale(0.015625)"/>
       <path d="M 544 1381 
L 544 3500 
L 1119 3500 
L 1119 1403 
Q 1119 906 1312 657 
Q 1506 409 1894 409 
Q 2359 409 2629 706 
Q 2900 1003 2900 1516 
L 2900 3500 
L 3475 3500 
L 3475 0 
L 2900 0 
L 2900 538 
Q 2691 219 2414 64 
Q 2138 -91 1772 -91 
Q 1169 -91 856 284 
Q 544 659 544 1381 
z
M 1991 3584 
L 1991 3584 
z
" id="DejaVuSans-75" transform="scale(0.015625)"/>
       <path d="M 2375 4863 
L 2375 4384 
L 1825 4384 
Q 1516 4384 1395 4259 
Q 1275 4134 1275 3809 
L 1275 3500 
L 2222 3500 
L 2222 3053 
L 1275 3053 
L 1275 0 
L 697 0 
L 697 3053 
L 147 3053 
L 147 3500 
L 697 3500 
L 697 3744 
Q 697 4328 969 4595 
Q 1241 4863 1831 4863 
L 2375 4863 
z
" id="DejaVuSans-66" transform="scale(0.015625)"/>
       <path d="M 3597 1894 
L 3597 1613 
L 953 1613 
Q 991 1019 1311 708 
Q 1631 397 2203 397 
Q 2534 397 2845 478 
Q 3156 559 3463 722 
L 3463 178 
Q 3153 47 2828 -22 
Q 2503 -91 2169 -91 
Q 1331 -91 842 396 
Q 353 884 353 1716 
Q 353 2575 817 3079 
Q 1281 3584 2069 3584 
Q 2775 3584 3186 3129 
Q 3597 2675 3597 1894 
z
M 3022 2063 
Q 3016 2534 2758 2815 
Q 2500 3097 2075 3097 
Q 1594 3097 1305 2825 
Q 1016 2553 972 2059 
L 3022 2063 
z
" id="DejaVuSans-65" transform="scale(0.015625)"/>
       <path d="M 2631 2963 
Q 2534 3019 2420 3045 
Q 2306 3072 2169 3072 
Q 1681 3072 1420 2755 
Q 1159 2438 1159 1844 
L 1159 0 
L 581 0 
L 581 3500 
L 1159 3500 
L 1159 2956 
Q 1341 3275 1631 3429 
Q 1922 3584 2338 3584 
Q 2397 3584 2469 3576 
Q 2541 3569 2628 3553 
L 2631 2963 
z
" id="DejaVuSans-72" transform="scale(0.015625)"/>
       <path d="M 2834 3397 
L 2834 2853 
Q 2591 2978 2328 3040 
Q 2066 3103 1784 3103 
Q 1356 3103 1142 2972 
Q 928 2841 928 2578 
Q 928 2378 1081 2264 
Q 1234 2150 1697 2047 
L 1894 2003 
Q 2506 1872 2764 1633 
Q 3022 1394 3022 966 
Q 3022 478 2636 193 
Q 2250 -91 1575 -91 
Q 1294 -91 989 -36 
Q 684 19 347 128 
L 347 722 
Q 666 556 975 473 
Q 1284 391 1588 391 
Q 1994 391 2212 530 
Q 2431 669 2431 922 
Q 2431 1156 2273 1281 
Q 2116 1406 1581 1522 
L 1381 1569 
Q 847 1681 609 1914 
Q 372 2147 372 2553 
Q 372 3047 722 3315 
Q 1072 3584 1716 3584 
Q 2034 3584 2315 3537 
Q 2597 3491 2834 3397 
z
" id="DejaVuSans-73" transform="scale(0.015625)"/>
       <path d="M 603 3500 
L 1178 3500 
L 1178 0 
L 603 0 
L 603 3500 
z
M 603 4863 
L 1178 4863 
L 1178 4134 
L 603 4134 
L 603 4863 
z
" id="DejaVuSans-69" transform="scale(0.015625)"/>
       <path d="M 353 3500 
L 3084 3500 
L 3084 2975 
L 922 459 
L 3084 459 
L 3084 0 
L 275 0 
L 275 525 
L 2438 3041 
L 353 3041 
L 353 3500 
z
" id="DejaVuSans-7a" transform="scale(0.015625)"/>
       <path id="DejaVuSans-20" transform="scale(0.015625)"/>
       <path d="M 678 2906 
L 4684 2906 
L 4684 2381 
L 678 2381 
L 678 2906 
z
M 678 1631 
L 4684 1631 
L 4684 1100 
L 678 1100 
L 678 1631 
z
" id="DejaVuSans-3d" transform="scale(0.015625)"/>
       <path d="M 2988 4666 
L 4684 2925 
L 4056 2925 
L 2681 4159 
L 1306 2925 
L 678 2925 
L 2375 4666 
L 2988 4666 
z
" id="DejaVuSans-5e" transform="scale(0.015625)"/>
       <path d="M 1228 531 
L 3431 531 
L 3431 0 
L 469 0 
L 469 531 
Q 828 903 1448 1529 
Q 2069 2156 2228 2338 
Q 2531 2678 2651 2914 
Q 2772 3150 2772 3378 
Q 2772 3750 2511 3984 
Q 2250 4219 1831 4219 
Q 1534 4219 1204 4116 
Q 875 4013 500 3803 
L 500 4441 
Q 881 4594 1212 4672 
Q 1544 4750 1819 4750 
Q 2544 4750 2975 4387 
Q 3406 4025 3406 3419 
Q 3406 3131 3298 2873 
Q 3191 2616 2906 2266 
Q 2828 2175 2409 1742 
Q 1991 1309 1228 531 
z
" id="DejaVuSans-32" transform="scale(0.015625)"/>
      </defs>
      <use xlink:href="#DejaVuSans-62"/>
      <use x="63.476562" xlink:href="#DejaVuSans-75"/>
      <use x="126.855469" xlink:href="#DejaVuSans-66"/>
      <use x="162.060547" xlink:href="#DejaVuSans-66"/>
      <use x="197.265625" xlink:href="#DejaVuSans-65"/>
      <use x="258.789062" xlink:href="#DejaVuSans-72"/>
      <use x="299.902344" xlink:href="#DejaVuSans-73"/>
      <use x="352.001953" xlink:href="#DejaVuSans-69"/>
      <use x="379.785156" xlink:href="#DejaVuSans-7a"/>
      <use x="432.275391" xlink:href="#DejaVuSans-65"/>
      <use x="493.798828" xlink:href="#DejaVuSans-20"/>
      <use x="525.585938" xlink:href="#DejaVuSans-3d"/>
      <use x="609.375" xlink:href="#DejaVuSans-20"/>
      <use x="641.162109" xlink:href="#DejaVuSans-31"/>
      <use x="704.785156" xlink:href="#DejaVuSans-30"/>
      <use x="768.408203" xlink:href="#DejaVuSans-5e"/>
      <use x="852.197266" xlink:href="#DejaVuSans-32"/>
     </g>
    </g>
    <g id="line2d_21">
     <path d="M 66.6 69.248563 
L 86.6 69.248563 
" style="fill:none;stroke:#ff7f0e;stroke-linecap:square;stroke-width:1.5;"/>
    </g>
    <g id="line2d_22"/>
    <g id="text_16">
     <!-- buffersize = 10^3 -->
     <g transform="translate(94.6 72.748563)scale(0.1 -0.1)">
      <use xlink:href="#DejaVuSans-62"/>
      <use x="63.476562" xlink:href="#DejaVuSans-75"/>
      <use x="126.855469" xlink:href="#DejaVuSans-66"/>
      <use x="162.060547" xlink:href="#DejaVuSans-66"/>
      <use x="197.265625" xlink:href="#DejaVuSans-65"/>
      <use x="258.789062" xlink:href="#DejaVuSans-72"/>
      <use x="299.902344" xlink:href="#DejaVuSans-73"/>
      <use x="352.001953" xlink:href="#DejaVuSans-69"/>
      <use x="379.785156" xlink:href="#DejaVuSans-7a"/>
      <use x="432.275391" xlink:href="#DejaVuSans-65"/>
      <use x="493.798828" xlink:href="#DejaVuSans-20"/>
      <use x="525.585938" xlink:href="#DejaVuSans-3d"/>
      <use x="609.375" xlink:href="#DejaVuSans-20"/>
      <use x="641.162109" xlink:href="#DejaVuSans-31"/>
      <use x="704.785156" xlink:href="#DejaVuSans-30"/>
      <use x="768.408203" xlink:href="#DejaVuSans-5e"/>
      <use x="852.197266" xlink:href="#DejaVuSans-33"/>
     </g>
    </g>
    <g id="line2d_23">
     <path d="M 66.6 83.926688 
L 86.6 83.926688 
" style="fill:none;stroke:#2ca02c;stroke-linecap:square;stroke-width:1.5;"/>
    </g>
    <g id="line2d_24"/>
    <g id="text_17">
     <!-- buffersize = 10^4 -->
     <g transform="translate(94.6 87.426688)scale(0.1 -0.1)">
      <use xlink:href="#DejaVuSans-62"/>
      <use x="63.476562" xlink:href="#DejaVuSans-75"/>
      <use x="126.855469" xlink:href="#DejaVuSans-66"/>
      <use x="162.060547" xlink:href="#DejaVuSans-66"/>
      <use x="197.265625" xlink:href="#DejaVuSans-65"/>
      <use x="258.789062" xlink:href="#DejaVuSans-72"/>
      <use x="299.902344" xlink:href="#DejaVuSans-73"/>
      <use x="352.001953" xlink:href="#DejaVuSans-69"/>
      <use x="379.785156" xlink:href="#DejaVuSans-7a"/>
      <use x="432.275391" xlink:href="#DejaVuSans-65"/>
      <use x="493.798828" xlink:href="#DejaVuSans-20"/>
      <use x="525.585938" xlink:href="#DejaVuSans-3d"/>
      <use x="609.375" xlink:href="#DejaVuSans-20"/>
      <use x="641.162109" xlink:href="#DejaVuSans-31"/>
      <use x="704.785156" xlink:href="#DejaVuSans-30"/>
      <use x="768.408203" xlink:href="#DejaVuSans-5e"/>
      <use x="852.197266" xlink:href="#DejaVuSans-34"/>
     </g>
    </g>
    <g id="line2d_25">
     <path d="M 66.6 98.604813 
L 86.6 98.604813 
" style="fill:none;stroke:#d62728;stroke-linecap:square;stroke-width:1.5;"/>
    </g>
    <g id="line2d_26"/>
    <g id="text_18">
     <!-- buffersize = 10^5 -->
     <g transform="translate(94.6 102.104813)scale(0.1 -0.1)">
      <use xlink:href="#DejaVuSans-62"/>
      <use x="63.476562" xlink:href="#DejaVuSans-75"/>
      <use x="126.855469" xlink:href="#DejaVuSans-66"/>
      <use x="162.060547" xlink:href="#DejaVuSans-66"/>
      <use x="197.265625" xlink:href="#DejaVuSans-65"/>
      <use x="258.789062" xlink:href="#DejaVuSans-72"/>
      <use x="299.902344" xlink:href="#DejaVuSans-73"/>
      <use x="352.001953" xlink:href="#DejaVuSans-69"/>
      <use x="379.785156" xlink:href="#DejaVuSans-7a"/>
      <use x="432.275391" xlink:href="#DejaVuSans-65"/>
      <use x="493.798828" xlink:href="#DejaVuSans-20"/>
      <use x="525.585938" xlink:href="#DejaVuSans-3d"/>
      <use x="609.375" xlink:href="#DejaVuSans-20"/>
      <use x="641.162109" xlink:href="#DejaVuSans-31"/>
      <use x="704.785156" xlink:href="#DejaVuSans-30"/>
      <use x="768.408203" xlink:href="#DejaVuSans-5e"/>
      <use x="852.197266" xlink:href="#DejaVuSans-35"/>
     </g>
    </g>
   </g>
  </g>
 </g>
 <defs>
  <clipPath id="pafaf32837d">
   <rect height="266.112" width="357.12" x="57.6" y="41.472"/>
  </clipPath>
 </defs>
</svg>
