<?xml version="1.0" encoding="utf-8" standalone="no"?>
<!DOCTYPE svg PUBLIC "-//W3C//DTD SVG 1.1//EN"
  "http://www.w3.org/Graphics/SVG/1.1/DTD/svg11.dtd">
<svg height="345.6pt" version="1.1" viewBox="0 0 460.8 345.6" width="460.8pt" xmlns="http://www.w3.org/2000/svg" xmlns:xlink="http://www.w3.org/1999/xlink">
 <metadata>
  <rdf:RDF xmlns:cc="http://creativecommons.org/ns#" xmlns:dc="http://purl.org/dc/elements/1.1/" xmlns:rdf="http://www.w3.org/1999/02/22-rdf-syntax-ns#">
   <cc:Work>
    <dc:type rdf:resource="http://purl.org/dc/dcmitype/StillImage"/>
    <dc:date>2022-01-03T16:14:22.238625</dc:date>
    <dc:format>image/svg+xml</dc:format>
    <dc:creator>
     <cc:Agent>
      <dc:title>Matplotlib v3.4.3, https://matplotlib.org/</dc:title>
     </cc:Agent>
    </dc:creator>
   </cc:Work>
  </rdf:RDF>
 </metadata>
 <defs>
  <style type="text/css">*{stroke-linecap:butt;stroke-linejoin:round;}</style>
 </defs>
 <g id="figure_1">
  <g id="patch_1">
   <path d="M 0 345.6 
L 460.8 345.6 
L 460.8 0 
L 0 0 
z
" style="fill:#ffffff;"/>
  </g>
  <g id="axes_1">
   <g id="patch_2">
    <path d="M 57.6 307.584 
L 414.72 307.584 
L 414.72 41.472 
L 57.6 41.472 
z
" style="fill:#ffffff;"/>
   </g>
   <g id="PolyCollection_1">
    <path clip-path="url(#pc2f74d4010)" d="M 73.832727 277.28084 
L 73.832727 277.28084 
L 77.942278 277.28084 
L 82.05183 277.28084 
L 86.161381 277.28084 
L 90.270932 277.28084 
L 94.380483 277.28084 
L 98.490035 277.28084 
L 102.599586 277.28084 
L 106.709137 277.28084 
L 110.818688 277.28084 
L 114.928239 277.28084 
L 119.037791 277.28084 
L 123.147342 277.28084 
L 127.256893 277.28084 
L 131.366444 277.28084 
L 135.475995 277.28084 
L 139.585547 277.28084 
L 143.695098 277.28084 
L 147.804649 277.28084 
L 151.9142 277.28084 
L 156.023751 277.28084 
L 160.133303 277.28084 
L 164.242854 277.28084 
L 168.352405 277.28084 
L 172.461956 277.28084 
L 176.571507 277.28084 
L 180.681059 277.28084 
L 184.79061 277.28084 
L 188.900161 277.28084 
L 193.009712 277.28084 
L 197.119264 277.28084 
L 201.228815 277.28084 
L 205.338366 277.28084 
L 209.447917 277.28084 
L 213.557468 277.28084 
L 217.66702 277.28084 
L 221.776571 277.28084 
L 225.886122 277.28084 
L 229.995673 277.28084 
L 234.105224 277.28084 
L 238.214776 277.28084 
L 242.324327 277.28084 
L 246.433878 277.28084 
L 250.543429 277.28084 
L 254.65298 277.28084 
L 258.762532 277.28084 
L 262.872083 277.28084 
L 266.981634 277.28084 
L 271.091185 277.28084 
L 275.200736 277.28084 
L 279.310288 277.28084 
L 283.419839 277.28084 
L 287.52939 277.28084 
L 291.638941 277.28084 
L 295.748493 277.28084 
L 299.858044 277.28084 
L 303.967595 277.28084 
L 308.077146 277.28084 
L 312.186697 277.28084 
L 316.296249 277.28084 
L 320.4058 277.28084 
L 324.515351 277.28084 
L 328.624902 277.28084 
L 332.734453 277.28084 
L 336.844005 277.28084 
L 340.953556 277.28084 
L 345.063107 277.28084 
L 349.172658 277.28084 
L 353.282209 277.28084 
L 357.391761 277.28084 
L 361.501312 277.28084 
L 365.610863 277.28084 
L 369.720414 277.28084 
L 373.829965 277.28084 
L 377.939517 277.28084 
L 382.049068 277.28084 
L 386.158619 277.28084 
L 390.26817 277.28084 
L 394.377722 277.28084 
L 398.487273 277.28084 
L 398.487273 277.28084 
L 398.487273 277.28084 
L 394.377722 277.28084 
L 390.26817 277.28084 
L 386.158619 277.28084 
L 382.049068 277.28084 
L 377.939517 277.28084 
L 373.829965 277.28084 
L 369.720414 277.28084 
L 365.610863 277.28084 
L 361.501312 277.28084 
L 357.391761 277.28084 
L 353.282209 277.28084 
L 349.172658 277.28084 
L 345.063107 277.28084 
L 340.953556 277.28084 
L 336.844005 277.28084 
L 332.734453 277.28084 
L 328.624902 277.28084 
L 324.515351 277.28084 
L 320.4058 277.28084 
L 316.296249 277.28084 
L 312.186697 277.28084 
L 308.077146 277.28084 
L 303.967595 277.28084 
L 299.858044 277.28084 
L 295.748493 277.28084 
L 291.638941 277.28084 
L 287.52939 277.28084 
L 283.419839 277.28084 
L 279.310288 277.28084 
L 275.200736 277.28084 
L 271.091185 277.28084 
L 266.981634 277.28084 
L 262.872083 277.28084 
L 258.762532 277.28084 
L 254.65298 277.28084 
L 250.543429 277.28084 
L 246.433878 277.28084 
L 242.324327 277.28084 
L 238.214776 277.28084 
L 234.105224 277.28084 
L 229.995673 277.28084 
L 225.886122 277.28084 
L 221.776571 277.28084 
L 217.66702 277.28084 
L 213.557468 277.28084 
L 209.447917 277.28084 
L 205.338366 277.28084 
L 201.228815 277.28084 
L 197.119264 277.28084 
L 193.009712 277.28084 
L 188.900161 277.28084 
L 184.79061 277.28084 
L 180.681059 277.28084 
L 176.571507 277.28084 
L 172.461956 277.28084 
L 168.352405 277.28084 
L 164.242854 277.28084 
L 160.133303 277.28084 
L 156.023751 277.28084 
L 151.9142 277.28084 
L 147.804649 277.28084 
L 143.695098 277.28084 
L 139.585547 277.28084 
L 135.475995 277.28084 
L 131.366444 277.28084 
L 127.256893 277.28084 
L 123.147342 277.28084 
L 119.037791 277.28084 
L 114.928239 277.28084 
L 110.818688 277.28084 
L 106.709137 277.28084 
L 102.599586 277.28084 
L 98.490035 277.28084 
L 94.380483 277.28084 
L 90.270932 277.28084 
L 86.161381 277.28084 
L 82.05183 277.28084 
L 77.942278 277.28084 
L 73.832727 277.28084 
z
" style="fill:#1f77b4;fill-opacity:0.3;"/>
   </g>
   <g id="PolyCollection_2">
    <path clip-path="url(#pc2f74d4010)" d="M 73.832727 277.28084 
L 73.832727 277.28084 
L 77.942278 277.28084 
L 82.05183 277.28084 
L 86.161381 277.28084 
L 90.270932 277.28084 
L 94.380483 277.28084 
L 98.490035 277.28084 
L 102.599586 277.28084 
L 106.709137 277.28084 
L 110.818688 277.28084 
L 114.928239 277.28084 
L 119.037791 277.28084 
L 123.147342 277.28084 
L 127.256893 277.28084 
L 131.366444 277.28084 
L 135.475995 277.28084 
L 139.585547 277.28084 
L 143.695098 277.28084 
L 147.804649 277.28084 
L 151.9142 277.28084 
L 156.023751 277.28084 
L 160.133303 277.28084 
L 164.242854 277.28084 
L 168.352405 277.28084 
L 172.461956 277.28084 
L 176.571507 277.28084 
L 180.681059 277.28084 
L 184.79061 277.28084 
L 188.900161 277.28084 
L 193.009712 277.28084 
L 197.119264 277.28084 
L 201.228815 277.28084 
L 205.338366 277.28084 
L 209.447917 277.28084 
L 213.557468 277.28084 
L 217.66702 277.28084 
L 221.776571 277.28084 
L 225.886122 277.28084 
L 229.995673 277.28084 
L 234.105224 277.28084 
L 238.214776 277.28084 
L 242.324327 277.28084 
L 246.433878 277.28084 
L 250.543429 277.854824 
L 254.65298 277.682628 
L 258.762532 278.729758 
L 262.872083 280.898794 
L 266.981634 284.16217 
L 271.091185 282.097771 
L 275.200736 284.325204 
L 279.310288 280.467224 
L 283.419839 290.33062 
L 287.52939 280.902573 
L 291.638941 280.933804 
L 295.748493 282.992781 
L 299.858044 277.819069 
L 303.967595 258.27308 
L 308.077146 257.324592 
L 312.186697 266.51857 
L 316.296249 247.537497 
L 320.4058 248.980345 
L 324.515351 251.820457 
L 328.624902 251.09694 
L 332.734453 245.282246 
L 336.844005 237.237323 
L 340.953556 242.115261 
L 345.063107 250.134378 
L 349.172658 237.720359 
L 353.282209 230.48878 
L 357.391761 221.912612 
L 361.501312 213.878722 
L 365.610863 192.074321 
L 369.720414 174.001167 
L 373.829965 181.995622 
L 377.939517 185.821509 
L 382.049068 186.77365 
L 386.158619 161.900127 
L 390.26817 178.177512 
L 394.377722 171.599332 
L 398.487273 162.70088 
L 398.487273 162.70088 
L 398.487273 99.054435 
L 394.377722 78.046037 
L 390.26817 87.26878 
L 386.158619 94.789956 
L 382.049068 95.202756 
L 377.939517 108.932771 
L 373.829965 112.410392 
L 369.720414 116.02421 
L 365.610863 116.26625 
L 361.501312 120.019413 
L 357.391761 126.579867 
L 353.282209 119.392092 
L 349.172658 128.158399 
L 345.063107 132.323467 
L 340.953556 134.404697 
L 336.844005 129.878269 
L 332.734453 144.475692 
L 328.624902 162.486033 
L 324.515351 165.454936 
L 320.4058 171.377376 
L 316.296249 155.035664 
L 312.186697 176.07797 
L 308.077146 183.766159 
L 303.967595 175.54253 
L 299.858044 182.878698 
L 295.748493 197.507976 
L 291.638941 183.215064 
L 287.52939 201.985047 
L 283.419839 196.76811 
L 279.310288 224.942004 
L 275.200736 249.289036 
L 271.091185 256.894273 
L 266.981634 248.157173 
L 262.872083 258.981838 
L 258.762532 265.439711 
L 254.65298 275.781344 
L 250.543429 275.138703 
L 246.433878 277.28084 
L 242.324327 277.28084 
L 238.214776 277.28084 
L 234.105224 277.28084 
L 229.995673 277.28084 
L 225.886122 277.28084 
L 221.776571 277.28084 
L 217.66702 277.28084 
L 213.557468 277.28084 
L 209.447917 277.28084 
L 205.338366 277.28084 
L 201.228815 277.28084 
L 197.119264 277.28084 
L 193.009712 277.28084 
L 188.900161 277.28084 
L 184.79061 277.28084 
L 180.681059 277.28084 
L 176.571507 277.28084 
L 172.461956 277.28084 
L 168.352405 277.28084 
L 164.242854 277.28084 
L 160.133303 277.28084 
L 156.023751 277.28084 
L 151.9142 277.28084 
L 147.804649 277.28084 
L 143.695098 277.28084 
L 139.585547 277.28084 
L 135.475995 277.28084 
L 131.366444 277.28084 
L 127.256893 277.28084 
L 123.147342 277.28084 
L 119.037791 277.28084 
L 114.928239 277.28084 
L 110.818688 277.28084 
L 106.709137 277.28084 
L 102.599586 277.28084 
L 98.490035 277.28084 
L 94.380483 277.28084 
L 90.270932 277.28084 
L 86.161381 277.28084 
L 82.05183 277.28084 
L 77.942278 277.28084 
L 73.832727 277.28084 
z
" style="fill:#ff7f0e;fill-opacity:0.3;"/>
   </g>
   <g id="PolyCollection_3">
    <path clip-path="url(#pc2f74d4010)" d="M 73.832727 277.28084 
L 73.832727 277.28084 
L 77.942278 277.28084 
L 82.05183 277.28084 
L 86.161381 277.28084 
L 90.270932 277.28084 
L 94.380483 277.28084 
L 98.490035 277.28084 
L 102.599586 277.28084 
L 106.709137 277.28084 
L 110.818688 277.28084 
L 114.928239 277.28084 
L 119.037791 277.28084 
L 123.147342 277.28084 
L 127.256893 277.28084 
L 131.366444 277.28084 
L 135.475995 277.28084 
L 139.585547 277.28084 
L 143.695098 277.28084 
L 147.804649 277.28084 
L 151.9142 277.28084 
L 156.023751 277.28084 
L 160.133303 277.28084 
L 164.242854 277.28084 
L 168.352405 277.28084 
L 172.461956 277.28084 
L 176.571507 277.983193 
L 180.681059 277.772487 
L 184.79061 277.332317 
L 188.900161 277.316874 
L 193.009712 279.952761 
L 197.119264 277.744993 
L 201.228815 279.280449 
L 205.338366 282.277256 
L 209.447917 280.778331 
L 213.557468 283.368502 
L 217.66702 278.283898 
L 221.776571 277.133648 
L 225.886122 276.363729 
L 229.995673 277.667562 
L 234.105224 277.602311 
L 238.214776 273.031912 
L 242.324327 267.226937 
L 246.433878 270.486722 
L 250.543429 271.875585 
L 254.65298 267.979928 
L 258.762532 259.494753 
L 262.872083 252.698721 
L 266.981634 240.384772 
L 271.091185 238.668001 
L 275.200736 233.474298 
L 279.310288 229.724975 
L 283.419839 228.627043 
L 287.52939 224.048496 
L 291.638941 220.937825 
L 295.748493 224.170768 
L 299.858044 224.181555 
L 303.967595 221.286676 
L 308.077146 220.276407 
L 312.186697 219.973434 
L 316.296249 219.251825 
L 320.4058 228.199316 
L 324.515351 222.127023 
L 328.624902 222.633711 
L 332.734453 222.928055 
L 336.844005 229.406698 
L 340.953556 223.733424 
L 345.063107 214.993271 
L 349.172658 214.681997 
L 353.282209 218.578177 
L 357.391761 222.018899 
L 361.501312 219.995323 
L 365.610863 218.062052 
L 369.720414 200.944263 
L 373.829965 196.403887 
L 377.939517 163.638699 
L 382.049068 185.057885 
L 386.158619 193.290574 
L 390.26817 203.029703 
L 394.377722 177.860471 
L 398.487273 171.846051 
L 398.487273 171.846051 
L 398.487273 107.814221 
L 394.377722 70.416032 
L 390.26817 68.919644 
L 386.158619 74.974675 
L 382.049068 79.110366 
L 377.939517 95.513205 
L 373.829965 72.812959 
L 369.720414 69.986038 
L 365.610863 60.733498 
L 361.501312 70.691153 
L 357.391761 78.003687 
L 353.282209 70.314316 
L 349.172658 57.882758 
L 345.063107 63.724991 
L 340.953556 70.424088 
L 336.844005 60.879311 
L 332.734453 66.043352 
L 328.624902 68.280624 
L 324.515351 59.959566 
L 320.4058 67.466932 
L 316.296249 53.568 
L 312.186697 60.246456 
L 308.077146 63.996896 
L 303.967595 66.734996 
L 299.858044 78.965545 
L 295.748493 78.529652 
L 291.638941 65.783905 
L 287.52939 78.319202 
L 283.419839 94.432724 
L 279.310288 92.38124 
L 275.200736 111.484985 
L 271.091185 119.285702 
L 266.981634 114.442664 
L 262.872083 141.356352 
L 258.762532 125.805046 
L 254.65298 146.769713 
L 250.543429 155.941835 
L 246.433878 162.644207 
L 242.324327 173.702116 
L 238.214776 188.651182 
L 234.105224 190.559992 
L 229.995673 191.28255 
L 225.886122 200.677225 
L 221.776571 223.896071 
L 217.66702 232.101673 
L 213.557468 219.923665 
L 209.447917 231.832169 
L 205.338366 212.354167 
L 201.228815 218.155465 
L 197.119264 240.875114 
L 193.009712 265.883159 
L 188.900161 276.206694 
L 184.79061 275.746345 
L 180.681059 275.445986 
L 176.571507 274.659621 
L 172.461956 277.28084 
L 168.352405 277.28084 
L 164.242854 277.28084 
L 160.133303 277.28084 
L 156.023751 277.28084 
L 151.9142 277.28084 
L 147.804649 277.28084 
L 143.695098 277.28084 
L 139.585547 277.28084 
L 135.475995 277.28084 
L 131.366444 277.28084 
L 127.256893 277.28084 
L 123.147342 277.28084 
L 119.037791 277.28084 
L 114.928239 277.28084 
L 110.818688 277.28084 
L 106.709137 277.28084 
L 102.599586 277.28084 
L 98.490035 277.28084 
L 94.380483 277.28084 
L 90.270932 277.28084 
L 86.161381 277.28084 
L 82.05183 277.28084 
L 77.942278 277.28084 
L 73.832727 277.28084 
z
" style="fill:#2ca02c;fill-opacity:0.3;"/>
   </g>
   <g id="PolyCollection_4">
    <path clip-path="url(#pc2f74d4010)" d="M 73.832727 277.28084 
L 73.832727 277.28084 
L 77.942278 277.28084 
L 82.05183 277.28084 
L 86.161381 277.28084 
L 90.270932 277.28084 
L 94.380483 277.28084 
L 98.490035 277.28084 
L 102.599586 277.28084 
L 106.709137 277.28084 
L 110.818688 277.28084 
L 114.928239 277.28084 
L 119.037791 277.28084 
L 123.147342 277.28084 
L 127.256893 277.28084 
L 131.366444 277.28084 
L 135.475995 277.28084 
L 139.585547 277.28084 
L 143.695098 285.780519 
L 147.804649 289.444953 
L 151.9142 287.583423 
L 156.023751 292.453992 
L 160.133303 287.902046 
L 164.242854 287.757997 
L 168.352405 279.223968 
L 172.461956 284.097862 
L 176.571507 277.88748 
L 180.681059 277.705488 
L 184.79061 269.511269 
L 188.900161 269.669819 
L 193.009712 273.280832 
L 197.119264 280.579274 
L 201.228815 286.013479 
L 205.338366 289.205507 
L 209.447917 284.702905 
L 213.557468 282.211731 
L 217.66702 281.420618 
L 221.776571 270.658536 
L 225.886122 253.329769 
L 229.995673 252.96217 
L 234.105224 258.510561 
L 238.214776 251.189509 
L 242.324327 240.576127 
L 246.433878 237.53712 
L 250.543429 232.849581 
L 254.65298 242.340084 
L 258.762532 235.501342 
L 262.872083 238.514429 
L 266.981634 233.105601 
L 271.091185 244.963944 
L 275.200736 242.035693 
L 279.310288 234.999118 
L 283.419839 242.434917 
L 287.52939 235.980022 
L 291.638941 245.858419 
L 295.748493 216.000503 
L 299.858044 210.2569 
L 303.967595 230.174783 
L 308.077146 209.695971 
L 312.186697 207.802605 
L 316.296249 209.074043 
L 320.4058 221.773674 
L 324.515351 207.917996 
L 328.624902 186.078355 
L 332.734453 152.660402 
L 336.844005 164.879304 
L 340.953556 152.735449 
L 345.063107 157.671737 
L 349.172658 137.038314 
L 353.282209 132.835174 
L 357.391761 145.033126 
L 361.501312 168.88899 
L 365.610863 173.602391 
L 369.720414 198.908809 
L 373.829965 177.654622 
L 377.939517 176.046125 
L 382.049068 193.429128 
L 386.158619 170.658125 
L 390.26817 197.622212 
L 394.377722 155.47442 
L 398.487273 135.730171 
L 398.487273 135.730171 
L 398.487273 114.837117 
L 394.377722 100.463465 
L 390.26817 113.33349 
L 386.158619 126.474624 
L 382.049068 101.87283 
L 377.939517 105.996572 
L 373.829965 115.503543 
L 369.720414 122.268649 
L 365.610863 113.673948 
L 361.501312 112.41415 
L 357.391761 105.547604 
L 353.282209 100.342816 
L 349.172658 102.283882 
L 345.063107 107.88793 
L 340.953556 103.111247 
L 336.844005 95.041246 
L 332.734453 104.354074 
L 328.624902 96.062159 
L 324.515351 96.647733 
L 320.4058 102.691914 
L 316.296249 62.899672 
L 312.186697 69.667354 
L 308.077146 88.675631 
L 303.967595 98.270728 
L 299.858044 92.107809 
L 295.748493 89.049305 
L 291.638941 100.573793 
L 287.52939 96.260568 
L 283.419839 115.651808 
L 279.310288 114.683074 
L 275.200736 141.478311 
L 271.091185 119.604169 
L 266.981634 99.784228 
L 262.872083 118.595687 
L 258.762532 99.170506 
L 254.65298 101.277422 
L 250.543429 98.603666 
L 246.433878 118.37583 
L 242.324327 127.561884 
L 238.214776 145.731887 
L 234.105224 143.870966 
L 229.995673 132.434513 
L 225.886122 127.69509 
L 221.776571 132.59434 
L 217.66702 148.365201 
L 213.557468 151.217913 
L 209.447917 171.806248 
L 205.338366 173.25476 
L 201.228815 168.199673 
L 197.119264 177.069683 
L 193.009712 190.916264 
L 188.900161 189.220559 
L 184.79061 212.402057 
L 180.681059 231.297073 
L 176.571507 211.589744 
L 172.461956 197.676639 
L 168.352405 201.227367 
L 164.242854 238.179558 
L 160.133303 237.641957 
L 156.023751 220.653864 
L 151.9142 238.831075 
L 147.804649 231.883753 
L 143.695098 245.559604 
L 139.585547 277.28084 
L 135.475995 277.28084 
L 131.366444 277.28084 
L 127.256893 277.28084 
L 123.147342 277.28084 
L 119.037791 277.28084 
L 114.928239 277.28084 
L 110.818688 277.28084 
L 106.709137 277.28084 
L 102.599586 277.28084 
L 98.490035 277.28084 
L 94.380483 277.28084 
L 90.270932 277.28084 
L 86.161381 277.28084 
L 82.05183 277.28084 
L 77.942278 277.28084 
L 73.832727 277.28084 
z
" style="fill:#d62728;fill-opacity:0.3;"/>
   </g>
   <g id="PolyCollection_5">
    <path clip-path="url(#pc2f74d4010)" d="M 73.832727 277.28084 
L 73.832727 277.28084 
L 77.942278 277.28084 
L 82.05183 277.28084 
L 86.161381 277.28084 
L 90.270932 277.28084 
L 94.380483 277.28084 
L 98.490035 277.28084 
L 102.599586 277.28084 
L 106.709137 277.28084 
L 110.818688 277.28084 
L 114.928239 277.28084 
L 119.037791 277.28084 
L 123.147342 277.28084 
L 127.256893 277.28084 
L 131.366444 277.28084 
L 135.475995 277.28084 
L 139.585547 277.28084 
L 143.695098 277.28084 
L 147.804649 277.28084 
L 151.9142 277.28084 
L 156.023751 277.28084 
L 160.133303 277.28084 
L 164.242854 277.28084 
L 168.352405 277.28084 
L 172.461956 277.28084 
L 176.571507 277.28084 
L 180.681059 277.28084 
L 184.79061 277.298627 
L 188.900161 280.379903 
L 193.009712 280.482218 
L 197.119264 288.335778 
L 201.228815 295.488 
L 205.338366 290.025852 
L 209.447917 280.492632 
L 213.557468 278.211677 
L 217.66702 280.359404 
L 221.776571 279.303722 
L 225.886122 280.922246 
L 229.995673 272.541834 
L 234.105224 273.349483 
L 238.214776 274.492002 
L 242.324327 275.434173 
L 246.433878 261.953175 
L 250.543429 259.82106 
L 254.65298 249.931309 
L 258.762532 252.373912 
L 262.872083 241.45104 
L 266.981634 230.470202 
L 271.091185 231.66622 
L 275.200736 231.737897 
L 279.310288 231.79428 
L 283.419839 231.752011 
L 287.52939 227.388852 
L 291.638941 240.439125 
L 295.748493 230.996055 
L 299.858044 237.044235 
L 303.967595 244.351307 
L 308.077146 252.57252 
L 312.186697 242.262909 
L 316.296249 236.731391 
L 320.4058 237.131278 
L 324.515351 236.233583 
L 328.624902 231.022639 
L 332.734453 242.1624 
L 336.844005 234.512629 
L 340.953556 235.392615 
L 345.063107 238.781268 
L 349.172658 245.743404 
L 353.282209 239.939373 
L 357.391761 242.205789 
L 361.501312 240.072301 
L 365.610863 241.131127 
L 369.720414 233.48775 
L 373.829965 231.432328 
L 377.939517 229.150704 
L 382.049068 226.130393 
L 386.158619 238.771808 
L 390.26817 239.557808 
L 394.377722 234.705906 
L 398.487273 231.474345 
L 398.487273 231.474345 
L 398.487273 101.245844 
L 394.377722 108.822303 
L 390.26817 122.082482 
L 386.158619 122.224891 
L 382.049068 82.572678 
L 377.939517 94.152273 
L 373.829965 102.596906 
L 369.720414 109.929863 
L 365.610863 128.477411 
L 361.501312 131.212217 
L 357.391761 137.051615 
L 353.282209 130.112061 
L 349.172658 137.010544 
L 345.063107 126.151759 
L 340.953556 111.206384 
L 336.844005 114.409541 
L 332.734453 133.686657 
L 328.624902 103.528487 
L 324.515351 102.83056 
L 320.4058 115.023087 
L 316.296249 113.984395 
L 312.186697 123.742992 
L 308.077146 139.92339 
L 303.967595 135.322216 
L 299.858044 126.84576 
L 295.748493 92.916191 
L 291.638941 93.795537 
L 287.52939 80.074949 
L 283.419839 91.667518 
L 279.310288 102.005502 
L 275.200736 104.508097 
L 271.091185 96.242086 
L 266.981634 91.990261 
L 262.872083 114.998394 
L 258.762532 141.179052 
L 254.65298 138.916862 
L 250.543429 156.430441 
L 246.433878 139.409173 
L 242.324327 139.443207 
L 238.214776 138.304203 
L 234.105224 146.913445 
L 229.995673 188.146745 
L 225.886122 215.202846 
L 221.776571 243.505505 
L 217.66702 229.325519 
L 213.557468 227.124957 
L 209.447917 234.18925 
L 205.338366 221.503356 
L 201.228815 197.59872 
L 197.119264 219.664767 
L 193.009712 243.940908 
L 188.900161 261.795745 
L 184.79061 273.910505 
L 180.681059 277.28084 
L 176.571507 277.28084 
L 172.461956 277.28084 
L 168.352405 277.28084 
L 164.242854 277.28084 
L 160.133303 277.28084 
L 156.023751 277.28084 
L 151.9142 277.28084 
L 147.804649 277.28084 
L 143.695098 277.28084 
L 139.585547 277.28084 
L 135.475995 277.28084 
L 131.366444 277.28084 
L 127.256893 277.28084 
L 123.147342 277.28084 
L 119.037791 277.28084 
L 114.928239 277.28084 
L 110.818688 277.28084 
L 106.709137 277.28084 
L 102.599586 277.28084 
L 98.490035 277.28084 
L 94.380483 277.28084 
L 90.270932 277.28084 
L 86.161381 277.28084 
L 82.05183 277.28084 
L 77.942278 277.28084 
L 73.832727 277.28084 
z
" style="fill:#9467bd;fill-opacity:0.3;"/>
   </g>
   <g id="PolyCollection_6">
    <path clip-path="url(#pc2f74d4010)" d="M 73.832727 277.28084 
L 73.832727 277.28084 
L 77.942278 277.28084 
L 82.05183 277.28084 
L 86.161381 277.28084 
L 90.270932 277.28084 
L 94.380483 277.28084 
L 98.490035 277.28084 
L 102.599586 277.28084 
L 106.709137 277.28084 
L 110.818688 277.28084 
L 114.928239 277.28084 
L 119.037791 277.28084 
L 123.147342 277.28084 
L 127.256893 277.28084 
L 131.366444 277.28084 
L 135.475995 277.28084 
L 139.585547 277.28084 
L 143.695098 277.28084 
L 147.804649 277.28084 
L 151.9142 277.28084 
L 156.023751 277.28084 
L 160.133303 277.28084 
L 164.242854 277.28084 
L 168.352405 277.28084 
L 172.461956 277.28084 
L 176.571507 277.28084 
L 180.681059 277.28084 
L 184.79061 277.28084 
L 188.900161 277.28084 
L 193.009712 277.28084 
L 197.119264 277.28084 
L 201.228815 277.28084 
L 205.338366 277.28084 
L 209.447917 277.28084 
L 213.557468 277.28084 
L 217.66702 277.28084 
L 221.776571 277.28084 
L 225.886122 277.28084 
L 229.995673 277.28084 
L 234.105224 277.28084 
L 238.214776 277.28084 
L 242.324327 277.28084 
L 246.433878 277.28084 
L 250.543429 277.28084 
L 254.65298 277.28084 
L 258.762532 277.28084 
L 262.872083 277.28084 
L 266.981634 277.28084 
L 271.091185 277.28084 
L 275.200736 277.28084 
L 279.310288 277.28084 
L 283.419839 277.28084 
L 287.52939 277.28084 
L 291.638941 277.28084 
L 295.748493 277.28084 
L 299.858044 277.28084 
L 303.967595 277.28084 
L 308.077146 277.28084 
L 312.186697 277.28084 
L 316.296249 277.28084 
L 320.4058 277.28084 
L 324.515351 277.28084 
L 328.624902 277.28084 
L 332.734453 277.28084 
L 336.844005 277.28084 
L 340.953556 277.28084 
L 345.063107 277.28084 
L 349.172658 277.28084 
L 353.282209 277.28084 
L 357.391761 277.28084 
L 361.501312 277.28084 
L 365.610863 277.28084 
L 369.720414 277.28084 
L 373.829965 277.28084 
L 377.939517 277.28084 
L 382.049068 277.28084 
L 386.158619 277.28084 
L 390.26817 277.28084 
L 394.377722 277.28084 
L 398.487273 277.28084 
L 398.487273 277.28084 
L 398.487273 277.28084 
L 394.377722 277.28084 
L 390.26817 277.28084 
L 386.158619 277.28084 
L 382.049068 277.28084 
L 377.939517 277.28084 
L 373.829965 277.28084 
L 369.720414 277.28084 
L 365.610863 277.28084 
L 361.501312 277.28084 
L 357.391761 277.28084 
L 353.282209 277.28084 
L 349.172658 277.28084 
L 345.063107 277.28084 
L 340.953556 277.28084 
L 336.844005 277.28084 
L 332.734453 277.28084 
L 328.624902 277.28084 
L 324.515351 277.28084 
L 320.4058 277.28084 
L 316.296249 277.28084 
L 312.186697 277.28084 
L 308.077146 277.28084 
L 303.967595 277.28084 
L 299.858044 277.28084 
L 295.748493 277.28084 
L 291.638941 277.28084 
L 287.52939 277.28084 
L 283.419839 277.28084 
L 279.310288 277.28084 
L 275.200736 277.28084 
L 271.091185 277.28084 
L 266.981634 277.28084 
L 262.872083 277.28084 
L 258.762532 277.28084 
L 254.65298 277.28084 
L 250.543429 277.28084 
L 246.433878 277.28084 
L 242.324327 277.28084 
L 238.214776 277.28084 
L 234.105224 277.28084 
L 229.995673 277.28084 
L 225.886122 277.28084 
L 221.776571 277.28084 
L 217.66702 277.28084 
L 213.557468 277.28084 
L 209.447917 277.28084 
L 205.338366 277.28084 
L 201.228815 277.28084 
L 197.119264 277.28084 
L 193.009712 277.28084 
L 188.900161 277.28084 
L 184.79061 277.28084 
L 180.681059 277.28084 
L 176.571507 277.28084 
L 172.461956 277.28084 
L 168.352405 277.28084 
L 164.242854 277.28084 
L 160.133303 277.28084 
L 156.023751 277.28084 
L 151.9142 277.28084 
L 147.804649 277.28084 
L 143.695098 277.28084 
L 139.585547 277.28084 
L 135.475995 277.28084 
L 131.366444 277.28084 
L 127.256893 277.28084 
L 123.147342 277.28084 
L 119.037791 277.28084 
L 114.928239 277.28084 
L 110.818688 277.28084 
L 106.709137 277.28084 
L 102.599586 277.28084 
L 98.490035 277.28084 
L 94.380483 277.28084 
L 90.270932 277.28084 
L 86.161381 277.28084 
L 82.05183 277.28084 
L 77.942278 277.28084 
L 73.832727 277.28084 
z
" style="fill:#8c564b;fill-opacity:0.3;"/>
   </g>
   <g id="matplotlib.axis_1">
    <g id="xtick_1">
     <g id="line2d_1">
      <defs>
       <path d="M 0 0 
L 0 3.5 
" id="mfd6a1a9eda" style="stroke:#000000;stroke-width:0.8;"/>
      </defs>
      <g>
       <use style="stroke:#000000;stroke-width:0.8;" x="69.723176" xlink:href="#mfd6a1a9eda" y="307.584"/>
      </g>
     </g>
     <g id="text_1">
      <!-- 0 -->
      <g transform="translate(66.541926 322.182437)scale(0.1 -0.1)">
       <defs>
        <path d="M 2034 4250 
Q 1547 4250 1301 3770 
Q 1056 3291 1056 2328 
Q 1056 1369 1301 889 
Q 1547 409 2034 409 
Q 2525 409 2770 889 
Q 3016 1369 3016 2328 
Q 3016 3291 2770 3770 
Q 2525 4250 2034 4250 
z
M 2034 4750 
Q 2819 4750 3233 4129 
Q 3647 3509 3647 2328 
Q 3647 1150 3233 529 
Q 2819 -91 2034 -91 
Q 1250 -91 836 529 
Q 422 1150 422 2328 
Q 422 3509 836 4129 
Q 1250 4750 2034 4750 
z
" id="DejaVuSans-30" transform="scale(0.015625)"/>
       </defs>
       <use xlink:href="#DejaVuSans-30"/>
      </g>
     </g>
    </g>
    <g id="xtick_2">
     <g id="line2d_2">
      <g>
       <use style="stroke:#000000;stroke-width:0.8;" x="110.818688" xlink:href="#mfd6a1a9eda" y="307.584"/>
      </g>
     </g>
     <g id="text_2">
      <!-- 50 -->
      <g transform="translate(104.456188 322.182437)scale(0.1 -0.1)">
       <defs>
        <path d="M 691 4666 
L 3169 4666 
L 3169 4134 
L 1269 4134 
L 1269 2991 
Q 1406 3038 1543 3061 
Q 1681 3084 1819 3084 
Q 2600 3084 3056 2656 
Q 3513 2228 3513 1497 
Q 3513 744 3044 326 
Q 2575 -91 1722 -91 
Q 1428 -91 1123 -41 
Q 819 9 494 109 
L 494 744 
Q 775 591 1075 516 
Q 1375 441 1709 441 
Q 2250 441 2565 725 
Q 2881 1009 2881 1497 
Q 2881 1984 2565 2268 
Q 2250 2553 1709 2553 
Q 1456 2553 1204 2497 
Q 953 2441 691 2322 
L 691 4666 
z
" id="DejaVuSans-35" transform="scale(0.015625)"/>
       </defs>
       <use xlink:href="#DejaVuSans-35"/>
       <use x="63.623047" xlink:href="#DejaVuSans-30"/>
      </g>
     </g>
    </g>
    <g id="xtick_3">
     <g id="line2d_3">
      <g>
       <use style="stroke:#000000;stroke-width:0.8;" x="151.9142" xlink:href="#mfd6a1a9eda" y="307.584"/>
      </g>
     </g>
     <g id="text_3">
      <!-- 100 -->
      <g transform="translate(142.37045 322.182437)scale(0.1 -0.1)">
       <defs>
        <path d="M 794 531 
L 1825 531 
L 1825 4091 
L 703 3866 
L 703 4441 
L 1819 4666 
L 2450 4666 
L 2450 531 
L 3481 531 
L 3481 0 
L 794 0 
L 794 531 
z
" id="DejaVuSans-31" transform="scale(0.015625)"/>
       </defs>
       <use xlink:href="#DejaVuSans-31"/>
       <use x="63.623047" xlink:href="#DejaVuSans-30"/>
       <use x="127.246094" xlink:href="#DejaVuSans-30"/>
      </g>
     </g>
    </g>
    <g id="xtick_4">
     <g id="line2d_4">
      <g>
       <use style="stroke:#000000;stroke-width:0.8;" x="193.009712" xlink:href="#mfd6a1a9eda" y="307.584"/>
      </g>
     </g>
     <g id="text_4">
      <!-- 150 -->
      <g transform="translate(183.465962 322.182437)scale(0.1 -0.1)">
       <use xlink:href="#DejaVuSans-31"/>
       <use x="63.623047" xlink:href="#DejaVuSans-35"/>
       <use x="127.246094" xlink:href="#DejaVuSans-30"/>
      </g>
     </g>
    </g>
    <g id="xtick_5">
     <g id="line2d_5">
      <g>
       <use style="stroke:#000000;stroke-width:0.8;" x="234.105224" xlink:href="#mfd6a1a9eda" y="307.584"/>
      </g>
     </g>
     <g id="text_5">
      <!-- 200 -->
      <g transform="translate(224.561474 322.182437)scale(0.1 -0.1)">
       <defs>
        <path d="M 1228 531 
L 3431 531 
L 3431 0 
L 469 0 
L 469 531 
Q 828 903 1448 1529 
Q 2069 2156 2228 2338 
Q 2531 2678 2651 2914 
Q 2772 3150 2772 3378 
Q 2772 3750 2511 3984 
Q 2250 4219 1831 4219 
Q 1534 4219 1204 4116 
Q 875 4013 500 3803 
L 500 4441 
Q 881 4594 1212 4672 
Q 1544 4750 1819 4750 
Q 2544 4750 2975 4387 
Q 3406 4025 3406 3419 
Q 3406 3131 3298 2873 
Q 3191 2616 2906 2266 
Q 2828 2175 2409 1742 
Q 1991 1309 1228 531 
z
" id="DejaVuSans-32" transform="scale(0.015625)"/>
       </defs>
       <use xlink:href="#DejaVuSans-32"/>
       <use x="63.623047" xlink:href="#DejaVuSans-30"/>
       <use x="127.246094" xlink:href="#DejaVuSans-30"/>
      </g>
     </g>
    </g>
    <g id="xtick_6">
     <g id="line2d_6">
      <g>
       <use style="stroke:#000000;stroke-width:0.8;" x="275.200736" xlink:href="#mfd6a1a9eda" y="307.584"/>
      </g>
     </g>
     <g id="text_6">
      <!-- 250 -->
      <g transform="translate(265.656986 322.182437)scale(0.1 -0.1)">
       <use xlink:href="#DejaVuSans-32"/>
       <use x="63.623047" xlink:href="#DejaVuSans-35"/>
       <use x="127.246094" xlink:href="#DejaVuSans-30"/>
      </g>
     </g>
    </g>
    <g id="xtick_7">
     <g id="line2d_7">
      <g>
       <use style="stroke:#000000;stroke-width:0.8;" x="316.296249" xlink:href="#mfd6a1a9eda" y="307.584"/>
      </g>
     </g>
     <g id="text_7">
      <!-- 300 -->
      <g transform="translate(306.752499 322.182437)scale(0.1 -0.1)">
       <defs>
        <path d="M 2597 2516 
Q 3050 2419 3304 2112 
Q 3559 1806 3559 1356 
Q 3559 666 3084 287 
Q 2609 -91 1734 -91 
Q 1441 -91 1130 -33 
Q 819 25 488 141 
L 488 750 
Q 750 597 1062 519 
Q 1375 441 1716 441 
Q 2309 441 2620 675 
Q 2931 909 2931 1356 
Q 2931 1769 2642 2001 
Q 2353 2234 1838 2234 
L 1294 2234 
L 1294 2753 
L 1863 2753 
Q 2328 2753 2575 2939 
Q 2822 3125 2822 3475 
Q 2822 3834 2567 4026 
Q 2313 4219 1838 4219 
Q 1578 4219 1281 4162 
Q 984 4106 628 3988 
L 628 4550 
Q 988 4650 1302 4700 
Q 1616 4750 1894 4750 
Q 2613 4750 3031 4423 
Q 3450 4097 3450 3541 
Q 3450 3153 3228 2886 
Q 3006 2619 2597 2516 
z
" id="DejaVuSans-33" transform="scale(0.015625)"/>
       </defs>
       <use xlink:href="#DejaVuSans-33"/>
       <use x="63.623047" xlink:href="#DejaVuSans-30"/>
       <use x="127.246094" xlink:href="#DejaVuSans-30"/>
      </g>
     </g>
    </g>
    <g id="xtick_8">
     <g id="line2d_8">
      <g>
       <use style="stroke:#000000;stroke-width:0.8;" x="357.391761" xlink:href="#mfd6a1a9eda" y="307.584"/>
      </g>
     </g>
     <g id="text_8">
      <!-- 350 -->
      <g transform="translate(347.848011 322.182437)scale(0.1 -0.1)">
       <use xlink:href="#DejaVuSans-33"/>
       <use x="63.623047" xlink:href="#DejaVuSans-35"/>
       <use x="127.246094" xlink:href="#DejaVuSans-30"/>
      </g>
     </g>
    </g>
    <g id="xtick_9">
     <g id="line2d_9">
      <g>
       <use style="stroke:#000000;stroke-width:0.8;" x="398.487273" xlink:href="#mfd6a1a9eda" y="307.584"/>
      </g>
     </g>
     <g id="text_9">
      <!-- 400 -->
      <g transform="translate(388.943523 322.182437)scale(0.1 -0.1)">
       <defs>
        <path d="M 2419 4116 
L 825 1625 
L 2419 1625 
L 2419 4116 
z
M 2253 4666 
L 3047 4666 
L 3047 1625 
L 3713 1625 
L 3713 1100 
L 3047 1100 
L 3047 0 
L 2419 0 
L 2419 1100 
L 313 1100 
L 313 1709 
L 2253 4666 
z
" id="DejaVuSans-34" transform="scale(0.015625)"/>
       </defs>
       <use xlink:href="#DejaVuSans-34"/>
       <use x="63.623047" xlink:href="#DejaVuSans-30"/>
       <use x="127.246094" xlink:href="#DejaVuSans-30"/>
      </g>
     </g>
    </g>
    <g id="text_10">
     <!-- Epoch -->
     <g transform="translate(220.849063 335.860562)scale(0.1 -0.1)">
      <defs>
       <path d="M 628 4666 
L 3578 4666 
L 3578 4134 
L 1259 4134 
L 1259 2753 
L 3481 2753 
L 3481 2222 
L 1259 2222 
L 1259 531 
L 3634 531 
L 3634 0 
L 628 0 
L 628 4666 
z
" id="DejaVuSans-45" transform="scale(0.015625)"/>
       <path d="M 1159 525 
L 1159 -1331 
L 581 -1331 
L 581 3500 
L 1159 3500 
L 1159 2969 
Q 1341 3281 1617 3432 
Q 1894 3584 2278 3584 
Q 2916 3584 3314 3078 
Q 3713 2572 3713 1747 
Q 3713 922 3314 415 
Q 2916 -91 2278 -91 
Q 1894 -91 1617 61 
Q 1341 213 1159 525 
z
M 3116 1747 
Q 3116 2381 2855 2742 
Q 2594 3103 2138 3103 
Q 1681 3103 1420 2742 
Q 1159 2381 1159 1747 
Q 1159 1113 1420 752 
Q 1681 391 2138 391 
Q 2594 391 2855 752 
Q 3116 1113 3116 1747 
z
" id="DejaVuSans-70" transform="scale(0.015625)"/>
       <path d="M 1959 3097 
Q 1497 3097 1228 2736 
Q 959 2375 959 1747 
Q 959 1119 1226 758 
Q 1494 397 1959 397 
Q 2419 397 2687 759 
Q 2956 1122 2956 1747 
Q 2956 2369 2687 2733 
Q 2419 3097 1959 3097 
z
M 1959 3584 
Q 2709 3584 3137 3096 
Q 3566 2609 3566 1747 
Q 3566 888 3137 398 
Q 2709 -91 1959 -91 
Q 1206 -91 779 398 
Q 353 888 353 1747 
Q 353 2609 779 3096 
Q 1206 3584 1959 3584 
z
" id="DejaVuSans-6f" transform="scale(0.015625)"/>
       <path d="M 3122 3366 
L 3122 2828 
Q 2878 2963 2633 3030 
Q 2388 3097 2138 3097 
Q 1578 3097 1268 2742 
Q 959 2388 959 1747 
Q 959 1106 1268 751 
Q 1578 397 2138 397 
Q 2388 397 2633 464 
Q 2878 531 3122 666 
L 3122 134 
Q 2881 22 2623 -34 
Q 2366 -91 2075 -91 
Q 1284 -91 818 406 
Q 353 903 353 1747 
Q 353 2603 823 3093 
Q 1294 3584 2113 3584 
Q 2378 3584 2631 3529 
Q 2884 3475 3122 3366 
z
" id="DejaVuSans-63" transform="scale(0.015625)"/>
       <path d="M 3513 2113 
L 3513 0 
L 2938 0 
L 2938 2094 
Q 2938 2591 2744 2837 
Q 2550 3084 2163 3084 
Q 1697 3084 1428 2787 
Q 1159 2491 1159 1978 
L 1159 0 
L 581 0 
L 581 4863 
L 1159 4863 
L 1159 2956 
Q 1366 3272 1645 3428 
Q 1925 3584 2291 3584 
Q 2894 3584 3203 3211 
Q 3513 2838 3513 2113 
z
" id="DejaVuSans-68" transform="scale(0.015625)"/>
      </defs>
      <!--
      <use xlink:href="#DejaVuSans-45"/>
      <use x="63.183594" xlink:href="#DejaVuSans-70"/>
      <use x="126.660156" xlink:href="#DejaVuSans-6f"/>
      <use x="187.841797" xlink:href="#DejaVuSans-63"/>
      <use x="242.822266" xlink:href="#DejaVuSans-68"/>
    -->
     </g>
    </g>
   </g>
   <g id="matplotlib.axis_2">
    <g id="ytick_1">
     <g id="line2d_10">
      <defs>
       <path d="M 0 0 
L -3.5 0 
" id="m346ebfc8b7" style="stroke:#000000;stroke-width:0.8;"/>
      </defs>
      <g>
       <use style="stroke:#000000;stroke-width:0.8;" x="57.6" xlink:href="#m346ebfc8b7" y="273.564947"/>
      </g>
     </g>
     <g id="text_11">
      <!-- −180 -->
      <g transform="translate(23.132812 277.364166)scale(0.1 -0.1)">
       <defs>
        <path d="M 678 2272 
L 4684 2272 
L 4684 1741 
L 678 1741 
L 678 2272 
z
" id="DejaVuSans-2212" transform="scale(0.015625)"/>
        <path d="M 2034 2216 
Q 1584 2216 1326 1975 
Q 1069 1734 1069 1313 
Q 1069 891 1326 650 
Q 1584 409 2034 409 
Q 2484 409 2743 651 
Q 3003 894 3003 1313 
Q 3003 1734 2745 1975 
Q 2488 2216 2034 2216 
z
M 1403 2484 
Q 997 2584 770 2862 
Q 544 3141 544 3541 
Q 544 4100 942 4425 
Q 1341 4750 2034 4750 
Q 2731 4750 3128 4425 
Q 3525 4100 3525 3541 
Q 3525 3141 3298 2862 
Q 3072 2584 2669 2484 
Q 3125 2378 3379 2068 
Q 3634 1759 3634 1313 
Q 3634 634 3220 271 
Q 2806 -91 2034 -91 
Q 1263 -91 848 271 
Q 434 634 434 1313 
Q 434 1759 690 2068 
Q 947 2378 1403 2484 
z
M 1172 3481 
Q 1172 3119 1398 2916 
Q 1625 2713 2034 2713 
Q 2441 2713 2670 2916 
Q 2900 3119 2900 3481 
Q 2900 3844 2670 4047 
Q 2441 4250 2034 4250 
Q 1625 4250 1398 4047 
Q 1172 3844 1172 3481 
z
" id="DejaVuSans-38" transform="scale(0.015625)"/>
       </defs>
       <use xlink:href="#DejaVuSans-2212"/>
       <use x="83.789062" xlink:href="#DejaVuSans-31"/>
       <use x="147.412109" xlink:href="#DejaVuSans-38"/>
       <use x="211.035156" xlink:href="#DejaVuSans-30"/>
      </g>
     </g>
    </g>
    <g id="ytick_2">
     <g id="line2d_11">
      <g>
       <use style="stroke:#000000;stroke-width:0.8;" x="57.6" xlink:href="#m346ebfc8b7" y="218.56237"/>
      </g>
     </g>
     <g id="text_12">
      <!-- −160 -->
      <g transform="translate(23.132812 222.361589)scale(0.1 -0.1)">
       <defs>
        <path d="M 2113 2584 
Q 1688 2584 1439 2293 
Q 1191 2003 1191 1497 
Q 1191 994 1439 701 
Q 1688 409 2113 409 
Q 2538 409 2786 701 
Q 3034 994 3034 1497 
Q 3034 2003 2786 2293 
Q 2538 2584 2113 2584 
z
M 3366 4563 
L 3366 3988 
Q 3128 4100 2886 4159 
Q 2644 4219 2406 4219 
Q 1781 4219 1451 3797 
Q 1122 3375 1075 2522 
Q 1259 2794 1537 2939 
Q 1816 3084 2150 3084 
Q 2853 3084 3261 2657 
Q 3669 2231 3669 1497 
Q 3669 778 3244 343 
Q 2819 -91 2113 -91 
Q 1303 -91 875 529 
Q 447 1150 447 2328 
Q 447 3434 972 4092 
Q 1497 4750 2381 4750 
Q 2619 4750 2861 4703 
Q 3103 4656 3366 4563 
z
" id="DejaVuSans-36" transform="scale(0.015625)"/>
       </defs>
       <use xlink:href="#DejaVuSans-2212"/>
       <use x="83.789062" xlink:href="#DejaVuSans-31"/>
       <use x="147.412109" xlink:href="#DejaVuSans-36"/>
       <use x="211.035156" xlink:href="#DejaVuSans-30"/>
      </g>
     </g>
    </g>
    <g id="ytick_3">
     <g id="line2d_12">
      <g>
       <use style="stroke:#000000;stroke-width:0.8;" x="57.6" xlink:href="#m346ebfc8b7" y="163.559794"/>
      </g>
     </g>
     <g id="text_13">
      <!-- −140 -->
      <g transform="translate(23.132812 167.359013)scale(0.1 -0.1)">
       <use xlink:href="#DejaVuSans-2212"/>
       <use x="83.789062" xlink:href="#DejaVuSans-31"/>
       <use x="147.412109" xlink:href="#DejaVuSans-34"/>
       <use x="211.035156" xlink:href="#DejaVuSans-30"/>
      </g>
     </g>
    </g>
    <g id="ytick_4">
     <g id="line2d_13">
      <g>
       <use style="stroke:#000000;stroke-width:0.8;" x="57.6" xlink:href="#m346ebfc8b7" y="108.557218"/>
      </g>
     </g>
     <g id="text_14">
      <!-- −120 -->
      <g transform="translate(23.132812 112.356436)scale(0.1 -0.1)">
       <use xlink:href="#DejaVuSans-2212"/>
       <use x="83.789062" xlink:href="#DejaVuSans-31"/>
       <use x="147.412109" xlink:href="#DejaVuSans-32"/>
       <use x="211.035156" xlink:href="#DejaVuSans-30"/>
      </g>
     </g>
    </g>
    <g id="ytick_5">
     <g id="line2d_14">
      <g>
       <use style="stroke:#000000;stroke-width:0.8;" x="57.6" xlink:href="#m346ebfc8b7" y="53.554641"/>
      </g>
     </g>
     <g id="text_15">
      <!-- −100 -->
      <g transform="translate(23.132812 57.35386)scale(0.1 -0.1)">
       <use xlink:href="#DejaVuSans-2212"/>
       <use x="83.789062" xlink:href="#DejaVuSans-31"/>
       <use x="147.412109" xlink:href="#DejaVuSans-30"/>
       <use x="211.035156" xlink:href="#DejaVuSans-30"/>
      </g>
     </g>
    </g>
    <g id="text_16">
     <!-- Average Reward -->
     <g transform="translate(17.053125 215.270969)rotate(-90)scale(0.1 -0.1)">
      <defs>
       <path d="M 2188 4044 
L 1331 1722 
L 3047 1722 
L 2188 4044 
z
M 1831 4666 
L 2547 4666 
L 4325 0 
L 3669 0 
L 3244 1197 
L 1141 1197 
L 716 0 
L 50 0 
L 1831 4666 
z
" id="DejaVuSans-41" transform="scale(0.015625)"/>
       <path d="M 191 3500 
L 800 3500 
L 1894 563 
L 2988 3500 
L 3597 3500 
L 2284 0 
L 1503 0 
L 191 3500 
z
" id="DejaVuSans-76" transform="scale(0.015625)"/>
       <path d="M 3597 1894 
L 3597 1613 
L 953 1613 
Q 991 1019 1311 708 
Q 1631 397 2203 397 
Q 2534 397 2845 478 
Q 3156 559 3463 722 
L 3463 178 
Q 3153 47 2828 -22 
Q 2503 -91 2169 -91 
Q 1331 -91 842 396 
Q 353 884 353 1716 
Q 353 2575 817 3079 
Q 1281 3584 2069 3584 
Q 2775 3584 3186 3129 
Q 3597 2675 3597 1894 
z
M 3022 2063 
Q 3016 2534 2758 2815 
Q 2500 3097 2075 3097 
Q 1594 3097 1305 2825 
Q 1016 2553 972 2059 
L 3022 2063 
z
" id="DejaVuSans-65" transform="scale(0.015625)"/>
       <path d="M 2631 2963 
Q 2534 3019 2420 3045 
Q 2306 3072 2169 3072 
Q 1681 3072 1420 2755 
Q 1159 2438 1159 1844 
L 1159 0 
L 581 0 
L 581 3500 
L 1159 3500 
L 1159 2956 
Q 1341 3275 1631 3429 
Q 1922 3584 2338 3584 
Q 2397 3584 2469 3576 
Q 2541 3569 2628 3553 
L 2631 2963 
z
" id="DejaVuSans-72" transform="scale(0.015625)"/>
       <path d="M 2194 1759 
Q 1497 1759 1228 1600 
Q 959 1441 959 1056 
Q 959 750 1161 570 
Q 1363 391 1709 391 
Q 2188 391 2477 730 
Q 2766 1069 2766 1631 
L 2766 1759 
L 2194 1759 
z
M 3341 1997 
L 3341 0 
L 2766 0 
L 2766 531 
Q 2569 213 2275 61 
Q 1981 -91 1556 -91 
Q 1019 -91 701 211 
Q 384 513 384 1019 
Q 384 1609 779 1909 
Q 1175 2209 1959 2209 
L 2766 2209 
L 2766 2266 
Q 2766 2663 2505 2880 
Q 2244 3097 1772 3097 
Q 1472 3097 1187 3025 
Q 903 2953 641 2809 
L 641 3341 
Q 956 3463 1253 3523 
Q 1550 3584 1831 3584 
Q 2591 3584 2966 3190 
Q 3341 2797 3341 1997 
z
" id="DejaVuSans-61" transform="scale(0.015625)"/>
       <path d="M 2906 1791 
Q 2906 2416 2648 2759 
Q 2391 3103 1925 3103 
Q 1463 3103 1205 2759 
Q 947 2416 947 1791 
Q 947 1169 1205 825 
Q 1463 481 1925 481 
Q 2391 481 2648 825 
Q 2906 1169 2906 1791 
z
M 3481 434 
Q 3481 -459 3084 -895 
Q 2688 -1331 1869 -1331 
Q 1566 -1331 1297 -1286 
Q 1028 -1241 775 -1147 
L 775 -588 
Q 1028 -725 1275 -790 
Q 1522 -856 1778 -856 
Q 2344 -856 2625 -561 
Q 2906 -266 2906 331 
L 2906 616 
Q 2728 306 2450 153 
Q 2172 0 1784 0 
Q 1141 0 747 490 
Q 353 981 353 1791 
Q 353 2603 747 3093 
Q 1141 3584 1784 3584 
Q 2172 3584 2450 3431 
Q 2728 3278 2906 2969 
L 2906 3500 
L 3481 3500 
L 3481 434 
z
" id="DejaVuSans-67" transform="scale(0.015625)"/>
       <path id="DejaVuSans-20" transform="scale(0.015625)"/>
       <path d="M 2841 2188 
Q 3044 2119 3236 1894 
Q 3428 1669 3622 1275 
L 4263 0 
L 3584 0 
L 2988 1197 
Q 2756 1666 2539 1819 
Q 2322 1972 1947 1972 
L 1259 1972 
L 1259 0 
L 628 0 
L 628 4666 
L 2053 4666 
Q 2853 4666 3247 4331 
Q 3641 3997 3641 3322 
Q 3641 2881 3436 2590 
Q 3231 2300 2841 2188 
z
M 1259 4147 
L 1259 2491 
L 2053 2491 
Q 2509 2491 2742 2702 
Q 2975 2913 2975 3322 
Q 2975 3731 2742 3939 
Q 2509 4147 2053 4147 
L 1259 4147 
z
" id="DejaVuSans-52" transform="scale(0.015625)"/>
       <path d="M 269 3500 
L 844 3500 
L 1563 769 
L 2278 3500 
L 2956 3500 
L 3675 769 
L 4391 3500 
L 4966 3500 
L 4050 0 
L 3372 0 
L 2619 2869 
L 1863 0 
L 1184 0 
L 269 3500 
z
" id="DejaVuSans-77" transform="scale(0.015625)"/>
       <path d="M 2906 2969 
L 2906 4863 
L 3481 4863 
L 3481 0 
L 2906 0 
L 2906 525 
Q 2725 213 2448 61 
Q 2172 -91 1784 -91 
Q 1150 -91 751 415 
Q 353 922 353 1747 
Q 353 2572 751 3078 
Q 1150 3584 1784 3584 
Q 2172 3584 2448 3432 
Q 2725 3281 2906 2969 
z
M 947 1747 
Q 947 1113 1208 752 
Q 1469 391 1925 391 
Q 2381 391 2643 752 
Q 2906 1113 2906 1747 
Q 2906 2381 2643 2742 
Q 2381 3103 1925 3103 
Q 1469 3103 1208 2742 
Q 947 2381 947 1747 
z
" id="DejaVuSans-64" transform="scale(0.015625)"/>
      </defs>
      <!--
      <use xlink:href="#DejaVuSans-41"/>
      <use x="62.533203" xlink:href="#DejaVuSans-76"/>
      <use x="121.712891" xlink:href="#DejaVuSans-65"/>
      <use x="183.236328" xlink:href="#DejaVuSans-72"/>
      <use x="224.349609" xlink:href="#DejaVuSans-61"/>
      <use x="285.628906" xlink:href="#DejaVuSans-67"/>
      <use x="349.105469" xlink:href="#DejaVuSans-65"/>
      <use x="410.628906" xlink:href="#DejaVuSans-20"/>
      <use x="442.416016" xlink:href="#DejaVuSans-52"/>
      <use x="507.398438" xlink:href="#DejaVuSans-65"/>
      <use x="568.921875" xlink:href="#DejaVuSans-77"/>
      <use x="650.708984" xlink:href="#DejaVuSans-61"/>
      <use x="711.988281" xlink:href="#DejaVuSans-72"/>
      <use x="751.351562" xlink:href="#DejaVuSans-64"/>
    -->
     </g>
    </g>
   </g>
   <g id="line2d_15">
    <path clip-path="url(#pc2f74d4010)" d="M 73.832727 277.28084 
L 77.942278 277.28084 
L 82.05183 277.28084 
L 86.161381 277.28084 
L 90.270932 277.28084 
L 94.380483 277.28084 
L 98.490035 277.28084 
L 102.599586 277.28084 
L 106.709137 277.28084 
L 110.818688 277.28084 
L 114.928239 277.28084 
L 119.037791 277.28084 
L 123.147342 277.28084 
L 127.256893 277.28084 
L 131.366444 277.28084 
L 135.475995 277.28084 
L 139.585547 277.28084 
L 143.695098 277.28084 
L 147.804649 277.28084 
L 151.9142 277.28084 
L 156.023751 277.28084 
L 160.133303 277.28084 
L 164.242854 277.28084 
L 168.352405 277.28084 
L 172.461956 277.28084 
L 176.571507 277.28084 
L 180.681059 277.28084 
L 184.79061 277.28084 
L 188.900161 277.28084 
L 193.009712 277.28084 
L 197.119264 277.28084 
L 201.228815 277.28084 
L 205.338366 277.28084 
L 209.447917 277.28084 
L 213.557468 277.28084 
L 217.66702 277.28084 
L 221.776571 277.28084 
L 225.886122 277.28084 
L 229.995673 277.28084 
L 234.105224 277.28084 
L 238.214776 277.28084 
L 242.324327 277.28084 
L 246.433878 277.28084 
L 250.543429 277.28084 
L 254.65298 277.28084 
L 258.762532 277.28084 
L 262.872083 277.28084 
L 266.981634 277.28084 
L 271.091185 277.28084 
L 275.200736 277.28084 
L 279.310288 277.28084 
L 283.419839 277.28084 
L 287.52939 277.28084 
L 291.638941 277.28084 
L 295.748493 277.28084 
L 299.858044 277.28084 
L 303.967595 277.28084 
L 308.077146 277.28084 
L 312.186697 277.28084 
L 316.296249 277.28084 
L 320.4058 277.28084 
L 324.515351 277.28084 
L 328.624902 277.28084 
L 332.734453 277.28084 
L 336.844005 277.28084 
L 340.953556 277.28084 
L 345.063107 277.28084 
L 349.172658 277.28084 
L 353.282209 277.28084 
L 357.391761 277.28084 
L 361.501312 277.28084 
L 365.610863 277.28084 
L 369.720414 277.28084 
L 373.829965 277.28084 
L 377.939517 277.28084 
L 382.049068 277.28084 
L 386.158619 277.28084 
L 390.26817 277.28084 
L 394.377722 277.28084 
L 398.487273 277.28084 
" style="fill:none;stroke:#1f77b4;stroke-linecap:square;stroke-width:1.5;"/>
   </g>
   <g id="line2d_16">
    <path clip-path="url(#pc2f74d4010)" d="M 73.832727 277.28084 
L 77.942278 277.28084 
L 82.05183 277.28084 
L 86.161381 277.28084 
L 90.270932 277.28084 
L 94.380483 277.28084 
L 98.490035 277.28084 
L 102.599586 277.28084 
L 106.709137 277.28084 
L 110.818688 277.28084 
L 114.928239 277.28084 
L 119.037791 277.28084 
L 123.147342 277.28084 
L 127.256893 277.28084 
L 131.366444 277.28084 
L 135.475995 277.28084 
L 139.585547 277.28084 
L 143.695098 277.28084 
L 147.804649 277.28084 
L 151.9142 277.28084 
L 156.023751 277.28084 
L 160.133303 277.28084 
L 164.242854 277.28084 
L 168.352405 277.28084 
L 172.461956 277.28084 
L 176.571507 277.28084 
L 180.681059 277.28084 
L 184.79061 277.28084 
L 188.900161 277.28084 
L 193.009712 277.28084 
L 197.119264 277.28084 
L 201.228815 277.28084 
L 205.338366 277.28084 
L 209.447917 277.28084 
L 213.557468 277.28084 
L 217.66702 277.28084 
L 221.776571 277.28084 
L 225.886122 277.28084 
L 229.995673 277.28084 
L 234.105224 277.28084 
L 238.214776 277.28084 
L 242.324327 277.28084 
L 246.433878 277.28084 
L 250.543429 276.496763 
L 254.65298 276.731986 
L 258.762532 272.084734 
L 262.872083 269.940316 
L 266.981634 266.159672 
L 271.091185 269.496022 
L 275.200736 266.80712 
L 279.310288 252.704614 
L 283.419839 243.549365 
L 287.52939 241.44381 
L 291.638941 232.074434 
L 295.748493 240.250378 
L 299.858044 230.348883 
L 303.967595 216.907805 
L 308.077146 220.545375 
L 312.186697 221.29827 
L 316.296249 201.28658 
L 320.4058 210.17886 
L 324.515351 208.637696 
L 328.624902 206.791486 
L 332.734453 194.878969 
L 336.844005 183.557796 
L 340.953556 188.259979 
L 345.063107 191.228922 
L 349.172658 182.939379 
L 353.282209 174.940436 
L 357.391761 174.24624 
L 361.501312 166.949067 
L 365.610863 154.170285 
L 369.720414 145.012689 
L 373.829965 147.203007 
L 377.939517 147.37714 
L 382.049068 140.988203 
L 386.158619 128.345041 
L 390.26817 132.723146 
L 394.377722 124.822685 
L 398.487273 130.877658 
" style="fill:none;stroke:#ff7f0e;stroke-linecap:square;stroke-width:1.5;"/>
   </g>
   <g id="line2d_17">
    <path clip-path="url(#pc2f74d4010)" d="M 73.832727 277.28084 
L 77.942278 277.28084 
L 82.05183 277.28084 
L 86.161381 277.28084 
L 90.270932 277.28084 
L 94.380483 277.28084 
L 98.490035 277.28084 
L 102.599586 277.28084 
L 106.709137 277.28084 
L 110.818688 277.28084 
L 114.928239 277.28084 
L 119.037791 277.28084 
L 123.147342 277.28084 
L 127.256893 277.28084 
L 131.366444 277.28084 
L 135.475995 277.28084 
L 139.585547 277.28084 
L 143.695098 277.28084 
L 147.804649 277.28084 
L 151.9142 277.28084 
L 156.023751 277.28084 
L 160.133303 277.28084 
L 164.242854 277.28084 
L 168.352405 277.28084 
L 172.461956 277.28084 
L 176.571507 276.321407 
L 180.681059 276.609237 
L 184.79061 276.539331 
L 188.900161 276.761784 
L 193.009712 272.91796 
L 197.119264 259.310053 
L 201.228815 248.717957 
L 205.338366 247.315711 
L 209.447917 256.30525 
L 213.557468 251.646084 
L 217.66702 255.192786 
L 221.776571 250.51486 
L 225.886122 238.520477 
L 229.995673 234.475056 
L 234.105224 234.081152 
L 238.214776 230.841547 
L 242.324327 220.464527 
L 246.433878 216.565465 
L 250.543429 213.90871 
L 254.65298 207.374821 
L 258.762532 192.649899 
L 262.872083 197.027537 
L 266.981634 177.413718 
L 271.091185 178.976851 
L 275.200736 172.479641 
L 279.310288 161.053108 
L 283.419839 161.529883 
L 287.52939 151.183849 
L 291.638941 143.360865 
L 295.748493 151.35021 
L 299.858044 151.57355 
L 303.967595 144.010836 
L 308.077146 142.136651 
L 312.186697 140.109945 
L 316.296249 136.409913 
L 320.4058 147.833124 
L 324.515351 141.043294 
L 328.624902 145.457168 
L 332.734453 144.485703 
L 336.844005 145.143004 
L 340.953556 147.078756 
L 345.063107 139.359131 
L 349.172658 136.282378 
L 353.282209 144.446246 
L 357.391761 150.011293 
L 361.501312 145.343238 
L 365.610863 139.397775 
L 369.720414 135.46515 
L 373.829965 134.608423 
L 377.939517 129.575952 
L 382.049068 132.084125 
L 386.158619 134.132625 
L 390.26817 135.974674 
L 394.377722 124.138252 
L 398.487273 139.830136 
" style="fill:none;stroke:#2ca02c;stroke-linecap:square;stroke-width:1.5;"/>
   </g>
   <g id="line2d_18">
    <path clip-path="url(#pc2f74d4010)" d="M 73.832727 277.28084 
L 77.942278 277.28084 
L 82.05183 277.28084 
L 86.161381 277.28084 
L 90.270932 277.28084 
L 94.380483 277.28084 
L 98.490035 277.28084 
L 102.599586 277.28084 
L 106.709137 277.28084 
L 110.818688 277.28084 
L 114.928239 277.28084 
L 119.037791 277.28084 
L 123.147342 277.28084 
L 127.256893 277.28084 
L 131.366444 277.28084 
L 135.475995 277.28084 
L 139.585547 277.28084 
L 143.695098 265.670062 
L 147.804649 260.664353 
L 151.9142 263.207249 
L 156.023751 256.553928 
L 160.133303 262.772002 
L 164.242854 262.968777 
L 168.352405 240.225668 
L 172.461956 240.887251 
L 176.571507 244.738612 
L 180.681059 254.50128 
L 184.79061 240.956663 
L 188.900161 229.445189 
L 193.009712 232.098548 
L 197.119264 228.824478 
L 201.228815 227.106576 
L 205.338366 231.230133 
L 209.447917 228.254576 
L 213.557468 216.714822 
L 217.66702 214.892909 
L 221.776571 201.626438 
L 225.886122 190.51243 
L 229.995673 192.698341 
L 234.105224 201.190764 
L 238.214776 198.460698 
L 242.324327 184.069005 
L 246.433878 177.956475 
L 250.543429 165.726624 
L 254.65298 171.808753 
L 258.762532 167.335924 
L 262.872083 178.555058 
L 266.981634 166.444915 
L 271.091185 182.284057 
L 275.200736 191.757002 
L 279.310288 174.841096 
L 283.419839 179.043363 
L 287.52939 166.120295 
L 291.638941 173.216106 
L 295.748493 152.524904 
L 299.858044 151.182354 
L 303.967595 164.222755 
L 308.077146 149.185801 
L 312.186697 138.73498 
L 316.296249 135.986857 
L 320.4058 162.232794 
L 324.515351 152.282864 
L 328.624902 141.070257 
L 332.734453 128.507238 
L 336.844005 129.960275 
L 340.953556 127.923348 
L 345.063107 132.779834 
L 349.172658 119.661098 
L 353.282209 116.588995 
L 357.391761 125.290365 
L 361.501312 140.65157 
L 365.610863 143.638169 
L 369.720414 160.588729 
L 373.829965 146.579082 
L 377.939517 141.021348 
L 382.049068 147.650979 
L 386.158619 148.566374 
L 390.26817 155.477851 
L 394.377722 127.968942 
L 398.487273 125.283644 
" style="fill:none;stroke:#d62728;stroke-linecap:square;stroke-width:1.5;"/>
   </g>
   <g id="line2d_19">
    <path clip-path="url(#pc2f74d4010)" d="M 73.832727 277.28084 
L 77.942278 277.28084 
L 82.05183 277.28084 
L 86.161381 277.28084 
L 90.270932 277.28084 
L 94.380483 277.28084 
L 98.490035 277.28084 
L 102.599586 277.28084 
L 106.709137 277.28084 
L 110.818688 277.28084 
L 114.928239 277.28084 
L 119.037791 277.28084 
L 123.147342 277.28084 
L 127.256893 277.28084 
L 131.366444 277.28084 
L 135.475995 277.28084 
L 139.585547 277.28084 
L 143.695098 277.28084 
L 147.804649 277.28084 
L 151.9142 277.28084 
L 156.023751 277.28084 
L 160.133303 277.28084 
L 164.242854 277.28084 
L 168.352405 277.28084 
L 172.461956 277.28084 
L 176.571507 277.28084 
L 180.681059 277.28084 
L 184.79061 275.604566 
L 188.900161 271.087824 
L 193.009712 262.211563 
L 197.119264 254.000272 
L 201.228815 246.54336 
L 205.338366 255.764604 
L 209.447917 257.340941 
L 213.557468 252.668317 
L 217.66702 254.842462 
L 221.776571 261.404613 
L 225.886122 248.062546 
L 229.995673 230.34429 
L 234.105224 210.131464 
L 238.214776 206.398102 
L 242.324327 207.43869 
L 246.433878 200.681174 
L 250.543429 208.12575 
L 254.65298 194.424086 
L 258.762532 196.776482 
L 262.872083 178.224717 
L 266.981634 161.230232 
L 271.091185 163.954153 
L 275.200736 168.122997 
L 279.310288 166.899891 
L 283.419839 161.709765 
L 287.52939 153.7319 
L 291.638941 167.117331 
L 295.748493 161.956123 
L 299.858044 181.944998 
L 303.967595 189.836762 
L 308.077146 196.247955 
L 312.186697 183.00295 
L 316.296249 175.357893 
L 320.4058 176.077183 
L 324.515351 169.532072 
L 328.624902 167.275563 
L 332.734453 187.924529 
L 336.844005 174.461085 
L 340.953556 173.299499 
L 345.063107 182.466513 
L 349.172658 191.376974 
L 353.282209 185.025717 
L 357.391761 189.628702 
L 361.501312 185.642259 
L 365.610863 184.804269 
L 369.720414 171.708806 
L 373.829965 167.014617 
L 377.939517 161.651489 
L 382.049068 154.351535 
L 386.158619 180.498349 
L 390.26817 180.820145 
L 394.377722 171.764105 
L 398.487273 166.360095 
" style="fill:none;stroke:#9467bd;stroke-linecap:square;stroke-width:1.5;"/>
   </g>
   <g id="line2d_20">
    <path clip-path="url(#pc2f74d4010)" d="M 73.832727 277.28084 
L 77.942278 277.28084 
L 82.05183 277.28084 
L 86.161381 277.28084 
L 90.270932 277.28084 
L 94.380483 277.28084 
L 98.490035 277.28084 
L 102.599586 277.28084 
L 106.709137 277.28084 
L 110.818688 277.28084 
L 114.928239 277.28084 
L 119.037791 277.28084 
L 123.147342 277.28084 
L 127.256893 277.28084 
L 131.366444 277.28084 
L 135.475995 277.28084 
L 139.585547 277.28084 
L 143.695098 277.28084 
L 147.804649 277.28084 
L 151.9142 277.28084 
L 156.023751 277.28084 
L 160.133303 277.28084 
L 164.242854 277.28084 
L 168.352405 277.28084 
L 172.461956 277.28084 
L 176.571507 277.28084 
L 180.681059 277.28084 
L 184.79061 277.28084 
L 188.900161 277.28084 
L 193.009712 277.28084 
L 197.119264 277.28084 
L 201.228815 277.28084 
L 205.338366 277.28084 
L 209.447917 277.28084 
L 213.557468 277.28084 
L 217.66702 277.28084 
L 221.776571 277.28084 
L 225.886122 277.28084 
L 229.995673 277.28084 
L 234.105224 277.28084 
L 238.214776 277.28084 
L 242.324327 277.28084 
L 246.433878 277.28084 
L 250.543429 277.28084 
L 254.65298 277.28084 
L 258.762532 277.28084 
L 262.872083 277.28084 
L 266.981634 277.28084 
L 271.091185 277.28084 
L 275.200736 277.28084 
L 279.310288 277.28084 
L 283.419839 277.28084 
L 287.52939 277.28084 
L 291.638941 277.28084 
L 295.748493 277.28084 
L 299.858044 277.28084 
L 303.967595 277.28084 
L 308.077146 277.28084 
L 312.186697 277.28084 
L 316.296249 277.28084 
L 320.4058 277.28084 
L 324.515351 277.28084 
L 328.624902 277.28084 
L 332.734453 277.28084 
L 336.844005 277.28084 
L 340.953556 277.28084 
L 345.063107 277.28084 
L 349.172658 277.28084 
L 353.282209 277.28084 
L 357.391761 277.28084 
L 361.501312 277.28084 
L 365.610863 277.28084 
L 369.720414 277.28084 
L 373.829965 277.28084 
L 377.939517 277.28084 
L 382.049068 277.28084 
L 386.158619 277.28084 
L 390.26817 277.28084 
L 394.377722 277.28084 
L 398.487273 277.28084 
" style="fill:none;stroke:#8c564b;stroke-linecap:square;stroke-width:1.5;"/>
   </g>
   <g id="patch_3">
    <path d="M 57.6 307.584 
L 57.6 41.472 
" style="fill:none;stroke:#000000;stroke-linecap:square;stroke-linejoin:miter;stroke-width:0.8;"/>
   </g>
   <g id="patch_4">
    <path d="M 414.72 307.584 
L 414.72 41.472 
" style="fill:none;stroke:#000000;stroke-linecap:square;stroke-linejoin:miter;stroke-width:0.8;"/>
   </g>
   <g id="patch_5">
    <path d="M 57.6 307.584 
L 414.72 307.584 
" style="fill:none;stroke:#000000;stroke-linecap:square;stroke-linejoin:miter;stroke-width:0.8;"/>
   </g>
   <g id="patch_6">
    <path d="M 57.6 41.472 
L 414.72 41.472 
" style="fill:none;stroke:#000000;stroke-linecap:square;stroke-linejoin:miter;stroke-width:0.8;"/>
   </g>
   <g id="legend_1">
    <g id="patch_7">
     <path d="M 64.6 137.54075 
L 140.710938 137.54075 
Q 142.710938 137.54075 142.710938 135.54075 
L 142.710938 48.472 
Q 142.710938 46.472 140.710938 46.472 
L 64.6 46.472 
Q 62.6 46.472 62.6 48.472 
L 62.6 135.54075 
Q 62.6 137.54075 64.6 137.54075 
z
" style="fill:#ffffff;opacity:0.8;stroke:#cccccc;stroke-linejoin:miter;"/>
    </g>
    <g id="line2d_21">
     <path d="M 66.6 54.570438 
L 86.6 54.570438 
" style="fill:none;stroke:#1f77b4;stroke-linecap:square;stroke-width:1.5;"/>
    </g>
    <g id="line2d_22"/>
    <g id="text_15">
     <!-- lr = 1e-4 -->
     <g transform="translate(94.6 58.070438)scale(0.1 -0.1)">
      <defs>
       <path d="M 603 4863 
L 1178 4863 
L 1178 0 
L 603 0 
L 603 4863 
z
" id="DejaVuSans-6c" transform="scale(0.015625)"/>
       <path d="M 2631 2963 
Q 2534 3019 2420 3045 
Q 2306 3072 2169 3072 
Q 1681 3072 1420 2755 
Q 1159 2438 1159 1844 
L 1159 0 
L 581 0 
L 581 3500 
L 1159 3500 
L 1159 2956 
Q 1341 3275 1631 3429 
Q 1922 3584 2338 3584 
Q 2397 3584 2469 3576 
Q 2541 3569 2628 3553 
L 2631 2963 
z
" id="DejaVuSans-72" transform="scale(0.015625)"/>
       <path id="DejaVuSans-20" transform="scale(0.015625)"/>
       <path d="M 678 2906 
L 4684 2906 
L 4684 2381 
L 678 2381 
L 678 2906 
z
M 678 1631 
L 4684 1631 
L 4684 1100 
L 678 1100 
L 678 1631 
z
" id="DejaVuSans-3d" transform="scale(0.015625)"/>
       <path d="M 3597 1894 
L 3597 1613 
L 953 1613 
Q 991 1019 1311 708 
Q 1631 397 2203 397 
Q 2534 397 2845 478 
Q 3156 559 3463 722 
L 3463 178 
Q 3153 47 2828 -22 
Q 2503 -91 2169 -91 
Q 1331 -91 842 396 
Q 353 884 353 1716 
Q 353 2575 817 3079 
Q 1281 3584 2069 3584 
Q 2775 3584 3186 3129 
Q 3597 2675 3597 1894 
z
M 3022 2063 
Q 3016 2534 2758 2815 
Q 2500 3097 2075 3097 
Q 1594 3097 1305 2825 
Q 1016 2553 972 2059 
L 3022 2063 
z
" id="DejaVuSans-65" transform="scale(0.015625)"/>
       <path d="M 313 2009 
L 1997 2009 
L 1997 1497 
L 313 1497 
L 313 2009 
z
" id="DejaVuSans-2d" transform="scale(0.015625)"/>
      </defs>
      <use xlink:href="#DejaVuSans-6c"/>
      <use x="27.783203" xlink:href="#DejaVuSans-72"/>
      <use x="68.896484" xlink:href="#DejaVuSans-20"/>
      <use x="100.683594" xlink:href="#DejaVuSans-3d"/>
      <use x="184.472656" xlink:href="#DejaVuSans-20"/>
      <use x="216.259766" xlink:href="#DejaVuSans-31"/>
      <use x="279.882812" xlink:href="#DejaVuSans-65"/>
      <use x="341.40625" xlink:href="#DejaVuSans-2d"/>
      <use x="377.490234" xlink:href="#DejaVuSans-34"/>
     </g>
    </g>
    <g id="line2d_23">
     <path d="M 66.6 69.248563 
L 86.6 69.248563 
" style="fill:none;stroke:#ff7f0e;stroke-linecap:square;stroke-width:1.5;"/>
    </g>
    <g id="line2d_24"/>
    <g id="text_16">
     <!-- lr = 5e-4 -->
     <g transform="translate(94.6 72.748563)scale(0.1 -0.1)">
      <use xlink:href="#DejaVuSans-6c"/>
      <use x="27.783203" xlink:href="#DejaVuSans-72"/>
      <use x="68.896484" xlink:href="#DejaVuSans-20"/>
      <use x="100.683594" xlink:href="#DejaVuSans-3d"/>
      <use x="184.472656" xlink:href="#DejaVuSans-20"/>
      <use x="216.259766" xlink:href="#DejaVuSans-35"/>
      <use x="279.882812" xlink:href="#DejaVuSans-65"/>
      <use x="341.40625" xlink:href="#DejaVuSans-2d"/>
      <use x="377.490234" xlink:href="#DejaVuSans-34"/>
     </g>
    </g>
    <g id="line2d_25">
     <path d="M 66.6 83.926688 
L 86.6 83.926688 
" style="fill:none;stroke:#2ca02c;stroke-linecap:square;stroke-width:1.5;"/>
    </g>
    <g id="line2d_26"/>
    <g id="text_17">
     <!-- lr = 1e-3 -->
     <g transform="translate(94.6 87.426688)scale(0.1 -0.1)">
      <use xlink:href="#DejaVuSans-6c"/>
      <use x="27.783203" xlink:href="#DejaVuSans-72"/>
      <use x="68.896484" xlink:href="#DejaVuSans-20"/>
      <use x="100.683594" xlink:href="#DejaVuSans-3d"/>
      <use x="184.472656" xlink:href="#DejaVuSans-20"/>
      <use x="216.259766" xlink:href="#DejaVuSans-31"/>
      <use x="279.882812" xlink:href="#DejaVuSans-65"/>
      <use x="341.40625" xlink:href="#DejaVuSans-2d"/>
      <use x="377.490234" xlink:href="#DejaVuSans-33"/>
     </g>
    </g>
    <g id="line2d_27">
     <path d="M 66.6 98.604813 
L 86.6 98.604813 
" style="fill:none;stroke:#d62728;stroke-linecap:square;stroke-width:1.5;"/>
    </g>
    <g id="line2d_28"/>
    <g id="text_18">
     <!-- lr = 5e-3 -->
     <g transform="translate(94.6 102.104813)scale(0.1 -0.1)">
      <use xlink:href="#DejaVuSans-6c"/>
      <use x="27.783203" xlink:href="#DejaVuSans-72"/>
      <use x="68.896484" xlink:href="#DejaVuSans-20"/>
      <use x="100.683594" xlink:href="#DejaVuSans-3d"/>
      <use x="184.472656" xlink:href="#DejaVuSans-20"/>
      <use x="216.259766" xlink:href="#DejaVuSans-35"/>
      <use x="279.882812" xlink:href="#DejaVuSans-65"/>
      <use x="341.40625" xlink:href="#DejaVuSans-2d"/>
      <use x="377.490234" xlink:href="#DejaVuSans-33"/>
     </g>
    </g>
    <g id="line2d_29">
     <path d="M 66.6 113.282938 
L 86.6 113.282938 
" style="fill:none;stroke:#9467bd;stroke-linecap:square;stroke-width:1.5;"/>
    </g>
    <g id="line2d_30"/>
    <g id="text_19">
     <!-- lr = 1e-2 -->
     <g transform="translate(94.6 116.782938)scale(0.1 -0.1)">
      <defs>
       <path d="M 1228 531 
L 3431 531 
L 3431 0 
L 469 0 
L 469 531 
Q 828 903 1448 1529 
Q 2069 2156 2228 2338 
Q 2531 2678 2651 2914 
Q 2772 3150 2772 3378 
Q 2772 3750 2511 3984 
Q 2250 4219 1831 4219 
Q 1534 4219 1204 4116 
Q 875 4013 500 3803 
L 500 4441 
Q 881 4594 1212 4672 
Q 1544 4750 1819 4750 
Q 2544 4750 2975 4387 
Q 3406 4025 3406 3419 
Q 3406 3131 3298 2873 
Q 3191 2616 2906 2266 
Q 2828 2175 2409 1742 
Q 1991 1309 1228 531 
z
" id="DejaVuSans-32" transform="scale(0.015625)"/>
      </defs>
      <use xlink:href="#DejaVuSans-6c"/>
      <use x="27.783203" xlink:href="#DejaVuSans-72"/>
      <use x="68.896484" xlink:href="#DejaVuSans-20"/>
      <use x="100.683594" xlink:href="#DejaVuSans-3d"/>
      <use x="184.472656" xlink:href="#DejaVuSans-20"/>
      <use x="216.259766" xlink:href="#DejaVuSans-31"/>
      <use x="279.882812" xlink:href="#DejaVuSans-65"/>
      <use x="341.40625" xlink:href="#DejaVuSans-2d"/>
      <use x="377.490234" xlink:href="#DejaVuSans-32"/>
     </g>
    </g>
    <g id="line2d_31">
     <path d="M 66.6 127.961063 
L 86.6 127.961063 
" style="fill:none;stroke:#8c564b;stroke-linecap:square;stroke-width:1.5;"/>
    </g>
    <g id="line2d_32"/>
    <g id="text_20">
     <!-- lr = 5e-2 -->
     <g transform="translate(94.6 131.461063)scale(0.1 -0.1)">
      <use xlink:href="#DejaVuSans-6c"/>
      <use x="27.783203" xlink:href="#DejaVuSans-72"/>
      <use x="68.896484" xlink:href="#DejaVuSans-20"/>
      <use x="100.683594" xlink:href="#DejaVuSans-3d"/>
      <use x="184.472656" xlink:href="#DejaVuSans-20"/>
      <use x="216.259766" xlink:href="#DejaVuSans-35"/>
      <use x="279.882812" xlink:href="#DejaVuSans-65"/>
      <use x="341.40625" xlink:href="#DejaVuSans-2d"/>
      <use x="377.490234" xlink:href="#DejaVuSans-32"/>
     </g>
    </g>
   </g>
  </g>
 </g>
 <defs>
  <clipPath id="p7c9d6d8db0">
   <rect height="266.112" width="357.12" x="57.6" y="41.472"/>
  </clipPath>
 </defs>
</svg>
