<?xml version="1.0" encoding="utf-8" standalone="no"?>
<!DOCTYPE svg PUBLIC "-//W3C//DTD SVG 1.1//EN"
  "http://www.w3.org/Graphics/SVG/1.1/DTD/svg11.dtd">
<svg height="345.6pt" version="1.1" viewBox="0 0 460.8 345.6" width="460.8pt" xmlns="http://www.w3.org/2000/svg" xmlns:xlink="http://www.w3.org/1999/xlink">
 <metadata>
  <rdf:RDF xmlns:cc="http://creativecommons.org/ns#" xmlns:dc="http://purl.org/dc/elements/1.1/" xmlns:rdf="http://www.w3.org/1999/02/22-rdf-syntax-ns#">
   <cc:Work>
    <dc:type rdf:resource="http://purl.org/dc/dcmitype/StillImage"/>
    <dc:date>2022-01-03T17:43:04.626002</dc:date>
    <dc:format>image/svg+xml</dc:format>
    <dc:creator>
     <cc:Agent>
      <dc:title>Matplotlib v3.4.3, https://matplotlib.org/</dc:title>
     </cc:Agent>
    </dc:creator>
   </cc:Work>
  </rdf:RDF>
 </metadata>
 <defs>
  <style type="text/css">*{stroke-linecap:butt;stroke-linejoin:round;}</style>
 </defs>
 <g id="figure_1">
  <g id="patch_1">
   <path d="M 0 345.6 
L 460.8 345.6 
L 460.8 0 
L 0 0 
z
" style="fill:#ffffff;"/>
  </g>
  <g id="axes_1">
   <g id="patch_2">
    <path d="M 57.6 307.584 
L 414.72 307.584 
L 414.72 41.472 
L 57.6 41.472 
z
" style="fill:#ffffff;"/>
   </g>
   <g id="PolyCollection_1">
    <path clip-path="url(#p9a27368b24)" d="M 73.832727 288.710674 
L 73.832727 288.710674 
L 82.157203 288.817223 
L 90.481678 288.975891 
L 98.806154 289.484431 
L 107.130629 284.937134 
L 115.455105 286.537349 
L 123.77958 290.682228 
L 132.104056 285.349711 
L 140.428531 282.182634 
L 148.753007 280.279805 
L 157.077483 268.908029 
L 165.401958 265.955418 
L 173.726434 268.589523 
L 182.050909 274.528843 
L 190.375385 272.862188 
L 198.69986 279.947287 
L 207.024336 288.318735 
L 215.348811 288.960135 
L 223.673287 288.854575 
L 231.997762 279.194705 
L 240.322238 290.148824 
L 248.646713 283.360167 
L 256.971189 287.277691 
L 265.295664 288.239165 
L 273.62014 281.607402 
L 281.944615 281.599246 
L 290.269091 282.659426 
L 298.593566 285.075388 
L 306.918042 286.794926 
L 315.242517 287.14175 
L 323.566993 283.97401 
L 331.891469 284.253156 
L 340.215944 285.704204 
L 348.54042 287.149144 
L 356.864895 286.1973 
L 365.189371 279.388921 
L 373.513846 287.079775 
L 381.838322 291.657083 
L 390.162797 295.488 
L 398.487273 292.539097 
L 398.487273 292.539097 
L 398.487273 209.444621 
L 390.162797 194.004444 
L 381.838322 206.834669 
L 373.513846 206.565888 
L 365.189371 211.483068 
L 356.864895 214.386192 
L 348.54042 207.425048 
L 340.215944 194.039057 
L 331.891469 201.130211 
L 323.566993 175.830762 
L 315.242517 166.655324 
L 306.918042 179.416279 
L 298.593566 171.102834 
L 290.269091 165.79044 
L 281.944615 172.180661 
L 273.62014 171.707555 
L 265.295664 199.967054 
L 256.971189 191.644778 
L 248.646713 213.393347 
L 240.322238 223.767202 
L 231.997762 253.349071 
L 223.673287 258.518849 
L 215.348811 245.472358 
L 207.024336 229.452987 
L 198.69986 240.131118 
L 190.375385 243.892976 
L 182.050909 256.34302 
L 173.726434 251.207002 
L 165.401958 251.154255 
L 157.077483 239.148046 
L 148.753007 256.683806 
L 140.428531 250.792253 
L 132.104056 243.256197 
L 123.77958 225.39138 
L 115.455105 247.160711 
L 107.130629 262.470419 
L 98.806154 272.661695 
L 90.481678 288.550398 
L 82.157203 288.474762 
L 73.832727 288.354687 
z
" style="fill:#1f77b4;fill-opacity:0.3;"/>
   </g>
   <g id="PolyCollection_2">
    <path clip-path="url(#p9a27368b24)" d="M 73.832727 288.710674 
L 73.832727 288.710674 
L 82.157203 288.817223 
L 90.481678 288.81651 
L 98.806154 289.61862 
L 107.130629 283.882179 
L 115.455105 268.585174 
L 123.77958 261.983714 
L 132.104056 234.145315 
L 140.428531 224.670859 
L 148.753007 209.360014 
L 157.077483 192.507473 
L 165.401958 174.448488 
L 173.726434 158.365768 
L 182.050909 153.240727 
L 190.375385 168.774713 
L 198.69986 183.362443 
L 207.024336 195.640605 
L 215.348811 203.610715 
L 223.673287 210.123217 
L 231.997762 215.9407 
L 240.322238 218.041529 
L 248.646713 220.970112 
L 256.971189 223.146013 
L 265.295664 227.889654 
L 273.62014 229.423933 
L 281.944615 231.455049 
L 290.269091 234.64919 
L 298.593566 238.470873 
L 306.918042 242.914589 
L 315.242517 241.550142 
L 323.566993 241.445015 
L 331.891469 249.030874 
L 340.215944 246.405883 
L 348.54042 252.744461 
L 356.864895 259.846223 
L 365.189371 270.20108 
L 373.513846 279.423315 
L 381.838322 287.527134 
L 390.162797 292.339162 
L 398.487273 294.059148 
L 398.487273 294.059148 
L 398.487273 210.547417 
L 390.162797 199.295429 
L 381.838322 191.676016 
L 373.513846 187.84083 
L 365.189371 174.871366 
L 356.864895 156.831607 
L 348.54042 147.448834 
L 340.215944 127.979893 
L 331.891469 119.201195 
L 323.566993 100.638901 
L 315.242517 102.008027 
L 306.918042 93.286134 
L 298.593566 89.105836 
L 290.269091 74.249017 
L 281.944615 68.076562 
L 273.62014 63.76596 
L 265.295664 62.407854 
L 256.971189 53.568 
L 248.646713 53.748674 
L 240.322238 53.895759 
L 231.997762 56.311402 
L 223.673287 56.088812 
L 215.348811 59.32745 
L 207.024336 66.960034 
L 198.69986 76.452826 
L 190.375385 87.985788 
L 182.050909 106.762998 
L 173.726434 128.290828 
L 165.401958 150.244978 
L 157.077483 180.366656 
L 148.753007 188.674854 
L 140.428531 182.072334 
L 132.104056 177.625118 
L 123.77958 189.947511 
L 115.455105 220.674815 
L 107.130629 265.055746 
L 98.806154 285.28387 
L 90.481678 288.106291 
L 82.157203 288.474762 
L 73.832727 288.354687 
z
" style="fill:#ff7f0e;fill-opacity:0.3;"/>
   </g>
   <g id="PolyCollection_3">
    <path clip-path="url(#p9a27368b24)" d="M 73.832727 288.710674 
L 73.832727 288.710674 
L 82.157203 288.817223 
L 90.481678 288.81651 
L 98.806154 289.61862 
L 107.130629 283.882179 
L 115.455105 268.585174 
L 123.77958 260.655719 
L 132.104056 234.560197 
L 140.428531 209.84962 
L 148.753007 197.498193 
L 157.077483 188.436872 
L 165.401958 173.938481 
L 173.726434 148.635423 
L 182.050909 141.039344 
L 190.375385 120.136207 
L 198.69986 118.712497 
L 207.024336 111.137056 
L 215.348811 100.964735 
L 223.673287 99.970204 
L 231.997762 91.617338 
L 240.322238 85.409323 
L 248.646713 81.584886 
L 256.971189 78.434106 
L 265.295664 77.086924 
L 273.62014 75.198787 
L 281.944615 81.123494 
L 290.269091 77.893937 
L 298.593566 75.633247 
L 306.918042 74.050764 
L 315.242517 72.990298 
L 323.566993 72.2007 
L 331.891469 71.647981 
L 340.215944 72.459162 
L 348.54042 71.828905 
L 356.864895 75.650891 
L 365.189371 86.663851 
L 373.513846 110.361264 
L 381.838322 132.791015 
L 390.162797 171.888427 
L 398.487273 213.345833 
L 398.487273 213.345833 
L 398.487273 110.549783 
L 390.162797 96.077734 
L 381.838322 76.435834 
L 373.513846 66.643824 
L 365.189371 66.240619 
L 356.864895 69.29609 
L 348.54042 70.439171 
L 340.215944 70.473828 
L 331.891469 70.466825 
L 323.566993 70.513335 
L 315.242517 70.579777 
L 306.918042 70.294191 
L 298.593566 70.266714 
L 290.269091 70.227461 
L 281.944615 70.171386 
L 273.62014 72.271114 
L 265.295664 72.919177 
L 256.971189 72.170926 
L 248.646713 72.810008 
L 240.322238 73.049609 
L 231.997762 73.862125 
L 223.673287 73.78934 
L 215.348811 78.212922 
L 207.024336 82.35704 
L 198.69986 84.379886 
L 190.375385 92.852659 
L 182.050909 98.945465 
L 173.726434 108.806109 
L 165.401958 115.436663 
L 157.077483 132.592301 
L 148.753007 136.243234 
L 140.428531 156.47843 
L 132.104056 162.652745 
L 123.77958 187.21467 
L 115.455105 220.674815 
L 107.130629 265.055746 
L 98.806154 285.28387 
L 90.481678 288.106291 
L 82.157203 288.474762 
L 73.832727 288.354687 
z
" style="fill:#2ca02c;fill-opacity:0.3;"/>
   </g>
   <g id="PolyCollection_4">
    <path clip-path="url(#p9a27368b24)" d="M 73.832727 288.710674 
L 73.832727 288.710674 
L 82.157203 288.817223 
L 90.481678 288.81651 
L 98.806154 289.61862 
L 107.130629 283.882179 
L 115.455105 268.585174 
L 123.77958 260.655719 
L 132.104056 234.560197 
L 140.428531 209.84962 
L 148.753007 197.498193 
L 157.077483 188.436872 
L 165.401958 173.938481 
L 173.726434 148.635423 
L 182.050909 141.039344 
L 190.375385 120.136207 
L 198.69986 118.712497 
L 207.024336 110.975214 
L 215.348811 104.263448 
L 223.673287 105.989933 
L 231.997762 97.16005 
L 240.322238 89.119526 
L 248.646713 83.491159 
L 256.971189 81.05218 
L 265.295664 77.844017 
L 273.62014 77.451337 
L 281.944615 75.323427 
L 290.269091 73.83389 
L 298.593566 74.335621 
L 306.918042 73.142426 
L 315.242517 72.307189 
L 323.566993 71.722523 
L 331.891469 77.711443 
L 340.215944 95.670421 
L 348.54042 102.308888 
L 356.864895 95.360635 
L 365.189371 87.859936 
L 373.513846 88.463676 
L 381.838322 83.614698 
L 390.162797 80.388355 
L 398.487273 77.379339 
L 398.487273 77.379339 
L 398.487273 71.131103 
L 390.162797 71.462303 
L 381.838322 69.122388 
L 373.513846 66.446276 
L 365.189371 65.900291 
L 356.864895 63.989714 
L 348.54042 62.269665 
L 340.215944 64.250647 
L 331.891469 69.347905 
L 323.566993 70.933498 
L 315.242517 71.180011 
L 306.918042 71.532171 
L 298.593566 72.035257 
L 290.269091 72.761433 
L 281.944615 73.791346 
L 273.62014 75.26265 
L 265.295664 74.723887 
L 256.971189 76.594851 
L 248.646713 77.04008 
L 240.322238 79.903699 
L 231.997762 83.994583 
L 223.673287 89.358359 
L 215.348811 83.187347 
L 207.024336 80.456688 
L 198.69986 84.379886 
L 190.375385 92.852659 
L 182.050909 98.945465 
L 173.726434 108.806109 
L 165.401958 115.436663 
L 157.077483 132.592301 
L 148.753007 136.243234 
L 140.428531 156.47843 
L 132.104056 162.652745 
L 123.77958 187.21467 
L 115.455105 220.674815 
L 107.130629 265.055746 
L 98.806154 285.28387 
L 90.481678 288.106291 
L 82.157203 288.474762 
L 73.832727 288.354687 
z
" style="fill:#d62728;fill-opacity:0.3;"/>
   </g>
   <g id="matplotlib.axis_1">
    <g id="xtick_1">
     <g id="line2d_1">
      <defs>
       <path d="M 0 0 
L 0 3.5 
" id="m4f62e3ed2d" style="stroke:#000000;stroke-width:0.8;"/>
      </defs>
      <g>
       <use style="stroke:#000000;stroke-width:0.8;" x="65.508252" xlink:href="#m4f62e3ed2d" y="307.584"/>
      </g>
     </g>
     <g id="text_1">
      <!-- 0 -->
      <g transform="translate(62.327002 322.182437)scale(0.1 -0.1)">
       <defs>
        <path d="M 2034 4250 
Q 1547 4250 1301 3770 
Q 1056 3291 1056 2328 
Q 1056 1369 1301 889 
Q 1547 409 2034 409 
Q 2525 409 2770 889 
Q 3016 1369 3016 2328 
Q 3016 3291 2770 3770 
Q 2525 4250 2034 4250 
z
M 2034 4750 
Q 2819 4750 3233 4129 
Q 3647 3509 3647 2328 
Q 3647 1150 3233 529 
Q 2819 -91 2034 -91 
Q 1250 -91 836 529 
Q 422 1150 422 2328 
Q 422 3509 836 4129 
Q 1250 4750 2034 4750 
z
" id="DejaVuSans-30" transform="scale(0.015625)"/>
       </defs>
       <use xlink:href="#DejaVuSans-30"/>
      </g>
     </g>
    </g>
    <g id="xtick_2">
     <g id="line2d_2">
      <g>
       <use style="stroke:#000000;stroke-width:0.8;" x="107.130629" xlink:href="#m4f62e3ed2d" y="307.584"/>
      </g>
     </g>
     <g id="text_2">
      <!-- 25 -->
      <g transform="translate(100.768129 322.182437)scale(0.1 -0.1)">
       <defs>
        <path d="M 1228 531 
L 3431 531 
L 3431 0 
L 469 0 
L 469 531 
Q 828 903 1448 1529 
Q 2069 2156 2228 2338 
Q 2531 2678 2651 2914 
Q 2772 3150 2772 3378 
Q 2772 3750 2511 3984 
Q 2250 4219 1831 4219 
Q 1534 4219 1204 4116 
Q 875 4013 500 3803 
L 500 4441 
Q 881 4594 1212 4672 
Q 1544 4750 1819 4750 
Q 2544 4750 2975 4387 
Q 3406 4025 3406 3419 
Q 3406 3131 3298 2873 
Q 3191 2616 2906 2266 
Q 2828 2175 2409 1742 
Q 1991 1309 1228 531 
z
" id="DejaVuSans-32" transform="scale(0.015625)"/>
        <path d="M 691 4666 
L 3169 4666 
L 3169 4134 
L 1269 4134 
L 1269 2991 
Q 1406 3038 1543 3061 
Q 1681 3084 1819 3084 
Q 2600 3084 3056 2656 
Q 3513 2228 3513 1497 
Q 3513 744 3044 326 
Q 2575 -91 1722 -91 
Q 1428 -91 1123 -41 
Q 819 9 494 109 
L 494 744 
Q 775 591 1075 516 
Q 1375 441 1709 441 
Q 2250 441 2565 725 
Q 2881 1009 2881 1497 
Q 2881 1984 2565 2268 
Q 2250 2553 1709 2553 
Q 1456 2553 1204 2497 
Q 953 2441 691 2322 
L 691 4666 
z
" id="DejaVuSans-35" transform="scale(0.015625)"/>
       </defs>
       <use xlink:href="#DejaVuSans-32"/>
       <use x="63.623047" xlink:href="#DejaVuSans-35"/>
      </g>
     </g>
    </g>
    <g id="xtick_3">
     <g id="line2d_3">
      <g>
       <use style="stroke:#000000;stroke-width:0.8;" x="148.753007" xlink:href="#m4f62e3ed2d" y="307.584"/>
      </g>
     </g>
     <g id="text_3">
      <!-- 50 -->
      <g transform="translate(142.390507 322.182437)scale(0.1 -0.1)">
       <use xlink:href="#DejaVuSans-35"/>
       <use x="63.623047" xlink:href="#DejaVuSans-30"/>
      </g>
     </g>
    </g>
    <g id="xtick_4">
     <g id="line2d_4">
      <g>
       <use style="stroke:#000000;stroke-width:0.8;" x="190.375385" xlink:href="#m4f62e3ed2d" y="307.584"/>
      </g>
     </g>
     <g id="text_4">
      <!-- 75 -->
      <g transform="translate(184.012885 322.182437)scale(0.1 -0.1)">
       <defs>
        <path d="M 525 4666 
L 3525 4666 
L 3525 4397 
L 1831 0 
L 1172 0 
L 2766 4134 
L 525 4134 
L 525 4666 
z
" id="DejaVuSans-37" transform="scale(0.015625)"/>
       </defs>
       <use xlink:href="#DejaVuSans-37"/>
       <use x="63.623047" xlink:href="#DejaVuSans-35"/>
      </g>
     </g>
    </g>
    <g id="xtick_5">
     <g id="line2d_5">
      <g>
       <use style="stroke:#000000;stroke-width:0.8;" x="231.997762" xlink:href="#m4f62e3ed2d" y="307.584"/>
      </g>
     </g>
     <g id="text_5">
      <!-- 100 -->
      <g transform="translate(222.454012 322.182437)scale(0.1 -0.1)">
       <defs>
        <path d="M 794 531 
L 1825 531 
L 1825 4091 
L 703 3866 
L 703 4441 
L 1819 4666 
L 2450 4666 
L 2450 531 
L 3481 531 
L 3481 0 
L 794 0 
L 794 531 
z
" id="DejaVuSans-31" transform="scale(0.015625)"/>
       </defs>
       <use xlink:href="#DejaVuSans-31"/>
       <use x="63.623047" xlink:href="#DejaVuSans-30"/>
       <use x="127.246094" xlink:href="#DejaVuSans-30"/>
      </g>
     </g>
    </g>
    <g id="xtick_6">
     <g id="line2d_6">
      <g>
       <use style="stroke:#000000;stroke-width:0.8;" x="273.62014" xlink:href="#m4f62e3ed2d" y="307.584"/>
      </g>
     </g>
     <g id="text_6">
      <!-- 125 -->
      <g transform="translate(264.07639 322.182437)scale(0.1 -0.1)">
       <use xlink:href="#DejaVuSans-31"/>
       <use x="63.623047" xlink:href="#DejaVuSans-32"/>
       <use x="127.246094" xlink:href="#DejaVuSans-35"/>
      </g>
     </g>
    </g>
    <g id="xtick_7">
     <g id="line2d_7">
      <g>
       <use style="stroke:#000000;stroke-width:0.8;" x="315.242517" xlink:href="#m4f62e3ed2d" y="307.584"/>
      </g>
     </g>
     <g id="text_7">
      <!-- 150 -->
      <g transform="translate(305.698767 322.182437)scale(0.1 -0.1)">
       <use xlink:href="#DejaVuSans-31"/>
       <use x="63.623047" xlink:href="#DejaVuSans-35"/>
       <use x="127.246094" xlink:href="#DejaVuSans-30"/>
      </g>
     </g>
    </g>
    <g id="xtick_8">
     <g id="line2d_8">
      <g>
       <use style="stroke:#000000;stroke-width:0.8;" x="356.864895" xlink:href="#m4f62e3ed2d" y="307.584"/>
      </g>
     </g>
     <g id="text_8">
      <!-- 175 -->
      <g transform="translate(347.321145 322.182437)scale(0.1 -0.1)">
       <use xlink:href="#DejaVuSans-31"/>
       <use x="63.623047" xlink:href="#DejaVuSans-37"/>
       <use x="127.246094" xlink:href="#DejaVuSans-35"/>
      </g>
     </g>
    </g>
    <g id="xtick_9">
     <g id="line2d_9">
      <g>
       <use style="stroke:#000000;stroke-width:0.8;" x="398.487273" xlink:href="#m4f62e3ed2d" y="307.584"/>
      </g>
     </g>
     <g id="text_9">
      <!-- 200 -->
      <g transform="translate(388.943523 322.182437)scale(0.1 -0.1)">
       <use xlink:href="#DejaVuSans-32"/>
       <use x="63.623047" xlink:href="#DejaVuSans-30"/>
       <use x="127.246094" xlink:href="#DejaVuSans-30"/>
      </g>
     </g>
    </g>
   </g>
   <g id="matplotlib.axis_2">
    <g id="ytick_1">
     <g id="line2d_10">
      <defs>
       <path d="M 0 0 
L -3.5 0 
" id="m4d4b25c565" style="stroke:#000000;stroke-width:0.8;"/>
      </defs>
      <g>
       <use style="stroke:#000000;stroke-width:0.8;" x="57.6" xlink:href="#m4d4b25c565" y="300.672055"/>
      </g>
     </g>
     <g id="text_10">
      <!-- 0 -->
      <g transform="translate(44.2375 304.471274)scale(0.1 -0.1)">
       <use xlink:href="#DejaVuSans-30"/>
      </g>
     </g>
    </g>
    <g id="ytick_2">
     <g id="line2d_11">
      <g>
       <use style="stroke:#000000;stroke-width:0.8;" x="57.6" xlink:href="#m4d4b25c565" y="268.922364"/>
      </g>
     </g>
     <g id="text_11">
      <!-- 25 -->
      <g transform="translate(37.875 272.721582)scale(0.1 -0.1)">
       <use xlink:href="#DejaVuSans-32"/>
       <use x="63.623047" xlink:href="#DejaVuSans-35"/>
      </g>
     </g>
    </g>
    <g id="ytick_3">
     <g id="line2d_12">
      <g>
       <use style="stroke:#000000;stroke-width:0.8;" x="57.6" xlink:href="#m4d4b25c565" y="237.172672"/>
      </g>
     </g>
     <g id="text_12">
      <!-- 50 -->
      <g transform="translate(37.875 240.97189)scale(0.1 -0.1)">
       <use xlink:href="#DejaVuSans-35"/>
       <use x="63.623047" xlink:href="#DejaVuSans-30"/>
      </g>
     </g>
    </g>
    <g id="ytick_4">
     <g id="line2d_13">
      <g>
       <use style="stroke:#000000;stroke-width:0.8;" x="57.6" xlink:href="#m4d4b25c565" y="205.42298"/>
      </g>
     </g>
     <g id="text_13">
      <!-- 75 -->
      <g transform="translate(37.875 209.222198)scale(0.1 -0.1)">
       <use xlink:href="#DejaVuSans-37"/>
       <use x="63.623047" xlink:href="#DejaVuSans-35"/>
      </g>
     </g>
    </g>
    <g id="ytick_5">
     <g id="line2d_14">
      <g>
       <use style="stroke:#000000;stroke-width:0.8;" x="57.6" xlink:href="#m4d4b25c565" y="173.673288"/>
      </g>
     </g>
     <g id="text_14">
      <!-- 100 -->
      <g transform="translate(31.5125 177.472506)scale(0.1 -0.1)">
       <use xlink:href="#DejaVuSans-31"/>
       <use x="63.623047" xlink:href="#DejaVuSans-30"/>
       <use x="127.246094" xlink:href="#DejaVuSans-30"/>
      </g>
     </g>
    </g>
    <g id="ytick_6">
     <g id="line2d_15">
      <g>
       <use style="stroke:#000000;stroke-width:0.8;" x="57.6" xlink:href="#m4d4b25c565" y="141.923596"/>
      </g>
     </g>
     <g id="text_15">
      <!-- 125 -->
      <g transform="translate(31.5125 145.722814)scale(0.1 -0.1)">
       <use xlink:href="#DejaVuSans-31"/>
       <use x="63.623047" xlink:href="#DejaVuSans-32"/>
       <use x="127.246094" xlink:href="#DejaVuSans-35"/>
      </g>
     </g>
    </g>
    <g id="ytick_7">
     <g id="line2d_16">
      <g>
       <use style="stroke:#000000;stroke-width:0.8;" x="57.6" xlink:href="#m4d4b25c565" y="110.173904"/>
      </g>
     </g>
     <g id="text_16">
      <!-- 150 -->
      <g transform="translate(31.5125 113.973122)scale(0.1 -0.1)">
       <use xlink:href="#DejaVuSans-31"/>
       <use x="63.623047" xlink:href="#DejaVuSans-35"/>
       <use x="127.246094" xlink:href="#DejaVuSans-30"/>
      </g>
     </g>
    </g>
    <g id="ytick_8">
     <g id="line2d_17">
      <g>
       <use style="stroke:#000000;stroke-width:0.8;" x="57.6" xlink:href="#m4d4b25c565" y="78.424212"/>
      </g>
     </g>
     <g id="text_17">
      <!-- 175 -->
      <g transform="translate(31.5125 82.22343)scale(0.1 -0.1)">
       <use xlink:href="#DejaVuSans-31"/>
       <use x="63.623047" xlink:href="#DejaVuSans-37"/>
       <use x="127.246094" xlink:href="#DejaVuSans-35"/>
      </g>
     </g>
    </g>
    <g id="ytick_9">
     <g id="line2d_18">
      <g>
       <use style="stroke:#000000;stroke-width:0.8;" x="57.6" xlink:href="#m4d4b25c565" y="46.67452"/>
      </g>
     </g>
     <g id="text_18">
      <!-- 200 -->
      <g transform="translate(31.5125 50.473738)scale(0.1 -0.1)">
       <use xlink:href="#DejaVuSans-32"/>
       <use x="63.623047" xlink:href="#DejaVuSans-30"/>
       <use x="127.246094" xlink:href="#DejaVuSans-30"/>
      </g>
     </g>
    </g>
   </g>
   <g id="line2d_19">
    <path clip-path="url(#p9a27368b24)" d="M 73.832727 288.53268 
L 82.157203 288.645992 
L 90.481678 288.763145 
L 98.806154 281.073063 
L 107.130629 273.703777 
L 115.455105 266.84903 
L 123.77958 258.036804 
L 132.104056 264.302954 
L 140.428531 266.487444 
L 148.753007 268.481806 
L 157.077483 254.028037 
L 165.401958 258.554837 
L 173.726434 259.898262 
L 182.050909 265.435931 
L 190.375385 258.377582 
L 198.69986 260.039203 
L 207.024336 258.885861 
L 215.348811 267.216247 
L 223.673287 273.686712 
L 231.997762 266.271888 
L 240.322238 256.958013 
L 248.646713 248.376757 
L 256.971189 239.461234 
L 265.295664 244.10311 
L 273.62014 226.657479 
L 281.944615 226.889954 
L 290.269091 224.224933 
L 298.593566 228.089111 
L 306.918042 233.105602 
L 315.242517 226.898537 
L 323.566993 229.902386 
L 331.891469 242.691683 
L 340.215944 239.87163 
L 348.54042 247.287096 
L 356.864895 250.291746 
L 365.189371 245.435994 
L 373.513846 246.822832 
L 381.838322 249.245876 
L 390.162797 244.746222 
L 398.487273 250.991859 
" style="fill:none;stroke:#1f77b4;stroke-linecap:square;stroke-width:1.5;"/>
   </g>
   <g id="line2d_20">
    <path clip-path="url(#p9a27368b24)" d="M 73.832727 288.53268 
L 82.157203 288.645992 
L 90.481678 288.4614 
L 98.806154 287.451245 
L 107.130629 274.468962 
L 115.455105 244.629994 
L 123.77958 225.965612 
L 132.104056 205.885216 
L 140.428531 203.371597 
L 148.753007 199.017434 
L 157.077483 186.437065 
L 165.401958 162.346733 
L 173.726434 143.328298 
L 182.050909 130.001863 
L 190.375385 128.380251 
L 198.69986 129.907634 
L 207.024336 131.30032 
L 215.348811 131.469083 
L 223.673287 133.106015 
L 231.997762 136.126051 
L 240.322238 135.968644 
L 248.646713 137.359393 
L 256.971189 138.357007 
L 265.295664 145.148754 
L 273.62014 146.594947 
L 281.944615 149.765806 
L 290.269091 154.449104 
L 298.593566 163.788354 
L 306.918042 168.100362 
L 315.242517 171.779085 
L 323.566993 171.041958 
L 331.891469 184.116035 
L 340.215944 187.192888 
L 348.54042 200.096648 
L 356.864895 208.338915 
L 365.189371 222.536223 
L 373.513846 233.632072 
L 381.838322 239.601575 
L 390.162797 245.817296 
L 398.487273 252.303282 
" style="fill:none;stroke:#ff7f0e;stroke-linecap:square;stroke-width:1.5;"/>
   </g>
   <g id="line2d_21">
    <path clip-path="url(#p9a27368b24)" d="M 73.832727 288.53268 
L 82.157203 288.645992 
L 90.481678 288.4614 
L 98.806154 287.451245 
L 107.130629 274.468962 
L 115.455105 244.629994 
L 123.77958 223.935195 
L 132.104056 198.606471 
L 140.428531 183.164025 
L 148.753007 166.870714 
L 157.077483 160.514586 
L 165.401958 144.687572 
L 173.726434 128.720766 
L 182.050909 119.992404 
L 190.375385 106.494433 
L 198.69986 101.546192 
L 207.024336 96.747048 
L 215.348811 89.588828 
L 223.673287 86.879772 
L 231.997762 82.739732 
L 240.322238 79.229466 
L 248.646713 77.197447 
L 256.971189 75.302516 
L 265.295664 75.003051 
L 273.62014 73.734951 
L 281.944615 75.64744 
L 290.269091 74.060699 
L 298.593566 72.94998 
L 306.918042 72.172477 
L 315.242517 71.785037 
L 323.566993 71.357017 
L 331.891469 71.057403 
L 340.215944 71.466495 
L 348.54042 71.134038 
L 356.864895 72.473491 
L 365.189371 76.452235 
L 373.513846 88.502544 
L 381.838322 104.613425 
L 390.162797 133.98308 
L 398.487273 161.947808 
" style="fill:none;stroke:#2ca02c;stroke-linecap:square;stroke-width:1.5;"/>
   </g>
   <g id="line2d_22">
    <path clip-path="url(#p9a27368b24)" d="M 73.832727 288.53268 
L 82.157203 288.645992 
L 90.481678 288.4614 
L 98.806154 287.451245 
L 107.130629 274.468962 
L 115.455105 244.629994 
L 123.77958 223.935195 
L 132.104056 198.606471 
L 140.428531 183.164025 
L 148.753007 166.870714 
L 157.077483 160.514586 
L 165.401958 144.687572 
L 173.726434 128.720766 
L 182.050909 119.992404 
L 190.375385 106.494433 
L 198.69986 101.546192 
L 207.024336 95.715951 
L 215.348811 93.725397 
L 223.673287 97.674146 
L 231.997762 90.577316 
L 240.322238 84.511612 
L 248.646713 80.26562 
L 256.971189 78.823515 
L 265.295664 76.283952 
L 273.62014 76.356994 
L 281.944615 74.557387 
L 290.269091 73.297662 
L 298.593566 73.185439 
L 306.918042 72.337298 
L 315.242517 71.7436 
L 323.566993 71.328011 
L 331.891469 73.529674 
L 340.215944 79.960534 
L 348.54042 82.289277 
L 356.864895 79.675175 
L 365.189371 76.880113 
L 373.513846 77.454976 
L 381.838322 76.368543 
L 390.162797 75.925329 
L 398.487273 74.255221 
" style="fill:none;stroke:#d62728;stroke-linecap:square;stroke-width:1.5;"/>
   </g>
   <g id="patch_3">
    <path d="M 57.6 307.584 
L 57.6 41.472 
" style="fill:none;stroke:#000000;stroke-linecap:square;stroke-linejoin:miter;stroke-width:0.8;"/>
   </g>
   <g id="patch_4">
    <path d="M 414.72 307.584 
L 414.72 41.472 
" style="fill:none;stroke:#000000;stroke-linecap:square;stroke-linejoin:miter;stroke-width:0.8;"/>
   </g>
   <g id="patch_5">
    <path d="M 57.6 307.584 
L 414.72 307.584 
" style="fill:none;stroke:#000000;stroke-linecap:square;stroke-linejoin:miter;stroke-width:0.8;"/>
   </g>
   <g id="patch_6">
    <path d="M 57.6 41.472 
L 414.72 41.472 
" style="fill:none;stroke:#000000;stroke-linecap:square;stroke-linejoin:miter;stroke-width:0.8;"/>
   </g>
   <g id="legend_1">
    <g id="patch_7">
     <path d="M 64.6 108.1845 
L 188.182812 108.1845 
Q 190.182812 108.1845 190.182812 106.1845 
L 190.182812 48.472 
Q 190.182812 46.472 188.182812 46.472 
L 64.6 46.472 
Q 62.6 46.472 62.6 48.472 
L 62.6 106.1845 
Q 62.6 108.1845 64.6 108.1845 
z
" style="fill:#ffffff;opacity:0.8;stroke:#cccccc;stroke-linejoin:miter;"/>
    </g>
    <g id="line2d_20">
     <path d="M 66.6 54.570438 
L 86.6 54.570438 
" style="fill:none;stroke:#1f77b4;stroke-linecap:square;stroke-width:1.5;"/>
    </g>
    <g id="line2d_21"/>
    <g id="text_16">
     <!-- buffersize = 10^2 -->
     <g transform="translate(94.6 58.070438)scale(0.1 -0.1)">
      <defs>
       <path d="M 3116 1747 
Q 3116 2381 2855 2742 
Q 2594 3103 2138 3103 
Q 1681 3103 1420 2742 
Q 1159 2381 1159 1747 
Q 1159 1113 1420 752 
Q 1681 391 2138 391 
Q 2594 391 2855 752 
Q 3116 1113 3116 1747 
z
M 1159 2969 
Q 1341 3281 1617 3432 
Q 1894 3584 2278 3584 
Q 2916 3584 3314 3078 
Q 3713 2572 3713 1747 
Q 3713 922 3314 415 
Q 2916 -91 2278 -91 
Q 1894 -91 1617 61 
Q 1341 213 1159 525 
L 1159 0 
L 581 0 
L 581 4863 
L 1159 4863 
L 1159 2969 
z
" id="DejaVuSans-62" transform="scale(0.015625)"/>
       <path d="M 544 1381 
L 544 3500 
L 1119 3500 
L 1119 1403 
Q 1119 906 1312 657 
Q 1506 409 1894 409 
Q 2359 409 2629 706 
Q 2900 1003 2900 1516 
L 2900 3500 
L 3475 3500 
L 3475 0 
L 2900 0 
L 2900 538 
Q 2691 219 2414 64 
Q 2138 -91 1772 -91 
Q 1169 -91 856 284 
Q 544 659 544 1381 
z
M 1991 3584 
L 1991 3584 
z
" id="DejaVuSans-75" transform="scale(0.015625)"/>
       <path d="M 2375 4863 
L 2375 4384 
L 1825 4384 
Q 1516 4384 1395 4259 
Q 1275 4134 1275 3809 
L 1275 3500 
L 2222 3500 
L 2222 3053 
L 1275 3053 
L 1275 0 
L 697 0 
L 697 3053 
L 147 3053 
L 147 3500 
L 697 3500 
L 697 3744 
Q 697 4328 969 4595 
Q 1241 4863 1831 4863 
L 2375 4863 
z
" id="DejaVuSans-66" transform="scale(0.015625)"/>
       <path d="M 3597 1894 
L 3597 1613 
L 953 1613 
Q 991 1019 1311 708 
Q 1631 397 2203 397 
Q 2534 397 2845 478 
Q 3156 559 3463 722 
L 3463 178 
Q 3153 47 2828 -22 
Q 2503 -91 2169 -91 
Q 1331 -91 842 396 
Q 353 884 353 1716 
Q 353 2575 817 3079 
Q 1281 3584 2069 3584 
Q 2775 3584 3186 3129 
Q 3597 2675 3597 1894 
z
M 3022 2063 
Q 3016 2534 2758 2815 
Q 2500 3097 2075 3097 
Q 1594 3097 1305 2825 
Q 1016 2553 972 2059 
L 3022 2063 
z
" id="DejaVuSans-65" transform="scale(0.015625)"/>
       <path d="M 2631 2963 
Q 2534 3019 2420 3045 
Q 2306 3072 2169 3072 
Q 1681 3072 1420 2755 
Q 1159 2438 1159 1844 
L 1159 0 
L 581 0 
L 581 3500 
L 1159 3500 
L 1159 2956 
Q 1341 3275 1631 3429 
Q 1922 3584 2338 3584 
Q 2397 3584 2469 3576 
Q 2541 3569 2628 3553 
L 2631 2963 
z
" id="DejaVuSans-72" transform="scale(0.015625)"/>
       <path d="M 2834 3397 
L 2834 2853 
Q 2591 2978 2328 3040 
Q 2066 3103 1784 3103 
Q 1356 3103 1142 2972 
Q 928 2841 928 2578 
Q 928 2378 1081 2264 
Q 1234 2150 1697 2047 
L 1894 2003 
Q 2506 1872 2764 1633 
Q 3022 1394 3022 966 
Q 3022 478 2636 193 
Q 2250 -91 1575 -91 
Q 1294 -91 989 -36 
Q 684 19 347 128 
L 347 722 
Q 666 556 975 473 
Q 1284 391 1588 391 
Q 1994 391 2212 530 
Q 2431 669 2431 922 
Q 2431 1156 2273 1281 
Q 2116 1406 1581 1522 
L 1381 1569 
Q 847 1681 609 1914 
Q 372 2147 372 2553 
Q 372 3047 722 3315 
Q 1072 3584 1716 3584 
Q 2034 3584 2315 3537 
Q 2597 3491 2834 3397 
z
" id="DejaVuSans-73" transform="scale(0.015625)"/>
       <path d="M 603 3500 
L 1178 3500 
L 1178 0 
L 603 0 
L 603 3500 
z
M 603 4863 
L 1178 4863 
L 1178 4134 
L 603 4134 
L 603 4863 
z
" id="DejaVuSans-69" transform="scale(0.015625)"/>
       <path d="M 353 3500 
L 3084 3500 
L 3084 2975 
L 922 459 
L 3084 459 
L 3084 0 
L 275 0 
L 275 525 
L 2438 3041 
L 353 3041 
L 353 3500 
z
" id="DejaVuSans-7a" transform="scale(0.015625)"/>
       <path id="DejaVuSans-20" transform="scale(0.015625)"/>
       <path d="M 678 2906 
L 4684 2906 
L 4684 2381 
L 678 2381 
L 678 2906 
z
M 678 1631 
L 4684 1631 
L 4684 1100 
L 678 1100 
L 678 1631 
z
" id="DejaVuSans-3d" transform="scale(0.015625)"/>
       <path d="M 2988 4666 
L 4684 2925 
L 4056 2925 
L 2681 4159 
L 1306 2925 
L 678 2925 
L 2375 4666 
L 2988 4666 
z
" id="DejaVuSans-5e" transform="scale(0.015625)"/>
      </defs>
      <use xlink:href="#DejaVuSans-62"/>
      <use x="63.476562" xlink:href="#DejaVuSans-75"/>
      <use x="126.855469" xlink:href="#DejaVuSans-66"/>
      <use x="162.060547" xlink:href="#DejaVuSans-66"/>
      <use x="197.265625" xlink:href="#DejaVuSans-65"/>
      <use x="258.789062" xlink:href="#DejaVuSans-72"/>
      <use x="299.902344" xlink:href="#DejaVuSans-73"/>
      <use x="352.001953" xlink:href="#DejaVuSans-69"/>
      <use x="379.785156" xlink:href="#DejaVuSans-7a"/>
      <use x="432.275391" xlink:href="#DejaVuSans-65"/>
      <use x="493.798828" xlink:href="#DejaVuSans-20"/>
      <use x="525.585938" xlink:href="#DejaVuSans-3d"/>
      <use x="609.375" xlink:href="#DejaVuSans-20"/>
      <use x="641.162109" xlink:href="#DejaVuSans-31"/>
      <use x="704.785156" xlink:href="#DejaVuSans-30"/>
      <use x="768.408203" xlink:href="#DejaVuSans-5e"/>
      <use x="852.197266" xlink:href="#DejaVuSans-32"/>
     </g>
    </g>
    <g id="line2d_22">
     <path d="M 66.6 69.248563 
L 86.6 69.248563 
" style="fill:none;stroke:#ff7f0e;stroke-linecap:square;stroke-width:1.5;"/>
    </g>
    <g id="line2d_23"/>
    <g id="text_17">
     <!-- buffersize = 10^3 -->
     <g transform="translate(94.6 72.748563)scale(0.1 -0.1)">
      <defs>
       <path d="M 2597 2516 
Q 3050 2419 3304 2112 
Q 3559 1806 3559 1356 
Q 3559 666 3084 287 
Q 2609 -91 1734 -91 
Q 1441 -91 1130 -33 
Q 819 25 488 141 
L 488 750 
Q 750 597 1062 519 
Q 1375 441 1716 441 
Q 2309 441 2620 675 
Q 2931 909 2931 1356 
Q 2931 1769 2642 2001 
Q 2353 2234 1838 2234 
L 1294 2234 
L 1294 2753 
L 1863 2753 
Q 2328 2753 2575 2939 
Q 2822 3125 2822 3475 
Q 2822 3834 2567 4026 
Q 2313 4219 1838 4219 
Q 1578 4219 1281 4162 
Q 984 4106 628 3988 
L 628 4550 
Q 988 4650 1302 4700 
Q 1616 4750 1894 4750 
Q 2613 4750 3031 4423 
Q 3450 4097 3450 3541 
Q 3450 3153 3228 2886 
Q 3006 2619 2597 2516 
z
" id="DejaVuSans-33" transform="scale(0.015625)"/>
      </defs>
      <use xlink:href="#DejaVuSans-62"/>
      <use x="63.476562" xlink:href="#DejaVuSans-75"/>
      <use x="126.855469" xlink:href="#DejaVuSans-66"/>
      <use x="162.060547" xlink:href="#DejaVuSans-66"/>
      <use x="197.265625" xlink:href="#DejaVuSans-65"/>
      <use x="258.789062" xlink:href="#DejaVuSans-72"/>
      <use x="299.902344" xlink:href="#DejaVuSans-73"/>
      <use x="352.001953" xlink:href="#DejaVuSans-69"/>
      <use x="379.785156" xlink:href="#DejaVuSans-7a"/>
      <use x="432.275391" xlink:href="#DejaVuSans-65"/>
      <use x="493.798828" xlink:href="#DejaVuSans-20"/>
      <use x="525.585938" xlink:href="#DejaVuSans-3d"/>
      <use x="609.375" xlink:href="#DejaVuSans-20"/>
      <use x="641.162109" xlink:href="#DejaVuSans-31"/>
      <use x="704.785156" xlink:href="#DejaVuSans-30"/>
      <use x="768.408203" xlink:href="#DejaVuSans-5e"/>
      <use x="852.197266" xlink:href="#DejaVuSans-33"/>
     </g>
    </g>
    <g id="line2d_24">
     <path d="M 66.6 83.926688 
L 86.6 83.926688 
" style="fill:none;stroke:#2ca02c;stroke-linecap:square;stroke-width:1.5;"/>
    </g>
    <g id="line2d_25"/>
    <g id="text_18">
     <!-- buffersize = 10^4 -->
     <g transform="translate(94.6 87.426688)scale(0.1 -0.1)">
      <defs>
       <path d="M 2419 4116 
L 825 1625 
L 2419 1625 
L 2419 4116 
z
M 2253 4666 
L 3047 4666 
L 3047 1625 
L 3713 1625 
L 3713 1100 
L 3047 1100 
L 3047 0 
L 2419 0 
L 2419 1100 
L 313 1100 
L 313 1709 
L 2253 4666 
z
" id="DejaVuSans-34" transform="scale(0.015625)"/>
      </defs>
      <use xlink:href="#DejaVuSans-62"/>
      <use x="63.476562" xlink:href="#DejaVuSans-75"/>
      <use x="126.855469" xlink:href="#DejaVuSans-66"/>
      <use x="162.060547" xlink:href="#DejaVuSans-66"/>
      <use x="197.265625" xlink:href="#DejaVuSans-65"/>
      <use x="258.789062" xlink:href="#DejaVuSans-72"/>
      <use x="299.902344" xlink:href="#DejaVuSans-73"/>
      <use x="352.001953" xlink:href="#DejaVuSans-69"/>
      <use x="379.785156" xlink:href="#DejaVuSans-7a"/>
      <use x="432.275391" xlink:href="#DejaVuSans-65"/>
      <use x="493.798828" xlink:href="#DejaVuSans-20"/>
      <use x="525.585938" xlink:href="#DejaVuSans-3d"/>
      <use x="609.375" xlink:href="#DejaVuSans-20"/>
      <use x="641.162109" xlink:href="#DejaVuSans-31"/>
      <use x="704.785156" xlink:href="#DejaVuSans-30"/>
      <use x="768.408203" xlink:href="#DejaVuSans-5e"/>
      <use x="852.197266" xlink:href="#DejaVuSans-34"/>
     </g>
    </g>
    <g id="line2d_26">
     <path d="M 66.6 98.604813 
L 86.6 98.604813 
" style="fill:none;stroke:#d62728;stroke-linecap:square;stroke-width:1.5;"/>
    </g>
    <g id="line2d_27"/>
    <g id="text_19">
     <!-- buffersize = 10^5 -->
     <g transform="translate(94.6 102.104813)scale(0.1 -0.1)">
      <use xlink:href="#DejaVuSans-62"/>
      <use x="63.476562" xlink:href="#DejaVuSans-75"/>
      <use x="126.855469" xlink:href="#DejaVuSans-66"/>
      <use x="162.060547" xlink:href="#DejaVuSans-66"/>
      <use x="197.265625" xlink:href="#DejaVuSans-65"/>
      <use x="258.789062" xlink:href="#DejaVuSans-72"/>
      <use x="299.902344" xlink:href="#DejaVuSans-73"/>
      <use x="352.001953" xlink:href="#DejaVuSans-69"/>
      <use x="379.785156" xlink:href="#DejaVuSans-7a"/>
      <use x="432.275391" xlink:href="#DejaVuSans-65"/>
      <use x="493.798828" xlink:href="#DejaVuSans-20"/>
      <use x="525.585938" xlink:href="#DejaVuSans-3d"/>
      <use x="609.375" xlink:href="#DejaVuSans-20"/>
      <use x="641.162109" xlink:href="#DejaVuSans-31"/>
      <use x="704.785156" xlink:href="#DejaVuSans-30"/>
      <use x="768.408203" xlink:href="#DejaVuSans-5e"/>
      <use x="852.197266" xlink:href="#DejaVuSans-35"/>
     </g>
    </g>
   </g>
  </g>
 </g>
 <defs>
  <clipPath id="p71b1e9ab0b">
   <rect height="266.112" width="357.12" x="57.6" y="41.472"/>
  </clipPath>
 </defs>
</svg>
