<?xml version="1.0" encoding="utf-8" standalone="no"?>
<!DOCTYPE svg PUBLIC "-//W3C//DTD SVG 1.1//EN"
  "http://www.w3.org/Graphics/SVG/1.1/DTD/svg11.dtd">
<svg height="345.6pt" version="1.1" viewBox="0 0 460.8 345.6" width="460.8pt" xmlns="http://www.w3.org/2000/svg" xmlns:xlink="http://www.w3.org/1999/xlink">
 <metadata>
  <rdf:RDF xmlns:cc="http://creativecommons.org/ns#" xmlns:dc="http://purl.org/dc/elements/1.1/" xmlns:rdf="http://www.w3.org/1999/02/22-rdf-syntax-ns#">
   <cc:Work>
    <dc:type rdf:resource="http://purl.org/dc/dcmitype/StillImage"/>
    <dc:date>2022-01-03T16:57:03.411209</dc:date>
    <dc:format>image/svg+xml</dc:format>
    <dc:creator>
     <cc:Agent>
      <dc:title>Matplotlib v3.4.3, https://matplotlib.org/</dc:title>
     </cc:Agent>
    </dc:creator>
   </cc:Work>
  </rdf:RDF>
 </metadata>
 <defs>
  <style type="text/css">*{stroke-linecap:butt;stroke-linejoin:round;}</style>
 </defs>
 <g id="figure_1">
  <g id="patch_1">
   <path d="M 0 345.6 
L 460.8 345.6 
L 460.8 0 
L 0 0 
z
" style="fill:#ffffff;"/>
  </g>
  <g id="axes_1">
   <g id="patch_2">
    <path d="M 57.6 307.584 
L 414.72 307.584 
L 414.72 41.472 
L 57.6 41.472 
z
" style="fill:#ffffff;"/>
   </g>
   <g id="PolyCollection_1">
    <path clip-path="url(#pbe9f041cd3)" d="M 73.832727 254.306966 
L 73.832727 254.306966 
L 77.942278 254.306966 
L 82.05183 254.306966 
L 86.161381 254.306966 
L 90.270932 254.306966 
L 94.380483 254.306966 
L 98.490035 254.306966 
L 102.599586 254.306966 
L 106.709137 254.306966 
L 110.818688 254.306966 
L 114.928239 254.306966 
L 119.037791 254.306966 
L 123.147342 254.306966 
L 127.256893 254.306966 
L 131.366444 254.306966 
L 135.475995 254.306966 
L 139.585547 254.306966 
L 143.695098 254.306966 
L 147.804649 254.306966 
L 151.9142 254.306966 
L 156.023751 254.306966 
L 160.133303 254.306966 
L 164.242854 254.306966 
L 168.352405 254.306966 
L 172.461956 254.306966 
L 176.571507 254.306966 
L 180.681059 254.306966 
L 184.79061 254.306966 
L 188.900161 254.306966 
L 193.009712 254.306966 
L 197.119264 254.306966 
L 201.228815 254.306966 
L 205.338366 254.306966 
L 209.447917 254.306966 
L 213.557468 254.306966 
L 217.66702 254.306966 
L 221.776571 254.306966 
L 225.886122 254.306966 
L 229.995673 254.306966 
L 234.105224 254.306966 
L 238.214776 254.306966 
L 242.324327 254.306966 
L 246.433878 254.306966 
L 250.543429 254.306966 
L 254.65298 254.306966 
L 258.762532 254.306966 
L 262.872083 254.306966 
L 266.981634 254.306966 
L 271.091185 254.306966 
L 275.200736 254.306966 
L 279.310288 254.306966 
L 283.419839 254.306966 
L 287.52939 254.306966 
L 291.638941 254.306966 
L 295.748493 254.306966 
L 299.858044 254.306966 
L 303.967595 254.306966 
L 308.077146 254.306966 
L 312.186697 254.306966 
L 316.296249 254.306966 
L 320.4058 254.306966 
L 324.515351 254.306966 
L 328.624902 254.306966 
L 332.734453 254.306966 
L 336.844005 254.306966 
L 340.953556 254.306966 
L 345.063107 254.306966 
L 349.172658 254.306966 
L 353.282209 254.306966 
L 357.391761 254.306966 
L 361.501312 254.306966 
L 365.610863 254.306966 
L 369.720414 254.306966 
L 373.829965 254.306966 
L 377.939517 254.306966 
L 382.049068 254.306966 
L 386.158619 254.306966 
L 390.26817 254.306966 
L 394.377722 254.306966 
L 398.487273 254.306966 
L 398.487273 254.306966 
L 398.487273 254.306966 
L 394.377722 254.306966 
L 390.26817 254.306966 
L 386.158619 254.306966 
L 382.049068 254.306966 
L 377.939517 254.306966 
L 373.829965 254.306966 
L 369.720414 254.306966 
L 365.610863 254.306966 
L 361.501312 254.306966 
L 357.391761 254.306966 
L 353.282209 254.306966 
L 349.172658 254.306966 
L 345.063107 254.306966 
L 340.953556 254.306966 
L 336.844005 254.306966 
L 332.734453 254.306966 
L 328.624902 254.306966 
L 324.515351 254.306966 
L 320.4058 254.306966 
L 316.296249 254.306966 
L 312.186697 254.306966 
L 308.077146 254.306966 
L 303.967595 254.306966 
L 299.858044 254.306966 
L 295.748493 254.306966 
L 291.638941 254.306966 
L 287.52939 254.306966 
L 283.419839 254.306966 
L 279.310288 254.306966 
L 275.200736 254.306966 
L 271.091185 254.306966 
L 266.981634 254.306966 
L 262.872083 254.306966 
L 258.762532 254.306966 
L 254.65298 254.306966 
L 250.543429 254.306966 
L 246.433878 254.306966 
L 242.324327 254.306966 
L 238.214776 254.306966 
L 234.105224 254.306966 
L 229.995673 254.306966 
L 225.886122 254.306966 
L 221.776571 254.306966 
L 217.66702 254.306966 
L 213.557468 254.306966 
L 209.447917 254.306966 
L 205.338366 254.306966 
L 201.228815 254.306966 
L 197.119264 254.306966 
L 193.009712 254.306966 
L 188.900161 254.306966 
L 184.79061 254.306966 
L 180.681059 254.306966 
L 176.571507 254.306966 
L 172.461956 254.306966 
L 168.352405 254.306966 
L 164.242854 254.306966 
L 160.133303 254.306966 
L 156.023751 254.306966 
L 151.9142 254.306966 
L 147.804649 254.306966 
L 143.695098 254.306966 
L 139.585547 254.306966 
L 135.475995 254.306966 
L 131.366444 254.306966 
L 127.256893 254.306966 
L 123.147342 254.306966 
L 119.037791 254.306966 
L 114.928239 254.306966 
L 110.818688 254.306966 
L 106.709137 254.306966 
L 102.599586 254.306966 
L 98.490035 254.306966 
L 94.380483 254.306966 
L 90.270932 254.306966 
L 86.161381 254.306966 
L 82.05183 254.306966 
L 77.942278 254.306966 
L 73.832727 254.306966 
z
" style="fill:#1f77b4;fill-opacity:0.3;"/>
   </g>
   <g id="PolyCollection_2">
    <path clip-path="url(#pbe9f041cd3)" d="M 73.832727 254.306966 
L 73.832727 254.306966 
L 77.942278 254.306966 
L 82.05183 254.306966 
L 86.161381 254.306966 
L 90.270932 254.306966 
L 94.380483 254.306966 
L 98.490035 254.306966 
L 102.599586 254.306966 
L 106.709137 254.306966 
L 110.818688 254.306966 
L 114.928239 254.306966 
L 119.037791 254.306966 
L 123.147342 254.306966 
L 127.256893 254.306966 
L 131.366444 254.306966 
L 135.475995 254.306966 
L 139.585547 254.306966 
L 143.695098 254.306966 
L 147.804649 254.306966 
L 151.9142 254.306966 
L 156.023751 254.306966 
L 160.133303 254.306966 
L 164.242854 254.306966 
L 168.352405 254.306966 
L 172.461956 254.306966 
L 176.571507 254.306966 
L 180.681059 254.306966 
L 184.79061 254.306966 
L 188.900161 254.306966 
L 193.009712 254.306966 
L 197.119264 254.306966 
L 201.228815 254.306966 
L 205.338366 254.306966 
L 209.447917 254.306966 
L 213.557468 254.306966 
L 217.66702 254.306966 
L 221.776571 254.306966 
L 225.886122 254.306966 
L 229.995673 254.306966 
L 234.105224 254.306966 
L 238.214776 254.306966 
L 242.324327 254.306966 
L 246.433878 254.306966 
L 250.543429 254.306966 
L 254.65298 254.306966 
L 258.762532 254.306966 
L 262.872083 254.306966 
L 266.981634 254.306966 
L 271.091185 254.306966 
L 275.200736 254.682026 
L 279.310288 254.569508 
L 283.419839 254.490745 
L 287.52939 254.435612 
L 291.638941 266.533006 
L 295.748493 262.865194 
L 299.858044 276.500038 
L 303.967595 279.630168 
L 308.077146 272.033207 
L 312.186697 266.715335 
L 316.296249 276.995369 
L 320.4058 270.188848 
L 324.515351 265.424284 
L 328.624902 262.089088 
L 332.734453 259.754452 
L 336.844005 275.174003 
L 340.953556 277.515229 
L 345.063107 277.603754 
L 349.172658 285.002707 
L 353.282209 288.967616 
L 357.391761 291.955021 
L 361.501312 293.186624 
L 365.610863 285.595939 
L 369.720414 281.39988 
L 373.829965 276.146517 
L 377.939517 269.594652 
L 382.049068 266.937372 
L 386.158619 263.14825 
L 390.26817 278.329789 
L 394.377722 277.418953 
L 398.487273 260.027136 
L 398.487273 260.027136 
L 398.487273 113.462734 
L 394.377722 124.126623 
L 390.26817 155.017697 
L 386.158619 207.994091 
L 382.049068 188.145715 
L 377.939517 170.253897 
L 373.829965 134.231154 
L 369.720414 98.431777 
L 365.610863 112.267312 
L 361.501312 109.206108 
L 357.391761 113.802515 
L 353.282209 124.95166 
L 349.172658 139.748904 
L 345.063107 167.362172 
L 340.953556 167.692552 
L 336.844005 176.430126 
L 332.734453 233.976674 
L 328.624902 225.263691 
L 324.515351 212.816574 
L 320.4058 195.034977 
L 316.296249 169.632695 
L 312.186697 207.998304 
L 308.077146 188.151734 
L 303.967595 159.799492 
L 299.858044 171.481297 
L 295.748493 222.367226 
L 291.638941 208.678767 
L 287.52939 253.826856 
L 283.419839 253.621094 
L 279.310288 253.327149 
L 275.200736 252.907227 
L 271.091185 254.306966 
L 266.981634 254.306966 
L 262.872083 254.306966 
L 258.762532 254.306966 
L 254.65298 254.306966 
L 250.543429 254.306966 
L 246.433878 254.306966 
L 242.324327 254.306966 
L 238.214776 254.306966 
L 234.105224 254.306966 
L 229.995673 254.306966 
L 225.886122 254.306966 
L 221.776571 254.306966 
L 217.66702 254.306966 
L 213.557468 254.306966 
L 209.447917 254.306966 
L 205.338366 254.306966 
L 201.228815 254.306966 
L 197.119264 254.306966 
L 193.009712 254.306966 
L 188.900161 254.306966 
L 184.79061 254.306966 
L 180.681059 254.306966 
L 176.571507 254.306966 
L 172.461956 254.306966 
L 168.352405 254.306966 
L 164.242854 254.306966 
L 160.133303 254.306966 
L 156.023751 254.306966 
L 151.9142 254.306966 
L 147.804649 254.306966 
L 143.695098 254.306966 
L 139.585547 254.306966 
L 135.475995 254.306966 
L 131.366444 254.306966 
L 127.256893 254.306966 
L 123.147342 254.306966 
L 119.037791 254.306966 
L 114.928239 254.306966 
L 110.818688 254.306966 
L 106.709137 254.306966 
L 102.599586 254.306966 
L 98.490035 254.306966 
L 94.380483 254.306966 
L 90.270932 254.306966 
L 86.161381 254.306966 
L 82.05183 254.306966 
L 77.942278 254.306966 
L 73.832727 254.306966 
z
" style="fill:#ff7f0e;fill-opacity:0.3;"/>
   </g>
   <g id="PolyCollection_3">
    <path clip-path="url(#pbe9f041cd3)" d="M 73.832727 254.306966 
L 73.832727 254.306966 
L 77.942278 254.306966 
L 82.05183 254.306966 
L 86.161381 254.306966 
L 90.270932 254.306966 
L 94.380483 254.306966 
L 98.490035 254.306966 
L 102.599586 254.306966 
L 106.709137 254.306966 
L 110.818688 254.306966 
L 114.928239 254.306966 
L 119.037791 254.306966 
L 123.147342 254.306966 
L 127.256893 254.306966 
L 131.366444 254.306966 
L 135.475995 254.306966 
L 139.585547 254.306966 
L 143.695098 254.306966 
L 147.804649 254.306966 
L 151.9142 254.306966 
L 156.023751 254.306966 
L 160.133303 254.306966 
L 164.242854 254.306966 
L 168.352405 254.306966 
L 172.461956 254.306966 
L 176.571507 254.306966 
L 180.681059 254.306966 
L 184.79061 254.306966 
L 188.900161 254.306966 
L 193.009712 254.306966 
L 197.119264 254.306966 
L 201.228815 254.306966 
L 205.338366 254.306966 
L 209.447917 254.306966 
L 213.557468 254.306966 
L 217.66702 254.306966 
L 221.776571 254.306966 
L 225.886122 254.306966 
L 229.995673 254.306966 
L 234.105224 254.306966 
L 238.214776 254.306966 
L 242.324327 254.306966 
L 246.433878 254.306966 
L 250.543429 254.306966 
L 254.65298 254.306966 
L 258.762532 262.989506 
L 262.872083 260.384744 
L 266.981634 258.561411 
L 271.091185 265.928845 
L 275.200736 269.413491 
L 279.310288 279.260124 
L 283.419839 271.774176 
L 287.52939 273.540321 
L 291.638941 267.770314 
L 295.748493 275.39758 
L 299.858044 286.050202 
L 303.967595 283.173956 
L 308.077146 281.168575 
L 312.186697 285.894015 
L 316.296249 283.356095 
L 320.4058 284.301021 
L 324.515351 275.302804 
L 328.624902 282.354082 
L 332.734453 279.923113 
L 336.844005 283.484987 
L 340.953556 274.731581 
L 345.063107 281.607161 
L 349.172658 291.259686 
L 353.282209 276.267125 
L 357.391761 283.88923 
L 361.501312 275.624069 
L 365.610863 260.984786 
L 369.720414 262.652327 
L 373.829965 257.884613 
L 377.939517 253.447105 
L 382.049068 247.163347 
L 386.158619 255.603321 
L 390.26817 250.852846 
L 394.377722 247.982339 
L 398.487273 218.166667 
L 398.487273 218.166667 
L 398.487273 58.310136 
L 394.377722 87.751035 
L 390.26817 71.335644 
L 386.158619 53.568 
L 382.049068 67.379565 
L 377.939517 75.09439 
L 373.829965 111.413578 
L 369.720414 92.656672 
L 365.610863 83.789913 
L 361.501312 94.294535 
L 357.391761 132.709156 
L 353.282209 156.536781 
L 349.172658 116.397538 
L 345.063107 152.421253 
L 340.953556 178.081267 
L 336.844005 145.41311 
L 332.734453 158.706206 
L 328.624902 149.633706 
L 324.515351 175.949432 
L 320.4058 142.367632 
L 316.296249 145.894144 
L 312.186697 136.422498 
L 308.077146 154.058077 
L 303.967595 146.573893 
L 299.858044 135.839597 
L 295.748493 175.595723 
L 291.638941 204.061068 
L 287.52939 182.527111 
L 283.419839 189.118451 
L 279.310288 161.180516 
L 275.200736 197.928647 
L 271.091185 210.933526 
L 266.981634 238.429164 
L 262.872083 231.624392 
L 258.762532 221.903289 
L 254.65298 254.306966 
L 250.543429 254.306966 
L 246.433878 254.306966 
L 242.324327 254.306966 
L 238.214776 254.306966 
L 234.105224 254.306966 
L 229.995673 254.306966 
L 225.886122 254.306966 
L 221.776571 254.306966 
L 217.66702 254.306966 
L 213.557468 254.306966 
L 209.447917 254.306966 
L 205.338366 254.306966 
L 201.228815 254.306966 
L 197.119264 254.306966 
L 193.009712 254.306966 
L 188.900161 254.306966 
L 184.79061 254.306966 
L 180.681059 254.306966 
L 176.571507 254.306966 
L 172.461956 254.306966 
L 168.352405 254.306966 
L 164.242854 254.306966 
L 160.133303 254.306966 
L 156.023751 254.306966 
L 151.9142 254.306966 
L 147.804649 254.306966 
L 143.695098 254.306966 
L 139.585547 254.306966 
L 135.475995 254.306966 
L 131.366444 254.306966 
L 127.256893 254.306966 
L 123.147342 254.306966 
L 119.037791 254.306966 
L 114.928239 254.306966 
L 110.818688 254.306966 
L 106.709137 254.306966 
L 102.599586 254.306966 
L 98.490035 254.306966 
L 94.380483 254.306966 
L 90.270932 254.306966 
L 86.161381 254.306966 
L 82.05183 254.306966 
L 77.942278 254.306966 
L 73.832727 254.306966 
z
" style="fill:#2ca02c;fill-opacity:0.3;"/>
   </g>
   <g id="PolyCollection_4">
    <path clip-path="url(#pbe9f041cd3)" d="M 73.832727 254.306966 
L 73.832727 254.306966 
L 77.942278 254.306966 
L 82.05183 254.306966 
L 86.161381 254.306966 
L 90.270932 254.306966 
L 94.380483 254.306966 
L 98.490035 254.306966 
L 102.599586 254.306966 
L 106.709137 254.306966 
L 110.818688 254.306966 
L 114.928239 254.306966 
L 119.037791 254.306966 
L 123.147342 254.306966 
L 127.256893 254.306966 
L 131.366444 254.306966 
L 135.475995 254.306966 
L 139.585547 254.306966 
L 143.695098 254.306966 
L 147.804649 254.306966 
L 151.9142 254.306966 
L 156.023751 254.306966 
L 160.133303 254.306966 
L 164.242854 254.306966 
L 168.352405 254.306966 
L 172.461956 254.306966 
L 176.571507 254.306966 
L 180.681059 254.306966 
L 184.79061 254.306966 
L 188.900161 254.306966 
L 193.009712 254.306966 
L 197.119264 254.306966 
L 201.228815 254.306966 
L 205.338366 254.306966 
L 209.447917 254.306966 
L 213.557468 254.306966 
L 217.66702 254.306966 
L 221.776571 254.306966 
L 225.886122 254.306966 
L 229.995673 254.306966 
L 234.105224 254.306966 
L 238.214776 254.306966 
L 242.324327 254.306966 
L 246.433878 254.306966 
L 250.543429 254.306966 
L 254.65298 254.306966 
L 258.762532 254.306966 
L 262.872083 254.306966 
L 266.981634 254.306966 
L 271.091185 254.306966 
L 275.200736 254.306966 
L 279.310288 254.306966 
L 283.419839 254.306966 
L 287.52939 254.306966 
L 291.638941 254.306966 
L 295.748493 254.306966 
L 299.858044 254.306966 
L 303.967595 254.306966 
L 308.077146 254.306966 
L 312.186697 254.306966 
L 316.296249 254.306966 
L 320.4058 254.306966 
L 324.515351 254.306966 
L 328.624902 254.306966 
L 332.734453 254.306966 
L 336.844005 266.989516 
L 340.953556 263.184751 
L 345.063107 260.521416 
L 349.172658 275.493702 
L 353.282209 283.391838 
L 357.391761 274.666376 
L 361.501312 268.558553 
L 365.610863 273.048628 
L 369.720414 274.128674 
L 373.829965 268.182161 
L 377.939517 264.019603 
L 382.049068 272.679373 
L 386.158619 275.665135 
L 390.26817 280.512106 
L 394.377722 290.821307 
L 398.487273 289.398489 
L 398.487273 289.398489 
L 398.487273 123.34362 
L 394.377722 118.033592 
L 390.26817 156.508053 
L 386.158619 174.597198 
L 382.049068 185.74021 
L 377.939517 218.058914 
L 373.829965 202.524034 
L 369.720414 180.331348 
L 365.610863 184.362132 
L 361.501312 201.119319 
L 357.391761 178.324614 
L 353.282209 145.760748 
L 349.172658 175.236992 
L 345.063107 231.114326 
L 340.953556 221.174623 
L 336.844005 206.975048 
L 332.734453 254.306966 
L 328.624902 254.306966 
L 324.515351 254.306966 
L 320.4058 254.306966 
L 316.296249 254.306966 
L 312.186697 254.306966 
L 308.077146 254.306966 
L 303.967595 254.306966 
L 299.858044 254.306966 
L 295.748493 254.306966 
L 291.638941 254.306966 
L 287.52939 254.306966 
L 283.419839 254.306966 
L 279.310288 254.306966 
L 275.200736 254.306966 
L 271.091185 254.306966 
L 266.981634 254.306966 
L 262.872083 254.306966 
L 258.762532 254.306966 
L 254.65298 254.306966 
L 250.543429 254.306966 
L 246.433878 254.306966 
L 242.324327 254.306966 
L 238.214776 254.306966 
L 234.105224 254.306966 
L 229.995673 254.306966 
L 225.886122 254.306966 
L 221.776571 254.306966 
L 217.66702 254.306966 
L 213.557468 254.306966 
L 209.447917 254.306966 
L 205.338366 254.306966 
L 201.228815 254.306966 
L 197.119264 254.306966 
L 193.009712 254.306966 
L 188.900161 254.306966 
L 184.79061 254.306966 
L 180.681059 254.306966 
L 176.571507 254.306966 
L 172.461956 254.306966 
L 168.352405 254.306966 
L 164.242854 254.306966 
L 160.133303 254.306966 
L 156.023751 254.306966 
L 151.9142 254.306966 
L 147.804649 254.306966 
L 143.695098 254.306966 
L 139.585547 254.306966 
L 135.475995 254.306966 
L 131.366444 254.306966 
L 127.256893 254.306966 
L 123.147342 254.306966 
L 119.037791 254.306966 
L 114.928239 254.306966 
L 110.818688 254.306966 
L 106.709137 254.306966 
L 102.599586 254.306966 
L 98.490035 254.306966 
L 94.380483 254.306966 
L 90.270932 254.306966 
L 86.161381 254.306966 
L 82.05183 254.306966 
L 77.942278 254.306966 
L 73.832727 254.306966 
z
" style="fill:#d62728;fill-opacity:0.3;"/>
   </g>
   <g id="PolyCollection_5">
    <path clip-path="url(#pbe9f041cd3)" d="M 73.832727 254.306966 
L 73.832727 254.306966 
L 77.942278 254.306966 
L 82.05183 254.306966 
L 86.161381 254.306966 
L 90.270932 254.306966 
L 94.380483 254.306966 
L 98.490035 254.306966 
L 102.599586 254.306966 
L 106.709137 254.306966 
L 110.818688 254.306966 
L 114.928239 254.306966 
L 119.037791 254.306966 
L 123.147342 254.306966 
L 127.256893 254.306966 
L 131.366444 254.306966 
L 135.475995 254.306966 
L 139.585547 254.306966 
L 143.695098 254.306966 
L 147.804649 254.306966 
L 151.9142 254.306966 
L 156.023751 254.306966 
L 160.133303 254.306966 
L 164.242854 254.306966 
L 168.352405 254.306966 
L 172.461956 254.306966 
L 176.571507 254.306966 
L 180.681059 259.489053 
L 184.79061 257.934427 
L 188.900161 256.846189 
L 193.009712 256.084422 
L 197.119264 255.551185 
L 201.228815 255.17792 
L 205.338366 254.916634 
L 209.447917 254.733734 
L 213.557468 254.605703 
L 217.66702 254.516082 
L 221.776571 254.453348 
L 225.886122 254.409433 
L 229.995673 254.378693 
L 234.105224 254.357175 
L 238.214776 254.342113 
L 242.324327 254.331569 
L 246.433878 254.324188 
L 250.543429 254.319022 
L 254.65298 261.688836 
L 258.762532 266.219976 
L 262.872083 262.646073 
L 266.981634 260.144341 
L 271.091185 270.650416 
L 275.200736 265.747381 
L 279.310288 262.315257 
L 283.419839 265.402481 
L 287.52939 264.727403 
L 291.638941 278.444182 
L 295.748493 281.013947 
L 299.858044 273.001853 
L 303.967595 267.393387 
L 308.077146 263.467461 
L 312.186697 260.719312 
L 316.296249 260.059052 
L 320.4058 258.333426 
L 324.515351 257.125488 
L 328.624902 256.279932 
L 332.734453 255.688042 
L 336.844005 255.273719 
L 340.953556 266.070689 
L 345.063107 262.541572 
L 349.172658 260.071191 
L 353.282209 268.01258 
L 357.391761 275.934133 
L 361.501312 280.432045 
L 365.610863 291.966937 
L 369.720414 292.093091 
L 373.829965 284.359611 
L 377.939517 281.686486 
L 382.049068 291.87172 
L 386.158619 292.232532 
L 390.26817 295.488 
L 394.377722 285.691785 
L 398.487273 285.30363 
L 398.487273 285.30363 
L 398.487273 138.625843 
L 394.377722 137.17723 
L 390.26817 100.617257 
L 386.158619 112.766829 
L 382.049068 114.113396 
L 377.939517 152.125209 
L 373.829965 142.148969 
L 369.720414 113.287229 
L 365.610863 113.758043 
L 361.501312 156.806846 
L 357.391761 173.593281 
L 353.282209 203.156918 
L 349.172658 232.794589 
L 345.063107 223.574999 
L 340.953556 210.404155 
L 336.844005 250.698995 
L 332.734453 249.152722 
L 328.624902 246.94376 
L 324.515351 243.7881 
L 320.4058 239.280014 
L 316.296249 232.839891 
L 312.186697 230.375765 
L 308.077146 220.119536 
L 303.967595 205.46778 
L 299.858044 184.5367 
L 295.748493 154.635157 
L 291.638941 164.225652 
L 287.52939 215.417367 
L 283.419839 212.897944 
L 279.310288 224.419621 
L 275.200736 211.610758 
L 271.091185 193.312383 
L 266.981634 232.521588 
L 262.872083 223.184997 
L 258.762532 209.84701 
L 254.65298 226.757453 
L 250.543429 254.261976 
L 246.433878 254.242695 
L 242.324327 254.215149 
L 238.214776 254.175799 
L 234.105224 254.119585 
L 229.995673 254.039279 
L 225.886122 253.924555 
L 221.776571 253.760665 
L 217.66702 253.526535 
L 213.557468 253.192065 
L 209.447917 252.71425 
L 205.338366 252.031657 
L 201.228815 251.056524 
L 197.119264 249.663478 
L 193.009712 247.673411 
L 188.900161 244.830459 
L 184.79061 240.769098 
L 180.681059 234.967155 
L 176.571507 254.306966 
L 172.461956 254.306966 
L 168.352405 254.306966 
L 164.242854 254.306966 
L 160.133303 254.306966 
L 156.023751 254.306966 
L 151.9142 254.306966 
L 147.804649 254.306966 
L 143.695098 254.306966 
L 139.585547 254.306966 
L 135.475995 254.306966 
L 131.366444 254.306966 
L 127.256893 254.306966 
L 123.147342 254.306966 
L 119.037791 254.306966 
L 114.928239 254.306966 
L 110.818688 254.306966 
L 106.709137 254.306966 
L 102.599586 254.306966 
L 98.490035 254.306966 
L 94.380483 254.306966 
L 90.270932 254.306966 
L 86.161381 254.306966 
L 82.05183 254.306966 
L 77.942278 254.306966 
L 73.832727 254.306966 
z
" style="fill:#9467bd;fill-opacity:0.3;"/>
   </g>
   <g id="PolyCollection_6">
    <path clip-path="url(#pbe9f041cd3)" d="M 73.832727 254.306966 
L 73.832727 254.306966 
L 77.942278 254.306966 
L 82.05183 254.306966 
L 86.161381 254.306966 
L 90.270932 254.306966 
L 94.380483 254.306966 
L 98.490035 254.306966 
L 102.599586 254.306966 
L 106.709137 254.306966 
L 110.818688 254.306966 
L 114.928239 254.306966 
L 119.037791 254.306966 
L 123.147342 254.306966 
L 127.256893 254.306966 
L 131.366444 254.306966 
L 135.475995 254.306966 
L 139.585547 254.306966 
L 143.695098 254.306966 
L 147.804649 254.306966 
L 151.9142 254.306966 
L 156.023751 254.306966 
L 160.133303 254.306966 
L 164.242854 254.306966 
L 168.352405 254.306966 
L 172.461956 254.306966 
L 176.571507 254.306966 
L 180.681059 254.306966 
L 184.79061 254.306966 
L 188.900161 254.306966 
L 193.009712 254.306966 
L 197.119264 254.306966 
L 201.228815 254.306966 
L 205.338366 254.306966 
L 209.447917 254.306966 
L 213.557468 254.306966 
L 217.66702 254.306966 
L 221.776571 254.306966 
L 225.886122 254.306966 
L 229.995673 254.306966 
L 234.105224 254.306966 
L 238.214776 254.306966 
L 242.324327 254.306966 
L 246.433878 254.306966 
L 250.543429 254.306966 
L 254.65298 254.306966 
L 258.762532 254.306966 
L 262.872083 254.306966 
L 266.981634 254.306966 
L 271.091185 254.306966 
L 275.200736 254.306966 
L 279.310288 254.306966 
L 283.419839 254.306966 
L 287.52939 254.306966 
L 291.638941 254.306966 
L 295.748493 254.306966 
L 299.858044 254.306966 
L 303.967595 254.306966 
L 308.077146 254.306966 
L 312.186697 254.306966 
L 316.296249 254.306966 
L 320.4058 254.306966 
L 324.515351 254.306966 
L 328.624902 254.306966 
L 332.734453 254.306966 
L 336.844005 254.306966 
L 340.953556 254.306966 
L 345.063107 254.306966 
L 349.172658 254.306966 
L 353.282209 254.306966 
L 357.391761 254.306966 
L 361.501312 254.306966 
L 365.610863 254.306966 
L 369.720414 254.306966 
L 373.829965 254.306966 
L 377.939517 254.306966 
L 382.049068 254.306966 
L 386.158619 254.306966 
L 390.26817 254.306966 
L 394.377722 254.306966 
L 398.487273 254.306966 
L 398.487273 254.306966 
L 398.487273 254.306966 
L 394.377722 254.306966 
L 390.26817 254.306966 
L 386.158619 254.306966 
L 382.049068 254.306966 
L 377.939517 254.306966 
L 373.829965 254.306966 
L 369.720414 254.306966 
L 365.610863 254.306966 
L 361.501312 254.306966 
L 357.391761 254.306966 
L 353.282209 254.306966 
L 349.172658 254.306966 
L 345.063107 254.306966 
L 340.953556 254.306966 
L 336.844005 254.306966 
L 332.734453 254.306966 
L 328.624902 254.306966 
L 324.515351 254.306966 
L 320.4058 254.306966 
L 316.296249 254.306966 
L 312.186697 254.306966 
L 308.077146 254.306966 
L 303.967595 254.306966 
L 299.858044 254.306966 
L 295.748493 254.306966 
L 291.638941 254.306966 
L 287.52939 254.306966 
L 283.419839 254.306966 
L 279.310288 254.306966 
L 275.200736 254.306966 
L 271.091185 254.306966 
L 266.981634 254.306966 
L 262.872083 254.306966 
L 258.762532 254.306966 
L 254.65298 254.306966 
L 250.543429 254.306966 
L 246.433878 254.306966 
L 242.324327 254.306966 
L 238.214776 254.306966 
L 234.105224 254.306966 
L 229.995673 254.306966 
L 225.886122 254.306966 
L 221.776571 254.306966 
L 217.66702 254.306966 
L 213.557468 254.306966 
L 209.447917 254.306966 
L 205.338366 254.306966 
L 201.228815 254.306966 
L 197.119264 254.306966 
L 193.009712 254.306966 
L 188.900161 254.306966 
L 184.79061 254.306966 
L 180.681059 254.306966 
L 176.571507 254.306966 
L 172.461956 254.306966 
L 168.352405 254.306966 
L 164.242854 254.306966 
L 160.133303 254.306966 
L 156.023751 254.306966 
L 151.9142 254.306966 
L 147.804649 254.306966 
L 143.695098 254.306966 
L 139.585547 254.306966 
L 135.475995 254.306966 
L 131.366444 254.306966 
L 127.256893 254.306966 
L 123.147342 254.306966 
L 119.037791 254.306966 
L 114.928239 254.306966 
L 110.818688 254.306966 
L 106.709137 254.306966 
L 102.599586 254.306966 
L 98.490035 254.306966 
L 94.380483 254.306966 
L 90.270932 254.306966 
L 86.161381 254.306966 
L 82.05183 254.306966 
L 77.942278 254.306966 
L 73.832727 254.306966 
z
" style="fill:#8c564b;fill-opacity:0.3;"/>
   </g>
   <g id="matplotlib.axis_1">
    <g id="xtick_1">
     <g id="line2d_1">
      <defs>
       <path d="M 0 0 
L 0 3.5 
" id="m7cebd44dc4" style="stroke:#000000;stroke-width:0.8;"/>
      </defs>
      <g>
       <use style="stroke:#000000;stroke-width:0.8;" x="69.723176" xlink:href="#m7cebd44dc4" y="307.584"/>
      </g>
     </g>
     <g id="text_1">
      <!-- 0 -->
      <g transform="translate(66.541926 322.182437)scale(0.1 -0.1)">
       <defs>
        <path d="M 2034 4250 
Q 1547 4250 1301 3770 
Q 1056 3291 1056 2328 
Q 1056 1369 1301 889 
Q 1547 409 2034 409 
Q 2525 409 2770 889 
Q 3016 1369 3016 2328 
Q 3016 3291 2770 3770 
Q 2525 4250 2034 4250 
z
M 2034 4750 
Q 2819 4750 3233 4129 
Q 3647 3509 3647 2328 
Q 3647 1150 3233 529 
Q 2819 -91 2034 -91 
Q 1250 -91 836 529 
Q 422 1150 422 2328 
Q 422 3509 836 4129 
Q 1250 4750 2034 4750 
z
" id="DejaVuSans-30" transform="scale(0.015625)"/>
       </defs>
       <use xlink:href="#DejaVuSans-30"/>
      </g>
     </g>
    </g>
    <g id="xtick_2">
     <g id="line2d_2">
      <g>
       <use style="stroke:#000000;stroke-width:0.8;" x="110.818688" xlink:href="#m7cebd44dc4" y="307.584"/>
      </g>
     </g>
     <g id="text_2">
      <!-- 50 -->
      <g transform="translate(104.456188 322.182437)scale(0.1 -0.1)">
       <defs>
        <path d="M 691 4666 
L 3169 4666 
L 3169 4134 
L 1269 4134 
L 1269 2991 
Q 1406 3038 1543 3061 
Q 1681 3084 1819 3084 
Q 2600 3084 3056 2656 
Q 3513 2228 3513 1497 
Q 3513 744 3044 326 
Q 2575 -91 1722 -91 
Q 1428 -91 1123 -41 
Q 819 9 494 109 
L 494 744 
Q 775 591 1075 516 
Q 1375 441 1709 441 
Q 2250 441 2565 725 
Q 2881 1009 2881 1497 
Q 2881 1984 2565 2268 
Q 2250 2553 1709 2553 
Q 1456 2553 1204 2497 
Q 953 2441 691 2322 
L 691 4666 
z
" id="DejaVuSans-35" transform="scale(0.015625)"/>
       </defs>
       <use xlink:href="#DejaVuSans-35"/>
       <use x="63.623047" xlink:href="#DejaVuSans-30"/>
      </g>
     </g>
    </g>
    <g id="xtick_3">
     <g id="line2d_3">
      <g>
       <use style="stroke:#000000;stroke-width:0.8;" x="151.9142" xlink:href="#m7cebd44dc4" y="307.584"/>
      </g>
     </g>
     <g id="text_3">
      <!-- 100 -->
      <g transform="translate(142.37045 322.182437)scale(0.1 -0.1)">
       <defs>
        <path d="M 794 531 
L 1825 531 
L 1825 4091 
L 703 3866 
L 703 4441 
L 1819 4666 
L 2450 4666 
L 2450 531 
L 3481 531 
L 3481 0 
L 794 0 
L 794 531 
z
" id="DejaVuSans-31" transform="scale(0.015625)"/>
       </defs>
       <use xlink:href="#DejaVuSans-31"/>
       <use x="63.623047" xlink:href="#DejaVuSans-30"/>
       <use x="127.246094" xlink:href="#DejaVuSans-30"/>
      </g>
     </g>
    </g>
    <g id="xtick_4">
     <g id="line2d_4">
      <g>
       <use style="stroke:#000000;stroke-width:0.8;" x="193.009712" xlink:href="#m7cebd44dc4" y="307.584"/>
      </g>
     </g>
     <g id="text_4">
      <!-- 150 -->
      <g transform="translate(183.465962 322.182437)scale(0.1 -0.1)">
       <use xlink:href="#DejaVuSans-31"/>
       <use x="63.623047" xlink:href="#DejaVuSans-35"/>
       <use x="127.246094" xlink:href="#DejaVuSans-30"/>
      </g>
     </g>
    </g>
    <g id="xtick_5">
     <g id="line2d_5">
      <g>
       <use style="stroke:#000000;stroke-width:0.8;" x="234.105224" xlink:href="#m7cebd44dc4" y="307.584"/>
      </g>
     </g>
     <g id="text_5">
      <!-- 200 -->
      <g transform="translate(224.561474 322.182437)scale(0.1 -0.1)">
       <defs>
        <path d="M 1228 531 
L 3431 531 
L 3431 0 
L 469 0 
L 469 531 
Q 828 903 1448 1529 
Q 2069 2156 2228 2338 
Q 2531 2678 2651 2914 
Q 2772 3150 2772 3378 
Q 2772 3750 2511 3984 
Q 2250 4219 1831 4219 
Q 1534 4219 1204 4116 
Q 875 4013 500 3803 
L 500 4441 
Q 881 4594 1212 4672 
Q 1544 4750 1819 4750 
Q 2544 4750 2975 4387 
Q 3406 4025 3406 3419 
Q 3406 3131 3298 2873 
Q 3191 2616 2906 2266 
Q 2828 2175 2409 1742 
Q 1991 1309 1228 531 
z
" id="DejaVuSans-32" transform="scale(0.015625)"/>
       </defs>
       <use xlink:href="#DejaVuSans-32"/>
       <use x="63.623047" xlink:href="#DejaVuSans-30"/>
       <use x="127.246094" xlink:href="#DejaVuSans-30"/>
      </g>
     </g>
    </g>
    <g id="xtick_6">
     <g id="line2d_6">
      <g>
       <use style="stroke:#000000;stroke-width:0.8;" x="275.200736" xlink:href="#m7cebd44dc4" y="307.584"/>
      </g>
     </g>
     <g id="text_6">
      <!-- 250 -->
      <g transform="translate(265.656986 322.182437)scale(0.1 -0.1)">
       <use xlink:href="#DejaVuSans-32"/>
       <use x="63.623047" xlink:href="#DejaVuSans-35"/>
       <use x="127.246094" xlink:href="#DejaVuSans-30"/>
      </g>
     </g>
    </g>
    <g id="xtick_7">
     <g id="line2d_7">
      <g>
       <use style="stroke:#000000;stroke-width:0.8;" x="316.296249" xlink:href="#m7cebd44dc4" y="307.584"/>
      </g>
     </g>
     <g id="text_7">
      <!-- 300 -->
      <g transform="translate(306.752499 322.182437)scale(0.1 -0.1)">
       <defs>
        <path d="M 2597 2516 
Q 3050 2419 3304 2112 
Q 3559 1806 3559 1356 
Q 3559 666 3084 287 
Q 2609 -91 1734 -91 
Q 1441 -91 1130 -33 
Q 819 25 488 141 
L 488 750 
Q 750 597 1062 519 
Q 1375 441 1716 441 
Q 2309 441 2620 675 
Q 2931 909 2931 1356 
Q 2931 1769 2642 2001 
Q 2353 2234 1838 2234 
L 1294 2234 
L 1294 2753 
L 1863 2753 
Q 2328 2753 2575 2939 
Q 2822 3125 2822 3475 
Q 2822 3834 2567 4026 
Q 2313 4219 1838 4219 
Q 1578 4219 1281 4162 
Q 984 4106 628 3988 
L 628 4550 
Q 988 4650 1302 4700 
Q 1616 4750 1894 4750 
Q 2613 4750 3031 4423 
Q 3450 4097 3450 3541 
Q 3450 3153 3228 2886 
Q 3006 2619 2597 2516 
z
" id="DejaVuSans-33" transform="scale(0.015625)"/>
       </defs>
       <use xlink:href="#DejaVuSans-33"/>
       <use x="63.623047" xlink:href="#DejaVuSans-30"/>
       <use x="127.246094" xlink:href="#DejaVuSans-30"/>
      </g>
     </g>
    </g>
    <g id="xtick_8">
     <g id="line2d_8">
      <g>
       <use style="stroke:#000000;stroke-width:0.8;" x="357.391761" xlink:href="#m7cebd44dc4" y="307.584"/>
      </g>
     </g>
     <g id="text_8">
      <!-- 350 -->
      <g transform="translate(347.848011 322.182437)scale(0.1 -0.1)">
       <use xlink:href="#DejaVuSans-33"/>
       <use x="63.623047" xlink:href="#DejaVuSans-35"/>
       <use x="127.246094" xlink:href="#DejaVuSans-30"/>
      </g>
     </g>
    </g>
    <g id="xtick_9">
     <g id="line2d_9">
      <g>
       <use style="stroke:#000000;stroke-width:0.8;" x="398.487273" xlink:href="#m7cebd44dc4" y="307.584"/>
      </g>
     </g>
     <g id="text_9">
      <!-- 400 -->
      <g transform="translate(388.943523 322.182437)scale(0.1 -0.1)">
       <defs>
        <path d="M 2419 4116 
L 825 1625 
L 2419 1625 
L 2419 4116 
z
M 2253 4666 
L 3047 4666 
L 3047 1625 
L 3713 1625 
L 3713 1100 
L 3047 1100 
L 3047 0 
L 2419 0 
L 2419 1100 
L 313 1100 
L 313 1709 
L 2253 4666 
z
" id="DejaVuSans-34" transform="scale(0.015625)"/>
       </defs>
       <use xlink:href="#DejaVuSans-34"/>
       <use x="63.623047" xlink:href="#DejaVuSans-30"/>
       <use x="127.246094" xlink:href="#DejaVuSans-30"/>
      </g>
     </g>
    </g>
    <g id="text_10">
     <!-- Epoch -->
     <g transform="translate(220.849063 335.860562)scale(0.1 -0.1)">
      <defs>
       <path d="M 628 4666 
L 3578 4666 
L 3578 4134 
L 1259 4134 
L 1259 2753 
L 3481 2753 
L 3481 2222 
L 1259 2222 
L 1259 531 
L 3634 531 
L 3634 0 
L 628 0 
L 628 4666 
z
" id="DejaVuSans-45" transform="scale(0.015625)"/>
       <path d="M 1159 525 
L 1159 -1331 
L 581 -1331 
L 581 3500 
L 1159 3500 
L 1159 2969 
Q 1341 3281 1617 3432 
Q 1894 3584 2278 3584 
Q 2916 3584 3314 3078 
Q 3713 2572 3713 1747 
Q 3713 922 3314 415 
Q 2916 -91 2278 -91 
Q 1894 -91 1617 61 
Q 1341 213 1159 525 
z
M 3116 1747 
Q 3116 2381 2855 2742 
Q 2594 3103 2138 3103 
Q 1681 3103 1420 2742 
Q 1159 2381 1159 1747 
Q 1159 1113 1420 752 
Q 1681 391 2138 391 
Q 2594 391 2855 752 
Q 3116 1113 3116 1747 
z
" id="DejaVuSans-70" transform="scale(0.015625)"/>
       <path d="M 1959 3097 
Q 1497 3097 1228 2736 
Q 959 2375 959 1747 
Q 959 1119 1226 758 
Q 1494 397 1959 397 
Q 2419 397 2687 759 
Q 2956 1122 2956 1747 
Q 2956 2369 2687 2733 
Q 2419 3097 1959 3097 
z
M 1959 3584 
Q 2709 3584 3137 3096 
Q 3566 2609 3566 1747 
Q 3566 888 3137 398 
Q 2709 -91 1959 -91 
Q 1206 -91 779 398 
Q 353 888 353 1747 
Q 353 2609 779 3096 
Q 1206 3584 1959 3584 
z
" id="DejaVuSans-6f" transform="scale(0.015625)"/>
       <path d="M 3122 3366 
L 3122 2828 
Q 2878 2963 2633 3030 
Q 2388 3097 2138 3097 
Q 1578 3097 1268 2742 
Q 959 2388 959 1747 
Q 959 1106 1268 751 
Q 1578 397 2138 397 
Q 2388 397 2633 464 
Q 2878 531 3122 666 
L 3122 134 
Q 2881 22 2623 -34 
Q 2366 -91 2075 -91 
Q 1284 -91 818 406 
Q 353 903 353 1747 
Q 353 2603 823 3093 
Q 1294 3584 2113 3584 
Q 2378 3584 2631 3529 
Q 2884 3475 3122 3366 
z
" id="DejaVuSans-63" transform="scale(0.015625)"/>
       <path d="M 3513 2113 
L 3513 0 
L 2938 0 
L 2938 2094 
Q 2938 2591 2744 2837 
Q 2550 3084 2163 3084 
Q 1697 3084 1428 2787 
Q 1159 2491 1159 1978 
L 1159 0 
L 581 0 
L 581 4863 
L 1159 4863 
L 1159 2956 
Q 1366 3272 1645 3428 
Q 1925 3584 2291 3584 
Q 2894 3584 3203 3211 
Q 3513 2838 3513 2113 
z
" id="DejaVuSans-68" transform="scale(0.015625)"/>
      </defs>
      <!--
      <use xlink:href="#DejaVuSans-45"/>
      <use x="63.183594" xlink:href="#DejaVuSans-70"/>
      <use x="126.660156" xlink:href="#DejaVuSans-6f"/>
      <use x="187.841797" xlink:href="#DejaVuSans-63"/>
      <use x="242.822266" xlink:href="#DejaVuSans-68"/>
    -->
     </g>
    </g>
   </g>
   <g id="matplotlib.axis_2">
    <g id="ytick_1">
     <g id="line2d_10">
      <defs>
       <path d="M 0 0 
L -3.5 0 
" id="m982c98e276" style="stroke:#000000;stroke-width:0.8;"/>
      </defs>
      <g>
       <use style="stroke:#000000;stroke-width:0.8;" x="57.6" xlink:href="#m982c98e276" y="294.201231"/>
      </g>
     </g>
     <g id="text_11">
      <!-- −190 -->
      <g transform="translate(23.132812 298.000449)scale(0.1 -0.1)">
       <defs>
        <path d="M 678 2272 
L 4684 2272 
L 4684 1741 
L 678 1741 
L 678 2272 
z
" id="DejaVuSans-2212" transform="scale(0.015625)"/>
        <path d="M 703 97 
L 703 672 
Q 941 559 1184 500 
Q 1428 441 1663 441 
Q 2288 441 2617 861 
Q 2947 1281 2994 2138 
Q 2813 1869 2534 1725 
Q 2256 1581 1919 1581 
Q 1219 1581 811 2004 
Q 403 2428 403 3163 
Q 403 3881 828 4315 
Q 1253 4750 1959 4750 
Q 2769 4750 3195 4129 
Q 3622 3509 3622 2328 
Q 3622 1225 3098 567 
Q 2575 -91 1691 -91 
Q 1453 -91 1209 -44 
Q 966 3 703 97 
z
M 1959 2075 
Q 2384 2075 2632 2365 
Q 2881 2656 2881 3163 
Q 2881 3666 2632 3958 
Q 2384 4250 1959 4250 
Q 1534 4250 1286 3958 
Q 1038 3666 1038 3163 
Q 1038 2656 1286 2365 
Q 1534 2075 1959 2075 
z
" id="DejaVuSans-39" transform="scale(0.015625)"/>
       </defs>
       <use xlink:href="#DejaVuSans-2212"/>
       <use x="83.789062" xlink:href="#DejaVuSans-31"/>
       <use x="147.412109" xlink:href="#DejaVuSans-39"/>
       <use x="211.035156" xlink:href="#DejaVuSans-30"/>
      </g>
     </g>
    </g>
    <g id="ytick_2">
     <g id="line2d_11">
      <g>
       <use style="stroke:#000000;stroke-width:0.8;" x="57.6" xlink:href="#m982c98e276" y="248.074452"/>
      </g>
     </g>
     <g id="text_12">
      <!-- −180 -->
      <g transform="translate(23.132812 251.873671)scale(0.1 -0.1)">
       <defs>
        <path d="M 2034 2216 
Q 1584 2216 1326 1975 
Q 1069 1734 1069 1313 
Q 1069 891 1326 650 
Q 1584 409 2034 409 
Q 2484 409 2743 651 
Q 3003 894 3003 1313 
Q 3003 1734 2745 1975 
Q 2488 2216 2034 2216 
z
M 1403 2484 
Q 997 2584 770 2862 
Q 544 3141 544 3541 
Q 544 4100 942 4425 
Q 1341 4750 2034 4750 
Q 2731 4750 3128 4425 
Q 3525 4100 3525 3541 
Q 3525 3141 3298 2862 
Q 3072 2584 2669 2484 
Q 3125 2378 3379 2068 
Q 3634 1759 3634 1313 
Q 3634 634 3220 271 
Q 2806 -91 2034 -91 
Q 1263 -91 848 271 
Q 434 634 434 1313 
Q 434 1759 690 2068 
Q 947 2378 1403 2484 
z
M 1172 3481 
Q 1172 3119 1398 2916 
Q 1625 2713 2034 2713 
Q 2441 2713 2670 2916 
Q 2900 3119 2900 3481 
Q 2900 3844 2670 4047 
Q 2441 4250 2034 4250 
Q 1625 4250 1398 4047 
Q 1172 3844 1172 3481 
z
" id="DejaVuSans-38" transform="scale(0.015625)"/>
       </defs>
       <use xlink:href="#DejaVuSans-2212"/>
       <use x="83.789062" xlink:href="#DejaVuSans-31"/>
       <use x="147.412109" xlink:href="#DejaVuSans-38"/>
       <use x="211.035156" xlink:href="#DejaVuSans-30"/>
      </g>
     </g>
    </g>
    <g id="ytick_3">
     <g id="line2d_12">
      <g>
       <use style="stroke:#000000;stroke-width:0.8;" x="57.6" xlink:href="#m982c98e276" y="201.947674"/>
      </g>
     </g>
     <g id="text_13">
      <!-- −170 -->
      <g transform="translate(23.132812 205.746892)scale(0.1 -0.1)">
       <defs>
        <path d="M 525 4666 
L 3525 4666 
L 3525 4397 
L 1831 0 
L 1172 0 
L 2766 4134 
L 525 4134 
L 525 4666 
z
" id="DejaVuSans-37" transform="scale(0.015625)"/>
       </defs>
       <use xlink:href="#DejaVuSans-2212"/>
       <use x="83.789062" xlink:href="#DejaVuSans-31"/>
       <use x="147.412109" xlink:href="#DejaVuSans-37"/>
       <use x="211.035156" xlink:href="#DejaVuSans-30"/>
      </g>
     </g>
    </g>
    <g id="ytick_4">
     <g id="line2d_13">
      <g>
       <use style="stroke:#000000;stroke-width:0.8;" x="57.6" xlink:href="#m982c98e276" y="155.820895"/>
      </g>
     </g>
     <g id="text_14">
      <!-- −160 -->
      <g transform="translate(23.132812 159.620114)scale(0.1 -0.1)">
       <defs>
        <path d="M 2113 2584 
Q 1688 2584 1439 2293 
Q 1191 2003 1191 1497 
Q 1191 994 1439 701 
Q 1688 409 2113 409 
Q 2538 409 2786 701 
Q 3034 994 3034 1497 
Q 3034 2003 2786 2293 
Q 2538 2584 2113 2584 
z
M 3366 4563 
L 3366 3988 
Q 3128 4100 2886 4159 
Q 2644 4219 2406 4219 
Q 1781 4219 1451 3797 
Q 1122 3375 1075 2522 
Q 1259 2794 1537 2939 
Q 1816 3084 2150 3084 
Q 2853 3084 3261 2657 
Q 3669 2231 3669 1497 
Q 3669 778 3244 343 
Q 2819 -91 2113 -91 
Q 1303 -91 875 529 
Q 447 1150 447 2328 
Q 447 3434 972 4092 
Q 1497 4750 2381 4750 
Q 2619 4750 2861 4703 
Q 3103 4656 3366 4563 
z
" id="DejaVuSans-36" transform="scale(0.015625)"/>
       </defs>
       <use xlink:href="#DejaVuSans-2212"/>
       <use x="83.789062" xlink:href="#DejaVuSans-31"/>
       <use x="147.412109" xlink:href="#DejaVuSans-36"/>
       <use x="211.035156" xlink:href="#DejaVuSans-30"/>
      </g>
     </g>
    </g>
    <g id="ytick_5">
     <g id="line2d_14">
      <g>
       <use style="stroke:#000000;stroke-width:0.8;" x="57.6" xlink:href="#m982c98e276" y="109.694117"/>
      </g>
     </g>
     <g id="text_15">
      <!-- −150 -->
      <g transform="translate(23.132812 113.493335)scale(0.1 -0.1)">
       <use xlink:href="#DejaVuSans-2212"/>
       <use x="83.789062" xlink:href="#DejaVuSans-31"/>
       <use x="147.412109" xlink:href="#DejaVuSans-35"/>
       <use x="211.035156" xlink:href="#DejaVuSans-30"/>
      </g>
     </g>
    </g>
    <g id="ytick_6">
     <g id="line2d_15">
      <g>
       <use style="stroke:#000000;stroke-width:0.8;" x="57.6" xlink:href="#m982c98e276" y="63.567338"/>
      </g>
     </g>
     <g id="text_16">
      <!-- −140 -->
      <g transform="translate(23.132812 67.366557)scale(0.1 -0.1)">
       <use xlink:href="#DejaVuSans-2212"/>
       <use x="83.789062" xlink:href="#DejaVuSans-31"/>
       <use x="147.412109" xlink:href="#DejaVuSans-34"/>
       <use x="211.035156" xlink:href="#DejaVuSans-30"/>
      </g>
     </g>
    </g>
    <g id="text_17">
     <!-- Average Reward -->
     <g transform="translate(17.053125 215.270969)rotate(-90)scale(0.1 -0.1)">
      <defs>
       <path d="M 2188 4044 
L 1331 1722 
L 3047 1722 
L 2188 4044 
z
M 1831 4666 
L 2547 4666 
L 4325 0 
L 3669 0 
L 3244 1197 
L 1141 1197 
L 716 0 
L 50 0 
L 1831 4666 
z
" id="DejaVuSans-41" transform="scale(0.015625)"/>
       <path d="M 191 3500 
L 800 3500 
L 1894 563 
L 2988 3500 
L 3597 3500 
L 2284 0 
L 1503 0 
L 191 3500 
z
" id="DejaVuSans-76" transform="scale(0.015625)"/>
       <path d="M 3597 1894 
L 3597 1613 
L 953 1613 
Q 991 1019 1311 708 
Q 1631 397 2203 397 
Q 2534 397 2845 478 
Q 3156 559 3463 722 
L 3463 178 
Q 3153 47 2828 -22 
Q 2503 -91 2169 -91 
Q 1331 -91 842 396 
Q 353 884 353 1716 
Q 353 2575 817 3079 
Q 1281 3584 2069 3584 
Q 2775 3584 3186 3129 
Q 3597 2675 3597 1894 
z
M 3022 2063 
Q 3016 2534 2758 2815 
Q 2500 3097 2075 3097 
Q 1594 3097 1305 2825 
Q 1016 2553 972 2059 
L 3022 2063 
z
" id="DejaVuSans-65" transform="scale(0.015625)"/>
       <path d="M 2631 2963 
Q 2534 3019 2420 3045 
Q 2306 3072 2169 3072 
Q 1681 3072 1420 2755 
Q 1159 2438 1159 1844 
L 1159 0 
L 581 0 
L 581 3500 
L 1159 3500 
L 1159 2956 
Q 1341 3275 1631 3429 
Q 1922 3584 2338 3584 
Q 2397 3584 2469 3576 
Q 2541 3569 2628 3553 
L 2631 2963 
z
" id="DejaVuSans-72" transform="scale(0.015625)"/>
       <path d="M 2194 1759 
Q 1497 1759 1228 1600 
Q 959 1441 959 1056 
Q 959 750 1161 570 
Q 1363 391 1709 391 
Q 2188 391 2477 730 
Q 2766 1069 2766 1631 
L 2766 1759 
L 2194 1759 
z
M 3341 1997 
L 3341 0 
L 2766 0 
L 2766 531 
Q 2569 213 2275 61 
Q 1981 -91 1556 -91 
Q 1019 -91 701 211 
Q 384 513 384 1019 
Q 384 1609 779 1909 
Q 1175 2209 1959 2209 
L 2766 2209 
L 2766 2266 
Q 2766 2663 2505 2880 
Q 2244 3097 1772 3097 
Q 1472 3097 1187 3025 
Q 903 2953 641 2809 
L 641 3341 
Q 956 3463 1253 3523 
Q 1550 3584 1831 3584 
Q 2591 3584 2966 3190 
Q 3341 2797 3341 1997 
z
" id="DejaVuSans-61" transform="scale(0.015625)"/>
       <path d="M 2906 1791 
Q 2906 2416 2648 2759 
Q 2391 3103 1925 3103 
Q 1463 3103 1205 2759 
Q 947 2416 947 1791 
Q 947 1169 1205 825 
Q 1463 481 1925 481 
Q 2391 481 2648 825 
Q 2906 1169 2906 1791 
z
M 3481 434 
Q 3481 -459 3084 -895 
Q 2688 -1331 1869 -1331 
Q 1566 -1331 1297 -1286 
Q 1028 -1241 775 -1147 
L 775 -588 
Q 1028 -725 1275 -790 
Q 1522 -856 1778 -856 
Q 2344 -856 2625 -561 
Q 2906 -266 2906 331 
L 2906 616 
Q 2728 306 2450 153 
Q 2172 0 1784 0 
Q 1141 0 747 490 
Q 353 981 353 1791 
Q 353 2603 747 3093 
Q 1141 3584 1784 3584 
Q 2172 3584 2450 3431 
Q 2728 3278 2906 2969 
L 2906 3500 
L 3481 3500 
L 3481 434 
z
" id="DejaVuSans-67" transform="scale(0.015625)"/>
       <path id="DejaVuSans-20" transform="scale(0.015625)"/>
       <path d="M 2841 2188 
Q 3044 2119 3236 1894 
Q 3428 1669 3622 1275 
L 4263 0 
L 3584 0 
L 2988 1197 
Q 2756 1666 2539 1819 
Q 2322 1972 1947 1972 
L 1259 1972 
L 1259 0 
L 628 0 
L 628 4666 
L 2053 4666 
Q 2853 4666 3247 4331 
Q 3641 3997 3641 3322 
Q 3641 2881 3436 2590 
Q 3231 2300 2841 2188 
z
M 1259 4147 
L 1259 2491 
L 2053 2491 
Q 2509 2491 2742 2702 
Q 2975 2913 2975 3322 
Q 2975 3731 2742 3939 
Q 2509 4147 2053 4147 
L 1259 4147 
z
" id="DejaVuSans-52" transform="scale(0.015625)"/>
       <path d="M 269 3500 
L 844 3500 
L 1563 769 
L 2278 3500 
L 2956 3500 
L 3675 769 
L 4391 3500 
L 4966 3500 
L 4050 0 
L 3372 0 
L 2619 2869 
L 1863 0 
L 1184 0 
L 269 3500 
z
" id="DejaVuSans-77" transform="scale(0.015625)"/>
       <path d="M 2906 2969 
L 2906 4863 
L 3481 4863 
L 3481 0 
L 2906 0 
L 2906 525 
Q 2725 213 2448 61 
Q 2172 -91 1784 -91 
Q 1150 -91 751 415 
Q 353 922 353 1747 
Q 353 2572 751 3078 
Q 1150 3584 1784 3584 
Q 2172 3584 2448 3432 
Q 2725 3281 2906 2969 
z
M 947 1747 
Q 947 1113 1208 752 
Q 1469 391 1925 391 
Q 2381 391 2643 752 
Q 2906 1113 2906 1747 
Q 2906 2381 2643 2742 
Q 2381 3103 1925 3103 
Q 1469 3103 1208 2742 
Q 947 2381 947 1747 
z
" id="DejaVuSans-64" transform="scale(0.015625)"/>
      </defs>
      <!--
      <use xlink:href="#DejaVuSans-41"/>
      <use x="62.533203" xlink:href="#DejaVuSans-76"/>
      <use x="121.712891" xlink:href="#DejaVuSans-65"/>
      <use x="183.236328" xlink:href="#DejaVuSans-72"/>
      <use x="224.349609" xlink:href="#DejaVuSans-61"/>
      <use x="285.628906" xlink:href="#DejaVuSans-67"/>
      <use x="349.105469" xlink:href="#DejaVuSans-65"/>
      <use x="410.628906" xlink:href="#DejaVuSans-20"/>
      <use x="442.416016" xlink:href="#DejaVuSans-52"/>
      <use x="507.398438" xlink:href="#DejaVuSans-65"/>
      <use x="568.921875" xlink:href="#DejaVuSans-77"/>
      <use x="650.708984" xlink:href="#DejaVuSans-61"/>
      <use x="711.988281" xlink:href="#DejaVuSans-72"/>
      <use x="751.351562" xlink:href="#DejaVuSans-64"/>
    -->
     </g>
    </g>
   </g>
   <g id="line2d_16">
    <path clip-path="url(#pbe9f041cd3)" d="M 73.832727 254.306966 
L 77.942278 254.306966 
L 82.05183 254.306966 
L 86.161381 254.306966 
L 90.270932 254.306966 
L 94.380483 254.306966 
L 98.490035 254.306966 
L 102.599586 254.306966 
L 106.709137 254.306966 
L 110.818688 254.306966 
L 114.928239 254.306966 
L 119.037791 254.306966 
L 123.147342 254.306966 
L 127.256893 254.306966 
L 131.366444 254.306966 
L 135.475995 254.306966 
L 139.585547 254.306966 
L 143.695098 254.306966 
L 147.804649 254.306966 
L 151.9142 254.306966 
L 156.023751 254.306966 
L 160.133303 254.306966 
L 164.242854 254.306966 
L 168.352405 254.306966 
L 172.461956 254.306966 
L 176.571507 254.306966 
L 180.681059 254.306966 
L 184.79061 254.306966 
L 188.900161 254.306966 
L 193.009712 254.306966 
L 197.119264 254.306966 
L 201.228815 254.306966 
L 205.338366 254.306966 
L 209.447917 254.306966 
L 213.557468 254.306966 
L 217.66702 254.306966 
L 221.776571 254.306966 
L 225.886122 254.306966 
L 229.995673 254.306966 
L 234.105224 254.306966 
L 238.214776 254.306966 
L 242.324327 254.306966 
L 246.433878 254.306966 
L 250.543429 254.306966 
L 254.65298 254.306966 
L 258.762532 254.306966 
L 262.872083 254.306966 
L 266.981634 254.306966 
L 271.091185 254.306966 
L 275.200736 254.306966 
L 279.310288 254.306966 
L 283.419839 254.306966 
L 287.52939 254.306966 
L 291.638941 254.306966 
L 295.748493 254.306966 
L 299.858044 254.306966 
L 303.967595 254.306966 
L 308.077146 254.306966 
L 312.186697 254.306966 
L 316.296249 254.306966 
L 320.4058 254.306966 
L 324.515351 254.306966 
L 328.624902 254.306966 
L 332.734453 254.306966 
L 336.844005 254.306966 
L 340.953556 254.306966 
L 345.063107 254.306966 
L 349.172658 254.306966 
L 353.282209 254.306966 
L 357.391761 254.306966 
L 361.501312 254.306966 
L 365.610863 254.306966 
L 369.720414 254.306966 
L 373.829965 254.306966 
L 377.939517 254.306966 
L 382.049068 254.306966 
L 386.158619 254.306966 
L 390.26817 254.306966 
L 394.377722 254.306966 
L 398.487273 254.306966 
" style="fill:none;stroke:#1f77b4;stroke-linecap:square;stroke-width:1.5;"/>
   </g>
   <g id="line2d_17">
    <path clip-path="url(#pbe9f041cd3)" d="M 73.832727 254.306966 
L 77.942278 254.306966 
L 82.05183 254.306966 
L 86.161381 254.306966 
L 90.270932 254.306966 
L 94.380483 254.306966 
L 98.490035 254.306966 
L 102.599586 254.306966 
L 106.709137 254.306966 
L 110.818688 254.306966 
L 114.928239 254.306966 
L 119.037791 254.306966 
L 123.147342 254.306966 
L 127.256893 254.306966 
L 131.366444 254.306966 
L 135.475995 254.306966 
L 139.585547 254.306966 
L 143.695098 254.306966 
L 147.804649 254.306966 
L 151.9142 254.306966 
L 156.023751 254.306966 
L 160.133303 254.306966 
L 164.242854 254.306966 
L 168.352405 254.306966 
L 172.461956 254.306966 
L 176.571507 254.306966 
L 180.681059 254.306966 
L 184.79061 254.306966 
L 188.900161 254.306966 
L 193.009712 254.306966 
L 197.119264 254.306966 
L 201.228815 254.306966 
L 205.338366 254.306966 
L 209.447917 254.306966 
L 213.557468 254.306966 
L 217.66702 254.306966 
L 221.776571 254.306966 
L 225.886122 254.306966 
L 229.995673 254.306966 
L 234.105224 254.306966 
L 238.214776 254.306966 
L 242.324327 254.306966 
L 246.433878 254.306966 
L 250.543429 254.306966 
L 254.65298 254.306966 
L 258.762532 254.306966 
L 262.872083 254.306966 
L 266.981634 254.306966 
L 271.091185 254.306966 
L 275.200736 253.794626 
L 279.310288 253.948328 
L 283.419839 254.05592 
L 287.52939 254.131234 
L 291.638941 237.605886 
L 295.748493 242.61621 
L 299.858044 223.990667 
L 303.967595 219.71483 
L 308.077146 230.092471 
L 312.186697 237.356819 
L 316.296249 223.314032 
L 320.4058 232.611912 
L 324.515351 239.120429 
L 328.624902 243.67639 
L 332.734453 246.865563 
L 336.844005 225.802064 
L 340.953556 222.60389 
L 345.063107 222.482963 
L 349.172658 212.375805 
L 353.282209 206.959638 
L 357.391761 202.878768 
L 361.501312 201.196366 
L 365.610863 198.931626 
L 369.720414 189.915829 
L 373.829965 205.188835 
L 377.939517 219.924275 
L 382.049068 227.541544 
L 386.158619 235.57117 
L 390.26817 216.673743 
L 394.377722 200.772788 
L 398.487273 186.744935 
" style="fill:none;stroke:#ff7f0e;stroke-linecap:square;stroke-width:1.5;"/>
   </g>
   <g id="line2d_18">
    <path clip-path="url(#pbe9f041cd3)" d="M 73.832727 254.306966 
L 77.942278 254.306966 
L 82.05183 254.306966 
L 86.161381 254.306966 
L 90.270932 254.306966 
L 94.380483 254.306966 
L 98.490035 254.306966 
L 102.599586 254.306966 
L 106.709137 254.306966 
L 110.818688 254.306966 
L 114.928239 254.306966 
L 119.037791 254.306966 
L 123.147342 254.306966 
L 127.256893 254.306966 
L 131.366444 254.306966 
L 135.475995 254.306966 
L 139.585547 254.306966 
L 143.695098 254.306966 
L 147.804649 254.306966 
L 151.9142 254.306966 
L 156.023751 254.306966 
L 160.133303 254.306966 
L 164.242854 254.306966 
L 168.352405 254.306966 
L 172.461956 254.306966 
L 176.571507 254.306966 
L 180.681059 254.306966 
L 184.79061 254.306966 
L 188.900161 254.306966 
L 193.009712 254.306966 
L 197.119264 254.306966 
L 201.228815 254.306966 
L 205.338366 254.306966 
L 209.447917 254.306966 
L 213.557468 254.306966 
L 217.66702 254.306966 
L 221.776571 254.306966 
L 225.886122 254.306966 
L 229.995673 254.306966 
L 234.105224 254.306966 
L 238.214776 254.306966 
L 242.324327 254.306966 
L 246.433878 254.306966 
L 250.543429 254.306966 
L 254.65298 254.306966 
L 258.762532 242.446397 
L 262.872083 246.004568 
L 266.981634 248.495288 
L 271.091185 238.431186 
L 275.200736 233.671069 
L 279.310288 220.22032 
L 283.419839 230.446314 
L 287.52939 228.033716 
L 291.638941 235.915691 
L 295.748493 225.496652 
L 299.858044 210.9449 
L 303.967595 214.873925 
L 308.077146 217.613326 
L 312.186697 211.158256 
L 316.296249 214.625119 
L 320.4058 213.334326 
L 324.515351 225.626118 
L 328.624902 215.993894 
L 332.734453 219.314659 
L 336.844005 214.449049 
L 340.953556 226.406424 
L 345.063107 217.014207 
L 349.172658 203.828612 
L 353.282209 216.401953 
L 357.391761 208.299193 
L 361.501312 184.959302 
L 365.610863 172.387349 
L 369.720414 177.654499 
L 373.829965 184.649096 
L 377.939517 164.270748 
L 382.049068 157.271456 
L 386.158619 154.58566 
L 390.26817 161.094245 
L 394.377722 167.866687 
L 398.487273 138.238402 
" style="fill:none;stroke:#2ca02c;stroke-linecap:square;stroke-width:1.5;"/>
   </g>
   <g id="line2d_19">
    <path clip-path="url(#pbe9f041cd3)" d="M 73.832727 254.306966 
L 77.942278 254.306966 
L 82.05183 254.306966 
L 86.161381 254.306966 
L 90.270932 254.306966 
L 94.380483 254.306966 
L 98.490035 254.306966 
L 102.599586 254.306966 
L 106.709137 254.306966 
L 110.818688 254.306966 
L 114.928239 254.306966 
L 119.037791 254.306966 
L 123.147342 254.306966 
L 127.256893 254.306966 
L 131.366444 254.306966 
L 135.475995 254.306966 
L 139.585547 254.306966 
L 143.695098 254.306966 
L 147.804649 254.306966 
L 151.9142 254.306966 
L 156.023751 254.306966 
L 160.133303 254.306966 
L 164.242854 254.306966 
L 168.352405 254.306966 
L 172.461956 254.306966 
L 176.571507 254.306966 
L 180.681059 254.306966 
L 184.79061 254.306966 
L 188.900161 254.306966 
L 193.009712 254.306966 
L 197.119264 254.306966 
L 201.228815 254.306966 
L 205.338366 254.306966 
L 209.447917 254.306966 
L 213.557468 254.306966 
L 217.66702 254.306966 
L 221.776571 254.306966 
L 225.886122 254.306966 
L 229.995673 254.306966 
L 234.105224 254.306966 
L 238.214776 254.306966 
L 242.324327 254.306966 
L 246.433878 254.306966 
L 250.543429 254.306966 
L 254.65298 254.306966 
L 258.762532 254.306966 
L 262.872083 254.306966 
L 266.981634 254.306966 
L 271.091185 254.306966 
L 275.200736 254.306966 
L 279.310288 254.306966 
L 283.419839 254.306966 
L 287.52939 254.306966 
L 291.638941 254.306966 
L 295.748493 254.306966 
L 299.858044 254.306966 
L 303.967595 254.306966 
L 308.077146 254.306966 
L 312.186697 254.306966 
L 316.296249 254.306966 
L 320.4058 254.306966 
L 324.515351 254.306966 
L 328.624902 254.306966 
L 332.734453 254.306966 
L 336.844005 236.982282 
L 340.953556 242.179687 
L 345.063107 245.817871 
L 349.172658 225.365347 
L 353.282209 214.576293 
L 357.391761 226.495495 
L 361.501312 234.838936 
L 365.610863 228.70538 
L 369.720414 227.230011 
L 373.829965 235.353098 
L 377.939517 241.039258 
L 382.049068 229.209792 
L 386.158619 225.131166 
L 390.26817 218.51008 
L 394.377722 204.427449 
L 398.487273 206.371055 
" style="fill:none;stroke:#d62728;stroke-linecap:square;stroke-width:1.5;"/>
   </g>
   <g id="line2d_20">
    <path clip-path="url(#pbe9f041cd3)" d="M 73.832727 254.306966 
L 77.942278 254.306966 
L 82.05183 254.306966 
L 86.161381 254.306966 
L 90.270932 254.306966 
L 94.380483 254.306966 
L 98.490035 254.306966 
L 102.599586 254.306966 
L 106.709137 254.306966 
L 110.818688 254.306966 
L 114.928239 254.306966 
L 119.037791 254.306966 
L 123.147342 254.306966 
L 127.256893 254.306966 
L 131.366444 254.306966 
L 135.475995 254.306966 
L 139.585547 254.306966 
L 143.695098 254.306966 
L 147.804649 254.306966 
L 151.9142 254.306966 
L 156.023751 254.306966 
L 160.133303 254.306966 
L 164.242854 254.306966 
L 168.352405 254.306966 
L 172.461956 254.306966 
L 176.571507 254.306966 
L 180.681059 247.228104 
L 184.79061 249.351763 
L 188.900161 250.838324 
L 193.009712 251.878917 
L 197.119264 252.607332 
L 201.228815 253.117222 
L 205.338366 253.474145 
L 209.447917 253.723992 
L 213.557468 253.898884 
L 217.66702 254.021309 
L 221.776571 254.107006 
L 225.886122 254.166994 
L 229.995673 254.208986 
L 234.105224 254.23838 
L 238.214776 254.258956 
L 242.324327 254.273359 
L 246.433878 254.283441 
L 250.543429 254.290499 
L 254.65298 244.223145 
L 258.762532 238.033493 
L 262.872083 242.915535 
L 266.981634 246.332964 
L 271.091185 231.981399 
L 275.200736 238.67907 
L 279.310288 243.367439 
L 283.419839 239.150212 
L 287.52939 240.072385 
L 291.638941 221.334917 
L 295.748493 217.824552 
L 299.858044 228.769276 
L 303.967595 236.430583 
L 308.077146 241.793498 
L 312.186697 245.547539 
L 316.296249 246.449472 
L 320.4058 248.80672 
L 324.515351 250.456794 
L 328.624902 251.611846 
L 332.734453 252.420382 
L 336.844005 252.986357 
L 340.953556 238.237422 
L 345.063107 243.058286 
L 349.172658 246.43289 
L 353.282209 235.584749 
L 357.391761 224.763707 
L 361.501312 218.619446 
L 365.610863 202.86249 
L 369.720414 202.69016 
L 373.829965 213.25429 
L 377.939517 216.905847 
L 382.049068 202.992558 
L 386.158619 202.499681 
L 390.26817 198.052628 
L 394.377722 211.434507 
L 398.487273 211.964737 
" style="fill:none;stroke:#9467bd;stroke-linecap:square;stroke-width:1.5;"/>
   </g>
   <g id="line2d_21">
    <path clip-path="url(#pbe9f041cd3)" d="M 73.832727 254.306966 
L 77.942278 254.306966 
L 82.05183 254.306966 
L 86.161381 254.306966 
L 90.270932 254.306966 
L 94.380483 254.306966 
L 98.490035 254.306966 
L 102.599586 254.306966 
L 106.709137 254.306966 
L 110.818688 254.306966 
L 114.928239 254.306966 
L 119.037791 254.306966 
L 123.147342 254.306966 
L 127.256893 254.306966 
L 131.366444 254.306966 
L 135.475995 254.306966 
L 139.585547 254.306966 
L 143.695098 254.306966 
L 147.804649 254.306966 
L 151.9142 254.306966 
L 156.023751 254.306966 
L 160.133303 254.306966 
L 164.242854 254.306966 
L 168.352405 254.306966 
L 172.461956 254.306966 
L 176.571507 254.306966 
L 180.681059 254.306966 
L 184.79061 254.306966 
L 188.900161 254.306966 
L 193.009712 254.306966 
L 197.119264 254.306966 
L 201.228815 254.306966 
L 205.338366 254.306966 
L 209.447917 254.306966 
L 213.557468 254.306966 
L 217.66702 254.306966 
L 221.776571 254.306966 
L 225.886122 254.306966 
L 229.995673 254.306966 
L 234.105224 254.306966 
L 238.214776 254.306966 
L 242.324327 254.306966 
L 246.433878 254.306966 
L 250.543429 254.306966 
L 254.65298 254.306966 
L 258.762532 254.306966 
L 262.872083 254.306966 
L 266.981634 254.306966 
L 271.091185 254.306966 
L 275.200736 254.306966 
L 279.310288 254.306966 
L 283.419839 254.306966 
L 287.52939 254.306966 
L 291.638941 254.306966 
L 295.748493 254.306966 
L 299.858044 254.306966 
L 303.967595 254.306966 
L 308.077146 254.306966 
L 312.186697 254.306966 
L 316.296249 254.306966 
L 320.4058 254.306966 
L 324.515351 254.306966 
L 328.624902 254.306966 
L 332.734453 254.306966 
L 336.844005 254.306966 
L 340.953556 254.306966 
L 345.063107 254.306966 
L 349.172658 254.306966 
L 353.282209 254.306966 
L 357.391761 254.306966 
L 361.501312 254.306966 
L 365.610863 254.306966 
L 369.720414 254.306966 
L 373.829965 254.306966 
L 377.939517 254.306966 
L 382.049068 254.306966 
L 386.158619 254.306966 
L 390.26817 254.306966 
L 394.377722 254.306966 
L 398.487273 254.306966 
" style="fill:none;stroke:#8c564b;stroke-linecap:square;stroke-width:1.5;"/>
   </g>
   <g id="patch_3">
    <path d="M 57.6 307.584 
L 57.6 41.472 
" style="fill:none;stroke:#000000;stroke-linecap:square;stroke-linejoin:miter;stroke-width:0.8;"/>
   </g>
   <g id="patch_4">
    <path d="M 414.72 307.584 
L 414.72 41.472 
" style="fill:none;stroke:#000000;stroke-linecap:square;stroke-linejoin:miter;stroke-width:0.8;"/>
   </g>
   <g id="patch_5">
    <path d="M 57.6 307.584 
L 414.72 307.584 
" style="fill:none;stroke:#000000;stroke-linecap:square;stroke-linejoin:miter;stroke-width:0.8;"/>
   </g>
   <g id="patch_6">
    <path d="M 57.6 41.472 
L 414.72 41.472 
" style="fill:none;stroke:#000000;stroke-linecap:square;stroke-linejoin:miter;stroke-width:0.8;"/>
   </g>
   <g id="legend_1">
    <g id="patch_7">
     <path d="M 64.6 137.54075 
L 140.710938 137.54075 
Q 142.710938 137.54075 142.710938 135.54075 
L 142.710938 48.472 
Q 142.710938 46.472 140.710938 46.472 
L 64.6 46.472 
Q 62.6 46.472 62.6 48.472 
L 62.6 135.54075 
Q 62.6 137.54075 64.6 137.54075 
z
" style="fill:#ffffff;opacity:0.8;stroke:#cccccc;stroke-linejoin:miter;"/>
    </g>
    <g id="line2d_21">
     <path d="M 66.6 54.570438 
L 86.6 54.570438 
" style="fill:none;stroke:#1f77b4;stroke-linecap:square;stroke-width:1.5;"/>
    </g>
    <g id="line2d_22"/>
    <g id="text_15">
     <!-- lr = 1e-4 -->
     <g transform="translate(94.6 58.070438)scale(0.1 -0.1)">
      <defs>
       <path d="M 603 4863 
L 1178 4863 
L 1178 0 
L 603 0 
L 603 4863 
z
" id="DejaVuSans-6c" transform="scale(0.015625)"/>
       <path d="M 2631 2963 
Q 2534 3019 2420 3045 
Q 2306 3072 2169 3072 
Q 1681 3072 1420 2755 
Q 1159 2438 1159 1844 
L 1159 0 
L 581 0 
L 581 3500 
L 1159 3500 
L 1159 2956 
Q 1341 3275 1631 3429 
Q 1922 3584 2338 3584 
Q 2397 3584 2469 3576 
Q 2541 3569 2628 3553 
L 2631 2963 
z
" id="DejaVuSans-72" transform="scale(0.015625)"/>
       <path id="DejaVuSans-20" transform="scale(0.015625)"/>
       <path d="M 678 2906 
L 4684 2906 
L 4684 2381 
L 678 2381 
L 678 2906 
z
M 678 1631 
L 4684 1631 
L 4684 1100 
L 678 1100 
L 678 1631 
z
" id="DejaVuSans-3d" transform="scale(0.015625)"/>
       <path d="M 3597 1894 
L 3597 1613 
L 953 1613 
Q 991 1019 1311 708 
Q 1631 397 2203 397 
Q 2534 397 2845 478 
Q 3156 559 3463 722 
L 3463 178 
Q 3153 47 2828 -22 
Q 2503 -91 2169 -91 
Q 1331 -91 842 396 
Q 353 884 353 1716 
Q 353 2575 817 3079 
Q 1281 3584 2069 3584 
Q 2775 3584 3186 3129 
Q 3597 2675 3597 1894 
z
M 3022 2063 
Q 3016 2534 2758 2815 
Q 2500 3097 2075 3097 
Q 1594 3097 1305 2825 
Q 1016 2553 972 2059 
L 3022 2063 
z
" id="DejaVuSans-65" transform="scale(0.015625)"/>
       <path d="M 313 2009 
L 1997 2009 
L 1997 1497 
L 313 1497 
L 313 2009 
z
" id="DejaVuSans-2d" transform="scale(0.015625)"/>
      </defs>
      <use xlink:href="#DejaVuSans-6c"/>
      <use x="27.783203" xlink:href="#DejaVuSans-72"/>
      <use x="68.896484" xlink:href="#DejaVuSans-20"/>
      <use x="100.683594" xlink:href="#DejaVuSans-3d"/>
      <use x="184.472656" xlink:href="#DejaVuSans-20"/>
      <use x="216.259766" xlink:href="#DejaVuSans-31"/>
      <use x="279.882812" xlink:href="#DejaVuSans-65"/>
      <use x="341.40625" xlink:href="#DejaVuSans-2d"/>
      <use x="377.490234" xlink:href="#DejaVuSans-34"/>
     </g>
    </g>
    <g id="line2d_23">
     <path d="M 66.6 69.248563 
L 86.6 69.248563 
" style="fill:none;stroke:#ff7f0e;stroke-linecap:square;stroke-width:1.5;"/>
    </g>
    <g id="line2d_24"/>
    <g id="text_16">
     <!-- lr = 5e-4 -->
     <g transform="translate(94.6 72.748563)scale(0.1 -0.1)">
      <use xlink:href="#DejaVuSans-6c"/>
      <use x="27.783203" xlink:href="#DejaVuSans-72"/>
      <use x="68.896484" xlink:href="#DejaVuSans-20"/>
      <use x="100.683594" xlink:href="#DejaVuSans-3d"/>
      <use x="184.472656" xlink:href="#DejaVuSans-20"/>
      <use x="216.259766" xlink:href="#DejaVuSans-35"/>
      <use x="279.882812" xlink:href="#DejaVuSans-65"/>
      <use x="341.40625" xlink:href="#DejaVuSans-2d"/>
      <use x="377.490234" xlink:href="#DejaVuSans-34"/>
     </g>
    </g>
    <g id="line2d_25">
     <path d="M 66.6 83.926688 
L 86.6 83.926688 
" style="fill:none;stroke:#2ca02c;stroke-linecap:square;stroke-width:1.5;"/>
    </g>
    <g id="line2d_26"/>
    <g id="text_17">
     <!-- lr = 1e-3 -->
     <g transform="translate(94.6 87.426688)scale(0.1 -0.1)">
      <use xlink:href="#DejaVuSans-6c"/>
      <use x="27.783203" xlink:href="#DejaVuSans-72"/>
      <use x="68.896484" xlink:href="#DejaVuSans-20"/>
      <use x="100.683594" xlink:href="#DejaVuSans-3d"/>
      <use x="184.472656" xlink:href="#DejaVuSans-20"/>
      <use x="216.259766" xlink:href="#DejaVuSans-31"/>
      <use x="279.882812" xlink:href="#DejaVuSans-65"/>
      <use x="341.40625" xlink:href="#DejaVuSans-2d"/>
      <use x="377.490234" xlink:href="#DejaVuSans-33"/>
     </g>
    </g>
    <g id="line2d_27">
     <path d="M 66.6 98.604813 
L 86.6 98.604813 
" style="fill:none;stroke:#d62728;stroke-linecap:square;stroke-width:1.5;"/>
    </g>
    <g id="line2d_28"/>
    <g id="text_18">
     <!-- lr = 5e-3 -->
     <g transform="translate(94.6 102.104813)scale(0.1 -0.1)">
      <use xlink:href="#DejaVuSans-6c"/>
      <use x="27.783203" xlink:href="#DejaVuSans-72"/>
      <use x="68.896484" xlink:href="#DejaVuSans-20"/>
      <use x="100.683594" xlink:href="#DejaVuSans-3d"/>
      <use x="184.472656" xlink:href="#DejaVuSans-20"/>
      <use x="216.259766" xlink:href="#DejaVuSans-35"/>
      <use x="279.882812" xlink:href="#DejaVuSans-65"/>
      <use x="341.40625" xlink:href="#DejaVuSans-2d"/>
      <use x="377.490234" xlink:href="#DejaVuSans-33"/>
     </g>
    </g>
    <g id="line2d_29">
     <path d="M 66.6 113.282938 
L 86.6 113.282938 
" style="fill:none;stroke:#9467bd;stroke-linecap:square;stroke-width:1.5;"/>
    </g>
    <g id="line2d_30"/>
    <g id="text_19">
     <!-- lr = 1e-2 -->
     <g transform="translate(94.6 116.782938)scale(0.1 -0.1)">
      <defs>
       <path d="M 1228 531 
L 3431 531 
L 3431 0 
L 469 0 
L 469 531 
Q 828 903 1448 1529 
Q 2069 2156 2228 2338 
Q 2531 2678 2651 2914 
Q 2772 3150 2772 3378 
Q 2772 3750 2511 3984 
Q 2250 4219 1831 4219 
Q 1534 4219 1204 4116 
Q 875 4013 500 3803 
L 500 4441 
Q 881 4594 1212 4672 
Q 1544 4750 1819 4750 
Q 2544 4750 2975 4387 
Q 3406 4025 3406 3419 
Q 3406 3131 3298 2873 
Q 3191 2616 2906 2266 
Q 2828 2175 2409 1742 
Q 1991 1309 1228 531 
z
" id="DejaVuSans-32" transform="scale(0.015625)"/>
      </defs>
      <use xlink:href="#DejaVuSans-6c"/>
      <use x="27.783203" xlink:href="#DejaVuSans-72"/>
      <use x="68.896484" xlink:href="#DejaVuSans-20"/>
      <use x="100.683594" xlink:href="#DejaVuSans-3d"/>
      <use x="184.472656" xlink:href="#DejaVuSans-20"/>
      <use x="216.259766" xlink:href="#DejaVuSans-31"/>
      <use x="279.882812" xlink:href="#DejaVuSans-65"/>
      <use x="341.40625" xlink:href="#DejaVuSans-2d"/>
      <use x="377.490234" xlink:href="#DejaVuSans-32"/>
     </g>
    </g>
    <g id="line2d_31">
     <path d="M 66.6 127.961063 
L 86.6 127.961063 
" style="fill:none;stroke:#8c564b;stroke-linecap:square;stroke-width:1.5;"/>
    </g>
    <g id="line2d_32"/>
    <g id="text_20">
     <!-- lr = 5e-2 -->
     <g transform="translate(94.6 131.461063)scale(0.1 -0.1)">
      <use xlink:href="#DejaVuSans-6c"/>
      <use x="27.783203" xlink:href="#DejaVuSans-72"/>
      <use x="68.896484" xlink:href="#DejaVuSans-20"/>
      <use x="100.683594" xlink:href="#DejaVuSans-3d"/>
      <use x="184.472656" xlink:href="#DejaVuSans-20"/>
      <use x="216.259766" xlink:href="#DejaVuSans-35"/>
      <use x="279.882812" xlink:href="#DejaVuSans-65"/>
      <use x="341.40625" xlink:href="#DejaVuSans-2d"/>
      <use x="377.490234" xlink:href="#DejaVuSans-32"/>
     </g>
    </g>
   </g>
  </g>
 </g>
 <defs>
  <clipPath id="p7c9d6d8db0">
   <rect height="266.112" width="357.12" x="57.6" y="41.472"/>
  </clipPath>
 </defs>
</svg>
