<?xml version="1.0" encoding="utf-8" standalone="no"?>
<!DOCTYPE svg PUBLIC "-//W3C//DTD SVG 1.1//EN"
  "http://www.w3.org/Graphics/SVG/1.1/DTD/svg11.dtd">
<svg height="345.6pt" version="1.1" viewBox="0 0 460.8 345.6" width="460.8pt" xmlns="http://www.w3.org/2000/svg" xmlns:xlink="http://www.w3.org/1999/xlink">
 <metadata>
  <rdf:RDF xmlns:cc="http://creativecommons.org/ns#" xmlns:dc="http://purl.org/dc/elements/1.1/" xmlns:rdf="http://www.w3.org/1999/02/22-rdf-syntax-ns#">
   <cc:Work>
    <dc:type rdf:resource="http://purl.org/dc/dcmitype/StillImage"/>
    <dc:date>2022-01-03T15:34:29.984700</dc:date>
    <dc:format>image/svg+xml</dc:format>
    <dc:creator>
     <cc:Agent>
      <dc:title>Matplotlib v3.4.3, https://matplotlib.org/</dc:title>
     </cc:Agent>
    </dc:creator>
   </cc:Work>
  </rdf:RDF>
 </metadata>
 <defs>
  <style type="text/css">*{stroke-linecap:butt;stroke-linejoin:round;}</style>
 </defs>
 <g id="figure_1">
  <g id="patch_1">
   <path d="M 0 345.6 
L 460.8 345.6 
L 460.8 0 
L 0 0 
z
" style="fill:#ffffff;"/>
  </g>
  <g id="axes_1">
   <g id="patch_2">
    <path d="M 57.6 307.584 
L 414.72 307.584 
L 414.72 41.472 
L 57.6 41.472 
z
" style="fill:#ffffff;"/>
   </g>
   <g id="PolyCollection_1">
    <path clip-path="url(#p81cd102f4c)" d="M 73.832727 276.990917 
L 73.832727 276.990917 
L 82.157203 276.990917 
L 90.481678 284.058104 
L 98.806154 273.965633 
L 107.130629 274.791624 
L 115.455105 275.451412 
L 123.77958 275.919543 
L 132.104056 264.105518 
L 140.428531 267.810838 
L 148.753007 253.106904 
L 157.077483 232.382241 
L 165.401958 239.159837 
L 173.726434 204.614637 
L 182.050909 184.797359 
L 190.375385 158.347931 
L 198.69986 172.434167 
L 207.024336 161.06686 
L 215.348811 140.830448 
L 223.673287 177.445108 
L 231.997762 157.383304 
L 240.322238 133.900624 
L 248.646713 139.126695 
L 256.971189 155.642319 
L 265.295664 156.824625 
L 273.62014 145.712509 
L 281.944615 127.240491 
L 290.269091 116.255559 
L 298.593566 141.86787 
L 306.918042 127.788893 
L 315.242517 112.649317 
L 323.566993 125.885066 
L 331.891469 112.102603 
L 340.215944 100.824744 
L 348.54042 97.027911 
L 356.864895 89.543563 
L 365.189371 84.91961 
L 373.513846 87.226942 
L 381.838322 85.326428 
L 390.162797 84.109793 
L 398.487273 83.315248 
L 398.487273 83.315248 
L 398.487273 66.360983 
L 390.162797 68.416005 
L 381.838322 69.594252 
L 373.513846 70.839767 
L 365.189371 71.897779 
L 356.864895 72.173279 
L 348.54042 74.743935 
L 340.215944 77.077141 
L 331.891469 82.510455 
L 323.566993 78.889054 
L 315.242517 65.578046 
L 306.918042 58.774384 
L 298.593566 53.568 
L 290.269091 61.87023 
L 281.944615 61.05409 
L 273.62014 61.812337 
L 265.295664 63.946493 
L 256.971189 74.314534 
L 248.646713 83.288829 
L 240.322238 70.963273 
L 231.997762 72.530856 
L 223.673287 77.422742 
L 215.348811 74.62905 
L 207.024336 80.122094 
L 198.69986 93.927759 
L 190.375385 111.775024 
L 182.050909 129.675861 
L 173.726434 134.196811 
L 165.401958 145.431556 
L 157.077483 169.89077 
L 148.753007 174.730943 
L 140.428531 168.849231 
L 132.104056 205.093477 
L 123.77958 175.0597 
L 115.455105 214.594908 
L 107.130629 187.853761 
L 98.806154 238.253656 
L 90.481678 237.0779 
L 82.157203 276.990917 
L 73.832727 276.990917 
z
" style="fill:#1f77b4;fill-opacity:0.3;"/>
   </g>
   <g id="PolyCollection_2">
    <path clip-path="url(#p81cd102f4c)" d="M 73.832727 277.32251 
L 73.832727 277.32251 
L 82.157203 277.223032 
L 90.481678 277.004844 
L 98.806154 277.000666 
L 107.130629 269.932765 
L 115.455105 272.050211 
L 123.77958 273.532423 
L 132.104056 275.339143 
L 140.428531 278.634916 
L 148.753007 278.141716 
L 157.077483 277.796477 
L 165.401958 267.776924 
L 173.726434 247.891069 
L 182.050909 253.433546 
L 190.375385 208.032734 
L 198.69986 223.265407 
L 207.024336 184.943982 
L 215.348811 208.524338 
L 223.673287 164.979241 
L 231.997762 177.486191 
L 240.322238 161.013835 
L 248.646713 133.365974 
L 256.971189 152.502407 
L 265.295664 127.768751 
L 273.62014 153.911969 
L 281.944615 129.967761 
L 290.269091 130.920514 
L 298.593566 158.880076 
L 306.918042 137.750273 
L 315.242517 148.284212 
L 323.566993 142.005644 
L 331.891469 156.87224 
L 340.215944 130.057319 
L 348.54042 113.843734 
L 356.864895 107.131419 
L 365.189371 98.162403 
L 373.513846 108.485083 
L 381.838322 138.444574 
L 390.162797 120.011137 
L 398.487273 109.96784 
L 398.487273 109.96784 
L 398.487273 92.027456 
L 390.162797 100.302044 
L 381.838322 85.271485 
L 373.513846 63.656111 
L 365.189371 71.352552 
L 356.864895 73.069111 
L 348.54042 68.579001 
L 340.215944 68.97818 
L 331.891469 71.057931 
L 323.566993 84.570471 
L 315.242517 73.629179 
L 306.918042 77.063602 
L 298.593566 63.887234 
L 290.269091 66.483838 
L 281.944615 72.888733 
L 273.62014 67.566042 
L 265.295664 75.399123 
L 256.971189 80.947931 
L 248.646713 93.737993 
L 240.322238 104.912637 
L 231.997762 110.755665 
L 223.673287 145.235457 
L 215.348811 121.804072 
L 207.024336 137.207713 
L 198.69986 154.728526 
L 190.375385 136.695659 
L 182.050909 132.685796 
L 173.726434 157.492495 
L 165.401958 208.643398 
L 157.077483 254.935687 
L 148.753007 245.483446 
L 140.428531 231.980244 
L 132.104056 253.140151 
L 123.77958 260.775747 
L 115.455105 253.826388 
L 107.130629 243.898733 
L 98.806154 245.799529 
L 90.481678 232.431791 
L 82.157203 213.336157 
L 73.832727 186.055546 
z
" style="fill:#ff7f0e;fill-opacity:0.3;"/>
   </g>
   <g id="PolyCollection_3">
    <path clip-path="url(#p81cd102f4c)" d="M 73.832727 295.488 
L 73.832727 295.488 
L 82.157203 289.938875 
L 90.481678 283.055072 
L 98.806154 281.235826 
L 107.130629 279.962353 
L 115.455105 276.027743 
L 123.77958 276.316695 
L 132.104056 276.518962 
L 140.428531 276.660548 
L 148.753007 285.385014 
L 157.077483 269.578638 
L 165.401958 264.878667 
L 173.726434 271.847236 
L 182.050909 284.140611 
L 190.375385 250.688813 
L 198.69986 261.802098 
L 207.024336 261.647179 
L 215.348811 264.216484 
L 223.673287 273.273826 
L 231.997762 261.503209 
L 240.322238 262.693259 
L 248.646713 266.982556 
L 256.971189 268.335409 
L 265.295664 252.963293 
L 273.62014 197.665175 
L 281.944615 201.369763 
L 290.269091 174.580747 
L 298.593566 141.196988 
L 306.918042 160.256755 
L 315.242517 199.277681 
L 323.566993 232.243297 
L 331.891469 187.313693 
L 340.215944 215.54324 
L 348.54042 181.987174 
L 356.864895 200.442101 
L 365.189371 168.398001 
L 373.513846 177.42475 
L 381.838322 146.75382 
L 390.162797 161.342572 
L 398.487273 163.867261 
L 398.487273 163.867261 
L 398.487273 124.206932 
L 390.162797 119.956158 
L 381.838322 105.738621 
L 373.513846 115.751013 
L 365.189371 101.466239 
L 356.864895 112.361309 
L 348.54042 116.557208 
L 340.215944 119.396914 
L 331.891469 107.171423 
L 323.566993 121.464674 
L 315.242517 113.450217 
L 306.918042 92.677791 
L 298.593566 108.552931 
L 290.269091 126.885247 
L 281.944615 124.953491 
L 273.62014 144.203438 
L 265.295664 175.697278 
L 256.971189 192.313353 
L 248.646713 176.974845 
L 240.322238 134.110815 
L 231.997762 152.904688 
L 223.673287 167.484389 
L 215.348811 166.494061 
L 207.024336 155.9394 
L 198.69986 181.441192 
L 190.375385 159.253587 
L 182.050909 175.968931 
L 173.726434 193.65465 
L 165.401958 224.219256 
L 157.077483 236.697391 
L 148.753007 234.178725 
L 140.428531 272.085508 
L 132.104056 269.98319 
L 123.77958 266.979879 
L 115.455105 262.689434 
L 107.130629 259.846501 
L 98.806154 252.498894 
L 90.481678 242.002313 
L 82.157203 228.668481 
L 73.832727 207.958865 
z
" style="fill:#2ca02c;fill-opacity:0.3;"/>
   </g>
   <g id="PolyCollection_4">
    <path clip-path="url(#p81cd102f4c)" d="M 73.832727 288.607332 
L 73.832727 288.607332 
L 82.157203 285.122407 
L 90.481678 282.68296 
L 98.806154 280.975347 
L 107.130629 279.780018 
L 115.455105 278.943288 
L 123.77958 278.357577 
L 132.104056 277.947579 
L 140.428531 277.660581 
L 148.753007 277.459682 
L 157.077483 277.319052 
L 165.401958 277.220612 
L 173.726434 277.151703 
L 182.050909 277.103468 
L 190.375385 277.069703 
L 198.69986 284.743354 
L 207.024336 282.417623 
L 215.348811 280.789611 
L 223.673287 283.116063 
L 231.997762 281.278519 
L 240.322238 279.992238 
L 248.646713 290.647255 
L 256.971189 262.437382 
L 265.295664 267.586418 
L 273.62014 265.223902 
L 281.944615 253.697782 
L 290.269091 259.783836 
L 298.593566 246.876615 
L 306.918042 245.470826 
L 315.242517 257.572695 
L 323.566993 263.398162 
L 331.891469 241.690786 
L 340.215944 230.039598 
L 348.54042 227.653074 
L 356.864895 249.237964 
L 365.189371 265.062305 
L 373.513846 279.552001 
L 381.838322 278.783676 
L 390.162797 267.38608 
L 398.487273 276.373024 
L 398.487273 276.373024 
L 398.487273 179.172515 
L 390.162797 190.696669 
L 381.838322 183.127069 
L 373.513846 142.899705 
L 365.189371 146.374874 
L 356.864895 135.677278 
L 348.54042 129.954021 
L 340.215944 145.364376 
L 331.891469 153.082111 
L 323.566993 186.653064 
L 315.242517 147.936841 
L 306.918042 141.015955 
L 298.593566 164.469197 
L 290.269091 161.685042 
L 281.944615 173.641814 
L 273.62014 197.523931 
L 265.295664 202.060406 
L 256.971189 217.090578 
L 248.646713 218.320338 
L 240.322238 255.516606 
L 231.997762 246.313329 
L 223.673287 233.165791 
L 215.348811 262.813999 
L 207.024336 256.738177 
L 198.69986 248.058431 
L 190.375385 276.696887 
L 182.050909 276.570874 
L 173.726434 276.390855 
L 165.401958 276.133686 
L 157.077483 275.766301 
L 148.753007 275.241465 
L 140.428531 274.4917 
L 132.104056 273.420607 
L 123.77958 271.890475 
L 115.455105 269.704571 
L 107.130629 266.58185 
L 98.806154 262.120822 
L 90.481678 255.747924 
L 82.157203 246.643783 
L 73.832727 233.637869 
z
" style="fill:#d62728;fill-opacity:0.3;"/>
   </g>
   <g id="PolyCollection_5">
    <path clip-path="url(#p81cd102f4c)" d="M 73.832727 288.011833 
L 73.832727 288.011833 
L 82.157203 284.705558 
L 90.481678 282.391166 
L 98.806154 280.771091 
L 107.130629 279.637039 
L 115.455105 278.843203 
L 123.77958 278.287517 
L 132.104056 277.898537 
L 140.428531 277.626251 
L 148.753007 277.435651 
L 157.077483 277.302231 
L 165.401958 277.208837 
L 173.726434 277.143461 
L 182.050909 277.097698 
L 190.375385 277.065664 
L 198.69986 277.04324 
L 207.024336 277.027543 
L 215.348811 277.016555 
L 223.673287 277.008864 
L 231.997762 277.00348 
L 240.322238 276.999711 
L 248.646713 276.997073 
L 256.971189 276.995226 
L 265.295664 276.993934 
L 273.62014 276.993029 
L 281.944615 276.992395 
L 290.269091 276.991952 
L 298.593566 276.991642 
L 306.918042 276.991424 
L 315.242517 276.991272 
L 323.566993 276.991166 
L 331.891469 276.991091 
L 340.215944 276.991039 
L 348.54042 276.991003 
L 356.864895 276.990977 
L 365.189371 276.990959 
L 373.513846 276.990947 
L 381.838322 276.990938 
L 390.162797 276.990932 
L 398.487273 276.990927 
L 398.487273 276.990927 
L 398.487273 276.99088 
L 390.162797 276.990864 
L 381.838322 276.990841 
L 373.513846 276.990808 
L 365.189371 276.990762 
L 356.864895 276.990695 
L 348.54042 276.990599 
L 340.215944 276.990463 
L 331.891469 276.990268 
L 323.566993 276.98999 
L 315.242517 276.989593 
L 306.918042 276.989025 
L 298.593566 276.988215 
L 290.269091 276.987056 
L 281.944615 276.985401 
L 273.62014 276.983038 
L 265.295664 276.97966 
L 256.971189 276.974836 
L 248.646713 276.967944 
L 240.322238 276.958098 
L 231.997762 276.944033 
L 223.673287 276.92394 
L 215.348811 276.895235 
L 207.024336 276.854228 
L 198.69986 276.795647 
L 190.375385 276.71196 
L 182.050909 276.592407 
L 173.726434 276.421617 
L 165.401958 276.177631 
L 157.077483 275.829079 
L 148.753007 275.331149 
L 140.428531 274.619819 
L 132.104056 273.603634 
L 123.77958 272.151941 
L 115.455105 270.078095 
L 107.130629 267.115456 
L 98.806154 262.883116 
L 90.481678 256.836915 
L 82.157203 248.199486 
L 73.832727 235.860301 
z
" style="fill:#9467bd;fill-opacity:0.3;"/>
   </g>
   <g id="PolyCollection_6">
    <path clip-path="url(#p81cd102f4c)" d="M 73.832727 276.990917 
L 73.832727 276.990917 
L 82.157203 276.990917 
L 90.481678 276.990917 
L 98.806154 276.990917 
L 107.130629 276.990917 
L 115.455105 276.990917 
L 123.77958 276.990917 
L 132.104056 276.990917 
L 140.428531 276.990917 
L 148.753007 276.990917 
L 157.077483 276.990917 
L 165.401958 276.990917 
L 173.726434 276.990917 
L 182.050909 276.990917 
L 190.375385 276.990917 
L 198.69986 276.990917 
L 207.024336 276.990917 
L 215.348811 276.990917 
L 223.673287 276.990917 
L 231.997762 276.990917 
L 240.322238 276.990917 
L 248.646713 276.990917 
L 256.971189 276.990917 
L 265.295664 276.990917 
L 273.62014 276.990917 
L 281.944615 276.990917 
L 290.269091 276.990917 
L 298.593566 276.990917 
L 306.918042 276.990917 
L 315.242517 276.990917 
L 323.566993 276.990917 
L 331.891469 276.990917 
L 340.215944 276.990917 
L 348.54042 276.990917 
L 356.864895 276.990917 
L 365.189371 276.990917 
L 373.513846 276.990917 
L 381.838322 276.990917 
L 390.162797 276.990917 
L 398.487273 276.990917 
L 398.487273 276.990917 
L 398.487273 276.990917 
L 390.162797 276.990917 
L 381.838322 276.990917 
L 373.513846 276.990917 
L 365.189371 276.990917 
L 356.864895 276.990917 
L 348.54042 276.990917 
L 340.215944 276.990917 
L 331.891469 276.990917 
L 323.566993 276.990917 
L 315.242517 276.990917 
L 306.918042 276.990917 
L 298.593566 276.990917 
L 290.269091 276.990917 
L 281.944615 276.990917 
L 273.62014 276.990917 
L 265.295664 276.990917 
L 256.971189 276.990917 
L 248.646713 276.990917 
L 240.322238 276.990917 
L 231.997762 276.990917 
L 223.673287 276.990917 
L 215.348811 276.990917 
L 207.024336 276.990917 
L 198.69986 276.990917 
L 190.375385 276.990917 
L 182.050909 276.990917 
L 173.726434 276.990917 
L 165.401958 276.990917 
L 157.077483 276.990917 
L 148.753007 276.990917 
L 140.428531 276.990917 
L 132.104056 276.990917 
L 123.77958 276.990917 
L 115.455105 276.990917 
L 107.130629 276.990917 
L 98.806154 276.990917 
L 90.481678 276.990917 
L 82.157203 276.990917 
L 73.832727 276.990917 
z
" style="fill:#8c564b;fill-opacity:0.3;"/>
   </g>
   <g id="matplotlib.axis_1">
    <g id="xtick_1">
     <g id="line2d_1">
      <defs>
       <path d="M 0 0 
L 0 3.5 
" id="m590bdd9889" style="stroke:#000000;stroke-width:0.8;"/>
      </defs>
      <g>
       <use style="stroke:#000000;stroke-width:0.8;" x="65.508252" xlink:href="#m590bdd9889" y="307.584"/>
      </g>
     </g>
     <g id="text_1">
      <!-- 0 -->
      <g transform="translate(62.327002 322.182437)scale(0.1 -0.1)">
       <defs>
        <path d="M 2034 4250 
Q 1547 4250 1301 3770 
Q 1056 3291 1056 2328 
Q 1056 1369 1301 889 
Q 1547 409 2034 409 
Q 2525 409 2770 889 
Q 3016 1369 3016 2328 
Q 3016 3291 2770 3770 
Q 2525 4250 2034 4250 
z
M 2034 4750 
Q 2819 4750 3233 4129 
Q 3647 3509 3647 2328 
Q 3647 1150 3233 529 
Q 2819 -91 2034 -91 
Q 1250 -91 836 529 
Q 422 1150 422 2328 
Q 422 3509 836 4129 
Q 1250 4750 2034 4750 
z
" id="DejaVuSans-30" transform="scale(0.015625)"/>
       </defs>
       <use xlink:href="#DejaVuSans-30"/>
      </g>
     </g>
    </g>
    <g id="xtick_2">
     <g id="line2d_2">
      <g>
       <use style="stroke:#000000;stroke-width:0.8;" x="107.130629" xlink:href="#m590bdd9889" y="307.584"/>
      </g>
     </g>
     <g id="text_2">
      <!-- 25 -->
      <g transform="translate(100.768129 322.182437)scale(0.1 -0.1)">
       <defs>
        <path d="M 1228 531 
L 3431 531 
L 3431 0 
L 469 0 
L 469 531 
Q 828 903 1448 1529 
Q 2069 2156 2228 2338 
Q 2531 2678 2651 2914 
Q 2772 3150 2772 3378 
Q 2772 3750 2511 3984 
Q 2250 4219 1831 4219 
Q 1534 4219 1204 4116 
Q 875 4013 500 3803 
L 500 4441 
Q 881 4594 1212 4672 
Q 1544 4750 1819 4750 
Q 2544 4750 2975 4387 
Q 3406 4025 3406 3419 
Q 3406 3131 3298 2873 
Q 3191 2616 2906 2266 
Q 2828 2175 2409 1742 
Q 1991 1309 1228 531 
z
" id="DejaVuSans-32" transform="scale(0.015625)"/>
        <path d="M 691 4666 
L 3169 4666 
L 3169 4134 
L 1269 4134 
L 1269 2991 
Q 1406 3038 1543 3061 
Q 1681 3084 1819 3084 
Q 2600 3084 3056 2656 
Q 3513 2228 3513 1497 
Q 3513 744 3044 326 
Q 2575 -91 1722 -91 
Q 1428 -91 1123 -41 
Q 819 9 494 109 
L 494 744 
Q 775 591 1075 516 
Q 1375 441 1709 441 
Q 2250 441 2565 725 
Q 2881 1009 2881 1497 
Q 2881 1984 2565 2268 
Q 2250 2553 1709 2553 
Q 1456 2553 1204 2497 
Q 953 2441 691 2322 
L 691 4666 
z
" id="DejaVuSans-35" transform="scale(0.015625)"/>
       </defs>
       <use xlink:href="#DejaVuSans-32"/>
       <use x="63.623047" xlink:href="#DejaVuSans-35"/>
      </g>
     </g>
    </g>
    <g id="xtick_3">
     <g id="line2d_3">
      <g>
       <use style="stroke:#000000;stroke-width:0.8;" x="148.753007" xlink:href="#m590bdd9889" y="307.584"/>
      </g>
     </g>
     <g id="text_3">
      <!-- 50 -->
      <g transform="translate(142.390507 322.182437)scale(0.1 -0.1)">
       <use xlink:href="#DejaVuSans-35"/>
       <use x="63.623047" xlink:href="#DejaVuSans-30"/>
      </g>
     </g>
    </g>
    <g id="xtick_4">
     <g id="line2d_4">
      <g>
       <use style="stroke:#000000;stroke-width:0.8;" x="190.375385" xlink:href="#m590bdd9889" y="307.584"/>
      </g>
     </g>
     <g id="text_4">
      <!-- 75 -->
      <g transform="translate(184.012885 322.182437)scale(0.1 -0.1)">
       <defs>
        <path d="M 525 4666 
L 3525 4666 
L 3525 4397 
L 1831 0 
L 1172 0 
L 2766 4134 
L 525 4134 
L 525 4666 
z
" id="DejaVuSans-37" transform="scale(0.015625)"/>
       </defs>
       <use xlink:href="#DejaVuSans-37"/>
       <use x="63.623047" xlink:href="#DejaVuSans-35"/>
      </g>
     </g>
    </g>
    <g id="xtick_5">
     <g id="line2d_5">
      <g>
       <use style="stroke:#000000;stroke-width:0.8;" x="231.997762" xlink:href="#m590bdd9889" y="307.584"/>
      </g>
     </g>
     <g id="text_5">
      <!-- 100 -->
      <g transform="translate(222.454012 322.182437)scale(0.1 -0.1)">
       <defs>
        <path d="M 794 531 
L 1825 531 
L 1825 4091 
L 703 3866 
L 703 4441 
L 1819 4666 
L 2450 4666 
L 2450 531 
L 3481 531 
L 3481 0 
L 794 0 
L 794 531 
z
" id="DejaVuSans-31" transform="scale(0.015625)"/>
       </defs>
       <use xlink:href="#DejaVuSans-31"/>
       <use x="63.623047" xlink:href="#DejaVuSans-30"/>
       <use x="127.246094" xlink:href="#DejaVuSans-30"/>
      </g>
     </g>
    </g>
    <g id="xtick_6">
     <g id="line2d_6">
      <g>
       <use style="stroke:#000000;stroke-width:0.8;" x="273.62014" xlink:href="#m590bdd9889" y="307.584"/>
      </g>
     </g>
     <g id="text_6">
      <!-- 125 -->
      <g transform="translate(264.07639 322.182437)scale(0.1 -0.1)">
       <use xlink:href="#DejaVuSans-31"/>
       <use x="63.623047" xlink:href="#DejaVuSans-32"/>
       <use x="127.246094" xlink:href="#DejaVuSans-35"/>
      </g>
     </g>
    </g>
    <g id="xtick_7">
     <g id="line2d_7">
      <g>
       <use style="stroke:#000000;stroke-width:0.8;" x="315.242517" xlink:href="#m590bdd9889" y="307.584"/>
      </g>
     </g>
     <g id="text_7">
      <!-- 150 -->
      <g transform="translate(305.698767 322.182437)scale(0.1 -0.1)">
       <use xlink:href="#DejaVuSans-31"/>
       <use x="63.623047" xlink:href="#DejaVuSans-35"/>
       <use x="127.246094" xlink:href="#DejaVuSans-30"/>
      </g>
     </g>
    </g>
    <g id="xtick_8">
     <g id="line2d_8">
      <g>
       <use style="stroke:#000000;stroke-width:0.8;" x="356.864895" xlink:href="#m590bdd9889" y="307.584"/>
      </g>
     </g>
     <g id="text_8">
      <!-- 175 -->
      <g transform="translate(347.321145 322.182437)scale(0.1 -0.1)">
       <use xlink:href="#DejaVuSans-31"/>
       <use x="63.623047" xlink:href="#DejaVuSans-37"/>
       <use x="127.246094" xlink:href="#DejaVuSans-35"/>
      </g>
     </g>
    </g>
    <g id="xtick_9">
     <g id="line2d_9">
      <g>
       <use style="stroke:#000000;stroke-width:0.8;" x="398.487273" xlink:href="#m590bdd9889" y="307.584"/>
      </g>
     </g>
     <g id="text_9">
      <!-- 200 -->
      <g transform="translate(388.943523 322.182437)scale(0.1 -0.1)">
       <use xlink:href="#DejaVuSans-32"/>
       <use x="63.623047" xlink:href="#DejaVuSans-30"/>
       <use x="127.246094" xlink:href="#DejaVuSans-30"/>
      </g>
     </g>
    </g>
    <g id="text_10">
     <!-- Epoch -->
     <g transform="translate(220.849063 335.860562)scale(0.1 -0.1)">
      <defs>
       <path d="M 628 4666 
L 3578 4666 
L 3578 4134 
L 1259 4134 
L 1259 2753 
L 3481 2753 
L 3481 2222 
L 1259 2222 
L 1259 531 
L 3634 531 
L 3634 0 
L 628 0 
L 628 4666 
z
" id="DejaVuSans-45" transform="scale(0.015625)"/>
       <path d="M 1159 525 
L 1159 -1331 
L 581 -1331 
L 581 3500 
L 1159 3500 
L 1159 2969 
Q 1341 3281 1617 3432 
Q 1894 3584 2278 3584 
Q 2916 3584 3314 3078 
Q 3713 2572 3713 1747 
Q 3713 922 3314 415 
Q 2916 -91 2278 -91 
Q 1894 -91 1617 61 
Q 1341 213 1159 525 
z
M 3116 1747 
Q 3116 2381 2855 2742 
Q 2594 3103 2138 3103 
Q 1681 3103 1420 2742 
Q 1159 2381 1159 1747 
Q 1159 1113 1420 752 
Q 1681 391 2138 391 
Q 2594 391 2855 752 
Q 3116 1113 3116 1747 
z
" id="DejaVuSans-70" transform="scale(0.015625)"/>
       <path d="M 1959 3097 
Q 1497 3097 1228 2736 
Q 959 2375 959 1747 
Q 959 1119 1226 758 
Q 1494 397 1959 397 
Q 2419 397 2687 759 
Q 2956 1122 2956 1747 
Q 2956 2369 2687 2733 
Q 2419 3097 1959 3097 
z
M 1959 3584 
Q 2709 3584 3137 3096 
Q 3566 2609 3566 1747 
Q 3566 888 3137 398 
Q 2709 -91 1959 -91 
Q 1206 -91 779 398 
Q 353 888 353 1747 
Q 353 2609 779 3096 
Q 1206 3584 1959 3584 
z
" id="DejaVuSans-6f" transform="scale(0.015625)"/>
       <path d="M 3122 3366 
L 3122 2828 
Q 2878 2963 2633 3030 
Q 2388 3097 2138 3097 
Q 1578 3097 1268 2742 
Q 959 2388 959 1747 
Q 959 1106 1268 751 
Q 1578 397 2138 397 
Q 2388 397 2633 464 
Q 2878 531 3122 666 
L 3122 134 
Q 2881 22 2623 -34 
Q 2366 -91 2075 -91 
Q 1284 -91 818 406 
Q 353 903 353 1747 
Q 353 2603 823 3093 
Q 1294 3584 2113 3584 
Q 2378 3584 2631 3529 
Q 2884 3475 3122 3366 
z
" id="DejaVuSans-63" transform="scale(0.015625)"/>
       <path d="M 3513 2113 
L 3513 0 
L 2938 0 
L 2938 2094 
Q 2938 2591 2744 2837 
Q 2550 3084 2163 3084 
Q 1697 3084 1428 2787 
Q 1159 2491 1159 1978 
L 1159 0 
L 581 0 
L 581 4863 
L 1159 4863 
L 1159 2956 
Q 1366 3272 1645 3428 
Q 1925 3584 2291 3584 
Q 2894 3584 3203 3211 
Q 3513 2838 3513 2113 
z
" id="DejaVuSans-68" transform="scale(0.015625)"/>
      </defs>
      <!--
      <use xlink:href="#DejaVuSans-45"/>
      <use x="63.183594" xlink:href="#DejaVuSans-70"/>
      <use x="126.660156" xlink:href="#DejaVuSans-6f"/>
      <use x="187.841797" xlink:href="#DejaVuSans-63"/>
      <use x="242.822266" xlink:href="#DejaVuSans-68"/>
    -->
     </g>
    </g>
   </g>
   <g id="matplotlib.axis_2">
    <g id="ytick_1">
     <g id="line2d_10">
      <defs>
       <path d="M 0 0 
L -3.5 0 
" id="m2484282956" style="stroke:#000000;stroke-width:0.8;"/>
      </defs>
      <g>
       <use style="stroke:#000000;stroke-width:0.8;" x="57.6" xlink:href="#m2484282956" y="281.326791"/>
      </g>
     </g>
     <g id="text_11">
      <!-- −400 -->
      <g transform="translate(23.132812 285.12601)scale(0.1 -0.1)">
       <defs>
        <path d="M 678 2272 
L 4684 2272 
L 4684 1741 
L 678 1741 
L 678 2272 
z
" id="DejaVuSans-2212" transform="scale(0.015625)"/>
        <path d="M 2419 4116 
L 825 1625 
L 2419 1625 
L 2419 4116 
z
M 2253 4666 
L 3047 4666 
L 3047 1625 
L 3713 1625 
L 3713 1100 
L 3047 1100 
L 3047 0 
L 2419 0 
L 2419 1100 
L 313 1100 
L 313 1709 
L 2253 4666 
z
" id="DejaVuSans-34" transform="scale(0.015625)"/>
       </defs>
       <use xlink:href="#DejaVuSans-2212"/>
       <use x="83.789062" xlink:href="#DejaVuSans-34"/>
       <use x="147.412109" xlink:href="#DejaVuSans-30"/>
       <use x="211.035156" xlink:href="#DejaVuSans-30"/>
      </g>
     </g>
    </g>
    <g id="ytick_2">
     <g id="line2d_11">
      <g>
       <use style="stroke:#000000;stroke-width:0.8;" x="57.6" xlink:href="#m2484282956" y="247.340969"/>
      </g>
     </g>
     <g id="text_12">
      <!-- −350 -->
      <g transform="translate(23.132812 251.140188)scale(0.1 -0.1)">
       <defs>
        <path d="M 2597 2516 
Q 3050 2419 3304 2112 
Q 3559 1806 3559 1356 
Q 3559 666 3084 287 
Q 2609 -91 1734 -91 
Q 1441 -91 1130 -33 
Q 819 25 488 141 
L 488 750 
Q 750 597 1062 519 
Q 1375 441 1716 441 
Q 2309 441 2620 675 
Q 2931 909 2931 1356 
Q 2931 1769 2642 2001 
Q 2353 2234 1838 2234 
L 1294 2234 
L 1294 2753 
L 1863 2753 
Q 2328 2753 2575 2939 
Q 2822 3125 2822 3475 
Q 2822 3834 2567 4026 
Q 2313 4219 1838 4219 
Q 1578 4219 1281 4162 
Q 984 4106 628 3988 
L 628 4550 
Q 988 4650 1302 4700 
Q 1616 4750 1894 4750 
Q 2613 4750 3031 4423 
Q 3450 4097 3450 3541 
Q 3450 3153 3228 2886 
Q 3006 2619 2597 2516 
z
" id="DejaVuSans-33" transform="scale(0.015625)"/>
       </defs>
       <use xlink:href="#DejaVuSans-2212"/>
       <use x="83.789062" xlink:href="#DejaVuSans-33"/>
       <use x="147.412109" xlink:href="#DejaVuSans-35"/>
       <use x="211.035156" xlink:href="#DejaVuSans-30"/>
      </g>
     </g>
    </g>
    <g id="ytick_3">
     <g id="line2d_12">
      <g>
       <use style="stroke:#000000;stroke-width:0.8;" x="57.6" xlink:href="#m2484282956" y="213.355147"/>
      </g>
     </g>
     <g id="text_13">
      <!-- −300 -->
      <g transform="translate(23.132812 217.154365)scale(0.1 -0.1)">
       <use xlink:href="#DejaVuSans-2212"/>
       <use x="83.789062" xlink:href="#DejaVuSans-33"/>
       <use x="147.412109" xlink:href="#DejaVuSans-30"/>
       <use x="211.035156" xlink:href="#DejaVuSans-30"/>
      </g>
     </g>
    </g>
    <g id="ytick_4">
     <g id="line2d_13">
      <g>
       <use style="stroke:#000000;stroke-width:0.8;" x="57.6" xlink:href="#m2484282956" y="179.369324"/>
      </g>
     </g>
     <g id="text_14">
      <!-- −250 -->
      <g transform="translate(23.132812 183.168543)scale(0.1 -0.1)">
       <use xlink:href="#DejaVuSans-2212"/>
       <use x="83.789062" xlink:href="#DejaVuSans-32"/>
       <use x="147.412109" xlink:href="#DejaVuSans-35"/>
       <use x="211.035156" xlink:href="#DejaVuSans-30"/>
      </g>
     </g>
    </g>
    <g id="ytick_5">
     <g id="line2d_14">
      <g>
       <use style="stroke:#000000;stroke-width:0.8;" x="57.6" xlink:href="#m2484282956" y="145.383502"/>
      </g>
     </g>
     <g id="text_15">
      <!-- −200 -->
      <g transform="translate(23.132812 149.182721)scale(0.1 -0.1)">
       <use xlink:href="#DejaVuSans-2212"/>
       <use x="83.789062" xlink:href="#DejaVuSans-32"/>
       <use x="147.412109" xlink:href="#DejaVuSans-30"/>
       <use x="211.035156" xlink:href="#DejaVuSans-30"/>
      </g>
     </g>
    </g>
    <g id="ytick_6">
     <g id="line2d_15">
      <g>
       <use style="stroke:#000000;stroke-width:0.8;" x="57.6" xlink:href="#m2484282956" y="111.39768"/>
      </g>
     </g>
     <g id="text_16">
      <!-- −150 -->
      <g transform="translate(23.132812 115.196899)scale(0.1 -0.1)">
       <use xlink:href="#DejaVuSans-2212"/>
       <use x="83.789062" xlink:href="#DejaVuSans-31"/>
       <use x="147.412109" xlink:href="#DejaVuSans-35"/>
       <use x="211.035156" xlink:href="#DejaVuSans-30"/>
      </g>
     </g>
    </g>
    <g id="ytick_7">
     <g id="line2d_16">
      <g>
       <use style="stroke:#000000;stroke-width:0.8;" x="57.6" xlink:href="#m2484282956" y="77.411858"/>
      </g>
     </g>
     <g id="text_17">
      <!-- −100 -->
      <g transform="translate(23.132812 81.211076)scale(0.1 -0.1)">
       <use xlink:href="#DejaVuSans-2212"/>
       <use x="83.789062" xlink:href="#DejaVuSans-31"/>
       <use x="147.412109" xlink:href="#DejaVuSans-30"/>
       <use x="211.035156" xlink:href="#DejaVuSans-30"/>
      </g>
     </g>
    </g>
    <g id="ytick_8">
     <g id="line2d_17">
      <g>
       <use style="stroke:#000000;stroke-width:0.8;" x="57.6" xlink:href="#m2484282956" y="43.426035"/>
      </g>
     </g>
     <g id="text_18">
      <!-- −50 -->
      <g transform="translate(29.495313 47.225254)scale(0.1 -0.1)">
       <use xlink:href="#DejaVuSans-2212"/>
       <use x="83.789062" xlink:href="#DejaVuSans-35"/>
       <use x="147.412109" xlink:href="#DejaVuSans-30"/>
      </g>
     </g>
    </g>
    <g id="text_19">
     <!-- Average Reward -->
     <g transform="translate(17.053125 215.270969)rotate(-90)scale(0.1 -0.1)">
      <defs>
       <path d="M 2188 4044 
L 1331 1722 
L 3047 1722 
L 2188 4044 
z
M 1831 4666 
L 2547 4666 
L 4325 0 
L 3669 0 
L 3244 1197 
L 1141 1197 
L 716 0 
L 50 0 
L 1831 4666 
z
" id="DejaVuSans-41" transform="scale(0.015625)"/>
       <path d="M 191 3500 
L 800 3500 
L 1894 563 
L 2988 3500 
L 3597 3500 
L 2284 0 
L 1503 0 
L 191 3500 
z
" id="DejaVuSans-76" transform="scale(0.015625)"/>
       <path d="M 3597 1894 
L 3597 1613 
L 953 1613 
Q 991 1019 1311 708 
Q 1631 397 2203 397 
Q 2534 397 2845 478 
Q 3156 559 3463 722 
L 3463 178 
Q 3153 47 2828 -22 
Q 2503 -91 2169 -91 
Q 1331 -91 842 396 
Q 353 884 353 1716 
Q 353 2575 817 3079 
Q 1281 3584 2069 3584 
Q 2775 3584 3186 3129 
Q 3597 2675 3597 1894 
z
M 3022 2063 
Q 3016 2534 2758 2815 
Q 2500 3097 2075 3097 
Q 1594 3097 1305 2825 
Q 1016 2553 972 2059 
L 3022 2063 
z
" id="DejaVuSans-65" transform="scale(0.015625)"/>
       <path d="M 2631 2963 
Q 2534 3019 2420 3045 
Q 2306 3072 2169 3072 
Q 1681 3072 1420 2755 
Q 1159 2438 1159 1844 
L 1159 0 
L 581 0 
L 581 3500 
L 1159 3500 
L 1159 2956 
Q 1341 3275 1631 3429 
Q 1922 3584 2338 3584 
Q 2397 3584 2469 3576 
Q 2541 3569 2628 3553 
L 2631 2963 
z
" id="DejaVuSans-72" transform="scale(0.015625)"/>
       <path d="M 2194 1759 
Q 1497 1759 1228 1600 
Q 959 1441 959 1056 
Q 959 750 1161 570 
Q 1363 391 1709 391 
Q 2188 391 2477 730 
Q 2766 1069 2766 1631 
L 2766 1759 
L 2194 1759 
z
M 3341 1997 
L 3341 0 
L 2766 0 
L 2766 531 
Q 2569 213 2275 61 
Q 1981 -91 1556 -91 
Q 1019 -91 701 211 
Q 384 513 384 1019 
Q 384 1609 779 1909 
Q 1175 2209 1959 2209 
L 2766 2209 
L 2766 2266 
Q 2766 2663 2505 2880 
Q 2244 3097 1772 3097 
Q 1472 3097 1187 3025 
Q 903 2953 641 2809 
L 641 3341 
Q 956 3463 1253 3523 
Q 1550 3584 1831 3584 
Q 2591 3584 2966 3190 
Q 3341 2797 3341 1997 
z
" id="DejaVuSans-61" transform="scale(0.015625)"/>
       <path d="M 2906 1791 
Q 2906 2416 2648 2759 
Q 2391 3103 1925 3103 
Q 1463 3103 1205 2759 
Q 947 2416 947 1791 
Q 947 1169 1205 825 
Q 1463 481 1925 481 
Q 2391 481 2648 825 
Q 2906 1169 2906 1791 
z
M 3481 434 
Q 3481 -459 3084 -895 
Q 2688 -1331 1869 -1331 
Q 1566 -1331 1297 -1286 
Q 1028 -1241 775 -1147 
L 775 -588 
Q 1028 -725 1275 -790 
Q 1522 -856 1778 -856 
Q 2344 -856 2625 -561 
Q 2906 -266 2906 331 
L 2906 616 
Q 2728 306 2450 153 
Q 2172 0 1784 0 
Q 1141 0 747 490 
Q 353 981 353 1791 
Q 353 2603 747 3093 
Q 1141 3584 1784 3584 
Q 2172 3584 2450 3431 
Q 2728 3278 2906 2969 
L 2906 3500 
L 3481 3500 
L 3481 434 
z
" id="DejaVuSans-67" transform="scale(0.015625)"/>
       <path id="DejaVuSans-20" transform="scale(0.015625)"/>
       <path d="M 2841 2188 
Q 3044 2119 3236 1894 
Q 3428 1669 3622 1275 
L 4263 0 
L 3584 0 
L 2988 1197 
Q 2756 1666 2539 1819 
Q 2322 1972 1947 1972 
L 1259 1972 
L 1259 0 
L 628 0 
L 628 4666 
L 2053 4666 
Q 2853 4666 3247 4331 
Q 3641 3997 3641 3322 
Q 3641 2881 3436 2590 
Q 3231 2300 2841 2188 
z
M 1259 4147 
L 1259 2491 
L 2053 2491 
Q 2509 2491 2742 2702 
Q 2975 2913 2975 3322 
Q 2975 3731 2742 3939 
Q 2509 4147 2053 4147 
L 1259 4147 
z
" id="DejaVuSans-52" transform="scale(0.015625)"/>
       <path d="M 269 3500 
L 844 3500 
L 1563 769 
L 2278 3500 
L 2956 3500 
L 3675 769 
L 4391 3500 
L 4966 3500 
L 4050 0 
L 3372 0 
L 2619 2869 
L 1863 0 
L 1184 0 
L 269 3500 
z
" id="DejaVuSans-77" transform="scale(0.015625)"/>
       <path d="M 2906 2969 
L 2906 4863 
L 3481 4863 
L 3481 0 
L 2906 0 
L 2906 525 
Q 2725 213 2448 61 
Q 2172 -91 1784 -91 
Q 1150 -91 751 415 
Q 353 922 353 1747 
Q 353 2572 751 3078 
Q 1150 3584 1784 3584 
Q 2172 3584 2448 3432 
Q 2725 3281 2906 2969 
z
M 947 1747 
Q 947 1113 1208 752 
Q 1469 391 1925 391 
Q 2381 391 2643 752 
Q 2906 1113 2906 1747 
Q 2906 2381 2643 2742 
Q 2381 3103 1925 3103 
Q 1469 3103 1208 2742 
Q 947 2381 947 1747 
z
" id="DejaVuSans-64" transform="scale(0.015625)"/>
      </defs>
      <!--
      <use xlink:href="#DejaVuSans-41"/>
      <use x="62.533203" xlink:href="#DejaVuSans-76"/>
      <use x="121.712891" xlink:href="#DejaVuSans-65"/>
      <use x="183.236328" xlink:href="#DejaVuSans-72"/>
      <use x="224.349609" xlink:href="#DejaVuSans-61"/>
      <use x="285.628906" xlink:href="#DejaVuSans-67"/>
      <use x="349.105469" xlink:href="#DejaVuSans-65"/>
      <use x="410.628906" xlink:href="#DejaVuSans-20"/>
      <use x="442.416016" xlink:href="#DejaVuSans-52"/>
      <use x="507.398438" xlink:href="#DejaVuSans-65"/>
      <use x="568.921875" xlink:href="#DejaVuSans-77"/>
      <use x="650.708984" xlink:href="#DejaVuSans-61"/>
      <use x="711.988281" xlink:href="#DejaVuSans-72"/>
      <use x="751.351562" xlink:href="#DejaVuSans-64"/>
    -->
     </g>
    </g>
   </g>
   <g id="line2d_18">
    <path clip-path="url(#p81cd102f4c)" d="M 73.832727 276.990917 
L 82.157203 276.990917 
L 90.481678 260.568002 
L 98.806154 256.109645 
L 107.130629 231.322693 
L 115.455105 245.02316 
L 123.77958 225.489621 
L 132.104056 234.599497 
L 140.428531 218.330035 
L 148.753007 213.918923 
L 157.077483 201.136505 
L 165.401958 192.295696 
L 173.726434 169.405724 
L 182.050909 157.23661 
L 190.375385 135.061478 
L 198.69986 133.180963 
L 207.024336 120.594477 
L 215.348811 107.729749 
L 223.673287 127.433925 
L 231.997762 114.95708 
L 240.322238 102.431948 
L 248.646713 111.207762 
L 256.971189 114.978426 
L 265.295664 110.385559 
L 273.62014 103.762423 
L 281.944615 94.14729 
L 290.269091 89.062895 
L 298.593566 97.717935 
L 306.918042 93.281638 
L 315.242517 89.113681 
L 323.566993 102.38706 
L 331.891469 97.306529 
L 340.215944 88.950942 
L 348.54042 85.885923 
L 356.864895 80.858421 
L 365.189371 78.408695 
L 373.513846 79.033355 
L 381.838322 77.46034 
L 390.162797 76.262899 
L 398.487273 74.838116 
" style="fill:none;stroke:#1f77b4;stroke-linecap:square;stroke-width:1.5;"/>
   </g>
   <g id="line2d_19">
    <path clip-path="url(#p81cd102f4c)" d="M 73.832727 231.689028 
L 82.157203 245.279595 
L 90.481678 254.718317 
L 98.806154 261.400097 
L 107.130629 256.915749 
L 115.455105 262.9383 
L 123.77958 267.154085 
L 132.104056 264.239647 
L 140.428531 255.30758 
L 148.753007 261.812581 
L 157.077483 266.366082 
L 165.401958 238.210161 
L 173.726434 202.691782 
L 182.050909 193.059671 
L 190.375385 172.364196 
L 198.69986 188.996966 
L 207.024336 161.075848 
L 215.348811 165.164205 
L 223.673287 155.107349 
L 231.997762 144.120928 
L 240.322238 132.963236 
L 248.646713 113.551984 
L 256.971189 116.725169 
L 265.295664 101.583937 
L 273.62014 110.739005 
L 281.944615 101.428247 
L 290.269091 98.702176 
L 298.593566 111.383655 
L 306.918042 107.406938 
L 315.242517 110.956696 
L 323.566993 113.288057 
L 331.891469 113.965086 
L 340.215944 99.517749 
L 348.54042 91.211367 
L 356.864895 90.100265 
L 365.189371 84.757478 
L 373.513846 86.070597 
L 381.838322 111.858029 
L 390.162797 110.156591 
L 398.487273 100.997648 
" style="fill:none;stroke:#ff7f0e;stroke-linecap:square;stroke-width:1.5;"/>
   </g>
   <g id="line2d_20">
    <path clip-path="url(#p81cd102f4c)" d="M 73.832727 251.723433 
L 82.157203 259.303678 
L 90.481678 262.528693 
L 98.806154 266.86736 
L 107.130629 269.904427 
L 115.455105 269.358588 
L 123.77958 271.648287 
L 132.104056 273.251076 
L 140.428531 274.373028 
L 148.753007 259.781869 
L 157.077483 253.138014 
L 165.401958 244.548961 
L 173.726434 232.750943 
L 182.050909 230.054771 
L 190.375385 204.9712 
L 198.69986 221.621645 
L 207.024336 208.79329 
L 215.348811 215.355272 
L 223.673287 220.379107 
L 231.997762 207.203949 
L 240.322238 198.402037 
L 248.646713 221.978701 
L 256.971189 230.324381 
L 265.295664 214.330285 
L 273.62014 170.934306 
L 281.944615 163.161627 
L 290.269091 150.732997 
L 298.593566 124.874959 
L 306.918042 126.467273 
L 315.242517 156.363949 
L 323.566993 176.853986 
L 331.891469 147.242558 
L 340.215944 167.470077 
L 348.54042 149.272191 
L 356.864895 156.401705 
L 365.189371 134.93212 
L 373.513846 146.587881 
L 381.838322 126.246221 
L 390.162797 140.649365 
L 398.487273 144.037097 
" style="fill:none;stroke:#2ca02c;stroke-linecap:square;stroke-width:1.5;"/>
   </g>
   <g id="line2d_21">
    <path clip-path="url(#p81cd102f4c)" d="M 73.832727 261.1226 
L 82.157203 265.883095 
L 90.481678 269.215442 
L 98.806154 271.548085 
L 107.130629 273.180934 
L 115.455105 274.323929 
L 123.77958 275.124026 
L 132.104056 275.684093 
L 140.428531 276.07614 
L 148.753007 276.350574 
L 157.077483 276.542677 
L 165.401958 276.677149 
L 173.726434 276.771279 
L 182.050909 276.837171 
L 190.375385 276.883295 
L 198.69986 266.400892 
L 207.024336 269.5779 
L 215.348811 271.801805 
L 223.673287 258.140927 
L 231.997762 263.795924 
L 240.322238 267.754422 
L 248.646713 254.483796 
L 256.971189 239.76398 
L 265.295664 234.823412 
L 273.62014 231.373917 
L 281.944615 213.669798 
L 290.269091 210.734439 
L 298.593566 205.672906 
L 306.918042 193.24339 
L 315.242517 202.754768 
L 323.566993 225.025613 
L 331.891469 197.386448 
L 340.215944 187.701987 
L 348.54042 178.803548 
L 356.864895 192.457621 
L 365.189371 205.718589 
L 373.513846 211.225853 
L 381.838322 230.955372 
L 390.162797 229.041374 
L 398.487273 227.77277 
" style="fill:none;stroke:#d62728;stroke-linecap:square;stroke-width:1.5;"/>
   </g>
   <g id="line2d_22">
    <path clip-path="url(#p81cd102f4c)" d="M 73.832727 261.936067 
L 82.157203 266.452522 
L 90.481678 269.614041 
L 98.806154 271.827104 
L 107.130629 273.376248 
L 115.455105 274.460649 
L 123.77958 275.219729 
L 132.104056 275.751086 
L 140.428531 276.123035 
L 148.753007 276.3834 
L 157.077483 276.565655 
L 165.401958 276.693234 
L 173.726434 276.782539 
L 182.050909 276.845052 
L 190.375385 276.888812 
L 198.69986 276.919444 
L 207.024336 276.940886 
L 215.348811 276.955895 
L 223.673287 276.966402 
L 231.997762 276.973757 
L 240.322238 276.978905 
L 248.646713 276.982509 
L 256.971189 276.985031 
L 265.295664 276.986797 
L 273.62014 276.988033 
L 281.944615 276.988898 
L 290.269091 276.989504 
L 298.593566 276.989928 
L 306.918042 276.990225 
L 315.242517 276.990433 
L 323.566993 276.990578 
L 331.891469 276.99068 
L 340.215944 276.990751 
L 348.54042 276.990801 
L 356.864895 276.990836 
L 365.189371 276.99086 
L 373.513846 276.990877 
L 381.838322 276.990889 
L 390.162797 276.990898 
L 398.487273 276.990904 
" style="fill:none;stroke:#9467bd;stroke-linecap:square;stroke-width:1.5;"/>
   </g>
   <g id="line2d_23">
    <path clip-path="url(#p81cd102f4c)" d="M 73.832727 276.990917 
L 82.157203 276.990917 
L 90.481678 276.990917 
L 98.806154 276.990917 
L 107.130629 276.990917 
L 115.455105 276.990917 
L 123.77958 276.990917 
L 132.104056 276.990917 
L 140.428531 276.990917 
L 148.753007 276.990917 
L 157.077483 276.990917 
L 165.401958 276.990917 
L 173.726434 276.990917 
L 182.050909 276.990917 
L 190.375385 276.990917 
L 198.69986 276.990917 
L 207.024336 276.990917 
L 215.348811 276.990917 
L 223.673287 276.990917 
L 231.997762 276.990917 
L 240.322238 276.990917 
L 248.646713 276.990917 
L 256.971189 276.990917 
L 265.295664 276.990917 
L 273.62014 276.990917 
L 281.944615 276.990917 
L 290.269091 276.990917 
L 298.593566 276.990917 
L 306.918042 276.990917 
L 315.242517 276.990917 
L 323.566993 276.990917 
L 331.891469 276.990917 
L 340.215944 276.990917 
L 348.54042 276.990917 
L 356.864895 276.990917 
L 365.189371 276.990917 
L 373.513846 276.990917 
L 381.838322 276.990917 
L 390.162797 276.990917 
L 398.487273 276.990917 
" style="fill:none;stroke:#8c564b;stroke-linecap:square;stroke-width:1.5;"/>
   </g>
   <g id="patch_3">
    <path d="M 57.6 307.584 
L 57.6 41.472 
" style="fill:none;stroke:#000000;stroke-linecap:square;stroke-linejoin:miter;stroke-width:0.8;"/>
   </g>
   <g id="patch_4">
    <path d="M 414.72 307.584 
L 414.72 41.472 
" style="fill:none;stroke:#000000;stroke-linecap:square;stroke-linejoin:miter;stroke-width:0.8;"/>
   </g>
   <g id="patch_5">
    <path d="M 57.6 307.584 
L 414.72 307.584 
" style="fill:none;stroke:#000000;stroke-linecap:square;stroke-linejoin:miter;stroke-width:0.8;"/>
   </g>
   <g id="patch_6">
    <path d="M 57.6 41.472 
L 414.72 41.472 
" style="fill:none;stroke:#000000;stroke-linecap:square;stroke-linejoin:miter;stroke-width:0.8;"/>
   </g>
   <g id="legend_1">
    <g id="patch_7">
     <path d="M 64.6 137.54075 
L 140.710938 137.54075 
Q 142.710938 137.54075 142.710938 135.54075 
L 142.710938 48.472 
Q 142.710938 46.472 140.710938 46.472 
L 64.6 46.472 
Q 62.6 46.472 62.6 48.472 
L 62.6 135.54075 
Q 62.6 137.54075 64.6 137.54075 
z
" style="fill:#ffffff;opacity:0.8;stroke:#cccccc;stroke-linejoin:miter;"/>
    </g>
    <g id="line2d_21">
     <path d="M 66.6 54.570438 
L 86.6 54.570438 
" style="fill:none;stroke:#1f77b4;stroke-linecap:square;stroke-width:1.5;"/>
    </g>
    <g id="line2d_22"/>
    <g id="text_15">
     <!-- lr = 1e-4 -->
     <g transform="translate(94.6 58.070438)scale(0.1 -0.1)">
      <defs>
       <path d="M 603 4863 
L 1178 4863 
L 1178 0 
L 603 0 
L 603 4863 
z
" id="DejaVuSans-6c" transform="scale(0.015625)"/>
       <path d="M 2631 2963 
Q 2534 3019 2420 3045 
Q 2306 3072 2169 3072 
Q 1681 3072 1420 2755 
Q 1159 2438 1159 1844 
L 1159 0 
L 581 0 
L 581 3500 
L 1159 3500 
L 1159 2956 
Q 1341 3275 1631 3429 
Q 1922 3584 2338 3584 
Q 2397 3584 2469 3576 
Q 2541 3569 2628 3553 
L 2631 2963 
z
" id="DejaVuSans-72" transform="scale(0.015625)"/>
       <path id="DejaVuSans-20" transform="scale(0.015625)"/>
       <path d="M 678 2906 
L 4684 2906 
L 4684 2381 
L 678 2381 
L 678 2906 
z
M 678 1631 
L 4684 1631 
L 4684 1100 
L 678 1100 
L 678 1631 
z
" id="DejaVuSans-3d" transform="scale(0.015625)"/>
       <path d="M 3597 1894 
L 3597 1613 
L 953 1613 
Q 991 1019 1311 708 
Q 1631 397 2203 397 
Q 2534 397 2845 478 
Q 3156 559 3463 722 
L 3463 178 
Q 3153 47 2828 -22 
Q 2503 -91 2169 -91 
Q 1331 -91 842 396 
Q 353 884 353 1716 
Q 353 2575 817 3079 
Q 1281 3584 2069 3584 
Q 2775 3584 3186 3129 
Q 3597 2675 3597 1894 
z
M 3022 2063 
Q 3016 2534 2758 2815 
Q 2500 3097 2075 3097 
Q 1594 3097 1305 2825 
Q 1016 2553 972 2059 
L 3022 2063 
z
" id="DejaVuSans-65" transform="scale(0.015625)"/>
       <path d="M 313 2009 
L 1997 2009 
L 1997 1497 
L 313 1497 
L 313 2009 
z
" id="DejaVuSans-2d" transform="scale(0.015625)"/>
      </defs>
      <use xlink:href="#DejaVuSans-6c"/>
      <use x="27.783203" xlink:href="#DejaVuSans-72"/>
      <use x="68.896484" xlink:href="#DejaVuSans-20"/>
      <use x="100.683594" xlink:href="#DejaVuSans-3d"/>
      <use x="184.472656" xlink:href="#DejaVuSans-20"/>
      <use x="216.259766" xlink:href="#DejaVuSans-31"/>
      <use x="279.882812" xlink:href="#DejaVuSans-65"/>
      <use x="341.40625" xlink:href="#DejaVuSans-2d"/>
      <use x="377.490234" xlink:href="#DejaVuSans-34"/>
     </g>
    </g>
    <g id="line2d_23">
     <path d="M 66.6 69.248563 
L 86.6 69.248563 
" style="fill:none;stroke:#ff7f0e;stroke-linecap:square;stroke-width:1.5;"/>
    </g>
    <g id="line2d_24"/>
    <g id="text_16">
     <!-- lr = 5e-4 -->
     <g transform="translate(94.6 72.748563)scale(0.1 -0.1)">
      <use xlink:href="#DejaVuSans-6c"/>
      <use x="27.783203" xlink:href="#DejaVuSans-72"/>
      <use x="68.896484" xlink:href="#DejaVuSans-20"/>
      <use x="100.683594" xlink:href="#DejaVuSans-3d"/>
      <use x="184.472656" xlink:href="#DejaVuSans-20"/>
      <use x="216.259766" xlink:href="#DejaVuSans-35"/>
      <use x="279.882812" xlink:href="#DejaVuSans-65"/>
      <use x="341.40625" xlink:href="#DejaVuSans-2d"/>
      <use x="377.490234" xlink:href="#DejaVuSans-34"/>
     </g>
    </g>
    <g id="line2d_25">
     <path d="M 66.6 83.926688 
L 86.6 83.926688 
" style="fill:none;stroke:#2ca02c;stroke-linecap:square;stroke-width:1.5;"/>
    </g>
    <g id="line2d_26"/>
    <g id="text_17">
     <!-- lr = 1e-3 -->
     <g transform="translate(94.6 87.426688)scale(0.1 -0.1)">
      <use xlink:href="#DejaVuSans-6c"/>
      <use x="27.783203" xlink:href="#DejaVuSans-72"/>
      <use x="68.896484" xlink:href="#DejaVuSans-20"/>
      <use x="100.683594" xlink:href="#DejaVuSans-3d"/>
      <use x="184.472656" xlink:href="#DejaVuSans-20"/>
      <use x="216.259766" xlink:href="#DejaVuSans-31"/>
      <use x="279.882812" xlink:href="#DejaVuSans-65"/>
      <use x="341.40625" xlink:href="#DejaVuSans-2d"/>
      <use x="377.490234" xlink:href="#DejaVuSans-33"/>
     </g>
    </g>
    <g id="line2d_27">
     <path d="M 66.6 98.604813 
L 86.6 98.604813 
" style="fill:none;stroke:#d62728;stroke-linecap:square;stroke-width:1.5;"/>
    </g>
    <g id="line2d_28"/>
    <g id="text_18">
     <!-- lr = 5e-3 -->
     <g transform="translate(94.6 102.104813)scale(0.1 -0.1)">
      <use xlink:href="#DejaVuSans-6c"/>
      <use x="27.783203" xlink:href="#DejaVuSans-72"/>
      <use x="68.896484" xlink:href="#DejaVuSans-20"/>
      <use x="100.683594" xlink:href="#DejaVuSans-3d"/>
      <use x="184.472656" xlink:href="#DejaVuSans-20"/>
      <use x="216.259766" xlink:href="#DejaVuSans-35"/>
      <use x="279.882812" xlink:href="#DejaVuSans-65"/>
      <use x="341.40625" xlink:href="#DejaVuSans-2d"/>
      <use x="377.490234" xlink:href="#DejaVuSans-33"/>
     </g>
    </g>
    <g id="line2d_29">
     <path d="M 66.6 113.282938 
L 86.6 113.282938 
" style="fill:none;stroke:#9467bd;stroke-linecap:square;stroke-width:1.5;"/>
    </g>
    <g id="line2d_30"/>
    <g id="text_19">
     <!-- lr = 1e-2 -->
     <g transform="translate(94.6 116.782938)scale(0.1 -0.1)">
      <defs>
       <path d="M 1228 531 
L 3431 531 
L 3431 0 
L 469 0 
L 469 531 
Q 828 903 1448 1529 
Q 2069 2156 2228 2338 
Q 2531 2678 2651 2914 
Q 2772 3150 2772 3378 
Q 2772 3750 2511 3984 
Q 2250 4219 1831 4219 
Q 1534 4219 1204 4116 
Q 875 4013 500 3803 
L 500 4441 
Q 881 4594 1212 4672 
Q 1544 4750 1819 4750 
Q 2544 4750 2975 4387 
Q 3406 4025 3406 3419 
Q 3406 3131 3298 2873 
Q 3191 2616 2906 2266 
Q 2828 2175 2409 1742 
Q 1991 1309 1228 531 
z
" id="DejaVuSans-32" transform="scale(0.015625)"/>
      </defs>
      <use xlink:href="#DejaVuSans-6c"/>
      <use x="27.783203" xlink:href="#DejaVuSans-72"/>
      <use x="68.896484" xlink:href="#DejaVuSans-20"/>
      <use x="100.683594" xlink:href="#DejaVuSans-3d"/>
      <use x="184.472656" xlink:href="#DejaVuSans-20"/>
      <use x="216.259766" xlink:href="#DejaVuSans-31"/>
      <use x="279.882812" xlink:href="#DejaVuSans-65"/>
      <use x="341.40625" xlink:href="#DejaVuSans-2d"/>
      <use x="377.490234" xlink:href="#DejaVuSans-32"/>
     </g>
    </g>
    <g id="line2d_31">
     <path d="M 66.6 127.961063 
L 86.6 127.961063 
" style="fill:none;stroke:#8c564b;stroke-linecap:square;stroke-width:1.5;"/>
    </g>
    <g id="line2d_32"/>
    <g id="text_20">
     <!-- lr = 5e-2 -->
     <g transform="translate(94.6 131.461063)scale(0.1 -0.1)">
      <use xlink:href="#DejaVuSans-6c"/>
      <use x="27.783203" xlink:href="#DejaVuSans-72"/>
      <use x="68.896484" xlink:href="#DejaVuSans-20"/>
      <use x="100.683594" xlink:href="#DejaVuSans-3d"/>
      <use x="184.472656" xlink:href="#DejaVuSans-20"/>
      <use x="216.259766" xlink:href="#DejaVuSans-35"/>
      <use x="279.882812" xlink:href="#DejaVuSans-65"/>
      <use x="341.40625" xlink:href="#DejaVuSans-2d"/>
      <use x="377.490234" xlink:href="#DejaVuSans-32"/>
     </g>
    </g>
   </g>
  </g>
 </g>
 <defs>
  <clipPath id="p7c9d6d8db0">
   <rect height="266.112" width="357.12" x="57.6" y="41.472"/>
  </clipPath>
 </defs>
</svg>
