<?xml version="1.0" encoding="utf-8" standalone="no"?>
<!DOCTYPE svg PUBLIC "-//W3C//DTD SVG 1.1//EN"
  "http://www.w3.org/Graphics/SVG/1.1/DTD/svg11.dtd">
<svg height="345.6pt" version="1.1" viewBox="0 0 460.8 345.6" width="460.8pt" xmlns="http://www.w3.org/2000/svg" xmlns:xlink="http://www.w3.org/1999/xlink">
 <metadata>
  <rdf:RDF xmlns:cc="http://creativecommons.org/ns#" xmlns:dc="http://purl.org/dc/elements/1.1/" xmlns:rdf="http://www.w3.org/1999/02/22-rdf-syntax-ns#">
   <cc:Work>
    <dc:type rdf:resource="http://purl.org/dc/dcmitype/StillImage"/>
    <dc:date>2022-01-03T18:18:03.286073</dc:date>
    <dc:format>image/svg+xml</dc:format>
    <dc:creator>
     <cc:Agent>
      <dc:title>Matplotlib v3.4.3, https://matplotlib.org/</dc:title>
     </cc:Agent>
    </dc:creator>
   </cc:Work>
  </rdf:RDF>
 </metadata>
 <defs>
  <style type="text/css">*{stroke-linecap:butt;stroke-linejoin:round;}</style>
 </defs>
 <g id="figure_1">
  <g id="patch_1">
   <path d="M 0 345.6 
L 460.8 345.6 
L 460.8 0 
L 0 0 
z
" style="fill:#ffffff;"/>
  </g>
  <g id="axes_1">
   <g id="patch_2">
    <path d="M 57.6 307.584 
L 414.72 307.584 
L 414.72 41.472 
L 57.6 41.472 
z
" style="fill:#ffffff;"/>
   </g>
   <g id="PolyCollection_1">
    <path clip-path="url(#p92bef3d9a4)" d="M 73.832727 268.161905 
L 73.832727 268.161905 
L 77.942278 268.161905 
L 82.05183 268.161905 
L 86.161381 268.161905 
L 90.270932 268.161905 
L 94.380483 268.161905 
L 98.490035 268.161905 
L 102.599586 268.161905 
L 106.709137 268.161905 
L 110.818688 268.161905 
L 114.928239 268.161905 
L 119.037791 268.161905 
L 123.147342 268.161905 
L 127.256893 268.161905 
L 131.366444 268.161905 
L 135.475995 268.161905 
L 139.585547 268.161905 
L 143.695098 268.161905 
L 147.804649 268.161905 
L 151.9142 268.161905 
L 156.023751 268.161905 
L 160.133303 268.161905 
L 164.242854 268.161905 
L 168.352405 268.161905 
L 172.461956 268.161905 
L 176.571507 268.161905 
L 180.681059 268.161905 
L 184.79061 268.161905 
L 188.900161 268.161905 
L 193.009712 268.161905 
L 197.119264 268.161905 
L 201.228815 268.161905 
L 205.338366 268.161905 
L 209.447917 268.161905 
L 213.557468 268.161905 
L 217.66702 268.161905 
L 221.776571 268.161905 
L 225.886122 268.161905 
L 229.995673 268.161905 
L 234.105224 268.161905 
L 238.214776 268.161905 
L 242.324327 268.161905 
L 246.433878 268.161905 
L 250.543429 268.161905 
L 254.65298 268.161905 
L 258.762532 268.161905 
L 262.872083 268.161905 
L 266.981634 268.161905 
L 271.091185 268.161905 
L 275.200736 268.161905 
L 279.310288 268.161905 
L 283.419839 268.161905 
L 287.52939 268.161905 
L 291.638941 268.161905 
L 295.748493 268.161905 
L 299.858044 268.161905 
L 303.967595 268.161905 
L 308.077146 268.161905 
L 312.186697 268.161905 
L 316.296249 268.161905 
L 320.4058 268.161905 
L 324.515351 268.161905 
L 328.624902 268.161905 
L 332.734453 268.161905 
L 336.844005 268.161905 
L 340.953556 268.161905 
L 345.063107 268.161905 
L 349.172658 268.161905 
L 353.282209 268.161905 
L 357.391761 268.161905 
L 361.501312 268.161905 
L 365.610863 268.161905 
L 369.720414 268.161905 
L 373.829965 268.161905 
L 377.939517 268.161905 
L 382.049068 268.161905 
L 386.158619 268.161905 
L 390.26817 268.161905 
L 394.377722 268.161905 
L 398.487273 268.161905 
L 398.487273 268.161905 
L 398.487273 268.161905 
L 394.377722 268.161905 
L 390.26817 268.161905 
L 386.158619 268.161905 
L 382.049068 268.161905 
L 377.939517 268.161905 
L 373.829965 268.161905 
L 369.720414 268.161905 
L 365.610863 268.161905 
L 361.501312 268.161905 
L 357.391761 268.161905 
L 353.282209 268.161905 
L 349.172658 268.161905 
L 345.063107 268.161905 
L 340.953556 268.161905 
L 336.844005 268.161905 
L 332.734453 268.161905 
L 328.624902 268.161905 
L 324.515351 268.161905 
L 320.4058 268.161905 
L 316.296249 268.161905 
L 312.186697 268.161905 
L 308.077146 268.161905 
L 303.967595 268.161905 
L 299.858044 268.161905 
L 295.748493 268.161905 
L 291.638941 268.161905 
L 287.52939 268.161905 
L 283.419839 268.161905 
L 279.310288 268.161905 
L 275.200736 268.161905 
L 271.091185 268.161905 
L 266.981634 268.161905 
L 262.872083 268.161905 
L 258.762532 268.161905 
L 254.65298 268.161905 
L 250.543429 268.161905 
L 246.433878 268.161905 
L 242.324327 268.161905 
L 238.214776 268.161905 
L 234.105224 268.161905 
L 229.995673 268.161905 
L 225.886122 268.161905 
L 221.776571 268.161905 
L 217.66702 268.161905 
L 213.557468 268.161905 
L 209.447917 268.161905 
L 205.338366 268.161905 
L 201.228815 268.161905 
L 197.119264 268.161905 
L 193.009712 268.161905 
L 188.900161 268.161905 
L 184.79061 268.161905 
L 180.681059 268.161905 
L 176.571507 268.161905 
L 172.461956 268.161905 
L 168.352405 268.161905 
L 164.242854 268.161905 
L 160.133303 268.161905 
L 156.023751 268.161905 
L 151.9142 268.161905 
L 147.804649 268.161905 
L 143.695098 268.161905 
L 139.585547 268.161905 
L 135.475995 268.161905 
L 131.366444 268.161905 
L 127.256893 268.161905 
L 123.147342 268.161905 
L 119.037791 268.161905 
L 114.928239 268.161905 
L 110.818688 268.161905 
L 106.709137 268.161905 
L 102.599586 268.161905 
L 98.490035 268.161905 
L 94.380483 268.161905 
L 90.270932 268.161905 
L 86.161381 268.161905 
L 82.05183 268.161905 
L 77.942278 268.161905 
L 73.832727 268.161905 
z
" style="fill:#1f77b4;fill-opacity:0.3;"/>
   </g>
   <g id="PolyCollection_2">
    <path clip-path="url(#p92bef3d9a4)" d="M 73.832727 268.161905 
L 73.832727 268.161905 
L 77.942278 268.161905 
L 82.05183 268.161905 
L 86.161381 268.161905 
L 90.270932 268.161905 
L 94.380483 268.161905 
L 98.490035 268.161905 
L 102.599586 268.161905 
L 106.709137 268.161905 
L 110.818688 268.161905 
L 114.928239 268.161905 
L 119.037791 268.161905 
L 123.147342 268.161905 
L 127.256893 268.161905 
L 131.366444 268.161905 
L 135.475995 268.161905 
L 139.585547 268.161905 
L 143.695098 268.161905 
L 147.804649 268.161905 
L 151.9142 270.886824 
L 156.023751 270.069348 
L 160.133303 269.497115 
L 164.242854 276.788429 
L 168.352405 279.839513 
L 172.461956 281.799169 
L 176.571507 285.504558 
L 180.681059 287.137912 
L 184.79061 282.52369 
L 188.900161 281.451201 
L 193.009712 282.249447 
L 197.119264 278.023184 
L 201.228815 279.64084 
L 205.338366 284.33564 
L 209.447917 285.11144 
L 213.557468 286.993382 
L 217.66702 285.621936 
L 221.776571 285.58044 
L 225.886122 285.525171 
L 229.995673 287.009375 
L 234.105224 278.572989 
L 238.214776 274.321664 
L 242.324327 272.187127 
L 246.433878 269.989584 
L 250.543429 276.195481 
L 254.65298 280.86989 
L 258.762532 275.979058 
L 262.872083 274.249855 
L 266.981634 274.691223 
L 271.091185 272.496929 
L 275.200736 276.184835 
L 279.310288 276.879985 
L 283.419839 276.643338 
L 287.52939 277.99056 
L 291.638941 275.776154 
L 295.748493 272.815961 
L 299.858044 272.464869 
L 303.967595 269.595172 
L 308.077146 268.479495 
L 312.186697 273.056275 
L 316.296249 269.715323 
L 320.4058 268.393765 
L 324.515351 268.239073 
L 328.624902 257.326567 
L 332.734453 258.160391 
L 336.844005 260.680913 
L 340.953556 245.399826 
L 345.063107 243.462648 
L 349.172658 250.21129 
L 353.282209 255.028553 
L 357.391761 252.116432 
L 361.501312 256.875422 
L 365.610863 257.195004 
L 369.720414 257.253863 
L 373.829965 250.037982 
L 377.939517 227.651961 
L 382.049068 221.143819 
L 386.158619 220.091006 
L 390.26817 214.182321 
L 394.377722 195.50506 
L 398.487273 182.977731 
L 398.487273 182.977731 
L 398.487273 107.308219 
L 394.377722 105.342458 
L 390.26817 115.347402 
L 386.158619 106.862611 
L 382.049068 92.340706 
L 377.939517 99.395265 
L 373.829965 115.935131 
L 369.720414 108.589223 
L 365.610863 109.915054 
L 361.501312 96.201717 
L 357.391761 76.404834 
L 353.282209 77.021758 
L 349.172658 78.280982 
L 345.063107 80.646202 
L 340.953556 91.226197 
L 336.844005 94.358962 
L 332.734453 107.978867 
L 328.624902 105.027417 
L 324.515351 100.841123 
L 320.4058 105.768361 
L 316.296249 111.130524 
L 312.186697 129.693361 
L 308.077146 126.107247 
L 303.967595 95.218759 
L 299.858044 100.370547 
L 295.748493 104.885469 
L 291.638941 117.983997 
L 287.52939 113.06644 
L 283.419839 108.704212 
L 279.310288 122.926883 
L 275.200736 129.360003 
L 271.091185 142.334941 
L 266.981634 139.82925 
L 262.872083 135.850466 
L 258.762532 145.278617 
L 254.65298 139.930623 
L 250.543429 150.881336 
L 246.433878 151.642503 
L 242.324327 154.974764 
L 238.214776 166.310528 
L 234.105224 160.892367 
L 229.995673 181.297815 
L 225.886122 196.23339 
L 221.776571 203.155046 
L 217.66702 203.000181 
L 213.557468 197.881873 
L 209.447917 204.905377 
L 205.338366 207.800704 
L 201.228815 225.321936 
L 197.119264 231.359109 
L 193.009712 215.586482 
L 188.900161 218.565577 
L 184.79061 214.562993 
L 180.681059 197.342479 
L 176.571507 203.438242 
L 172.461956 217.26694 
L 168.352405 224.580478 
L 164.242854 235.967277 
L 160.133303 263.178831 
L 156.023751 261.043228 
L 151.9142 257.992367 
L 147.804649 268.161905 
L 143.695098 268.161905 
L 139.585547 268.161905 
L 135.475995 268.161905 
L 131.366444 268.161905 
L 127.256893 268.161905 
L 123.147342 268.161905 
L 119.037791 268.161905 
L 114.928239 268.161905 
L 110.818688 268.161905 
L 106.709137 268.161905 
L 102.599586 268.161905 
L 98.490035 268.161905 
L 94.380483 268.161905 
L 90.270932 268.161905 
L 86.161381 268.161905 
L 82.05183 268.161905 
L 77.942278 268.161905 
L 73.832727 268.161905 
z
" style="fill:#ff7f0e;fill-opacity:0.3;"/>
   </g>
   <g id="PolyCollection_3">
    <path clip-path="url(#p92bef3d9a4)" d="M 73.832727 268.161905 
L 73.832727 268.161905 
L 77.942278 268.161905 
L 82.05183 268.161905 
L 86.161381 268.161905 
L 90.270932 268.161905 
L 94.380483 268.161905 
L 98.490035 268.161905 
L 102.599586 268.161905 
L 106.709137 268.161905 
L 110.818688 268.161905 
L 114.928239 268.161905 
L 119.037791 268.161905 
L 123.147342 268.161905 
L 127.256893 268.161905 
L 131.366444 268.161905 
L 135.475995 268.161905 
L 139.585547 268.161905 
L 143.695098 268.161905 
L 147.804649 270.576385 
L 151.9142 271.906606 
L 156.023751 279.082227 
L 160.133303 275.80613 
L 164.242854 274.336453 
L 168.352405 272.484089 
L 172.461956 271.187433 
L 176.571507 268.191355 
L 180.681059 273.965264 
L 184.79061 268.360841 
L 188.900161 268.164685 
L 193.009712 268.437897 
L 197.119264 268.867173 
L 201.228815 274.622023 
L 205.338366 273.443069 
L 209.447917 272.00304 
L 213.557468 278.317501 
L 217.66702 272.600092 
L 221.776571 276.537601 
L 225.886122 270.166192 
L 229.995673 270.010595 
L 234.105224 264.382438 
L 238.214776 264.380308 
L 242.324327 265.630408 
L 246.433878 238.661792 
L 250.543429 227.393196 
L 254.65298 218.663678 
L 258.762532 225.250767 
L 262.872083 210.153622 
L 266.981634 204.944594 
L 271.091185 177.183384 
L 275.200736 181.654277 
L 279.310288 195.292685 
L 283.419839 201.788009 
L 287.52939 181.629275 
L 291.638941 162.846238 
L 295.748493 157.930616 
L 299.858044 185.427136 
L 303.967595 152.336587 
L 308.077146 158.56354 
L 312.186697 171.575145 
L 316.296249 175.556793 
L 320.4058 166.696361 
L 324.515351 177.420731 
L 328.624902 162.50807 
L 332.734453 147.611749 
L 336.844005 140.170976 
L 340.953556 124.46136 
L 345.063107 129.915556 
L 349.172658 126.277282 
L 353.282209 123.361575 
L 357.391761 119.027329 
L 361.501312 106.552262 
L 365.610863 112.253515 
L 369.720414 127.399024 
L 373.829965 121.094378 
L 377.939517 119.268055 
L 382.049068 92.282993 
L 386.158619 106.969602 
L 390.26817 112.557492 
L 394.377722 95.36471 
L 398.487273 112.224298 
L 398.487273 112.224298 
L 398.487273 53.568 
L 394.377722 54.840156 
L 390.26817 59.289075 
L 386.158619 53.904163 
L 382.049068 63.152427 
L 377.939517 70.098701 
L 373.829965 80.302726 
L 369.720414 68.453853 
L 365.610863 77.576188 
L 361.501312 56.874763 
L 357.391761 63.09524 
L 353.282209 65.523487 
L 349.172658 70.532583 
L 345.063107 61.209769 
L 340.953556 57.498971 
L 336.844005 60.71027 
L 332.734453 65.590897 
L 328.624902 64.218863 
L 324.515351 68.769319 
L 320.4058 84.481002 
L 316.296249 82.670944 
L 312.186697 70.083105 
L 308.077146 69.329734 
L 303.967595 70.788948 
L 299.858044 68.257445 
L 295.748493 72.364043 
L 291.638941 66.435309 
L 287.52939 66.14035 
L 283.419839 80.739713 
L 279.310288 75.486714 
L 275.200736 74.562445 
L 271.091185 75.284409 
L 266.981634 81.268321 
L 262.872083 65.395828 
L 258.762532 76.591235 
L 254.65298 76.801794 
L 250.543429 81.573296 
L 246.433878 85.669749 
L 242.324327 101.832195 
L 238.214776 119.156283 
L 234.105224 125.462908 
L 229.995673 125.651425 
L 225.886122 123.172474 
L 221.776571 138.404353 
L 217.66702 152.69871 
L 213.557468 157.815292 
L 209.447917 170.910923 
L 205.338366 182.095599 
L 201.228815 182.08281 
L 197.119264 190.918686 
L 193.009712 202.101962 
L 188.900161 211.537494 
L 184.79061 191.785894 
L 180.681059 201.145677 
L 176.571507 218.823278 
L 172.461956 256.870477 
L 168.352405 252.031294 
L 164.242854 245.118176 
L 160.133303 239.633266 
L 156.023751 227.406706 
L 151.9142 254.186488 
L 147.804649 259.150941 
L 143.695098 268.161905 
L 139.585547 268.161905 
L 135.475995 268.161905 
L 131.366444 268.161905 
L 127.256893 268.161905 
L 123.147342 268.161905 
L 119.037791 268.161905 
L 114.928239 268.161905 
L 110.818688 268.161905 
L 106.709137 268.161905 
L 102.599586 268.161905 
L 98.490035 268.161905 
L 94.380483 268.161905 
L 90.270932 268.161905 
L 86.161381 268.161905 
L 82.05183 268.161905 
L 77.942278 268.161905 
L 73.832727 268.161905 
z
" style="fill:#2ca02c;fill-opacity:0.3;"/>
   </g>
   <g id="PolyCollection_4">
    <path clip-path="url(#p92bef3d9a4)" d="M 73.832727 268.161905 
L 73.832727 268.161905 
L 77.942278 268.161905 
L 82.05183 268.161905 
L 86.161381 268.161905 
L 90.270932 268.161905 
L 94.380483 268.161905 
L 98.490035 268.161905 
L 102.599586 268.161905 
L 106.709137 268.161905 
L 110.818688 268.161905 
L 114.928239 268.161905 
L 119.037791 268.161905 
L 123.147342 268.161905 
L 127.256893 268.161905 
L 131.366444 268.161905 
L 135.475995 268.161905 
L 139.585547 268.161905 
L 143.695098 268.161905 
L 147.804649 268.161905 
L 151.9142 268.161905 
L 156.023751 268.161905 
L 160.133303 268.161905 
L 164.242854 272.508188 
L 168.352405 271.204303 
L 172.461956 277.440579 
L 176.571507 280.899271 
L 180.681059 283.895818 
L 184.79061 279.175644 
L 188.900161 278.143241 
L 193.009712 285.226535 
L 197.119264 289.327603 
L 201.228815 291.36705 
L 205.338366 295.488 
L 209.447917 290.64444 
L 213.557468 288.571971 
L 217.66702 289.199492 
L 221.776571 291.760924 
L 225.886122 281.580115 
L 229.995673 277.736217 
L 234.105224 278.658645 
L 238.214776 274.298072 
L 242.324327 254.636446 
L 246.433878 258.190822 
L 250.543429 257.129913 
L 254.65298 248.909268 
L 258.762532 248.548437 
L 262.872083 240.335036 
L 266.981634 233.707493 
L 271.091185 244.502307 
L 275.200736 236.721518 
L 279.310288 246.464898 
L 283.419839 237.763474 
L 287.52939 219.549809 
L 291.638941 225.171399 
L 295.748493 224.446759 
L 299.858044 202.911866 
L 303.967595 200.011739 
L 308.077146 198.90894 
L 312.186697 185.600151 
L 316.296249 195.810032 
L 320.4058 198.77883 
L 324.515351 165.73012 
L 328.624902 163.868377 
L 332.734453 135.822556 
L 336.844005 139.696573 
L 340.953556 140.820868 
L 345.063107 141.358585 
L 349.172658 159.368456 
L 353.282209 133.564483 
L 357.391761 134.802491 
L 361.501312 135.260766 
L 365.610863 130.122652 
L 369.720414 143.094575 
L 373.829965 153.176002 
L 377.939517 137.143937 
L 382.049068 130.507945 
L 386.158619 126.82423 
L 390.26817 125.586093 
L 394.377722 139.249263 
L 398.487273 118.673617 
L 398.487273 118.673617 
L 398.487273 75.163212 
L 394.377722 87.730304 
L 390.26817 105.010071 
L 386.158619 91.80392 
L 382.049068 80.288921 
L 377.939517 105.830188 
L 373.829965 106.503677 
L 369.720414 122.110594 
L 365.610863 109.896593 
L 361.501312 114.913586 
L 357.391761 107.045412 
L 353.282209 113.786072 
L 349.172658 113.275936 
L 345.063107 82.635591 
L 340.953556 86.08803 
L 336.844005 72.892556 
L 332.734453 78.187076 
L 328.624902 75.689459 
L 324.515351 75.20714 
L 320.4058 72.595527 
L 316.296249 83.982297 
L 312.186697 89.732602 
L 308.077146 92.006121 
L 303.967595 110.040901 
L 299.858044 119.976005 
L 295.748493 105.196644 
L 291.638941 120.499396 
L 287.52939 117.472364 
L 283.419839 103.090744 
L 279.310288 96.325584 
L 275.200736 93.54738 
L 271.091185 79.867253 
L 266.981634 82.700572 
L 262.872083 91.819149 
L 258.762532 103.842699 
L 254.65298 122.274449 
L 250.543429 113.9415 
L 246.433878 115.62446 
L 242.324327 124.51289 
L 238.214776 143.213016 
L 234.105224 160.392254 
L 229.995673 137.570251 
L 225.886122 149.71538 
L 221.776571 149.561023 
L 217.66702 146.844851 
L 213.557468 132.009974 
L 209.447917 142.409356 
L 205.338366 157.952724 
L 201.228815 169.887871 
L 197.119264 172.645793 
L 193.009712 187.812989 
L 188.900161 207.899419 
L 184.79061 227.058069 
L 180.681059 209.442139 
L 176.571507 220.625405 
L 172.461956 233.53342 
L 168.352405 256.807518 
L 164.242854 251.941353 
L 160.133303 268.161905 
L 156.023751 268.161905 
L 151.9142 268.161905 
L 147.804649 268.161905 
L 143.695098 268.161905 
L 139.585547 268.161905 
L 135.475995 268.161905 
L 131.366444 268.161905 
L 127.256893 268.161905 
L 123.147342 268.161905 
L 119.037791 268.161905 
L 114.928239 268.161905 
L 110.818688 268.161905 
L 106.709137 268.161905 
L 102.599586 268.161905 
L 98.490035 268.161905 
L 94.380483 268.161905 
L 90.270932 268.161905 
L 86.161381 268.161905 
L 82.05183 268.161905 
L 77.942278 268.161905 
L 73.832727 268.161905 
z
" style="fill:#d62728;fill-opacity:0.3;"/>
   </g>
   <g id="matplotlib.axis_1">
    <g id="xtick_1">
     <g id="line2d_1">
      <defs>
       <path d="M 0 0 
L 0 3.5 
" id="mbbbd0bf17a" style="stroke:#000000;stroke-width:0.8;"/>
      </defs>
      <g>
       <use style="stroke:#000000;stroke-width:0.8;" x="69.723176" xlink:href="#mbbbd0bf17a" y="307.584"/>
      </g>
     </g>
     <g id="text_1">
      <!-- 0 -->
      <g transform="translate(66.541926 322.182437)scale(0.1 -0.1)">
       <defs>
        <path d="M 2034 4250 
Q 1547 4250 1301 3770 
Q 1056 3291 1056 2328 
Q 1056 1369 1301 889 
Q 1547 409 2034 409 
Q 2525 409 2770 889 
Q 3016 1369 3016 2328 
Q 3016 3291 2770 3770 
Q 2525 4250 2034 4250 
z
M 2034 4750 
Q 2819 4750 3233 4129 
Q 3647 3509 3647 2328 
Q 3647 1150 3233 529 
Q 2819 -91 2034 -91 
Q 1250 -91 836 529 
Q 422 1150 422 2328 
Q 422 3509 836 4129 
Q 1250 4750 2034 4750 
z
" id="DejaVuSans-30" transform="scale(0.015625)"/>
       </defs>
       <use xlink:href="#DejaVuSans-30"/>
      </g>
     </g>
    </g>
    <g id="xtick_2">
     <g id="line2d_2">
      <g>
       <use style="stroke:#000000;stroke-width:0.8;" x="110.818688" xlink:href="#mbbbd0bf17a" y="307.584"/>
      </g>
     </g>
     <g id="text_2">
      <!-- 50 -->
      <g transform="translate(104.456188 322.182437)scale(0.1 -0.1)">
       <defs>
        <path d="M 691 4666 
L 3169 4666 
L 3169 4134 
L 1269 4134 
L 1269 2991 
Q 1406 3038 1543 3061 
Q 1681 3084 1819 3084 
Q 2600 3084 3056 2656 
Q 3513 2228 3513 1497 
Q 3513 744 3044 326 
Q 2575 -91 1722 -91 
Q 1428 -91 1123 -41 
Q 819 9 494 109 
L 494 744 
Q 775 591 1075 516 
Q 1375 441 1709 441 
Q 2250 441 2565 725 
Q 2881 1009 2881 1497 
Q 2881 1984 2565 2268 
Q 2250 2553 1709 2553 
Q 1456 2553 1204 2497 
Q 953 2441 691 2322 
L 691 4666 
z
" id="DejaVuSans-35" transform="scale(0.015625)"/>
       </defs>
       <use xlink:href="#DejaVuSans-35"/>
       <use x="63.623047" xlink:href="#DejaVuSans-30"/>
      </g>
     </g>
    </g>
    <g id="xtick_3">
     <g id="line2d_3">
      <g>
       <use style="stroke:#000000;stroke-width:0.8;" x="151.9142" xlink:href="#mbbbd0bf17a" y="307.584"/>
      </g>
     </g>
     <g id="text_3">
      <!-- 100 -->
      <g transform="translate(142.37045 322.182437)scale(0.1 -0.1)">
       <defs>
        <path d="M 794 531 
L 1825 531 
L 1825 4091 
L 703 3866 
L 703 4441 
L 1819 4666 
L 2450 4666 
L 2450 531 
L 3481 531 
L 3481 0 
L 794 0 
L 794 531 
z
" id="DejaVuSans-31" transform="scale(0.015625)"/>
       </defs>
       <use xlink:href="#DejaVuSans-31"/>
       <use x="63.623047" xlink:href="#DejaVuSans-30"/>
       <use x="127.246094" xlink:href="#DejaVuSans-30"/>
      </g>
     </g>
    </g>
    <g id="xtick_4">
     <g id="line2d_4">
      <g>
       <use style="stroke:#000000;stroke-width:0.8;" x="193.009712" xlink:href="#mbbbd0bf17a" y="307.584"/>
      </g>
     </g>
     <g id="text_4">
      <!-- 150 -->
      <g transform="translate(183.465962 322.182437)scale(0.1 -0.1)">
       <use xlink:href="#DejaVuSans-31"/>
       <use x="63.623047" xlink:href="#DejaVuSans-35"/>
       <use x="127.246094" xlink:href="#DejaVuSans-30"/>
      </g>
     </g>
    </g>
    <g id="xtick_5">
     <g id="line2d_5">
      <g>
       <use style="stroke:#000000;stroke-width:0.8;" x="234.105224" xlink:href="#mbbbd0bf17a" y="307.584"/>
      </g>
     </g>
     <g id="text_5">
      <!-- 200 -->
      <g transform="translate(224.561474 322.182437)scale(0.1 -0.1)">
       <defs>
        <path d="M 1228 531 
L 3431 531 
L 3431 0 
L 469 0 
L 469 531 
Q 828 903 1448 1529 
Q 2069 2156 2228 2338 
Q 2531 2678 2651 2914 
Q 2772 3150 2772 3378 
Q 2772 3750 2511 3984 
Q 2250 4219 1831 4219 
Q 1534 4219 1204 4116 
Q 875 4013 500 3803 
L 500 4441 
Q 881 4594 1212 4672 
Q 1544 4750 1819 4750 
Q 2544 4750 2975 4387 
Q 3406 4025 3406 3419 
Q 3406 3131 3298 2873 
Q 3191 2616 2906 2266 
Q 2828 2175 2409 1742 
Q 1991 1309 1228 531 
z
" id="DejaVuSans-32" transform="scale(0.015625)"/>
       </defs>
       <use xlink:href="#DejaVuSans-32"/>
       <use x="63.623047" xlink:href="#DejaVuSans-30"/>
       <use x="127.246094" xlink:href="#DejaVuSans-30"/>
      </g>
     </g>
    </g>
    <g id="xtick_6">
     <g id="line2d_6">
      <g>
       <use style="stroke:#000000;stroke-width:0.8;" x="275.200736" xlink:href="#mbbbd0bf17a" y="307.584"/>
      </g>
     </g>
     <g id="text_6">
      <!-- 250 -->
      <g transform="translate(265.656986 322.182437)scale(0.1 -0.1)">
       <use xlink:href="#DejaVuSans-32"/>
       <use x="63.623047" xlink:href="#DejaVuSans-35"/>
       <use x="127.246094" xlink:href="#DejaVuSans-30"/>
      </g>
     </g>
    </g>
    <g id="xtick_7">
     <g id="line2d_7">
      <g>
       <use style="stroke:#000000;stroke-width:0.8;" x="316.296249" xlink:href="#mbbbd0bf17a" y="307.584"/>
      </g>
     </g>
     <g id="text_7">
      <!-- 300 -->
      <g transform="translate(306.752499 322.182437)scale(0.1 -0.1)">
       <defs>
        <path d="M 2597 2516 
Q 3050 2419 3304 2112 
Q 3559 1806 3559 1356 
Q 3559 666 3084 287 
Q 2609 -91 1734 -91 
Q 1441 -91 1130 -33 
Q 819 25 488 141 
L 488 750 
Q 750 597 1062 519 
Q 1375 441 1716 441 
Q 2309 441 2620 675 
Q 2931 909 2931 1356 
Q 2931 1769 2642 2001 
Q 2353 2234 1838 2234 
L 1294 2234 
L 1294 2753 
L 1863 2753 
Q 2328 2753 2575 2939 
Q 2822 3125 2822 3475 
Q 2822 3834 2567 4026 
Q 2313 4219 1838 4219 
Q 1578 4219 1281 4162 
Q 984 4106 628 3988 
L 628 4550 
Q 988 4650 1302 4700 
Q 1616 4750 1894 4750 
Q 2613 4750 3031 4423 
Q 3450 4097 3450 3541 
Q 3450 3153 3228 2886 
Q 3006 2619 2597 2516 
z
" id="DejaVuSans-33" transform="scale(0.015625)"/>
       </defs>
       <use xlink:href="#DejaVuSans-33"/>
       <use x="63.623047" xlink:href="#DejaVuSans-30"/>
       <use x="127.246094" xlink:href="#DejaVuSans-30"/>
      </g>
     </g>
    </g>
    <g id="xtick_8">
     <g id="line2d_8">
      <g>
       <use style="stroke:#000000;stroke-width:0.8;" x="357.391761" xlink:href="#mbbbd0bf17a" y="307.584"/>
      </g>
     </g>
     <g id="text_8">
      <!-- 350 -->
      <g transform="translate(347.848011 322.182437)scale(0.1 -0.1)">
       <use xlink:href="#DejaVuSans-33"/>
       <use x="63.623047" xlink:href="#DejaVuSans-35"/>
       <use x="127.246094" xlink:href="#DejaVuSans-30"/>
      </g>
     </g>
    </g>
    <g id="xtick_9">
     <g id="line2d_9">
      <g>
       <use style="stroke:#000000;stroke-width:0.8;" x="398.487273" xlink:href="#mbbbd0bf17a" y="307.584"/>
      </g>
     </g>
     <g id="text_9">
      <!-- 400 -->
      <g transform="translate(388.943523 322.182437)scale(0.1 -0.1)">
       <defs>
        <path d="M 2419 4116 
L 825 1625 
L 2419 1625 
L 2419 4116 
z
M 2253 4666 
L 3047 4666 
L 3047 1625 
L 3713 1625 
L 3713 1100 
L 3047 1100 
L 3047 0 
L 2419 0 
L 2419 1100 
L 313 1100 
L 313 1709 
L 2253 4666 
z
" id="DejaVuSans-34" transform="scale(0.015625)"/>
       </defs>
       <use xlink:href="#DejaVuSans-34"/>
       <use x="63.623047" xlink:href="#DejaVuSans-30"/>
       <use x="127.246094" xlink:href="#DejaVuSans-30"/>
      </g>
     </g>
    </g>
   </g>
   <g id="matplotlib.axis_2">
    <g id="ytick_1">
     <g id="line2d_10">
      <defs>
       <path d="M 0 0 
L -3.5 0 
" id="meb72370683" style="stroke:#000000;stroke-width:0.8;"/>
      </defs>
      <g>
       <use style="stroke:#000000;stroke-width:0.8;" x="57.6" xlink:href="#meb72370683" y="264.474073"/>
      </g>
     </g>
     <g id="text_10">
      <!-- −180 -->
      <g transform="translate(23.132812 268.273292)scale(0.1 -0.1)">
       <defs>
        <path d="M 678 2272 
L 4684 2272 
L 4684 1741 
L 678 1741 
L 678 2272 
z
" id="DejaVuSans-2212" transform="scale(0.015625)"/>
        <path d="M 2034 2216 
Q 1584 2216 1326 1975 
Q 1069 1734 1069 1313 
Q 1069 891 1326 650 
Q 1584 409 2034 409 
Q 2484 409 2743 651 
Q 3003 894 3003 1313 
Q 3003 1734 2745 1975 
Q 2488 2216 2034 2216 
z
M 1403 2484 
Q 997 2584 770 2862 
Q 544 3141 544 3541 
Q 544 4100 942 4425 
Q 1341 4750 2034 4750 
Q 2731 4750 3128 4425 
Q 3525 4100 3525 3541 
Q 3525 3141 3298 2862 
Q 3072 2584 2669 2484 
Q 3125 2378 3379 2068 
Q 3634 1759 3634 1313 
Q 3634 634 3220 271 
Q 2806 -91 2034 -91 
Q 1263 -91 848 271 
Q 434 634 434 1313 
Q 434 1759 690 2068 
Q 947 2378 1403 2484 
z
M 1172 3481 
Q 1172 3119 1398 2916 
Q 1625 2713 2034 2713 
Q 2441 2713 2670 2916 
Q 2900 3119 2900 3481 
Q 2900 3844 2670 4047 
Q 2441 4250 2034 4250 
Q 1625 4250 1398 4047 
Q 1172 3844 1172 3481 
z
" id="DejaVuSans-38" transform="scale(0.015625)"/>
       </defs>
       <use xlink:href="#DejaVuSans-2212"/>
       <use x="83.789062" xlink:href="#DejaVuSans-31"/>
       <use x="147.412109" xlink:href="#DejaVuSans-38"/>
       <use x="211.035156" xlink:href="#DejaVuSans-30"/>
      </g>
     </g>
    </g>
    <g id="ytick_2">
     <g id="line2d_11">
      <g>
       <use style="stroke:#000000;stroke-width:0.8;" x="57.6" xlink:href="#meb72370683" y="209.886865"/>
      </g>
     </g>
     <g id="text_11">
      <!-- −160 -->
      <g transform="translate(23.132812 213.686083)scale(0.1 -0.1)">
       <defs>
        <path d="M 2113 2584 
Q 1688 2584 1439 2293 
Q 1191 2003 1191 1497 
Q 1191 994 1439 701 
Q 1688 409 2113 409 
Q 2538 409 2786 701 
Q 3034 994 3034 1497 
Q 3034 2003 2786 2293 
Q 2538 2584 2113 2584 
z
M 3366 4563 
L 3366 3988 
Q 3128 4100 2886 4159 
Q 2644 4219 2406 4219 
Q 1781 4219 1451 3797 
Q 1122 3375 1075 2522 
Q 1259 2794 1537 2939 
Q 1816 3084 2150 3084 
Q 2853 3084 3261 2657 
Q 3669 2231 3669 1497 
Q 3669 778 3244 343 
Q 2819 -91 2113 -91 
Q 1303 -91 875 529 
Q 447 1150 447 2328 
Q 447 3434 972 4092 
Q 1497 4750 2381 4750 
Q 2619 4750 2861 4703 
Q 3103 4656 3366 4563 
z
" id="DejaVuSans-36" transform="scale(0.015625)"/>
       </defs>
       <use xlink:href="#DejaVuSans-2212"/>
       <use x="83.789062" xlink:href="#DejaVuSans-31"/>
       <use x="147.412109" xlink:href="#DejaVuSans-36"/>
       <use x="211.035156" xlink:href="#DejaVuSans-30"/>
      </g>
     </g>
    </g>
    <g id="ytick_3">
     <g id="line2d_12">
      <g>
       <use style="stroke:#000000;stroke-width:0.8;" x="57.6" xlink:href="#meb72370683" y="155.299656"/>
      </g>
     </g>
     <g id="text_12">
      <!-- −140 -->
      <g transform="translate(23.132812 159.098875)scale(0.1 -0.1)">
       <use xlink:href="#DejaVuSans-2212"/>
       <use x="83.789062" xlink:href="#DejaVuSans-31"/>
       <use x="147.412109" xlink:href="#DejaVuSans-34"/>
       <use x="211.035156" xlink:href="#DejaVuSans-30"/>
      </g>
     </g>
    </g>
    <g id="ytick_4">
     <g id="line2d_13">
      <g>
       <use style="stroke:#000000;stroke-width:0.8;" x="57.6" xlink:href="#meb72370683" y="100.712447"/>
      </g>
     </g>
     <g id="text_13">
      <!-- −120 -->
      <g transform="translate(23.132812 104.511666)scale(0.1 -0.1)">
       <use xlink:href="#DejaVuSans-2212"/>
       <use x="83.789062" xlink:href="#DejaVuSans-31"/>
       <use x="147.412109" xlink:href="#DejaVuSans-32"/>
       <use x="211.035156" xlink:href="#DejaVuSans-30"/>
      </g>
     </g>
    </g>
    <g id="ytick_5">
     <g id="line2d_14">
      <g>
       <use style="stroke:#000000;stroke-width:0.8;" x="57.6" xlink:href="#meb72370683" y="46.125239"/>
      </g>
     </g>
     <g id="text_14">
      <!-- −100 -->
      <g transform="translate(23.132812 49.924457)scale(0.1 -0.1)">
       <use xlink:href="#DejaVuSans-2212"/>
       <use x="83.789062" xlink:href="#DejaVuSans-31"/>
       <use x="147.412109" xlink:href="#DejaVuSans-30"/>
       <use x="211.035156" xlink:href="#DejaVuSans-30"/>
      </g>
     </g>
    </g>
   </g>
   <g id="line2d_15">
    <path clip-path="url(#p92bef3d9a4)" d="M 73.832727 268.161905 
L 77.942278 268.161905 
L 82.05183 268.161905 
L 86.161381 268.161905 
L 90.270932 268.161905 
L 94.380483 268.161905 
L 98.490035 268.161905 
L 102.599586 268.161905 
L 106.709137 268.161905 
L 110.818688 268.161905 
L 114.928239 268.161905 
L 119.037791 268.161905 
L 123.147342 268.161905 
L 127.256893 268.161905 
L 131.366444 268.161905 
L 135.475995 268.161905 
L 139.585547 268.161905 
L 143.695098 268.161905 
L 147.804649 268.161905 
L 151.9142 268.161905 
L 156.023751 268.161905 
L 160.133303 268.161905 
L 164.242854 268.161905 
L 168.352405 268.161905 
L 172.461956 268.161905 
L 176.571507 268.161905 
L 180.681059 268.161905 
L 184.79061 268.161905 
L 188.900161 268.161905 
L 193.009712 268.161905 
L 197.119264 268.161905 
L 201.228815 268.161905 
L 205.338366 268.161905 
L 209.447917 268.161905 
L 213.557468 268.161905 
L 217.66702 268.161905 
L 221.776571 268.161905 
L 225.886122 268.161905 
L 229.995673 268.161905 
L 234.105224 268.161905 
L 238.214776 268.161905 
L 242.324327 268.161905 
L 246.433878 268.161905 
L 250.543429 268.161905 
L 254.65298 268.161905 
L 258.762532 268.161905 
L 262.872083 268.161905 
L 266.981634 268.161905 
L 271.091185 268.161905 
L 275.200736 268.161905 
L 279.310288 268.161905 
L 283.419839 268.161905 
L 287.52939 268.161905 
L 291.638941 268.161905 
L 295.748493 268.161905 
L 299.858044 268.161905 
L 303.967595 268.161905 
L 308.077146 268.161905 
L 312.186697 268.161905 
L 316.296249 268.161905 
L 320.4058 268.161905 
L 324.515351 268.161905 
L 328.624902 268.161905 
L 332.734453 268.161905 
L 336.844005 268.161905 
L 340.953556 268.161905 
L 345.063107 268.161905 
L 349.172658 268.161905 
L 353.282209 268.161905 
L 357.391761 268.161905 
L 361.501312 268.161905 
L 365.610863 268.161905 
L 369.720414 268.161905 
L 373.829965 268.161905 
L 377.939517 268.161905 
L 382.049068 268.161905 
L 386.158619 268.161905 
L 390.26817 268.161905 
L 394.377722 268.161905 
L 398.487273 268.161905 
" style="fill:none;stroke:#1f77b4;stroke-linecap:square;stroke-width:1.5;"/>
   </g>
   <g id="line2d_16">
    <path clip-path="url(#p92bef3d9a4)" d="M 73.832727 268.161905 
L 77.942278 268.161905 
L 82.05183 268.161905 
L 86.161381 268.161905 
L 90.270932 268.161905 
L 94.380483 268.161905 
L 98.490035 268.161905 
L 102.599586 268.161905 
L 106.709137 268.161905 
L 110.818688 268.161905 
L 114.928239 268.161905 
L 119.037791 268.161905 
L 123.147342 268.161905 
L 127.256893 268.161905 
L 131.366444 268.161905 
L 135.475995 268.161905 
L 139.585547 268.161905 
L 143.695098 268.161905 
L 147.804649 268.161905 
L 151.9142 264.439596 
L 156.023751 265.556288 
L 160.133303 266.337973 
L 164.242854 256.377853 
L 168.352405 252.209995 
L 172.461956 249.533055 
L 176.571507 244.4714 
L 180.681059 242.240196 
L 184.79061 248.543341 
L 188.900161 250.008389 
L 193.009712 248.917965 
L 197.119264 254.691147 
L 201.228815 252.481388 
L 205.338366 246.068172 
L 209.447917 245.008409 
L 213.557468 242.437628 
L 217.66702 244.311058 
L 221.776571 244.367743 
L 225.886122 240.879281 
L 229.995673 234.153595 
L 234.105224 219.732678 
L 238.214776 220.316096 
L 242.324327 213.580945 
L 246.433878 210.816043 
L 250.543429 213.538408 
L 254.65298 210.400257 
L 258.762532 210.628837 
L 262.872083 205.05016 
L 266.981634 207.260236 
L 271.091185 207.415935 
L 275.200736 202.772419 
L 279.310288 199.903434 
L 283.419839 192.673775 
L 287.52939 195.5285 
L 291.638941 196.880076 
L 295.748493 188.850715 
L 299.858044 186.417708 
L 303.967595 182.406966 
L 308.077146 197.293371 
L 312.186697 201.374818 
L 316.296249 190.422924 
L 320.4058 187.081063 
L 324.515351 184.540098 
L 328.624902 181.176992 
L 332.734453 183.069629 
L 336.844005 177.519938 
L 340.953556 168.313011 
L 345.063107 162.054425 
L 349.172658 164.246136 
L 353.282209 166.025155 
L 357.391761 164.260633 
L 361.501312 176.53857 
L 365.610863 183.555029 
L 369.720414 182.921543 
L 373.829965 182.986557 
L 377.939517 163.523613 
L 382.049068 156.742262 
L 386.158619 163.476808 
L 390.26817 164.764861 
L 394.377722 150.423759 
L 398.487273 145.142975 
" style="fill:none;stroke:#ff7f0e;stroke-linecap:square;stroke-width:1.5;"/>
   </g>
   <g id="line2d_17">
    <path clip-path="url(#p92bef3d9a4)" d="M 73.832727 268.161905 
L 77.942278 268.161905 
L 82.05183 268.161905 
L 86.161381 268.161905 
L 90.270932 268.161905 
L 94.380483 268.161905 
L 98.490035 268.161905 
L 102.599586 268.161905 
L 106.709137 268.161905 
L 110.818688 268.161905 
L 114.928239 268.161905 
L 119.037791 268.161905 
L 123.147342 268.161905 
L 127.256893 268.161905 
L 131.366444 268.161905 
L 135.475995 268.161905 
L 139.585547 268.161905 
L 143.695098 268.161905 
L 147.804649 264.863663 
L 151.9142 263.046547 
L 156.023751 253.244467 
L 160.133303 257.719698 
L 164.242854 259.727314 
L 168.352405 262.257691 
L 172.461956 264.028955 
L 176.571507 243.507317 
L 180.681059 237.555471 
L 184.79061 230.073367 
L 188.900161 239.851089 
L 193.009712 235.269929 
L 197.119264 229.89293 
L 201.228815 228.352417 
L 205.338366 227.769334 
L 209.447917 221.456982 
L 213.557468 218.066397 
L 217.66702 212.649401 
L 221.776571 207.470977 
L 225.886122 196.669333 
L 229.995673 197.83101 
L 234.105224 194.922673 
L 238.214776 191.768296 
L 242.324327 183.731302 
L 246.433878 162.165771 
L 250.543429 154.483246 
L 254.65298 147.732736 
L 258.762532 150.921001 
L 262.872083 137.774725 
L 266.981634 143.106457 
L 271.091185 126.233896 
L 275.200736 128.108361 
L 279.310288 135.389699 
L 283.419839 141.263861 
L 287.52939 123.884813 
L 291.638941 114.640774 
L 295.748493 115.147329 
L 299.858044 126.84229 
L 303.967595 111.562768 
L 308.077146 113.946637 
L 312.186697 120.829125 
L 316.296249 129.113869 
L 320.4058 125.588682 
L 324.515351 123.095025 
L 328.624902 113.363466 
L 332.734453 106.601323 
L 336.844005 100.440623 
L 340.953556 90.980165 
L 345.063107 95.562663 
L 349.172658 98.404932 
L 353.282209 94.442531 
L 357.391761 91.061285 
L 361.501312 81.713513 
L 365.610863 94.914851 
L 369.720414 97.926438 
L 373.829965 100.698552 
L 377.939517 94.683378 
L 382.049068 77.71771 
L 386.158619 80.436883 
L 390.26817 85.923284 
L 394.377722 75.102433 
L 398.487273 82.896149 
" style="fill:none;stroke:#2ca02c;stroke-linecap:square;stroke-width:1.5;"/>
   </g>
   <g id="line2d_18">
    <path clip-path="url(#p92bef3d9a4)" d="M 73.832727 268.161905 
L 77.942278 268.161905 
L 82.05183 268.161905 
L 86.161381 268.161905 
L 90.270932 268.161905 
L 94.380483 268.161905 
L 98.490035 268.161905 
L 102.599586 268.161905 
L 106.709137 268.161905 
L 110.818688 268.161905 
L 114.928239 268.161905 
L 119.037791 268.161905 
L 123.147342 268.161905 
L 127.256893 268.161905 
L 131.366444 268.161905 
L 135.475995 268.161905 
L 139.585547 268.161905 
L 143.695098 268.161905 
L 147.804649 268.161905 
L 151.9142 268.161905 
L 156.023751 268.161905 
L 160.133303 268.161905 
L 164.242854 262.224771 
L 168.352405 264.005911 
L 172.461956 255.487 
L 176.571507 250.762338 
L 180.681059 246.668979 
L 184.79061 253.116857 
L 188.900161 243.02133 
L 193.009712 236.519762 
L 197.119264 230.986698 
L 201.228815 230.62746 
L 205.338366 226.720362 
L 209.447917 216.526898 
L 213.557468 210.290972 
L 217.66702 218.022171 
L 221.776571 220.660973 
L 225.886122 215.647747 
L 229.995673 207.653234 
L 234.105224 219.525449 
L 238.214776 208.755544 
L 242.324327 189.574668 
L 246.433878 186.907641 
L 250.543429 185.535707 
L 254.65298 185.591858 
L 258.762532 176.195568 
L 262.872083 166.077093 
L 266.981634 158.204033 
L 271.091185 162.18478 
L 275.200736 165.134449 
L 279.310288 171.395241 
L 283.419839 170.427109 
L 287.52939 168.511087 
L 291.638941 172.835398 
L 295.748493 164.821702 
L 299.858044 161.443936 
L 303.967595 155.02632 
L 308.077146 145.45753 
L 312.186697 137.666376 
L 316.296249 139.896165 
L 320.4058 135.687178 
L 324.515351 120.46863 
L 328.624902 119.778918 
L 332.734453 107.004816 
L 336.844005 106.294565 
L 340.953556 113.454449 
L 345.063107 111.997088 
L 349.172658 136.322196 
L 353.282209 123.675278 
L 357.391761 120.923951 
L 361.501312 125.087176 
L 365.610863 120.009622 
L 369.720414 132.602585 
L 373.829965 129.83984 
L 377.939517 121.487063 
L 382.049068 105.398433 
L 386.158619 109.314075 
L 390.26817 115.298082 
L 394.377722 113.489783 
L 398.487273 96.918415 
" style="fill:none;stroke:#d62728;stroke-linecap:square;stroke-width:1.5;"/>
   </g>
   <g id="patch_3">
    <path d="M 57.6 307.584 
L 57.6 41.472 
" style="fill:none;stroke:#000000;stroke-linecap:square;stroke-linejoin:miter;stroke-width:0.8;"/>
   </g>
   <g id="patch_4">
    <path d="M 414.72 307.584 
L 414.72 41.472 
" style="fill:none;stroke:#000000;stroke-linecap:square;stroke-linejoin:miter;stroke-width:0.8;"/>
   </g>
   <g id="patch_5">
    <path d="M 57.6 307.584 
L 414.72 307.584 
" style="fill:none;stroke:#000000;stroke-linecap:square;stroke-linejoin:miter;stroke-width:0.8;"/>
   </g>
   <g id="patch_6">
    <path d="M 57.6 41.472 
L 414.72 41.472 
" style="fill:none;stroke:#000000;stroke-linecap:square;stroke-linejoin:miter;stroke-width:0.8;"/>
   </g>
   <g id="legend_1">
    <g id="patch_7">
     <path d="M 64.6 108.1845 
L 188.182812 108.1845 
Q 190.182812 108.1845 190.182812 106.1845 
L 190.182812 48.472 
Q 190.182812 46.472 188.182812 46.472 
L 64.6 46.472 
Q 62.6 46.472 62.6 48.472 
L 62.6 106.1845 
Q 62.6 108.1845 64.6 108.1845 
z
" style="fill:#ffffff;opacity:0.8;stroke:#cccccc;stroke-linejoin:miter;"/>
    </g>
    <g id="line2d_19">
     <path d="M 66.6 54.570438 
L 86.6 54.570438 
" style="fill:none;stroke:#1f77b4;stroke-linecap:square;stroke-width:1.5;"/>
    </g>
    <g id="line2d_20"/>
    <g id="text_15">
     <!-- buffersize = 10^2 -->
     <g transform="translate(94.6 58.070438)scale(0.1 -0.1)">
      <defs>
       <path d="M 3116 1747 
Q 3116 2381 2855 2742 
Q 2594 3103 2138 3103 
Q 1681 3103 1420 2742 
Q 1159 2381 1159 1747 
Q 1159 1113 1420 752 
Q 1681 391 2138 391 
Q 2594 391 2855 752 
Q 3116 1113 3116 1747 
z
M 1159 2969 
Q 1341 3281 1617 3432 
Q 1894 3584 2278 3584 
Q 2916 3584 3314 3078 
Q 3713 2572 3713 1747 
Q 3713 922 3314 415 
Q 2916 -91 2278 -91 
Q 1894 -91 1617 61 
Q 1341 213 1159 525 
L 1159 0 
L 581 0 
L 581 4863 
L 1159 4863 
L 1159 2969 
z
" id="DejaVuSans-62" transform="scale(0.015625)"/>
       <path d="M 544 1381 
L 544 3500 
L 1119 3500 
L 1119 1403 
Q 1119 906 1312 657 
Q 1506 409 1894 409 
Q 2359 409 2629 706 
Q 2900 1003 2900 1516 
L 2900 3500 
L 3475 3500 
L 3475 0 
L 2900 0 
L 2900 538 
Q 2691 219 2414 64 
Q 2138 -91 1772 -91 
Q 1169 -91 856 284 
Q 544 659 544 1381 
z
M 1991 3584 
L 1991 3584 
z
" id="DejaVuSans-75" transform="scale(0.015625)"/>
       <path d="M 2375 4863 
L 2375 4384 
L 1825 4384 
Q 1516 4384 1395 4259 
Q 1275 4134 1275 3809 
L 1275 3500 
L 2222 3500 
L 2222 3053 
L 1275 3053 
L 1275 0 
L 697 0 
L 697 3053 
L 147 3053 
L 147 3500 
L 697 3500 
L 697 3744 
Q 697 4328 969 4595 
Q 1241 4863 1831 4863 
L 2375 4863 
z
" id="DejaVuSans-66" transform="scale(0.015625)"/>
       <path d="M 3597 1894 
L 3597 1613 
L 953 1613 
Q 991 1019 1311 708 
Q 1631 397 2203 397 
Q 2534 397 2845 478 
Q 3156 559 3463 722 
L 3463 178 
Q 3153 47 2828 -22 
Q 2503 -91 2169 -91 
Q 1331 -91 842 396 
Q 353 884 353 1716 
Q 353 2575 817 3079 
Q 1281 3584 2069 3584 
Q 2775 3584 3186 3129 
Q 3597 2675 3597 1894 
z
M 3022 2063 
Q 3016 2534 2758 2815 
Q 2500 3097 2075 3097 
Q 1594 3097 1305 2825 
Q 1016 2553 972 2059 
L 3022 2063 
z
" id="DejaVuSans-65" transform="scale(0.015625)"/>
       <path d="M 2631 2963 
Q 2534 3019 2420 3045 
Q 2306 3072 2169 3072 
Q 1681 3072 1420 2755 
Q 1159 2438 1159 1844 
L 1159 0 
L 581 0 
L 581 3500 
L 1159 3500 
L 1159 2956 
Q 1341 3275 1631 3429 
Q 1922 3584 2338 3584 
Q 2397 3584 2469 3576 
Q 2541 3569 2628 3553 
L 2631 2963 
z
" id="DejaVuSans-72" transform="scale(0.015625)"/>
       <path d="M 2834 3397 
L 2834 2853 
Q 2591 2978 2328 3040 
Q 2066 3103 1784 3103 
Q 1356 3103 1142 2972 
Q 928 2841 928 2578 
Q 928 2378 1081 2264 
Q 1234 2150 1697 2047 
L 1894 2003 
Q 2506 1872 2764 1633 
Q 3022 1394 3022 966 
Q 3022 478 2636 193 
Q 2250 -91 1575 -91 
Q 1294 -91 989 -36 
Q 684 19 347 128 
L 347 722 
Q 666 556 975 473 
Q 1284 391 1588 391 
Q 1994 391 2212 530 
Q 2431 669 2431 922 
Q 2431 1156 2273 1281 
Q 2116 1406 1581 1522 
L 1381 1569 
Q 847 1681 609 1914 
Q 372 2147 372 2553 
Q 372 3047 722 3315 
Q 1072 3584 1716 3584 
Q 2034 3584 2315 3537 
Q 2597 3491 2834 3397 
z
" id="DejaVuSans-73" transform="scale(0.015625)"/>
       <path d="M 603 3500 
L 1178 3500 
L 1178 0 
L 603 0 
L 603 3500 
z
M 603 4863 
L 1178 4863 
L 1178 4134 
L 603 4134 
L 603 4863 
z
" id="DejaVuSans-69" transform="scale(0.015625)"/>
       <path d="M 353 3500 
L 3084 3500 
L 3084 2975 
L 922 459 
L 3084 459 
L 3084 0 
L 275 0 
L 275 525 
L 2438 3041 
L 353 3041 
L 353 3500 
z
" id="DejaVuSans-7a" transform="scale(0.015625)"/>
       <path id="DejaVuSans-20" transform="scale(0.015625)"/>
       <path d="M 678 2906 
L 4684 2906 
L 4684 2381 
L 678 2381 
L 678 2906 
z
M 678 1631 
L 4684 1631 
L 4684 1100 
L 678 1100 
L 678 1631 
z
" id="DejaVuSans-3d" transform="scale(0.015625)"/>
       <path d="M 2988 4666 
L 4684 2925 
L 4056 2925 
L 2681 4159 
L 1306 2925 
L 678 2925 
L 2375 4666 
L 2988 4666 
z
" id="DejaVuSans-5e" transform="scale(0.015625)"/>
       <path d="M 1228 531 
L 3431 531 
L 3431 0 
L 469 0 
L 469 531 
Q 828 903 1448 1529 
Q 2069 2156 2228 2338 
Q 2531 2678 2651 2914 
Q 2772 3150 2772 3378 
Q 2772 3750 2511 3984 
Q 2250 4219 1831 4219 
Q 1534 4219 1204 4116 
Q 875 4013 500 3803 
L 500 4441 
Q 881 4594 1212 4672 
Q 1544 4750 1819 4750 
Q 2544 4750 2975 4387 
Q 3406 4025 3406 3419 
Q 3406 3131 3298 2873 
Q 3191 2616 2906 2266 
Q 2828 2175 2409 1742 
Q 1991 1309 1228 531 
z
" id="DejaVuSans-32" transform="scale(0.015625)"/>
      </defs>
      <use xlink:href="#DejaVuSans-62"/>
      <use x="63.476562" xlink:href="#DejaVuSans-75"/>
      <use x="126.855469" xlink:href="#DejaVuSans-66"/>
      <use x="162.060547" xlink:href="#DejaVuSans-66"/>
      <use x="197.265625" xlink:href="#DejaVuSans-65"/>
      <use x="258.789062" xlink:href="#DejaVuSans-72"/>
      <use x="299.902344" xlink:href="#DejaVuSans-73"/>
      <use x="352.001953" xlink:href="#DejaVuSans-69"/>
      <use x="379.785156" xlink:href="#DejaVuSans-7a"/>
      <use x="432.275391" xlink:href="#DejaVuSans-65"/>
      <use x="493.798828" xlink:href="#DejaVuSans-20"/>
      <use x="525.585938" xlink:href="#DejaVuSans-3d"/>
      <use x="609.375" xlink:href="#DejaVuSans-20"/>
      <use x="641.162109" xlink:href="#DejaVuSans-31"/>
      <use x="704.785156" xlink:href="#DejaVuSans-30"/>
      <use x="768.408203" xlink:href="#DejaVuSans-5e"/>
      <use x="852.197266" xlink:href="#DejaVuSans-32"/>
     </g>
    </g>
    <g id="line2d_21">
     <path d="M 66.6 69.248563 
L 86.6 69.248563 
" style="fill:none;stroke:#ff7f0e;stroke-linecap:square;stroke-width:1.5;"/>
    </g>
    <g id="line2d_22"/>
    <g id="text_16">
     <!-- buffersize = 10^3 -->
     <g transform="translate(94.6 72.748563)scale(0.1 -0.1)">
      <use xlink:href="#DejaVuSans-62"/>
      <use x="63.476562" xlink:href="#DejaVuSans-75"/>
      <use x="126.855469" xlink:href="#DejaVuSans-66"/>
      <use x="162.060547" xlink:href="#DejaVuSans-66"/>
      <use x="197.265625" xlink:href="#DejaVuSans-65"/>
      <use x="258.789062" xlink:href="#DejaVuSans-72"/>
      <use x="299.902344" xlink:href="#DejaVuSans-73"/>
      <use x="352.001953" xlink:href="#DejaVuSans-69"/>
      <use x="379.785156" xlink:href="#DejaVuSans-7a"/>
      <use x="432.275391" xlink:href="#DejaVuSans-65"/>
      <use x="493.798828" xlink:href="#DejaVuSans-20"/>
      <use x="525.585938" xlink:href="#DejaVuSans-3d"/>
      <use x="609.375" xlink:href="#DejaVuSans-20"/>
      <use x="641.162109" xlink:href="#DejaVuSans-31"/>
      <use x="704.785156" xlink:href="#DejaVuSans-30"/>
      <use x="768.408203" xlink:href="#DejaVuSans-5e"/>
      <use x="852.197266" xlink:href="#DejaVuSans-33"/>
     </g>
    </g>
    <g id="line2d_23">
     <path d="M 66.6 83.926688 
L 86.6 83.926688 
" style="fill:none;stroke:#2ca02c;stroke-linecap:square;stroke-width:1.5;"/>
    </g>
    <g id="line2d_24"/>
    <g id="text_17">
     <!-- buffersize = 10^4 -->
     <g transform="translate(94.6 87.426688)scale(0.1 -0.1)">
      <use xlink:href="#DejaVuSans-62"/>
      <use x="63.476562" xlink:href="#DejaVuSans-75"/>
      <use x="126.855469" xlink:href="#DejaVuSans-66"/>
      <use x="162.060547" xlink:href="#DejaVuSans-66"/>
      <use x="197.265625" xlink:href="#DejaVuSans-65"/>
      <use x="258.789062" xlink:href="#DejaVuSans-72"/>
      <use x="299.902344" xlink:href="#DejaVuSans-73"/>
      <use x="352.001953" xlink:href="#DejaVuSans-69"/>
      <use x="379.785156" xlink:href="#DejaVuSans-7a"/>
      <use x="432.275391" xlink:href="#DejaVuSans-65"/>
      <use x="493.798828" xlink:href="#DejaVuSans-20"/>
      <use x="525.585938" xlink:href="#DejaVuSans-3d"/>
      <use x="609.375" xlink:href="#DejaVuSans-20"/>
      <use x="641.162109" xlink:href="#DejaVuSans-31"/>
      <use x="704.785156" xlink:href="#DejaVuSans-30"/>
      <use x="768.408203" xlink:href="#DejaVuSans-5e"/>
      <use x="852.197266" xlink:href="#DejaVuSans-34"/>
     </g>
    </g>
    <g id="line2d_25">
     <path d="M 66.6 98.604813 
L 86.6 98.604813 
" style="fill:none;stroke:#d62728;stroke-linecap:square;stroke-width:1.5;"/>
    </g>
    <g id="line2d_26"/>
    <g id="text_18">
     <!-- buffersize = 10^5 -->
     <g transform="translate(94.6 102.104813)scale(0.1 -0.1)">
      <use xlink:href="#DejaVuSans-62"/>
      <use x="63.476562" xlink:href="#DejaVuSans-75"/>
      <use x="126.855469" xlink:href="#DejaVuSans-66"/>
      <use x="162.060547" xlink:href="#DejaVuSans-66"/>
      <use x="197.265625" xlink:href="#DejaVuSans-65"/>
      <use x="258.789062" xlink:href="#DejaVuSans-72"/>
      <use x="299.902344" xlink:href="#DejaVuSans-73"/>
      <use x="352.001953" xlink:href="#DejaVuSans-69"/>
      <use x="379.785156" xlink:href="#DejaVuSans-7a"/>
      <use x="432.275391" xlink:href="#DejaVuSans-65"/>
      <use x="493.798828" xlink:href="#DejaVuSans-20"/>
      <use x="525.585938" xlink:href="#DejaVuSans-3d"/>
      <use x="609.375" xlink:href="#DejaVuSans-20"/>
      <use x="641.162109" xlink:href="#DejaVuSans-31"/>
      <use x="704.785156" xlink:href="#DejaVuSans-30"/>
      <use x="768.408203" xlink:href="#DejaVuSans-5e"/>
      <use x="852.197266" xlink:href="#DejaVuSans-35"/>
     </g>
    </g>
   </g>
  </g>
 </g>
 <defs>
  <clipPath id="pafaf32837d">
   <rect height="266.112" width="357.12" x="57.6" y="41.472"/>
  </clipPath>
 </defs>
</svg>
