<?xml version="1.0" encoding="utf-8" standalone="no"?>
<!DOCTYPE svg PUBLIC "-//W3C//DTD SVG 1.1//EN"
  "http://www.w3.org/Graphics/SVG/1.1/DTD/svg11.dtd">
<svg height="345.6pt" version="1.1" viewBox="0 0 460.8 345.6" width="460.8pt" xmlns="http://www.w3.org/2000/svg" xmlns:xlink="http://www.w3.org/1999/xlink">
 <metadata>
  <rdf:RDF xmlns:cc="http://creativecommons.org/ns#" xmlns:dc="http://purl.org/dc/elements/1.1/" xmlns:rdf="http://www.w3.org/1999/02/22-rdf-syntax-ns#">
   <cc:Work>
    <dc:type rdf:resource="http://purl.org/dc/dcmitype/StillImage"/>
    <dc:date>2022-01-03T19:58:59.032076</dc:date>
    <dc:format>image/svg+xml</dc:format>
    <dc:creator>
     <cc:Agent>
      <dc:title>Matplotlib v3.4.3, https://matplotlib.org/</dc:title>
     </cc:Agent>
    </dc:creator>
   </cc:Work>
  </rdf:RDF>
 </metadata>
 <defs>
  <style type="text/css">*{stroke-linecap:butt;stroke-linejoin:round;}</style>
 </defs>
 <g id="figure_1">
  <g id="patch_1">
   <path d="M 0 345.6 
L 460.8 345.6 
L 460.8 0 
L 0 0 
z
" style="fill:#ffffff;"/>
  </g>
  <g id="axes_1">
   <g id="patch_2">
    <path d="M 57.6 307.584 
L 414.72 307.584 
L 414.72 41.472 
L 57.6 41.472 
z
" style="fill:#ffffff;"/>
   </g>
   <g id="PolyCollection_1">
    <path clip-path="url(#p2d16465a5b)" d="M 73.832727 280.748784 
L 73.832727 280.748784 
L 82.157203 280.748784 
L 90.481678 280.748784 
L 98.806154 280.748784 
L 107.130629 280.748784 
L 115.455105 280.748784 
L 123.77958 280.748784 
L 132.104056 280.748784 
L 140.428531 280.748784 
L 148.753007 280.748784 
L 157.077483 280.748784 
L 165.401958 280.748784 
L 173.726434 280.748784 
L 182.050909 280.748784 
L 190.375385 280.748784 
L 198.69986 280.748784 
L 207.024336 280.748784 
L 215.348811 280.748784 
L 223.673287 280.748784 
L 231.997762 280.748784 
L 240.322238 281.104059 
L 248.646713 283.74593 
L 256.971189 282.846786 
L 265.295664 282.217386 
L 273.62014 281.776805 
L 281.944615 281.468399 
L 290.269091 281.252515 
L 298.593566 281.101395 
L 306.918042 280.995612 
L 315.242517 280.921564 
L 323.566993 283.577082 
L 331.891469 283.103778 
L 340.215944 285.59396 
L 348.54042 281.203746 
L 356.864895 288.747477 
L 365.189371 285.965604 
L 373.513846 281.136327 
L 381.838322 263.68666 
L 390.162797 243.083822 
L 398.487273 228.946416 
L 398.487273 228.946416 
L 398.487273 53.568 
L 390.162797 95.040943 
L 381.838322 128.8414 
L 373.513846 161.303431 
L 365.189371 158.304555 
L 356.864895 162.968626 
L 348.54042 174.629018 
L 340.215944 230.980767 
L 331.891469 256.999605 
L 323.566993 270.193433 
L 315.242517 280.103962 
L 306.918042 279.82761 
L 298.593566 279.432821 
L 290.269091 278.868837 
L 281.944615 278.063146 
L 273.62014 276.912158 
L 265.295664 275.267889 
L 256.971189 272.918934 
L 248.646713 269.563284 
L 240.322238 279.422882 
L 231.997762 280.748784 
L 223.673287 280.748784 
L 215.348811 280.748784 
L 207.024336 280.748784 
L 198.69986 280.748784 
L 190.375385 280.748784 
L 182.050909 280.748784 
L 173.726434 280.748784 
L 165.401958 280.748784 
L 157.077483 280.748784 
L 148.753007 280.748784 
L 140.428531 280.748784 
L 132.104056 280.748784 
L 123.77958 280.748784 
L 115.455105 280.748784 
L 107.130629 280.748784 
L 98.806154 280.748784 
L 90.481678 280.748784 
L 82.157203 280.748784 
L 73.832727 280.748784 
z
" style="fill:#1f77b4;fill-opacity:0.3;"/>
   </g>
   <g id="PolyCollection_2">
    <path clip-path="url(#p2d16465a5b)" d="M 73.832727 280.748784 
L 73.832727 280.748784 
L 82.157203 280.748784 
L 90.481678 280.748784 
L 98.806154 280.748784 
L 107.130629 280.748784 
L 115.455105 280.748784 
L 123.77958 280.748784 
L 132.104056 280.748784 
L 140.428531 280.748784 
L 148.753007 280.748784 
L 157.077483 280.748784 
L 165.401958 280.748784 
L 173.726434 280.748784 
L 182.050909 280.748784 
L 190.375385 280.748784 
L 198.69986 280.748784 
L 207.024336 280.748784 
L 215.348811 280.748784 
L 223.673287 280.748784 
L 231.997762 280.748784 
L 240.322238 280.748784 
L 248.646713 281.926104 
L 256.971189 281.572908 
L 265.295664 281.325671 
L 273.62014 281.152605 
L 281.944615 281.031459 
L 290.269091 280.946656 
L 298.593566 280.887295 
L 306.918042 280.845742 
L 315.242517 280.816654 
L 323.566993 280.796293 
L 331.891469 280.782041 
L 340.215944 283.566567 
L 348.54042 282.721232 
L 356.864895 290.150967 
L 365.189371 284.916558 
L 373.513846 282.034659 
L 381.838322 282.791494 
L 390.162797 291.624374 
L 398.487273 285.17946 
L 398.487273 285.17946 
L 398.487273 140.410032 
L 390.162797 167.369029 
L 381.838322 183.25754 
L 373.513846 187.134447 
L 365.189371 203.874929 
L 356.864895 233.462519 
L 348.54042 273.247441 
L 340.215944 270.032579 
L 331.891469 280.62467 
L 323.566993 280.571478 
L 315.242517 280.495489 
L 306.918042 280.386934 
L 298.593566 280.231856 
L 290.269091 280.010315 
L 281.944615 279.693828 
L 273.62014 279.241704 
L 265.295664 278.595813 
L 256.971189 277.673111 
L 248.646713 276.354965 
L 240.322238 280.748784 
L 231.997762 280.748784 
L 223.673287 280.748784 
L 215.348811 280.748784 
L 207.024336 280.748784 
L 198.69986 280.748784 
L 190.375385 280.748784 
L 182.050909 280.748784 
L 173.726434 280.748784 
L 165.401958 280.748784 
L 157.077483 280.748784 
L 148.753007 280.748784 
L 140.428531 280.748784 
L 132.104056 280.748784 
L 123.77958 280.748784 
L 115.455105 280.748784 
L 107.130629 280.748784 
L 98.806154 280.748784 
L 90.481678 280.748784 
L 82.157203 280.748784 
L 73.832727 280.748784 
z
" style="fill:#ff7f0e;fill-opacity:0.3;"/>
   </g>
   <g id="PolyCollection_3">
    <path clip-path="url(#p2d16465a5b)" d="M 73.832727 280.748784 
L 73.832727 280.748784 
L 82.157203 280.748784 
L 90.481678 280.748784 
L 98.806154 280.748784 
L 107.130629 280.748784 
L 115.455105 280.748784 
L 123.77958 280.748784 
L 132.104056 280.748784 
L 140.428531 280.748784 
L 148.753007 280.748784 
L 157.077483 280.748784 
L 165.401958 280.748784 
L 173.726434 280.748784 
L 182.050909 280.748784 
L 190.375385 280.748784 
L 198.69986 280.748784 
L 207.024336 280.748784 
L 215.348811 280.748784 
L 223.673287 280.748784 
L 231.997762 280.748784 
L 240.322238 280.748784 
L 248.646713 280.748784 
L 256.971189 280.748784 
L 265.295664 280.748784 
L 273.62014 280.748784 
L 281.944615 280.748784 
L 290.269091 280.748784 
L 298.593566 280.748784 
L 306.918042 280.748784 
L 315.242517 280.748784 
L 323.566993 280.748784 
L 331.891469 280.748784 
L 340.215944 290.798612 
L 348.54042 287.783663 
L 356.864895 287.527516 
L 365.189371 295.485762 
L 373.513846 295.488 
L 381.838322 291.066235 
L 390.162797 287.153923 
L 398.487273 289.178417 
L 398.487273 289.178417 
L 398.487273 246.962126 
L 390.162797 253.54765 
L 381.838322 242.243533 
L 373.513846 225.741282 
L 365.189371 225.749636 
L 356.864895 255.450213 
L 348.54042 254.494258 
L 340.215944 243.242318 
L 331.891469 280.748784 
L 323.566993 280.748784 
L 315.242517 280.748784 
L 306.918042 280.748784 
L 298.593566 280.748784 
L 290.269091 280.748784 
L 281.944615 280.748784 
L 273.62014 280.748784 
L 265.295664 280.748784 
L 256.971189 280.748784 
L 248.646713 280.748784 
L 240.322238 280.748784 
L 231.997762 280.748784 
L 223.673287 280.748784 
L 215.348811 280.748784 
L 207.024336 280.748784 
L 198.69986 280.748784 
L 190.375385 280.748784 
L 182.050909 280.748784 
L 173.726434 280.748784 
L 165.401958 280.748784 
L 157.077483 280.748784 
L 148.753007 280.748784 
L 140.428531 280.748784 
L 132.104056 280.748784 
L 123.77958 280.748784 
L 115.455105 280.748784 
L 107.130629 280.748784 
L 98.806154 280.748784 
L 90.481678 280.748784 
L 82.157203 280.748784 
L 73.832727 280.748784 
z
" style="fill:#2ca02c;fill-opacity:0.3;"/>
   </g>
   <g id="matplotlib.axis_1">
    <g id="xtick_1">
     <g id="line2d_1">
      <defs>
       <path d="M 0 0 
L 0 3.5 
" id="m00a2f1920c" style="stroke:#000000;stroke-width:0.8;"/>
      </defs>
      <g>
       <use style="stroke:#000000;stroke-width:0.8;" x="65.508252" xlink:href="#m00a2f1920c" y="307.584"/>
      </g>
     </g>
     <g id="text_1">
      <!-- 0 -->
      <g transform="translate(62.327002 322.182437)scale(0.1 -0.1)">
       <defs>
        <path d="M 2034 4250 
Q 1547 4250 1301 3770 
Q 1056 3291 1056 2328 
Q 1056 1369 1301 889 
Q 1547 409 2034 409 
Q 2525 409 2770 889 
Q 3016 1369 3016 2328 
Q 3016 3291 2770 3770 
Q 2525 4250 2034 4250 
z
M 2034 4750 
Q 2819 4750 3233 4129 
Q 3647 3509 3647 2328 
Q 3647 1150 3233 529 
Q 2819 -91 2034 -91 
Q 1250 -91 836 529 
Q 422 1150 422 2328 
Q 422 3509 836 4129 
Q 1250 4750 2034 4750 
z
" id="DejaVuSans-30" transform="scale(0.015625)"/>
       </defs>
       <use xlink:href="#DejaVuSans-30"/>
      </g>
     </g>
    </g>
    <g id="xtick_2">
     <g id="line2d_2">
      <g>
       <use style="stroke:#000000;stroke-width:0.8;" x="107.130629" xlink:href="#m00a2f1920c" y="307.584"/>
      </g>
     </g>
     <g id="text_2">
      <!-- 50 -->
      <g transform="translate(100.768129 322.182437)scale(0.1 -0.1)">
       <defs>
        <path d="M 691 4666 
L 3169 4666 
L 3169 4134 
L 1269 4134 
L 1269 2991 
Q 1406 3038 1543 3061 
Q 1681 3084 1819 3084 
Q 2600 3084 3056 2656 
Q 3513 2228 3513 1497 
Q 3513 744 3044 326 
Q 2575 -91 1722 -91 
Q 1428 -91 1123 -41 
Q 819 9 494 109 
L 494 744 
Q 775 591 1075 516 
Q 1375 441 1709 441 
Q 2250 441 2565 725 
Q 2881 1009 2881 1497 
Q 2881 1984 2565 2268 
Q 2250 2553 1709 2553 
Q 1456 2553 1204 2497 
Q 953 2441 691 2322 
L 691 4666 
z
" id="DejaVuSans-35" transform="scale(0.015625)"/>
       </defs>
       <use xlink:href="#DejaVuSans-35"/>
       <use x="63.623047" xlink:href="#DejaVuSans-30"/>
      </g>
     </g>
    </g>
    <g id="xtick_3">
     <g id="line2d_3">
      <g>
       <use style="stroke:#000000;stroke-width:0.8;" x="148.753007" xlink:href="#m00a2f1920c" y="307.584"/>
      </g>
     </g>
     <g id="text_3">
      <!-- 100 -->
      <g transform="translate(139.209257 322.182437)scale(0.1 -0.1)">
       <defs>
        <path d="M 794 531 
L 1825 531 
L 1825 4091 
L 703 3866 
L 703 4441 
L 1819 4666 
L 2450 4666 
L 2450 531 
L 3481 531 
L 3481 0 
L 794 0 
L 794 531 
z
" id="DejaVuSans-31" transform="scale(0.015625)"/>
       </defs>
       <use xlink:href="#DejaVuSans-31"/>
       <use x="63.623047" xlink:href="#DejaVuSans-30"/>
       <use x="127.246094" xlink:href="#DejaVuSans-30"/>
      </g>
     </g>
    </g>
    <g id="xtick_4">
     <g id="line2d_4">
      <g>
       <use style="stroke:#000000;stroke-width:0.8;" x="190.375385" xlink:href="#m00a2f1920c" y="307.584"/>
      </g>
     </g>
     <g id="text_4">
      <!-- 150 -->
      <g transform="translate(180.831635 322.182437)scale(0.1 -0.1)">
       <use xlink:href="#DejaVuSans-31"/>
       <use x="63.623047" xlink:href="#DejaVuSans-35"/>
       <use x="127.246094" xlink:href="#DejaVuSans-30"/>
      </g>
     </g>
    </g>
    <g id="xtick_5">
     <g id="line2d_5">
      <g>
       <use style="stroke:#000000;stroke-width:0.8;" x="231.997762" xlink:href="#m00a2f1920c" y="307.584"/>
      </g>
     </g>
     <g id="text_5">
      <!-- 200 -->
      <g transform="translate(222.454012 322.182437)scale(0.1 -0.1)">
       <defs>
        <path d="M 1228 531 
L 3431 531 
L 3431 0 
L 469 0 
L 469 531 
Q 828 903 1448 1529 
Q 2069 2156 2228 2338 
Q 2531 2678 2651 2914 
Q 2772 3150 2772 3378 
Q 2772 3750 2511 3984 
Q 2250 4219 1831 4219 
Q 1534 4219 1204 4116 
Q 875 4013 500 3803 
L 500 4441 
Q 881 4594 1212 4672 
Q 1544 4750 1819 4750 
Q 2544 4750 2975 4387 
Q 3406 4025 3406 3419 
Q 3406 3131 3298 2873 
Q 3191 2616 2906 2266 
Q 2828 2175 2409 1742 
Q 1991 1309 1228 531 
z
" id="DejaVuSans-32" transform="scale(0.015625)"/>
       </defs>
       <use xlink:href="#DejaVuSans-32"/>
       <use x="63.623047" xlink:href="#DejaVuSans-30"/>
       <use x="127.246094" xlink:href="#DejaVuSans-30"/>
      </g>
     </g>
    </g>
    <g id="xtick_6">
     <g id="line2d_6">
      <g>
       <use style="stroke:#000000;stroke-width:0.8;" x="273.62014" xlink:href="#m00a2f1920c" y="307.584"/>
      </g>
     </g>
     <g id="text_6">
      <!-- 250 -->
      <g transform="translate(264.07639 322.182437)scale(0.1 -0.1)">
       <use xlink:href="#DejaVuSans-32"/>
       <use x="63.623047" xlink:href="#DejaVuSans-35"/>
       <use x="127.246094" xlink:href="#DejaVuSans-30"/>
      </g>
     </g>
    </g>
    <g id="xtick_7">
     <g id="line2d_7">
      <g>
       <use style="stroke:#000000;stroke-width:0.8;" x="315.242517" xlink:href="#m00a2f1920c" y="307.584"/>
      </g>
     </g>
     <g id="text_7">
      <!-- 300 -->
      <g transform="translate(305.698767 322.182437)scale(0.1 -0.1)">
       <defs>
        <path d="M 2597 2516 
Q 3050 2419 3304 2112 
Q 3559 1806 3559 1356 
Q 3559 666 3084 287 
Q 2609 -91 1734 -91 
Q 1441 -91 1130 -33 
Q 819 25 488 141 
L 488 750 
Q 750 597 1062 519 
Q 1375 441 1716 441 
Q 2309 441 2620 675 
Q 2931 909 2931 1356 
Q 2931 1769 2642 2001 
Q 2353 2234 1838 2234 
L 1294 2234 
L 1294 2753 
L 1863 2753 
Q 2328 2753 2575 2939 
Q 2822 3125 2822 3475 
Q 2822 3834 2567 4026 
Q 2313 4219 1838 4219 
Q 1578 4219 1281 4162 
Q 984 4106 628 3988 
L 628 4550 
Q 988 4650 1302 4700 
Q 1616 4750 1894 4750 
Q 2613 4750 3031 4423 
Q 3450 4097 3450 3541 
Q 3450 3153 3228 2886 
Q 3006 2619 2597 2516 
z
" id="DejaVuSans-33" transform="scale(0.015625)"/>
       </defs>
       <use xlink:href="#DejaVuSans-33"/>
       <use x="63.623047" xlink:href="#DejaVuSans-30"/>
       <use x="127.246094" xlink:href="#DejaVuSans-30"/>
      </g>
     </g>
    </g>
    <g id="xtick_8">
     <g id="line2d_8">
      <g>
       <use style="stroke:#000000;stroke-width:0.8;" x="356.864895" xlink:href="#m00a2f1920c" y="307.584"/>
      </g>
     </g>
     <g id="text_8">
      <!-- 350 -->
      <g transform="translate(347.321145 322.182437)scale(0.1 -0.1)">
       <use xlink:href="#DejaVuSans-33"/>
       <use x="63.623047" xlink:href="#DejaVuSans-35"/>
       <use x="127.246094" xlink:href="#DejaVuSans-30"/>
      </g>
     </g>
    </g>
    <g id="xtick_9">
     <g id="line2d_9">
      <g>
       <use style="stroke:#000000;stroke-width:0.8;" x="398.487273" xlink:href="#m00a2f1920c" y="307.584"/>
      </g>
     </g>
     <g id="text_9">
      <!-- 400 -->
      <g transform="translate(388.943523 322.182437)scale(0.1 -0.1)">
       <defs>
        <path d="M 2419 4116 
L 825 1625 
L 2419 1625 
L 2419 4116 
z
M 2253 4666 
L 3047 4666 
L 3047 1625 
L 3713 1625 
L 3713 1100 
L 3047 1100 
L 3047 0 
L 2419 0 
L 2419 1100 
L 313 1100 
L 313 1709 
L 2253 4666 
z
" id="DejaVuSans-34" transform="scale(0.015625)"/>
       </defs>
       <use xlink:href="#DejaVuSans-34"/>
       <use x="63.623047" xlink:href="#DejaVuSans-30"/>
       <use x="127.246094" xlink:href="#DejaVuSans-30"/>
      </g>
     </g>
    </g>
   </g>
   <g id="matplotlib.axis_2">
    <g id="ytick_1">
     <g id="line2d_10">
      <defs>
       <path d="M 0 0 
L -3.5 0 
" id="m73f10cc98e" style="stroke:#000000;stroke-width:0.8;"/>
      </defs>
      <g>
       <use style="stroke:#000000;stroke-width:0.8;" x="57.6" xlink:href="#m73f10cc98e" y="275.438077"/>
      </g>
     </g>
     <g id="text_10">
      <!-- −180 -->
      <g transform="translate(23.132812 279.237295)scale(0.1 -0.1)">
       <defs>
        <path d="M 678 2272 
L 4684 2272 
L 4684 1741 
L 678 1741 
L 678 2272 
z
" id="DejaVuSans-2212" transform="scale(0.015625)"/>
        <path d="M 2034 2216 
Q 1584 2216 1326 1975 
Q 1069 1734 1069 1313 
Q 1069 891 1326 650 
Q 1584 409 2034 409 
Q 2484 409 2743 651 
Q 3003 894 3003 1313 
Q 3003 1734 2745 1975 
Q 2488 2216 2034 2216 
z
M 1403 2484 
Q 997 2584 770 2862 
Q 544 3141 544 3541 
Q 544 4100 942 4425 
Q 1341 4750 2034 4750 
Q 2731 4750 3128 4425 
Q 3525 4100 3525 3541 
Q 3525 3141 3298 2862 
Q 3072 2584 2669 2484 
Q 3125 2378 3379 2068 
Q 3634 1759 3634 1313 
Q 3634 634 3220 271 
Q 2806 -91 2034 -91 
Q 1263 -91 848 271 
Q 434 634 434 1313 
Q 434 1759 690 2068 
Q 947 2378 1403 2484 
z
M 1172 3481 
Q 1172 3119 1398 2916 
Q 1625 2713 2034 2713 
Q 2441 2713 2670 2916 
Q 2900 3119 2900 3481 
Q 2900 3844 2670 4047 
Q 2441 4250 2034 4250 
Q 1625 4250 1398 4047 
Q 1172 3844 1172 3481 
z
" id="DejaVuSans-38" transform="scale(0.015625)"/>
       </defs>
       <use xlink:href="#DejaVuSans-2212"/>
       <use x="83.789062" xlink:href="#DejaVuSans-31"/>
       <use x="147.412109" xlink:href="#DejaVuSans-38"/>
       <use x="211.035156" xlink:href="#DejaVuSans-30"/>
      </g>
     </g>
    </g>
    <g id="ytick_2">
     <g id="line2d_11">
      <g>
       <use style="stroke:#000000;stroke-width:0.8;" x="57.6" xlink:href="#m73f10cc98e" y="236.133581"/>
      </g>
     </g>
     <g id="text_11">
      <!-- −170 -->
      <g transform="translate(23.132812 239.9328)scale(0.1 -0.1)">
       <defs>
        <path d="M 525 4666 
L 3525 4666 
L 3525 4397 
L 1831 0 
L 1172 0 
L 2766 4134 
L 525 4134 
L 525 4666 
z
" id="DejaVuSans-37" transform="scale(0.015625)"/>
       </defs>
       <use xlink:href="#DejaVuSans-2212"/>
       <use x="83.789062" xlink:href="#DejaVuSans-31"/>
       <use x="147.412109" xlink:href="#DejaVuSans-37"/>
       <use x="211.035156" xlink:href="#DejaVuSans-30"/>
      </g>
     </g>
    </g>
    <g id="ytick_3">
     <g id="line2d_12">
      <g>
       <use style="stroke:#000000;stroke-width:0.8;" x="57.6" xlink:href="#m73f10cc98e" y="196.829086"/>
      </g>
     </g>
     <g id="text_12">
      <!-- −160 -->
      <g transform="translate(23.132812 200.628305)scale(0.1 -0.1)">
       <defs>
        <path d="M 2113 2584 
Q 1688 2584 1439 2293 
Q 1191 2003 1191 1497 
Q 1191 994 1439 701 
Q 1688 409 2113 409 
Q 2538 409 2786 701 
Q 3034 994 3034 1497 
Q 3034 2003 2786 2293 
Q 2538 2584 2113 2584 
z
M 3366 4563 
L 3366 3988 
Q 3128 4100 2886 4159 
Q 2644 4219 2406 4219 
Q 1781 4219 1451 3797 
Q 1122 3375 1075 2522 
Q 1259 2794 1537 2939 
Q 1816 3084 2150 3084 
Q 2853 3084 3261 2657 
Q 3669 2231 3669 1497 
Q 3669 778 3244 343 
Q 2819 -91 2113 -91 
Q 1303 -91 875 529 
Q 447 1150 447 2328 
Q 447 3434 972 4092 
Q 1497 4750 2381 4750 
Q 2619 4750 2861 4703 
Q 3103 4656 3366 4563 
z
" id="DejaVuSans-36" transform="scale(0.015625)"/>
       </defs>
       <use xlink:href="#DejaVuSans-2212"/>
       <use x="83.789062" xlink:href="#DejaVuSans-31"/>
       <use x="147.412109" xlink:href="#DejaVuSans-36"/>
       <use x="211.035156" xlink:href="#DejaVuSans-30"/>
      </g>
     </g>
    </g>
    <g id="ytick_4">
     <g id="line2d_13">
      <g>
       <use style="stroke:#000000;stroke-width:0.8;" x="57.6" xlink:href="#m73f10cc98e" y="157.524591"/>
      </g>
     </g>
     <g id="text_13">
      <!-- −150 -->
      <g transform="translate(23.132812 161.32381)scale(0.1 -0.1)">
       <use xlink:href="#DejaVuSans-2212"/>
       <use x="83.789062" xlink:href="#DejaVuSans-31"/>
       <use x="147.412109" xlink:href="#DejaVuSans-35"/>
       <use x="211.035156" xlink:href="#DejaVuSans-30"/>
      </g>
     </g>
    </g>
    <g id="ytick_5">
     <g id="line2d_14">
      <g>
       <use style="stroke:#000000;stroke-width:0.8;" x="57.6" xlink:href="#m73f10cc98e" y="118.220096"/>
      </g>
     </g>
     <g id="text_14">
      <!-- −140 -->
      <g transform="translate(23.132812 122.019314)scale(0.1 -0.1)">
       <use xlink:href="#DejaVuSans-2212"/>
       <use x="83.789062" xlink:href="#DejaVuSans-31"/>
       <use x="147.412109" xlink:href="#DejaVuSans-34"/>
       <use x="211.035156" xlink:href="#DejaVuSans-30"/>
      </g>
     </g>
    </g>
    <g id="ytick_6">
     <g id="line2d_15">
      <g>
       <use style="stroke:#000000;stroke-width:0.8;" x="57.6" xlink:href="#m73f10cc98e" y="78.9156"/>
      </g>
     </g>
     <g id="text_15">
      <!-- −130 -->
      <g transform="translate(23.132812 82.714819)scale(0.1 -0.1)">
       <use xlink:href="#DejaVuSans-2212"/>
       <use x="83.789062" xlink:href="#DejaVuSans-31"/>
       <use x="147.412109" xlink:href="#DejaVuSans-33"/>
       <use x="211.035156" xlink:href="#DejaVuSans-30"/>
      </g>
     </g>
    </g>
   </g>
   <g id="line2d_16">
    <path clip-path="url(#p2d16465a5b)" d="M 73.832727 280.748784 
L 82.157203 280.748784 
L 90.481678 280.748784 
L 98.806154 280.748784 
L 107.130629 280.748784 
L 115.455105 280.748784 
L 123.77958 280.748784 
L 132.104056 280.748784 
L 140.428531 280.748784 
L 148.753007 280.748784 
L 157.077483 280.748784 
L 165.401958 280.748784 
L 173.726434 280.748784 
L 182.050909 280.748784 
L 190.375385 280.748784 
L 198.69986 280.748784 
L 207.024336 280.748784 
L 215.348811 280.748784 
L 223.673287 280.748784 
L 231.997762 280.748784 
L 240.322238 280.26347 
L 248.646713 276.654607 
L 256.971189 277.88286 
L 265.295664 278.742637 
L 273.62014 279.344481 
L 281.944615 279.765772 
L 290.269091 280.060676 
L 298.593566 280.267108 
L 306.918042 280.411611 
L 315.242517 280.512763 
L 323.566993 276.885257 
L 331.891469 270.051692 
L 340.215944 258.287363 
L 348.54042 227.916382 
L 356.864895 225.858052 
L 365.189371 222.13508 
L 373.513846 221.219879 
L 381.838322 196.26403 
L 390.162797 169.062383 
L 398.487273 141.257208 
" style="fill:none;stroke:#1f77b4;stroke-linecap:square;stroke-width:1.5;"/>
   </g>
   <g id="line2d_17">
    <path clip-path="url(#p2d16465a5b)" d="M 73.832727 280.748784 
L 82.157203 280.748784 
L 90.481678 280.748784 
L 98.806154 280.748784 
L 107.130629 280.748784 
L 115.455105 280.748784 
L 123.77958 280.748784 
L 132.104056 280.748784 
L 140.428531 280.748784 
L 148.753007 280.748784 
L 157.077483 280.748784 
L 165.401958 280.748784 
L 173.726434 280.748784 
L 182.050909 280.748784 
L 190.375385 280.748784 
L 198.69986 280.748784 
L 207.024336 280.748784 
L 215.348811 280.748784 
L 223.673287 280.748784 
L 231.997762 280.748784 
L 240.322238 280.748784 
L 248.646713 279.140535 
L 256.971189 279.62301 
L 265.295664 279.960742 
L 273.62014 280.197155 
L 281.944615 280.362644 
L 290.269091 280.478486 
L 298.593566 280.559575 
L 306.918042 280.616338 
L 315.242517 280.656072 
L 323.566993 280.683886 
L 331.891469 280.703355 
L 340.215944 276.799573 
L 348.54042 277.984336 
L 356.864895 261.806743 
L 365.189371 244.395743 
L 373.513846 234.584553 
L 381.838322 233.024517 
L 390.162797 229.496701 
L 398.487273 212.794746 
" style="fill:none;stroke:#ff7f0e;stroke-linecap:square;stroke-width:1.5;"/>
   </g>
   <g id="line2d_18">
    <path clip-path="url(#p2d16465a5b)" d="M 73.832727 280.748784 
L 82.157203 280.748784 
L 90.481678 280.748784 
L 98.806154 280.748784 
L 107.130629 280.748784 
L 115.455105 280.748784 
L 123.77958 280.748784 
L 132.104056 280.748784 
L 140.428531 280.748784 
L 148.753007 280.748784 
L 157.077483 280.748784 
L 165.401958 280.748784 
L 173.726434 280.748784 
L 182.050909 280.748784 
L 190.375385 280.748784 
L 198.69986 280.748784 
L 207.024336 280.748784 
L 215.348811 280.748784 
L 223.673287 280.748784 
L 231.997762 280.748784 
L 240.322238 280.748784 
L 248.646713 280.748784 
L 256.971189 280.748784 
L 265.295664 280.748784 
L 273.62014 280.748784 
L 281.944615 280.748784 
L 290.269091 280.748784 
L 298.593566 280.748784 
L 306.918042 280.748784 
L 315.242517 280.748784 
L 323.566993 280.748784 
L 331.891469 280.748784 
L 340.215944 267.020465 
L 348.54042 271.138961 
L 356.864895 271.488865 
L 365.189371 260.617699 
L 373.513846 260.614641 
L 381.838322 266.654884 
L 390.162797 270.350786 
L 398.487273 268.070271 
" style="fill:none;stroke:#2ca02c;stroke-linecap:square;stroke-width:1.5;"/>
   </g>
   <g id="patch_3">
    <path d="M 57.6 307.584 
L 57.6 41.472 
" style="fill:none;stroke:#000000;stroke-linecap:square;stroke-linejoin:miter;stroke-width:0.8;"/>
   </g>
   <g id="patch_4">
    <path d="M 414.72 307.584 
L 414.72 41.472 
" style="fill:none;stroke:#000000;stroke-linecap:square;stroke-linejoin:miter;stroke-width:0.8;"/>
   </g>
   <g id="patch_5">
    <path d="M 57.6 307.584 
L 414.72 307.584 
" style="fill:none;stroke:#000000;stroke-linecap:square;stroke-linejoin:miter;stroke-width:0.8;"/>
   </g>
   <g id="patch_6">
    <path d="M 57.6 41.472 
L 414.72 41.472 
" style="fill:none;stroke:#000000;stroke-linecap:square;stroke-linejoin:miter;stroke-width:0.8;"/>
   </g>
   <g id="legend_1">
    <g id="patch_7">
     <path d="M 64.6 93.506375 
L 154.959375 93.506375 
Q 156.959375 93.506375 156.959375 91.506375 
L 156.959375 48.472 
Q 156.959375 46.472 154.959375 46.472 
L 64.6 46.472 
Q 62.6 46.472 62.6 48.472 
L 62.6 91.506375 
Q 62.6 93.506375 64.6 93.506375 
z
" style="fill:#ffffff;opacity:0.8;stroke:#cccccc;stroke-linejoin:miter;"/>
    </g>
    <g id="line2d_19">
     <path d="M 66.6 54.570438 
L 86.6 54.570438 
" style="fill:none;stroke:#1f77b4;stroke-linecap:square;stroke-width:1.5;"/>
    </g>
    <g id="line2d_20"/>
    <g id="text_16">
     <!-- alpha = 0.2 -->
     <g transform="translate(94.6 58.070438)scale(0.1 -0.1)">
      <defs>
       <path d="M 2194 1759 
Q 1497 1759 1228 1600 
Q 959 1441 959 1056 
Q 959 750 1161 570 
Q 1363 391 1709 391 
Q 2188 391 2477 730 
Q 2766 1069 2766 1631 
L 2766 1759 
L 2194 1759 
z
M 3341 1997 
L 3341 0 
L 2766 0 
L 2766 531 
Q 2569 213 2275 61 
Q 1981 -91 1556 -91 
Q 1019 -91 701 211 
Q 384 513 384 1019 
Q 384 1609 779 1909 
Q 1175 2209 1959 2209 
L 2766 2209 
L 2766 2266 
Q 2766 2663 2505 2880 
Q 2244 3097 1772 3097 
Q 1472 3097 1187 3025 
Q 903 2953 641 2809 
L 641 3341 
Q 956 3463 1253 3523 
Q 1550 3584 1831 3584 
Q 2591 3584 2966 3190 
Q 3341 2797 3341 1997 
z
" id="DejaVuSans-61" transform="scale(0.015625)"/>
       <path d="M 603 4863 
L 1178 4863 
L 1178 0 
L 603 0 
L 603 4863 
z
" id="DejaVuSans-6c" transform="scale(0.015625)"/>
       <path d="M 1159 525 
L 1159 -1331 
L 581 -1331 
L 581 3500 
L 1159 3500 
L 1159 2969 
Q 1341 3281 1617 3432 
Q 1894 3584 2278 3584 
Q 2916 3584 3314 3078 
Q 3713 2572 3713 1747 
Q 3713 922 3314 415 
Q 2916 -91 2278 -91 
Q 1894 -91 1617 61 
Q 1341 213 1159 525 
z
M 3116 1747 
Q 3116 2381 2855 2742 
Q 2594 3103 2138 3103 
Q 1681 3103 1420 2742 
Q 1159 2381 1159 1747 
Q 1159 1113 1420 752 
Q 1681 391 2138 391 
Q 2594 391 2855 752 
Q 3116 1113 3116 1747 
z
" id="DejaVuSans-70" transform="scale(0.015625)"/>
       <path d="M 3513 2113 
L 3513 0 
L 2938 0 
L 2938 2094 
Q 2938 2591 2744 2837 
Q 2550 3084 2163 3084 
Q 1697 3084 1428 2787 
Q 1159 2491 1159 1978 
L 1159 0 
L 581 0 
L 581 4863 
L 1159 4863 
L 1159 2956 
Q 1366 3272 1645 3428 
Q 1925 3584 2291 3584 
Q 2894 3584 3203 3211 
Q 3513 2838 3513 2113 
z
" id="DejaVuSans-68" transform="scale(0.015625)"/>
       <path id="DejaVuSans-20" transform="scale(0.015625)"/>
       <path d="M 678 2906 
L 4684 2906 
L 4684 2381 
L 678 2381 
L 678 2906 
z
M 678 1631 
L 4684 1631 
L 4684 1100 
L 678 1100 
L 678 1631 
z
" id="DejaVuSans-3d" transform="scale(0.015625)"/>
       <path d="M 684 794 
L 1344 794 
L 1344 0 
L 684 0 
L 684 794 
z
" id="DejaVuSans-2e" transform="scale(0.015625)"/>
      </defs>
      <use xlink:href="#DejaVuSans-61"/>
      <use x="61.279297" xlink:href="#DejaVuSans-6c"/>
      <use x="89.0625" xlink:href="#DejaVuSans-70"/>
      <use x="152.539062" xlink:href="#DejaVuSans-68"/>
      <use x="215.917969" xlink:href="#DejaVuSans-61"/>
      <use x="277.197266" xlink:href="#DejaVuSans-20"/>
      <use x="308.984375" xlink:href="#DejaVuSans-3d"/>
      <use x="392.773438" xlink:href="#DejaVuSans-20"/>
      <use x="424.560547" xlink:href="#DejaVuSans-30"/>
      <use x="488.183594" xlink:href="#DejaVuSans-2e"/>
      <use x="519.970703" xlink:href="#DejaVuSans-32"/>
     </g>
    </g>
    <g id="line2d_21">
     <path d="M 66.6 69.248563 
L 86.6 69.248563 
" style="fill:none;stroke:#ff7f0e;stroke-linecap:square;stroke-width:1.5;"/>
    </g>
    <g id="line2d_22"/>
    <g id="text_17">
     <!-- alpha = 0.4 -->
     <g transform="translate(94.6 72.748563)scale(0.1 -0.1)">
      <defs>
       <path d="M 2419 4116 
L 825 1625 
L 2419 1625 
L 2419 4116 
z
M 2253 4666 
L 3047 4666 
L 3047 1625 
L 3713 1625 
L 3713 1100 
L 3047 1100 
L 3047 0 
L 2419 0 
L 2419 1100 
L 313 1100 
L 313 1709 
L 2253 4666 
z
" id="DejaVuSans-34" transform="scale(0.015625)"/>
      </defs>
      <use xlink:href="#DejaVuSans-61"/>
      <use x="61.279297" xlink:href="#DejaVuSans-6c"/>
      <use x="89.0625" xlink:href="#DejaVuSans-70"/>
      <use x="152.539062" xlink:href="#DejaVuSans-68"/>
      <use x="215.917969" xlink:href="#DejaVuSans-61"/>
      <use x="277.197266" xlink:href="#DejaVuSans-20"/>
      <use x="308.984375" xlink:href="#DejaVuSans-3d"/>
      <use x="392.773438" xlink:href="#DejaVuSans-20"/>
      <use x="424.560547" xlink:href="#DejaVuSans-30"/>
      <use x="488.183594" xlink:href="#DejaVuSans-2e"/>
      <use x="519.970703" xlink:href="#DejaVuSans-34"/>
     </g>
    </g>
    <g id="line2d_23">
     <path d="M 66.6 83.926688 
L 86.6 83.926688 
" style="fill:none;stroke:#2ca02c;stroke-linecap:square;stroke-width:1.5;"/>
    </g>
    <g id="line2d_24"/>
    <g id="text_18">
     <!-- alpha = 0.6 -->
     <g transform="translate(94.6 87.426688)scale(0.1 -0.1)">
      <defs>
       <path d="M 2113 2584 
Q 1688 2584 1439 2293 
Q 1191 2003 1191 1497 
Q 1191 994 1439 701 
Q 1688 409 2113 409 
Q 2538 409 2786 701 
Q 3034 994 3034 1497 
Q 3034 2003 2786 2293 
Q 2538 2584 2113 2584 
z
M 3366 4563 
L 3366 3988 
Q 3128 4100 2886 4159 
Q 2644 4219 2406 4219 
Q 1781 4219 1451 3797 
Q 1122 3375 1075 2522 
Q 1259 2794 1537 2939 
Q 1816 3084 2150 3084 
Q 2853 3084 3261 2657 
Q 3669 2231 3669 1497 
Q 3669 778 3244 343 
Q 2819 -91 2113 -91 
Q 1303 -91 875 529 
Q 447 1150 447 2328 
Q 447 3434 972 4092 
Q 1497 4750 2381 4750 
Q 2619 4750 2861 4703 
Q 3103 4656 3366 4563 
z
" id="DejaVuSans-36" transform="scale(0.015625)"/>
      </defs>
      <use xlink:href="#DejaVuSans-61"/>
      <use x="61.279297" xlink:href="#DejaVuSans-6c"/>
      <use x="89.0625" xlink:href="#DejaVuSans-70"/>
      <use x="152.539062" xlink:href="#DejaVuSans-68"/>
      <use x="215.917969" xlink:href="#DejaVuSans-61"/>
      <use x="277.197266" xlink:href="#DejaVuSans-20"/>
      <use x="308.984375" xlink:href="#DejaVuSans-3d"/>
      <use x="392.773438" xlink:href="#DejaVuSans-20"/>
      <use x="424.560547" xlink:href="#DejaVuSans-30"/>
      <use x="488.183594" xlink:href="#DejaVuSans-2e"/>
      <use x="519.970703" xlink:href="#DejaVuSans-36"/>
     </g>
    </g>
   </g>
  </g>
 </g>
 <defs>
  <clipPath id="pb876cd4972">
   <rect height="266.112" width="357.12" x="57.6" y="41.472"/>
  </clipPath>
 </defs>
</svg>
