<?xml version="1.0" encoding="utf-8" standalone="no"?>
<!DOCTYPE svg PUBLIC "-//W3C//DTD SVG 1.1//EN"
  "http://www.w3.org/Graphics/SVG/1.1/DTD/svg11.dtd">
<svg height="345.6pt" version="1.1" viewBox="0 0 460.8 345.6" width="460.8pt" xmlns="http://www.w3.org/2000/svg" xmlns:xlink="http://www.w3.org/1999/xlink">
 <metadata>
  <rdf:RDF xmlns:cc="http://creativecommons.org/ns#" xmlns:dc="http://purl.org/dc/elements/1.1/" xmlns:rdf="http://www.w3.org/1999/02/22-rdf-syntax-ns#">
   <cc:Work>
    <dc:type rdf:resource="http://purl.org/dc/dcmitype/StillImage"/>
    <dc:date>2022-01-03T11:47:28.285307</dc:date>
    <dc:format>image/svg+xml</dc:format>
    <dc:creator>
     <cc:Agent>
      <dc:title>Matplotlib v3.4.2, https://matplotlib.org/</dc:title>
     </cc:Agent>
    </dc:creator>
   </cc:Work>
  </rdf:RDF>
 </metadata>
 <defs>
  <style type="text/css">*{stroke-linecap:butt;stroke-linejoin:round;}</style>
 </defs>
 <g id="figure_1">
  <g id="patch_1">
   <path d="M 0 345.6 
L 460.8 345.6 
L 460.8 0 
L 0 0 
z
" style="fill:#ffffff;"/>
  </g>
  <g id="axes_1">
   <g id="patch_2">
    <path d="M 57.6 307.584 
L 414.72 307.584 
L 414.72 41.472 
L 57.6 41.472 
z
" style="fill:#ffffff;"/>
   </g>
   <g id="PolyCollection_1">
    <path clip-path="url(#p8f590b05ec)" d="M 73.832727 287.142811 
L 73.832727 287.142811 
L 82.157203 287.206832 
L 90.481678 290.943009 
L 98.806154 290.679041 
L 107.130629 287.68537 
L 115.455105 276.962564 
L 123.77958 256.445883 
L 132.104056 241.365206 
L 140.428531 225.758863 
L 148.753007 214.24049 
L 157.077483 204.772146 
L 165.401958 180.784736 
L 173.726434 182.635713 
L 182.050909 159.714157 
L 190.375385 148.92534 
L 198.69986 147.760311 
L 207.024336 145.096155 
L 215.348811 155.648407 
L 223.673287 145.959139 
L 231.997762 144.518445 
L 240.322238 138.337669 
L 248.646713 132.727059 
L 256.971189 131.5006 
L 265.295664 129.736095 
L 273.62014 132.413371 
L 281.944615 154.517567 
L 290.269091 143.333898 
L 298.593566 135.374228 
L 306.918042 141.995366 
L 315.242517 141.76175 
L 323.566993 134.494716 
L 331.891469 143.574704 
L 340.215944 142.073336 
L 348.54042 140.160667 
L 356.864895 143.698228 
L 365.189371 138.961948 
L 373.513846 140.378458 
L 381.838322 138.900209 
L 390.162797 139.257223 
L 398.487273 119.221602 
L 398.487273 119.221602 
L 398.487273 59.239146 
L 390.162797 53.568 
L 381.838322 55.11905 
L 373.513846 56.665364 
L 365.189371 60.030415 
L 356.864895 62.562506 
L 348.54042 61.861893 
L 340.215944 66.209892 
L 331.891469 72.092994 
L 323.566993 83.436397 
L 315.242517 84.532597 
L 306.918042 92.430215 
L 298.593566 89.76065 
L 290.269091 98.831723 
L 281.944615 94.337165 
L 273.62014 100.442039 
L 265.295664 98.953512 
L 256.971189 99.369468 
L 248.646713 101.935413 
L 240.322238 111.885653 
L 231.997762 108.132073 
L 223.673287 101.49726 
L 215.348811 111.843858 
L 207.024336 110.7719 
L 198.69986 107.934784 
L 190.375385 103.214862 
L 182.050909 106.838497 
L 173.726434 116.812945 
L 165.401958 119.461723 
L 157.077483 117.022804 
L 148.753007 119.694913 
L 140.428531 141.237556 
L 132.104056 162.783677 
L 123.77958 191.582277 
L 115.455105 226.910331 
L 107.130629 267.670553 
L 98.806154 276.299729 
L 90.481678 275.59072 
L 82.157203 286.886724 
L 73.832727 286.772551 
z
" style="fill:#1f77b4;fill-opacity:0.3;"/>
   </g>
   <g id="PolyCollection_2">
    <path clip-path="url(#p8f590b05ec)" d="M 73.832727 287.142811 
L 73.832727 287.142811 
L 82.157203 287.738231 
L 90.481678 287.384747 
L 98.806154 279.257048 
L 107.130629 276.780565 
L 115.455105 266.196532 
L 123.77958 227.936628 
L 132.104056 195.668135 
L 140.428531 203.919348 
L 148.753007 193.253323 
L 157.077483 181.633497 
L 165.401958 176.084758 
L 173.726434 172.387774 
L 182.050909 159.421305 
L 190.375385 158.402165 
L 198.69986 166.35195 
L 207.024336 172.667488 
L 215.348811 161.019374 
L 223.673287 164.888577 
L 231.997762 181.41931 
L 240.322238 190.762631 
L 248.646713 186.574958 
L 256.971189 187.54545 
L 265.295664 205.417887 
L 273.62014 194.818281 
L 281.944615 193.514699 
L 290.269091 189.28244 
L 298.593566 184.041697 
L 306.918042 188.473011 
L 315.242517 180.545764 
L 323.566993 167.094412 
L 331.891469 166.326534 
L 340.215944 167.643777 
L 348.54042 165.591804 
L 356.864895 168.234458 
L 365.189371 156.448899 
L 373.513846 149.134242 
L 381.838322 147.805169 
L 390.162797 175.833855 
L 398.487273 178.685668 
L 398.487273 178.685668 
L 398.487273 96.531732 
L 390.162797 99.134912 
L 381.838322 103.462446 
L 373.513846 104.447567 
L 365.189371 117.739471 
L 356.864895 134.89765 
L 348.54042 127.283001 
L 340.215944 120.486296 
L 331.891469 134.846626 
L 323.566993 130.329476 
L 315.242517 134.151829 
L 306.918042 117.523195 
L 298.593566 107.455243 
L 290.269091 117.669402 
L 281.944615 130.390806 
L 273.62014 125.41322 
L 265.295664 137.688266 
L 256.971189 133.42107 
L 248.646713 117.459349 
L 240.322238 134.270512 
L 231.997762 125.224822 
L 223.673287 122.786787 
L 215.348811 115.383806 
L 207.024336 128.24333 
L 198.69986 126.213687 
L 190.375385 125.892119 
L 182.050909 141.796708 
L 173.726434 131.397356 
L 165.401958 145.652787 
L 157.077483 140.320737 
L 148.753007 154.540536 
L 140.428531 159.207549 
L 132.104056 159.167593 
L 123.77958 173.429756 
L 115.455105 192.115494 
L 107.130629 216.138231 
L 98.806154 232.144723 
L 90.481678 263.444546 
L 82.157203 283.051678 
L 73.832727 286.772551 
z
" style="fill:#ff7f0e;fill-opacity:0.3;"/>
   </g>
   <g id="PolyCollection_3">
    <path clip-path="url(#p8f590b05ec)" d="M 73.832727 287.142811 
L 73.832727 287.142811 
L 82.157203 288.717745 
L 90.481678 287.551364 
L 98.806154 275.757634 
L 107.130629 249.311229 
L 115.455105 225.845887 
L 123.77958 208.013937 
L 132.104056 193.290382 
L 140.428531 180.175071 
L 148.753007 178.586184 
L 157.077483 173.665057 
L 165.401958 165.927076 
L 173.726434 168.601496 
L 182.050909 176.407946 
L 190.375385 167.963569 
L 198.69986 170.477083 
L 207.024336 168.048257 
L 215.348811 167.123863 
L 223.673287 171.196422 
L 231.997762 163.151657 
L 240.322238 155.998527 
L 248.646713 157.892725 
L 256.971189 153.281397 
L 265.295664 150.516606 
L 273.62014 131.825914 
L 281.944615 136.687872 
L 290.269091 146.71336 
L 298.593566 124.440898 
L 306.918042 125.740974 
L 315.242517 112.736345 
L 323.566993 100.656988 
L 331.891469 101.576081 
L 340.215944 118.522873 
L 348.54042 124.10183 
L 356.864895 130.114996 
L 365.189371 113.333425 
L 373.513846 103.916906 
L 381.838322 117.939305 
L 390.162797 143.168277 
L 398.487273 161.38747 
L 398.487273 161.38747 
L 398.487273 99.320497 
L 390.162797 88.592675 
L 381.838322 77.827572 
L 373.513846 73.528707 
L 365.189371 73.589402 
L 356.864895 73.099843 
L 348.54042 75.980821 
L 340.215944 77.969541 
L 331.891469 82.03159 
L 323.566993 77.8379 
L 315.242517 80.137649 
L 306.918042 77.541872 
L 298.593566 86.261709 
L 290.269091 92.171661 
L 281.944615 92.937652 
L 273.62014 103.242092 
L 265.295664 110.26153 
L 256.971189 107.068369 
L 248.646713 116.715252 
L 240.322238 122.531537 
L 231.997762 136.751178 
L 223.673287 133.7984 
L 215.348811 131.721316 
L 207.024336 127.119938 
L 198.69986 124.767709 
L 190.375385 123.631114 
L 182.050909 112.661243 
L 173.726434 103.474884 
L 165.401958 110.610784 
L 157.077483 121.132596 
L 148.753007 119.56943 
L 140.428531 118.34343 
L 132.104056 130.18246 
L 123.77958 145.488147 
L 115.455105 162.448678 
L 107.130629 184.949314 
L 98.806154 224.932916 
L 90.481678 263.523411 
L 82.157203 276.737318 
L 73.832727 286.772551 
z
" style="fill:#2ca02c;fill-opacity:0.3;"/>
   </g>
   <g id="PolyCollection_4">
    <path clip-path="url(#p8f590b05ec)" d="M 73.832727 287.142811 
L 73.832727 287.142811 
L 82.157203 287.234041 
L 90.481678 287.316354 
L 98.806154 295.488 
L 107.130629 284.41566 
L 115.455105 275.604165 
L 123.77958 256.99307 
L 132.104056 232.322949 
L 140.428531 201.218657 
L 148.753007 195.349317 
L 157.077483 195.461391 
L 165.401958 185.574689 
L 173.726434 176.990354 
L 182.050909 159.602119 
L 190.375385 135.352146 
L 198.69986 116.488048 
L 207.024336 103.550535 
L 215.348811 94.226921 
L 223.673287 87.70039 
L 231.997762 83.131819 
L 240.322238 79.933819 
L 248.646713 77.695219 
L 256.971189 76.128199 
L 265.295664 77.675775 
L 273.62014 76.114588 
L 281.944615 75.028456 
L 290.269091 74.261465 
L 298.593566 74.074812 
L 306.918042 74.494397 
L 315.242517 73.887624 
L 323.566993 74.50772 
L 331.891469 84.688061 
L 340.215944 88.227971 
L 348.54042 83.501126 
L 356.864895 89.439605 
L 365.189371 94.716178 
L 373.513846 101.537631 
L 381.838322 99.205543 
L 390.162797 91.185426 
L 398.487273 85.571344 
L 398.487273 85.571344 
L 398.487273 68.244328 
L 390.162797 66.432546 
L 381.838322 63.844285 
L 373.513846 63.187778 
L 365.189371 65.141191 
L 356.864895 66.936086 
L 348.54042 68.966979 
L 340.215944 67.464905 
L 331.891469 68.749576 
L 323.566993 72.282652 
L 315.242517 72.670715 
L 306.918042 72.755957 
L 298.593566 72.894593 
L 290.269091 72.796416 
L 281.944615 72.935529 
L 273.62014 73.038514 
L 265.295664 73.281384 
L 256.971189 73.583063 
L 248.646713 74.05931 
L 240.322238 74.739663 
L 231.997762 75.711596 
L 223.673287 77.100072 
L 215.348811 79.083609 
L 207.024336 81.917233 
L 198.69986 85.959494 
L 190.375385 91.739926 
L 182.050909 97.425368 
L 173.726434 106.492866 
L 165.401958 119.721439 
L 157.077483 138.915245 
L 148.753007 150.649756 
L 140.428531 158.398136 
L 132.104056 176.444305 
L 123.77958 220.997959 
L 115.455105 227.145187 
L 107.130629 249.291695 
L 98.806154 250.973611 
L 90.481678 286.567075 
L 82.157203 286.889203 
L 73.832727 286.772551 
z
" style="fill:#d62728;fill-opacity:0.3;"/>
   </g>
   <g id="matplotlib.axis_1">
    <g id="xtick_1">
     <g id="line2d_1">
      <defs>
       <path d="M 0 0 
L 0 3.5 
" id="m1abeddc990" style="stroke:#000000;stroke-width:0.8;"/>
      </defs>
      <g>
       <use style="stroke:#000000;stroke-width:0.8;" x="65.508252" xlink:href="#m1abeddc990" y="307.584"/>
      </g>
     </g>
     <g id="text_1">
      <!-- 0 -->
      <g transform="translate(62.327002 322.182437)scale(0.1 -0.1)">
       <defs>
        <path d="M 2034 4250 
Q 1547 4250 1301 3770 
Q 1056 3291 1056 2328 
Q 1056 1369 1301 889 
Q 1547 409 2034 409 
Q 2525 409 2770 889 
Q 3016 1369 3016 2328 
Q 3016 3291 2770 3770 
Q 2525 4250 2034 4250 
z
M 2034 4750 
Q 2819 4750 3233 4129 
Q 3647 3509 3647 2328 
Q 3647 1150 3233 529 
Q 2819 -91 2034 -91 
Q 1250 -91 836 529 
Q 422 1150 422 2328 
Q 422 3509 836 4129 
Q 1250 4750 2034 4750 
z
" id="DejaVuSans-30" transform="scale(0.015625)"/>
       </defs>
       <use xlink:href="#DejaVuSans-30"/>
      </g>
     </g>
    </g>
    <g id="xtick_2">
     <g id="line2d_2">
      <g>
       <use style="stroke:#000000;stroke-width:0.8;" x="107.130629" xlink:href="#m1abeddc990" y="307.584"/>
      </g>
     </g>
     <g id="text_2">
      <!-- 50 -->
      <g transform="translate(100.768129 322.182437)scale(0.1 -0.1)">
       <defs>
        <path d="M 691 4666 
L 3169 4666 
L 3169 4134 
L 1269 4134 
L 1269 2991 
Q 1406 3038 1543 3061 
Q 1681 3084 1819 3084 
Q 2600 3084 3056 2656 
Q 3513 2228 3513 1497 
Q 3513 744 3044 326 
Q 2575 -91 1722 -91 
Q 1428 -91 1123 -41 
Q 819 9 494 109 
L 494 744 
Q 775 591 1075 516 
Q 1375 441 1709 441 
Q 2250 441 2565 725 
Q 2881 1009 2881 1497 
Q 2881 1984 2565 2268 
Q 2250 2553 1709 2553 
Q 1456 2553 1204 2497 
Q 953 2441 691 2322 
L 691 4666 
z
" id="DejaVuSans-35" transform="scale(0.015625)"/>
       </defs>
       <use xlink:href="#DejaVuSans-35"/>
       <use x="63.623047" xlink:href="#DejaVuSans-30"/>
      </g>
     </g>
    </g>
    <g id="xtick_3">
     <g id="line2d_3">
      <g>
       <use style="stroke:#000000;stroke-width:0.8;" x="148.753007" xlink:href="#m1abeddc990" y="307.584"/>
      </g>
     </g>
     <g id="text_3">
      <!-- 100 -->
      <g transform="translate(139.209257 322.182437)scale(0.1 -0.1)">
       <defs>
        <path d="M 794 531 
L 1825 531 
L 1825 4091 
L 703 3866 
L 703 4441 
L 1819 4666 
L 2450 4666 
L 2450 531 
L 3481 531 
L 3481 0 
L 794 0 
L 794 531 
z
" id="DejaVuSans-31" transform="scale(0.015625)"/>
       </defs>
       <use xlink:href="#DejaVuSans-31"/>
       <use x="63.623047" xlink:href="#DejaVuSans-30"/>
       <use x="127.246094" xlink:href="#DejaVuSans-30"/>
      </g>
     </g>
    </g>
    <g id="xtick_4">
     <g id="line2d_4">
      <g>
       <use style="stroke:#000000;stroke-width:0.8;" x="190.375385" xlink:href="#m1abeddc990" y="307.584"/>
      </g>
     </g>
     <g id="text_4">
      <!-- 150 -->
      <g transform="translate(180.831635 322.182437)scale(0.1 -0.1)">
       <use xlink:href="#DejaVuSans-31"/>
       <use x="63.623047" xlink:href="#DejaVuSans-35"/>
       <use x="127.246094" xlink:href="#DejaVuSans-30"/>
      </g>
     </g>
    </g>
    <g id="xtick_5">
     <g id="line2d_5">
      <g>
       <use style="stroke:#000000;stroke-width:0.8;" x="231.997762" xlink:href="#m1abeddc990" y="307.584"/>
      </g>
     </g>
     <g id="text_5">
      <!-- 200 -->
      <g transform="translate(222.454012 322.182437)scale(0.1 -0.1)">
       <defs>
        <path d="M 1228 531 
L 3431 531 
L 3431 0 
L 469 0 
L 469 531 
Q 828 903 1448 1529 
Q 2069 2156 2228 2338 
Q 2531 2678 2651 2914 
Q 2772 3150 2772 3378 
Q 2772 3750 2511 3984 
Q 2250 4219 1831 4219 
Q 1534 4219 1204 4116 
Q 875 4013 500 3803 
L 500 4441 
Q 881 4594 1212 4672 
Q 1544 4750 1819 4750 
Q 2544 4750 2975 4387 
Q 3406 4025 3406 3419 
Q 3406 3131 3298 2873 
Q 3191 2616 2906 2266 
Q 2828 2175 2409 1742 
Q 1991 1309 1228 531 
z
" id="DejaVuSans-32" transform="scale(0.015625)"/>
       </defs>
       <use xlink:href="#DejaVuSans-32"/>
       <use x="63.623047" xlink:href="#DejaVuSans-30"/>
       <use x="127.246094" xlink:href="#DejaVuSans-30"/>
      </g>
     </g>
    </g>
    <g id="xtick_6">
     <g id="line2d_6">
      <g>
       <use style="stroke:#000000;stroke-width:0.8;" x="273.62014" xlink:href="#m1abeddc990" y="307.584"/>
      </g>
     </g>
     <g id="text_6">
      <!-- 250 -->
      <g transform="translate(264.07639 322.182437)scale(0.1 -0.1)">
       <use xlink:href="#DejaVuSans-32"/>
       <use x="63.623047" xlink:href="#DejaVuSans-35"/>
       <use x="127.246094" xlink:href="#DejaVuSans-30"/>
      </g>
     </g>
    </g>
    <g id="xtick_7">
     <g id="line2d_7">
      <g>
       <use style="stroke:#000000;stroke-width:0.8;" x="315.242517" xlink:href="#m1abeddc990" y="307.584"/>
      </g>
     </g>
     <g id="text_7">
      <!-- 300 -->
      <g transform="translate(305.698767 322.182437)scale(0.1 -0.1)">
       <defs>
        <path d="M 2597 2516 
Q 3050 2419 3304 2112 
Q 3559 1806 3559 1356 
Q 3559 666 3084 287 
Q 2609 -91 1734 -91 
Q 1441 -91 1130 -33 
Q 819 25 488 141 
L 488 750 
Q 750 597 1062 519 
Q 1375 441 1716 441 
Q 2309 441 2620 675 
Q 2931 909 2931 1356 
Q 2931 1769 2642 2001 
Q 2353 2234 1838 2234 
L 1294 2234 
L 1294 2753 
L 1863 2753 
Q 2328 2753 2575 2939 
Q 2822 3125 2822 3475 
Q 2822 3834 2567 4026 
Q 2313 4219 1838 4219 
Q 1578 4219 1281 4162 
Q 984 4106 628 3988 
L 628 4550 
Q 988 4650 1302 4700 
Q 1616 4750 1894 4750 
Q 2613 4750 3031 4423 
Q 3450 4097 3450 3541 
Q 3450 3153 3228 2886 
Q 3006 2619 2597 2516 
z
" id="DejaVuSans-33" transform="scale(0.015625)"/>
       </defs>
       <use xlink:href="#DejaVuSans-33"/>
       <use x="63.623047" xlink:href="#DejaVuSans-30"/>
       <use x="127.246094" xlink:href="#DejaVuSans-30"/>
      </g>
     </g>
    </g>
    <g id="xtick_8">
     <g id="line2d_8">
      <g>
       <use style="stroke:#000000;stroke-width:0.8;" x="356.864895" xlink:href="#m1abeddc990" y="307.584"/>
      </g>
     </g>
     <g id="text_8">
      <!-- 350 -->
      <g transform="translate(347.321145 322.182437)scale(0.1 -0.1)">
       <use xlink:href="#DejaVuSans-33"/>
       <use x="63.623047" xlink:href="#DejaVuSans-35"/>
       <use x="127.246094" xlink:href="#DejaVuSans-30"/>
      </g>
     </g>
    </g>
    <g id="xtick_9">
     <g id="line2d_9">
      <g>
       <use style="stroke:#000000;stroke-width:0.8;" x="398.487273" xlink:href="#m1abeddc990" y="307.584"/>
      </g>
     </g>
     <g id="text_9">
      <!-- 400 -->
      <g transform="translate(388.943523 322.182437)scale(0.1 -0.1)">
       <defs>
        <path d="M 2419 4116 
L 825 1625 
L 2419 1625 
L 2419 4116 
z
M 2253 4666 
L 3047 4666 
L 3047 1625 
L 3713 1625 
L 3713 1100 
L 3047 1100 
L 3047 0 
L 2419 0 
L 2419 1100 
L 313 1100 
L 313 1709 
L 2253 4666 
z
" id="DejaVuSans-34" transform="scale(0.015625)"/>
       </defs>
       <use xlink:href="#DejaVuSans-34"/>
       <use x="63.623047" xlink:href="#DejaVuSans-30"/>
       <use x="127.246094" xlink:href="#DejaVuSans-30"/>
      </g>
     </g>
    </g>
   </g>
   <g id="matplotlib.axis_2">
    <g id="ytick_1">
     <g id="line2d_10">
      <defs>
       <path d="M 0 0 
L -3.5 0 
" id="m418c7a23bf" style="stroke:#000000;stroke-width:0.8;"/>
      </defs>
      <g>
       <use style="stroke:#000000;stroke-width:0.8;" x="57.6" xlink:href="#m418c7a23bf" y="298.839603"/>
      </g>
     </g>
     <g id="text_10">
      <!-- 0 -->
      <g transform="translate(44.2375 302.638822)scale(0.1 -0.1)">
       <use xlink:href="#DejaVuSans-30"/>
      </g>
     </g>
    </g>
    <g id="ytick_2">
     <g id="line2d_11">
      <g>
       <use style="stroke:#000000;stroke-width:0.8;" x="57.6" xlink:href="#m418c7a23bf" y="267.633879"/>
      </g>
     </g>
     <g id="text_11">
      <!-- 25 -->
      <g transform="translate(37.875 271.433098)scale(0.1 -0.1)">
       <use xlink:href="#DejaVuSans-32"/>
       <use x="63.623047" xlink:href="#DejaVuSans-35"/>
      </g>
     </g>
    </g>
    <g id="ytick_3">
     <g id="line2d_12">
      <g>
       <use style="stroke:#000000;stroke-width:0.8;" x="57.6" xlink:href="#m418c7a23bf" y="236.428155"/>
      </g>
     </g>
     <g id="text_12">
      <!-- 50 -->
      <g transform="translate(37.875 240.227373)scale(0.1 -0.1)">
       <use xlink:href="#DejaVuSans-35"/>
       <use x="63.623047" xlink:href="#DejaVuSans-30"/>
      </g>
     </g>
    </g>
    <g id="ytick_4">
     <g id="line2d_13">
      <g>
       <use style="stroke:#000000;stroke-width:0.8;" x="57.6" xlink:href="#m418c7a23bf" y="205.222431"/>
      </g>
     </g>
     <g id="text_13">
      <!-- 75 -->
      <g transform="translate(37.875 209.021649)scale(0.1 -0.1)">
       <defs>
        <path d="M 525 4666 
L 3525 4666 
L 3525 4397 
L 1831 0 
L 1172 0 
L 2766 4134 
L 525 4134 
L 525 4666 
z
" id="DejaVuSans-37" transform="scale(0.015625)"/>
       </defs>
       <use xlink:href="#DejaVuSans-37"/>
       <use x="63.623047" xlink:href="#DejaVuSans-35"/>
      </g>
     </g>
    </g>
    <g id="ytick_5">
     <g id="line2d_14">
      <g>
       <use style="stroke:#000000;stroke-width:0.8;" x="57.6" xlink:href="#m418c7a23bf" y="174.016707"/>
      </g>
     </g>
     <g id="text_14">
      <!-- 100 -->
      <g transform="translate(31.5125 177.815925)scale(0.1 -0.1)">
       <use xlink:href="#DejaVuSans-31"/>
       <use x="63.623047" xlink:href="#DejaVuSans-30"/>
       <use x="127.246094" xlink:href="#DejaVuSans-30"/>
      </g>
     </g>
    </g>
    <g id="ytick_6">
     <g id="line2d_15">
      <g>
       <use style="stroke:#000000;stroke-width:0.8;" x="57.6" xlink:href="#m418c7a23bf" y="142.810982"/>
      </g>
     </g>
     <g id="text_15">
      <!-- 125 -->
      <g transform="translate(31.5125 146.610201)scale(0.1 -0.1)">
       <use xlink:href="#DejaVuSans-31"/>
       <use x="63.623047" xlink:href="#DejaVuSans-32"/>
       <use x="127.246094" xlink:href="#DejaVuSans-35"/>
      </g>
     </g>
    </g>
    <g id="ytick_7">
     <g id="line2d_16">
      <g>
       <use style="stroke:#000000;stroke-width:0.8;" x="57.6" xlink:href="#m418c7a23bf" y="111.605258"/>
      </g>
     </g>
     <g id="text_16">
      <!-- 150 -->
      <g transform="translate(31.5125 115.404477)scale(0.1 -0.1)">
       <use xlink:href="#DejaVuSans-31"/>
       <use x="63.623047" xlink:href="#DejaVuSans-35"/>
       <use x="127.246094" xlink:href="#DejaVuSans-30"/>
      </g>
     </g>
    </g>
    <g id="ytick_8">
     <g id="line2d_17">
      <g>
       <use style="stroke:#000000;stroke-width:0.8;" x="57.6" xlink:href="#m418c7a23bf" y="80.399534"/>
      </g>
     </g>
     <g id="text_17">
      <!-- 175 -->
      <g transform="translate(31.5125 84.198753)scale(0.1 -0.1)">
       <use xlink:href="#DejaVuSans-31"/>
       <use x="63.623047" xlink:href="#DejaVuSans-37"/>
       <use x="127.246094" xlink:href="#DejaVuSans-35"/>
      </g>
     </g>
    </g>
    <g id="ytick_9">
     <g id="line2d_18">
      <g>
       <use style="stroke:#000000;stroke-width:0.8;" x="57.6" xlink:href="#m418c7a23bf" y="49.19381"/>
      </g>
     </g>
     <g id="text_18">
      <!-- 200 -->
      <g transform="translate(31.5125 52.993029)scale(0.1 -0.1)">
       <use xlink:href="#DejaVuSans-32"/>
       <use x="63.623047" xlink:href="#DejaVuSans-30"/>
       <use x="127.246094" xlink:href="#DejaVuSans-30"/>
      </g>
     </g>
    </g>
   </g>
   <g id="line2d_19">
    <path clip-path="url(#p8f590b05ec)" d="M 73.832727 286.957681 
L 82.157203 287.046778 
L 90.481678 283.266864 
L 98.806154 283.489385 
L 107.130629 277.677961 
L 115.455105 251.936448 
L 123.77958 224.01408 
L 132.104056 202.074442 
L 140.428531 183.498209 
L 148.753007 166.967702 
L 157.077483 160.897475 
L 165.401958 150.123229 
L 173.726434 149.724329 
L 182.050909 133.276327 
L 190.375385 126.070101 
L 198.69986 127.847548 
L 207.024336 127.934027 
L 215.348811 133.746133 
L 223.673287 123.7282 
L 231.997762 126.325259 
L 240.322238 125.111661 
L 248.646713 117.331236 
L 256.971189 115.435034 
L 265.295664 114.344803 
L 273.62014 116.427705 
L 281.944615 124.427366 
L 290.269091 121.082811 
L 298.593566 112.567439 
L 306.918042 117.212791 
L 315.242517 113.147173 
L 323.566993 108.965556 
L 331.891469 107.833849 
L 340.215944 104.141614 
L 348.54042 101.01128 
L 356.864895 103.130367 
L 365.189371 99.496181 
L 373.513846 98.521911 
L 381.838322 97.00963 
L 390.162797 96.412612 
L 398.487273 89.230374 
" style="fill:none;stroke:#1f77b4;stroke-linecap:square;stroke-width:1.5;"/>
   </g>
   <g id="line2d_20">
    <path clip-path="url(#p8f590b05ec)" d="M 73.832727 286.957681 
L 82.157203 285.394954 
L 90.481678 275.414647 
L 98.806154 255.700886 
L 107.130629 246.459398 
L 115.455105 229.156013 
L 123.77958 200.683192 
L 132.104056 177.417864 
L 140.428531 181.563449 
L 148.753007 173.89693 
L 157.077483 160.977117 
L 165.401958 160.868772 
L 173.726434 151.892565 
L 182.050909 150.609006 
L 190.375385 142.147142 
L 198.69986 146.282818 
L 207.024336 150.455409 
L 215.348811 138.20159 
L 223.673287 143.837682 
L 231.997762 153.322066 
L 240.322238 162.516572 
L 248.646713 152.017154 
L 256.971189 160.48326 
L 265.295664 171.553076 
L 273.62014 160.11575 
L 281.944615 161.952753 
L 290.269091 153.475921 
L 298.593566 145.74847 
L 306.918042 152.998103 
L 315.242517 157.348796 
L 323.566993 148.711944 
L 331.891469 150.58658 
L 340.215944 144.065037 
L 348.54042 146.437403 
L 356.864895 151.566054 
L 365.189371 137.094185 
L 373.513846 126.790904 
L 381.838322 125.633807 
L 390.162797 137.484384 
L 398.487273 137.6087 
" style="fill:none;stroke:#ff7f0e;stroke-linecap:square;stroke-width:1.5;"/>
   </g>
   <g id="line2d_21">
    <path clip-path="url(#p8f590b05ec)" d="M 73.832727 286.957681 
L 82.157203 282.727531 
L 90.481678 275.537387 
L 98.806154 250.345275 
L 107.130629 217.130271 
L 115.455105 194.147282 
L 123.77958 176.751042 
L 132.104056 161.736421 
L 140.428531 149.25925 
L 148.753007 149.077807 
L 157.077483 147.398827 
L 165.401958 138.26893 
L 173.726434 136.03819 
L 182.050909 144.534595 
L 190.375385 145.797341 
L 198.69986 147.622396 
L 207.024336 147.584098 
L 215.348811 149.422589 
L 223.673287 152.497411 
L 231.997762 149.951417 
L 240.322238 139.265032 
L 248.646713 137.303988 
L 256.971189 130.174883 
L 265.295664 130.389068 
L 273.62014 117.534003 
L 281.944615 114.812762 
L 290.269091 119.442511 
L 298.593566 105.351303 
L 306.918042 101.641423 
L 315.242517 96.436997 
L 323.566993 89.247444 
L 331.891469 91.803836 
L 340.215944 98.246207 
L 348.54042 100.041325 
L 356.864895 101.607419 
L 365.189371 93.461413 
L 373.513846 88.722807 
L 381.838322 97.883438 
L 390.162797 115.880476 
L 398.487273 130.353984 
" style="fill:none;stroke:#2ca02c;stroke-linecap:square;stroke-width:1.5;"/>
   </g>
   <g id="line2d_22">
    <path clip-path="url(#p8f590b05ec)" d="M 73.832727 286.957681 
L 82.157203 287.061622 
L 90.481678 286.941714 
L 98.806154 273.230806 
L 107.130629 266.853677 
L 115.455105 251.374676 
L 123.77958 238.995514 
L 132.104056 204.383627 
L 140.428531 179.808396 
L 148.753007 172.999536 
L 157.077483 167.188318 
L 165.401958 152.648064 
L 173.726434 141.74161 
L 182.050909 128.513743 
L 190.375385 113.546036 
L 198.69986 101.223771 
L 207.024336 92.733884 
L 215.348811 86.655265 
L 223.673287 82.400231 
L 231.997762 79.421708 
L 240.322238 77.336741 
L 248.646713 75.877265 
L 256.971189 74.855631 
L 265.295664 75.478579 
L 273.62014 74.576551 
L 281.944615 73.981992 
L 290.269091 73.52894 
L 298.593566 73.484703 
L 306.918042 73.625177 
L 315.242517 73.27917 
L 323.566993 73.395186 
L 331.891469 76.718818 
L 340.215944 77.846438 
L 348.54042 76.234053 
L 356.864895 78.187846 
L 365.189371 79.928685 
L 373.513846 82.362704 
L 381.838322 81.524914 
L 390.162797 78.808986 
L 398.487273 76.907836 
" style="fill:none;stroke:#d62728;stroke-linecap:square;stroke-width:1.5;"/>
   </g>
   <g id="patch_3">
    <path d="M 57.6 307.584 
L 57.6 41.472 
" style="fill:none;stroke:#000000;stroke-linecap:square;stroke-linejoin:miter;stroke-width:0.8;"/>
   </g>
   <g id="patch_4">
    <path d="M 414.72 307.584 
L 414.72 41.472 
" style="fill:none;stroke:#000000;stroke-linecap:square;stroke-linejoin:miter;stroke-width:0.8;"/>
   </g>
   <g id="patch_5">
    <path d="M 57.6 307.584 
L 414.72 307.584 
" style="fill:none;stroke:#000000;stroke-linecap:square;stroke-linejoin:miter;stroke-width:0.8;"/>
   </g>
   <g id="patch_6">
    <path d="M 57.6 41.472 
L 414.72 41.472 
" style="fill:none;stroke:#000000;stroke-linecap:square;stroke-linejoin:miter;stroke-width:0.8;"/>
   </g>
   <g id="legend_1">
    <g id="patch_7">
     <path d="M 275.015312 302.584 
L 407.72 302.584 
Q 409.72 302.584 409.72 300.584 
L 409.72 242.8715 
Q 409.72 240.8715 407.72 240.8715 
L 275.015312 240.8715 
Q 273.015312 240.8715 273.015312 242.8715 
L 273.015312 300.584 
Q 273.015312 302.584 275.015312 302.584 
z
" style="fill:#ffffff;opacity:0.8;stroke:#cccccc;stroke-linejoin:miter;"/>
    </g>
    <g id="line2d_23">
     <path d="M 277.015312 248.969937 
L 297.015312 248.969937 
" style="fill:none;stroke:#1f77b4;stroke-linecap:square;stroke-width:1.5;"/>
    </g>
    <g id="line2d_24"/>
    <g id="text_19">
     <!-- DQN -->
     <g transform="translate(305.015312 252.469937)scale(0.1 -0.1)">
      <defs>
       <path d="M 1259 4147 
L 1259 519 
L 2022 519 
Q 2988 519 3436 956 
Q 3884 1394 3884 2338 
Q 3884 3275 3436 3711 
Q 2988 4147 2022 4147 
L 1259 4147 
z
M 628 4666 
L 1925 4666 
Q 3281 4666 3915 4102 
Q 4550 3538 4550 2338 
Q 4550 1131 3912 565 
Q 3275 0 1925 0 
L 628 0 
L 628 4666 
z
" id="DejaVuSans-44" transform="scale(0.015625)"/>
       <path d="M 2522 4238 
Q 1834 4238 1429 3725 
Q 1025 3213 1025 2328 
Q 1025 1447 1429 934 
Q 1834 422 2522 422 
Q 3209 422 3611 934 
Q 4013 1447 4013 2328 
Q 4013 3213 3611 3725 
Q 3209 4238 2522 4238 
z
M 3406 84 
L 4238 -825 
L 3475 -825 
L 2784 -78 
Q 2681 -84 2626 -87 
Q 2572 -91 2522 -91 
Q 1538 -91 948 567 
Q 359 1225 359 2328 
Q 359 3434 948 4092 
Q 1538 4750 2522 4750 
Q 3503 4750 4090 4092 
Q 4678 3434 4678 2328 
Q 4678 1516 4351 937 
Q 4025 359 3406 84 
z
" id="DejaVuSans-51" transform="scale(0.015625)"/>
       <path d="M 628 4666 
L 1478 4666 
L 3547 763 
L 3547 4666 
L 4159 4666 
L 4159 0 
L 3309 0 
L 1241 3903 
L 1241 0 
L 628 0 
L 628 4666 
z
" id="DejaVuSans-4e" transform="scale(0.015625)"/>
      </defs>
      <use xlink:href="#DejaVuSans-44"/>
      <use x="77.001953" xlink:href="#DejaVuSans-51"/>
      <use x="155.712891" xlink:href="#DejaVuSans-4e"/>
     </g>
    </g>
    <g id="line2d_25">
     <path d="M 277.015312 263.648062 
L 297.015312 263.648062 
" style="fill:none;stroke:#ff7f0e;stroke-linecap:square;stroke-width:1.5;"/>
    </g>
    <g id="line2d_26"/>
    <g id="text_20">
     <!-- BacktrackDQN -->
     <g transform="translate(305.015312 267.148062)scale(0.1 -0.1)">
      <defs>
       <path d="M 1259 2228 
L 1259 519 
L 2272 519 
Q 2781 519 3026 730 
Q 3272 941 3272 1375 
Q 3272 1813 3026 2020 
Q 2781 2228 2272 2228 
L 1259 2228 
z
M 1259 4147 
L 1259 2741 
L 2194 2741 
Q 2656 2741 2882 2914 
Q 3109 3088 3109 3444 
Q 3109 3797 2882 3972 
Q 2656 4147 2194 4147 
L 1259 4147 
z
M 628 4666 
L 2241 4666 
Q 2963 4666 3353 4366 
Q 3744 4066 3744 3513 
Q 3744 3084 3544 2831 
Q 3344 2578 2956 2516 
Q 3422 2416 3680 2098 
Q 3938 1781 3938 1306 
Q 3938 681 3513 340 
Q 3088 0 2303 0 
L 628 0 
L 628 4666 
z
" id="DejaVuSans-42" transform="scale(0.015625)"/>
       <path d="M 2194 1759 
Q 1497 1759 1228 1600 
Q 959 1441 959 1056 
Q 959 750 1161 570 
Q 1363 391 1709 391 
Q 2188 391 2477 730 
Q 2766 1069 2766 1631 
L 2766 1759 
L 2194 1759 
z
M 3341 1997 
L 3341 0 
L 2766 0 
L 2766 531 
Q 2569 213 2275 61 
Q 1981 -91 1556 -91 
Q 1019 -91 701 211 
Q 384 513 384 1019 
Q 384 1609 779 1909 
Q 1175 2209 1959 2209 
L 2766 2209 
L 2766 2266 
Q 2766 2663 2505 2880 
Q 2244 3097 1772 3097 
Q 1472 3097 1187 3025 
Q 903 2953 641 2809 
L 641 3341 
Q 956 3463 1253 3523 
Q 1550 3584 1831 3584 
Q 2591 3584 2966 3190 
Q 3341 2797 3341 1997 
z
" id="DejaVuSans-61" transform="scale(0.015625)"/>
       <path d="M 3122 3366 
L 3122 2828 
Q 2878 2963 2633 3030 
Q 2388 3097 2138 3097 
Q 1578 3097 1268 2742 
Q 959 2388 959 1747 
Q 959 1106 1268 751 
Q 1578 397 2138 397 
Q 2388 397 2633 464 
Q 2878 531 3122 666 
L 3122 134 
Q 2881 22 2623 -34 
Q 2366 -91 2075 -91 
Q 1284 -91 818 406 
Q 353 903 353 1747 
Q 353 2603 823 3093 
Q 1294 3584 2113 3584 
Q 2378 3584 2631 3529 
Q 2884 3475 3122 3366 
z
" id="DejaVuSans-63" transform="scale(0.015625)"/>
       <path d="M 581 4863 
L 1159 4863 
L 1159 1991 
L 2875 3500 
L 3609 3500 
L 1753 1863 
L 3688 0 
L 2938 0 
L 1159 1709 
L 1159 0 
L 581 0 
L 581 4863 
z
" id="DejaVuSans-6b" transform="scale(0.015625)"/>
       <path d="M 1172 4494 
L 1172 3500 
L 2356 3500 
L 2356 3053 
L 1172 3053 
L 1172 1153 
Q 1172 725 1289 603 
Q 1406 481 1766 481 
L 2356 481 
L 2356 0 
L 1766 0 
Q 1100 0 847 248 
Q 594 497 594 1153 
L 594 3053 
L 172 3053 
L 172 3500 
L 594 3500 
L 594 4494 
L 1172 4494 
z
" id="DejaVuSans-74" transform="scale(0.015625)"/>
       <path d="M 2631 2963 
Q 2534 3019 2420 3045 
Q 2306 3072 2169 3072 
Q 1681 3072 1420 2755 
Q 1159 2438 1159 1844 
L 1159 0 
L 581 0 
L 581 3500 
L 1159 3500 
L 1159 2956 
Q 1341 3275 1631 3429 
Q 1922 3584 2338 3584 
Q 2397 3584 2469 3576 
Q 2541 3569 2628 3553 
L 2631 2963 
z
" id="DejaVuSans-72" transform="scale(0.015625)"/>
      </defs>
      <use xlink:href="#DejaVuSans-42"/>
      <use x="68.603516" xlink:href="#DejaVuSans-61"/>
      <use x="129.882812" xlink:href="#DejaVuSans-63"/>
      <use x="184.863281" xlink:href="#DejaVuSans-6b"/>
      <use x="242.773438" xlink:href="#DejaVuSans-74"/>
      <use x="281.982422" xlink:href="#DejaVuSans-72"/>
      <use x="323.095703" xlink:href="#DejaVuSans-61"/>
      <use x="384.375" xlink:href="#DejaVuSans-63"/>
      <use x="439.355469" xlink:href="#DejaVuSans-6b"/>
      <use x="497.265625" xlink:href="#DejaVuSans-44"/>
      <use x="574.267578" xlink:href="#DejaVuSans-51"/>
      <use x="652.978516" xlink:href="#DejaVuSans-4e"/>
     </g>
    </g>
    <g id="line2d_27">
     <path d="M 277.015312 278.326187 
L 297.015312 278.326187 
" style="fill:none;stroke:#2ca02c;stroke-linecap:square;stroke-width:1.5;"/>
    </g>
    <g id="line2d_28"/>
    <g id="text_21">
     <!-- MultiBatchDQN -->
     <g transform="translate(305.015312 281.826187)scale(0.1 -0.1)">
      <defs>
       <path d="M 628 4666 
L 1569 4666 
L 2759 1491 
L 3956 4666 
L 4897 4666 
L 4897 0 
L 4281 0 
L 4281 4097 
L 3078 897 
L 2444 897 
L 1241 4097 
L 1241 0 
L 628 0 
L 628 4666 
z
" id="DejaVuSans-4d" transform="scale(0.015625)"/>
       <path d="M 544 1381 
L 544 3500 
L 1119 3500 
L 1119 1403 
Q 1119 906 1312 657 
Q 1506 409 1894 409 
Q 2359 409 2629 706 
Q 2900 1003 2900 1516 
L 2900 3500 
L 3475 3500 
L 3475 0 
L 2900 0 
L 2900 538 
Q 2691 219 2414 64 
Q 2138 -91 1772 -91 
Q 1169 -91 856 284 
Q 544 659 544 1381 
z
M 1991 3584 
L 1991 3584 
z
" id="DejaVuSans-75" transform="scale(0.015625)"/>
       <path d="M 603 4863 
L 1178 4863 
L 1178 0 
L 603 0 
L 603 4863 
z
" id="DejaVuSans-6c" transform="scale(0.015625)"/>
       <path d="M 603 3500 
L 1178 3500 
L 1178 0 
L 603 0 
L 603 3500 
z
M 603 4863 
L 1178 4863 
L 1178 4134 
L 603 4134 
L 603 4863 
z
" id="DejaVuSans-69" transform="scale(0.015625)"/>
       <path d="M 3513 2113 
L 3513 0 
L 2938 0 
L 2938 2094 
Q 2938 2591 2744 2837 
Q 2550 3084 2163 3084 
Q 1697 3084 1428 2787 
Q 1159 2491 1159 1978 
L 1159 0 
L 581 0 
L 581 4863 
L 1159 4863 
L 1159 2956 
Q 1366 3272 1645 3428 
Q 1925 3584 2291 3584 
Q 2894 3584 3203 3211 
Q 3513 2838 3513 2113 
z
" id="DejaVuSans-68" transform="scale(0.015625)"/>
      </defs>
      <use xlink:href="#DejaVuSans-4d"/>
      <use x="86.279297" xlink:href="#DejaVuSans-75"/>
      <use x="149.658203" xlink:href="#DejaVuSans-6c"/>
      <use x="177.441406" xlink:href="#DejaVuSans-74"/>
      <use x="216.650391" xlink:href="#DejaVuSans-69"/>
      <use x="244.433594" xlink:href="#DejaVuSans-42"/>
      <use x="313.037109" xlink:href="#DejaVuSans-61"/>
      <use x="374.316406" xlink:href="#DejaVuSans-74"/>
      <use x="413.525391" xlink:href="#DejaVuSans-63"/>
      <use x="468.505859" xlink:href="#DejaVuSans-68"/>
      <use x="531.884766" xlink:href="#DejaVuSans-44"/>
      <use x="608.886719" xlink:href="#DejaVuSans-51"/>
      <use x="687.597656" xlink:href="#DejaVuSans-4e"/>
     </g>
    </g>
    <g id="line2d_29">
     <path d="M 277.015312 293.004312 
L 297.015312 293.004312 
" style="fill:none;stroke:#d62728;stroke-linecap:square;stroke-width:1.5;"/>
    </g>
    <g id="line2d_30"/>
    <g id="text_22">
     <!-- BacktrackSarsaDQN -->
     <g transform="translate(305.015312 296.504312)scale(0.1 -0.1)">
      <defs>
       <path d="M 3425 4513 
L 3425 3897 
Q 3066 4069 2747 4153 
Q 2428 4238 2131 4238 
Q 1616 4238 1336 4038 
Q 1056 3838 1056 3469 
Q 1056 3159 1242 3001 
Q 1428 2844 1947 2747 
L 2328 2669 
Q 3034 2534 3370 2195 
Q 3706 1856 3706 1288 
Q 3706 609 3251 259 
Q 2797 -91 1919 -91 
Q 1588 -91 1214 -16 
Q 841 59 441 206 
L 441 856 
Q 825 641 1194 531 
Q 1563 422 1919 422 
Q 2459 422 2753 634 
Q 3047 847 3047 1241 
Q 3047 1584 2836 1778 
Q 2625 1972 2144 2069 
L 1759 2144 
Q 1053 2284 737 2584 
Q 422 2884 422 3419 
Q 422 4038 858 4394 
Q 1294 4750 2059 4750 
Q 2388 4750 2728 4690 
Q 3069 4631 3425 4513 
z
" id="DejaVuSans-53" transform="scale(0.015625)"/>
       <path d="M 2834 3397 
L 2834 2853 
Q 2591 2978 2328 3040 
Q 2066 3103 1784 3103 
Q 1356 3103 1142 2972 
Q 928 2841 928 2578 
Q 928 2378 1081 2264 
Q 1234 2150 1697 2047 
L 1894 2003 
Q 2506 1872 2764 1633 
Q 3022 1394 3022 966 
Q 3022 478 2636 193 
Q 2250 -91 1575 -91 
Q 1294 -91 989 -36 
Q 684 19 347 128 
L 347 722 
Q 666 556 975 473 
Q 1284 391 1588 391 
Q 1994 391 2212 530 
Q 2431 669 2431 922 
Q 2431 1156 2273 1281 
Q 2116 1406 1581 1522 
L 1381 1569 
Q 847 1681 609 1914 
Q 372 2147 372 2553 
Q 372 3047 722 3315 
Q 1072 3584 1716 3584 
Q 2034 3584 2315 3537 
Q 2597 3491 2834 3397 
z
" id="DejaVuSans-73" transform="scale(0.015625)"/>
      </defs>
      <use xlink:href="#DejaVuSans-42"/>
      <use x="68.603516" xlink:href="#DejaVuSans-61"/>
      <use x="129.882812" xlink:href="#DejaVuSans-63"/>
      <use x="184.863281" xlink:href="#DejaVuSans-6b"/>
      <use x="242.773438" xlink:href="#DejaVuSans-74"/>
      <use x="281.982422" xlink:href="#DejaVuSans-72"/>
      <use x="323.095703" xlink:href="#DejaVuSans-61"/>
      <use x="384.375" xlink:href="#DejaVuSans-63"/>
      <use x="439.355469" xlink:href="#DejaVuSans-6b"/>
      <use x="497.265625" xlink:href="#DejaVuSans-53"/>
      <use x="560.742188" xlink:href="#DejaVuSans-61"/>
      <use x="622.021484" xlink:href="#DejaVuSans-72"/>
      <use x="663.134766" xlink:href="#DejaVuSans-73"/>
      <use x="715.234375" xlink:href="#DejaVuSans-61"/>
      <use x="776.513672" xlink:href="#DejaVuSans-44"/>
      <use x="853.515625" xlink:href="#DejaVuSans-51"/>
      <use x="932.226562" xlink:href="#DejaVuSans-4e"/>
     </g>
    </g>
   </g>
  </g>
 </g>
 <defs>
  <clipPath id="p8f590b05ec">
   <rect height="266.112" width="357.12" x="57.6" y="41.472"/>
  </clipPath>
 </defs>
</svg>
