<?xml version="1.0" encoding="utf-8" standalone="no"?>
<!DOCTYPE svg PUBLIC "-//W3C//DTD SVG 1.1//EN"
  "http://www.w3.org/Graphics/SVG/1.1/DTD/svg11.dtd">
<svg height="345.6pt" version="1.1" viewBox="0 0 460.8 345.6" width="460.8pt" xmlns="http://www.w3.org/2000/svg" xmlns:xlink="http://www.w3.org/1999/xlink">
 <metadata>
  <rdf:RDF xmlns:cc="http://creativecommons.org/ns#" xmlns:dc="http://purl.org/dc/elements/1.1/" xmlns:rdf="http://www.w3.org/1999/02/22-rdf-syntax-ns#">
   <cc:Work>
    <dc:type rdf:resource="http://purl.org/dc/dcmitype/StillImage"/>
    <dc:date>2022-01-03T14:52:37.450978</dc:date>
    <dc:format>image/svg+xml</dc:format>
    <dc:creator>
     <cc:Agent>
      <dc:title>Matplotlib v3.4.2, https://matplotlib.org/</dc:title>
     </cc:Agent>
    </dc:creator>
   </cc:Work>
  </rdf:RDF>
 </metadata>
 <defs>
  <style type="text/css">*{stroke-linecap:butt;stroke-linejoin:round;}</style>
 </defs>
 <g id="figure_1">
  <g id="patch_1">
   <path d="M 0 345.6 
L 460.8 345.6 
L 460.8 0 
L 0 0 
z
" style="fill:#ffffff;"/>
  </g>
  <g id="axes_1">
   <g id="patch_2">
    <path d="M 57.6 307.584 
L 414.72 307.584 
L 414.72 41.472 
L 57.6 41.472 
z
" style="fill:#ffffff;"/>
   </g>
   <g id="PolyCollection_1">
    <path clip-path="url(#pfd418eef64)" d="M 73.832727 235.008 
L 73.832727 235.008 
L 77.942278 235.008 
L 82.05183 235.008 
L 86.161381 235.008 
L 90.270932 235.008 
L 94.380483 235.008 
L 98.490035 235.008 
L 102.599586 235.008 
L 106.709137 235.008 
L 110.818688 235.008 
L 114.928239 235.008 
L 119.037791 235.008 
L 123.147342 235.008 
L 127.256893 235.008 
L 131.366444 235.008 
L 135.475995 235.008 
L 139.585547 235.008 
L 143.695098 235.008 
L 147.804649 235.008 
L 151.9142 235.008 
L 156.023751 235.008 
L 160.133303 235.008 
L 164.242854 235.008 
L 168.352405 235.008 
L 172.461956 235.008 
L 176.571507 235.008 
L 180.681059 235.008 
L 184.79061 235.008 
L 188.900161 235.008 
L 193.009712 235.008 
L 197.119264 235.008 
L 201.228815 235.008 
L 205.338366 235.008 
L 209.447917 235.008 
L 213.557468 235.008 
L 217.66702 235.008 
L 221.776571 235.008 
L 225.886122 235.008 
L 229.995673 235.008 
L 234.105224 235.008 
L 238.214776 235.008 
L 242.324327 235.008 
L 246.433878 235.008 
L 250.543429 235.008 
L 254.65298 235.008 
L 258.762532 235.008 
L 262.872083 235.008 
L 266.981634 235.008 
L 271.091185 235.008 
L 275.200736 235.008 
L 279.310288 235.008 
L 283.419839 235.008 
L 287.52939 235.008 
L 291.638941 235.008 
L 295.748493 235.008 
L 299.858044 235.008 
L 303.967595 235.008 
L 308.077146 235.008 
L 312.186697 235.008 
L 316.296249 235.008 
L 320.4058 235.008 
L 324.515351 235.008 
L 328.624902 235.008 
L 332.734453 235.008 
L 336.844005 235.008 
L 340.953556 235.008 
L 345.063107 235.008 
L 349.172658 235.008 
L 353.282209 235.008 
L 357.391761 235.008 
L 361.501312 235.008 
L 365.610863 235.008 
L 369.720414 235.008 
L 373.829965 235.008 
L 377.939517 235.008 
L 382.049068 235.008 
L 386.158619 235.008 
L 390.26817 235.008 
L 394.377722 235.008 
L 398.487273 235.008 
L 398.487273 235.008 
L 398.487273 235.008 
L 394.377722 235.008 
L 390.26817 235.008 
L 386.158619 235.008 
L 382.049068 235.008 
L 377.939517 235.008 
L 373.829965 235.008 
L 369.720414 235.008 
L 365.610863 235.008 
L 361.501312 235.008 
L 357.391761 235.008 
L 353.282209 235.008 
L 349.172658 235.008 
L 345.063107 235.008 
L 340.953556 235.008 
L 336.844005 235.008 
L 332.734453 235.008 
L 328.624902 235.008 
L 324.515351 235.008 
L 320.4058 235.008 
L 316.296249 235.008 
L 312.186697 235.008 
L 308.077146 235.008 
L 303.967595 235.008 
L 299.858044 235.008 
L 295.748493 235.008 
L 291.638941 235.008 
L 287.52939 235.008 
L 283.419839 235.008 
L 279.310288 235.008 
L 275.200736 235.008 
L 271.091185 235.008 
L 266.981634 235.008 
L 262.872083 235.008 
L 258.762532 235.008 
L 254.65298 235.008 
L 250.543429 235.008 
L 246.433878 235.008 
L 242.324327 235.008 
L 238.214776 235.008 
L 234.105224 235.008 
L 229.995673 235.008 
L 225.886122 235.008 
L 221.776571 235.008 
L 217.66702 235.008 
L 213.557468 235.008 
L 209.447917 235.008 
L 205.338366 235.008 
L 201.228815 235.008 
L 197.119264 235.008 
L 193.009712 235.008 
L 188.900161 235.008 
L 184.79061 235.008 
L 180.681059 235.008 
L 176.571507 235.008 
L 172.461956 235.008 
L 168.352405 235.008 
L 164.242854 235.008 
L 160.133303 235.008 
L 156.023751 235.008 
L 151.9142 235.008 
L 147.804649 235.008 
L 143.695098 235.008 
L 139.585547 235.008 
L 135.475995 235.008 
L 131.366444 235.008 
L 127.256893 235.008 
L 123.147342 235.008 
L 119.037791 235.008 
L 114.928239 235.008 
L 110.818688 235.008 
L 106.709137 235.008 
L 102.599586 235.008 
L 98.490035 235.008 
L 94.380483 235.008 
L 90.270932 235.008 
L 86.161381 235.008 
L 82.05183 235.008 
L 77.942278 235.008 
L 73.832727 235.008 
z
" style="fill:#1f77b4;fill-opacity:0.3;"/>
   </g>
   <g id="PolyCollection_2">
    <path clip-path="url(#pfd418eef64)" d="M 73.832727 235.008 
L 73.832727 235.008 
L 77.942278 235.008 
L 82.05183 235.008 
L 86.161381 235.008 
L 90.270932 235.008 
L 94.380483 235.008 
L 98.490035 235.008 
L 102.599586 235.008 
L 106.709137 235.008 
L 110.818688 235.008 
L 114.928239 235.008 
L 119.037791 235.008 
L 123.147342 235.008 
L 127.256893 235.008 
L 131.366444 235.008 
L 135.475995 235.008 
L 139.585547 235.008 
L 143.695098 235.008 
L 147.804649 235.008 
L 151.9142 235.008 
L 156.023751 235.008 
L 160.133303 235.008 
L 164.242854 235.008 
L 168.352405 235.008 
L 172.461956 235.008 
L 176.571507 235.008 
L 180.681059 235.008 
L 184.79061 235.008 
L 188.900161 235.008 
L 193.009712 235.008 
L 197.119264 235.008 
L 201.228815 235.008 
L 205.338366 235.008 
L 209.447917 235.008 
L 213.557468 235.008 
L 217.66702 235.008 
L 221.776571 235.008 
L 225.886122 235.008 
L 229.995673 235.008 
L 234.105224 235.008 
L 238.214776 235.008 
L 242.324327 235.008 
L 246.433878 235.008 
L 250.543429 235.008 
L 254.65298 235.008 
L 258.762532 235.008 
L 262.872083 235.008 
L 266.981634 235.008 
L 271.091185 235.008 
L 275.200736 235.008 
L 279.310288 235.008 
L 283.419839 235.008 
L 287.52939 235.008 
L 291.638941 235.008 
L 295.748493 235.008 
L 299.858044 235.008 
L 303.967595 235.008 
L 308.077146 235.008 
L 312.186697 235.008 
L 316.296249 235.008 
L 320.4058 235.008 
L 324.515351 235.008 
L 328.624902 235.008 
L 332.734453 235.008 
L 336.844005 235.008 
L 340.953556 235.008 
L 345.063107 235.008 
L 349.172658 235.008 
L 353.282209 235.008 
L 357.391761 235.008 
L 361.501312 235.008 
L 365.610863 235.008 
L 369.720414 235.008 
L 373.829965 235.008 
L 377.939517 235.008 
L 382.049068 235.008 
L 386.158619 235.008 
L 390.26817 235.008 
L 394.377722 235.008 
L 398.487273 235.008 
L 398.487273 235.008 
L 398.487273 235.008 
L 394.377722 235.008 
L 390.26817 235.008 
L 386.158619 235.008 
L 382.049068 235.008 
L 377.939517 235.008 
L 373.829965 235.008 
L 369.720414 235.008 
L 365.610863 235.008 
L 361.501312 235.008 
L 357.391761 235.008 
L 353.282209 235.008 
L 349.172658 235.008 
L 345.063107 235.008 
L 340.953556 235.008 
L 336.844005 235.008 
L 332.734453 235.008 
L 328.624902 235.008 
L 324.515351 235.008 
L 320.4058 235.008 
L 316.296249 235.008 
L 312.186697 235.008 
L 308.077146 235.008 
L 303.967595 235.008 
L 299.858044 235.008 
L 295.748493 235.008 
L 291.638941 235.008 
L 287.52939 235.008 
L 283.419839 235.008 
L 279.310288 235.008 
L 275.200736 235.008 
L 271.091185 235.008 
L 266.981634 235.008 
L 262.872083 235.008 
L 258.762532 235.008 
L 254.65298 235.008 
L 250.543429 235.008 
L 246.433878 235.008 
L 242.324327 235.008 
L 238.214776 235.008 
L 234.105224 235.008 
L 229.995673 235.008 
L 225.886122 235.008 
L 221.776571 235.008 
L 217.66702 235.008 
L 213.557468 235.008 
L 209.447917 235.008 
L 205.338366 235.008 
L 201.228815 235.008 
L 197.119264 235.008 
L 193.009712 235.008 
L 188.900161 235.008 
L 184.79061 235.008 
L 180.681059 235.008 
L 176.571507 235.008 
L 172.461956 235.008 
L 168.352405 235.008 
L 164.242854 235.008 
L 160.133303 235.008 
L 156.023751 235.008 
L 151.9142 235.008 
L 147.804649 235.008 
L 143.695098 235.008 
L 139.585547 235.008 
L 135.475995 235.008 
L 131.366444 235.008 
L 127.256893 235.008 
L 123.147342 235.008 
L 119.037791 235.008 
L 114.928239 235.008 
L 110.818688 235.008 
L 106.709137 235.008 
L 102.599586 235.008 
L 98.490035 235.008 
L 94.380483 235.008 
L 90.270932 235.008 
L 86.161381 235.008 
L 82.05183 235.008 
L 77.942278 235.008 
L 73.832727 235.008 
z
" style="fill:#ff7f0e;fill-opacity:0.3;"/>
   </g>
   <g id="PolyCollection_3">
    <path clip-path="url(#pfd418eef64)" d="M 73.832727 235.008 
L 73.832727 235.008 
L 77.942278 235.008 
L 82.05183 235.008 
L 86.161381 235.008 
L 90.270932 235.008 
L 94.380483 235.008 
L 98.490035 235.008 
L 102.599586 235.008 
L 106.709137 235.008 
L 110.818688 235.008 
L 114.928239 235.008 
L 119.037791 235.008 
L 123.147342 235.008 
L 127.256893 235.008 
L 131.366444 235.008 
L 135.475995 235.008 
L 139.585547 235.008 
L 143.695098 235.008 
L 147.804649 235.008 
L 151.9142 235.008 
L 156.023751 235.008 
L 160.133303 235.008 
L 164.242854 235.008 
L 168.352405 235.008 
L 172.461956 235.008 
L 176.571507 235.008 
L 180.681059 235.008 
L 184.79061 235.008 
L 188.900161 235.008 
L 193.009712 235.008 
L 197.119264 235.008 
L 201.228815 235.008 
L 205.338366 235.008 
L 209.447917 235.008 
L 213.557468 235.008 
L 217.66702 235.008 
L 221.776571 235.008 
L 225.886122 235.008 
L 229.995673 235.008 
L 234.105224 235.008 
L 238.214776 235.008 
L 242.324327 235.008 
L 246.433878 235.008 
L 250.543429 235.008 
L 254.65298 235.008 
L 258.762532 235.008 
L 262.872083 235.008 
L 266.981634 235.008 
L 271.091185 235.008 
L 275.200736 235.008 
L 279.310288 235.008 
L 283.419839 235.008 
L 287.52939 235.008 
L 291.638941 235.008 
L 295.748493 235.008 
L 299.858044 235.008 
L 303.967595 235.008 
L 308.077146 235.008 
L 312.186697 235.008 
L 316.296249 235.008 
L 320.4058 235.008 
L 324.515351 235.008 
L 328.624902 235.008 
L 332.734453 235.008 
L 336.844005 235.008 
L 340.953556 235.008 
L 345.063107 235.008 
L 349.172658 235.008 
L 353.282209 235.008 
L 357.391761 235.008 
L 361.501312 235.008 
L 365.610863 235.008 
L 369.720414 235.008 
L 373.829965 235.008 
L 377.939517 235.008 
L 382.049068 235.008 
L 386.158619 235.008 
L 390.26817 235.008 
L 394.377722 235.008 
L 398.487273 235.008 
L 398.487273 235.008 
L 398.487273 235.008 
L 394.377722 235.008 
L 390.26817 235.008 
L 386.158619 235.008 
L 382.049068 235.008 
L 377.939517 235.008 
L 373.829965 235.008 
L 369.720414 235.008 
L 365.610863 235.008 
L 361.501312 235.008 
L 357.391761 235.008 
L 353.282209 235.008 
L 349.172658 235.008 
L 345.063107 235.008 
L 340.953556 235.008 
L 336.844005 235.008 
L 332.734453 235.008 
L 328.624902 235.008 
L 324.515351 235.008 
L 320.4058 235.008 
L 316.296249 235.008 
L 312.186697 235.008 
L 308.077146 235.008 
L 303.967595 235.008 
L 299.858044 235.008 
L 295.748493 235.008 
L 291.638941 235.008 
L 287.52939 235.008 
L 283.419839 235.008 
L 279.310288 235.008 
L 275.200736 235.008 
L 271.091185 235.008 
L 266.981634 235.008 
L 262.872083 235.008 
L 258.762532 235.008 
L 254.65298 235.008 
L 250.543429 235.008 
L 246.433878 235.008 
L 242.324327 235.008 
L 238.214776 235.008 
L 234.105224 235.008 
L 229.995673 235.008 
L 225.886122 235.008 
L 221.776571 235.008 
L 217.66702 235.008 
L 213.557468 235.008 
L 209.447917 235.008 
L 205.338366 235.008 
L 201.228815 235.008 
L 197.119264 235.008 
L 193.009712 235.008 
L 188.900161 235.008 
L 184.79061 235.008 
L 180.681059 235.008 
L 176.571507 235.008 
L 172.461956 235.008 
L 168.352405 235.008 
L 164.242854 235.008 
L 160.133303 235.008 
L 156.023751 235.008 
L 151.9142 235.008 
L 147.804649 235.008 
L 143.695098 235.008 
L 139.585547 235.008 
L 135.475995 235.008 
L 131.366444 235.008 
L 127.256893 235.008 
L 123.147342 235.008 
L 119.037791 235.008 
L 114.928239 235.008 
L 110.818688 235.008 
L 106.709137 235.008 
L 102.599586 235.008 
L 98.490035 235.008 
L 94.380483 235.008 
L 90.270932 235.008 
L 86.161381 235.008 
L 82.05183 235.008 
L 77.942278 235.008 
L 73.832727 235.008 
z
" style="fill:#2ca02c;fill-opacity:0.3;"/>
   </g>
   <g id="PolyCollection_4">
    <path clip-path="url(#pfd418eef64)" d="M 73.832727 235.008 
L 73.832727 235.008 
L 77.942278 235.008 
L 82.05183 235.008 
L 86.161381 235.008 
L 90.270932 235.008 
L 94.380483 235.008 
L 98.490035 235.008 
L 102.599586 235.008 
L 106.709137 235.008 
L 110.818688 235.008 
L 114.928239 235.008 
L 119.037791 235.008 
L 123.147342 235.008 
L 127.256893 235.008 
L 131.366444 235.008 
L 135.475995 235.008 
L 139.585547 235.008 
L 143.695098 235.008 
L 147.804649 235.008 
L 151.9142 235.008 
L 156.023751 235.008 
L 160.133303 235.008 
L 164.242854 235.008 
L 168.352405 235.008 
L 172.461956 235.008 
L 176.571507 235.008 
L 180.681059 235.008 
L 184.79061 235.008 
L 188.900161 235.008 
L 193.009712 235.008 
L 197.119264 235.008 
L 201.228815 235.008 
L 205.338366 235.008 
L 209.447917 235.008 
L 213.557468 235.008 
L 217.66702 235.008 
L 221.776571 235.008 
L 225.886122 235.008 
L 229.995673 235.008 
L 234.105224 235.008 
L 238.214776 235.008 
L 242.324327 235.008 
L 246.433878 235.008 
L 250.543429 235.008 
L 254.65298 235.008 
L 258.762532 235.008 
L 262.872083 235.008 
L 266.981634 235.008 
L 271.091185 235.008 
L 275.200736 235.008 
L 279.310288 235.008 
L 283.419839 235.008 
L 287.52939 235.008 
L 291.638941 235.008 
L 295.748493 235.008 
L 299.858044 235.008 
L 303.967595 235.008 
L 308.077146 235.008 
L 312.186697 235.008 
L 316.296249 235.008 
L 320.4058 235.008 
L 324.515351 266.318364 
L 328.624902 260.81448 
L 332.734453 253.072536 
L 336.844005 254.468791 
L 340.953556 269.138048 
L 345.063107 281.774402 
L 349.172658 295.488 
L 353.282209 294.983777 
L 357.391761 276.991044 
L 361.501312 271.390074 
L 365.610863 270.43073 
L 369.720414 267.033721 
L 373.829965 276.001452 
L 377.939517 263.703416 
L 382.049068 274.644761 
L 386.158619 262.753733 
L 390.26817 246.334321 
L 394.377722 271.316739 
L 398.487273 260.424117 
L 398.487273 260.424117 
L 398.487273 142.04842 
L 394.377722 102.208599 
L 390.26817 170.560973 
L 386.158619 151.770802 
L 382.049068 116.097717 
L 377.939517 148.921751 
L 373.829965 112.027644 
L 369.720414 138.930837 
L 365.610863 128.73981 
L 361.501312 125.861779 
L 357.391761 109.058868 
L 353.282209 55.080669 
L 349.172658 53.568 
L 345.063107 94.708793 
L 340.953556 132.617857 
L 336.844005 176.625628 
L 332.734453 180.814391 
L 328.624902 157.588559 
L 324.515351 141.076907 
L 320.4058 235.008 
L 316.296249 235.008 
L 312.186697 235.008 
L 308.077146 235.008 
L 303.967595 235.008 
L 299.858044 235.008 
L 295.748493 235.008 
L 291.638941 235.008 
L 287.52939 235.008 
L 283.419839 235.008 
L 279.310288 235.008 
L 275.200736 235.008 
L 271.091185 235.008 
L 266.981634 235.008 
L 262.872083 235.008 
L 258.762532 235.008 
L 254.65298 235.008 
L 250.543429 235.008 
L 246.433878 235.008 
L 242.324327 235.008 
L 238.214776 235.008 
L 234.105224 235.008 
L 229.995673 235.008 
L 225.886122 235.008 
L 221.776571 235.008 
L 217.66702 235.008 
L 213.557468 235.008 
L 209.447917 235.008 
L 205.338366 235.008 
L 201.228815 235.008 
L 197.119264 235.008 
L 193.009712 235.008 
L 188.900161 235.008 
L 184.79061 235.008 
L 180.681059 235.008 
L 176.571507 235.008 
L 172.461956 235.008 
L 168.352405 235.008 
L 164.242854 235.008 
L 160.133303 235.008 
L 156.023751 235.008 
L 151.9142 235.008 
L 147.804649 235.008 
L 143.695098 235.008 
L 139.585547 235.008 
L 135.475995 235.008 
L 131.366444 235.008 
L 127.256893 235.008 
L 123.147342 235.008 
L 119.037791 235.008 
L 114.928239 235.008 
L 110.818688 235.008 
L 106.709137 235.008 
L 102.599586 235.008 
L 98.490035 235.008 
L 94.380483 235.008 
L 90.270932 235.008 
L 86.161381 235.008 
L 82.05183 235.008 
L 77.942278 235.008 
L 73.832727 235.008 
z
" style="fill:#d62728;fill-opacity:0.3;"/>
   </g>
   <g id="matplotlib.axis_1">
    <g id="xtick_1">
     <g id="line2d_1">
      <defs>
       <path d="M 0 0 
L 0 3.5 
" id="m0667836c47" style="stroke:#000000;stroke-width:0.8;"/>
      </defs>
      <g>
       <use style="stroke:#000000;stroke-width:0.8;" x="69.723176" xlink:href="#m0667836c47" y="307.584"/>
      </g>
     </g>
     <g id="text_1">
      <!-- 0 -->
      <g transform="translate(66.541926 322.182437)scale(0.1 -0.1)">
       <defs>
        <path d="M 2034 4250 
Q 1547 4250 1301 3770 
Q 1056 3291 1056 2328 
Q 1056 1369 1301 889 
Q 1547 409 2034 409 
Q 2525 409 2770 889 
Q 3016 1369 3016 2328 
Q 3016 3291 2770 3770 
Q 2525 4250 2034 4250 
z
M 2034 4750 
Q 2819 4750 3233 4129 
Q 3647 3509 3647 2328 
Q 3647 1150 3233 529 
Q 2819 -91 2034 -91 
Q 1250 -91 836 529 
Q 422 1150 422 2328 
Q 422 3509 836 4129 
Q 1250 4750 2034 4750 
z
" id="DejaVuSans-30" transform="scale(0.015625)"/>
       </defs>
       <use xlink:href="#DejaVuSans-30"/>
      </g>
     </g>
    </g>
    <g id="xtick_2">
     <g id="line2d_2">
      <g>
       <use style="stroke:#000000;stroke-width:0.8;" x="110.818688" xlink:href="#m0667836c47" y="307.584"/>
      </g>
     </g>
     <g id="text_2">
      <!-- 100 -->
      <g transform="translate(101.274938 322.182437)scale(0.1 -0.1)">
       <defs>
        <path d="M 794 531 
L 1825 531 
L 1825 4091 
L 703 3866 
L 703 4441 
L 1819 4666 
L 2450 4666 
L 2450 531 
L 3481 531 
L 3481 0 
L 794 0 
L 794 531 
z
" id="DejaVuSans-31" transform="scale(0.015625)"/>
       </defs>
       <use xlink:href="#DejaVuSans-31"/>
       <use x="63.623047" xlink:href="#DejaVuSans-30"/>
       <use x="127.246094" xlink:href="#DejaVuSans-30"/>
      </g>
     </g>
    </g>
    <g id="xtick_3">
     <g id="line2d_3">
      <g>
       <use style="stroke:#000000;stroke-width:0.8;" x="151.9142" xlink:href="#m0667836c47" y="307.584"/>
      </g>
     </g>
     <g id="text_3">
      <!-- 200 -->
      <g transform="translate(142.37045 322.182437)scale(0.1 -0.1)">
       <defs>
        <path d="M 1228 531 
L 3431 531 
L 3431 0 
L 469 0 
L 469 531 
Q 828 903 1448 1529 
Q 2069 2156 2228 2338 
Q 2531 2678 2651 2914 
Q 2772 3150 2772 3378 
Q 2772 3750 2511 3984 
Q 2250 4219 1831 4219 
Q 1534 4219 1204 4116 
Q 875 4013 500 3803 
L 500 4441 
Q 881 4594 1212 4672 
Q 1544 4750 1819 4750 
Q 2544 4750 2975 4387 
Q 3406 4025 3406 3419 
Q 3406 3131 3298 2873 
Q 3191 2616 2906 2266 
Q 2828 2175 2409 1742 
Q 1991 1309 1228 531 
z
" id="DejaVuSans-32" transform="scale(0.015625)"/>
       </defs>
       <use xlink:href="#DejaVuSans-32"/>
       <use x="63.623047" xlink:href="#DejaVuSans-30"/>
       <use x="127.246094" xlink:href="#DejaVuSans-30"/>
      </g>
     </g>
    </g>
    <g id="xtick_4">
     <g id="line2d_4">
      <g>
       <use style="stroke:#000000;stroke-width:0.8;" x="193.009712" xlink:href="#m0667836c47" y="307.584"/>
      </g>
     </g>
     <g id="text_4">
      <!-- 300 -->
      <g transform="translate(183.465962 322.182437)scale(0.1 -0.1)">
       <defs>
        <path d="M 2597 2516 
Q 3050 2419 3304 2112 
Q 3559 1806 3559 1356 
Q 3559 666 3084 287 
Q 2609 -91 1734 -91 
Q 1441 -91 1130 -33 
Q 819 25 488 141 
L 488 750 
Q 750 597 1062 519 
Q 1375 441 1716 441 
Q 2309 441 2620 675 
Q 2931 909 2931 1356 
Q 2931 1769 2642 2001 
Q 2353 2234 1838 2234 
L 1294 2234 
L 1294 2753 
L 1863 2753 
Q 2328 2753 2575 2939 
Q 2822 3125 2822 3475 
Q 2822 3834 2567 4026 
Q 2313 4219 1838 4219 
Q 1578 4219 1281 4162 
Q 984 4106 628 3988 
L 628 4550 
Q 988 4650 1302 4700 
Q 1616 4750 1894 4750 
Q 2613 4750 3031 4423 
Q 3450 4097 3450 3541 
Q 3450 3153 3228 2886 
Q 3006 2619 2597 2516 
z
" id="DejaVuSans-33" transform="scale(0.015625)"/>
       </defs>
       <use xlink:href="#DejaVuSans-33"/>
       <use x="63.623047" xlink:href="#DejaVuSans-30"/>
       <use x="127.246094" xlink:href="#DejaVuSans-30"/>
      </g>
     </g>
    </g>
    <g id="xtick_5">
     <g id="line2d_5">
      <g>
       <use style="stroke:#000000;stroke-width:0.8;" x="234.105224" xlink:href="#m0667836c47" y="307.584"/>
      </g>
     </g>
     <g id="text_5">
      <!-- 400 -->
      <g transform="translate(224.561474 322.182437)scale(0.1 -0.1)">
       <defs>
        <path d="M 2419 4116 
L 825 1625 
L 2419 1625 
L 2419 4116 
z
M 2253 4666 
L 3047 4666 
L 3047 1625 
L 3713 1625 
L 3713 1100 
L 3047 1100 
L 3047 0 
L 2419 0 
L 2419 1100 
L 313 1100 
L 313 1709 
L 2253 4666 
z
" id="DejaVuSans-34" transform="scale(0.015625)"/>
       </defs>
       <use xlink:href="#DejaVuSans-34"/>
       <use x="63.623047" xlink:href="#DejaVuSans-30"/>
       <use x="127.246094" xlink:href="#DejaVuSans-30"/>
      </g>
     </g>
    </g>
    <g id="xtick_6">
     <g id="line2d_6">
      <g>
       <use style="stroke:#000000;stroke-width:0.8;" x="275.200736" xlink:href="#m0667836c47" y="307.584"/>
      </g>
     </g>
     <g id="text_6">
      <!-- 500 -->
      <g transform="translate(265.656986 322.182437)scale(0.1 -0.1)">
       <defs>
        <path d="M 691 4666 
L 3169 4666 
L 3169 4134 
L 1269 4134 
L 1269 2991 
Q 1406 3038 1543 3061 
Q 1681 3084 1819 3084 
Q 2600 3084 3056 2656 
Q 3513 2228 3513 1497 
Q 3513 744 3044 326 
Q 2575 -91 1722 -91 
Q 1428 -91 1123 -41 
Q 819 9 494 109 
L 494 744 
Q 775 591 1075 516 
Q 1375 441 1709 441 
Q 2250 441 2565 725 
Q 2881 1009 2881 1497 
Q 2881 1984 2565 2268 
Q 2250 2553 1709 2553 
Q 1456 2553 1204 2497 
Q 953 2441 691 2322 
L 691 4666 
z
" id="DejaVuSans-35" transform="scale(0.015625)"/>
       </defs>
       <use xlink:href="#DejaVuSans-35"/>
       <use x="63.623047" xlink:href="#DejaVuSans-30"/>
       <use x="127.246094" xlink:href="#DejaVuSans-30"/>
      </g>
     </g>
    </g>
    <g id="xtick_7">
     <g id="line2d_7">
      <g>
       <use style="stroke:#000000;stroke-width:0.8;" x="316.296249" xlink:href="#m0667836c47" y="307.584"/>
      </g>
     </g>
     <g id="text_7">
      <!-- 600 -->
      <g transform="translate(306.752499 322.182437)scale(0.1 -0.1)">
       <defs>
        <path d="M 2113 2584 
Q 1688 2584 1439 2293 
Q 1191 2003 1191 1497 
Q 1191 994 1439 701 
Q 1688 409 2113 409 
Q 2538 409 2786 701 
Q 3034 994 3034 1497 
Q 3034 2003 2786 2293 
Q 2538 2584 2113 2584 
z
M 3366 4563 
L 3366 3988 
Q 3128 4100 2886 4159 
Q 2644 4219 2406 4219 
Q 1781 4219 1451 3797 
Q 1122 3375 1075 2522 
Q 1259 2794 1537 2939 
Q 1816 3084 2150 3084 
Q 2853 3084 3261 2657 
Q 3669 2231 3669 1497 
Q 3669 778 3244 343 
Q 2819 -91 2113 -91 
Q 1303 -91 875 529 
Q 447 1150 447 2328 
Q 447 3434 972 4092 
Q 1497 4750 2381 4750 
Q 2619 4750 2861 4703 
Q 3103 4656 3366 4563 
z
" id="DejaVuSans-36" transform="scale(0.015625)"/>
       </defs>
       <use xlink:href="#DejaVuSans-36"/>
       <use x="63.623047" xlink:href="#DejaVuSans-30"/>
       <use x="127.246094" xlink:href="#DejaVuSans-30"/>
      </g>
     </g>
    </g>
    <g id="xtick_8">
     <g id="line2d_8">
      <g>
       <use style="stroke:#000000;stroke-width:0.8;" x="357.391761" xlink:href="#m0667836c47" y="307.584"/>
      </g>
     </g>
     <g id="text_8">
      <!-- 700 -->
      <g transform="translate(347.848011 322.182437)scale(0.1 -0.1)">
       <defs>
        <path d="M 525 4666 
L 3525 4666 
L 3525 4397 
L 1831 0 
L 1172 0 
L 2766 4134 
L 525 4134 
L 525 4666 
z
" id="DejaVuSans-37" transform="scale(0.015625)"/>
       </defs>
       <use xlink:href="#DejaVuSans-37"/>
       <use x="63.623047" xlink:href="#DejaVuSans-30"/>
       <use x="127.246094" xlink:href="#DejaVuSans-30"/>
      </g>
     </g>
    </g>
    <g id="xtick_9">
     <g id="line2d_9">
      <g>
       <use style="stroke:#000000;stroke-width:0.8;" x="398.487273" xlink:href="#m0667836c47" y="307.584"/>
      </g>
     </g>
     <g id="text_9">
      <!-- 800 -->
      <g transform="translate(388.943523 322.182437)scale(0.1 -0.1)">
       <defs>
        <path d="M 2034 2216 
Q 1584 2216 1326 1975 
Q 1069 1734 1069 1313 
Q 1069 891 1326 650 
Q 1584 409 2034 409 
Q 2484 409 2743 651 
Q 3003 894 3003 1313 
Q 3003 1734 2745 1975 
Q 2488 2216 2034 2216 
z
M 1403 2484 
Q 997 2584 770 2862 
Q 544 3141 544 3541 
Q 544 4100 942 4425 
Q 1341 4750 2034 4750 
Q 2731 4750 3128 4425 
Q 3525 4100 3525 3541 
Q 3525 3141 3298 2862 
Q 3072 2584 2669 2484 
Q 3125 2378 3379 2068 
Q 3634 1759 3634 1313 
Q 3634 634 3220 271 
Q 2806 -91 2034 -91 
Q 1263 -91 848 271 
Q 434 634 434 1313 
Q 434 1759 690 2068 
Q 947 2378 1403 2484 
z
M 1172 3481 
Q 1172 3119 1398 2916 
Q 1625 2713 2034 2713 
Q 2441 2713 2670 2916 
Q 2900 3119 2900 3481 
Q 2900 3844 2670 4047 
Q 2441 4250 2034 4250 
Q 1625 4250 1398 4047 
Q 1172 3844 1172 3481 
z
" id="DejaVuSans-38" transform="scale(0.015625)"/>
       </defs>
       <use xlink:href="#DejaVuSans-38"/>
       <use x="63.623047" xlink:href="#DejaVuSans-30"/>
       <use x="127.246094" xlink:href="#DejaVuSans-30"/>
      </g>
     </g>
    </g>
   </g>
   <g id="matplotlib.axis_2">
    <g id="ytick_1">
     <g id="line2d_10">
      <defs>
       <path d="M 0 0 
L -3.5 0 
" id="mbfbf1feb9d" style="stroke:#000000;stroke-width:0.8;"/>
      </defs>
      <g>
       <use style="stroke:#000000;stroke-width:0.8;" x="57.6" xlink:href="#mbfbf1feb9d" y="292.318548"/>
      </g>
     </g>
     <g id="text_10">
      <!-- −190 -->
      <g transform="translate(23.132812 296.117767)scale(0.1 -0.1)">
       <defs>
        <path d="M 678 2272 
L 4684 2272 
L 4684 1741 
L 678 1741 
L 678 2272 
z
" id="DejaVuSans-2212" transform="scale(0.015625)"/>
        <path d="M 703 97 
L 703 672 
Q 941 559 1184 500 
Q 1428 441 1663 441 
Q 2288 441 2617 861 
Q 2947 1281 2994 2138 
Q 2813 1869 2534 1725 
Q 2256 1581 1919 1581 
Q 1219 1581 811 2004 
Q 403 2428 403 3163 
Q 403 3881 828 4315 
Q 1253 4750 1959 4750 
Q 2769 4750 3195 4129 
Q 3622 3509 3622 2328 
Q 3622 1225 3098 567 
Q 2575 -91 1691 -91 
Q 1453 -91 1209 -44 
Q 966 3 703 97 
z
M 1959 2075 
Q 2384 2075 2632 2365 
Q 2881 2656 2881 3163 
Q 2881 3666 2632 3958 
Q 2384 4250 1959 4250 
Q 1534 4250 1286 3958 
Q 1038 3666 1038 3163 
Q 1038 2656 1286 2365 
Q 1534 2075 1959 2075 
z
" id="DejaVuSans-39" transform="scale(0.015625)"/>
       </defs>
       <use xlink:href="#DejaVuSans-2212"/>
       <use x="83.789062" xlink:href="#DejaVuSans-31"/>
       <use x="147.412109" xlink:href="#DejaVuSans-39"/>
       <use x="211.035156" xlink:href="#DejaVuSans-30"/>
      </g>
     </g>
    </g>
    <g id="ytick_2">
     <g id="line2d_11">
      <g>
       <use style="stroke:#000000;stroke-width:0.8;" x="57.6" xlink:href="#mbfbf1feb9d" y="259.18658"/>
      </g>
     </g>
     <g id="text_11">
      <!-- −185 -->
      <g transform="translate(23.132812 262.985799)scale(0.1 -0.1)">
       <use xlink:href="#DejaVuSans-2212"/>
       <use x="83.789062" xlink:href="#DejaVuSans-31"/>
       <use x="147.412109" xlink:href="#DejaVuSans-38"/>
       <use x="211.035156" xlink:href="#DejaVuSans-35"/>
      </g>
     </g>
    </g>
    <g id="ytick_3">
     <g id="line2d_12">
      <g>
       <use style="stroke:#000000;stroke-width:0.8;" x="57.6" xlink:href="#mbfbf1feb9d" y="226.054612"/>
      </g>
     </g>
     <g id="text_12">
      <!-- −180 -->
      <g transform="translate(23.132812 229.853831)scale(0.1 -0.1)">
       <use xlink:href="#DejaVuSans-2212"/>
       <use x="83.789062" xlink:href="#DejaVuSans-31"/>
       <use x="147.412109" xlink:href="#DejaVuSans-38"/>
       <use x="211.035156" xlink:href="#DejaVuSans-30"/>
      </g>
     </g>
    </g>
    <g id="ytick_4">
     <g id="line2d_13">
      <g>
       <use style="stroke:#000000;stroke-width:0.8;" x="57.6" xlink:href="#mbfbf1feb9d" y="192.922644"/>
      </g>
     </g>
     <g id="text_13">
      <!-- −175 -->
      <g transform="translate(23.132812 196.721863)scale(0.1 -0.1)">
       <use xlink:href="#DejaVuSans-2212"/>
       <use x="83.789062" xlink:href="#DejaVuSans-31"/>
       <use x="147.412109" xlink:href="#DejaVuSans-37"/>
       <use x="211.035156" xlink:href="#DejaVuSans-35"/>
      </g>
     </g>
    </g>
    <g id="ytick_5">
     <g id="line2d_14">
      <g>
       <use style="stroke:#000000;stroke-width:0.8;" x="57.6" xlink:href="#mbfbf1feb9d" y="159.790676"/>
      </g>
     </g>
     <g id="text_14">
      <!-- −170 -->
      <g transform="translate(23.132812 163.589895)scale(0.1 -0.1)">
       <use xlink:href="#DejaVuSans-2212"/>
       <use x="83.789062" xlink:href="#DejaVuSans-31"/>
       <use x="147.412109" xlink:href="#DejaVuSans-37"/>
       <use x="211.035156" xlink:href="#DejaVuSans-30"/>
      </g>
     </g>
    </g>
    <g id="ytick_6">
     <g id="line2d_15">
      <g>
       <use style="stroke:#000000;stroke-width:0.8;" x="57.6" xlink:href="#mbfbf1feb9d" y="126.658708"/>
      </g>
     </g>
     <g id="text_15">
      <!-- −165 -->
      <g transform="translate(23.132812 130.457927)scale(0.1 -0.1)">
       <use xlink:href="#DejaVuSans-2212"/>
       <use x="83.789062" xlink:href="#DejaVuSans-31"/>
       <use x="147.412109" xlink:href="#DejaVuSans-36"/>
       <use x="211.035156" xlink:href="#DejaVuSans-35"/>
      </g>
     </g>
    </g>
    <g id="ytick_7">
     <g id="line2d_16">
      <g>
       <use style="stroke:#000000;stroke-width:0.8;" x="57.6" xlink:href="#mbfbf1feb9d" y="93.52674"/>
      </g>
     </g>
     <g id="text_16">
      <!-- −160 -->
      <g transform="translate(23.132812 97.325959)scale(0.1 -0.1)">
       <use xlink:href="#DejaVuSans-2212"/>
       <use x="83.789062" xlink:href="#DejaVuSans-31"/>
       <use x="147.412109" xlink:href="#DejaVuSans-36"/>
       <use x="211.035156" xlink:href="#DejaVuSans-30"/>
      </g>
     </g>
    </g>
    <g id="ytick_8">
     <g id="line2d_17">
      <g>
       <use style="stroke:#000000;stroke-width:0.8;" x="57.6" xlink:href="#mbfbf1feb9d" y="60.394772"/>
      </g>
     </g>
     <g id="text_17">
      <!-- −155 -->
      <g transform="translate(23.132812 64.193991)scale(0.1 -0.1)">
       <use xlink:href="#DejaVuSans-2212"/>
       <use x="83.789062" xlink:href="#DejaVuSans-31"/>
       <use x="147.412109" xlink:href="#DejaVuSans-35"/>
       <use x="211.035156" xlink:href="#DejaVuSans-35"/>
      </g>
     </g>
    </g>
   </g>
   <g id="line2d_18">
    <path clip-path="url(#pfd418eef64)" d="M 73.832727 235.008 
L 77.942278 235.008 
L 82.05183 235.008 
L 86.161381 235.008 
L 90.270932 235.008 
L 94.380483 235.008 
L 98.490035 235.008 
L 102.599586 235.008 
L 106.709137 235.008 
L 110.818688 235.008 
L 114.928239 235.008 
L 119.037791 235.008 
L 123.147342 235.008 
L 127.256893 235.008 
L 131.366444 235.008 
L 135.475995 235.008 
L 139.585547 235.008 
L 143.695098 235.008 
L 147.804649 235.008 
L 151.9142 235.008 
L 156.023751 235.008 
L 160.133303 235.008 
L 164.242854 235.008 
L 168.352405 235.008 
L 172.461956 235.008 
L 176.571507 235.008 
L 180.681059 235.008 
L 184.79061 235.008 
L 188.900161 235.008 
L 193.009712 235.008 
L 197.119264 235.008 
L 201.228815 235.008 
L 205.338366 235.008 
L 209.447917 235.008 
L 213.557468 235.008 
L 217.66702 235.008 
L 221.776571 235.008 
L 225.886122 235.008 
L 229.995673 235.008 
L 234.105224 235.008 
L 238.214776 235.008 
L 242.324327 235.008 
L 246.433878 235.008 
L 250.543429 235.008 
L 254.65298 235.008 
L 258.762532 235.008 
L 262.872083 235.008 
L 266.981634 235.008 
L 271.091185 235.008 
L 275.200736 235.008 
L 279.310288 235.008 
L 283.419839 235.008 
L 287.52939 235.008 
L 291.638941 235.008 
L 295.748493 235.008 
L 299.858044 235.008 
L 303.967595 235.008 
L 308.077146 235.008 
L 312.186697 235.008 
L 316.296249 235.008 
L 320.4058 235.008 
L 324.515351 235.008 
L 328.624902 235.008 
L 332.734453 235.008 
L 336.844005 235.008 
L 340.953556 235.008 
L 345.063107 235.008 
L 349.172658 235.008 
L 353.282209 235.008 
L 357.391761 235.008 
L 361.501312 235.008 
L 365.610863 235.008 
L 369.720414 235.008 
L 373.829965 235.008 
L 377.939517 235.008 
L 382.049068 235.008 
L 386.158619 235.008 
L 390.26817 235.008 
L 394.377722 235.008 
L 398.487273 235.008 
" style="fill:none;stroke:#1f77b4;stroke-linecap:square;stroke-width:1.5;"/>
   </g>
   <g id="line2d_19">
    <path clip-path="url(#pfd418eef64)" d="M 73.832727 235.008 
L 77.942278 235.008 
L 82.05183 235.008 
L 86.161381 235.008 
L 90.270932 235.008 
L 94.380483 235.008 
L 98.490035 235.008 
L 102.599586 235.008 
L 106.709137 235.008 
L 110.818688 235.008 
L 114.928239 235.008 
L 119.037791 235.008 
L 123.147342 235.008 
L 127.256893 235.008 
L 131.366444 235.008 
L 135.475995 235.008 
L 139.585547 235.008 
L 143.695098 235.008 
L 147.804649 235.008 
L 151.9142 235.008 
L 156.023751 235.008 
L 160.133303 235.008 
L 164.242854 235.008 
L 168.352405 235.008 
L 172.461956 235.008 
L 176.571507 235.008 
L 180.681059 235.008 
L 184.79061 235.008 
L 188.900161 235.008 
L 193.009712 235.008 
L 197.119264 235.008 
L 201.228815 235.008 
L 205.338366 235.008 
L 209.447917 235.008 
L 213.557468 235.008 
L 217.66702 235.008 
L 221.776571 235.008 
L 225.886122 235.008 
L 229.995673 235.008 
L 234.105224 235.008 
L 238.214776 235.008 
L 242.324327 235.008 
L 246.433878 235.008 
L 250.543429 235.008 
L 254.65298 235.008 
L 258.762532 235.008 
L 262.872083 235.008 
L 266.981634 235.008 
L 271.091185 235.008 
L 275.200736 235.008 
L 279.310288 235.008 
L 283.419839 235.008 
L 287.52939 235.008 
L 291.638941 235.008 
L 295.748493 235.008 
L 299.858044 235.008 
L 303.967595 235.008 
L 308.077146 235.008 
L 312.186697 235.008 
L 316.296249 235.008 
L 320.4058 235.008 
L 324.515351 235.008 
L 328.624902 235.008 
L 332.734453 235.008 
L 336.844005 235.008 
L 340.953556 235.008 
L 345.063107 235.008 
L 349.172658 235.008 
L 353.282209 235.008 
L 357.391761 235.008 
L 361.501312 235.008 
L 365.610863 235.008 
L 369.720414 235.008 
L 373.829965 235.008 
L 377.939517 235.008 
L 382.049068 235.008 
L 386.158619 235.008 
L 390.26817 235.008 
L 394.377722 235.008 
L 398.487273 235.008 
" style="fill:none;stroke:#ff7f0e;stroke-linecap:square;stroke-width:1.5;"/>
   </g>
   <g id="line2d_20">
    <path clip-path="url(#pfd418eef64)" d="M 73.832727 235.008 
L 77.942278 235.008 
L 82.05183 235.008 
L 86.161381 235.008 
L 90.270932 235.008 
L 94.380483 235.008 
L 98.490035 235.008 
L 102.599586 235.008 
L 106.709137 235.008 
L 110.818688 235.008 
L 114.928239 235.008 
L 119.037791 235.008 
L 123.147342 235.008 
L 127.256893 235.008 
L 131.366444 235.008 
L 135.475995 235.008 
L 139.585547 235.008 
L 143.695098 235.008 
L 147.804649 235.008 
L 151.9142 235.008 
L 156.023751 235.008 
L 160.133303 235.008 
L 164.242854 235.008 
L 168.352405 235.008 
L 172.461956 235.008 
L 176.571507 235.008 
L 180.681059 235.008 
L 184.79061 235.008 
L 188.900161 235.008 
L 193.009712 235.008 
L 197.119264 235.008 
L 201.228815 235.008 
L 205.338366 235.008 
L 209.447917 235.008 
L 213.557468 235.008 
L 217.66702 235.008 
L 221.776571 235.008 
L 225.886122 235.008 
L 229.995673 235.008 
L 234.105224 235.008 
L 238.214776 235.008 
L 242.324327 235.008 
L 246.433878 235.008 
L 250.543429 235.008 
L 254.65298 235.008 
L 258.762532 235.008 
L 262.872083 235.008 
L 266.981634 235.008 
L 271.091185 235.008 
L 275.200736 235.008 
L 279.310288 235.008 
L 283.419839 235.008 
L 287.52939 235.008 
L 291.638941 235.008 
L 295.748493 235.008 
L 299.858044 235.008 
L 303.967595 235.008 
L 308.077146 235.008 
L 312.186697 235.008 
L 316.296249 235.008 
L 320.4058 235.008 
L 324.515351 235.008 
L 328.624902 235.008 
L 332.734453 235.008 
L 336.844005 235.008 
L 340.953556 235.008 
L 345.063107 235.008 
L 349.172658 235.008 
L 353.282209 235.008 
L 357.391761 235.008 
L 361.501312 235.008 
L 365.610863 235.008 
L 369.720414 235.008 
L 373.829965 235.008 
L 377.939517 235.008 
L 382.049068 235.008 
L 386.158619 235.008 
L 390.26817 235.008 
L 394.377722 235.008 
L 398.487273 235.008 
" style="fill:none;stroke:#2ca02c;stroke-linecap:square;stroke-width:1.5;"/>
   </g>
   <g id="line2d_21">
    <path clip-path="url(#pfd418eef64)" d="M 73.832727 235.008 
L 77.942278 235.008 
L 82.05183 235.008 
L 86.161381 235.008 
L 90.270932 235.008 
L 94.380483 235.008 
L 98.490035 235.008 
L 102.599586 235.008 
L 106.709137 235.008 
L 110.818688 235.008 
L 114.928239 235.008 
L 119.037791 235.008 
L 123.147342 235.008 
L 127.256893 235.008 
L 131.366444 235.008 
L 135.475995 235.008 
L 139.585547 235.008 
L 143.695098 235.008 
L 147.804649 235.008 
L 151.9142 235.008 
L 156.023751 235.008 
L 160.133303 235.008 
L 164.242854 235.008 
L 168.352405 235.008 
L 172.461956 235.008 
L 176.571507 235.008 
L 180.681059 235.008 
L 184.79061 235.008 
L 188.900161 235.008 
L 193.009712 235.008 
L 197.119264 235.008 
L 201.228815 235.008 
L 205.338366 235.008 
L 209.447917 235.008 
L 213.557468 235.008 
L 217.66702 235.008 
L 221.776571 235.008 
L 225.886122 235.008 
L 229.995673 235.008 
L 234.105224 235.008 
L 238.214776 235.008 
L 242.324327 235.008 
L 246.433878 235.008 
L 250.543429 235.008 
L 254.65298 235.008 
L 258.762532 235.008 
L 262.872083 235.008 
L 266.981634 235.008 
L 271.091185 235.008 
L 275.200736 235.008 
L 279.310288 235.008 
L 283.419839 235.008 
L 287.52939 235.008 
L 291.638941 235.008 
L 295.748493 235.008 
L 299.858044 235.008 
L 303.967595 235.008 
L 308.077146 235.008 
L 312.186697 235.008 
L 316.296249 235.008 
L 320.4058 235.008 
L 324.515351 203.697636 
L 328.624902 209.20152 
L 332.734453 216.943464 
L 336.844005 215.547209 
L 340.953556 200.877952 
L 345.063107 188.241598 
L 349.172658 174.528 
L 353.282209 175.032223 
L 357.391761 193.024956 
L 361.501312 198.625926 
L 365.610863 199.58527 
L 369.720414 202.982279 
L 373.829965 194.014548 
L 377.939517 206.312584 
L 382.049068 195.371239 
L 386.158619 207.262267 
L 390.26817 208.447647 
L 394.377722 186.762669 
L 398.487273 201.236268 
" style="fill:none;stroke:#d62728;stroke-linecap:square;stroke-width:1.5;"/>
   </g>
   <g id="patch_3">
    <path d="M 57.6 307.584 
L 57.6 41.472 
" style="fill:none;stroke:#000000;stroke-linecap:square;stroke-linejoin:miter;stroke-width:0.8;"/>
   </g>
   <g id="patch_4">
    <path d="M 414.72 307.584 
L 414.72 41.472 
" style="fill:none;stroke:#000000;stroke-linecap:square;stroke-linejoin:miter;stroke-width:0.8;"/>
   </g>
   <g id="patch_5">
    <path d="M 57.6 307.584 
L 414.72 307.584 
" style="fill:none;stroke:#000000;stroke-linecap:square;stroke-linejoin:miter;stroke-width:0.8;"/>
   </g>
   <g id="patch_6">
    <path d="M 57.6 41.472 
L 414.72 41.472 
" style="fill:none;stroke:#000000;stroke-linecap:square;stroke-linejoin:miter;stroke-width:0.8;"/>
   </g>
   <g id="legend_1">
    <g id="patch_7">
     <path d="M 275.015312 108.1845 
L 407.72 108.1845 
Q 409.72 108.1845 409.72 106.1845 
L 409.72 48.472 
Q 409.72 46.472 407.72 46.472 
L 275.015312 46.472 
Q 273.015312 46.472 273.015312 48.472 
L 273.015312 106.1845 
Q 273.015312 108.1845 275.015312 108.1845 
z
" style="fill:#ffffff;opacity:0.8;stroke:#cccccc;stroke-linejoin:miter;"/>
    </g>
    <g id="line2d_22">
     <path d="M 277.015312 54.570438 
L 297.015312 54.570438 
" style="fill:none;stroke:#1f77b4;stroke-linecap:square;stroke-width:1.5;"/>
    </g>
    <g id="line2d_23"/>
    <g id="text_18">
     <!-- DQN -->
     <g transform="translate(305.015312 58.070438)scale(0.1 -0.1)">
      <defs>
       <path d="M 1259 4147 
L 1259 519 
L 2022 519 
Q 2988 519 3436 956 
Q 3884 1394 3884 2338 
Q 3884 3275 3436 3711 
Q 2988 4147 2022 4147 
L 1259 4147 
z
M 628 4666 
L 1925 4666 
Q 3281 4666 3915 4102 
Q 4550 3538 4550 2338 
Q 4550 1131 3912 565 
Q 3275 0 1925 0 
L 628 0 
L 628 4666 
z
" id="DejaVuSans-44" transform="scale(0.015625)"/>
       <path d="M 2522 4238 
Q 1834 4238 1429 3725 
Q 1025 3213 1025 2328 
Q 1025 1447 1429 934 
Q 1834 422 2522 422 
Q 3209 422 3611 934 
Q 4013 1447 4013 2328 
Q 4013 3213 3611 3725 
Q 3209 4238 2522 4238 
z
M 3406 84 
L 4238 -825 
L 3475 -825 
L 2784 -78 
Q 2681 -84 2626 -87 
Q 2572 -91 2522 -91 
Q 1538 -91 948 567 
Q 359 1225 359 2328 
Q 359 3434 948 4092 
Q 1538 4750 2522 4750 
Q 3503 4750 4090 4092 
Q 4678 3434 4678 2328 
Q 4678 1516 4351 937 
Q 4025 359 3406 84 
z
" id="DejaVuSans-51" transform="scale(0.015625)"/>
       <path d="M 628 4666 
L 1478 4666 
L 3547 763 
L 3547 4666 
L 4159 4666 
L 4159 0 
L 3309 0 
L 1241 3903 
L 1241 0 
L 628 0 
L 628 4666 
z
" id="DejaVuSans-4e" transform="scale(0.015625)"/>
      </defs>
      <use xlink:href="#DejaVuSans-44"/>
      <use x="77.001953" xlink:href="#DejaVuSans-51"/>
      <use x="155.712891" xlink:href="#DejaVuSans-4e"/>
     </g>
    </g>
    <g id="line2d_24">
     <path d="M 277.015312 69.248563 
L 297.015312 69.248563 
" style="fill:none;stroke:#ff7f0e;stroke-linecap:square;stroke-width:1.5;"/>
    </g>
    <g id="line2d_25"/>
    <g id="text_19">
     <!-- BacktrackDQN -->
     <g transform="translate(305.015312 72.748563)scale(0.1 -0.1)">
      <defs>
       <path d="M 1259 2228 
L 1259 519 
L 2272 519 
Q 2781 519 3026 730 
Q 3272 941 3272 1375 
Q 3272 1813 3026 2020 
Q 2781 2228 2272 2228 
L 1259 2228 
z
M 1259 4147 
L 1259 2741 
L 2194 2741 
Q 2656 2741 2882 2914 
Q 3109 3088 3109 3444 
Q 3109 3797 2882 3972 
Q 2656 4147 2194 4147 
L 1259 4147 
z
M 628 4666 
L 2241 4666 
Q 2963 4666 3353 4366 
Q 3744 4066 3744 3513 
Q 3744 3084 3544 2831 
Q 3344 2578 2956 2516 
Q 3422 2416 3680 2098 
Q 3938 1781 3938 1306 
Q 3938 681 3513 340 
Q 3088 0 2303 0 
L 628 0 
L 628 4666 
z
" id="DejaVuSans-42" transform="scale(0.015625)"/>
       <path d="M 2194 1759 
Q 1497 1759 1228 1600 
Q 959 1441 959 1056 
Q 959 750 1161 570 
Q 1363 391 1709 391 
Q 2188 391 2477 730 
Q 2766 1069 2766 1631 
L 2766 1759 
L 2194 1759 
z
M 3341 1997 
L 3341 0 
L 2766 0 
L 2766 531 
Q 2569 213 2275 61 
Q 1981 -91 1556 -91 
Q 1019 -91 701 211 
Q 384 513 384 1019 
Q 384 1609 779 1909 
Q 1175 2209 1959 2209 
L 2766 2209 
L 2766 2266 
Q 2766 2663 2505 2880 
Q 2244 3097 1772 3097 
Q 1472 3097 1187 3025 
Q 903 2953 641 2809 
L 641 3341 
Q 956 3463 1253 3523 
Q 1550 3584 1831 3584 
Q 2591 3584 2966 3190 
Q 3341 2797 3341 1997 
z
" id="DejaVuSans-61" transform="scale(0.015625)"/>
       <path d="M 3122 3366 
L 3122 2828 
Q 2878 2963 2633 3030 
Q 2388 3097 2138 3097 
Q 1578 3097 1268 2742 
Q 959 2388 959 1747 
Q 959 1106 1268 751 
Q 1578 397 2138 397 
Q 2388 397 2633 464 
Q 2878 531 3122 666 
L 3122 134 
Q 2881 22 2623 -34 
Q 2366 -91 2075 -91 
Q 1284 -91 818 406 
Q 353 903 353 1747 
Q 353 2603 823 3093 
Q 1294 3584 2113 3584 
Q 2378 3584 2631 3529 
Q 2884 3475 3122 3366 
z
" id="DejaVuSans-63" transform="scale(0.015625)"/>
       <path d="M 581 4863 
L 1159 4863 
L 1159 1991 
L 2875 3500 
L 3609 3500 
L 1753 1863 
L 3688 0 
L 2938 0 
L 1159 1709 
L 1159 0 
L 581 0 
L 581 4863 
z
" id="DejaVuSans-6b" transform="scale(0.015625)"/>
       <path d="M 1172 4494 
L 1172 3500 
L 2356 3500 
L 2356 3053 
L 1172 3053 
L 1172 1153 
Q 1172 725 1289 603 
Q 1406 481 1766 481 
L 2356 481 
L 2356 0 
L 1766 0 
Q 1100 0 847 248 
Q 594 497 594 1153 
L 594 3053 
L 172 3053 
L 172 3500 
L 594 3500 
L 594 4494 
L 1172 4494 
z
" id="DejaVuSans-74" transform="scale(0.015625)"/>
       <path d="M 2631 2963 
Q 2534 3019 2420 3045 
Q 2306 3072 2169 3072 
Q 1681 3072 1420 2755 
Q 1159 2438 1159 1844 
L 1159 0 
L 581 0 
L 581 3500 
L 1159 3500 
L 1159 2956 
Q 1341 3275 1631 3429 
Q 1922 3584 2338 3584 
Q 2397 3584 2469 3576 
Q 2541 3569 2628 3553 
L 2631 2963 
z
" id="DejaVuSans-72" transform="scale(0.015625)"/>
      </defs>
      <use xlink:href="#DejaVuSans-42"/>
      <use x="68.603516" xlink:href="#DejaVuSans-61"/>
      <use x="129.882812" xlink:href="#DejaVuSans-63"/>
      <use x="184.863281" xlink:href="#DejaVuSans-6b"/>
      <use x="242.773438" xlink:href="#DejaVuSans-74"/>
      <use x="281.982422" xlink:href="#DejaVuSans-72"/>
      <use x="323.095703" xlink:href="#DejaVuSans-61"/>
      <use x="384.375" xlink:href="#DejaVuSans-63"/>
      <use x="439.355469" xlink:href="#DejaVuSans-6b"/>
      <use x="497.265625" xlink:href="#DejaVuSans-44"/>
      <use x="574.267578" xlink:href="#DejaVuSans-51"/>
      <use x="652.978516" xlink:href="#DejaVuSans-4e"/>
     </g>
    </g>
    <g id="line2d_26">
     <path d="M 277.015312 83.926688 
L 297.015312 83.926688 
" style="fill:none;stroke:#2ca02c;stroke-linecap:square;stroke-width:1.5;"/>
    </g>
    <g id="line2d_27"/>
    <g id="text_20">
     <!-- MultiBatchDQN -->
     <g transform="translate(305.015312 87.426688)scale(0.1 -0.1)">
      <defs>
       <path d="M 628 4666 
L 1569 4666 
L 2759 1491 
L 3956 4666 
L 4897 4666 
L 4897 0 
L 4281 0 
L 4281 4097 
L 3078 897 
L 2444 897 
L 1241 4097 
L 1241 0 
L 628 0 
L 628 4666 
z
" id="DejaVuSans-4d" transform="scale(0.015625)"/>
       <path d="M 544 1381 
L 544 3500 
L 1119 3500 
L 1119 1403 
Q 1119 906 1312 657 
Q 1506 409 1894 409 
Q 2359 409 2629 706 
Q 2900 1003 2900 1516 
L 2900 3500 
L 3475 3500 
L 3475 0 
L 2900 0 
L 2900 538 
Q 2691 219 2414 64 
Q 2138 -91 1772 -91 
Q 1169 -91 856 284 
Q 544 659 544 1381 
z
M 1991 3584 
L 1991 3584 
z
" id="DejaVuSans-75" transform="scale(0.015625)"/>
       <path d="M 603 4863 
L 1178 4863 
L 1178 0 
L 603 0 
L 603 4863 
z
" id="DejaVuSans-6c" transform="scale(0.015625)"/>
       <path d="M 603 3500 
L 1178 3500 
L 1178 0 
L 603 0 
L 603 3500 
z
M 603 4863 
L 1178 4863 
L 1178 4134 
L 603 4134 
L 603 4863 
z
" id="DejaVuSans-69" transform="scale(0.015625)"/>
       <path d="M 3513 2113 
L 3513 0 
L 2938 0 
L 2938 2094 
Q 2938 2591 2744 2837 
Q 2550 3084 2163 3084 
Q 1697 3084 1428 2787 
Q 1159 2491 1159 1978 
L 1159 0 
L 581 0 
L 581 4863 
L 1159 4863 
L 1159 2956 
Q 1366 3272 1645 3428 
Q 1925 3584 2291 3584 
Q 2894 3584 3203 3211 
Q 3513 2838 3513 2113 
z
" id="DejaVuSans-68" transform="scale(0.015625)"/>
      </defs>
      <use xlink:href="#DejaVuSans-4d"/>
      <use x="86.279297" xlink:href="#DejaVuSans-75"/>
      <use x="149.658203" xlink:href="#DejaVuSans-6c"/>
      <use x="177.441406" xlink:href="#DejaVuSans-74"/>
      <use x="216.650391" xlink:href="#DejaVuSans-69"/>
      <use x="244.433594" xlink:href="#DejaVuSans-42"/>
      <use x="313.037109" xlink:href="#DejaVuSans-61"/>
      <use x="374.316406" xlink:href="#DejaVuSans-74"/>
      <use x="413.525391" xlink:href="#DejaVuSans-63"/>
      <use x="468.505859" xlink:href="#DejaVuSans-68"/>
      <use x="531.884766" xlink:href="#DejaVuSans-44"/>
      <use x="608.886719" xlink:href="#DejaVuSans-51"/>
      <use x="687.597656" xlink:href="#DejaVuSans-4e"/>
     </g>
    </g>
    <g id="line2d_28">
     <path d="M 277.015312 98.604813 
L 297.015312 98.604813 
" style="fill:none;stroke:#d62728;stroke-linecap:square;stroke-width:1.5;"/>
    </g>
    <g id="line2d_29"/>
    <g id="text_21">
     <!-- BacktrackSarsaDQN -->
     <g transform="translate(305.015312 102.104813)scale(0.1 -0.1)">
      <defs>
       <path d="M 3425 4513 
L 3425 3897 
Q 3066 4069 2747 4153 
Q 2428 4238 2131 4238 
Q 1616 4238 1336 4038 
Q 1056 3838 1056 3469 
Q 1056 3159 1242 3001 
Q 1428 2844 1947 2747 
L 2328 2669 
Q 3034 2534 3370 2195 
Q 3706 1856 3706 1288 
Q 3706 609 3251 259 
Q 2797 -91 1919 -91 
Q 1588 -91 1214 -16 
Q 841 59 441 206 
L 441 856 
Q 825 641 1194 531 
Q 1563 422 1919 422 
Q 2459 422 2753 634 
Q 3047 847 3047 1241 
Q 3047 1584 2836 1778 
Q 2625 1972 2144 2069 
L 1759 2144 
Q 1053 2284 737 2584 
Q 422 2884 422 3419 
Q 422 4038 858 4394 
Q 1294 4750 2059 4750 
Q 2388 4750 2728 4690 
Q 3069 4631 3425 4513 
z
" id="DejaVuSans-53" transform="scale(0.015625)"/>
       <path d="M 2834 3397 
L 2834 2853 
Q 2591 2978 2328 3040 
Q 2066 3103 1784 3103 
Q 1356 3103 1142 2972 
Q 928 2841 928 2578 
Q 928 2378 1081 2264 
Q 1234 2150 1697 2047 
L 1894 2003 
Q 2506 1872 2764 1633 
Q 3022 1394 3022 966 
Q 3022 478 2636 193 
Q 2250 -91 1575 -91 
Q 1294 -91 989 -36 
Q 684 19 347 128 
L 347 722 
Q 666 556 975 473 
Q 1284 391 1588 391 
Q 1994 391 2212 530 
Q 2431 669 2431 922 
Q 2431 1156 2273 1281 
Q 2116 1406 1581 1522 
L 1381 1569 
Q 847 1681 609 1914 
Q 372 2147 372 2553 
Q 372 3047 722 3315 
Q 1072 3584 1716 3584 
Q 2034 3584 2315 3537 
Q 2597 3491 2834 3397 
z
" id="DejaVuSans-73" transform="scale(0.015625)"/>
      </defs>
      <use xlink:href="#DejaVuSans-42"/>
      <use x="68.603516" xlink:href="#DejaVuSans-61"/>
      <use x="129.882812" xlink:href="#DejaVuSans-63"/>
      <use x="184.863281" xlink:href="#DejaVuSans-6b"/>
      <use x="242.773438" xlink:href="#DejaVuSans-74"/>
      <use x="281.982422" xlink:href="#DejaVuSans-72"/>
      <use x="323.095703" xlink:href="#DejaVuSans-61"/>
      <use x="384.375" xlink:href="#DejaVuSans-63"/>
      <use x="439.355469" xlink:href="#DejaVuSans-6b"/>
      <use x="497.265625" xlink:href="#DejaVuSans-53"/>
      <use x="560.742188" xlink:href="#DejaVuSans-61"/>
      <use x="622.021484" xlink:href="#DejaVuSans-72"/>
      <use x="663.134766" xlink:href="#DejaVuSans-73"/>
      <use x="715.234375" xlink:href="#DejaVuSans-61"/>
      <use x="776.513672" xlink:href="#DejaVuSans-44"/>
      <use x="853.515625" xlink:href="#DejaVuSans-51"/>
      <use x="932.226562" xlink:href="#DejaVuSans-4e"/>
     </g>
    </g>
   </g>
  </g>
 </g>
 <defs>
  <clipPath id="pfd418eef64">
   <rect height="266.112" width="357.12" x="57.6" y="41.472"/>
  </clipPath>
 </defs>
</svg>
