<?xml version="1.0" encoding="utf-8" standalone="no"?>
<!DOCTYPE svg PUBLIC "-//W3C//DTD SVG 1.1//EN"
  "http://www.w3.org/Graphics/SVG/1.1/DTD/svg11.dtd">
<svg height="345.6pt" version="1.1" viewBox="0 0 460.8 345.6" width="460.8pt" xmlns="http://www.w3.org/2000/svg" xmlns:xlink="http://www.w3.org/1999/xlink">
 <metadata>
  <rdf:RDF xmlns:cc="http://creativecommons.org/ns#" xmlns:dc="http://purl.org/dc/elements/1.1/" xmlns:rdf="http://www.w3.org/1999/02/22-rdf-syntax-ns#">
   <cc:Work>
    <dc:type rdf:resource="http://purl.org/dc/dcmitype/StillImage"/>
    <dc:date>2022-01-03T12:07:18.478293</dc:date>
    <dc:format>image/svg+xml</dc:format>
    <dc:creator>
     <cc:Agent>
      <dc:title>Matplotlib v3.4.2, https://matplotlib.org/</dc:title>
     </cc:Agent>
    </dc:creator>
   </cc:Work>
  </rdf:RDF>
 </metadata>
 <defs>
  <style type="text/css">*{stroke-linecap:butt;stroke-linejoin:round;}</style>
 </defs>
 <g id="figure_1">
  <g id="patch_1">
   <path d="M 0 345.6 
L 460.8 345.6 
L 460.8 0 
L 0 0 
z
" style="fill:#ffffff;"/>
  </g>
  <g id="axes_1">
   <g id="patch_2">
    <path d="M 57.6 307.584 
L 414.72 307.584 
L 414.72 41.472 
L 57.6 41.472 
z
" style="fill:#ffffff;"/>
   </g>
   <g id="PolyCollection_1">
    <path clip-path="url(#p693052e2ba)" d="M 73.832727 258.962631 
L 73.832727 258.962631 
L 82.157203 257.59182 
L 90.481678 256.632252 
L 98.806154 262.349726 
L 107.130629 260.093473 
L 115.455105 258.38341 
L 123.77958 257.186365 
L 132.104056 253.997891 
L 140.428531 254.116502 
L 148.753007 254.19953 
L 157.077483 254.257649 
L 165.401958 266.596981 
L 173.726434 272.787195 
L 182.050909 267.269015 
L 190.375385 263.406289 
L 198.69986 260.702381 
L 207.024336 258.809645 
L 215.348811 263.284518 
L 223.673287 254.890934 
L 231.997762 257.27272 
L 240.322238 248.953419 
L 248.646713 250.585372 
L 256.971189 251.727739 
L 265.295664 252.527396 
L 273.62014 247.468349 
L 281.944615 249.545823 
L 290.269091 257.03263 
L 298.593566 247.271545 
L 306.918042 253.866483 
L 315.242517 244.656248 
L 323.566993 246.610492 
L 331.891469 248.945323 
L 340.215944 252.684142 
L 348.54042 261.33225 
L 356.864895 249.511101 
L 365.189371 245.13498 
L 373.513846 236.013413 
L 381.838322 236.733911 
L 390.162797 242.031716 
L 398.487273 245.74018 
L 398.487273 245.74018 
L 398.487273 219.645781 
L 390.162797 204.754004 
L 381.838322 183.480036 
L 373.513846 198.482036 
L 365.189371 176.442417 
L 356.864895 198.380864 
L 348.54042 192.674966 
L 340.215944 205.905389 
L 331.891469 202.664032 
L 323.566993 180.494362 
L 315.242517 154.460001 
L 306.918042 172.538748 
L 298.593566 187.605472 
L 290.269091 191.748678 
L 281.944615 209.175847 
L 273.62014 189.796955 
L 265.295664 225.145447 
L 256.971189 212.610669 
L 248.646713 194.703843 
L 240.322238 169.122664 
L 231.997762 178.146137 
L 223.673287 175.01463 
L 215.348811 211.935865 
L 207.024336 239.821881 
L 198.69986 233.577004 
L 190.375385 224.655751 
L 182.050909 211.911103 
L 173.726434 193.704464 
L 165.401958 209.978465 
L 157.077483 245.293238 
L 148.753007 241.393228 
L 140.428531 235.821784 
L 132.104056 227.86258 
L 123.77958 232.725107 
L 115.455105 223.438755 
L 107.130629 210.172538 
L 98.806154 223.160357 
L 90.481678 247.676288 
L 82.157203 244.797585 
L 73.832727 240.685153 
z
" style="fill:#1f77b4;fill-opacity:0.3;"/>
   </g>
   <g id="PolyCollection_2">
    <path clip-path="url(#p693052e2ba)" d="M 73.832727 295.488 
L 73.832727 295.488 
L 82.157203 283.159578 
L 90.481678 274.529683 
L 98.806154 268.488757 
L 107.130629 264.260108 
L 115.455105 261.300054 
L 123.77958 257.629928 
L 132.104056 256.658928 
L 140.428531 255.979228 
L 148.753007 255.503438 
L 157.077483 255.170385 
L 165.401958 254.382511 
L 173.726434 254.385736 
L 182.050909 257.221438 
L 190.375385 256.372985 
L 198.69986 255.779068 
L 207.024336 255.363326 
L 215.348811 255.585826 
L 223.673287 255.228057 
L 231.997762 254.977618 
L 240.322238 254.802311 
L 248.646713 254.679596 
L 256.971189 254.593696 
L 265.295664 254.533565 
L 273.62014 254.491474 
L 281.944615 254.46201 
L 290.269091 254.441386 
L 298.593566 256.974318 
L 306.918042 256.200001 
L 315.242517 264.126857 
L 323.566993 261.206778 
L 331.891469 259.162723 
L 340.215944 257.731885 
L 348.54042 256.292491 
L 356.864895 261.285562 
L 365.189371 271.596484 
L 373.513846 262.807396 
L 381.838322 271.299094 
L 390.162797 278.641143 
L 398.487273 269.140143 
L 398.487273 269.140143 
L 398.487273 127.670348 
L 390.162797 144.258653 
L 381.838322 151.622437 
L 373.513846 158.247309 
L 365.189371 184.709457 
L 356.864895 208.618011 
L 348.54042 214.342694 
L 340.215944 242.17019 
L 331.891469 236.93173 
L 323.566993 229.448217 
L 315.242517 218.757484 
L 306.918042 248.609065 
L 298.593566 246.130124 
L 290.269091 253.943653 
L 281.944615 253.750964 
L 273.62014 253.475694 
L 265.295664 253.08245 
L 256.971189 252.520674 
L 248.646713 251.718137 
L 240.322238 250.571655 
L 231.997762 248.933823 
L 223.673287 246.594064 
L 215.348811 243.251551 
L 207.024336 248.637128 
L 198.69986 246.170213 
L 190.375385 242.64605 
L 182.050909 237.611531 
L 173.726434 248.25026 
L 165.401958 245.617545 
L 157.077483 247.78347 
L 148.753007 244.950702 
L 140.428531 240.903891 
L 132.104056 235.122733 
L 123.77958 226.863935 
L 115.455105 233.672883 
L 107.130629 224.792721 
L 98.806154 212.106775 
L 90.481678 193.983995 
L 82.157203 168.09431 
L 73.832727 131.109045 
z
" style="fill:#ff7f0e;fill-opacity:0.3;"/>
   </g>
   <g id="PolyCollection_3">
    <path clip-path="url(#p693052e2ba)" d="M 73.832727 266.556913 
L 73.832727 266.556913 
L 82.157203 258.090236 
L 90.481678 260.03626 
L 98.806154 253.444498 
L 107.130629 253.729127 
L 115.455105 253.928367 
L 123.77958 254.067835 
L 132.104056 254.165463 
L 140.428531 254.233803 
L 148.753007 254.28164 
L 157.077483 260.706225 
L 165.401958 260.881812 
L 173.726434 258.935247 
L 182.050909 245.036412 
L 190.375385 244.260431 
L 198.69986 247.30028 
L 207.024336 257.481747 
L 215.348811 256.555201 
L 223.673287 264.991364 
L 231.997762 254.246444 
L 240.322238 255.255008 
L 248.646713 254.996484 
L 256.971189 258.457883 
L 265.295664 264.680605 
L 273.62014 240.474102 
L 281.944615 244.64985 
L 290.269091 247.572873 
L 298.593566 249.215171 
L 306.918042 212.022315 
L 315.242517 213.58804 
L 323.566993 208.086532 
L 331.891469 197.792094 
L 340.215944 223.647672 
L 348.54042 224.376419 
L 356.864895 222.383764 
L 365.189371 211.270679 
L 373.513846 176.493158 
L 381.838322 201.012547 
L 390.162797 202.17484 
L 398.487273 194.802982 
L 398.487273 194.802982 
L 398.487273 77.486125 
L 390.162797 92.770943 
L 381.838322 98.224079 
L 373.513846 99.942422 
L 365.189371 106.148536 
L 356.864895 121.089487 
L 348.54042 133.155868 
L 340.215944 121.168761 
L 331.891469 114.427294 
L 323.566993 129.429844 
L 315.242517 160.217898 
L 306.918042 145.430158 
L 298.593566 171.664428 
L 290.269091 205.619305 
L 281.944615 184.71618 
L 273.62014 154.854574 
L 265.295664 180.602817 
L 256.971189 195.241337 
L 248.646713 223.847442 
L 240.322238 210.756377 
L 231.997762 200.731414 
L 223.673287 201.170617 
L 215.348811 218.060312 
L 207.024336 202.489047 
L 198.69986 224.181043 
L 190.375385 211.23295 
L 182.050909 194.104939 
L 173.726434 221.467728 
L 165.401958 207.356785 
L 157.077483 228.852904 
L 148.753007 249.34371 
L 140.428531 247.179617 
L 132.104056 244.088055 
L 123.77958 239.671538 
L 115.455105 233.362228 
L 107.130629 224.348928 
L 98.806154 211.472785 
L 90.481678 197.768668 
L 82.157203 221.608971 
L 73.832727 217.902306 
z
" style="fill:#2ca02c;fill-opacity:0.3;"/>
   </g>
   <g id="PolyCollection_4">
    <path clip-path="url(#p693052e2ba)" d="M 73.832727 277.590354 
L 73.832727 277.590354 
L 82.157203 274.62042 
L 90.481678 268.552272 
L 98.806154 260.242502 
L 107.130629 258.544346 
L 115.455105 257.299021 
L 123.77958 256.427293 
L 132.104056 255.817083 
L 140.428531 260.411021 
L 148.753007 258.605693 
L 157.077483 260.176984 
L 165.401958 258.441867 
L 173.726434 257.227285 
L 182.050909 268.812607 
L 190.375385 277.701683 
L 198.69986 279.439932 
L 207.024336 259.669405 
L 215.348811 250.72137 
L 223.673287 257.41217 
L 231.997762 239.87601 
L 240.322238 235.70282 
L 248.646713 250.039508 
L 256.971189 213.253153 
L 265.295664 210.908521 
L 273.62014 200.275511 
L 281.944615 207.020132 
L 290.269091 194.851443 
L 298.593566 192.275019 
L 306.918042 196.984875 
L 315.242517 155.629353 
L 323.566993 177.319984 
L 331.891469 170.244956 
L 340.215944 155.174545 
L 348.54042 156.761989 
L 356.864895 139.584905 
L 365.189371 125.667932 
L 373.513846 156.976064 
L 381.838322 121.710726 
L 390.162797 154.064123 
L 398.487273 144.432198 
L 398.487273 144.432198 
L 398.487273 74.264314 
L 390.162797 87.62912 
L 381.838322 53.568 
L 373.513846 57.516445 
L 365.189371 71.298068 
L 356.864895 75.37094 
L 348.54042 90.966893 
L 340.215944 78.329288 
L 331.891469 78.670836 
L 323.566993 107.504636 
L 315.242517 107.275853 
L 306.918042 99.36164 
L 298.593566 121.18705 
L 290.269091 104.17499 
L 281.944615 117.807605 
L 273.62014 105.605733 
L 265.295664 114.605828 
L 256.971189 142.943188 
L 248.646713 146.345002 
L 240.322238 150.982458 
L 231.997762 131.193975 
L 223.673287 149.739417 
L 215.348811 171.595418 
L 207.024336 137.756336 
L 198.69986 164.69349 
L 190.375385 182.137808 
L 182.050909 207.817015 
L 173.726434 241.27404 
L 165.401958 235.651517 
L 157.077483 227.61934 
L 148.753007 228.539602 
L 140.428531 217.459462 
L 132.104056 241.622391 
L 123.77958 236.149161 
L 115.455105 228.330261 
L 107.130629 217.160404 
L 98.806154 221.616177 
L 90.481678 211.916228 
L 82.157203 193.711785 
L 73.832727 184.801984 
z
" style="fill:#d62728;fill-opacity:0.3;"/>
   </g>
   <g id="matplotlib.axis_1">
    <g id="xtick_1">
     <g id="line2d_1">
      <defs>
       <path d="M 0 0 
L 0 3.5 
" id="ma151d80df5" style="stroke:#000000;stroke-width:0.8;"/>
      </defs>
      <g>
       <use style="stroke:#000000;stroke-width:0.8;" x="65.508252" xlink:href="#ma151d80df5" y="307.584"/>
      </g>
     </g>
     <g id="text_1">
      <!-- 0 -->
      <g transform="translate(62.327002 322.182437)scale(0.1 -0.1)">
       <defs>
        <path d="M 2034 4250 
Q 1547 4250 1301 3770 
Q 1056 3291 1056 2328 
Q 1056 1369 1301 889 
Q 1547 409 2034 409 
Q 2525 409 2770 889 
Q 3016 1369 3016 2328 
Q 3016 3291 2770 3770 
Q 2525 4250 2034 4250 
z
M 2034 4750 
Q 2819 4750 3233 4129 
Q 3647 3509 3647 2328 
Q 3647 1150 3233 529 
Q 2819 -91 2034 -91 
Q 1250 -91 836 529 
Q 422 1150 422 2328 
Q 422 3509 836 4129 
Q 1250 4750 2034 4750 
z
" id="DejaVuSans-30" transform="scale(0.015625)"/>
       </defs>
       <use xlink:href="#DejaVuSans-30"/>
      </g>
     </g>
    </g>
    <g id="xtick_2">
     <g id="line2d_2">
      <g>
       <use style="stroke:#000000;stroke-width:0.8;" x="107.130629" xlink:href="#ma151d80df5" y="307.584"/>
      </g>
     </g>
     <g id="text_2">
      <!-- 50 -->
      <g transform="translate(100.768129 322.182437)scale(0.1 -0.1)">
       <defs>
        <path d="M 691 4666 
L 3169 4666 
L 3169 4134 
L 1269 4134 
L 1269 2991 
Q 1406 3038 1543 3061 
Q 1681 3084 1819 3084 
Q 2600 3084 3056 2656 
Q 3513 2228 3513 1497 
Q 3513 744 3044 326 
Q 2575 -91 1722 -91 
Q 1428 -91 1123 -41 
Q 819 9 494 109 
L 494 744 
Q 775 591 1075 516 
Q 1375 441 1709 441 
Q 2250 441 2565 725 
Q 2881 1009 2881 1497 
Q 2881 1984 2565 2268 
Q 2250 2553 1709 2553 
Q 1456 2553 1204 2497 
Q 953 2441 691 2322 
L 691 4666 
z
" id="DejaVuSans-35" transform="scale(0.015625)"/>
       </defs>
       <use xlink:href="#DejaVuSans-35"/>
       <use x="63.623047" xlink:href="#DejaVuSans-30"/>
      </g>
     </g>
    </g>
    <g id="xtick_3">
     <g id="line2d_3">
      <g>
       <use style="stroke:#000000;stroke-width:0.8;" x="148.753007" xlink:href="#ma151d80df5" y="307.584"/>
      </g>
     </g>
     <g id="text_3">
      <!-- 100 -->
      <g transform="translate(139.209257 322.182437)scale(0.1 -0.1)">
       <defs>
        <path d="M 794 531 
L 1825 531 
L 1825 4091 
L 703 3866 
L 703 4441 
L 1819 4666 
L 2450 4666 
L 2450 531 
L 3481 531 
L 3481 0 
L 794 0 
L 794 531 
z
" id="DejaVuSans-31" transform="scale(0.015625)"/>
       </defs>
       <use xlink:href="#DejaVuSans-31"/>
       <use x="63.623047" xlink:href="#DejaVuSans-30"/>
       <use x="127.246094" xlink:href="#DejaVuSans-30"/>
      </g>
     </g>
    </g>
    <g id="xtick_4">
     <g id="line2d_4">
      <g>
       <use style="stroke:#000000;stroke-width:0.8;" x="190.375385" xlink:href="#ma151d80df5" y="307.584"/>
      </g>
     </g>
     <g id="text_4">
      <!-- 150 -->
      <g transform="translate(180.831635 322.182437)scale(0.1 -0.1)">
       <use xlink:href="#DejaVuSans-31"/>
       <use x="63.623047" xlink:href="#DejaVuSans-35"/>
       <use x="127.246094" xlink:href="#DejaVuSans-30"/>
      </g>
     </g>
    </g>
    <g id="xtick_5">
     <g id="line2d_5">
      <g>
       <use style="stroke:#000000;stroke-width:0.8;" x="231.997762" xlink:href="#ma151d80df5" y="307.584"/>
      </g>
     </g>
     <g id="text_5">
      <!-- 200 -->
      <g transform="translate(222.454012 322.182437)scale(0.1 -0.1)">
       <defs>
        <path d="M 1228 531 
L 3431 531 
L 3431 0 
L 469 0 
L 469 531 
Q 828 903 1448 1529 
Q 2069 2156 2228 2338 
Q 2531 2678 2651 2914 
Q 2772 3150 2772 3378 
Q 2772 3750 2511 3984 
Q 2250 4219 1831 4219 
Q 1534 4219 1204 4116 
Q 875 4013 500 3803 
L 500 4441 
Q 881 4594 1212 4672 
Q 1544 4750 1819 4750 
Q 2544 4750 2975 4387 
Q 3406 4025 3406 3419 
Q 3406 3131 3298 2873 
Q 3191 2616 2906 2266 
Q 2828 2175 2409 1742 
Q 1991 1309 1228 531 
z
" id="DejaVuSans-32" transform="scale(0.015625)"/>
       </defs>
       <use xlink:href="#DejaVuSans-32"/>
       <use x="63.623047" xlink:href="#DejaVuSans-30"/>
       <use x="127.246094" xlink:href="#DejaVuSans-30"/>
      </g>
     </g>
    </g>
    <g id="xtick_6">
     <g id="line2d_6">
      <g>
       <use style="stroke:#000000;stroke-width:0.8;" x="273.62014" xlink:href="#ma151d80df5" y="307.584"/>
      </g>
     </g>
     <g id="text_6">
      <!-- 250 -->
      <g transform="translate(264.07639 322.182437)scale(0.1 -0.1)">
       <use xlink:href="#DejaVuSans-32"/>
       <use x="63.623047" xlink:href="#DejaVuSans-35"/>
       <use x="127.246094" xlink:href="#DejaVuSans-30"/>
      </g>
     </g>
    </g>
    <g id="xtick_7">
     <g id="line2d_7">
      <g>
       <use style="stroke:#000000;stroke-width:0.8;" x="315.242517" xlink:href="#ma151d80df5" y="307.584"/>
      </g>
     </g>
     <g id="text_7">
      <!-- 300 -->
      <g transform="translate(305.698767 322.182437)scale(0.1 -0.1)">
       <defs>
        <path d="M 2597 2516 
Q 3050 2419 3304 2112 
Q 3559 1806 3559 1356 
Q 3559 666 3084 287 
Q 2609 -91 1734 -91 
Q 1441 -91 1130 -33 
Q 819 25 488 141 
L 488 750 
Q 750 597 1062 519 
Q 1375 441 1716 441 
Q 2309 441 2620 675 
Q 2931 909 2931 1356 
Q 2931 1769 2642 2001 
Q 2353 2234 1838 2234 
L 1294 2234 
L 1294 2753 
L 1863 2753 
Q 2328 2753 2575 2939 
Q 2822 3125 2822 3475 
Q 2822 3834 2567 4026 
Q 2313 4219 1838 4219 
Q 1578 4219 1281 4162 
Q 984 4106 628 3988 
L 628 4550 
Q 988 4650 1302 4700 
Q 1616 4750 1894 4750 
Q 2613 4750 3031 4423 
Q 3450 4097 3450 3541 
Q 3450 3153 3228 2886 
Q 3006 2619 2597 2516 
z
" id="DejaVuSans-33" transform="scale(0.015625)"/>
       </defs>
       <use xlink:href="#DejaVuSans-33"/>
       <use x="63.623047" xlink:href="#DejaVuSans-30"/>
       <use x="127.246094" xlink:href="#DejaVuSans-30"/>
      </g>
     </g>
    </g>
    <g id="xtick_8">
     <g id="line2d_8">
      <g>
       <use style="stroke:#000000;stroke-width:0.8;" x="356.864895" xlink:href="#ma151d80df5" y="307.584"/>
      </g>
     </g>
     <g id="text_8">
      <!-- 350 -->
      <g transform="translate(347.321145 322.182437)scale(0.1 -0.1)">
       <use xlink:href="#DejaVuSans-33"/>
       <use x="63.623047" xlink:href="#DejaVuSans-35"/>
       <use x="127.246094" xlink:href="#DejaVuSans-30"/>
      </g>
     </g>
    </g>
    <g id="xtick_9">
     <g id="line2d_9">
      <g>
       <use style="stroke:#000000;stroke-width:0.8;" x="398.487273" xlink:href="#ma151d80df5" y="307.584"/>
      </g>
     </g>
     <g id="text_9">
      <!-- 400 -->
      <g transform="translate(388.943523 322.182437)scale(0.1 -0.1)">
       <defs>
        <path d="M 2419 4116 
L 825 1625 
L 2419 1625 
L 2419 4116 
z
M 2253 4666 
L 3047 4666 
L 3047 1625 
L 3713 1625 
L 3713 1100 
L 3047 1100 
L 3047 0 
L 2419 0 
L 2419 1100 
L 313 1100 
L 313 1709 
L 2253 4666 
z
" id="DejaVuSans-34" transform="scale(0.015625)"/>
       </defs>
       <use xlink:href="#DejaVuSans-34"/>
       <use x="63.623047" xlink:href="#DejaVuSans-30"/>
       <use x="127.246094" xlink:href="#DejaVuSans-30"/>
      </g>
     </g>
    </g>
   </g>
   <g id="matplotlib.axis_2">
    <g id="ytick_1">
     <g id="line2d_10">
      <defs>
       <path d="M 0 0 
L -3.5 0 
" id="m79cab650c6" style="stroke:#000000;stroke-width:0.8;"/>
      </defs>
      <g>
       <use style="stroke:#000000;stroke-width:0.8;" x="57.6" xlink:href="#m79cab650c6" y="293.538553"/>
      </g>
     </g>
     <g id="text_10">
      <!-- −450 -->
      <g transform="translate(23.132812 297.337772)scale(0.1 -0.1)">
       <defs>
        <path d="M 678 2272 
L 4684 2272 
L 4684 1741 
L 678 1741 
L 678 2272 
z
" id="DejaVuSans-2212" transform="scale(0.015625)"/>
       </defs>
       <use xlink:href="#DejaVuSans-2212"/>
       <use x="83.789062" xlink:href="#DejaVuSans-34"/>
       <use x="147.412109" xlink:href="#DejaVuSans-35"/>
       <use x="211.035156" xlink:href="#DejaVuSans-30"/>
      </g>
     </g>
    </g>
    <g id="ytick_2">
     <g id="line2d_11">
      <g>
       <use style="stroke:#000000;stroke-width:0.8;" x="57.6" xlink:href="#m79cab650c6" y="258.82232"/>
      </g>
     </g>
     <g id="text_11">
      <!-- −400 -->
      <g transform="translate(23.132812 262.621539)scale(0.1 -0.1)">
       <use xlink:href="#DejaVuSans-2212"/>
       <use x="83.789062" xlink:href="#DejaVuSans-34"/>
       <use x="147.412109" xlink:href="#DejaVuSans-30"/>
       <use x="211.035156" xlink:href="#DejaVuSans-30"/>
      </g>
     </g>
    </g>
    <g id="ytick_3">
     <g id="line2d_12">
      <g>
       <use style="stroke:#000000;stroke-width:0.8;" x="57.6" xlink:href="#m79cab650c6" y="224.106087"/>
      </g>
     </g>
     <g id="text_12">
      <!-- −350 -->
      <g transform="translate(23.132812 227.905306)scale(0.1 -0.1)">
       <use xlink:href="#DejaVuSans-2212"/>
       <use x="83.789062" xlink:href="#DejaVuSans-33"/>
       <use x="147.412109" xlink:href="#DejaVuSans-35"/>
       <use x="211.035156" xlink:href="#DejaVuSans-30"/>
      </g>
     </g>
    </g>
    <g id="ytick_4">
     <g id="line2d_13">
      <g>
       <use style="stroke:#000000;stroke-width:0.8;" x="57.6" xlink:href="#m79cab650c6" y="189.389854"/>
      </g>
     </g>
     <g id="text_13">
      <!-- −300 -->
      <g transform="translate(23.132812 193.189073)scale(0.1 -0.1)">
       <use xlink:href="#DejaVuSans-2212"/>
       <use x="83.789062" xlink:href="#DejaVuSans-33"/>
       <use x="147.412109" xlink:href="#DejaVuSans-30"/>
       <use x="211.035156" xlink:href="#DejaVuSans-30"/>
      </g>
     </g>
    </g>
    <g id="ytick_5">
     <g id="line2d_14">
      <g>
       <use style="stroke:#000000;stroke-width:0.8;" x="57.6" xlink:href="#m79cab650c6" y="154.673622"/>
      </g>
     </g>
     <g id="text_14">
      <!-- −250 -->
      <g transform="translate(23.132812 158.47284)scale(0.1 -0.1)">
       <use xlink:href="#DejaVuSans-2212"/>
       <use x="83.789062" xlink:href="#DejaVuSans-32"/>
       <use x="147.412109" xlink:href="#DejaVuSans-35"/>
       <use x="211.035156" xlink:href="#DejaVuSans-30"/>
      </g>
     </g>
    </g>
    <g id="ytick_6">
     <g id="line2d_15">
      <g>
       <use style="stroke:#000000;stroke-width:0.8;" x="57.6" xlink:href="#m79cab650c6" y="119.957389"/>
      </g>
     </g>
     <g id="text_15">
      <!-- −200 -->
      <g transform="translate(23.132812 123.756608)scale(0.1 -0.1)">
       <use xlink:href="#DejaVuSans-2212"/>
       <use x="83.789062" xlink:href="#DejaVuSans-32"/>
       <use x="147.412109" xlink:href="#DejaVuSans-30"/>
       <use x="211.035156" xlink:href="#DejaVuSans-30"/>
      </g>
     </g>
    </g>
    <g id="ytick_7">
     <g id="line2d_16">
      <g>
       <use style="stroke:#000000;stroke-width:0.8;" x="57.6" xlink:href="#m79cab650c6" y="85.241156"/>
      </g>
     </g>
     <g id="text_16">
      <!-- −150 -->
      <g transform="translate(23.132812 89.040375)scale(0.1 -0.1)">
       <use xlink:href="#DejaVuSans-2212"/>
       <use x="83.789062" xlink:href="#DejaVuSans-31"/>
       <use x="147.412109" xlink:href="#DejaVuSans-35"/>
       <use x="211.035156" xlink:href="#DejaVuSans-30"/>
      </g>
     </g>
    </g>
    <g id="ytick_8">
     <g id="line2d_17">
      <g>
       <use style="stroke:#000000;stroke-width:0.8;" x="57.6" xlink:href="#m79cab650c6" y="50.524923"/>
      </g>
     </g>
     <g id="text_17">
      <!-- −100 -->
      <g transform="translate(23.132812 54.324142)scale(0.1 -0.1)">
       <use xlink:href="#DejaVuSans-2212"/>
       <use x="83.789062" xlink:href="#DejaVuSans-31"/>
       <use x="147.412109" xlink:href="#DejaVuSans-30"/>
       <use x="211.035156" xlink:href="#DejaVuSans-30"/>
      </g>
     </g>
    </g>
   </g>
   <g id="line2d_18">
    <path clip-path="url(#p693052e2ba)" d="M 73.832727 249.823892 
L 82.157203 251.194703 
L 90.481678 252.15427 
L 98.806154 242.755042 
L 107.130629 235.133005 
L 115.455105 240.911082 
L 123.77958 244.955736 
L 132.104056 240.930236 
L 140.428531 244.969143 
L 148.753007 247.796379 
L 157.077483 249.775443 
L 165.401958 238.287723 
L 173.726434 233.245829 
L 182.050909 239.590059 
L 190.375385 244.03102 
L 198.69986 247.139692 
L 207.024336 249.315763 
L 215.348811 237.610192 
L 223.673287 214.952782 
L 231.997762 217.709428 
L 240.322238 209.038042 
L 248.646713 222.644608 
L 256.971189 232.169204 
L 265.295664 238.836421 
L 273.62014 218.632652 
L 281.944615 229.360835 
L 290.269091 224.390654 
L 298.593566 217.438508 
L 306.918042 213.202616 
L 315.242517 199.558125 
L 323.566993 213.552427 
L 331.891469 225.804677 
L 340.215944 229.294766 
L 348.54042 227.003608 
L 356.864895 223.945983 
L 365.189371 210.788698 
L 373.513846 217.247724 
L 381.838322 210.106974 
L 390.162797 223.39286 
L 398.487273 232.69298 
" style="fill:none;stroke:#1f77b4;stroke-linecap:square;stroke-width:1.5;"/>
   </g>
   <g id="line2d_19">
    <path clip-path="url(#p693052e2ba)" d="M 73.832727 213.298523 
L 82.157203 225.626944 
L 90.481678 234.256839 
L 98.806154 240.297766 
L 107.130629 244.526415 
L 115.455105 247.486469 
L 123.77958 242.246932 
L 132.104056 245.89083 
L 140.428531 248.44156 
L 148.753007 250.22707 
L 157.077483 251.476928 
L 165.401958 250.000028 
L 173.726434 251.317998 
L 182.050909 247.416485 
L 190.375385 249.509518 
L 198.69986 250.974641 
L 207.024336 252.000227 
L 215.348811 249.418689 
L 223.673287 250.91106 
L 231.997762 251.955721 
L 240.322238 252.686983 
L 248.646713 253.198866 
L 256.971189 253.557185 
L 265.295664 253.808008 
L 273.62014 253.983584 
L 281.944615 254.106487 
L 290.269091 254.192519 
L 298.593566 251.552221 
L 306.918042 252.404533 
L 315.242517 241.44217 
L 323.566993 245.327498 
L 331.891469 248.047227 
L 340.215944 249.951037 
L 348.54042 235.317593 
L 356.864895 234.951786 
L 365.189371 228.152971 
L 373.513846 210.527352 
L 381.838322 211.460765 
L 390.162797 211.449898 
L 398.487273 198.405245 
" style="fill:none;stroke:#ff7f0e;stroke-linecap:square;stroke-width:1.5;"/>
   </g>
   <g id="line2d_20">
    <path clip-path="url(#p693052e2ba)" d="M 73.832727 242.22961 
L 82.157203 239.849604 
L 90.481678 228.902464 
L 98.806154 232.458641 
L 107.130629 239.039027 
L 115.455105 243.645298 
L 123.77958 246.869687 
L 132.104056 249.126759 
L 140.428531 250.70671 
L 148.753007 251.812675 
L 157.077483 244.779565 
L 165.401958 234.119299 
L 173.726434 240.201487 
L 182.050909 219.570675 
L 190.375385 227.746691 
L 198.69986 235.740662 
L 207.024336 229.985397 
L 215.348811 237.307757 
L 223.673287 233.080991 
L 231.997762 227.488929 
L 240.322238 233.005693 
L 248.646713 239.421963 
L 256.971189 226.84961 
L 265.295664 222.641711 
L 273.62014 197.664338 
L 281.944615 214.683015 
L 290.269091 226.596089 
L 298.593566 210.4398 
L 306.918042 178.726237 
L 315.242517 186.902969 
L 323.566993 168.758188 
L 331.891469 156.109694 
L 340.215944 172.408216 
L 348.54042 178.766144 
L 356.864895 171.736625 
L 365.189371 158.709608 
L 373.513846 138.21779 
L 381.838322 149.618313 
L 390.162797 147.472892 
L 398.487273 136.144553 
" style="fill:none;stroke:#2ca02c;stroke-linecap:square;stroke-width:1.5;"/>
   </g>
   <g id="line2d_21">
    <path clip-path="url(#p693052e2ba)" d="M 73.832727 231.196169 
L 82.157203 234.166103 
L 90.481678 240.23425 
L 98.806154 240.92934 
L 107.130629 237.852375 
L 115.455105 242.814641 
L 123.77958 246.288227 
L 132.104056 248.719737 
L 140.428531 238.935242 
L 148.753007 243.572648 
L 157.077483 243.898162 
L 165.401958 247.046692 
L 173.726434 249.250663 
L 182.050909 238.314811 
L 190.375385 229.919746 
L 198.69986 222.066711 
L 207.024336 198.712871 
L 215.348811 211.158394 
L 223.673287 203.575793 
L 231.997762 185.534992 
L 240.322238 193.342639 
L 248.646713 198.192255 
L 256.971189 178.098171 
L 265.295664 162.757174 
L 273.62014 152.940622 
L 281.944615 162.413869 
L 290.269091 149.513217 
L 298.593566 156.731035 
L 306.918042 148.173258 
L 315.242517 131.452603 
L 323.566993 142.41231 
L 331.891469 124.457896 
L 340.215944 116.751916 
L 348.54042 123.864441 
L 356.864895 107.477922 
L 365.189371 98.483 
L 373.513846 107.246254 
L 381.838322 87.639363 
L 390.162797 120.846622 
L 398.487273 109.348256 
" style="fill:none;stroke:#d62728;stroke-linecap:square;stroke-width:1.5;"/>
   </g>
   <g id="patch_3">
    <path d="M 57.6 307.584 
L 57.6 41.472 
" style="fill:none;stroke:#000000;stroke-linecap:square;stroke-linejoin:miter;stroke-width:0.8;"/>
   </g>
   <g id="patch_4">
    <path d="M 414.72 307.584 
L 414.72 41.472 
" style="fill:none;stroke:#000000;stroke-linecap:square;stroke-linejoin:miter;stroke-width:0.8;"/>
   </g>
   <g id="patch_5">
    <path d="M 57.6 307.584 
L 414.72 307.584 
" style="fill:none;stroke:#000000;stroke-linecap:square;stroke-linejoin:miter;stroke-width:0.8;"/>
   </g>
   <g id="patch_6">
    <path d="M 57.6 41.472 
L 414.72 41.472 
" style="fill:none;stroke:#000000;stroke-linecap:square;stroke-linejoin:miter;stroke-width:0.8;"/>
   </g>
   <g id="legend_1">
    <g id="patch_7">
     <path d="M 64.6 108.1845 
L 197.304688 108.1845 
Q 199.304688 108.1845 199.304688 106.1845 
L 199.304688 48.472 
Q 199.304688 46.472 197.304688 46.472 
L 64.6 46.472 
Q 62.6 46.472 62.6 48.472 
L 62.6 106.1845 
Q 62.6 108.1845 64.6 108.1845 
z
" style="fill:#ffffff;opacity:0.8;stroke:#cccccc;stroke-linejoin:miter;"/>
    </g>
    <g id="line2d_22">
     <path d="M 66.6 54.570438 
L 86.6 54.570438 
" style="fill:none;stroke:#1f77b4;stroke-linecap:square;stroke-width:1.5;"/>
    </g>
    <g id="line2d_23"/>
    <g id="text_18">
     <!-- DQN -->
     <g transform="translate(94.6 58.070438)scale(0.1 -0.1)">
      <defs>
       <path d="M 1259 4147 
L 1259 519 
L 2022 519 
Q 2988 519 3436 956 
Q 3884 1394 3884 2338 
Q 3884 3275 3436 3711 
Q 2988 4147 2022 4147 
L 1259 4147 
z
M 628 4666 
L 1925 4666 
Q 3281 4666 3915 4102 
Q 4550 3538 4550 2338 
Q 4550 1131 3912 565 
Q 3275 0 1925 0 
L 628 0 
L 628 4666 
z
" id="DejaVuSans-44" transform="scale(0.015625)"/>
       <path d="M 2522 4238 
Q 1834 4238 1429 3725 
Q 1025 3213 1025 2328 
Q 1025 1447 1429 934 
Q 1834 422 2522 422 
Q 3209 422 3611 934 
Q 4013 1447 4013 2328 
Q 4013 3213 3611 3725 
Q 3209 4238 2522 4238 
z
M 3406 84 
L 4238 -825 
L 3475 -825 
L 2784 -78 
Q 2681 -84 2626 -87 
Q 2572 -91 2522 -91 
Q 1538 -91 948 567 
Q 359 1225 359 2328 
Q 359 3434 948 4092 
Q 1538 4750 2522 4750 
Q 3503 4750 4090 4092 
Q 4678 3434 4678 2328 
Q 4678 1516 4351 937 
Q 4025 359 3406 84 
z
" id="DejaVuSans-51" transform="scale(0.015625)"/>
       <path d="M 628 4666 
L 1478 4666 
L 3547 763 
L 3547 4666 
L 4159 4666 
L 4159 0 
L 3309 0 
L 1241 3903 
L 1241 0 
L 628 0 
L 628 4666 
z
" id="DejaVuSans-4e" transform="scale(0.015625)"/>
      </defs>
      <use xlink:href="#DejaVuSans-44"/>
      <use x="77.001953" xlink:href="#DejaVuSans-51"/>
      <use x="155.712891" xlink:href="#DejaVuSans-4e"/>
     </g>
    </g>
    <g id="line2d_24">
     <path d="M 66.6 69.248563 
L 86.6 69.248563 
" style="fill:none;stroke:#ff7f0e;stroke-linecap:square;stroke-width:1.5;"/>
    </g>
    <g id="line2d_25"/>
    <g id="text_19">
     <!-- BacktrackDQN -->
     <g transform="translate(94.6 72.748563)scale(0.1 -0.1)">
      <defs>
       <path d="M 1259 2228 
L 1259 519 
L 2272 519 
Q 2781 519 3026 730 
Q 3272 941 3272 1375 
Q 3272 1813 3026 2020 
Q 2781 2228 2272 2228 
L 1259 2228 
z
M 1259 4147 
L 1259 2741 
L 2194 2741 
Q 2656 2741 2882 2914 
Q 3109 3088 3109 3444 
Q 3109 3797 2882 3972 
Q 2656 4147 2194 4147 
L 1259 4147 
z
M 628 4666 
L 2241 4666 
Q 2963 4666 3353 4366 
Q 3744 4066 3744 3513 
Q 3744 3084 3544 2831 
Q 3344 2578 2956 2516 
Q 3422 2416 3680 2098 
Q 3938 1781 3938 1306 
Q 3938 681 3513 340 
Q 3088 0 2303 0 
L 628 0 
L 628 4666 
z
" id="DejaVuSans-42" transform="scale(0.015625)"/>
       <path d="M 2194 1759 
Q 1497 1759 1228 1600 
Q 959 1441 959 1056 
Q 959 750 1161 570 
Q 1363 391 1709 391 
Q 2188 391 2477 730 
Q 2766 1069 2766 1631 
L 2766 1759 
L 2194 1759 
z
M 3341 1997 
L 3341 0 
L 2766 0 
L 2766 531 
Q 2569 213 2275 61 
Q 1981 -91 1556 -91 
Q 1019 -91 701 211 
Q 384 513 384 1019 
Q 384 1609 779 1909 
Q 1175 2209 1959 2209 
L 2766 2209 
L 2766 2266 
Q 2766 2663 2505 2880 
Q 2244 3097 1772 3097 
Q 1472 3097 1187 3025 
Q 903 2953 641 2809 
L 641 3341 
Q 956 3463 1253 3523 
Q 1550 3584 1831 3584 
Q 2591 3584 2966 3190 
Q 3341 2797 3341 1997 
z
" id="DejaVuSans-61" transform="scale(0.015625)"/>
       <path d="M 3122 3366 
L 3122 2828 
Q 2878 2963 2633 3030 
Q 2388 3097 2138 3097 
Q 1578 3097 1268 2742 
Q 959 2388 959 1747 
Q 959 1106 1268 751 
Q 1578 397 2138 397 
Q 2388 397 2633 464 
Q 2878 531 3122 666 
L 3122 134 
Q 2881 22 2623 -34 
Q 2366 -91 2075 -91 
Q 1284 -91 818 406 
Q 353 903 353 1747 
Q 353 2603 823 3093 
Q 1294 3584 2113 3584 
Q 2378 3584 2631 3529 
Q 2884 3475 3122 3366 
z
" id="DejaVuSans-63" transform="scale(0.015625)"/>
       <path d="M 581 4863 
L 1159 4863 
L 1159 1991 
L 2875 3500 
L 3609 3500 
L 1753 1863 
L 3688 0 
L 2938 0 
L 1159 1709 
L 1159 0 
L 581 0 
L 581 4863 
z
" id="DejaVuSans-6b" transform="scale(0.015625)"/>
       <path d="M 1172 4494 
L 1172 3500 
L 2356 3500 
L 2356 3053 
L 1172 3053 
L 1172 1153 
Q 1172 725 1289 603 
Q 1406 481 1766 481 
L 2356 481 
L 2356 0 
L 1766 0 
Q 1100 0 847 248 
Q 594 497 594 1153 
L 594 3053 
L 172 3053 
L 172 3500 
L 594 3500 
L 594 4494 
L 1172 4494 
z
" id="DejaVuSans-74" transform="scale(0.015625)"/>
       <path d="M 2631 2963 
Q 2534 3019 2420 3045 
Q 2306 3072 2169 3072 
Q 1681 3072 1420 2755 
Q 1159 2438 1159 1844 
L 1159 0 
L 581 0 
L 581 3500 
L 1159 3500 
L 1159 2956 
Q 1341 3275 1631 3429 
Q 1922 3584 2338 3584 
Q 2397 3584 2469 3576 
Q 2541 3569 2628 3553 
L 2631 2963 
z
" id="DejaVuSans-72" transform="scale(0.015625)"/>
      </defs>
      <use xlink:href="#DejaVuSans-42"/>
      <use x="68.603516" xlink:href="#DejaVuSans-61"/>
      <use x="129.882812" xlink:href="#DejaVuSans-63"/>
      <use x="184.863281" xlink:href="#DejaVuSans-6b"/>
      <use x="242.773438" xlink:href="#DejaVuSans-74"/>
      <use x="281.982422" xlink:href="#DejaVuSans-72"/>
      <use x="323.095703" xlink:href="#DejaVuSans-61"/>
      <use x="384.375" xlink:href="#DejaVuSans-63"/>
      <use x="439.355469" xlink:href="#DejaVuSans-6b"/>
      <use x="497.265625" xlink:href="#DejaVuSans-44"/>
      <use x="574.267578" xlink:href="#DejaVuSans-51"/>
      <use x="652.978516" xlink:href="#DejaVuSans-4e"/>
     </g>
    </g>
    <g id="line2d_26">
     <path d="M 66.6 83.926688 
L 86.6 83.926688 
" style="fill:none;stroke:#2ca02c;stroke-linecap:square;stroke-width:1.5;"/>
    </g>
    <g id="line2d_27"/>
    <g id="text_20">
     <!-- MultiBatchDQN -->
     <g transform="translate(94.6 87.426688)scale(0.1 -0.1)">
      <defs>
       <path d="M 628 4666 
L 1569 4666 
L 2759 1491 
L 3956 4666 
L 4897 4666 
L 4897 0 
L 4281 0 
L 4281 4097 
L 3078 897 
L 2444 897 
L 1241 4097 
L 1241 0 
L 628 0 
L 628 4666 
z
" id="DejaVuSans-4d" transform="scale(0.015625)"/>
       <path d="M 544 1381 
L 544 3500 
L 1119 3500 
L 1119 1403 
Q 1119 906 1312 657 
Q 1506 409 1894 409 
Q 2359 409 2629 706 
Q 2900 1003 2900 1516 
L 2900 3500 
L 3475 3500 
L 3475 0 
L 2900 0 
L 2900 538 
Q 2691 219 2414 64 
Q 2138 -91 1772 -91 
Q 1169 -91 856 284 
Q 544 659 544 1381 
z
M 1991 3584 
L 1991 3584 
z
" id="DejaVuSans-75" transform="scale(0.015625)"/>
       <path d="M 603 4863 
L 1178 4863 
L 1178 0 
L 603 0 
L 603 4863 
z
" id="DejaVuSans-6c" transform="scale(0.015625)"/>
       <path d="M 603 3500 
L 1178 3500 
L 1178 0 
L 603 0 
L 603 3500 
z
M 603 4863 
L 1178 4863 
L 1178 4134 
L 603 4134 
L 603 4863 
z
" id="DejaVuSans-69" transform="scale(0.015625)"/>
       <path d="M 3513 2113 
L 3513 0 
L 2938 0 
L 2938 2094 
Q 2938 2591 2744 2837 
Q 2550 3084 2163 3084 
Q 1697 3084 1428 2787 
Q 1159 2491 1159 1978 
L 1159 0 
L 581 0 
L 581 4863 
L 1159 4863 
L 1159 2956 
Q 1366 3272 1645 3428 
Q 1925 3584 2291 3584 
Q 2894 3584 3203 3211 
Q 3513 2838 3513 2113 
z
" id="DejaVuSans-68" transform="scale(0.015625)"/>
      </defs>
      <use xlink:href="#DejaVuSans-4d"/>
      <use x="86.279297" xlink:href="#DejaVuSans-75"/>
      <use x="149.658203" xlink:href="#DejaVuSans-6c"/>
      <use x="177.441406" xlink:href="#DejaVuSans-74"/>
      <use x="216.650391" xlink:href="#DejaVuSans-69"/>
      <use x="244.433594" xlink:href="#DejaVuSans-42"/>
      <use x="313.037109" xlink:href="#DejaVuSans-61"/>
      <use x="374.316406" xlink:href="#DejaVuSans-74"/>
      <use x="413.525391" xlink:href="#DejaVuSans-63"/>
      <use x="468.505859" xlink:href="#DejaVuSans-68"/>
      <use x="531.884766" xlink:href="#DejaVuSans-44"/>
      <use x="608.886719" xlink:href="#DejaVuSans-51"/>
      <use x="687.597656" xlink:href="#DejaVuSans-4e"/>
     </g>
    </g>
    <g id="line2d_28">
     <path d="M 66.6 98.604813 
L 86.6 98.604813 
" style="fill:none;stroke:#d62728;stroke-linecap:square;stroke-width:1.5;"/>
    </g>
    <g id="line2d_29"/>
    <g id="text_21">
     <!-- BacktrackSarsaDQN -->
     <g transform="translate(94.6 102.104813)scale(0.1 -0.1)">
      <defs>
       <path d="M 3425 4513 
L 3425 3897 
Q 3066 4069 2747 4153 
Q 2428 4238 2131 4238 
Q 1616 4238 1336 4038 
Q 1056 3838 1056 3469 
Q 1056 3159 1242 3001 
Q 1428 2844 1947 2747 
L 2328 2669 
Q 3034 2534 3370 2195 
Q 3706 1856 3706 1288 
Q 3706 609 3251 259 
Q 2797 -91 1919 -91 
Q 1588 -91 1214 -16 
Q 841 59 441 206 
L 441 856 
Q 825 641 1194 531 
Q 1563 422 1919 422 
Q 2459 422 2753 634 
Q 3047 847 3047 1241 
Q 3047 1584 2836 1778 
Q 2625 1972 2144 2069 
L 1759 2144 
Q 1053 2284 737 2584 
Q 422 2884 422 3419 
Q 422 4038 858 4394 
Q 1294 4750 2059 4750 
Q 2388 4750 2728 4690 
Q 3069 4631 3425 4513 
z
" id="DejaVuSans-53" transform="scale(0.015625)"/>
       <path d="M 2834 3397 
L 2834 2853 
Q 2591 2978 2328 3040 
Q 2066 3103 1784 3103 
Q 1356 3103 1142 2972 
Q 928 2841 928 2578 
Q 928 2378 1081 2264 
Q 1234 2150 1697 2047 
L 1894 2003 
Q 2506 1872 2764 1633 
Q 3022 1394 3022 966 
Q 3022 478 2636 193 
Q 2250 -91 1575 -91 
Q 1294 -91 989 -36 
Q 684 19 347 128 
L 347 722 
Q 666 556 975 473 
Q 1284 391 1588 391 
Q 1994 391 2212 530 
Q 2431 669 2431 922 
Q 2431 1156 2273 1281 
Q 2116 1406 1581 1522 
L 1381 1569 
Q 847 1681 609 1914 
Q 372 2147 372 2553 
Q 372 3047 722 3315 
Q 1072 3584 1716 3584 
Q 2034 3584 2315 3537 
Q 2597 3491 2834 3397 
z
" id="DejaVuSans-73" transform="scale(0.015625)"/>
      </defs>
      <use xlink:href="#DejaVuSans-42"/>
      <use x="68.603516" xlink:href="#DejaVuSans-61"/>
      <use x="129.882812" xlink:href="#DejaVuSans-63"/>
      <use x="184.863281" xlink:href="#DejaVuSans-6b"/>
      <use x="242.773438" xlink:href="#DejaVuSans-74"/>
      <use x="281.982422" xlink:href="#DejaVuSans-72"/>
      <use x="323.095703" xlink:href="#DejaVuSans-61"/>
      <use x="384.375" xlink:href="#DejaVuSans-63"/>
      <use x="439.355469" xlink:href="#DejaVuSans-6b"/>
      <use x="497.265625" xlink:href="#DejaVuSans-53"/>
      <use x="560.742188" xlink:href="#DejaVuSans-61"/>
      <use x="622.021484" xlink:href="#DejaVuSans-72"/>
      <use x="663.134766" xlink:href="#DejaVuSans-73"/>
      <use x="715.234375" xlink:href="#DejaVuSans-61"/>
      <use x="776.513672" xlink:href="#DejaVuSans-44"/>
      <use x="853.515625" xlink:href="#DejaVuSans-51"/>
      <use x="932.226562" xlink:href="#DejaVuSans-4e"/>
     </g>
    </g>
   </g>
  </g>
 </g>
 <defs>
  <clipPath id="p693052e2ba">
   <rect height="266.112" width="357.12" x="57.6" y="41.472"/>
  </clipPath>
 </defs>
</svg>
