<?xml version="1.0" encoding="utf-8" standalone="no"?>
<!DOCTYPE svg PUBLIC "-//W3C//DTD SVG 1.1//EN"
  "http://www.w3.org/Graphics/SVG/1.1/DTD/svg11.dtd">
<svg height="345.6pt" version="1.1" viewBox="0 0 460.8 345.6" width="460.8pt" xmlns="http://www.w3.org/2000/svg" xmlns:xlink="http://www.w3.org/1999/xlink">
 <metadata>
  <rdf:RDF xmlns:cc="http://creativecommons.org/ns#" xmlns:dc="http://purl.org/dc/elements/1.1/" xmlns:rdf="http://www.w3.org/1999/02/22-rdf-syntax-ns#">
   <cc:Work>
    <dc:type rdf:resource="http://purl.org/dc/dcmitype/StillImage"/>
    <dc:date>2022-01-04T00:01:42.857075</dc:date>
    <dc:format>image/svg+xml</dc:format>
    <dc:creator>
     <cc:Agent>
      <dc:title>Matplotlib v3.4.3, https://matplotlib.org/</dc:title>
     </cc:Agent>
    </dc:creator>
   </cc:Work>
  </rdf:RDF>
 </metadata>
 <defs>
  <style type="text/css">*{stroke-linecap:butt;stroke-linejoin:round;}</style>
 </defs>
 <g id="figure_1">
  <g id="patch_1">
   <path d="M 0 345.6 
L 460.8 345.6 
L 460.8 0 
L 0 0 
z
" style="fill:#ffffff;"/>
  </g>
  <g id="axes_1">
   <g id="patch_2">
    <path d="M 57.6 307.584 
L 414.72 307.584 
L 414.72 41.472 
L 57.6 41.472 
z
" style="fill:#ffffff;"/>
   </g>
   <g id="PolyCollection_1">
    <path clip-path="url(#p275cb98f33)" d="M 73.832727 255.822307 
L 73.832727 255.822307 
L 77.942278 255.822307 
L 82.05183 255.822307 
L 86.161381 255.822307 
L 90.270932 255.822307 
L 94.380483 255.822307 
L 98.490035 255.822307 
L 102.599586 255.822307 
L 106.709137 255.822307 
L 110.818688 255.822307 
L 114.928239 255.822307 
L 119.037791 255.822307 
L 123.147342 255.822307 
L 127.256893 255.822307 
L 131.366444 255.822307 
L 135.475995 255.822307 
L 139.585547 255.822307 
L 143.695098 255.822307 
L 147.804649 255.822307 
L 151.9142 255.822307 
L 156.023751 255.822307 
L 160.133303 255.822307 
L 164.242854 255.822307 
L 168.352405 255.822307 
L 172.461956 255.822307 
L 176.571507 255.822307 
L 180.681059 255.822307 
L 184.79061 255.822307 
L 188.900161 255.822307 
L 193.009712 255.822307 
L 197.119264 255.822307 
L 201.228815 255.822307 
L 205.338366 255.822307 
L 209.447917 255.822307 
L 213.557468 255.822307 
L 217.66702 255.822307 
L 221.776571 255.822307 
L 225.886122 255.822307 
L 229.995673 255.822307 
L 234.105224 255.822307 
L 238.214776 255.822307 
L 242.324327 255.822307 
L 246.433878 255.822307 
L 250.543429 255.822307 
L 254.65298 255.822307 
L 258.762532 255.822307 
L 262.872083 255.822307 
L 266.981634 255.822307 
L 271.091185 255.822307 
L 275.200736 255.822307 
L 279.310288 255.822307 
L 283.419839 255.822307 
L 287.52939 255.822307 
L 291.638941 255.822307 
L 295.748493 255.822307 
L 299.858044 255.822307 
L 303.967595 255.822307 
L 308.077146 255.822307 
L 312.186697 255.822307 
L 316.296249 255.822307 
L 320.4058 255.822307 
L 324.515351 258.784168 
L 328.624902 257.89561 
L 332.734453 257.273619 
L 336.844005 259.800087 
L 340.953556 258.606753 
L 345.063107 257.771419 
L 349.172658 257.186685 
L 353.282209 256.777372 
L 357.391761 256.490852 
L 361.501312 256.290288 
L 365.610863 256.149894 
L 369.720414 256.051618 
L 373.829965 255.982824 
L 377.939517 255.934669 
L 382.049068 255.90096 
L 386.158619 255.877364 
L 390.26817 255.860847 
L 394.377722 255.849285 
L 398.487273 255.841191 
L 398.487273 255.841191 
L 398.487273 255.751828 
L 394.377722 255.721622 
L 390.26817 255.678472 
L 386.158619 255.616829 
L 382.049068 255.528767 
L 377.939517 255.402964 
L 373.829965 255.223246 
L 369.720414 254.966506 
L 365.610863 254.599734 
L 361.501312 254.075774 
L 357.391761 253.327261 
L 353.282209 252.257955 
L 349.172658 250.730376 
L 345.063107 248.54812 
L 340.953556 245.430612 
L 336.844005 240.977029 
L 332.734453 250.405936 
L 328.624902 248.084634 
L 324.515351 244.768488 
L 320.4058 255.822307 
L 316.296249 255.822307 
L 312.186697 255.822307 
L 308.077146 255.822307 
L 303.967595 255.822307 
L 299.858044 255.822307 
L 295.748493 255.822307 
L 291.638941 255.822307 
L 287.52939 255.822307 
L 283.419839 255.822307 
L 279.310288 255.822307 
L 275.200736 255.822307 
L 271.091185 255.822307 
L 266.981634 255.822307 
L 262.872083 255.822307 
L 258.762532 255.822307 
L 254.65298 255.822307 
L 250.543429 255.822307 
L 246.433878 255.822307 
L 242.324327 255.822307 
L 238.214776 255.822307 
L 234.105224 255.822307 
L 229.995673 255.822307 
L 225.886122 255.822307 
L 221.776571 255.822307 
L 217.66702 255.822307 
L 213.557468 255.822307 
L 209.447917 255.822307 
L 205.338366 255.822307 
L 201.228815 255.822307 
L 197.119264 255.822307 
L 193.009712 255.822307 
L 188.900161 255.822307 
L 184.79061 255.822307 
L 180.681059 255.822307 
L 176.571507 255.822307 
L 172.461956 255.822307 
L 168.352405 255.822307 
L 164.242854 255.822307 
L 160.133303 255.822307 
L 156.023751 255.822307 
L 151.9142 255.822307 
L 147.804649 255.822307 
L 143.695098 255.822307 
L 139.585547 255.822307 
L 135.475995 255.822307 
L 131.366444 255.822307 
L 127.256893 255.822307 
L 123.147342 255.822307 
L 119.037791 255.822307 
L 114.928239 255.822307 
L 110.818688 255.822307 
L 106.709137 255.822307 
L 102.599586 255.822307 
L 98.490035 255.822307 
L 94.380483 255.822307 
L 90.270932 255.822307 
L 86.161381 255.822307 
L 82.05183 255.822307 
L 77.942278 255.822307 
L 73.832727 255.822307 
z
" style="fill:#1f77b4;fill-opacity:0.3;"/>
   </g>
   <g id="PolyCollection_2">
    <path clip-path="url(#p275cb98f33)" d="M 73.832727 255.822307 
L 73.832727 255.822307 
L 77.942278 255.822307 
L 82.05183 255.822307 
L 86.161381 255.822307 
L 90.270932 255.822307 
L 94.380483 255.822307 
L 98.490035 255.822307 
L 102.599586 255.822307 
L 106.709137 255.822307 
L 110.818688 255.822307 
L 114.928239 255.822307 
L 119.037791 255.822307 
L 123.147342 255.822307 
L 127.256893 255.822307 
L 131.366444 255.822307 
L 135.475995 255.822307 
L 139.585547 255.822307 
L 143.695098 255.822307 
L 147.804649 255.822307 
L 151.9142 255.822307 
L 156.023751 255.822307 
L 160.133303 255.822307 
L 164.242854 255.822307 
L 168.352405 255.822307 
L 172.461956 255.822307 
L 176.571507 255.822307 
L 180.681059 255.822307 
L 184.79061 255.822307 
L 188.900161 255.822307 
L 193.009712 255.822307 
L 197.119264 255.822307 
L 201.228815 255.822307 
L 205.338366 255.822307 
L 209.447917 255.822307 
L 213.557468 255.822307 
L 217.66702 255.822307 
L 221.776571 255.822307 
L 225.886122 255.822307 
L 229.995673 255.822307 
L 234.105224 255.822307 
L 238.214776 255.822307 
L 242.324327 255.822307 
L 246.433878 255.822307 
L 250.543429 255.822307 
L 254.65298 255.822307 
L 258.762532 255.822307 
L 262.872083 255.822307 
L 266.981634 255.822307 
L 271.091185 255.822307 
L 275.200736 255.822307 
L 279.310288 255.822307 
L 283.419839 255.822307 
L 287.52939 255.822307 
L 291.638941 255.822307 
L 295.748493 255.822307 
L 299.858044 255.822307 
L 303.967595 255.822307 
L 308.077146 255.822307 
L 312.186697 255.822307 
L 316.296249 255.822307 
L 320.4058 255.822307 
L 324.515351 255.822307 
L 328.624902 255.822307 
L 332.734453 255.822307 
L 336.844005 255.822307 
L 340.953556 255.822307 
L 345.063107 255.822307 
L 349.172658 255.822307 
L 353.282209 255.822307 
L 357.391761 255.822307 
L 361.501312 255.822307 
L 365.610863 255.822307 
L 369.720414 255.822307 
L 373.829965 255.822307 
L 377.939517 255.822307 
L 382.049068 255.822307 
L 386.158619 255.822307 
L 390.26817 255.822307 
L 394.377722 255.822307 
L 398.487273 255.822307 
L 398.487273 255.822307 
L 398.487273 255.822307 
L 394.377722 255.822307 
L 390.26817 255.822307 
L 386.158619 255.822307 
L 382.049068 255.822307 
L 377.939517 255.822307 
L 373.829965 255.822307 
L 369.720414 255.822307 
L 365.610863 255.822307 
L 361.501312 255.822307 
L 357.391761 255.822307 
L 353.282209 255.822307 
L 349.172658 255.822307 
L 345.063107 255.822307 
L 340.953556 255.822307 
L 336.844005 255.822307 
L 332.734453 255.822307 
L 328.624902 255.822307 
L 324.515351 255.822307 
L 320.4058 255.822307 
L 316.296249 255.822307 
L 312.186697 255.822307 
L 308.077146 255.822307 
L 303.967595 255.822307 
L 299.858044 255.822307 
L 295.748493 255.822307 
L 291.638941 255.822307 
L 287.52939 255.822307 
L 283.419839 255.822307 
L 279.310288 255.822307 
L 275.200736 255.822307 
L 271.091185 255.822307 
L 266.981634 255.822307 
L 262.872083 255.822307 
L 258.762532 255.822307 
L 254.65298 255.822307 
L 250.543429 255.822307 
L 246.433878 255.822307 
L 242.324327 255.822307 
L 238.214776 255.822307 
L 234.105224 255.822307 
L 229.995673 255.822307 
L 225.886122 255.822307 
L 221.776571 255.822307 
L 217.66702 255.822307 
L 213.557468 255.822307 
L 209.447917 255.822307 
L 205.338366 255.822307 
L 201.228815 255.822307 
L 197.119264 255.822307 
L 193.009712 255.822307 
L 188.900161 255.822307 
L 184.79061 255.822307 
L 180.681059 255.822307 
L 176.571507 255.822307 
L 172.461956 255.822307 
L 168.352405 255.822307 
L 164.242854 255.822307 
L 160.133303 255.822307 
L 156.023751 255.822307 
L 151.9142 255.822307 
L 147.804649 255.822307 
L 143.695098 255.822307 
L 139.585547 255.822307 
L 135.475995 255.822307 
L 131.366444 255.822307 
L 127.256893 255.822307 
L 123.147342 255.822307 
L 119.037791 255.822307 
L 114.928239 255.822307 
L 110.818688 255.822307 
L 106.709137 255.822307 
L 102.599586 255.822307 
L 98.490035 255.822307 
L 94.380483 255.822307 
L 90.270932 255.822307 
L 86.161381 255.822307 
L 82.05183 255.822307 
L 77.942278 255.822307 
L 73.832727 255.822307 
z
" style="fill:#ff7f0e;fill-opacity:0.3;"/>
   </g>
   <g id="PolyCollection_3">
    <path clip-path="url(#p275cb98f33)" d="M 73.832727 255.822307 
L 73.832727 255.822307 
L 77.942278 255.822307 
L 82.05183 255.822307 
L 86.161381 255.822307 
L 90.270932 255.822307 
L 94.380483 255.822307 
L 98.490035 255.822307 
L 102.599586 255.822307 
L 106.709137 255.822307 
L 110.818688 255.822307 
L 114.928239 255.822307 
L 119.037791 255.822307 
L 123.147342 255.822307 
L 127.256893 255.822307 
L 131.366444 255.822307 
L 135.475995 255.822307 
L 139.585547 255.822307 
L 143.695098 255.822307 
L 147.804649 255.822307 
L 151.9142 255.822307 
L 156.023751 255.822307 
L 160.133303 255.822307 
L 164.242854 255.822307 
L 168.352405 255.822307 
L 172.461956 255.822307 
L 176.571507 255.822307 
L 180.681059 255.822307 
L 184.79061 255.822307 
L 188.900161 256.326884 
L 193.009712 256.175511 
L 197.119264 256.069549 
L 201.228815 261.458851 
L 205.338366 259.767888 
L 209.447917 258.584213 
L 213.557468 257.755641 
L 217.66702 257.175641 
L 221.776571 256.769641 
L 225.886122 256.48544 
L 229.995673 256.2865 
L 234.105224 256.147242 
L 238.214776 256.049761 
L 242.324327 255.981525 
L 246.433878 255.933759 
L 250.543429 255.900324 
L 254.65298 255.876918 
L 258.762532 255.860535 
L 262.872083 255.849066 
L 266.981634 255.841038 
L 271.091185 255.835419 
L 275.200736 255.831485 
L 279.310288 255.828732 
L 283.419839 255.826804 
L 287.52939 255.825455 
L 291.638941 255.82451 
L 295.748493 255.823849 
L 299.858044 255.823386 
L 303.967595 255.823062 
L 308.077146 255.822836 
L 312.186697 255.822677 
L 316.296249 255.822566 
L 320.4058 255.822488 
L 324.515351 258.124782 
L 328.624902 257.43404 
L 332.734453 256.95052 
L 336.844005 256.612056 
L 340.953556 256.375131 
L 345.063107 256.209284 
L 349.172658 256.093191 
L 353.282209 256.011925 
L 357.391761 255.95504 
L 361.501312 255.91522 
L 365.610863 255.887346 
L 369.720414 255.867834 
L 373.829965 255.854176 
L 377.939517 255.844615 
L 382.049068 255.837922 
L 386.158619 255.833238 
L 390.26817 255.829958 
L 394.377722 255.827663 
L 398.487273 255.826056 
L 398.487273 255.826056 
L 398.487273 255.808312 
L 394.377722 255.802314 
L 390.26817 255.793746 
L 386.158619 255.781506 
L 382.049068 255.76402 
L 377.939517 255.73904 
L 373.829965 255.703354 
L 369.720414 255.652374 
L 365.610863 255.579546 
L 361.501312 255.475506 
L 357.391761 255.326877 
L 353.282209 255.114549 
L 349.172658 254.811225 
L 345.063107 254.377904 
L 340.953556 253.758875 
L 336.844005 252.874547 
L 332.734453 251.611221 
L 328.624902 249.80647 
L 324.515351 247.228255 
L 320.4058 255.821629 
L 316.296249 255.821339 
L 312.186697 255.820924 
L 308.077146 255.820332 
L 303.967595 255.819485 
L 299.858044 255.818276 
L 295.748493 255.816549 
L 291.638941 255.814082 
L 287.52939 255.810557 
L 283.419839 255.805522 
L 279.310288 255.798328 
L 275.200736 255.788051 
L 271.091185 255.773371 
L 266.981634 255.752398 
L 262.872083 255.722437 
L 258.762532 255.679636 
L 254.65298 255.618492 
L 250.543429 255.531143 
L 246.433878 255.406359 
L 242.324327 255.228095 
L 238.214776 254.973433 
L 234.105224 254.60963 
L 229.995673 254.089912 
L 225.886122 253.347457 
L 221.776571 252.286808 
L 217.66702 250.771594 
L 213.557468 248.607003 
L 209.447917 245.51473 
L 205.338366 241.097197 
L 201.228815 234.786436 
L 197.119264 254.899584 
L 193.009712 254.504131 
L 188.900161 253.939199 
L 184.79061 255.822307 
L 180.681059 255.822307 
L 176.571507 255.822307 
L 172.461956 255.822307 
L 168.352405 255.822307 
L 164.242854 255.822307 
L 160.133303 255.822307 
L 156.023751 255.822307 
L 151.9142 255.822307 
L 147.804649 255.822307 
L 143.695098 255.822307 
L 139.585547 255.822307 
L 135.475995 255.822307 
L 131.366444 255.822307 
L 127.256893 255.822307 
L 123.147342 255.822307 
L 119.037791 255.822307 
L 114.928239 255.822307 
L 110.818688 255.822307 
L 106.709137 255.822307 
L 102.599586 255.822307 
L 98.490035 255.822307 
L 94.380483 255.822307 
L 90.270932 255.822307 
L 86.161381 255.822307 
L 82.05183 255.822307 
L 77.942278 255.822307 
L 73.832727 255.822307 
z
" style="fill:#2ca02c;fill-opacity:0.3;"/>
   </g>
   <g id="PolyCollection_4">
    <path clip-path="url(#p275cb98f33)" d="M 73.832727 255.822307 
L 73.832727 255.822307 
L 77.942278 255.822307 
L 82.05183 255.822307 
L 86.161381 255.822307 
L 90.270932 255.822307 
L 94.380483 255.822307 
L 98.490035 255.822307 
L 102.599586 255.822307 
L 106.709137 255.822307 
L 110.818688 255.822307 
L 114.928239 255.822307 
L 119.037791 255.822307 
L 123.147342 255.822307 
L 127.256893 255.822307 
L 131.366444 255.822307 
L 135.475995 255.822307 
L 139.585547 255.822307 
L 143.695098 255.822307 
L 147.804649 255.822307 
L 151.9142 255.822307 
L 156.023751 255.822307 
L 160.133303 255.822307 
L 164.242854 255.822307 
L 168.352405 255.822307 
L 172.461956 255.822307 
L 176.571507 255.822307 
L 180.681059 255.822307 
L 184.79061 255.822307 
L 188.900161 255.822307 
L 193.009712 255.822307 
L 197.119264 255.822307 
L 201.228815 255.822307 
L 205.338366 255.822307 
L 209.447917 255.822307 
L 213.557468 255.822307 
L 217.66702 255.822307 
L 221.776571 255.822307 
L 225.886122 255.822307 
L 229.995673 255.822307 
L 234.105224 255.822307 
L 238.214776 255.822307 
L 242.324327 255.822307 
L 246.433878 255.822307 
L 250.543429 255.822307 
L 254.65298 255.822307 
L 258.762532 255.822307 
L 262.872083 255.822307 
L 266.981634 255.822307 
L 271.091185 255.822307 
L 275.200736 255.822307 
L 279.310288 255.822307 
L 283.419839 255.822307 
L 287.52939 255.822307 
L 291.638941 255.822307 
L 295.748493 255.822307 
L 299.858044 255.822307 
L 303.967595 255.822307 
L 308.077146 256.479809 
L 312.186697 256.282558 
L 316.296249 256.144483 
L 320.4058 256.04783 
L 324.515351 259.811566 
L 328.624902 258.614788 
L 332.734453 257.777044 
L 336.844005 257.190623 
L 340.953556 256.780128 
L 345.063107 256.492781 
L 349.172658 256.291639 
L 353.282209 262.381051 
L 357.391761 276.388746 
L 361.501312 289.45016 
L 365.610863 295.488 
L 369.720414 283.588292 
L 373.829965 285.525469 
L 377.939517 288.529986 
L 382.049068 295.040757 
L 386.158619 270.214167 
L 390.26817 280.140538 
L 394.377722 279.156998 
L 398.487273 278.728672 
L 398.487273 278.728672 
L 398.487273 113.609622 
L 394.377722 89.168378 
L 390.26817 53.568 
L 386.158619 65.662376 
L 382.049068 109.413893 
L 377.939517 133.69392 
L 373.829965 144.880509 
L 369.720414 152.072407 
L 365.610863 107.608165 
L 361.501312 130.064682 
L 357.391761 178.700644 
L 353.282209 230.822163 
L 349.172658 253.357045 
L 345.063107 252.300504 
L 340.953556 250.79116 
L 336.844005 248.634954 
L 332.734453 245.55466 
L 328.624902 241.154241 
L 324.515351 234.867927 
L 320.4058 254.980642 
L 316.296249 254.619929 
L 312.186697 254.104624 
L 308.077146 253.368474 
L 303.967595 255.822307 
L 299.858044 255.822307 
L 295.748493 255.822307 
L 291.638941 255.822307 
L 287.52939 255.822307 
L 283.419839 255.822307 
L 279.310288 255.822307 
L 275.200736 255.822307 
L 271.091185 255.822307 
L 266.981634 255.822307 
L 262.872083 255.822307 
L 258.762532 255.822307 
L 254.65298 255.822307 
L 250.543429 255.822307 
L 246.433878 255.822307 
L 242.324327 255.822307 
L 238.214776 255.822307 
L 234.105224 255.822307 
L 229.995673 255.822307 
L 225.886122 255.822307 
L 221.776571 255.822307 
L 217.66702 255.822307 
L 213.557468 255.822307 
L 209.447917 255.822307 
L 205.338366 255.822307 
L 201.228815 255.822307 
L 197.119264 255.822307 
L 193.009712 255.822307 
L 188.900161 255.822307 
L 184.79061 255.822307 
L 180.681059 255.822307 
L 176.571507 255.822307 
L 172.461956 255.822307 
L 168.352405 255.822307 
L 164.242854 255.822307 
L 160.133303 255.822307 
L 156.023751 255.822307 
L 151.9142 255.822307 
L 147.804649 255.822307 
L 143.695098 255.822307 
L 139.585547 255.822307 
L 135.475995 255.822307 
L 131.366444 255.822307 
L 127.256893 255.822307 
L 123.147342 255.822307 
L 119.037791 255.822307 
L 114.928239 255.822307 
L 110.818688 255.822307 
L 106.709137 255.822307 
L 102.599586 255.822307 
L 98.490035 255.822307 
L 94.380483 255.822307 
L 90.270932 255.822307 
L 86.161381 255.822307 
L 82.05183 255.822307 
L 77.942278 255.822307 
L 73.832727 255.822307 
z
" style="fill:#d62728;fill-opacity:0.3;"/>
   </g>
   <g id="matplotlib.axis_1">
    <g id="xtick_1">
     <g id="line2d_1">
      <defs>
       <path d="M 0 0 
L 0 3.5 
" id="mbf99416bfc" style="stroke:#000000;stroke-width:0.8;"/>
      </defs>
      <g>
       <use style="stroke:#000000;stroke-width:0.8;" x="69.723176" xlink:href="#mbf99416bfc" y="307.584"/>
      </g>
     </g>
     <g id="text_1">
      <!-- 0 -->
      <g transform="translate(66.541926 322.182437)scale(0.1 -0.1)">
       <defs>
        <path d="M 2034 4250 
Q 1547 4250 1301 3770 
Q 1056 3291 1056 2328 
Q 1056 1369 1301 889 
Q 1547 409 2034 409 
Q 2525 409 2770 889 
Q 3016 1369 3016 2328 
Q 3016 3291 2770 3770 
Q 2525 4250 2034 4250 
z
M 2034 4750 
Q 2819 4750 3233 4129 
Q 3647 3509 3647 2328 
Q 3647 1150 3233 529 
Q 2819 -91 2034 -91 
Q 1250 -91 836 529 
Q 422 1150 422 2328 
Q 422 3509 836 4129 
Q 1250 4750 2034 4750 
z
" id="DejaVuSans-30" transform="scale(0.015625)"/>
       </defs>
       <use xlink:href="#DejaVuSans-30"/>
      </g>
     </g>
    </g>
    <g id="xtick_2">
     <g id="line2d_2">
      <g>
       <use style="stroke:#000000;stroke-width:0.8;" x="110.818688" xlink:href="#mbf99416bfc" y="307.584"/>
      </g>
     </g>
     <g id="text_2">
      <!-- 50 -->
      <g transform="translate(104.456188 322.182437)scale(0.1 -0.1)">
       <defs>
        <path d="M 691 4666 
L 3169 4666 
L 3169 4134 
L 1269 4134 
L 1269 2991 
Q 1406 3038 1543 3061 
Q 1681 3084 1819 3084 
Q 2600 3084 3056 2656 
Q 3513 2228 3513 1497 
Q 3513 744 3044 326 
Q 2575 -91 1722 -91 
Q 1428 -91 1123 -41 
Q 819 9 494 109 
L 494 744 
Q 775 591 1075 516 
Q 1375 441 1709 441 
Q 2250 441 2565 725 
Q 2881 1009 2881 1497 
Q 2881 1984 2565 2268 
Q 2250 2553 1709 2553 
Q 1456 2553 1204 2497 
Q 953 2441 691 2322 
L 691 4666 
z
" id="DejaVuSans-35" transform="scale(0.015625)"/>
       </defs>
       <use xlink:href="#DejaVuSans-35"/>
       <use x="63.623047" xlink:href="#DejaVuSans-30"/>
      </g>
     </g>
    </g>
    <g id="xtick_3">
     <g id="line2d_3">
      <g>
       <use style="stroke:#000000;stroke-width:0.8;" x="151.9142" xlink:href="#mbf99416bfc" y="307.584"/>
      </g>
     </g>
     <g id="text_3">
      <!-- 100 -->
      <g transform="translate(142.37045 322.182437)scale(0.1 -0.1)">
       <defs>
        <path d="M 794 531 
L 1825 531 
L 1825 4091 
L 703 3866 
L 703 4441 
L 1819 4666 
L 2450 4666 
L 2450 531 
L 3481 531 
L 3481 0 
L 794 0 
L 794 531 
z
" id="DejaVuSans-31" transform="scale(0.015625)"/>
       </defs>
       <use xlink:href="#DejaVuSans-31"/>
       <use x="63.623047" xlink:href="#DejaVuSans-30"/>
       <use x="127.246094" xlink:href="#DejaVuSans-30"/>
      </g>
     </g>
    </g>
    <g id="xtick_4">
     <g id="line2d_4">
      <g>
       <use style="stroke:#000000;stroke-width:0.8;" x="193.009712" xlink:href="#mbf99416bfc" y="307.584"/>
      </g>
     </g>
     <g id="text_4">
      <!-- 150 -->
      <g transform="translate(183.465962 322.182437)scale(0.1 -0.1)">
       <use xlink:href="#DejaVuSans-31"/>
       <use x="63.623047" xlink:href="#DejaVuSans-35"/>
       <use x="127.246094" xlink:href="#DejaVuSans-30"/>
      </g>
     </g>
    </g>
    <g id="xtick_5">
     <g id="line2d_5">
      <g>
       <use style="stroke:#000000;stroke-width:0.8;" x="234.105224" xlink:href="#mbf99416bfc" y="307.584"/>
      </g>
     </g>
     <g id="text_5">
      <!-- 200 -->
      <g transform="translate(224.561474 322.182437)scale(0.1 -0.1)">
       <defs>
        <path d="M 1228 531 
L 3431 531 
L 3431 0 
L 469 0 
L 469 531 
Q 828 903 1448 1529 
Q 2069 2156 2228 2338 
Q 2531 2678 2651 2914 
Q 2772 3150 2772 3378 
Q 2772 3750 2511 3984 
Q 2250 4219 1831 4219 
Q 1534 4219 1204 4116 
Q 875 4013 500 3803 
L 500 4441 
Q 881 4594 1212 4672 
Q 1544 4750 1819 4750 
Q 2544 4750 2975 4387 
Q 3406 4025 3406 3419 
Q 3406 3131 3298 2873 
Q 3191 2616 2906 2266 
Q 2828 2175 2409 1742 
Q 1991 1309 1228 531 
z
" id="DejaVuSans-32" transform="scale(0.015625)"/>
       </defs>
       <use xlink:href="#DejaVuSans-32"/>
       <use x="63.623047" xlink:href="#DejaVuSans-30"/>
       <use x="127.246094" xlink:href="#DejaVuSans-30"/>
      </g>
     </g>
    </g>
    <g id="xtick_6">
     <g id="line2d_6">
      <g>
       <use style="stroke:#000000;stroke-width:0.8;" x="275.200736" xlink:href="#mbf99416bfc" y="307.584"/>
      </g>
     </g>
     <g id="text_6">
      <!-- 250 -->
      <g transform="translate(265.656986 322.182437)scale(0.1 -0.1)">
       <use xlink:href="#DejaVuSans-32"/>
       <use x="63.623047" xlink:href="#DejaVuSans-35"/>
       <use x="127.246094" xlink:href="#DejaVuSans-30"/>
      </g>
     </g>
    </g>
    <g id="xtick_7">
     <g id="line2d_7">
      <g>
       <use style="stroke:#000000;stroke-width:0.8;" x="316.296249" xlink:href="#mbf99416bfc" y="307.584"/>
      </g>
     </g>
     <g id="text_7">
      <!-- 300 -->
      <g transform="translate(306.752499 322.182437)scale(0.1 -0.1)">
       <defs>
        <path d="M 2597 2516 
Q 3050 2419 3304 2112 
Q 3559 1806 3559 1356 
Q 3559 666 3084 287 
Q 2609 -91 1734 -91 
Q 1441 -91 1130 -33 
Q 819 25 488 141 
L 488 750 
Q 750 597 1062 519 
Q 1375 441 1716 441 
Q 2309 441 2620 675 
Q 2931 909 2931 1356 
Q 2931 1769 2642 2001 
Q 2353 2234 1838 2234 
L 1294 2234 
L 1294 2753 
L 1863 2753 
Q 2328 2753 2575 2939 
Q 2822 3125 2822 3475 
Q 2822 3834 2567 4026 
Q 2313 4219 1838 4219 
Q 1578 4219 1281 4162 
Q 984 4106 628 3988 
L 628 4550 
Q 988 4650 1302 4700 
Q 1616 4750 1894 4750 
Q 2613 4750 3031 4423 
Q 3450 4097 3450 3541 
Q 3450 3153 3228 2886 
Q 3006 2619 2597 2516 
z
" id="DejaVuSans-33" transform="scale(0.015625)"/>
       </defs>
       <use xlink:href="#DejaVuSans-33"/>
       <use x="63.623047" xlink:href="#DejaVuSans-30"/>
       <use x="127.246094" xlink:href="#DejaVuSans-30"/>
      </g>
     </g>
    </g>
    <g id="xtick_8">
     <g id="line2d_8">
      <g>
       <use style="stroke:#000000;stroke-width:0.8;" x="357.391761" xlink:href="#mbf99416bfc" y="307.584"/>
      </g>
     </g>
     <g id="text_8">
      <!-- 350 -->
      <g transform="translate(347.848011 322.182437)scale(0.1 -0.1)">
       <use xlink:href="#DejaVuSans-33"/>
       <use x="63.623047" xlink:href="#DejaVuSans-35"/>
       <use x="127.246094" xlink:href="#DejaVuSans-30"/>
      </g>
     </g>
    </g>
    <g id="xtick_9">
     <g id="line2d_9">
      <g>
       <use style="stroke:#000000;stroke-width:0.8;" x="398.487273" xlink:href="#mbf99416bfc" y="307.584"/>
      </g>
     </g>
     <g id="text_9">
      <!-- 400 -->
      <g transform="translate(388.943523 322.182437)scale(0.1 -0.1)">
       <defs>
        <path d="M 2419 4116 
L 825 1625 
L 2419 1625 
L 2419 4116 
z
M 2253 4666 
L 3047 4666 
L 3047 1625 
L 3713 1625 
L 3713 1100 
L 3047 1100 
L 3047 0 
L 2419 0 
L 2419 1100 
L 313 1100 
L 313 1709 
L 2253 4666 
z
" id="DejaVuSans-34" transform="scale(0.015625)"/>
       </defs>
       <use xlink:href="#DejaVuSans-34"/>
       <use x="63.623047" xlink:href="#DejaVuSans-30"/>
       <use x="127.246094" xlink:href="#DejaVuSans-30"/>
      </g>
     </g>
    </g>
   </g>
   <g id="matplotlib.axis_2">
    <g id="ytick_1">
     <g id="line2d_10">
      <defs>
       <path d="M 0 0 
L -3.5 0 
" id="m246507f4e9" style="stroke:#000000;stroke-width:0.8;"/>
      </defs>
      <g>
       <use style="stroke:#000000;stroke-width:0.8;" x="57.6" xlink:href="#m246507f4e9" y="292.904627"/>
      </g>
     </g>
     <g id="text_10">
      <!-- −190 -->
      <g transform="translate(23.132812 296.703846)scale(0.1 -0.1)">
       <defs>
        <path d="M 678 2272 
L 4684 2272 
L 4684 1741 
L 678 1741 
L 678 2272 
z
" id="DejaVuSans-2212" transform="scale(0.015625)"/>
        <path d="M 703 97 
L 703 672 
Q 941 559 1184 500 
Q 1428 441 1663 441 
Q 2288 441 2617 861 
Q 2947 1281 2994 2138 
Q 2813 1869 2534 1725 
Q 2256 1581 1919 1581 
Q 1219 1581 811 2004 
Q 403 2428 403 3163 
Q 403 3881 828 4315 
Q 1253 4750 1959 4750 
Q 2769 4750 3195 4129 
Q 3622 3509 3622 2328 
Q 3622 1225 3098 567 
Q 2575 -91 1691 -91 
Q 1453 -91 1209 -44 
Q 966 3 703 97 
z
M 1959 2075 
Q 2384 2075 2632 2365 
Q 2881 2656 2881 3163 
Q 2881 3666 2632 3958 
Q 2384 4250 1959 4250 
Q 1534 4250 1286 3958 
Q 1038 3666 1038 3163 
Q 1038 2656 1286 2365 
Q 1534 2075 1959 2075 
z
" id="DejaVuSans-39" transform="scale(0.015625)"/>
       </defs>
       <use xlink:href="#DejaVuSans-2212"/>
       <use x="83.789062" xlink:href="#DejaVuSans-31"/>
       <use x="147.412109" xlink:href="#DejaVuSans-39"/>
       <use x="211.035156" xlink:href="#DejaVuSans-30"/>
      </g>
     </g>
    </g>
    <g id="ytick_2">
     <g id="line2d_11">
      <g>
       <use style="stroke:#000000;stroke-width:0.8;" x="57.6" xlink:href="#m246507f4e9" y="250.02909"/>
      </g>
     </g>
     <g id="text_11">
      <!-- −180 -->
      <g transform="translate(23.132812 253.828309)scale(0.1 -0.1)">
       <defs>
        <path d="M 2034 2216 
Q 1584 2216 1326 1975 
Q 1069 1734 1069 1313 
Q 1069 891 1326 650 
Q 1584 409 2034 409 
Q 2484 409 2743 651 
Q 3003 894 3003 1313 
Q 3003 1734 2745 1975 
Q 2488 2216 2034 2216 
z
M 1403 2484 
Q 997 2584 770 2862 
Q 544 3141 544 3541 
Q 544 4100 942 4425 
Q 1341 4750 2034 4750 
Q 2731 4750 3128 4425 
Q 3525 4100 3525 3541 
Q 3525 3141 3298 2862 
Q 3072 2584 2669 2484 
Q 3125 2378 3379 2068 
Q 3634 1759 3634 1313 
Q 3634 634 3220 271 
Q 2806 -91 2034 -91 
Q 1263 -91 848 271 
Q 434 634 434 1313 
Q 434 1759 690 2068 
Q 947 2378 1403 2484 
z
M 1172 3481 
Q 1172 3119 1398 2916 
Q 1625 2713 2034 2713 
Q 2441 2713 2670 2916 
Q 2900 3119 2900 3481 
Q 2900 3844 2670 4047 
Q 2441 4250 2034 4250 
Q 1625 4250 1398 4047 
Q 1172 3844 1172 3481 
z
" id="DejaVuSans-38" transform="scale(0.015625)"/>
       </defs>
       <use xlink:href="#DejaVuSans-2212"/>
       <use x="83.789062" xlink:href="#DejaVuSans-31"/>
       <use x="147.412109" xlink:href="#DejaVuSans-38"/>
       <use x="211.035156" xlink:href="#DejaVuSans-30"/>
      </g>
     </g>
    </g>
    <g id="ytick_3">
     <g id="line2d_12">
      <g>
       <use style="stroke:#000000;stroke-width:0.8;" x="57.6" xlink:href="#m246507f4e9" y="207.153554"/>
      </g>
     </g>
     <g id="text_12">
      <!-- −170 -->
      <g transform="translate(23.132812 210.952773)scale(0.1 -0.1)">
       <defs>
        <path d="M 525 4666 
L 3525 4666 
L 3525 4397 
L 1831 0 
L 1172 0 
L 2766 4134 
L 525 4134 
L 525 4666 
z
" id="DejaVuSans-37" transform="scale(0.015625)"/>
       </defs>
       <use xlink:href="#DejaVuSans-2212"/>
       <use x="83.789062" xlink:href="#DejaVuSans-31"/>
       <use x="147.412109" xlink:href="#DejaVuSans-37"/>
       <use x="211.035156" xlink:href="#DejaVuSans-30"/>
      </g>
     </g>
    </g>
    <g id="ytick_4">
     <g id="line2d_13">
      <g>
       <use style="stroke:#000000;stroke-width:0.8;" x="57.6" xlink:href="#m246507f4e9" y="164.278018"/>
      </g>
     </g>
     <g id="text_13">
      <!-- −160 -->
      <g transform="translate(23.132812 168.077236)scale(0.1 -0.1)">
       <defs>
        <path d="M 2113 2584 
Q 1688 2584 1439 2293 
Q 1191 2003 1191 1497 
Q 1191 994 1439 701 
Q 1688 409 2113 409 
Q 2538 409 2786 701 
Q 3034 994 3034 1497 
Q 3034 2003 2786 2293 
Q 2538 2584 2113 2584 
z
M 3366 4563 
L 3366 3988 
Q 3128 4100 2886 4159 
Q 2644 4219 2406 4219 
Q 1781 4219 1451 3797 
Q 1122 3375 1075 2522 
Q 1259 2794 1537 2939 
Q 1816 3084 2150 3084 
Q 2853 3084 3261 2657 
Q 3669 2231 3669 1497 
Q 3669 778 3244 343 
Q 2819 -91 2113 -91 
Q 1303 -91 875 529 
Q 447 1150 447 2328 
Q 447 3434 972 4092 
Q 1497 4750 2381 4750 
Q 2619 4750 2861 4703 
Q 3103 4656 3366 4563 
z
" id="DejaVuSans-36" transform="scale(0.015625)"/>
       </defs>
       <use xlink:href="#DejaVuSans-2212"/>
       <use x="83.789062" xlink:href="#DejaVuSans-31"/>
       <use x="147.412109" xlink:href="#DejaVuSans-36"/>
       <use x="211.035156" xlink:href="#DejaVuSans-30"/>
      </g>
     </g>
    </g>
    <g id="ytick_5">
     <g id="line2d_14">
      <g>
       <use style="stroke:#000000;stroke-width:0.8;" x="57.6" xlink:href="#m246507f4e9" y="121.402481"/>
      </g>
     </g>
     <g id="text_14">
      <!-- −150 -->
      <g transform="translate(23.132812 125.2017)scale(0.1 -0.1)">
       <use xlink:href="#DejaVuSans-2212"/>
       <use x="83.789062" xlink:href="#DejaVuSans-31"/>
       <use x="147.412109" xlink:href="#DejaVuSans-35"/>
       <use x="211.035156" xlink:href="#DejaVuSans-30"/>
      </g>
     </g>
    </g>
    <g id="ytick_6">
     <g id="line2d_15">
      <g>
       <use style="stroke:#000000;stroke-width:0.8;" x="57.6" xlink:href="#m246507f4e9" y="78.526945"/>
      </g>
     </g>
     <g id="text_15">
      <!-- −140 -->
      <g transform="translate(23.132812 82.326164)scale(0.1 -0.1)">
       <use xlink:href="#DejaVuSans-2212"/>
       <use x="83.789062" xlink:href="#DejaVuSans-31"/>
       <use x="147.412109" xlink:href="#DejaVuSans-34"/>
       <use x="211.035156" xlink:href="#DejaVuSans-30"/>
      </g>
     </g>
    </g>
   </g>
   <g id="line2d_16">
    <path clip-path="url(#p275cb98f33)" d="M 73.832727 255.822307 
L 77.942278 255.822307 
L 82.05183 255.822307 
L 86.161381 255.822307 
L 90.270932 255.822307 
L 94.380483 255.822307 
L 98.490035 255.822307 
L 102.599586 255.822307 
L 106.709137 255.822307 
L 110.818688 255.822307 
L 114.928239 255.822307 
L 119.037791 255.822307 
L 123.147342 255.822307 
L 127.256893 255.822307 
L 131.366444 255.822307 
L 135.475995 255.822307 
L 139.585547 255.822307 
L 143.695098 255.822307 
L 147.804649 255.822307 
L 151.9142 255.822307 
L 156.023751 255.822307 
L 160.133303 255.822307 
L 164.242854 255.822307 
L 168.352405 255.822307 
L 172.461956 255.822307 
L 176.571507 255.822307 
L 180.681059 255.822307 
L 184.79061 255.822307 
L 188.900161 255.822307 
L 193.009712 255.822307 
L 197.119264 255.822307 
L 201.228815 255.822307 
L 205.338366 255.822307 
L 209.447917 255.822307 
L 213.557468 255.822307 
L 217.66702 255.822307 
L 221.776571 255.822307 
L 225.886122 255.822307 
L 229.995673 255.822307 
L 234.105224 255.822307 
L 238.214776 255.822307 
L 242.324327 255.822307 
L 246.433878 255.822307 
L 250.543429 255.822307 
L 254.65298 255.822307 
L 258.762532 255.822307 
L 262.872083 255.822307 
L 266.981634 255.822307 
L 271.091185 255.822307 
L 275.200736 255.822307 
L 279.310288 255.822307 
L 283.419839 255.822307 
L 287.52939 255.822307 
L 291.638941 255.822307 
L 295.748493 255.822307 
L 299.858044 255.822307 
L 303.967595 255.822307 
L 308.077146 255.822307 
L 312.186697 255.822307 
L 316.296249 255.822307 
L 320.4058 255.822307 
L 324.515351 251.776328 
L 328.624902 252.990122 
L 332.734453 253.839777 
L 336.844005 250.388558 
L 340.953556 252.018682 
L 345.063107 253.15977 
L 349.172658 253.958531 
L 353.282209 254.517663 
L 357.391761 254.909056 
L 361.501312 255.183031 
L 365.610863 255.374814 
L 369.720414 255.509062 
L 373.829965 255.603035 
L 377.939517 255.668817 
L 382.049068 255.714864 
L 386.158619 255.747096 
L 390.26817 255.769659 
L 394.377722 255.785454 
L 398.487273 255.796509 
" style="fill:none;stroke:#1f77b4;stroke-linecap:square;stroke-width:1.5;"/>
   </g>
   <g id="line2d_17">
    <path clip-path="url(#p275cb98f33)" d="M 73.832727 255.822307 
L 77.942278 255.822307 
L 82.05183 255.822307 
L 86.161381 255.822307 
L 90.270932 255.822307 
L 94.380483 255.822307 
L 98.490035 255.822307 
L 102.599586 255.822307 
L 106.709137 255.822307 
L 110.818688 255.822307 
L 114.928239 255.822307 
L 119.037791 255.822307 
L 123.147342 255.822307 
L 127.256893 255.822307 
L 131.366444 255.822307 
L 135.475995 255.822307 
L 139.585547 255.822307 
L 143.695098 255.822307 
L 147.804649 255.822307 
L 151.9142 255.822307 
L 156.023751 255.822307 
L 160.133303 255.822307 
L 164.242854 255.822307 
L 168.352405 255.822307 
L 172.461956 255.822307 
L 176.571507 255.822307 
L 180.681059 255.822307 
L 184.79061 255.822307 
L 188.900161 255.822307 
L 193.009712 255.822307 
L 197.119264 255.822307 
L 201.228815 255.822307 
L 205.338366 255.822307 
L 209.447917 255.822307 
L 213.557468 255.822307 
L 217.66702 255.822307 
L 221.776571 255.822307 
L 225.886122 255.822307 
L 229.995673 255.822307 
L 234.105224 255.822307 
L 238.214776 255.822307 
L 242.324327 255.822307 
L 246.433878 255.822307 
L 250.543429 255.822307 
L 254.65298 255.822307 
L 258.762532 255.822307 
L 262.872083 255.822307 
L 266.981634 255.822307 
L 271.091185 255.822307 
L 275.200736 255.822307 
L 279.310288 255.822307 
L 283.419839 255.822307 
L 287.52939 255.822307 
L 291.638941 255.822307 
L 295.748493 255.822307 
L 299.858044 255.822307 
L 303.967595 255.822307 
L 308.077146 255.822307 
L 312.186697 255.822307 
L 316.296249 255.822307 
L 320.4058 255.822307 
L 324.515351 255.822307 
L 328.624902 255.822307 
L 332.734453 255.822307 
L 336.844005 255.822307 
L 340.953556 255.822307 
L 345.063107 255.822307 
L 349.172658 255.822307 
L 353.282209 255.822307 
L 357.391761 255.822307 
L 361.501312 255.822307 
L 365.610863 255.822307 
L 369.720414 255.822307 
L 373.829965 255.822307 
L 377.939517 255.822307 
L 382.049068 255.822307 
L 386.158619 255.822307 
L 390.26817 255.822307 
L 394.377722 255.822307 
L 398.487273 255.822307 
" style="fill:none;stroke:#ff7f0e;stroke-linecap:square;stroke-width:1.5;"/>
   </g>
   <g id="line2d_18">
    <path clip-path="url(#p275cb98f33)" d="M 73.832727 255.822307 
L 77.942278 255.822307 
L 82.05183 255.822307 
L 86.161381 255.822307 
L 90.270932 255.822307 
L 94.380483 255.822307 
L 98.490035 255.822307 
L 102.599586 255.822307 
L 106.709137 255.822307 
L 110.818688 255.822307 
L 114.928239 255.822307 
L 119.037791 255.822307 
L 123.147342 255.822307 
L 127.256893 255.822307 
L 131.366444 255.822307 
L 135.475995 255.822307 
L 139.585547 255.822307 
L 143.695098 255.822307 
L 147.804649 255.822307 
L 151.9142 255.822307 
L 156.023751 255.822307 
L 160.133303 255.822307 
L 164.242854 255.822307 
L 168.352405 255.822307 
L 172.461956 255.822307 
L 176.571507 255.822307 
L 180.681059 255.822307 
L 184.79061 255.822307 
L 188.900161 255.133041 
L 193.009712 255.339821 
L 197.119264 255.484567 
L 201.228815 248.122644 
L 205.338366 250.432543 
L 209.447917 252.049472 
L 213.557468 253.181322 
L 217.66702 253.973617 
L 221.776571 254.528224 
L 225.886122 254.916449 
L 229.995673 255.188206 
L 234.105224 255.378436 
L 238.214776 255.511597 
L 242.324327 255.60481 
L 246.433878 255.670059 
L 250.543429 255.715733 
L 254.65298 255.747705 
L 258.762532 255.770086 
L 262.872083 255.785752 
L 266.981634 255.796718 
L 271.091185 255.804395 
L 275.200736 255.809768 
L 279.310288 255.81353 
L 283.419839 255.816163 
L 287.52939 255.818006 
L 291.638941 255.819296 
L 295.748493 255.820199 
L 299.858044 255.820831 
L 303.967595 255.821274 
L 308.077146 255.821584 
L 312.186697 255.821801 
L 316.296249 255.821952 
L 320.4058 255.822059 
L 324.515351 252.676519 
L 328.624902 253.620255 
L 332.734453 254.28087 
L 336.844005 254.743301 
L 340.953556 255.067003 
L 345.063107 255.293594 
L 349.172658 255.452208 
L 353.282209 255.563237 
L 357.391761 255.640958 
L 361.501312 255.695363 
L 365.610863 255.733446 
L 369.720414 255.760104 
L 373.829965 255.778765 
L 377.939517 255.791827 
L 382.049068 255.800971 
L 386.158619 255.807372 
L 390.26817 255.811852 
L 394.377722 255.814988 
L 398.487273 255.817184 
" style="fill:none;stroke:#2ca02c;stroke-linecap:square;stroke-width:1.5;"/>
   </g>
   <g id="line2d_19">
    <path clip-path="url(#p275cb98f33)" d="M 73.832727 255.822307 
L 77.942278 255.822307 
L 82.05183 255.822307 
L 86.161381 255.822307 
L 90.270932 255.822307 
L 94.380483 255.822307 
L 98.490035 255.822307 
L 102.599586 255.822307 
L 106.709137 255.822307 
L 110.818688 255.822307 
L 114.928239 255.822307 
L 119.037791 255.822307 
L 123.147342 255.822307 
L 127.256893 255.822307 
L 131.366444 255.822307 
L 135.475995 255.822307 
L 139.585547 255.822307 
L 143.695098 255.822307 
L 147.804649 255.822307 
L 151.9142 255.822307 
L 156.023751 255.822307 
L 160.133303 255.822307 
L 164.242854 255.822307 
L 168.352405 255.822307 
L 172.461956 255.822307 
L 176.571507 255.822307 
L 180.681059 255.822307 
L 184.79061 255.822307 
L 188.900161 255.822307 
L 193.009712 255.822307 
L 197.119264 255.822307 
L 201.228815 255.822307 
L 205.338366 255.822307 
L 209.447917 255.822307 
L 213.557468 255.822307 
L 217.66702 255.822307 
L 221.776571 255.822307 
L 225.886122 255.822307 
L 229.995673 255.822307 
L 234.105224 255.822307 
L 238.214776 255.822307 
L 242.324327 255.822307 
L 246.433878 255.822307 
L 250.543429 255.822307 
L 254.65298 255.822307 
L 258.762532 255.822307 
L 262.872083 255.822307 
L 266.981634 255.822307 
L 271.091185 255.822307 
L 275.200736 255.822307 
L 279.310288 255.822307 
L 283.419839 255.822307 
L 287.52939 255.822307 
L 291.638941 255.822307 
L 295.748493 255.822307 
L 299.858044 255.822307 
L 303.967595 255.822307 
L 308.077146 254.924142 
L 312.186697 255.193591 
L 316.296249 255.382206 
L 320.4058 255.514236 
L 324.515351 247.339746 
L 328.624902 249.884514 
L 332.734453 251.665852 
L 336.844005 252.912788 
L 340.953556 253.785644 
L 345.063107 254.396643 
L 349.172658 254.824342 
L 353.282209 246.601607 
L 357.391761 227.544695 
L 361.501312 209.757421 
L 365.610863 201.548083 
L 369.720414 217.83035 
L 373.829965 215.202989 
L 377.939517 211.111953 
L 382.049068 202.227325 
L 386.158619 167.938272 
L 390.26817 166.854269 
L 394.377722 184.162688 
L 398.487273 196.169147 
" style="fill:none;stroke:#d62728;stroke-linecap:square;stroke-width:1.5;"/>
   </g>
   <g id="patch_3">
    <path d="M 57.6 307.584 
L 57.6 41.472 
" style="fill:none;stroke:#000000;stroke-linecap:square;stroke-linejoin:miter;stroke-width:0.8;"/>
   </g>
   <g id="patch_4">
    <path d="M 414.72 307.584 
L 414.72 41.472 
" style="fill:none;stroke:#000000;stroke-linecap:square;stroke-linejoin:miter;stroke-width:0.8;"/>
   </g>
   <g id="patch_5">
    <path d="M 57.6 307.584 
L 414.72 307.584 
" style="fill:none;stroke:#000000;stroke-linecap:square;stroke-linejoin:miter;stroke-width:0.8;"/>
   </g>
   <g id="patch_6">
    <path d="M 57.6 41.472 
L 414.72 41.472 
" style="fill:none;stroke:#000000;stroke-linecap:square;stroke-linejoin:miter;stroke-width:0.8;"/>
   </g>
   <g id="legend_1">
    <g id="patch_7">
     <path d="M 299.479375 108.1845 
L 407.72 108.1845 
Q 409.72 108.1845 409.72 106.1845 
L 409.72 48.472 
Q 409.72 46.472 407.72 46.472 
L 299.479375 46.472 
Q 297.479375 46.472 297.479375 48.472 
L 297.479375 106.1845 
Q 297.479375 108.1845 299.479375 108.1845 
z
" style="fill:#ffffff;opacity:0.8;stroke:#cccccc;stroke-linejoin:miter;"/>
    </g>
    <g id="line2d_20">
     <path d="M 301.479375 54.570438 
L 321.479375 54.570438 
" style="fill:none;stroke:#1f77b4;stroke-linecap:square;stroke-width:1.5;"/>
    </g>
    <g id="line2d_21"/>
    <g id="text_16">
     <!-- DQN -->
     <g transform="translate(329.479375 58.070438)scale(0.1 -0.1)">
      <defs>
       <path d="M 1259 4147 
L 1259 519 
L 2022 519 
Q 2988 519 3436 956 
Q 3884 1394 3884 2338 
Q 3884 3275 3436 3711 
Q 2988 4147 2022 4147 
L 1259 4147 
z
M 628 4666 
L 1925 4666 
Q 3281 4666 3915 4102 
Q 4550 3538 4550 2338 
Q 4550 1131 3912 565 
Q 3275 0 1925 0 
L 628 0 
L 628 4666 
z
" id="DejaVuSans-44" transform="scale(0.015625)"/>
       <path d="M 2522 4238 
Q 1834 4238 1429 3725 
Q 1025 3213 1025 2328 
Q 1025 1447 1429 934 
Q 1834 422 2522 422 
Q 3209 422 3611 934 
Q 4013 1447 4013 2328 
Q 4013 3213 3611 3725 
Q 3209 4238 2522 4238 
z
M 3406 84 
L 4238 -825 
L 3475 -825 
L 2784 -78 
Q 2681 -84 2626 -87 
Q 2572 -91 2522 -91 
Q 1538 -91 948 567 
Q 359 1225 359 2328 
Q 359 3434 948 4092 
Q 1538 4750 2522 4750 
Q 3503 4750 4090 4092 
Q 4678 3434 4678 2328 
Q 4678 1516 4351 937 
Q 4025 359 3406 84 
z
" id="DejaVuSans-51" transform="scale(0.015625)"/>
       <path d="M 628 4666 
L 1478 4666 
L 3547 763 
L 3547 4666 
L 4159 4666 
L 4159 0 
L 3309 0 
L 1241 3903 
L 1241 0 
L 628 0 
L 628 4666 
z
" id="DejaVuSans-4e" transform="scale(0.015625)"/>
      </defs>
      <use xlink:href="#DejaVuSans-44"/>
      <use x="77.001953" xlink:href="#DejaVuSans-51"/>
      <use x="155.712891" xlink:href="#DejaVuSans-4e"/>
     </g>
    </g>
    <g id="line2d_22">
     <path d="M 301.479375 69.248563 
L 321.479375 69.248563 
" style="fill:none;stroke:#ff7f0e;stroke-linecap:square;stroke-width:1.5;"/>
    </g>
    <g id="line2d_23"/>
    <g id="text_17">
     <!-- BackwardDQN -->
     <g transform="translate(329.479375 72.748563)scale(0.1 -0.1)">
      <defs>
       <path d="M 1259 2228 
L 1259 519 
L 2272 519 
Q 2781 519 3026 730 
Q 3272 941 3272 1375 
Q 3272 1813 3026 2020 
Q 2781 2228 2272 2228 
L 1259 2228 
z
M 1259 4147 
L 1259 2741 
L 2194 2741 
Q 2656 2741 2882 2914 
Q 3109 3088 3109 3444 
Q 3109 3797 2882 3972 
Q 2656 4147 2194 4147 
L 1259 4147 
z
M 628 4666 
L 2241 4666 
Q 2963 4666 3353 4366 
Q 3744 4066 3744 3513 
Q 3744 3084 3544 2831 
Q 3344 2578 2956 2516 
Q 3422 2416 3680 2098 
Q 3938 1781 3938 1306 
Q 3938 681 3513 340 
Q 3088 0 2303 0 
L 628 0 
L 628 4666 
z
" id="DejaVuSans-42" transform="scale(0.015625)"/>
       <path d="M 2194 1759 
Q 1497 1759 1228 1600 
Q 959 1441 959 1056 
Q 959 750 1161 570 
Q 1363 391 1709 391 
Q 2188 391 2477 730 
Q 2766 1069 2766 1631 
L 2766 1759 
L 2194 1759 
z
M 3341 1997 
L 3341 0 
L 2766 0 
L 2766 531 
Q 2569 213 2275 61 
Q 1981 -91 1556 -91 
Q 1019 -91 701 211 
Q 384 513 384 1019 
Q 384 1609 779 1909 
Q 1175 2209 1959 2209 
L 2766 2209 
L 2766 2266 
Q 2766 2663 2505 2880 
Q 2244 3097 1772 3097 
Q 1472 3097 1187 3025 
Q 903 2953 641 2809 
L 641 3341 
Q 956 3463 1253 3523 
Q 1550 3584 1831 3584 
Q 2591 3584 2966 3190 
Q 3341 2797 3341 1997 
z
" id="DejaVuSans-61" transform="scale(0.015625)"/>
       <path d="M 3122 3366 
L 3122 2828 
Q 2878 2963 2633 3030 
Q 2388 3097 2138 3097 
Q 1578 3097 1268 2742 
Q 959 2388 959 1747 
Q 959 1106 1268 751 
Q 1578 397 2138 397 
Q 2388 397 2633 464 
Q 2878 531 3122 666 
L 3122 134 
Q 2881 22 2623 -34 
Q 2366 -91 2075 -91 
Q 1284 -91 818 406 
Q 353 903 353 1747 
Q 353 2603 823 3093 
Q 1294 3584 2113 3584 
Q 2378 3584 2631 3529 
Q 2884 3475 3122 3366 
z
" id="DejaVuSans-63" transform="scale(0.015625)"/>
       <path d="M 581 4863 
L 1159 4863 
L 1159 1991 
L 2875 3500 
L 3609 3500 
L 1753 1863 
L 3688 0 
L 2938 0 
L 1159 1709 
L 1159 0 
L 581 0 
L 581 4863 
z
" id="DejaVuSans-6b" transform="scale(0.015625)"/>
       <path d="M 269 3500 
L 844 3500 
L 1563 769 
L 2278 3500 
L 2956 3500 
L 3675 769 
L 4391 3500 
L 4966 3500 
L 4050 0 
L 3372 0 
L 2619 2869 
L 1863 0 
L 1184 0 
L 269 3500 
z
" id="DejaVuSans-77" transform="scale(0.015625)"/>
       <path d="M 2631 2963 
Q 2534 3019 2420 3045 
Q 2306 3072 2169 3072 
Q 1681 3072 1420 2755 
Q 1159 2438 1159 1844 
L 1159 0 
L 581 0 
L 581 3500 
L 1159 3500 
L 1159 2956 
Q 1341 3275 1631 3429 
Q 1922 3584 2338 3584 
Q 2397 3584 2469 3576 
Q 2541 3569 2628 3553 
L 2631 2963 
z
" id="DejaVuSans-72" transform="scale(0.015625)"/>
       <path d="M 2906 2969 
L 2906 4863 
L 3481 4863 
L 3481 0 
L 2906 0 
L 2906 525 
Q 2725 213 2448 61 
Q 2172 -91 1784 -91 
Q 1150 -91 751 415 
Q 353 922 353 1747 
Q 353 2572 751 3078 
Q 1150 3584 1784 3584 
Q 2172 3584 2448 3432 
Q 2725 3281 2906 2969 
z
M 947 1747 
Q 947 1113 1208 752 
Q 1469 391 1925 391 
Q 2381 391 2643 752 
Q 2906 1113 2906 1747 
Q 2906 2381 2643 2742 
Q 2381 3103 1925 3103 
Q 1469 3103 1208 2742 
Q 947 2381 947 1747 
z
" id="DejaVuSans-64" transform="scale(0.015625)"/>
      </defs>
      <use xlink:href="#DejaVuSans-42"/>
      <use x="68.603516" xlink:href="#DejaVuSans-61"/>
      <use x="129.882812" xlink:href="#DejaVuSans-63"/>
      <use x="184.863281" xlink:href="#DejaVuSans-6b"/>
      <use x="242.773438" xlink:href="#DejaVuSans-77"/>
      <use x="324.560547" xlink:href="#DejaVuSans-61"/>
      <use x="385.839844" xlink:href="#DejaVuSans-72"/>
      <use x="425.203125" xlink:href="#DejaVuSans-64"/>
      <use x="488.679688" xlink:href="#DejaVuSans-44"/>
      <use x="565.681641" xlink:href="#DejaVuSans-51"/>
      <use x="644.392578" xlink:href="#DejaVuSans-4e"/>
     </g>
    </g>
    <g id="line2d_24">
     <path d="M 301.479375 83.926688 
L 321.479375 83.926688 
" style="fill:none;stroke:#2ca02c;stroke-linecap:square;stroke-width:1.5;"/>
    </g>
    <g id="line2d_25"/>
    <g id="text_18">
     <!-- MultiBatchDQN -->
     <g transform="translate(329.479375 87.426688)scale(0.1 -0.1)">
      <defs>
       <path d="M 628 4666 
L 1569 4666 
L 2759 1491 
L 3956 4666 
L 4897 4666 
L 4897 0 
L 4281 0 
L 4281 4097 
L 3078 897 
L 2444 897 
L 1241 4097 
L 1241 0 
L 628 0 
L 628 4666 
z
" id="DejaVuSans-4d" transform="scale(0.015625)"/>
       <path d="M 544 1381 
L 544 3500 
L 1119 3500 
L 1119 1403 
Q 1119 906 1312 657 
Q 1506 409 1894 409 
Q 2359 409 2629 706 
Q 2900 1003 2900 1516 
L 2900 3500 
L 3475 3500 
L 3475 0 
L 2900 0 
L 2900 538 
Q 2691 219 2414 64 
Q 2138 -91 1772 -91 
Q 1169 -91 856 284 
Q 544 659 544 1381 
z
M 1991 3584 
L 1991 3584 
z
" id="DejaVuSans-75" transform="scale(0.015625)"/>
       <path d="M 603 4863 
L 1178 4863 
L 1178 0 
L 603 0 
L 603 4863 
z
" id="DejaVuSans-6c" transform="scale(0.015625)"/>
       <path d="M 1172 4494 
L 1172 3500 
L 2356 3500 
L 2356 3053 
L 1172 3053 
L 1172 1153 
Q 1172 725 1289 603 
Q 1406 481 1766 481 
L 2356 481 
L 2356 0 
L 1766 0 
Q 1100 0 847 248 
Q 594 497 594 1153 
L 594 3053 
L 172 3053 
L 172 3500 
L 594 3500 
L 594 4494 
L 1172 4494 
z
" id="DejaVuSans-74" transform="scale(0.015625)"/>
       <path d="M 603 3500 
L 1178 3500 
L 1178 0 
L 603 0 
L 603 3500 
z
M 603 4863 
L 1178 4863 
L 1178 4134 
L 603 4134 
L 603 4863 
z
" id="DejaVuSans-69" transform="scale(0.015625)"/>
       <path d="M 3513 2113 
L 3513 0 
L 2938 0 
L 2938 2094 
Q 2938 2591 2744 2837 
Q 2550 3084 2163 3084 
Q 1697 3084 1428 2787 
Q 1159 2491 1159 1978 
L 1159 0 
L 581 0 
L 581 4863 
L 1159 4863 
L 1159 2956 
Q 1366 3272 1645 3428 
Q 1925 3584 2291 3584 
Q 2894 3584 3203 3211 
Q 3513 2838 3513 2113 
z
" id="DejaVuSans-68" transform="scale(0.015625)"/>
      </defs>
      <use xlink:href="#DejaVuSans-4d"/>
      <use x="86.279297" xlink:href="#DejaVuSans-75"/>
      <use x="149.658203" xlink:href="#DejaVuSans-6c"/>
      <use x="177.441406" xlink:href="#DejaVuSans-74"/>
      <use x="216.650391" xlink:href="#DejaVuSans-69"/>
      <use x="244.433594" xlink:href="#DejaVuSans-42"/>
      <use x="313.037109" xlink:href="#DejaVuSans-61"/>
      <use x="374.316406" xlink:href="#DejaVuSans-74"/>
      <use x="413.525391" xlink:href="#DejaVuSans-63"/>
      <use x="468.505859" xlink:href="#DejaVuSans-68"/>
      <use x="531.884766" xlink:href="#DejaVuSans-44"/>
      <use x="608.886719" xlink:href="#DejaVuSans-51"/>
      <use x="687.597656" xlink:href="#DejaVuSans-4e"/>
     </g>
    </g>
    <g id="line2d_26">
     <path d="M 301.479375 98.604813 
L 321.479375 98.604813 
" style="fill:none;stroke:#d62728;stroke-linecap:square;stroke-width:1.5;"/>
    </g>
    <g id="line2d_27"/>
    <g id="text_19">
     <!-- DQBS -->
     <g transform="translate(329.479375 102.104813)scale(0.1 -0.1)">
      <defs>
       <path d="M 3425 4513 
L 3425 3897 
Q 3066 4069 2747 4153 
Q 2428 4238 2131 4238 
Q 1616 4238 1336 4038 
Q 1056 3838 1056 3469 
Q 1056 3159 1242 3001 
Q 1428 2844 1947 2747 
L 2328 2669 
Q 3034 2534 3370 2195 
Q 3706 1856 3706 1288 
Q 3706 609 3251 259 
Q 2797 -91 1919 -91 
Q 1588 -91 1214 -16 
Q 841 59 441 206 
L 441 856 
Q 825 641 1194 531 
Q 1563 422 1919 422 
Q 2459 422 2753 634 
Q 3047 847 3047 1241 
Q 3047 1584 2836 1778 
Q 2625 1972 2144 2069 
L 1759 2144 
Q 1053 2284 737 2584 
Q 422 2884 422 3419 
Q 422 4038 858 4394 
Q 1294 4750 2059 4750 
Q 2388 4750 2728 4690 
Q 3069 4631 3425 4513 
z
" id="DejaVuSans-53" transform="scale(0.015625)"/>
      </defs>
      <use xlink:href="#DejaVuSans-44"/>
      <use x="77.001953" xlink:href="#DejaVuSans-51"/>
      <use x="155.712891" xlink:href="#DejaVuSans-42"/>
      <use x="222.566406" xlink:href="#DejaVuSans-53"/>
     </g>
    </g>
   </g>
  </g>
 </g>
 <defs>
  <clipPath id="p275cb98f33">
   <rect height="266.112" width="357.12" x="57.6" y="41.472"/>
  </clipPath>
 </defs>
</svg>
