<?xml version="1.0" encoding="utf-8" standalone="no"?>
<!DOCTYPE svg PUBLIC "-//W3C//DTD SVG 1.1//EN"
  "http://www.w3.org/Graphics/SVG/1.1/DTD/svg11.dtd">
<svg height="345.6pt" version="1.1" viewBox="0 0 460.8 345.6" width="460.8pt" xmlns="http://www.w3.org/2000/svg" xmlns:xlink="http://www.w3.org/1999/xlink">
 <metadata>
  <rdf:RDF xmlns:cc="http://creativecommons.org/ns#" xmlns:dc="http://purl.org/dc/elements/1.1/" xmlns:rdf="http://www.w3.org/1999/02/22-rdf-syntax-ns#">
   <cc:Work>
    <dc:type rdf:resource="http://purl.org/dc/dcmitype/StillImage"/>
    <dc:date>2022-01-03T23:12:13.073449</dc:date>
    <dc:format>image/svg+xml</dc:format>
    <dc:creator>
     <cc:Agent>
      <dc:title>Matplotlib v3.4.2, https://matplotlib.org/</dc:title>
     </cc:Agent>
    </dc:creator>
   </cc:Work>
  </rdf:RDF>
 </metadata>
 <defs>
  <style type="text/css">*{stroke-linecap:butt;stroke-linejoin:round;}</style>
 </defs>
 <g id="figure_1">
  <g id="patch_1">
   <path d="M 0 345.6 
L 460.8 345.6 
L 460.8 0 
L 0 0 
z
" style="fill:#ffffff;"/>
  </g>
  <g id="axes_1">
   <g id="patch_2">
    <path d="M 57.6 307.584 
L 414.72 307.584 
L 414.72 41.472 
L 57.6 41.472 
z
" style="fill:#ffffff;"/>
   </g>
   <g id="PolyCollection_1">
    <path clip-path="url(#p623ce59a57)" d="M 73.832727 283.657172 
L 73.832727 283.657172 
L 82.157203 287.805491 
L 90.481678 286.560996 
L 98.806154 285.689849 
L 107.130629 284.882297 
L 115.455105 284.192816 
L 123.77958 284.032123 
L 132.104056 289.412863 
L 140.428531 289.648747 
L 148.753007 287.851274 
L 157.077483 260.461353 
L 165.401958 255.676889 
L 173.726434 254.959655 
L 182.050909 267.864949 
L 190.375385 280.370818 
L 198.69986 273.32492 
L 207.024336 257.565775 
L 215.348811 267.109388 
L 223.673287 265.412044 
L 231.997762 205.70163 
L 240.322238 171.49848 
L 248.646713 179.112317 
L 256.971189 139.964884 
L 265.295664 145.419172 
L 273.62014 139.079285 
L 281.944615 126.567233 
L 290.269091 156.805887 
L 298.593566 126.14017 
L 306.918042 129.499906 
L 315.242517 139.647359 
L 323.566993 122.559763 
L 331.891469 148.238502 
L 340.215944 160.959881 
L 348.54042 142.41869 
L 356.864895 115.919787 
L 365.189371 100.010438 
L 373.513846 121.646014 
L 381.838322 109.74737 
L 390.162797 158.639223 
L 398.487273 128.977836 
L 398.487273 128.977836 
L 398.487273 58.322332 
L 390.162797 60.346821 
L 381.838322 62.910338 
L 373.513846 68.576612 
L 365.189371 75.799886 
L 356.864895 71.170099 
L 348.54042 80.057447 
L 340.215944 62.549073 
L 331.891469 53.568 
L 323.566993 73.266119 
L 315.242517 86.175975 
L 306.918042 97.127596 
L 298.593566 105.220123 
L 290.269091 127.295236 
L 281.944615 85.577135 
L 273.62014 101.209166 
L 265.295664 75.84136 
L 256.971189 80.858749 
L 248.646713 94.649408 
L 240.322238 121.736205 
L 231.997762 150.925677 
L 223.673287 192.886603 
L 215.348811 188.279441 
L 207.024336 200.366016 
L 198.69986 187.458783 
L 190.375385 174.033918 
L 182.050909 197.190288 
L 173.726434 215.547753 
L 165.401958 215.430217 
L 157.077483 184.1055 
L 148.753007 232.979455 
L 140.428531 211.260433 
L 132.104056 246.299064 
L 123.77958 275.924052 
L 115.455105 272.609858 
L 107.130629 268.579077 
L 98.806154 276.071121 
L 90.481678 272.819956 
L 82.157203 268.175435 
L 73.832727 283.657172 
z
" style="fill:#1f77b4;fill-opacity:0.3;"/>
   </g>
   <g id="PolyCollection_2">
    <path clip-path="url(#p623ce59a57)" d="M 73.832727 283.657172 
L 73.832727 283.657172 
L 82.157203 283.657172 
L 90.481678 283.657172 
L 98.806154 284.843731 
L 107.130629 284.487763 
L 115.455105 291.594849 
L 123.77958 289.213546 
L 132.104056 283.770677 
L 140.428531 283.736626 
L 148.753007 293.895481 
L 157.077483 290.823988 
L 165.401958 288.673944 
L 173.726434 281.408589 
L 182.050909 282.310626 
L 190.375385 282.551252 
L 198.69986 289.405344 
L 207.024336 269.180269 
L 215.348811 275.489898 
L 223.673287 270.799127 
L 231.997762 268.198245 
L 240.322238 272.59816 
L 248.646713 280.223575 
L 256.971189 257.656731 
L 265.295664 258.708456 
L 273.62014 242.320241 
L 281.944615 219.41882 
L 290.269091 222.711895 
L 298.593566 166.914362 
L 306.918042 141.705085 
L 315.242517 181.56462 
L 323.566993 207.877392 
L 331.891469 229.919894 
L 340.215944 184.673868 
L 348.54042 189.027152 
L 356.864895 222.340786 
L 365.189371 212.942624 
L 373.513846 229.958325 
L 381.838322 240.432217 
L 390.162797 216.129369 
L 398.487273 177.975049 
L 398.487273 177.975049 
L 398.487273 113.379262 
L 390.162797 95.817296 
L 381.838322 108.611848 
L 373.513846 128.788822 
L 365.189371 112.626999 
L 356.864895 104.851505 
L 348.54042 95.851877 
L 340.215944 112.687269 
L 331.891469 99.006827 
L 323.566993 114.523219 
L 315.242517 137.204125 
L 306.918042 109.565532 
L 298.593566 123.634959 
L 290.269091 99.602539 
L 281.944615 105.81664 
L 273.62014 119.739775 
L 265.295664 117.147555 
L 256.971189 138.010012 
L 248.646713 130.886137 
L 240.322238 120.879203 
L 231.997762 146.02751 
L 223.673287 189.175476 
L 215.348811 183.515638 
L 207.024336 152.416795 
L 198.69986 174.370488 
L 190.375385 187.483772 
L 182.050909 241.8082 
L 173.726434 233.812322 
L 165.401958 254.807225 
L 157.077483 242.442962 
L 148.753007 224.779729 
L 140.428531 261.833738 
L 132.104056 252.480838 
L 123.77958 249.428156 
L 115.455105 234.758577 
L 107.130629 280.557365 
L 98.806154 279.228875 
L 90.481678 283.657172 
L 82.157203 283.657172 
L 73.832727 283.657172 
z
" style="fill:#ff7f0e;fill-opacity:0.3;"/>
   </g>
   <g id="PolyCollection_3">
    <path clip-path="url(#p623ce59a57)" d="M 73.832727 283.657172 
L 73.832727 283.657172 
L 82.157203 295.488 
L 90.481678 291.938752 
L 98.806154 286.486015 
L 107.130629 277.255012 
L 115.455105 276.969752 
L 123.77958 278.975978 
L 132.104056 280.380336 
L 140.428531 283.863541 
L 148.753007 284.171585 
L 157.077483 269.784157 
L 165.401958 265.316628 
L 173.726434 268.747982 
L 182.050909 269.788274 
L 190.375385 267.322424 
L 198.69986 264.785407 
L 207.024336 258.073893 
L 215.348811 266.401329 
L 223.673287 257.03037 
L 231.997762 256.158892 
L 240.322238 237.143235 
L 248.646713 210.218778 
L 256.971189 198.680971 
L 265.295664 210.263303 
L 273.62014 221.646 
L 281.944615 173.1197 
L 290.269091 155.134637 
L 298.593566 184.970372 
L 306.918042 195.326582 
L 315.242517 153.261542 
L 323.566993 149.534046 
L 331.891469 169.179084 
L 340.215944 174.077841 
L 348.54042 206.193764 
L 356.864895 219.872429 
L 365.189371 196.867979 
L 373.513846 175.077859 
L 381.838322 150.596568 
L 390.162797 168.572083 
L 398.487273 196.887966 
L 398.487273 196.887966 
L 398.487273 83.391767 
L 390.162797 65.888281 
L 381.838322 75.474877 
L 373.513846 84.469489 
L 365.189371 91.418649 
L 356.864895 109.784011 
L 348.54042 101.108076 
L 340.215944 123.415594 
L 331.891469 90.923609 
L 323.566993 77.815067 
L 315.242517 77.837619 
L 306.918042 85.699959 
L 298.593566 84.417358 
L 290.269091 75.810751 
L 281.944615 94.439607 
L 273.62014 115.488739 
L 265.295664 128.472894 
L 256.971189 146.705098 
L 248.646713 97.920982 
L 240.322238 109.004629 
L 231.997762 146.60042 
L 223.673287 164.560163 
L 215.348811 158.70761 
L 207.024336 174.481698 
L 198.69986 193.235552 
L 190.375385 185.982343 
L 182.050909 203.255819 
L 173.726434 200.019731 
L 165.401958 209.497246 
L 157.077483 221.223314 
L 148.753007 223.344638 
L 140.428531 243.827461 
L 132.104056 254.789746 
L 123.77958 242.417992 
L 115.455105 224.744057 
L 107.130629 244.655257 
L 98.806154 232.068 
L 90.481678 252.749898 
L 82.157203 239.503923 
L 73.832727 283.657172 
z
" style="fill:#2ca02c;fill-opacity:0.3;"/>
   </g>
   <g id="PolyCollection_4">
    <path clip-path="url(#p623ce59a57)" d="M 73.832727 283.657172 
L 73.832727 283.657172 
L 82.157203 283.657172 
L 90.481678 283.657172 
L 98.806154 283.657172 
L 107.130629 283.657172 
L 115.455105 287.159793 
L 123.77958 286.109007 
L 132.104056 280.531335 
L 140.428531 268.0835 
L 148.753007 281.004851 
L 157.077483 251.093661 
L 165.401958 236.474203 
L 173.726434 241.262152 
L 182.050909 252.488433 
L 190.375385 261.839055 
L 198.69986 249.423627 
L 207.024336 190.004622 
L 215.348811 178.110412 
L 223.673287 187.873998 
L 231.997762 173.384402 
L 240.322238 211.770772 
L 248.646713 210.973556 
L 256.971189 194.002999 
L 265.295664 191.130676 
L 273.62014 156.490246 
L 281.944615 168.830249 
L 290.269091 141.450115 
L 298.593566 168.320327 
L 306.918042 159.192956 
L 315.242517 184.587227 
L 323.566993 158.77275 
L 331.891469 184.901212 
L 340.215944 168.130675 
L 348.54042 173.401694 
L 356.864895 160.347543 
L 365.189371 170.393345 
L 373.513846 137.757876 
L 381.838322 150.092647 
L 390.162797 163.554947 
L 398.487273 189.407595 
L 398.487273 189.407595 
L 398.487273 130.541401 
L 390.162797 148.26987 
L 381.838322 98.41753 
L 373.513846 69.332139 
L 365.189371 78.131713 
L 356.864895 101.503595 
L 348.54042 100.661858 
L 340.215944 91.128101 
L 331.891469 90.372355 
L 323.566993 86.709425 
L 315.242517 94.805964 
L 306.918042 105.733685 
L 298.593566 94.122981 
L 290.269091 100.334643 
L 281.944615 91.127948 
L 273.62014 122.81154 
L 265.295664 145.953652 
L 256.971189 134.388267 
L 248.646713 130.510481 
L 240.322238 131.692041 
L 231.997762 116.996469 
L 223.673287 154.059616 
L 215.348811 118.668166 
L 207.024336 128.194364 
L 198.69986 161.555193 
L 190.375385 170.708391 
L 182.050909 122.301771 
L 173.726434 151.732546 
L 165.401958 175.693089 
L 157.077483 191.666065 
L 148.753007 192.770929 
L 140.428531 211.203842 
L 132.104056 257.062935 
L 123.77958 247.587181 
L 115.455105 232.128613 
L 107.130629 283.657172 
L 98.806154 283.657172 
L 90.481678 283.657172 
L 82.157203 283.657172 
L 73.832727 283.657172 
z
" style="fill:#d62728;fill-opacity:0.3;"/>
   </g>
   <g id="matplotlib.axis_1">
    <g id="xtick_1">
     <g id="line2d_1">
      <defs>
       <path d="M 0 0 
L 0 3.5 
" id="m9a54874db4" style="stroke:#000000;stroke-width:0.8;"/>
      </defs>
      <g>
       <use style="stroke:#000000;stroke-width:0.8;" x="65.508252" xlink:href="#m9a54874db4" y="307.584"/>
      </g>
     </g>
     <g id="text_1">
      <!-- 0 -->
      <g transform="translate(62.327002 322.182437)scale(0.1 -0.1)">
       <defs>
        <path d="M 2034 4250 
Q 1547 4250 1301 3770 
Q 1056 3291 1056 2328 
Q 1056 1369 1301 889 
Q 1547 409 2034 409 
Q 2525 409 2770 889 
Q 3016 1369 3016 2328 
Q 3016 3291 2770 3770 
Q 2525 4250 2034 4250 
z
M 2034 4750 
Q 2819 4750 3233 4129 
Q 3647 3509 3647 2328 
Q 3647 1150 3233 529 
Q 2819 -91 2034 -91 
Q 1250 -91 836 529 
Q 422 1150 422 2328 
Q 422 3509 836 4129 
Q 1250 4750 2034 4750 
z
" id="DejaVuSans-30" transform="scale(0.015625)"/>
       </defs>
       <use xlink:href="#DejaVuSans-30"/>
      </g>
     </g>
    </g>
    <g id="xtick_2">
     <g id="line2d_2">
      <g>
       <use style="stroke:#000000;stroke-width:0.8;" x="107.130629" xlink:href="#m9a54874db4" y="307.584"/>
      </g>
     </g>
     <g id="text_2">
      <!-- 25 -->
      <g transform="translate(100.768129 322.182437)scale(0.1 -0.1)">
       <defs>
        <path d="M 1228 531 
L 3431 531 
L 3431 0 
L 469 0 
L 469 531 
Q 828 903 1448 1529 
Q 2069 2156 2228 2338 
Q 2531 2678 2651 2914 
Q 2772 3150 2772 3378 
Q 2772 3750 2511 3984 
Q 2250 4219 1831 4219 
Q 1534 4219 1204 4116 
Q 875 4013 500 3803 
L 500 4441 
Q 881 4594 1212 4672 
Q 1544 4750 1819 4750 
Q 2544 4750 2975 4387 
Q 3406 4025 3406 3419 
Q 3406 3131 3298 2873 
Q 3191 2616 2906 2266 
Q 2828 2175 2409 1742 
Q 1991 1309 1228 531 
z
" id="DejaVuSans-32" transform="scale(0.015625)"/>
        <path d="M 691 4666 
L 3169 4666 
L 3169 4134 
L 1269 4134 
L 1269 2991 
Q 1406 3038 1543 3061 
Q 1681 3084 1819 3084 
Q 2600 3084 3056 2656 
Q 3513 2228 3513 1497 
Q 3513 744 3044 326 
Q 2575 -91 1722 -91 
Q 1428 -91 1123 -41 
Q 819 9 494 109 
L 494 744 
Q 775 591 1075 516 
Q 1375 441 1709 441 
Q 2250 441 2565 725 
Q 2881 1009 2881 1497 
Q 2881 1984 2565 2268 
Q 2250 2553 1709 2553 
Q 1456 2553 1204 2497 
Q 953 2441 691 2322 
L 691 4666 
z
" id="DejaVuSans-35" transform="scale(0.015625)"/>
       </defs>
       <use xlink:href="#DejaVuSans-32"/>
       <use x="63.623047" xlink:href="#DejaVuSans-35"/>
      </g>
     </g>
    </g>
    <g id="xtick_3">
     <g id="line2d_3">
      <g>
       <use style="stroke:#000000;stroke-width:0.8;" x="148.753007" xlink:href="#m9a54874db4" y="307.584"/>
      </g>
     </g>
     <g id="text_3">
      <!-- 50 -->
      <g transform="translate(142.390507 322.182437)scale(0.1 -0.1)">
       <use xlink:href="#DejaVuSans-35"/>
       <use x="63.623047" xlink:href="#DejaVuSans-30"/>
      </g>
     </g>
    </g>
    <g id="xtick_4">
     <g id="line2d_4">
      <g>
       <use style="stroke:#000000;stroke-width:0.8;" x="190.375385" xlink:href="#m9a54874db4" y="307.584"/>
      </g>
     </g>
     <g id="text_4">
      <!-- 75 -->
      <g transform="translate(184.012885 322.182437)scale(0.1 -0.1)">
       <defs>
        <path d="M 525 4666 
L 3525 4666 
L 3525 4397 
L 1831 0 
L 1172 0 
L 2766 4134 
L 525 4134 
L 525 4666 
z
" id="DejaVuSans-37" transform="scale(0.015625)"/>
       </defs>
       <use xlink:href="#DejaVuSans-37"/>
       <use x="63.623047" xlink:href="#DejaVuSans-35"/>
      </g>
     </g>
    </g>
    <g id="xtick_5">
     <g id="line2d_5">
      <g>
       <use style="stroke:#000000;stroke-width:0.8;" x="231.997762" xlink:href="#m9a54874db4" y="307.584"/>
      </g>
     </g>
     <g id="text_5">
      <!-- 100 -->
      <g transform="translate(222.454012 322.182437)scale(0.1 -0.1)">
       <defs>
        <path d="M 794 531 
L 1825 531 
L 1825 4091 
L 703 3866 
L 703 4441 
L 1819 4666 
L 2450 4666 
L 2450 531 
L 3481 531 
L 3481 0 
L 794 0 
L 794 531 
z
" id="DejaVuSans-31" transform="scale(0.015625)"/>
       </defs>
       <use xlink:href="#DejaVuSans-31"/>
       <use x="63.623047" xlink:href="#DejaVuSans-30"/>
       <use x="127.246094" xlink:href="#DejaVuSans-30"/>
      </g>
     </g>
    </g>
    <g id="xtick_6">
     <g id="line2d_6">
      <g>
       <use style="stroke:#000000;stroke-width:0.8;" x="273.62014" xlink:href="#m9a54874db4" y="307.584"/>
      </g>
     </g>
     <g id="text_6">
      <!-- 125 -->
      <g transform="translate(264.07639 322.182437)scale(0.1 -0.1)">
       <use xlink:href="#DejaVuSans-31"/>
       <use x="63.623047" xlink:href="#DejaVuSans-32"/>
       <use x="127.246094" xlink:href="#DejaVuSans-35"/>
      </g>
     </g>
    </g>
    <g id="xtick_7">
     <g id="line2d_7">
      <g>
       <use style="stroke:#000000;stroke-width:0.8;" x="315.242517" xlink:href="#m9a54874db4" y="307.584"/>
      </g>
     </g>
     <g id="text_7">
      <!-- 150 -->
      <g transform="translate(305.698767 322.182437)scale(0.1 -0.1)">
       <use xlink:href="#DejaVuSans-31"/>
       <use x="63.623047" xlink:href="#DejaVuSans-35"/>
       <use x="127.246094" xlink:href="#DejaVuSans-30"/>
      </g>
     </g>
    </g>
    <g id="xtick_8">
     <g id="line2d_8">
      <g>
       <use style="stroke:#000000;stroke-width:0.8;" x="356.864895" xlink:href="#m9a54874db4" y="307.584"/>
      </g>
     </g>
     <g id="text_8">
      <!-- 175 -->
      <g transform="translate(347.321145 322.182437)scale(0.1 -0.1)">
       <use xlink:href="#DejaVuSans-31"/>
       <use x="63.623047" xlink:href="#DejaVuSans-37"/>
       <use x="127.246094" xlink:href="#DejaVuSans-35"/>
      </g>
     </g>
    </g>
    <g id="xtick_9">
     <g id="line2d_9">
      <g>
       <use style="stroke:#000000;stroke-width:0.8;" x="398.487273" xlink:href="#m9a54874db4" y="307.584"/>
      </g>
     </g>
     <g id="text_9">
      <!-- 200 -->
      <g transform="translate(388.943523 322.182437)scale(0.1 -0.1)">
       <use xlink:href="#DejaVuSans-32"/>
       <use x="63.623047" xlink:href="#DejaVuSans-30"/>
       <use x="127.246094" xlink:href="#DejaVuSans-30"/>
      </g>
     </g>
    </g>
   </g>
   <g id="matplotlib.axis_2">
    <g id="ytick_1">
     <g id="line2d_10">
      <defs>
       <path d="M 0 0 
L -3.5 0 
" id="mf43ab3c6d8" style="stroke:#000000;stroke-width:0.8;"/>
      </defs>
      <g>
       <use style="stroke:#000000;stroke-width:0.8;" x="57.6" xlink:href="#mf43ab3c6d8" y="288.438142"/>
      </g>
     </g>
     <g id="text_10">
      <!-- −400 -->
      <g transform="translate(23.132812 292.23736)scale(0.1 -0.1)">
       <defs>
        <path d="M 678 2272 
L 4684 2272 
L 4684 1741 
L 678 1741 
L 678 2272 
z
" id="DejaVuSans-2212" transform="scale(0.015625)"/>
        <path d="M 2419 4116 
L 825 1625 
L 2419 1625 
L 2419 4116 
z
M 2253 4666 
L 3047 4666 
L 3047 1625 
L 3713 1625 
L 3713 1100 
L 3047 1100 
L 3047 0 
L 2419 0 
L 2419 1100 
L 313 1100 
L 313 1709 
L 2253 4666 
z
" id="DejaVuSans-34" transform="scale(0.015625)"/>
       </defs>
       <use xlink:href="#DejaVuSans-2212"/>
       <use x="83.789062" xlink:href="#DejaVuSans-34"/>
       <use x="147.412109" xlink:href="#DejaVuSans-30"/>
       <use x="211.035156" xlink:href="#DejaVuSans-30"/>
      </g>
     </g>
    </g>
    <g id="ytick_2">
     <g id="line2d_11">
      <g>
       <use style="stroke:#000000;stroke-width:0.8;" x="57.6" xlink:href="#mf43ab3c6d8" y="250.963533"/>
      </g>
     </g>
     <g id="text_11">
      <!-- −350 -->
      <g transform="translate(23.132812 254.762752)scale(0.1 -0.1)">
       <defs>
        <path d="M 2597 2516 
Q 3050 2419 3304 2112 
Q 3559 1806 3559 1356 
Q 3559 666 3084 287 
Q 2609 -91 1734 -91 
Q 1441 -91 1130 -33 
Q 819 25 488 141 
L 488 750 
Q 750 597 1062 519 
Q 1375 441 1716 441 
Q 2309 441 2620 675 
Q 2931 909 2931 1356 
Q 2931 1769 2642 2001 
Q 2353 2234 1838 2234 
L 1294 2234 
L 1294 2753 
L 1863 2753 
Q 2328 2753 2575 2939 
Q 2822 3125 2822 3475 
Q 2822 3834 2567 4026 
Q 2313 4219 1838 4219 
Q 1578 4219 1281 4162 
Q 984 4106 628 3988 
L 628 4550 
Q 988 4650 1302 4700 
Q 1616 4750 1894 4750 
Q 2613 4750 3031 4423 
Q 3450 4097 3450 3541 
Q 3450 3153 3228 2886 
Q 3006 2619 2597 2516 
z
" id="DejaVuSans-33" transform="scale(0.015625)"/>
       </defs>
       <use xlink:href="#DejaVuSans-2212"/>
       <use x="83.789062" xlink:href="#DejaVuSans-33"/>
       <use x="147.412109" xlink:href="#DejaVuSans-35"/>
       <use x="211.035156" xlink:href="#DejaVuSans-30"/>
      </g>
     </g>
    </g>
    <g id="ytick_3">
     <g id="line2d_12">
      <g>
       <use style="stroke:#000000;stroke-width:0.8;" x="57.6" xlink:href="#mf43ab3c6d8" y="213.488925"/>
      </g>
     </g>
     <g id="text_12">
      <!-- −300 -->
      <g transform="translate(23.132812 217.288143)scale(0.1 -0.1)">
       <use xlink:href="#DejaVuSans-2212"/>
       <use x="83.789062" xlink:href="#DejaVuSans-33"/>
       <use x="147.412109" xlink:href="#DejaVuSans-30"/>
       <use x="211.035156" xlink:href="#DejaVuSans-30"/>
      </g>
     </g>
    </g>
    <g id="ytick_4">
     <g id="line2d_13">
      <g>
       <use style="stroke:#000000;stroke-width:0.8;" x="57.6" xlink:href="#mf43ab3c6d8" y="176.014316"/>
      </g>
     </g>
     <g id="text_13">
      <!-- −250 -->
      <g transform="translate(23.132812 179.813535)scale(0.1 -0.1)">
       <use xlink:href="#DejaVuSans-2212"/>
       <use x="83.789062" xlink:href="#DejaVuSans-32"/>
       <use x="147.412109" xlink:href="#DejaVuSans-35"/>
       <use x="211.035156" xlink:href="#DejaVuSans-30"/>
      </g>
     </g>
    </g>
    <g id="ytick_5">
     <g id="line2d_14">
      <g>
       <use style="stroke:#000000;stroke-width:0.8;" x="57.6" xlink:href="#mf43ab3c6d8" y="138.539708"/>
      </g>
     </g>
     <g id="text_14">
      <!-- −200 -->
      <g transform="translate(23.132812 142.338927)scale(0.1 -0.1)">
       <use xlink:href="#DejaVuSans-2212"/>
       <use x="83.789062" xlink:href="#DejaVuSans-32"/>
       <use x="147.412109" xlink:href="#DejaVuSans-30"/>
       <use x="211.035156" xlink:href="#DejaVuSans-30"/>
      </g>
     </g>
    </g>
    <g id="ytick_6">
     <g id="line2d_15">
      <g>
       <use style="stroke:#000000;stroke-width:0.8;" x="57.6" xlink:href="#mf43ab3c6d8" y="101.065099"/>
      </g>
     </g>
     <g id="text_15">
      <!-- −150 -->
      <g transform="translate(23.132812 104.864318)scale(0.1 -0.1)">
       <use xlink:href="#DejaVuSans-2212"/>
       <use x="83.789062" xlink:href="#DejaVuSans-31"/>
       <use x="147.412109" xlink:href="#DejaVuSans-35"/>
       <use x="211.035156" xlink:href="#DejaVuSans-30"/>
      </g>
     </g>
    </g>
    <g id="ytick_7">
     <g id="line2d_16">
      <g>
       <use style="stroke:#000000;stroke-width:0.8;" x="57.6" xlink:href="#mf43ab3c6d8" y="63.590491"/>
      </g>
     </g>
     <g id="text_16">
      <!-- −100 -->
      <g transform="translate(23.132812 67.38971)scale(0.1 -0.1)">
       <use xlink:href="#DejaVuSans-2212"/>
       <use x="83.789062" xlink:href="#DejaVuSans-31"/>
       <use x="147.412109" xlink:href="#DejaVuSans-30"/>
       <use x="211.035156" xlink:href="#DejaVuSans-30"/>
      </g>
     </g>
    </g>
   </g>
   <g id="line2d_17">
    <path clip-path="url(#p623ce59a57)" d="M 73.832727 283.657172 
L 82.157203 277.990463 
L 90.481678 279.690476 
L 98.806154 280.880485 
L 107.130629 276.730687 
L 115.455105 278.401337 
L 123.77958 279.978088 
L 132.104056 267.855964 
L 140.428531 250.45459 
L 148.753007 260.415365 
L 157.077483 222.283427 
L 165.401958 235.553553 
L 173.726434 235.253704 
L 182.050909 232.527618 
L 190.375385 227.202368 
L 198.69986 230.391851 
L 207.024336 228.965895 
L 215.348811 227.694415 
L 223.673287 229.149324 
L 231.997762 178.313653 
L 240.322238 146.617342 
L 248.646713 136.880863 
L 256.971189 110.411816 
L 265.295664 110.630266 
L 273.62014 120.144226 
L 281.944615 106.072184 
L 290.269091 142.050561 
L 298.593566 115.680146 
L 306.918042 113.313751 
L 315.242517 112.911667 
L 323.566993 97.912941 
L 331.891469 100.903251 
L 340.215944 111.754477 
L 348.54042 111.238068 
L 356.864895 93.544943 
L 365.189371 87.905162 
L 373.513846 95.111313 
L 381.838322 86.328854 
L 390.162797 109.493022 
L 398.487273 93.650084 
" style="fill:none;stroke:#1f77b4;stroke-linecap:square;stroke-width:1.5;"/>
   </g>
   <g id="line2d_18">
    <path clip-path="url(#p623ce59a57)" d="M 73.832727 283.657172 
L 82.157203 283.657172 
L 90.481678 283.657172 
L 98.806154 282.036303 
L 107.130629 282.522564 
L 115.455105 263.176713 
L 123.77958 269.320851 
L 132.104056 268.125758 
L 140.428531 272.785182 
L 148.753007 259.337605 
L 157.077483 266.633475 
L 165.401958 271.740584 
L 173.726434 257.610455 
L 182.050909 262.059413 
L 190.375385 235.017512 
L 198.69986 231.887916 
L 207.024336 210.798532 
L 215.348811 229.502768 
L 223.673287 229.987302 
L 231.997762 207.112877 
L 240.322238 196.738681 
L 248.646713 205.554856 
L 256.971189 197.833372 
L 265.295664 187.928006 
L 273.62014 181.030008 
L 281.944615 162.61773 
L 290.269091 161.157217 
L 298.593566 145.274661 
L 306.918042 125.635308 
L 315.242517 159.384373 
L 323.566993 161.200306 
L 331.891469 164.463361 
L 340.215944 148.680569 
L 348.54042 142.439515 
L 356.864895 163.596146 
L 365.189371 162.784812 
L 373.513846 179.373573 
L 381.838322 174.522032 
L 390.162797 155.973332 
L 398.487273 145.677155 
" style="fill:none;stroke:#ff7f0e;stroke-linecap:square;stroke-width:1.5;"/>
   </g>
   <g id="line2d_19">
    <path clip-path="url(#p623ce59a57)" d="M 73.832727 283.657172 
L 82.157203 267.495961 
L 90.481678 272.344325 
L 98.806154 259.277007 
L 107.130629 260.955134 
L 115.455105 250.856904 
L 123.77958 260.696985 
L 132.104056 267.585041 
L 140.428531 263.845501 
L 148.753007 253.758112 
L 157.077483 245.503735 
L 165.401958 237.406937 
L 173.726434 234.383857 
L 182.050909 236.522047 
L 190.375385 226.652383 
L 198.69986 229.01048 
L 207.024336 216.277795 
L 215.348811 212.55447 
L 223.673287 210.795267 
L 231.997762 201.379656 
L 240.322238 173.073932 
L 248.646713 154.06988 
L 256.971189 172.693035 
L 265.295664 169.368099 
L 273.62014 168.56737 
L 281.944615 133.779653 
L 290.269091 115.472694 
L 298.593566 134.693865 
L 306.918042 140.513271 
L 315.242517 115.549581 
L 323.566993 113.674557 
L 331.891469 130.051347 
L 340.215944 148.746718 
L 348.54042 153.65092 
L 356.864895 164.82822 
L 365.189371 144.143314 
L 373.513846 129.773674 
L 381.838322 113.035722 
L 390.162797 117.230182 
L 398.487273 140.139866 
" style="fill:none;stroke:#2ca02c;stroke-linecap:square;stroke-width:1.5;"/>
   </g>
   <g id="line2d_20">
    <path clip-path="url(#p623ce59a57)" d="M 73.832727 283.657172 
L 82.157203 283.657172 
L 90.481678 283.657172 
L 98.806154 283.657172 
L 107.130629 283.657172 
L 115.455105 259.644203 
L 123.77958 266.848094 
L 132.104056 268.797135 
L 140.428531 239.643671 
L 148.753007 236.88789 
L 157.077483 221.379863 
L 165.401958 206.083646 
L 173.726434 196.497349 
L 182.050909 187.395102 
L 190.375385 216.273723 
L 198.69986 205.48941 
L 207.024336 159.099493 
L 215.348811 148.389289 
L 223.673287 170.966807 
L 231.997762 145.190436 
L 240.322238 171.731406 
L 248.646713 170.742018 
L 256.971189 164.195633 
L 265.295664 168.542164 
L 273.62014 139.650893 
L 281.944615 129.979098 
L 290.269091 120.892379 
L 298.593566 131.221654 
L 306.918042 132.46332 
L 315.242517 139.696595 
L 323.566993 122.741087 
L 331.891469 137.636784 
L 340.215944 129.629388 
L 348.54042 137.031776 
L 356.864895 130.925569 
L 365.189371 124.262529 
L 373.513846 103.545007 
L 381.838322 124.255089 
L 390.162797 155.912408 
L 398.487273 159.974498 
" style="fill:none;stroke:#d62728;stroke-linecap:square;stroke-width:1.5;"/>
   </g>
   <g id="patch_3">
    <path d="M 57.6 307.584 
L 57.6 41.472 
" style="fill:none;stroke:#000000;stroke-linecap:square;stroke-linejoin:miter;stroke-width:0.8;"/>
   </g>
   <g id="patch_4">
    <path d="M 414.72 307.584 
L 414.72 41.472 
" style="fill:none;stroke:#000000;stroke-linecap:square;stroke-linejoin:miter;stroke-width:0.8;"/>
   </g>
   <g id="patch_5">
    <path d="M 57.6 307.584 
L 414.72 307.584 
" style="fill:none;stroke:#000000;stroke-linecap:square;stroke-linejoin:miter;stroke-width:0.8;"/>
   </g>
   <g id="patch_6">
    <path d="M 57.6 41.472 
L 414.72 41.472 
" style="fill:none;stroke:#000000;stroke-linecap:square;stroke-linejoin:miter;stroke-width:0.8;"/>
   </g>
   <g id="legend_1">
    <g id="patch_7">
     <path d="M 64.6 108.1845 
L 172.840625 108.1845 
Q 174.840625 108.1845 174.840625 106.1845 
L 174.840625 48.472 
Q 174.840625 46.472 172.840625 46.472 
L 64.6 46.472 
Q 62.6 46.472 62.6 48.472 
L 62.6 106.1845 
Q 62.6 108.1845 64.6 108.1845 
z
" style="fill:#ffffff;opacity:0.8;stroke:#cccccc;stroke-linejoin:miter;"/>
    </g>
    <g id="line2d_21">
     <path d="M 66.6 54.570438 
L 86.6 54.570438 
" style="fill:none;stroke:#1f77b4;stroke-linecap:square;stroke-width:1.5;"/>
    </g>
    <g id="line2d_22"/>
    <g id="text_17">
     <!-- DQN -->
     <g transform="translate(94.6 58.070438)scale(0.1 -0.1)">
      <defs>
       <path d="M 1259 4147 
L 1259 519 
L 2022 519 
Q 2988 519 3436 956 
Q 3884 1394 3884 2338 
Q 3884 3275 3436 3711 
Q 2988 4147 2022 4147 
L 1259 4147 
z
M 628 4666 
L 1925 4666 
Q 3281 4666 3915 4102 
Q 4550 3538 4550 2338 
Q 4550 1131 3912 565 
Q 3275 0 1925 0 
L 628 0 
L 628 4666 
z
" id="DejaVuSans-44" transform="scale(0.015625)"/>
       <path d="M 2522 4238 
Q 1834 4238 1429 3725 
Q 1025 3213 1025 2328 
Q 1025 1447 1429 934 
Q 1834 422 2522 422 
Q 3209 422 3611 934 
Q 4013 1447 4013 2328 
Q 4013 3213 3611 3725 
Q 3209 4238 2522 4238 
z
M 3406 84 
L 4238 -825 
L 3475 -825 
L 2784 -78 
Q 2681 -84 2626 -87 
Q 2572 -91 2522 -91 
Q 1538 -91 948 567 
Q 359 1225 359 2328 
Q 359 3434 948 4092 
Q 1538 4750 2522 4750 
Q 3503 4750 4090 4092 
Q 4678 3434 4678 2328 
Q 4678 1516 4351 937 
Q 4025 359 3406 84 
z
" id="DejaVuSans-51" transform="scale(0.015625)"/>
       <path d="M 628 4666 
L 1478 4666 
L 3547 763 
L 3547 4666 
L 4159 4666 
L 4159 0 
L 3309 0 
L 1241 3903 
L 1241 0 
L 628 0 
L 628 4666 
z
" id="DejaVuSans-4e" transform="scale(0.015625)"/>
      </defs>
      <use xlink:href="#DejaVuSans-44"/>
      <use x="77.001953" xlink:href="#DejaVuSans-51"/>
      <use x="155.712891" xlink:href="#DejaVuSans-4e"/>
     </g>
    </g>
    <g id="line2d_23">
     <path d="M 66.6 69.248563 
L 86.6 69.248563 
" style="fill:none;stroke:#ff7f0e;stroke-linecap:square;stroke-width:1.5;"/>
    </g>
    <g id="line2d_24"/>
    <g id="text_18">
     <!-- BackwardDQN -->
     <g transform="translate(94.6 72.748563)scale(0.1 -0.1)">
      <defs>
       <path d="M 1259 2228 
L 1259 519 
L 2272 519 
Q 2781 519 3026 730 
Q 3272 941 3272 1375 
Q 3272 1813 3026 2020 
Q 2781 2228 2272 2228 
L 1259 2228 
z
M 1259 4147 
L 1259 2741 
L 2194 2741 
Q 2656 2741 2882 2914 
Q 3109 3088 3109 3444 
Q 3109 3797 2882 3972 
Q 2656 4147 2194 4147 
L 1259 4147 
z
M 628 4666 
L 2241 4666 
Q 2963 4666 3353 4366 
Q 3744 4066 3744 3513 
Q 3744 3084 3544 2831 
Q 3344 2578 2956 2516 
Q 3422 2416 3680 2098 
Q 3938 1781 3938 1306 
Q 3938 681 3513 340 
Q 3088 0 2303 0 
L 628 0 
L 628 4666 
z
" id="DejaVuSans-42" transform="scale(0.015625)"/>
       <path d="M 2194 1759 
Q 1497 1759 1228 1600 
Q 959 1441 959 1056 
Q 959 750 1161 570 
Q 1363 391 1709 391 
Q 2188 391 2477 730 
Q 2766 1069 2766 1631 
L 2766 1759 
L 2194 1759 
z
M 3341 1997 
L 3341 0 
L 2766 0 
L 2766 531 
Q 2569 213 2275 61 
Q 1981 -91 1556 -91 
Q 1019 -91 701 211 
Q 384 513 384 1019 
Q 384 1609 779 1909 
Q 1175 2209 1959 2209 
L 2766 2209 
L 2766 2266 
Q 2766 2663 2505 2880 
Q 2244 3097 1772 3097 
Q 1472 3097 1187 3025 
Q 903 2953 641 2809 
L 641 3341 
Q 956 3463 1253 3523 
Q 1550 3584 1831 3584 
Q 2591 3584 2966 3190 
Q 3341 2797 3341 1997 
z
" id="DejaVuSans-61" transform="scale(0.015625)"/>
       <path d="M 3122 3366 
L 3122 2828 
Q 2878 2963 2633 3030 
Q 2388 3097 2138 3097 
Q 1578 3097 1268 2742 
Q 959 2388 959 1747 
Q 959 1106 1268 751 
Q 1578 397 2138 397 
Q 2388 397 2633 464 
Q 2878 531 3122 666 
L 3122 134 
Q 2881 22 2623 -34 
Q 2366 -91 2075 -91 
Q 1284 -91 818 406 
Q 353 903 353 1747 
Q 353 2603 823 3093 
Q 1294 3584 2113 3584 
Q 2378 3584 2631 3529 
Q 2884 3475 3122 3366 
z
" id="DejaVuSans-63" transform="scale(0.015625)"/>
       <path d="M 581 4863 
L 1159 4863 
L 1159 1991 
L 2875 3500 
L 3609 3500 
L 1753 1863 
L 3688 0 
L 2938 0 
L 1159 1709 
L 1159 0 
L 581 0 
L 581 4863 
z
" id="DejaVuSans-6b" transform="scale(0.015625)"/>
       <path d="M 269 3500 
L 844 3500 
L 1563 769 
L 2278 3500 
L 2956 3500 
L 3675 769 
L 4391 3500 
L 4966 3500 
L 4050 0 
L 3372 0 
L 2619 2869 
L 1863 0 
L 1184 0 
L 269 3500 
z
" id="DejaVuSans-77" transform="scale(0.015625)"/>
       <path d="M 2631 2963 
Q 2534 3019 2420 3045 
Q 2306 3072 2169 3072 
Q 1681 3072 1420 2755 
Q 1159 2438 1159 1844 
L 1159 0 
L 581 0 
L 581 3500 
L 1159 3500 
L 1159 2956 
Q 1341 3275 1631 3429 
Q 1922 3584 2338 3584 
Q 2397 3584 2469 3576 
Q 2541 3569 2628 3553 
L 2631 2963 
z
" id="DejaVuSans-72" transform="scale(0.015625)"/>
       <path d="M 2906 2969 
L 2906 4863 
L 3481 4863 
L 3481 0 
L 2906 0 
L 2906 525 
Q 2725 213 2448 61 
Q 2172 -91 1784 -91 
Q 1150 -91 751 415 
Q 353 922 353 1747 
Q 353 2572 751 3078 
Q 1150 3584 1784 3584 
Q 2172 3584 2448 3432 
Q 2725 3281 2906 2969 
z
M 947 1747 
Q 947 1113 1208 752 
Q 1469 391 1925 391 
Q 2381 391 2643 752 
Q 2906 1113 2906 1747 
Q 2906 2381 2643 2742 
Q 2381 3103 1925 3103 
Q 1469 3103 1208 2742 
Q 947 2381 947 1747 
z
" id="DejaVuSans-64" transform="scale(0.015625)"/>
      </defs>
      <use xlink:href="#DejaVuSans-42"/>
      <use x="68.603516" xlink:href="#DejaVuSans-61"/>
      <use x="129.882812" xlink:href="#DejaVuSans-63"/>
      <use x="184.863281" xlink:href="#DejaVuSans-6b"/>
      <use x="242.773438" xlink:href="#DejaVuSans-77"/>
      <use x="324.560547" xlink:href="#DejaVuSans-61"/>
      <use x="385.839844" xlink:href="#DejaVuSans-72"/>
      <use x="425.203125" xlink:href="#DejaVuSans-64"/>
      <use x="488.679688" xlink:href="#DejaVuSans-44"/>
      <use x="565.681641" xlink:href="#DejaVuSans-51"/>
      <use x="644.392578" xlink:href="#DejaVuSans-4e"/>
     </g>
    </g>
    <g id="line2d_25">
     <path d="M 66.6 83.926688 
L 86.6 83.926688 
" style="fill:none;stroke:#2ca02c;stroke-linecap:square;stroke-width:1.5;"/>
    </g>
    <g id="line2d_26"/>
    <g id="text_19">
     <!-- MultiBatchDQN -->
     <g transform="translate(94.6 87.426688)scale(0.1 -0.1)">
      <defs>
       <path d="M 628 4666 
L 1569 4666 
L 2759 1491 
L 3956 4666 
L 4897 4666 
L 4897 0 
L 4281 0 
L 4281 4097 
L 3078 897 
L 2444 897 
L 1241 4097 
L 1241 0 
L 628 0 
L 628 4666 
z
" id="DejaVuSans-4d" transform="scale(0.015625)"/>
       <path d="M 544 1381 
L 544 3500 
L 1119 3500 
L 1119 1403 
Q 1119 906 1312 657 
Q 1506 409 1894 409 
Q 2359 409 2629 706 
Q 2900 1003 2900 1516 
L 2900 3500 
L 3475 3500 
L 3475 0 
L 2900 0 
L 2900 538 
Q 2691 219 2414 64 
Q 2138 -91 1772 -91 
Q 1169 -91 856 284 
Q 544 659 544 1381 
z
M 1991 3584 
L 1991 3584 
z
" id="DejaVuSans-75" transform="scale(0.015625)"/>
       <path d="M 603 4863 
L 1178 4863 
L 1178 0 
L 603 0 
L 603 4863 
z
" id="DejaVuSans-6c" transform="scale(0.015625)"/>
       <path d="M 1172 4494 
L 1172 3500 
L 2356 3500 
L 2356 3053 
L 1172 3053 
L 1172 1153 
Q 1172 725 1289 603 
Q 1406 481 1766 481 
L 2356 481 
L 2356 0 
L 1766 0 
Q 1100 0 847 248 
Q 594 497 594 1153 
L 594 3053 
L 172 3053 
L 172 3500 
L 594 3500 
L 594 4494 
L 1172 4494 
z
" id="DejaVuSans-74" transform="scale(0.015625)"/>
       <path d="M 603 3500 
L 1178 3500 
L 1178 0 
L 603 0 
L 603 3500 
z
M 603 4863 
L 1178 4863 
L 1178 4134 
L 603 4134 
L 603 4863 
z
" id="DejaVuSans-69" transform="scale(0.015625)"/>
       <path d="M 3513 2113 
L 3513 0 
L 2938 0 
L 2938 2094 
Q 2938 2591 2744 2837 
Q 2550 3084 2163 3084 
Q 1697 3084 1428 2787 
Q 1159 2491 1159 1978 
L 1159 0 
L 581 0 
L 581 4863 
L 1159 4863 
L 1159 2956 
Q 1366 3272 1645 3428 
Q 1925 3584 2291 3584 
Q 2894 3584 3203 3211 
Q 3513 2838 3513 2113 
z
" id="DejaVuSans-68" transform="scale(0.015625)"/>
      </defs>
      <use xlink:href="#DejaVuSans-4d"/>
      <use x="86.279297" xlink:href="#DejaVuSans-75"/>
      <use x="149.658203" xlink:href="#DejaVuSans-6c"/>
      <use x="177.441406" xlink:href="#DejaVuSans-74"/>
      <use x="216.650391" xlink:href="#DejaVuSans-69"/>
      <use x="244.433594" xlink:href="#DejaVuSans-42"/>
      <use x="313.037109" xlink:href="#DejaVuSans-61"/>
      <use x="374.316406" xlink:href="#DejaVuSans-74"/>
      <use x="413.525391" xlink:href="#DejaVuSans-63"/>
      <use x="468.505859" xlink:href="#DejaVuSans-68"/>
      <use x="531.884766" xlink:href="#DejaVuSans-44"/>
      <use x="608.886719" xlink:href="#DejaVuSans-51"/>
      <use x="687.597656" xlink:href="#DejaVuSans-4e"/>
     </g>
    </g>
    <g id="line2d_27">
     <path d="M 66.6 98.604813 
L 86.6 98.604813 
" style="fill:none;stroke:#d62728;stroke-linecap:square;stroke-width:1.5;"/>
    </g>
    <g id="line2d_28"/>
    <g id="text_20">
     <!-- DQBS -->
     <g transform="translate(94.6 102.104813)scale(0.1 -0.1)">
      <defs>
       <path d="M 3425 4513 
L 3425 3897 
Q 3066 4069 2747 4153 
Q 2428 4238 2131 4238 
Q 1616 4238 1336 4038 
Q 1056 3838 1056 3469 
Q 1056 3159 1242 3001 
Q 1428 2844 1947 2747 
L 2328 2669 
Q 3034 2534 3370 2195 
Q 3706 1856 3706 1288 
Q 3706 609 3251 259 
Q 2797 -91 1919 -91 
Q 1588 -91 1214 -16 
Q 841 59 441 206 
L 441 856 
Q 825 641 1194 531 
Q 1563 422 1919 422 
Q 2459 422 2753 634 
Q 3047 847 3047 1241 
Q 3047 1584 2836 1778 
Q 2625 1972 2144 2069 
L 1759 2144 
Q 1053 2284 737 2584 
Q 422 2884 422 3419 
Q 422 4038 858 4394 
Q 1294 4750 2059 4750 
Q 2388 4750 2728 4690 
Q 3069 4631 3425 4513 
z
" id="DejaVuSans-53" transform="scale(0.015625)"/>
      </defs>
      <use xlink:href="#DejaVuSans-44"/>
      <use x="77.001953" xlink:href="#DejaVuSans-51"/>
      <use x="155.712891" xlink:href="#DejaVuSans-42"/>
      <use x="222.566406" xlink:href="#DejaVuSans-53"/>
     </g>
    </g>
   </g>
  </g>
 </g>
 <defs>
  <clipPath id="p623ce59a57">
   <rect height="266.112" width="357.12" x="57.6" y="41.472"/>
  </clipPath>
 </defs>
</svg>
