<?xml version="1.0" encoding="utf-8" standalone="no"?>
<!DOCTYPE svg PUBLIC "-//W3C//DTD SVG 1.1//EN"
  "http://www.w3.org/Graphics/SVG/1.1/DTD/svg11.dtd">
<svg height="345.6pt" version="1.1" viewBox="0 0 460.8 345.6" width="460.8pt" xmlns="http://www.w3.org/2000/svg" xmlns:xlink="http://www.w3.org/1999/xlink">
 <metadata>
  <rdf:RDF xmlns:cc="http://creativecommons.org/ns#" xmlns:dc="http://purl.org/dc/elements/1.1/" xmlns:rdf="http://www.w3.org/1999/02/22-rdf-syntax-ns#">
   <cc:Work>
    <dc:type rdf:resource="http://purl.org/dc/dcmitype/StillImage"/>
    <dc:date>2022-01-03T10:06:14.012051</dc:date>
    <dc:format>image/svg+xml</dc:format>
    <dc:creator>
     <cc:Agent>
      <dc:title>Matplotlib v3.4.3, https://matplotlib.org/</dc:title>
     </cc:Agent>
    </dc:creator>
   </cc:Work>
  </rdf:RDF>
 </metadata>
 <defs>
  <style type="text/css">*{stroke-linecap:butt;stroke-linejoin:round;}</style>
 </defs>
 <g id="figure_1">
  <g id="patch_1">
   <path d="M 0 345.6 
L 460.8 345.6 
L 460.8 0 
L 0 0 
z
" style="fill:#ffffff;"/>
  </g>
  <g id="axes_1">
   <g id="patch_2">
    <path d="M 57.6 307.584 
L 414.72 307.584 
L 414.72 41.472 
L 57.6 41.472 
z
" style="fill:#ffffff;"/>
   </g>
   <g id="PolyCollection_1">
    <path clip-path="url(#p03f9f77562)" d="M 73.832727 283.179683 
L 73.832727 283.179683 
L 82.157203 283.24384 
L 90.481678 283.66747 
L 98.806154 279.72701 
L 107.130629 272.291694 
L 115.455105 249.647423 
L 123.77958 204.770978 
L 132.104056 166.176394 
L 140.428531 139.832415 
L 148.753007 118.579248 
L 157.077483 103.935172 
L 165.401958 102.664592 
L 173.726434 98.405806 
L 182.050909 97.861989 
L 190.375385 95.929345 
L 198.69986 104.160232 
L 207.024336 105.644611 
L 215.348811 113.567958 
L 223.673287 119.528065 
L 231.997762 131.357254 
L 240.322238 129.543206 
L 248.646713 125.956607 
L 256.971189 114.967828 
L 265.295664 108.714502 
L 273.62014 104.199866 
L 281.944615 101.57982 
L 290.269091 97.108405 
L 298.593566 105.086585 
L 306.918042 105.2177 
L 315.242517 106.709635 
L 323.566993 106.318084 
L 331.891469 107.107638 
L 340.215944 107.333697 
L 348.54042 107.877596 
L 356.864895 107.755375 
L 365.189371 109.164089 
L 373.513846 108.101433 
L 381.838322 104.001936 
L 390.162797 98.376566 
L 398.487273 94.111943 
L 398.487273 94.111943 
L 398.487273 63.728653 
L 390.162797 68.660631 
L 381.838322 68.025655 
L 373.513846 56.101596 
L 365.189371 56.676559 
L 356.864895 53.568 
L 348.54042 53.580768 
L 340.215944 54.34462 
L 331.891469 58.018285 
L 323.566993 59.830692 
L 315.242517 65.78339 
L 306.918042 72.602985 
L 298.593566 70.886745 
L 290.269091 72.811258 
L 281.944615 69.564921 
L 273.62014 70.983468 
L 265.295664 77.690523 
L 256.971189 84.455197 
L 248.646713 89.123315 
L 240.322238 86.081388 
L 231.997762 93.248459 
L 223.673287 91.941578 
L 215.348811 95.561327 
L 207.024336 76.145422 
L 198.69986 76.704629 
L 190.375385 75.34329 
L 182.050909 75.327171 
L 173.726434 79.727808 
L 165.401958 83.769755 
L 157.077483 88.170793 
L 148.753007 98.612453 
L 140.428531 109.393782 
L 132.104056 127.091257 
L 123.77958 146.93997 
L 115.455105 177.90601 
L 107.130629 223.090519 
L 98.806154 260.007292 
L 90.481678 276.931383 
L 82.157203 282.915875 
L 73.832727 282.794745 
z
" style="fill:#1f77b4;fill-opacity:0.3;"/>
   </g>
   <g id="PolyCollection_2">
    <path clip-path="url(#p03f9f77562)" d="M 73.832727 283.179683 
L 73.832727 283.179683 
L 82.157203 295.488 
L 90.481678 290.606832 
L 98.806154 278.037605 
L 107.130629 237.169698 
L 115.455105 198.494656 
L 123.77958 178.562717 
L 132.104056 163.48221 
L 140.428531 158.492635 
L 148.753007 152.947367 
L 157.077483 147.57259 
L 165.401958 140.8628 
L 173.726434 132.913109 
L 182.050909 137.699704 
L 190.375385 139.299565 
L 198.69986 145.166464 
L 207.024336 147.001877 
L 215.348811 140.105913 
L 223.673287 132.096617 
L 231.997762 127.655721 
L 240.322238 124.390188 
L 248.646713 133.345231 
L 256.971189 132.908345 
L 265.295664 137.775076 
L 273.62014 115.343479 
L 281.944615 117.935505 
L 290.269091 120.57264 
L 298.593566 104.846793 
L 306.918042 110.618533 
L 315.242517 114.370985 
L 323.566993 104.830897 
L 331.891469 94.944155 
L 340.215944 84.460509 
L 348.54042 96.462573 
L 356.864895 111.640922 
L 365.189371 110.57918 
L 373.513846 111.653111 
L 381.838322 102.034179 
L 390.162797 103.615131 
L 398.487273 97.513981 
L 398.487273 97.513981 
L 398.487273 71.839049 
L 390.162797 75.030312 
L 381.838322 70.476026 
L 373.513846 71.835433 
L 365.189371 78.377705 
L 356.864895 71.814702 
L 348.54042 66.697151 
L 340.215944 63.833786 
L 331.891469 65.477407 
L 323.566993 68.832356 
L 315.242517 67.857336 
L 306.918042 71.11647 
L 298.593566 77.20201 
L 290.269091 81.164819 
L 281.944615 76.447714 
L 273.62014 71.427992 
L 265.295664 74.451553 
L 256.971189 68.81126 
L 248.646713 75.612643 
L 240.322238 79.3631 
L 231.997762 86.678467 
L 223.673287 89.695333 
L 215.348811 95.121255 
L 207.024336 103.789263 
L 198.69986 107.345123 
L 190.375385 95.890376 
L 182.050909 90.596616 
L 173.726434 98.758962 
L 165.401958 97.417021 
L 157.077483 96.509677 
L 148.753007 99.615169 
L 140.428531 99.098032 
L 132.104056 107.894303 
L 123.77958 124.634663 
L 115.455105 135.228425 
L 107.130629 140.962788 
L 98.806154 173.150173 
L 90.481678 199.746561 
L 82.157203 242.475343 
L 73.832727 282.794745 
z
" style="fill:#ff7f0e;fill-opacity:0.3;"/>
   </g>
   <g id="PolyCollection_3">
    <path clip-path="url(#p03f9f77562)" d="M 73.832727 283.179683 
L 73.832727 283.179683 
L 82.157203 284.870871 
L 90.481678 279.698078 
L 98.806154 268.189808 
L 107.130629 234.177633 
L 115.455105 183.409348 
L 123.77958 156.372118 
L 132.104056 133.74976 
L 140.428531 112.545244 
L 148.753007 104.387089 
L 157.077483 120.563596 
L 165.401958 125.298954 
L 173.726434 116.366657 
L 182.050909 120.308996 
L 190.375385 125.515128 
L 198.69986 124.755561 
L 207.024336 130.276268 
L 215.348811 141.009388 
L 223.673287 142.654615 
L 231.997762 146.634041 
L 240.322238 146.195021 
L 248.646713 144.767727 
L 256.971189 144.727579 
L 265.295664 140.919596 
L 273.62014 135.544759 
L 281.944615 136.931664 
L 290.269091 134.118671 
L 298.593566 137.649807 
L 306.918042 130.886422 
L 315.242517 116.926636 
L 323.566993 117.680374 
L 331.891469 107.025086 
L 340.215944 121.024695 
L 348.54042 126.595252 
L 356.864895 123.863827 
L 365.189371 124.899035 
L 373.513846 126.601732 
L 381.838322 133.398593 
L 390.162797 129.467909 
L 398.487273 130.558429 
L 398.487273 130.558429 
L 398.487273 59.481854 
L 390.162797 66.232646 
L 381.838322 62.174524 
L 373.513846 53.578317 
L 365.189371 55.013654 
L 356.864895 61.957828 
L 348.54042 69.756691 
L 340.215944 72.671889 
L 331.891469 65.148671 
L 323.566993 69.073941 
L 315.242517 68.152844 
L 306.918042 63.882256 
L 298.593566 72.200447 
L 290.269091 76.651352 
L 281.944615 83.532203 
L 273.62014 85.663638 
L 265.295664 91.158191 
L 256.971189 85.79951 
L 248.646713 92.77478 
L 240.322238 101.205025 
L 231.997762 93.135929 
L 223.673287 91.947773 
L 215.348811 97.903612 
L 207.024336 98.496268 
L 198.69986 82.080793 
L 190.375385 86.403576 
L 182.050909 83.055001 
L 173.726434 86.017409 
L 165.401958 84.637572 
L 157.077483 91.484449 
L 148.753007 82.643518 
L 140.428531 87.407611 
L 132.104056 97.050382 
L 123.77958 110.207071 
L 115.455105 134.09709 
L 107.130629 164.118259 
L 98.806154 211.511439 
L 90.481678 249.032164 
L 82.157203 273.462555 
L 73.832727 282.794745 
z
" style="fill:#2ca02c;fill-opacity:0.3;"/>
   </g>
   <g id="PolyCollection_4">
    <path clip-path="url(#p03f9f77562)" d="M 73.832727 283.179683 
L 73.832727 283.179683 
L 82.157203 283.268779 
L 90.481678 283.470778 
L 98.806154 286.632524 
L 107.130629 285.182889 
L 115.455105 272.714693 
L 123.77958 261.788466 
L 132.104056 244.459515 
L 140.428531 214.615863 
L 148.753007 197.02188 
L 157.077483 193.901383 
L 165.401958 178.951085 
L 173.726434 168.412189 
L 182.050909 153.177667 
L 190.375385 140.660717 
L 198.69986 126.266483 
L 207.024336 106.843929 
L 215.348811 92.790351 
L 223.673287 82.960516 
L 231.997762 76.071962 
L 240.322238 71.249974 
L 248.646713 67.874582 
L 256.971189 65.673506 
L 265.295664 63.997301 
L 273.62014 63.686813 
L 281.944615 62.58037 
L 290.269091 61.805859 
L 298.593566 62.73445 
L 306.918042 61.913715 
L 315.242517 61.339201 
L 323.566993 60.937041 
L 331.891469 65.27121 
L 340.215944 67.78635 
L 348.54042 65.478955 
L 356.864895 63.834869 
L 365.189371 63.564424 
L 373.513846 62.66117 
L 381.838322 61.868879 
L 390.162797 71.895393 
L 398.487273 68.326375 
L 398.487273 68.326375 
L 398.487273 57.759683 
L 390.162797 56.800118 
L 381.838322 60.31956 
L 373.513846 60.247001 
L 365.189371 59.747782 
L 356.864895 58.893699 
L 348.54042 58.420141 
L 340.215944 57.638868 
L 331.891469 58.576916 
L 323.566993 60.058019 
L 315.242517 60.083456 
L 306.918042 60.119793 
L 298.593566 60.171704 
L 290.269091 60.31364 
L 281.944615 60.448628 
L 273.62014 60.641468 
L 265.295664 60.205031 
L 256.971189 60.221476 
L 248.646713 60.145763 
L 240.322238 60.208803 
L 231.997762 60.298861 
L 223.673287 60.427515 
L 215.348811 60.585803 
L 207.024336 60.837432 
L 198.69986 59.371848 
L 190.375385 63.711767 
L 182.050909 72.128748 
L 173.726434 83.980131 
L 165.401958 95.799975 
L 157.077483 117.207438 
L 148.753007 142.439986 
L 140.428531 160.373286 
L 132.104056 182.7758 
L 123.77958 199.744611 
L 115.455105 226.371209 
L 107.130629 250.253321 
L 98.806154 269.086219 
L 90.481678 283.108911 
L 82.157203 282.952637 
L 73.832727 282.794745 
z
" style="fill:#d62728;fill-opacity:0.3;"/>
   </g>
   <g id="matplotlib.axis_1">
    <g id="xtick_1">
     <g id="line2d_1">
      <defs>
       <path d="M 0 0 
L 0 3.5 
" id="m218f7c9d34" style="stroke:#000000;stroke-width:0.8;"/>
      </defs>
      <g>
       <use style="stroke:#000000;stroke-width:0.8;" x="65.508252" xlink:href="#m218f7c9d34" y="307.584"/>
      </g>
     </g>
     <g id="text_1">
            <!-- 0 -->
      <g transform="translate(62.327002 322.182437)scale(0.1 -0.1)">
       <defs>
        <path d="M 2034 4250 
Q 1547 4250 1301 3770 
Q 1056 3291 1056 2328 
Q 1056 1369 1301 889 
Q 1547 409 2034 409 
Q 2525 409 2770 889 
Q 3016 1369 3016 2328 
Q 3016 3291 2770 3770 
Q 2525 4250 2034 4250 
z
M 2034 4750 
Q 2819 4750 3233 4129 
Q 3647 3509 3647 2328 
Q 3647 1150 3233 529 
Q 2819 -91 2034 -91 
Q 1250 -91 836 529 
Q 422 1150 422 2328 
Q 422 3509 836 4129 
Q 1250 4750 2034 4750 
z
" id="DejaVuSans-30" transform="scale(0.015625)"/>
       </defs>
       <use xlink:href="#DejaVuSans-30"/>
      </g>
     </g>
    </g>
    <g id="xtick_2">
     <g id="line2d_2">
      <g>
       <use style="stroke:#000000;stroke-width:0.8;" x="107.130629" xlink:href="#m218f7c9d34" y="307.584"/>
      </g>
     </g>
     <g id="text_2">
      <!-- 25 -->
      <g transform="translate(100.768129 322.182437)scale(0.1 -0.1)">
       <defs>
        <path d="M 1228 531 
L 3431 531 
L 3431 0 
L 469 0 
L 469 531 
Q 828 903 1448 1529 
Q 2069 2156 2228 2338 
Q 2531 2678 2651 2914 
Q 2772 3150 2772 3378 
Q 2772 3750 2511 3984 
Q 2250 4219 1831 4219 
Q 1534 4219 1204 4116 
Q 875 4013 500 3803 
L 500 4441 
Q 881 4594 1212 4672 
Q 1544 4750 1819 4750 
Q 2544 4750 2975 4387 
Q 3406 4025 3406 3419 
Q 3406 3131 3298 2873 
Q 3191 2616 2906 2266 
Q 2828 2175 2409 1742 
Q 1991 1309 1228 531 
z
" id="DejaVuSans-32" transform="scale(0.015625)"/>
        <path d="M 691 4666 
L 3169 4666 
L 3169 4134 
L 1269 4134 
L 1269 2991 
Q 1406 3038 1543 3061 
Q 1681 3084 1819 3084 
Q 2600 3084 3056 2656 
Q 3513 2228 3513 1497 
Q 3513 744 3044 326 
Q 2575 -91 1722 -91 
Q 1428 -91 1123 -41 
Q 819 9 494 109 
L 494 744 
Q 775 591 1075 516 
Q 1375 441 1709 441 
Q 2250 441 2565 725 
Q 2881 1009 2881 1497 
Q 2881 1984 2565 2268 
Q 2250 2553 1709 2553 
Q 1456 2553 1204 2497 
Q 953 2441 691 2322 
L 691 4666 
z
" id="DejaVuSans-35" transform="scale(0.015625)"/>
       </defs>
       <use xlink:href="#DejaVuSans-32"/>
       <use x="63.623047" xlink:href="#DejaVuSans-35"/>
      </g>
     </g>
    </g>
    <g id="xtick_3">
     <g id="line2d_3">
      <g>
       <use style="stroke:#000000;stroke-width:0.8;" x="148.753007" xlink:href="#m218f7c9d34" y="307.584"/>
      </g>
     </g>
     <g id="text_3">
      <!-- 50 -->
      <g transform="translate(142.390507 322.182437)scale(0.1 -0.1)">
       <use xlink:href="#DejaVuSans-35"/>
       <use x="63.623047" xlink:href="#DejaVuSans-30"/>
      </g>
     </g>
    </g>
    <g id="xtick_4">
     <g id="line2d_4">
      <g>
       <use style="stroke:#000000;stroke-width:0.8;" x="190.375385" xlink:href="#m218f7c9d34" y="307.584"/>
      </g>
     </g>
     <g id="text_4">
      <!-- 75 -->
      <g transform="translate(184.012885 322.182437)scale(0.1 -0.1)">
       <defs>
        <path d="M 525 4666 
L 3525 4666 
L 3525 4397 
L 1831 0 
L 1172 0 
L 2766 4134 
L 525 4134 
L 525 4666 
z
" id="DejaVuSans-37" transform="scale(0.015625)"/>
       </defs>
       <use xlink:href="#DejaVuSans-37"/>
       <use x="63.623047" xlink:href="#DejaVuSans-35"/>
      </g>
     </g>
    </g>
    <g id="xtick_5">
     <g id="line2d_5">
      <g>
       <use style="stroke:#000000;stroke-width:0.8;" x="231.997762" xlink:href="#m218f7c9d34" y="307.584"/>
      </g>
     </g>
     <g id="text_5">
      <!-- 100 -->
      <g transform="translate(222.454012 322.182437)scale(0.1 -0.1)">
       <defs>
        <path d="M 794 531 
L 1825 531 
L 1825 4091 
L 703 3866 
L 703 4441 
L 1819 4666 
L 2450 4666 
L 2450 531 
L 3481 531 
L 3481 0 
L 794 0 
L 794 531 
z
" id="DejaVuSans-31" transform="scale(0.015625)"/>
       </defs>
       <use xlink:href="#DejaVuSans-31"/>
       <use x="63.623047" xlink:href="#DejaVuSans-30"/>
       <use x="127.246094" xlink:href="#DejaVuSans-30"/>
      </g>
     </g>
    </g>
    <g id="xtick_6">
     <g id="line2d_6">
      <g>
       <use style="stroke:#000000;stroke-width:0.8;" x="273.62014" xlink:href="#m218f7c9d34" y="307.584"/>
      </g>
     </g>
     <g id="text_6">
      <!-- 125 -->
      <g transform="translate(264.07639 322.182437)scale(0.1 -0.1)">
       <use xlink:href="#DejaVuSans-31"/>
       <use x="63.623047" xlink:href="#DejaVuSans-32"/>
       <use x="127.246094" xlink:href="#DejaVuSans-35"/>
      </g>
     </g>
    </g>
    <g id="xtick_7">
     <g id="line2d_7">
      <g>
       <use style="stroke:#000000;stroke-width:0.8;" x="315.242517" xlink:href="#m218f7c9d34" y="307.584"/>
      </g>
     </g>
     <g id="text_7">
      <!-- 150 -->
      <g transform="translate(305.698767 322.182437)scale(0.1 -0.1)">
       <use xlink:href="#DejaVuSans-31"/>
       <use x="63.623047" xlink:href="#DejaVuSans-35"/>
       <use x="127.246094" xlink:href="#DejaVuSans-30"/>
      </g>
     </g>
    </g>
    <g id="xtick_8">
     <g id="line2d_8">
      <g>
       <use style="stroke:#000000;stroke-width:0.8;" x="356.864895" xlink:href="#m218f7c9d34" y="307.584"/>
      </g>
     </g>
     <g id="text_8">
      <!-- 175 -->
      <g transform="translate(347.321145 322.182437)scale(0.1 -0.1)">
       <use xlink:href="#DejaVuSans-31"/>
       <use x="63.623047" xlink:href="#DejaVuSans-37"/>
       <use x="127.246094" xlink:href="#DejaVuSans-35"/>
      </g>
     </g>
    </g>
    <g id="xtick_9">
     <g id="line2d_9">
      <g>
       <use style="stroke:#000000;stroke-width:0.8;" x="398.487273" xlink:href="#m218f7c9d34" y="307.584"/>
      </g>
     </g>
     <g id="text_9">
      <!-- 200 -->
      <g transform="translate(388.943523 322.182437)scale(0.1 -0.1)">
       <use xlink:href="#DejaVuSans-32"/>
       <use x="63.623047" xlink:href="#DejaVuSans-30"/>
       <use x="127.246094" xlink:href="#DejaVuSans-30"/>
      </g>
     </g>
    </g>
   </g>
   <g id="matplotlib.axis_2">
    <g id="ytick_1">
     <g id="line2d_10">
      <defs>
       <path d="M 0 0 
L -3.5 0 
" id="mbaa84a8bf7" style="stroke:#000000;stroke-width:0.8;"/>
      </defs>
      <g>
       <use style="stroke:#000000;stroke-width:0.8;" x="57.6" xlink:href="#mbaa84a8bf7" y="295.340161"/>
      </g>
     </g>
     <g id="text_10">
      <!-- 0 -->
      <g transform="translate(44.2375 299.139379)scale(0.1 -0.1)">
       <use xlink:href="#DejaVuSans-30"/>
      </g>
     </g>
    </g>
    <g id="ytick_2">
     <g id="line2d_11">
      <g>
       <use style="stroke:#000000;stroke-width:0.8;" x="57.6" xlink:href="#mbaa84a8bf7" y="262.897374"/>
      </g>
     </g>
     <g id="text_11">
      <!-- 25 -->
      <g transform="translate(37.875 266.696593)scale(0.1 -0.1)">
       <use xlink:href="#DejaVuSans-32"/>
       <use x="63.623047" xlink:href="#DejaVuSans-35"/>
      </g>
     </g>
    </g>
    <g id="ytick_3">
     <g id="line2d_12">
      <g>
       <use style="stroke:#000000;stroke-width:0.8;" x="57.6" xlink:href="#mbaa84a8bf7" y="230.454588"/>
      </g>
     </g>
     <g id="text_12">
      <!-- 50 -->
      <g transform="translate(37.875 234.253806)scale(0.1 -0.1)">
       <use xlink:href="#DejaVuSans-35"/>
       <use x="63.623047" xlink:href="#DejaVuSans-30"/>
      </g>
     </g>
    </g>
    <g id="ytick_4">
     <g id="line2d_13">
      <g>
       <use style="stroke:#000000;stroke-width:0.8;" x="57.6" xlink:href="#mbaa84a8bf7" y="198.011801"/>
      </g>
     </g>
     <g id="text_13">
      <!-- 75 -->
      <g transform="translate(37.875 201.81102)scale(0.1 -0.1)">
       <defs>
        <path d="M 525 4666 
L 3525 4666 
L 3525 4397 
L 1831 0 
L 1172 0 
L 2766 4134 
L 525 4134 
L 525 4666 
z
" id="DejaVuSans-37" transform="scale(0.015625)"/>
       </defs>
       <use xlink:href="#DejaVuSans-37"/>
       <use x="63.623047" xlink:href="#DejaVuSans-35"/>
      </g>
     </g>
    </g>
    <g id="ytick_5">
     <g id="line2d_14">
      <g>
       <use style="stroke:#000000;stroke-width:0.8;" x="57.6" xlink:href="#mbaa84a8bf7" y="165.569014"/>
      </g>
     </g>
     <g id="text_14">
      <!-- 100 -->
      <g transform="translate(31.5125 169.368233)scale(0.1 -0.1)">
       <use xlink:href="#DejaVuSans-31"/>
       <use x="63.623047" xlink:href="#DejaVuSans-30"/>
       <use x="127.246094" xlink:href="#DejaVuSans-30"/>
      </g>
     </g>
    </g>
    <g id="ytick_6">
     <g id="line2d_15">
      <g>
       <use style="stroke:#000000;stroke-width:0.8;" x="57.6" xlink:href="#mbaa84a8bf7" y="133.126228"/>
      </g>
     </g>
     <g id="text_15">
      <!-- 125 -->
      <g transform="translate(31.5125 136.925447)scale(0.1 -0.1)">
       <use xlink:href="#DejaVuSans-31"/>
       <use x="63.623047" xlink:href="#DejaVuSans-32"/>
       <use x="127.246094" xlink:href="#DejaVuSans-35"/>
      </g>
     </g>
    </g>
    <g id="ytick_7">
     <g id="line2d_16">
      <g>
       <use style="stroke:#000000;stroke-width:0.8;" x="57.6" xlink:href="#mbaa84a8bf7" y="100.683441"/>
      </g>
     </g>
     <g id="text_16">
      <!-- 150 -->
      <g transform="translate(31.5125 104.48266)scale(0.1 -0.1)">
       <use xlink:href="#DejaVuSans-31"/>
       <use x="63.623047" xlink:href="#DejaVuSans-35"/>
       <use x="127.246094" xlink:href="#DejaVuSans-30"/>
      </g>
     </g>
    </g>
    <g id="ytick_8">
     <g id="line2d_17">
      <g>
       <use style="stroke:#000000;stroke-width:0.8;" x="57.6" xlink:href="#mbaa84a8bf7" y="68.240655"/>
      </g>
     </g>
     <g id="text_17">
      <!-- 175 -->
      <g transform="translate(31.5125 72.039874)scale(0.1 -0.1)">
       <use xlink:href="#DejaVuSans-31"/>
       <use x="63.623047" xlink:href="#DejaVuSans-37"/>
       <use x="127.246094" xlink:href="#DejaVuSans-35"/>
      </g>
     </g>
    </g>
   </g>
   <g id="line2d_18">
    <path clip-path="url(#p03f9f77562)" d="M 73.832727 282.987214 
L 82.157203 283.079858 
L 90.481678 280.299427 
L 98.806154 269.867151 
L 107.130629 247.691107 
L 115.455105 213.776717 
L 123.77958 175.855474 
L 132.104056 146.633826 
L 140.428531 124.613098 
L 148.753007 108.595851 
L 157.077483 96.052982 
L 165.401958 93.217174 
L 173.726434 89.066807 
L 182.050909 86.59458 
L 190.375385 85.636318 
L 198.69986 90.432431 
L 207.024336 90.895017 
L 215.348811 104.564643 
L 223.673287 105.734822 
L 231.997762 112.302857 
L 240.322238 107.812297 
L 248.646713 107.539961 
L 256.971189 99.711513 
L 265.295664 93.202512 
L 273.62014 87.591667 
L 281.944615 85.57237 
L 290.269091 84.959831 
L 298.593566 87.986665 
L 306.918042 88.910342 
L 315.242517 86.246512 
L 323.566993 83.074388 
L 331.891469 82.562961 
L 340.215944 80.839158 
L 348.54042 80.729182 
L 356.864895 80.661688 
L 365.189371 82.920324 
L 373.513846 82.101515 
L 381.838322 86.013796 
L 390.162797 83.518598 
L 398.487273 78.920298 
" style="fill:none;stroke:#1f77b4;stroke-linecap:square;stroke-width:1.5;"/>
   </g>
   <g id="line2d_19">
    <path clip-path="url(#p03f9f77562)" d="M 73.832727 282.987214 
L 82.157203 268.981671 
L 90.481678 245.176696 
L 98.806154 225.593889 
L 107.130629 189.066243 
L 115.455105 166.861541 
L 123.77958 151.59869 
L 132.104056 135.688257 
L 140.428531 128.795334 
L 148.753007 126.281268 
L 157.077483 122.041134 
L 165.401958 119.139911 
L 173.726434 115.836035 
L 182.050909 114.14816 
L 190.375385 117.594971 
L 198.69986 126.255794 
L 207.024336 125.39557 
L 215.348811 117.613584 
L 223.673287 110.895975 
L 231.997762 107.167094 
L 240.322238 101.876644 
L 248.646713 104.478937 
L 256.971189 100.859802 
L 265.295664 106.113314 
L 273.62014 93.385736 
L 281.944615 97.19161 
L 290.269091 100.86873 
L 298.593566 91.024402 
L 306.918042 90.867502 
L 315.242517 91.114161 
L 323.566993 86.831626 
L 331.891469 80.210781 
L 340.215944 74.147147 
L 348.54042 81.579862 
L 356.864895 91.727812 
L 365.189371 94.478443 
L 373.513846 91.744272 
L 381.838322 86.255103 
L 390.162797 89.322721 
L 398.487273 84.676515 
" style="fill:none;stroke:#ff7f0e;stroke-linecap:square;stroke-width:1.5;"/>
   </g>
   <g id="line2d_20">
    <path clip-path="url(#p03f9f77562)" d="M 73.832727 282.987214 
L 82.157203 279.166713 
L 90.481678 264.365121 
L 98.806154 239.850623 
L 107.130629 199.147946 
L 115.455105 158.753219 
L 123.77958 133.289595 
L 132.104056 115.400071 
L 140.428531 99.976428 
L 148.753007 93.515304 
L 157.077483 106.024023 
L 165.401958 104.968263 
L 173.726434 101.192033 
L 182.050909 101.681998 
L 190.375385 105.959352 
L 198.69986 103.418177 
L 207.024336 114.386268 
L 215.348811 119.4565 
L 223.673287 117.301194 
L 231.997762 119.884985 
L 240.322238 123.700023 
L 248.646713 118.771253 
L 256.971189 115.263545 
L 265.295664 116.038894 
L 273.62014 110.604199 
L 281.944615 110.231933 
L 290.269091 105.385012 
L 298.593566 104.925127 
L 306.918042 97.384339 
L 315.242517 92.53974 
L 323.566993 93.377158 
L 331.891469 86.086878 
L 340.215944 96.848292 
L 348.54042 98.175972 
L 356.864895 92.910827 
L 365.189371 89.956344 
L 373.513846 90.090025 
L 381.838322 97.786558 
L 390.162797 97.850278 
L 398.487273 95.020141 
" style="fill:none;stroke:#2ca02c;stroke-linecap:square;stroke-width:1.5;"/>
   </g>
   <g id="line2d_21">
    <path clip-path="url(#p03f9f77562)" d="M 73.832727 282.987214 
L 82.157203 283.110708 
L 90.481678 283.289845 
L 98.806154 277.859372 
L 107.130629 267.718105 
L 115.455105 249.542951 
L 123.77958 230.766538 
L 132.104056 213.617657 
L 140.428531 187.494575 
L 148.753007 169.730933 
L 157.077483 155.55441 
L 165.401958 137.37553 
L 173.726434 126.19616 
L 182.050909 112.653207 
L 190.375385 102.186242 
L 198.69986 92.819166 
L 207.024336 83.840681 
L 215.348811 76.688077 
L 223.673287 71.694016 
L 231.997762 68.185411 
L 240.322238 65.729388 
L 248.646713 64.010172 
L 256.971189 62.947491 
L 265.295664 62.101166 
L 273.62014 62.164141 
L 281.944615 61.514499 
L 290.269091 61.05975 
L 298.593566 61.453077 
L 306.918042 61.016754 
L 315.242517 60.711328 
L 323.566993 60.49753 
L 331.891469 61.924063 
L 340.215944 62.712609 
L 348.54042 61.949548 
L 356.864895 61.364284 
L 365.189371 61.656103 
L 373.513846 61.454086 
L 381.838322 61.09422 
L 390.162797 64.347755 
L 398.487273 63.043029 
" style="fill:none;stroke:#d62728;stroke-linecap:square;stroke-width:1.5;"/>
   </g>
   <g id="patch_3">
    <path d="M 57.6 307.584 
L 57.6 41.472 
" style="fill:none;stroke:#000000;stroke-linecap:square;stroke-linejoin:miter;stroke-width:0.8;"/>
   </g>
   <g id="patch_4">
    <path d="M 414.72 307.584 
L 414.72 41.472 
" style="fill:none;stroke:#000000;stroke-linecap:square;stroke-linejoin:miter;stroke-width:0.8;"/>
   </g>
   <g id="patch_5">
    <path d="M 57.6 307.584 
L 414.72 307.584 
" style="fill:none;stroke:#000000;stroke-linecap:square;stroke-linejoin:miter;stroke-width:0.8;"/>
   </g>
   <g id="patch_6">
    <path d="M 57.6 41.472 
L 414.72 41.472 
" style="fill:none;stroke:#000000;stroke-linecap:square;stroke-linejoin:miter;stroke-width:0.8;"/>
   </g>
   <g id="legend_1">
    <g id="patch_7">
     <path d="M 64.6 108.1845 
L 172.840625 108.1845 
Q 174.840625 108.1845 174.840625 106.1845 
L 174.840625 48.472 
Q 174.840625 46.472 172.840625 46.472 
L 64.6 46.472 
Q 62.6 46.472 62.6 48.472 
L 62.6 106.1845 
Q 62.6 108.1845 64.6 108.1845 
z
" style="fill:#ffffff;opacity:0.8;stroke:#cccccc;stroke-linejoin:miter;"/>
    </g>
    <g id="line2d_21">
     <path d="M 66.6 54.570438 
L 86.6 54.570438 
" style="fill:none;stroke:#1f77b4;stroke-linecap:square;stroke-width:1.5;"/>
    </g>
    <g id="line2d_22"/>
    <g id="text_17">
     <!-- DQN -->
     <g transform="translate(94.6 58.070438)scale(0.1 -0.1)">
      <defs>
       <path d="M 1259 4147 
L 1259 519 
L 2022 519 
Q 2988 519 3436 956 
Q 3884 1394 3884 2338 
Q 3884 3275 3436 3711 
Q 2988 4147 2022 4147 
L 1259 4147 
z
M 628 4666 
L 1925 4666 
Q 3281 4666 3915 4102 
Q 4550 3538 4550 2338 
Q 4550 1131 3912 565 
Q 3275 0 1925 0 
L 628 0 
L 628 4666 
z
" id="DejaVuSans-44" transform="scale(0.015625)"/>
       <path d="M 2522 4238 
Q 1834 4238 1429 3725 
Q 1025 3213 1025 2328 
Q 1025 1447 1429 934 
Q 1834 422 2522 422 
Q 3209 422 3611 934 
Q 4013 1447 4013 2328 
Q 4013 3213 3611 3725 
Q 3209 4238 2522 4238 
z
M 3406 84 
L 4238 -825 
L 3475 -825 
L 2784 -78 
Q 2681 -84 2626 -87 
Q 2572 -91 2522 -91 
Q 1538 -91 948 567 
Q 359 1225 359 2328 
Q 359 3434 948 4092 
Q 1538 4750 2522 4750 
Q 3503 4750 4090 4092 
Q 4678 3434 4678 2328 
Q 4678 1516 4351 937 
Q 4025 359 3406 84 
z
" id="DejaVuSans-51" transform="scale(0.015625)"/>
       <path d="M 628 4666 
L 1478 4666 
L 3547 763 
L 3547 4666 
L 4159 4666 
L 4159 0 
L 3309 0 
L 1241 3903 
L 1241 0 
L 628 0 
L 628 4666 
z
" id="DejaVuSans-4e" transform="scale(0.015625)"/>
      </defs>
      <use xlink:href="#DejaVuSans-44"/>
      <use x="77.001953" xlink:href="#DejaVuSans-51"/>
      <use x="155.712891" xlink:href="#DejaVuSans-4e"/>
     </g>
    </g>
    <g id="line2d_23">
     <path d="M 66.6 69.248563 
L 86.6 69.248563 
" style="fill:none;stroke:#ff7f0e;stroke-linecap:square;stroke-width:1.5;"/>
    </g>
    <g id="line2d_24"/>
    <g id="text_18">
     <!-- BackwardDQN -->
     <g transform="translate(94.6 72.748563)scale(0.1 -0.1)">
      <defs>
       <path d="M 1259 2228 
L 1259 519 
L 2272 519 
Q 2781 519 3026 730 
Q 3272 941 3272 1375 
Q 3272 1813 3026 2020 
Q 2781 2228 2272 2228 
L 1259 2228 
z
M 1259 4147 
L 1259 2741 
L 2194 2741 
Q 2656 2741 2882 2914 
Q 3109 3088 3109 3444 
Q 3109 3797 2882 3972 
Q 2656 4147 2194 4147 
L 1259 4147 
z
M 628 4666 
L 2241 4666 
Q 2963 4666 3353 4366 
Q 3744 4066 3744 3513 
Q 3744 3084 3544 2831 
Q 3344 2578 2956 2516 
Q 3422 2416 3680 2098 
Q 3938 1781 3938 1306 
Q 3938 681 3513 340 
Q 3088 0 2303 0 
L 628 0 
L 628 4666 
z
" id="DejaVuSans-42" transform="scale(0.015625)"/>
       <path d="M 2194 1759 
Q 1497 1759 1228 1600 
Q 959 1441 959 1056 
Q 959 750 1161 570 
Q 1363 391 1709 391 
Q 2188 391 2477 730 
Q 2766 1069 2766 1631 
L 2766 1759 
L 2194 1759 
z
M 3341 1997 
L 3341 0 
L 2766 0 
L 2766 531 
Q 2569 213 2275 61 
Q 1981 -91 1556 -91 
Q 1019 -91 701 211 
Q 384 513 384 1019 
Q 384 1609 779 1909 
Q 1175 2209 1959 2209 
L 2766 2209 
L 2766 2266 
Q 2766 2663 2505 2880 
Q 2244 3097 1772 3097 
Q 1472 3097 1187 3025 
Q 903 2953 641 2809 
L 641 3341 
Q 956 3463 1253 3523 
Q 1550 3584 1831 3584 
Q 2591 3584 2966 3190 
Q 3341 2797 3341 1997 
z
" id="DejaVuSans-61" transform="scale(0.015625)"/>
       <path d="M 3122 3366 
L 3122 2828 
Q 2878 2963 2633 3030 
Q 2388 3097 2138 3097 
Q 1578 3097 1268 2742 
Q 959 2388 959 1747 
Q 959 1106 1268 751 
Q 1578 397 2138 397 
Q 2388 397 2633 464 
Q 2878 531 3122 666 
L 3122 134 
Q 2881 22 2623 -34 
Q 2366 -91 2075 -91 
Q 1284 -91 818 406 
Q 353 903 353 1747 
Q 353 2603 823 3093 
Q 1294 3584 2113 3584 
Q 2378 3584 2631 3529 
Q 2884 3475 3122 3366 
z
" id="DejaVuSans-63" transform="scale(0.015625)"/>
       <path d="M 581 4863 
L 1159 4863 
L 1159 1991 
L 2875 3500 
L 3609 3500 
L 1753 1863 
L 3688 0 
L 2938 0 
L 1159 1709 
L 1159 0 
L 581 0 
L 581 4863 
z
" id="DejaVuSans-6b" transform="scale(0.015625)"/>
       <path d="M 269 3500 
L 844 3500 
L 1563 769 
L 2278 3500 
L 2956 3500 
L 3675 769 
L 4391 3500 
L 4966 3500 
L 4050 0 
L 3372 0 
L 2619 2869 
L 1863 0 
L 1184 0 
L 269 3500 
z
" id="DejaVuSans-77" transform="scale(0.015625)"/>
       <path d="M 2631 2963 
Q 2534 3019 2420 3045 
Q 2306 3072 2169 3072 
Q 1681 3072 1420 2755 
Q 1159 2438 1159 1844 
L 1159 0 
L 581 0 
L 581 3500 
L 1159 3500 
L 1159 2956 
Q 1341 3275 1631 3429 
Q 1922 3584 2338 3584 
Q 2397 3584 2469 3576 
Q 2541 3569 2628 3553 
L 2631 2963 
z
" id="DejaVuSans-72" transform="scale(0.015625)"/>
       <path d="M 2906 2969 
L 2906 4863 
L 3481 4863 
L 3481 0 
L 2906 0 
L 2906 525 
Q 2725 213 2448 61 
Q 2172 -91 1784 -91 
Q 1150 -91 751 415 
Q 353 922 353 1747 
Q 353 2572 751 3078 
Q 1150 3584 1784 3584 
Q 2172 3584 2448 3432 
Q 2725 3281 2906 2969 
z
M 947 1747 
Q 947 1113 1208 752 
Q 1469 391 1925 391 
Q 2381 391 2643 752 
Q 2906 1113 2906 1747 
Q 2906 2381 2643 2742 
Q 2381 3103 1925 3103 
Q 1469 3103 1208 2742 
Q 947 2381 947 1747 
z
" id="DejaVuSans-64" transform="scale(0.015625)"/>
      </defs>
      <use xlink:href="#DejaVuSans-42"/>
      <use x="68.603516" xlink:href="#DejaVuSans-61"/>
      <use x="129.882812" xlink:href="#DejaVuSans-63"/>
      <use x="184.863281" xlink:href="#DejaVuSans-6b"/>
      <use x="242.773438" xlink:href="#DejaVuSans-77"/>
      <use x="324.560547" xlink:href="#DejaVuSans-61"/>
      <use x="385.839844" xlink:href="#DejaVuSans-72"/>
      <use x="425.203125" xlink:href="#DejaVuSans-64"/>
      <use x="488.679688" xlink:href="#DejaVuSans-44"/>
      <use x="565.681641" xlink:href="#DejaVuSans-51"/>
      <use x="644.392578" xlink:href="#DejaVuSans-4e"/>
     </g>
    </g>
    <g id="line2d_25">
     <path d="M 66.6 83.926688 
L 86.6 83.926688 
" style="fill:none;stroke:#2ca02c;stroke-linecap:square;stroke-width:1.5;"/>
    </g>
    <g id="line2d_26"/>
    <g id="text_19">
     <!-- MultiBatchDQN -->
     <g transform="translate(94.6 87.426688)scale(0.1 -0.1)">
      <defs>
       <path d="M 628 4666 
L 1569 4666 
L 2759 1491 
L 3956 4666 
L 4897 4666 
L 4897 0 
L 4281 0 
L 4281 4097 
L 3078 897 
L 2444 897 
L 1241 4097 
L 1241 0 
L 628 0 
L 628 4666 
z
" id="DejaVuSans-4d" transform="scale(0.015625)"/>
       <path d="M 544 1381 
L 544 3500 
L 1119 3500 
L 1119 1403 
Q 1119 906 1312 657 
Q 1506 409 1894 409 
Q 2359 409 2629 706 
Q 2900 1003 2900 1516 
L 2900 3500 
L 3475 3500 
L 3475 0 
L 2900 0 
L 2900 538 
Q 2691 219 2414 64 
Q 2138 -91 1772 -91 
Q 1169 -91 856 284 
Q 544 659 544 1381 
z
M 1991 3584 
L 1991 3584 
z
" id="DejaVuSans-75" transform="scale(0.015625)"/>
       <path d="M 603 4863 
L 1178 4863 
L 1178 0 
L 603 0 
L 603 4863 
z
" id="DejaVuSans-6c" transform="scale(0.015625)"/>
       <path d="M 1172 4494 
L 1172 3500 
L 2356 3500 
L 2356 3053 
L 1172 3053 
L 1172 1153 
Q 1172 725 1289 603 
Q 1406 481 1766 481 
L 2356 481 
L 2356 0 
L 1766 0 
Q 1100 0 847 248 
Q 594 497 594 1153 
L 594 3053 
L 172 3053 
L 172 3500 
L 594 3500 
L 594 4494 
L 1172 4494 
z
" id="DejaVuSans-74" transform="scale(0.015625)"/>
       <path d="M 603 3500 
L 1178 3500 
L 1178 0 
L 603 0 
L 603 3500 
z
M 603 4863 
L 1178 4863 
L 1178 4134 
L 603 4134 
L 603 4863 
z
" id="DejaVuSans-69" transform="scale(0.015625)"/>
       <path d="M 3513 2113 
L 3513 0 
L 2938 0 
L 2938 2094 
Q 2938 2591 2744 2837 
Q 2550 3084 2163 3084 
Q 1697 3084 1428 2787 
Q 1159 2491 1159 1978 
L 1159 0 
L 581 0 
L 581 4863 
L 1159 4863 
L 1159 2956 
Q 1366 3272 1645 3428 
Q 1925 3584 2291 3584 
Q 2894 3584 3203 3211 
Q 3513 2838 3513 2113 
z
" id="DejaVuSans-68" transform="scale(0.015625)"/>
      </defs>
      <use xlink:href="#DejaVuSans-4d"/>
      <use x="86.279297" xlink:href="#DejaVuSans-75"/>
      <use x="149.658203" xlink:href="#DejaVuSans-6c"/>
      <use x="177.441406" xlink:href="#DejaVuSans-74"/>
      <use x="216.650391" xlink:href="#DejaVuSans-69"/>
      <use x="244.433594" xlink:href="#DejaVuSans-42"/>
      <use x="313.037109" xlink:href="#DejaVuSans-61"/>
      <use x="374.316406" xlink:href="#DejaVuSans-74"/>
      <use x="413.525391" xlink:href="#DejaVuSans-63"/>
      <use x="468.505859" xlink:href="#DejaVuSans-68"/>
      <use x="531.884766" xlink:href="#DejaVuSans-44"/>
      <use x="608.886719" xlink:href="#DejaVuSans-51"/>
      <use x="687.597656" xlink:href="#DejaVuSans-4e"/>
     </g>
    </g>
    <g id="line2d_27">
     <path d="M 66.6 98.604813 
L 86.6 98.604813 
" style="fill:none;stroke:#d62728;stroke-linecap:square;stroke-width:1.5;"/>
    </g>
    <g id="line2d_28"/>
    <g id="text_20">
     <!-- DQBS -->
     <g transform="translate(94.6 102.104813)scale(0.1 -0.1)">
      <defs>
       <path d="M 3425 4513 
L 3425 3897 
Q 3066 4069 2747 4153 
Q 2428 4238 2131 4238 
Q 1616 4238 1336 4038 
Q 1056 3838 1056 3469 
Q 1056 3159 1242 3001 
Q 1428 2844 1947 2747 
L 2328 2669 
Q 3034 2534 3370 2195 
Q 3706 1856 3706 1288 
Q 3706 609 3251 259 
Q 2797 -91 1919 -91 
Q 1588 -91 1214 -16 
Q 841 59 441 206 
L 441 856 
Q 825 641 1194 531 
Q 1563 422 1919 422 
Q 2459 422 2753 634 
Q 3047 847 3047 1241 
Q 3047 1584 2836 1778 
Q 2625 1972 2144 2069 
L 1759 2144 
Q 1053 2284 737 2584 
Q 422 2884 422 3419 
Q 422 4038 858 4394 
Q 1294 4750 2059 4750 
Q 2388 4750 2728 4690 
Q 3069 4631 3425 4513 
z
" id="DejaVuSans-53" transform="scale(0.015625)"/>
      </defs>
      <use xlink:href="#DejaVuSans-44"/>
      <use x="77.001953" xlink:href="#DejaVuSans-51"/>
      <use x="155.712891" xlink:href="#DejaVuSans-42"/>
      <use x="222.566406" xlink:href="#DejaVuSans-53"/>
     </g>
    </g>
   </g>
  </g>
 </g>
 <defs>
  <clipPath id="p4ec8a01955">
   <rect height="266.112" width="357.12" x="57.6" y="41.472"/>
  </clipPath>
 </defs>
</svg>
