<?xml version="1.0" encoding="utf-8" standalone="no"?>
<!DOCTYPE svg PUBLIC "-//W3C//DTD SVG 1.1//EN"
  "http://www.w3.org/Graphics/SVG/1.1/DTD/svg11.dtd">
<svg height="345.6pt" version="1.1" viewBox="0 0 460.8 345.6" width="460.8pt" xmlns="http://www.w3.org/2000/svg" xmlns:xlink="http://www.w3.org/1999/xlink">
 <metadata>
  <rdf:RDF xmlns:cc="http://creativecommons.org/ns#" xmlns:dc="http://purl.org/dc/elements/1.1/" xmlns:rdf="http://www.w3.org/1999/02/22-rdf-syntax-ns#">
   <cc:Work>
    <dc:type rdf:resource="http://purl.org/dc/dcmitype/StillImage"/>
    <dc:date>2022-01-03T23:29:07.089614</dc:date>
    <dc:format>image/svg+xml</dc:format>
    <dc:creator>
     <cc:Agent>
      <dc:title>Matplotlib v3.4.3, https://matplotlib.org/</dc:title>
     </cc:Agent>
    </dc:creator>
   </cc:Work>
  </rdf:RDF>
 </metadata>
 <defs>
  <style type="text/css">*{stroke-linecap:butt;stroke-linejoin:round;}</style>
 </defs>
 <g id="figure_1">
  <g id="patch_1">
   <path d="M 0 345.6 
L 460.8 345.6 
L 460.8 0 
L 0 0 
z
" style="fill:#ffffff;"/>
  </g>
  <g id="axes_1">
   <g id="patch_2">
    <path d="M 57.6 307.584 
L 414.72 307.584 
L 414.72 41.472 
L 57.6 41.472 
z
" style="fill:#ffffff;"/>
   </g>
   <g id="PolyCollection_1">
    <path clip-path="url(#p06d4a53e3e)" d="M 73.832727 265.829174 
L 73.832727 265.829174 
L 77.942278 265.829174 
L 82.05183 265.829174 
L 86.161381 265.829174 
L 90.270932 265.829174 
L 94.380483 265.829174 
L 98.490035 265.829174 
L 102.599586 265.829174 
L 106.709137 265.829174 
L 110.818688 265.829174 
L 114.928239 265.829174 
L 119.037791 265.829174 
L 123.147342 265.829174 
L 127.256893 265.829174 
L 131.366444 265.829174 
L 135.475995 265.829174 
L 139.585547 265.829174 
L 143.695098 265.829174 
L 147.804649 268.631324 
L 151.9142 267.790679 
L 156.023751 267.202228 
L 160.133303 274.717479 
L 164.242854 272.050987 
L 168.352405 270.184444 
L 172.461956 273.877099 
L 176.571507 271.462722 
L 180.681059 269.772658 
L 184.79061 268.589613 
L 188.900161 271.985271 
L 193.009712 270.138442 
L 197.119264 273.736134 
L 201.228815 279.893349 
L 205.338366 284.173514 
L 209.447917 277.987427 
L 213.557468 279.83178 
L 217.66702 283.617898 
L 221.776571 267.769532 
L 225.886122 252.715464 
L 229.995673 254.670383 
L 234.105224 259.446527 
L 238.214776 250.005995 
L 242.324327 262.771627 
L 246.433878 266.162979 
L 250.543429 268.361492 
L 254.65298 248.204991 
L 258.762532 253.583219 
L 262.872083 237.442392 
L 266.981634 224.180324 
L 271.091185 226.675366 
L 275.200736 205.323083 
L 279.310288 217.951002 
L 283.419839 226.694018 
L 287.52939 218.552424 
L 291.638941 201.535329 
L 295.748493 186.545839 
L 299.858044 198.753661 
L 303.967595 180.029584 
L 308.077146 164.679207 
L 312.186697 174.536629 
L 316.296249 185.825862 
L 320.4058 172.493882 
L 324.515351 198.712899 
L 328.624902 192.391837 
L 332.734453 199.460668 
L 336.844005 190.494645 
L 340.953556 200.559957 
L 345.063107 209.08004 
L 349.172658 211.613413 
L 353.282209 188.316812 
L 357.391761 193.500573 
L 361.501312 220.418229 
L 365.610863 223.061784 
L 369.720414 206.694873 
L 373.829965 169.192593 
L 377.939517 191.461648 
L 382.049068 199.680235 
L 386.158619 167.524796 
L 390.26817 181.885491 
L 394.377722 169.073313 
L 398.487273 194.319465 
L 398.487273 194.319465 
L 398.487273 122.028917 
L 394.377722 104.815828 
L 390.26817 103.529962 
L 386.158619 128.835302 
L 382.049068 154.431684 
L 377.939517 177.8092 
L 373.829965 141.765508 
L 369.720414 160.3047 
L 365.610863 175.564293 
L 361.501312 150.086018 
L 357.391761 144.99172 
L 353.282209 131.318604 
L 349.172658 119.258636 
L 345.063107 137.693754 
L 340.953556 128.805856 
L 336.844005 139.687434 
L 332.734453 123.498665 
L 328.624902 123.655824 
L 324.515351 126.476287 
L 320.4058 117.769411 
L 316.296249 128.10647 
L 312.186697 117.181349 
L 308.077146 112.863766 
L 303.967595 130.909948 
L 299.858044 137.205896 
L 295.748493 124.892967 
L 291.638941 128.320737 
L 287.52939 109.732642 
L 283.419839 115.828249 
L 279.310288 110.435196 
L 275.200736 116.345668 
L 271.091185 102.458052 
L 266.981634 107.090092 
L 262.872083 134.250144 
L 258.762532 128.576008 
L 254.65298 144.330659 
L 250.543429 156.329623 
L 246.433878 162.554532 
L 242.324327 160.58159 
L 238.214776 193.297163 
L 234.105224 177.716799 
L 229.995673 187.289205 
L 225.886122 201.260263 
L 221.776571 209.995339 
L 217.66702 198.051548 
L 213.557468 211.590473 
L 209.447917 217.633586 
L 205.338366 197.254618 
L 201.228815 213.180209 
L 197.119264 236.09051 
L 193.009712 249.746769 
L 188.900161 242.85431 
L 184.79061 255.527079 
L 180.681059 251.111895 
L 176.571507 244.804489 
L 172.461956 235.79391 
L 168.352405 249.575089 
L 164.242854 242.609052 
L 160.133303 232.657571 
L 156.023751 260.70487 
L 151.9142 258.508739 
L 147.804649 255.371409 
L 143.695098 265.829174 
L 139.585547 265.829174 
L 135.475995 265.829174 
L 131.366444 265.829174 
L 127.256893 265.829174 
L 123.147342 265.829174 
L 119.037791 265.829174 
L 114.928239 265.829174 
L 110.818688 265.829174 
L 106.709137 265.829174 
L 102.599586 265.829174 
L 98.490035 265.829174 
L 94.380483 265.829174 
L 90.270932 265.829174 
L 86.161381 265.829174 
L 82.05183 265.829174 
L 77.942278 265.829174 
L 73.832727 265.829174 
z
" style="fill:#1f77b4;fill-opacity:0.3;"/>
   </g>
   <g id="PolyCollection_2">
    <path clip-path="url(#p06d4a53e3e)" d="M 73.832727 265.829174 
L 73.832727 265.829174 
L 77.942278 265.829174 
L 82.05183 265.829174 
L 86.161381 265.829174 
L 90.270932 265.829174 
L 94.380483 265.829174 
L 98.490035 265.829174 
L 102.599586 265.829174 
L 106.709137 265.829174 
L 110.818688 265.829174 
L 114.928239 265.829174 
L 119.037791 265.829174 
L 123.147342 265.829174 
L 127.256893 265.829174 
L 131.366444 265.829174 
L 135.475995 266.833442 
L 139.585547 267.730644 
L 143.695098 267.160203 
L 147.804649 266.760895 
L 151.9142 267.151645 
L 156.023751 266.754904 
L 160.133303 266.071244 
L 164.242854 265.998623 
L 168.352405 266.156613 
L 172.461956 269.298515 
L 176.571507 267.555905 
L 180.681059 271.768607 
L 184.79061 269.986777 
L 188.900161 266.175506 
L 193.009712 266.071607 
L 197.119264 265.998877 
L 201.228815 256.893048 
L 205.338366 265.376903 
L 209.447917 265.891654 
L 213.557468 261.544784 
L 217.66702 263.627953 
L 221.776571 270.507101 
L 225.886122 264.156929 
L 229.995673 261.207364 
L 234.105224 259.964066 
L 238.214776 267.245253 
L 242.324327 264.1178 
L 246.433878 263.105818 
L 250.543429 261.404724 
L 254.65298 236.760739 
L 258.762532 255.77141 
L 262.872083 230.954625 
L 266.981634 223.86747 
L 271.091185 185.984634 
L 275.200736 211.279963 
L 279.310288 210.122198 
L 283.419839 213.700662 
L 287.52939 226.058262 
L 291.638941 201.509318 
L 295.748493 217.985919 
L 299.858044 212.611781 
L 303.967595 196.023605 
L 308.077146 204.719729 
L 312.186697 156.0887 
L 316.296249 161.070022 
L 320.4058 167.574255 
L 324.515351 184.986457 
L 328.624902 201.255402 
L 332.734453 215.855757 
L 336.844005 213.172697 
L 340.953556 226.263241 
L 345.063107 214.227397 
L 349.172658 215.370353 
L 353.282209 211.42234 
L 357.391761 184.934279 
L 361.501312 198.088926 
L 365.610863 200.830487 
L 369.720414 166.716678 
L 373.829965 164.355676 
L 377.939517 149.678578 
L 382.049068 160.939518 
L 386.158619 176.850959 
L 390.26817 177.818238 
L 394.377722 199.397136 
L 398.487273 218.479883 
L 398.487273 218.479883 
L 398.487273 114.621091 
L 394.377722 110.931113 
L 390.26817 107.981156 
L 386.158619 127.076227 
L 382.049068 95.648413 
L 377.939517 122.329286 
L 373.829965 124.034001 
L 369.720414 128.470952 
L 365.610863 141.005932 
L 361.501312 150.27163 
L 357.391761 165.901443 
L 353.282209 182.852963 
L 349.172658 164.867538 
L 345.063107 175.972199 
L 340.953556 138.589124 
L 336.844005 142.667854 
L 332.734453 118.59607 
L 328.624902 127.935687 
L 324.515351 120.622172 
L 320.4058 120.617615 
L 316.296249 120.767104 
L 312.186697 125.764912 
L 308.077146 133.844598 
L 303.967595 136.144324 
L 299.858044 155.710335 
L 295.748493 170.38821 
L 291.638941 183.780845 
L 287.52939 193.187372 
L 283.419839 176.296448 
L 279.310288 173.241318 
L 275.200736 163.856734 
L 271.091185 146.86096 
L 266.981634 153.793124 
L 262.872083 163.899293 
L 258.762532 164.685578 
L 254.65298 178.570209 
L 250.543429 201.235864 
L 246.433878 200.225029 
L 242.324327 183.724282 
L 238.214776 201.419469 
L 234.105224 207.573416 
L 229.995673 183.744888 
L 225.886122 190.484093 
L 221.776571 183.030327 
L 217.66702 191.632976 
L 213.557468 188.119661 
L 209.447917 191.012488 
L 205.338366 208.311189 
L 201.228815 232.445769 
L 197.119264 256.206867 
L 193.009712 252.08302 
L 188.900161 246.191812 
L 184.79061 242.709485 
L 180.681059 232.801047 
L 176.571507 245.275729 
L 172.461956 237.459162 
L 168.352405 252.884274 
L 164.242854 262.049372 
L 160.133303 260.429457 
L 156.023751 262.374305 
L 151.9142 260.893647 
L 147.804649 262.351947 
L 143.695098 260.861707 
L 139.585547 258.732792 
L 135.475995 262.081195 
L 131.366444 265.829174 
L 127.256893 265.829174 
L 123.147342 265.829174 
L 119.037791 265.829174 
L 114.928239 265.829174 
L 110.818688 265.829174 
L 106.709137 265.829174 
L 102.599586 265.829174 
L 98.490035 265.829174 
L 94.380483 265.829174 
L 90.270932 265.829174 
L 86.161381 265.829174 
L 82.05183 265.829174 
L 77.942278 265.829174 
L 73.832727 265.829174 
z
" style="fill:#ff7f0e;fill-opacity:0.3;"/>
   </g>
   <g id="PolyCollection_3">
    <path clip-path="url(#p06d4a53e3e)" d="M 73.832727 265.829174 
L 73.832727 265.829174 
L 77.942278 265.829174 
L 82.05183 265.829174 
L 86.161381 265.829174 
L 90.270932 265.829174 
L 94.380483 265.829174 
L 98.490035 265.829174 
L 102.599586 265.829174 
L 106.709137 265.829174 
L 110.818688 265.829174 
L 114.928239 265.829174 
L 119.037791 265.829174 
L 123.147342 265.829174 
L 127.256893 265.829174 
L 131.366444 265.829174 
L 135.475995 265.829174 
L 139.585547 265.829174 
L 143.695098 265.829174 
L 147.804649 265.829174 
L 151.9142 265.829174 
L 156.023751 265.829174 
L 160.133303 265.829174 
L 164.242854 265.829174 
L 168.352405 273.588045 
L 172.461956 271.260383 
L 176.571507 277.581965 
L 180.681059 267.087114 
L 184.79061 266.709732 
L 188.900161 272.529341 
L 193.009712 270.519291 
L 197.119264 264.38688 
L 201.228815 264.664244 
L 205.338366 254.873731 
L 209.447917 261.478395 
L 213.557468 269.732972 
L 217.66702 261.257675 
L 221.776571 262.629125 
L 225.886122 263.393615 
L 229.995673 248.169307 
L 234.105224 241.468487 
L 238.214776 241.067899 
L 242.324327 247.899037 
L 246.433878 237.722231 
L 250.543429 242.334595 
L 254.65298 249.382969 
L 258.762532 254.365133 
L 262.872083 258.383879 
L 266.981634 234.818548 
L 271.091185 243.254394 
L 275.200736 249.767432 
L 279.310288 247.681578 
L 283.419839 221.067444 
L 287.52939 234.706092 
L 291.638941 226.784723 
L 295.748493 202.965544 
L 299.858044 202.974947 
L 303.967595 204.18349 
L 308.077146 198.687499 
L 312.186697 211.877278 
L 316.296249 198.886092 
L 320.4058 208.786863 
L 324.515351 176.385861 
L 328.624902 189.860217 
L 332.734453 200.263183 
L 336.844005 217.790228 
L 340.953556 220.53154 
L 345.063107 223.490157 
L 349.172658 206.29858 
L 353.282209 202.85399 
L 357.391761 199.091566 
L 361.501312 196.802039 
L 365.610863 207.886984 
L 369.720414 209.691155 
L 373.829965 203.08761 
L 377.939517 201.5665 
L 382.049068 203.525848 
L 386.158619 220.121963 
L 390.26817 221.992198 
L 394.377722 215.133939 
L 398.487273 187.83094 
L 398.487273 187.83094 
L 398.487273 126.939224 
L 394.377722 107.997097 
L 390.26817 106.215749 
L 386.158619 98.082089 
L 382.049068 113.107809 
L 377.939517 112.231275 
L 373.829965 131.093261 
L 369.720414 124.109916 
L 365.610863 147.610588 
L 361.501312 149.886648 
L 357.391761 120.021884 
L 353.282209 146.05643 
L 349.172658 169.019528 
L 345.063107 142.656803 
L 340.953556 98.749925 
L 336.844005 123.73402 
L 332.734453 118.204871 
L 328.624902 107.272948 
L 324.515351 117.390657 
L 320.4058 111.454417 
L 316.296249 117.020913 
L 312.186697 99.416976 
L 308.077146 89.719883 
L 303.967595 109.203628 
L 299.858044 116.802408 
L 295.748493 124.749495 
L 291.638941 133.657953 
L 287.52939 157.054721 
L 283.419839 148.227928 
L 279.310288 159.11601 
L 275.200736 173.040301 
L 271.091185 159.680907 
L 266.981634 196.27065 
L 262.872083 225.500094 
L 258.762532 214.485032 
L 254.65298 204.310202 
L 250.543429 177.944928 
L 246.433878 214.095729 
L 242.324327 195.927171 
L 238.214776 168.282835 
L 234.105224 172.856908 
L 229.995673 191.051882 
L 225.886122 188.182163 
L 221.776571 225.462824 
L 217.66702 208.162959 
L 213.557468 200.878731 
L 209.447917 213.140498 
L 205.338366 218.205678 
L 201.228815 219.440505 
L 197.119264 223.378474 
L 193.009712 235.413049 
L 188.900161 222.377567 
L 184.79061 240.199918 
L 180.681059 229.215951 
L 176.571507 221.967161 
L 172.461956 245.559626 
L 168.352405 236.872677 
L 164.242854 265.829174 
L 160.133303 265.829174 
L 156.023751 265.829174 
L 151.9142 265.829174 
L 147.804649 265.829174 
L 143.695098 265.829174 
L 139.585547 265.829174 
L 135.475995 265.829174 
L 131.366444 265.829174 
L 127.256893 265.829174 
L 123.147342 265.829174 
L 119.037791 265.829174 
L 114.928239 265.829174 
L 110.818688 265.829174 
L 106.709137 265.829174 
L 102.599586 265.829174 
L 98.490035 265.829174 
L 94.380483 265.829174 
L 90.270932 265.829174 
L 86.161381 265.829174 
L 82.05183 265.829174 
L 77.942278 265.829174 
L 73.832727 265.829174 
z
" style="fill:#2ca02c;fill-opacity:0.3;"/>
   </g>
   <g id="PolyCollection_4">
    <path clip-path="url(#p06d4a53e3e)" d="M 73.832727 265.829174 
L 73.832727 265.829174 
L 77.942278 265.829174 
L 82.05183 265.829174 
L 86.161381 265.829174 
L 90.270932 265.829174 
L 94.380483 265.829174 
L 98.490035 265.829174 
L 102.599586 265.829174 
L 106.709137 265.829174 
L 110.818688 265.829174 
L 114.928239 265.829174 
L 119.037791 265.829174 
L 123.147342 265.829174 
L 127.256893 265.829174 
L 131.366444 265.829174 
L 135.475995 265.829174 
L 139.585547 265.829174 
L 143.695098 265.829174 
L 147.804649 265.829174 
L 151.9142 265.829174 
L 156.023751 265.829174 
L 160.133303 265.829174 
L 164.242854 270.546485 
L 168.352405 269.131292 
L 172.461956 275.899936 
L 176.571507 279.653884 
L 180.681059 282.906236 
L 184.79061 277.783117 
L 188.900161 276.662582 
L 193.009712 284.35055 
L 197.119264 288.801712 
L 201.228815 291.015259 
L 205.338366 295.488 
L 209.447917 290.230963 
L 213.557468 287.981574 
L 217.66702 288.662664 
L 221.776571 291.442756 
L 225.886122 280.392849 
L 229.995673 276.220811 
L 234.105224 277.221984 
L 238.214776 272.489164 
L 242.324327 251.149096 
L 246.433878 255.006897 
L 250.543429 253.855421 
L 254.65298 244.933009 
L 258.762532 244.541376 
L 262.872083 235.626826 
L 266.981634 228.433514 
L 271.091185 240.149842 
L 275.200736 231.704835 
L 279.310288 242.279973 
L 283.419839 232.835739 
L 287.52939 213.06724 
L 291.638941 219.168724 
L 295.748493 218.382225 
L 299.858044 195.008975 
L 303.967595 191.861275 
L 308.077146 190.664334 
L 312.186697 176.219421 
L 316.296249 187.300884 
L 320.4058 190.523117 
L 324.515351 154.653158 
L 328.624902 152.632485 
L 332.734453 122.192493 
L 336.844005 126.397221 
L 340.953556 127.617493 
L 345.063107 128.201113 
L 349.172658 147.748421 
L 353.282209 119.741656 
L 357.391761 121.085348 
L 361.501312 121.582745 
L 365.610863 116.006008 
L 369.720414 130.085298 
L 373.829965 141.02734 
L 377.939517 123.626676 
L 382.049068 116.424193 
L 386.158619 112.426012 
L 390.26817 111.08218 
L 394.377722 125.911725 
L 398.487273 103.579611 
L 398.487273 103.579611 
L 398.487273 56.354879 
L 394.377722 69.994778 
L 390.26817 88.749657 
L 386.158619 74.416144 
L 382.049068 61.918152 
L 377.939517 89.639784 
L 373.829965 90.370767 
L 369.720414 107.30999 
L 365.610863 94.053324 
L 361.501312 99.498599 
L 357.391761 90.958748 
L 353.282209 98.274834 
L 349.172658 97.721149 
L 345.063107 64.465149 
L 340.953556 68.21231 
L 336.844005 53.890386 
L 332.734453 59.63688 
L 328.624902 56.92605 
L 324.515351 56.402557 
L 320.4058 53.568 
L 316.296249 65.926818 
L 312.186697 72.168005 
L 308.077146 74.635607 
L 303.967595 94.209951 
L 299.858044 104.993179 
L 295.748493 88.952157 
L 291.638941 105.56125 
L 287.52939 102.275811 
L 283.419839 86.666484 
L 279.310288 79.323807 
L 275.200736 76.308437 
L 271.091185 61.460487 
L 266.981634 64.535677 
L 262.872083 74.432674 
L 258.762532 87.482631 
L 254.65298 107.487833 
L 250.543429 98.44353 
L 246.433878 100.270158 
L 242.324327 109.917362 
L 238.214776 130.21385 
L 234.105224 148.859617 
L 229.995673 124.089382 
L 225.886122 137.271297 
L 221.776571 137.103764 
L 217.66702 134.155722 
L 213.557468 118.054445 
L 209.447917 129.341584 
L 205.338366 146.211834 
L 201.228815 159.16584 
L 197.119264 162.159196 
L 193.009712 178.621161 
L 188.900161 200.422297 
L 184.79061 221.216452 
L 180.681059 202.096714 
L 176.571507 214.234655 
L 172.461956 228.244581 
L 168.352405 253.505505 
L 164.242854 248.223933 
L 160.133303 265.829174 
L 156.023751 265.829174 
L 151.9142 265.829174 
L 147.804649 265.829174 
L 143.695098 265.829174 
L 139.585547 265.829174 
L 135.475995 265.829174 
L 131.366444 265.829174 
L 127.256893 265.829174 
L 123.147342 265.829174 
L 119.037791 265.829174 
L 114.928239 265.829174 
L 110.818688 265.829174 
L 106.709137 265.829174 
L 102.599586 265.829174 
L 98.490035 265.829174 
L 94.380483 265.829174 
L 90.270932 265.829174 
L 86.161381 265.829174 
L 82.05183 265.829174 
L 77.942278 265.829174 
L 73.832727 265.829174 
z
" style="fill:#d62728;fill-opacity:0.3;"/>
   </g>
   <g id="matplotlib.axis_1">
    <g id="xtick_1">
     <g id="line2d_1">
      <defs>
       <path d="M 0 0 
L 0 3.5 
" id="m9cb3d9ff94" style="stroke:#000000;stroke-width:0.8;"/>
      </defs>
      <g>
       <use style="stroke:#000000;stroke-width:0.8;" x="69.723176" xlink:href="#m9cb3d9ff94" y="307.584"/>
      </g>
     </g>
     <g id="text_1">
      <!-- 0 -->
      <g transform="translate(66.541926 322.182437)scale(0.1 -0.1)">
       <defs>
        <path d="M 2034 4250 
Q 1547 4250 1301 3770 
Q 1056 3291 1056 2328 
Q 1056 1369 1301 889 
Q 1547 409 2034 409 
Q 2525 409 2770 889 
Q 3016 1369 3016 2328 
Q 3016 3291 2770 3770 
Q 2525 4250 2034 4250 
z
M 2034 4750 
Q 2819 4750 3233 4129 
Q 3647 3509 3647 2328 
Q 3647 1150 3233 529 
Q 2819 -91 2034 -91 
Q 1250 -91 836 529 
Q 422 1150 422 2328 
Q 422 3509 836 4129 
Q 1250 4750 2034 4750 
z
" id="DejaVuSans-30" transform="scale(0.015625)"/>
       </defs>
       <use xlink:href="#DejaVuSans-30"/>
      </g>
     </g>
    </g>
    <g id="xtick_2">
     <g id="line2d_2">
      <g>
       <use style="stroke:#000000;stroke-width:0.8;" x="110.818688" xlink:href="#m9cb3d9ff94" y="307.584"/>
      </g>
     </g>
     <g id="text_2">
      <!-- 50 -->
      <g transform="translate(104.456188 322.182437)scale(0.1 -0.1)">
       <defs>
        <path d="M 691 4666 
L 3169 4666 
L 3169 4134 
L 1269 4134 
L 1269 2991 
Q 1406 3038 1543 3061 
Q 1681 3084 1819 3084 
Q 2600 3084 3056 2656 
Q 3513 2228 3513 1497 
Q 3513 744 3044 326 
Q 2575 -91 1722 -91 
Q 1428 -91 1123 -41 
Q 819 9 494 109 
L 494 744 
Q 775 591 1075 516 
Q 1375 441 1709 441 
Q 2250 441 2565 725 
Q 2881 1009 2881 1497 
Q 2881 1984 2565 2268 
Q 2250 2553 1709 2553 
Q 1456 2553 1204 2497 
Q 953 2441 691 2322 
L 691 4666 
z
" id="DejaVuSans-35" transform="scale(0.015625)"/>
       </defs>
       <use xlink:href="#DejaVuSans-35"/>
       <use x="63.623047" xlink:href="#DejaVuSans-30"/>
      </g>
     </g>
    </g>
    <g id="xtick_3">
     <g id="line2d_3">
      <g>
       <use style="stroke:#000000;stroke-width:0.8;" x="151.9142" xlink:href="#m9cb3d9ff94" y="307.584"/>
      </g>
     </g>
     <g id="text_3">
      <!-- 100 -->
      <g transform="translate(142.37045 322.182437)scale(0.1 -0.1)">
       <defs>
        <path d="M 794 531 
L 1825 531 
L 1825 4091 
L 703 3866 
L 703 4441 
L 1819 4666 
L 2450 4666 
L 2450 531 
L 3481 531 
L 3481 0 
L 794 0 
L 794 531 
z
" id="DejaVuSans-31" transform="scale(0.015625)"/>
       </defs>
       <use xlink:href="#DejaVuSans-31"/>
       <use x="63.623047" xlink:href="#DejaVuSans-30"/>
       <use x="127.246094" xlink:href="#DejaVuSans-30"/>
      </g>
     </g>
    </g>
    <g id="xtick_4">
     <g id="line2d_4">
      <g>
       <use style="stroke:#000000;stroke-width:0.8;" x="193.009712" xlink:href="#m9cb3d9ff94" y="307.584"/>
      </g>
     </g>
     <g id="text_4">
      <!-- 150 -->
      <g transform="translate(183.465962 322.182437)scale(0.1 -0.1)">
       <use xlink:href="#DejaVuSans-31"/>
       <use x="63.623047" xlink:href="#DejaVuSans-35"/>
       <use x="127.246094" xlink:href="#DejaVuSans-30"/>
      </g>
     </g>
    </g>
    <g id="xtick_5">
     <g id="line2d_5">
      <g>
       <use style="stroke:#000000;stroke-width:0.8;" x="234.105224" xlink:href="#m9cb3d9ff94" y="307.584"/>
      </g>
     </g>
     <g id="text_5">
      <!-- 200 -->
      <g transform="translate(224.561474 322.182437)scale(0.1 -0.1)">
       <defs>
        <path d="M 1228 531 
L 3431 531 
L 3431 0 
L 469 0 
L 469 531 
Q 828 903 1448 1529 
Q 2069 2156 2228 2338 
Q 2531 2678 2651 2914 
Q 2772 3150 2772 3378 
Q 2772 3750 2511 3984 
Q 2250 4219 1831 4219 
Q 1534 4219 1204 4116 
Q 875 4013 500 3803 
L 500 4441 
Q 881 4594 1212 4672 
Q 1544 4750 1819 4750 
Q 2544 4750 2975 4387 
Q 3406 4025 3406 3419 
Q 3406 3131 3298 2873 
Q 3191 2616 2906 2266 
Q 2828 2175 2409 1742 
Q 1991 1309 1228 531 
z
" id="DejaVuSans-32" transform="scale(0.015625)"/>
       </defs>
       <use xlink:href="#DejaVuSans-32"/>
       <use x="63.623047" xlink:href="#DejaVuSans-30"/>
       <use x="127.246094" xlink:href="#DejaVuSans-30"/>
      </g>
     </g>
    </g>
    <g id="xtick_6">
     <g id="line2d_6">
      <g>
       <use style="stroke:#000000;stroke-width:0.8;" x="275.200736" xlink:href="#m9cb3d9ff94" y="307.584"/>
      </g>
     </g>
     <g id="text_6">
      <!-- 250 -->
      <g transform="translate(265.656986 322.182437)scale(0.1 -0.1)">
       <use xlink:href="#DejaVuSans-32"/>
       <use x="63.623047" xlink:href="#DejaVuSans-35"/>
       <use x="127.246094" xlink:href="#DejaVuSans-30"/>
      </g>
     </g>
    </g>
    <g id="xtick_7">
     <g id="line2d_7">
      <g>
       <use style="stroke:#000000;stroke-width:0.8;" x="316.296249" xlink:href="#m9cb3d9ff94" y="307.584"/>
      </g>
     </g>
     <g id="text_7">
      <!-- 300 -->
      <g transform="translate(306.752499 322.182437)scale(0.1 -0.1)">
       <defs>
        <path d="M 2597 2516 
Q 3050 2419 3304 2112 
Q 3559 1806 3559 1356 
Q 3559 666 3084 287 
Q 2609 -91 1734 -91 
Q 1441 -91 1130 -33 
Q 819 25 488 141 
L 488 750 
Q 750 597 1062 519 
Q 1375 441 1716 441 
Q 2309 441 2620 675 
Q 2931 909 2931 1356 
Q 2931 1769 2642 2001 
Q 2353 2234 1838 2234 
L 1294 2234 
L 1294 2753 
L 1863 2753 
Q 2328 2753 2575 2939 
Q 2822 3125 2822 3475 
Q 2822 3834 2567 4026 
Q 2313 4219 1838 4219 
Q 1578 4219 1281 4162 
Q 984 4106 628 3988 
L 628 4550 
Q 988 4650 1302 4700 
Q 1616 4750 1894 4750 
Q 2613 4750 3031 4423 
Q 3450 4097 3450 3541 
Q 3450 3153 3228 2886 
Q 3006 2619 2597 2516 
z
" id="DejaVuSans-33" transform="scale(0.015625)"/>
       </defs>
       <use xlink:href="#DejaVuSans-33"/>
       <use x="63.623047" xlink:href="#DejaVuSans-30"/>
       <use x="127.246094" xlink:href="#DejaVuSans-30"/>
      </g>
     </g>
    </g>
    <g id="xtick_8">
     <g id="line2d_8">
      <g>
       <use style="stroke:#000000;stroke-width:0.8;" x="357.391761" xlink:href="#m9cb3d9ff94" y="307.584"/>
      </g>
     </g>
     <g id="text_8">
      <!-- 350 -->
      <g transform="translate(347.848011 322.182437)scale(0.1 -0.1)">
       <use xlink:href="#DejaVuSans-33"/>
       <use x="63.623047" xlink:href="#DejaVuSans-35"/>
       <use x="127.246094" xlink:href="#DejaVuSans-30"/>
      </g>
     </g>
    </g>
    <g id="xtick_9">
     <g id="line2d_9">
      <g>
       <use style="stroke:#000000;stroke-width:0.8;" x="398.487273" xlink:href="#m9cb3d9ff94" y="307.584"/>
      </g>
     </g>
     <g id="text_9">
      <!-- 400 -->
      <g transform="translate(388.943523 322.182437)scale(0.1 -0.1)">
       <defs>
        <path d="M 2419 4116 
L 825 1625 
L 2419 1625 
L 2419 4116 
z
M 2253 4666 
L 3047 4666 
L 3047 1625 
L 3713 1625 
L 3713 1100 
L 3047 1100 
L 3047 0 
L 2419 0 
L 2419 1100 
L 313 1100 
L 313 1709 
L 2253 4666 
z
" id="DejaVuSans-34" transform="scale(0.015625)"/>
       </defs>
       <use xlink:href="#DejaVuSans-34"/>
       <use x="63.623047" xlink:href="#DejaVuSans-30"/>
       <use x="127.246094" xlink:href="#DejaVuSans-30"/>
      </g>
     </g>
    </g>
   </g>
   <g id="matplotlib.axis_2">
    <g id="ytick_1">
     <g id="line2d_10">
      <defs>
       <path d="M 0 0 
L -3.5 0 
" id="m7c78c9281c" style="stroke:#000000;stroke-width:0.8;"/>
      </defs>
      <g>
       <use style="stroke:#000000;stroke-width:0.8;" x="57.6" xlink:href="#m7c78c9281c" y="291.450087"/>
      </g>
     </g>
     <g id="text_10">
      <!-- −190 -->
      <g transform="translate(23.132812 295.249306)scale(0.1 -0.1)">
       <defs>
        <path d="M 678 2272 
L 4684 2272 
L 4684 1741 
L 678 1741 
L 678 2272 
z
" id="DejaVuSans-2212" transform="scale(0.015625)"/>
        <path d="M 703 97 
L 703 672 
Q 941 559 1184 500 
Q 1428 441 1663 441 
Q 2288 441 2617 861 
Q 2947 1281 2994 2138 
Q 2813 1869 2534 1725 
Q 2256 1581 1919 1581 
Q 1219 1581 811 2004 
Q 403 2428 403 3163 
Q 403 3881 828 4315 
Q 1253 4750 1959 4750 
Q 2769 4750 3195 4129 
Q 3622 3509 3622 2328 
Q 3622 1225 3098 567 
Q 2575 -91 1691 -91 
Q 1453 -91 1209 -44 
Q 966 3 703 97 
z
M 1959 2075 
Q 2384 2075 2632 2365 
Q 2881 2656 2881 3163 
Q 2881 3666 2632 3958 
Q 2384 4250 1959 4250 
Q 1534 4250 1286 3958 
Q 1038 3666 1038 3163 
Q 1038 2656 1286 2365 
Q 1534 2075 1959 2075 
z
" id="DejaVuSans-39" transform="scale(0.015625)"/>
       </defs>
       <use xlink:href="#DejaVuSans-2212"/>
       <use x="83.789062" xlink:href="#DejaVuSans-31"/>
       <use x="147.412109" xlink:href="#DejaVuSans-39"/>
       <use x="211.035156" xlink:href="#DejaVuSans-30"/>
      </g>
     </g>
    </g>
    <g id="ytick_2">
     <g id="line2d_11">
      <g>
       <use style="stroke:#000000;stroke-width:0.8;" x="57.6" xlink:href="#m7c78c9281c" y="261.826526"/>
      </g>
     </g>
     <g id="text_11">
      <!-- −180 -->
      <g transform="translate(23.132812 265.625745)scale(0.1 -0.1)">
       <defs>
        <path d="M 2034 2216 
Q 1584 2216 1326 1975 
Q 1069 1734 1069 1313 
Q 1069 891 1326 650 
Q 1584 409 2034 409 
Q 2484 409 2743 651 
Q 3003 894 3003 1313 
Q 3003 1734 2745 1975 
Q 2488 2216 2034 2216 
z
M 1403 2484 
Q 997 2584 770 2862 
Q 544 3141 544 3541 
Q 544 4100 942 4425 
Q 1341 4750 2034 4750 
Q 2731 4750 3128 4425 
Q 3525 4100 3525 3541 
Q 3525 3141 3298 2862 
Q 3072 2584 2669 2484 
Q 3125 2378 3379 2068 
Q 3634 1759 3634 1313 
Q 3634 634 3220 271 
Q 2806 -91 2034 -91 
Q 1263 -91 848 271 
Q 434 634 434 1313 
Q 434 1759 690 2068 
Q 947 2378 1403 2484 
z
M 1172 3481 
Q 1172 3119 1398 2916 
Q 1625 2713 2034 2713 
Q 2441 2713 2670 2916 
Q 2900 3119 2900 3481 
Q 2900 3844 2670 4047 
Q 2441 4250 2034 4250 
Q 1625 4250 1398 4047 
Q 1172 3844 1172 3481 
z
" id="DejaVuSans-38" transform="scale(0.015625)"/>
       </defs>
       <use xlink:href="#DejaVuSans-2212"/>
       <use x="83.789062" xlink:href="#DejaVuSans-31"/>
       <use x="147.412109" xlink:href="#DejaVuSans-38"/>
       <use x="211.035156" xlink:href="#DejaVuSans-30"/>
      </g>
     </g>
    </g>
    <g id="ytick_3">
     <g id="line2d_12">
      <g>
       <use style="stroke:#000000;stroke-width:0.8;" x="57.6" xlink:href="#m7c78c9281c" y="232.202965"/>
      </g>
     </g>
     <g id="text_12">
      <!-- −170 -->
      <g transform="translate(23.132812 236.002184)scale(0.1 -0.1)">
       <defs>
        <path d="M 525 4666 
L 3525 4666 
L 3525 4397 
L 1831 0 
L 1172 0 
L 2766 4134 
L 525 4134 
L 525 4666 
z
" id="DejaVuSans-37" transform="scale(0.015625)"/>
       </defs>
       <use xlink:href="#DejaVuSans-2212"/>
       <use x="83.789062" xlink:href="#DejaVuSans-31"/>
       <use x="147.412109" xlink:href="#DejaVuSans-37"/>
       <use x="211.035156" xlink:href="#DejaVuSans-30"/>
      </g>
     </g>
    </g>
    <g id="ytick_4">
     <g id="line2d_13">
      <g>
       <use style="stroke:#000000;stroke-width:0.8;" x="57.6" xlink:href="#m7c78c9281c" y="202.579404"/>
      </g>
     </g>
     <g id="text_13">
      <!-- −160 -->
      <g transform="translate(23.132812 206.378623)scale(0.1 -0.1)">
       <defs>
        <path d="M 2113 2584 
Q 1688 2584 1439 2293 
Q 1191 2003 1191 1497 
Q 1191 994 1439 701 
Q 1688 409 2113 409 
Q 2538 409 2786 701 
Q 3034 994 3034 1497 
Q 3034 2003 2786 2293 
Q 2538 2584 2113 2584 
z
M 3366 4563 
L 3366 3988 
Q 3128 4100 2886 4159 
Q 2644 4219 2406 4219 
Q 1781 4219 1451 3797 
Q 1122 3375 1075 2522 
Q 1259 2794 1537 2939 
Q 1816 3084 2150 3084 
Q 2853 3084 3261 2657 
Q 3669 2231 3669 1497 
Q 3669 778 3244 343 
Q 2819 -91 2113 -91 
Q 1303 -91 875 529 
Q 447 1150 447 2328 
Q 447 3434 972 4092 
Q 1497 4750 2381 4750 
Q 2619 4750 2861 4703 
Q 3103 4656 3366 4563 
z
" id="DejaVuSans-36" transform="scale(0.015625)"/>
       </defs>
       <use xlink:href="#DejaVuSans-2212"/>
       <use x="83.789062" xlink:href="#DejaVuSans-31"/>
       <use x="147.412109" xlink:href="#DejaVuSans-36"/>
       <use x="211.035156" xlink:href="#DejaVuSans-30"/>
      </g>
     </g>
    </g>
    <g id="ytick_5">
     <g id="line2d_14">
      <g>
       <use style="stroke:#000000;stroke-width:0.8;" x="57.6" xlink:href="#m7c78c9281c" y="172.955844"/>
      </g>
     </g>
     <g id="text_14">
      <!-- −150 -->
      <g transform="translate(23.132812 176.755062)scale(0.1 -0.1)">
       <use xlink:href="#DejaVuSans-2212"/>
       <use x="83.789062" xlink:href="#DejaVuSans-31"/>
       <use x="147.412109" xlink:href="#DejaVuSans-35"/>
       <use x="211.035156" xlink:href="#DejaVuSans-30"/>
      </g>
     </g>
    </g>
    <g id="ytick_6">
     <g id="line2d_15">
      <g>
       <use style="stroke:#000000;stroke-width:0.8;" x="57.6" xlink:href="#m7c78c9281c" y="143.332283"/>
      </g>
     </g>
     <g id="text_15">
      <!-- −140 -->
      <g transform="translate(23.132812 147.131501)scale(0.1 -0.1)">
       <use xlink:href="#DejaVuSans-2212"/>
       <use x="83.789062" xlink:href="#DejaVuSans-31"/>
       <use x="147.412109" xlink:href="#DejaVuSans-34"/>
       <use x="211.035156" xlink:href="#DejaVuSans-30"/>
      </g>
     </g>
    </g>
    <g id="ytick_7">
     <g id="line2d_16">
      <g>
       <use style="stroke:#000000;stroke-width:0.8;" x="57.6" xlink:href="#m7c78c9281c" y="113.708722"/>
      </g>
     </g>
     <g id="text_16">
      <!-- −130 -->
      <g transform="translate(23.132812 117.50794)scale(0.1 -0.1)">
       <use xlink:href="#DejaVuSans-2212"/>
       <use x="83.789062" xlink:href="#DejaVuSans-31"/>
       <use x="147.412109" xlink:href="#DejaVuSans-33"/>
       <use x="211.035156" xlink:href="#DejaVuSans-30"/>
      </g>
     </g>
    </g>
    <g id="ytick_8">
     <g id="line2d_17">
      <g>
       <use style="stroke:#000000;stroke-width:0.8;" x="57.6" xlink:href="#m7c78c9281c" y="84.085161"/>
      </g>
     </g>
     <g id="text_17">
      <!-- −120 -->
      <g transform="translate(23.132812 87.88438)scale(0.1 -0.1)">
       <use xlink:href="#DejaVuSans-2212"/>
       <use x="83.789062" xlink:href="#DejaVuSans-31"/>
       <use x="147.412109" xlink:href="#DejaVuSans-32"/>
       <use x="211.035156" xlink:href="#DejaVuSans-30"/>
      </g>
     </g>
    </g>
    <g id="ytick_9">
     <g id="line2d_18">
      <g>
       <use style="stroke:#000000;stroke-width:0.8;" x="57.6" xlink:href="#m7c78c9281c" y="54.4616"/>
      </g>
     </g>
     <g id="text_18">
      <!-- −110 -->
      <g transform="translate(23.132812 58.260819)scale(0.1 -0.1)">
       <use xlink:href="#DejaVuSans-2212"/>
       <use x="83.789062" xlink:href="#DejaVuSans-31"/>
       <use x="147.412109" xlink:href="#DejaVuSans-31"/>
       <use x="211.035156" xlink:href="#DejaVuSans-30"/>
      </g>
     </g>
    </g>
   </g>
   <g id="line2d_19">
    <path clip-path="url(#p06d4a53e3e)" d="M 73.832727 265.829174 
L 77.942278 265.829174 
L 82.05183 265.829174 
L 86.161381 265.829174 
L 90.270932 265.829174 
L 94.380483 265.829174 
L 98.490035 265.829174 
L 102.599586 265.829174 
L 106.709137 265.829174 
L 110.818688 265.829174 
L 114.928239 265.829174 
L 119.037791 265.829174 
L 123.147342 265.829174 
L 127.256893 265.829174 
L 131.366444 265.829174 
L 135.475995 265.829174 
L 139.585547 265.829174 
L 143.695098 265.829174 
L 147.804649 262.001367 
L 151.9142 263.149709 
L 156.023751 263.953549 
L 160.133303 253.687525 
L 164.242854 257.33002 
L 168.352405 259.879766 
L 172.461956 254.835504 
L 176.571507 258.133605 
L 180.681059 260.442276 
L 184.79061 262.058346 
L 188.900161 257.41979 
L 193.009712 259.942605 
L 197.119264 254.913322 
L 201.228815 246.536779 
L 205.338366 240.714066 
L 209.447917 247.810507 
L 213.557468 245.711126 
L 217.66702 240.834723 
L 221.776571 238.882436 
L 225.886122 226.987863 
L 229.995673 220.979794 
L 234.105224 218.581663 
L 238.214776 221.651579 
L 242.324327 211.676609 
L 246.433878 214.358756 
L 250.543429 212.345557 
L 254.65298 196.267825 
L 258.762532 191.079614 
L 262.872083 185.846268 
L 266.981634 165.635208 
L 271.091185 164.566709 
L 275.200736 160.834375 
L 279.310288 164.193099 
L 283.419839 171.261133 
L 287.52939 164.142533 
L 291.638941 164.928033 
L 295.748493 155.719403 
L 299.858044 167.979779 
L 303.967595 155.469766 
L 308.077146 138.771486 
L 312.186697 145.858989 
L 316.296249 156.966166 
L 320.4058 145.131646 
L 324.515351 162.594593 
L 328.624902 158.023831 
L 332.734453 161.479667 
L 336.844005 165.091039 
L 340.953556 164.682907 
L 345.063107 173.386897 
L 349.172658 165.436024 
L 353.282209 159.817708 
L 357.391761 169.246147 
L 361.501312 185.252124 
L 365.610863 199.313039 
L 369.720414 183.499787 
L 373.829965 155.47905 
L 377.939517 184.635424 
L 382.049068 177.05596 
L 386.158619 148.180049 
L 390.26817 142.707726 
L 394.377722 136.944571 
L 398.487273 158.174191 
" style="fill:none;stroke:#1f77b4;stroke-linecap:square;stroke-width:1.5;"/>
   </g>
   <g id="line2d_20">
    <path clip-path="url(#p06d4a53e3e)" d="M 73.832727 265.829174 
L 77.942278 265.829174 
L 82.05183 265.829174 
L 86.161381 265.829174 
L 90.270932 265.829174 
L 94.380483 265.829174 
L 98.490035 265.829174 
L 102.599586 265.829174 
L 106.709137 265.829174 
L 110.818688 265.829174 
L 114.928239 265.829174 
L 119.037791 265.829174 
L 123.147342 265.829174 
L 127.256893 265.829174 
L 131.366444 265.829174 
L 135.475995 264.457319 
L 139.585547 263.231718 
L 143.695098 264.010955 
L 147.804649 264.556421 
L 151.9142 264.022646 
L 156.023751 264.564604 
L 160.133303 263.25035 
L 164.242854 264.023998 
L 168.352405 259.520443 
L 172.461956 253.378838 
L 176.571507 256.415817 
L 180.681059 252.284827 
L 184.79061 256.348131 
L 188.900161 256.183659 
L 193.009712 259.077313 
L 197.119264 261.102872 
L 201.228815 244.669408 
L 205.338366 236.844046 
L 209.447917 228.452071 
L 213.557468 224.832222 
L 217.66702 227.630465 
L 221.776571 226.768714 
L 225.886122 227.320511 
L 229.995673 222.476126 
L 234.105224 233.768741 
L 238.214776 234.332361 
L 242.324327 223.921041 
L 246.433878 231.665423 
L 250.543429 231.320294 
L 254.65298 207.665474 
L 258.762532 210.228494 
L 262.872083 197.426959 
L 266.981634 188.830297 
L 271.091185 166.422797 
L 275.200736 187.568348 
L 279.310288 191.681758 
L 283.419839 194.998555 
L 287.52939 209.622817 
L 291.638941 192.645082 
L 295.748493 194.187064 
L 299.858044 184.161058 
L 303.967595 166.083964 
L 308.077146 169.282163 
L 312.186697 140.926806 
L 316.296249 140.918563 
L 320.4058 144.095935 
L 324.515351 152.804315 
L 328.624902 164.595545 
L 332.734453 167.225913 
L 336.844005 177.920275 
L 340.953556 182.426183 
L 345.063107 195.099798 
L 349.172658 190.118945 
L 353.282209 197.137651 
L 357.391761 175.417861 
L 361.501312 174.180278 
L 365.610863 170.91821 
L 369.720414 147.593815 
L 373.829965 144.194838 
L 377.939517 136.003932 
L 382.049068 128.293966 
L 386.158619 151.963593 
L 390.26817 142.899697 
L 394.377722 155.164124 
L 398.487273 166.550487 
" style="fill:none;stroke:#ff7f0e;stroke-linecap:square;stroke-width:1.5;"/>
   </g>
   <g id="line2d_21">
    <path clip-path="url(#p06d4a53e3e)" d="M 73.832727 265.829174 
L 77.942278 265.829174 
L 82.05183 265.829174 
L 86.161381 265.829174 
L 90.270932 265.829174 
L 94.380483 265.829174 
L 98.490035 265.829174 
L 102.599586 265.829174 
L 106.709137 265.829174 
L 110.818688 265.829174 
L 114.928239 265.829174 
L 119.037791 265.829174 
L 123.147342 265.829174 
L 127.256893 265.829174 
L 131.366444 265.829174 
L 135.475995 265.829174 
L 139.585547 265.829174 
L 143.695098 265.829174 
L 147.804649 265.829174 
L 151.9142 265.829174 
L 156.023751 265.829174 
L 160.133303 265.829174 
L 164.242854 265.829174 
L 168.352405 255.230361 
L 172.461956 258.410005 
L 176.571507 249.774563 
L 180.681059 248.151532 
L 184.79061 253.454825 
L 188.900161 247.453454 
L 193.009712 252.96617 
L 197.119264 243.882677 
L 201.228815 242.052375 
L 205.338366 236.539704 
L 209.447917 237.309447 
L 213.557468 235.305852 
L 217.66702 234.710317 
L 221.776571 244.045974 
L 225.886122 225.787889 
L 229.995673 219.610594 
L 234.105224 207.162698 
L 238.214776 204.675367 
L 242.324327 221.913104 
L 246.433878 225.90898 
L 250.543429 210.139762 
L 254.65298 226.846586 
L 258.762532 234.425082 
L 262.872083 241.941986 
L 266.981634 215.544599 
L 271.091185 201.467651 
L 275.200736 211.403867 
L 279.310288 203.398794 
L 283.419839 184.647686 
L 287.52939 195.880407 
L 291.638941 180.221338 
L 295.748493 163.85752 
L 299.858044 159.888678 
L 303.967595 156.693559 
L 308.077146 144.203691 
L 312.186697 155.647127 
L 316.296249 157.953503 
L 320.4058 160.12064 
L 324.515351 146.888259 
L 328.624902 148.566583 
L 332.734453 159.234027 
L 336.844005 170.762124 
L 340.953556 159.640733 
L 345.063107 183.07348 
L 349.172658 187.659054 
L 353.282209 174.45521 
L 357.391761 159.556725 
L 361.501312 173.344344 
L 365.610863 177.748786 
L 369.720414 166.900536 
L 373.829965 167.090436 
L 377.939517 156.898887 
L 382.049068 158.316829 
L 386.158619 159.102026 
L 390.26817 164.103974 
L 394.377722 161.565518 
L 398.487273 157.385082 
" style="fill:none;stroke:#2ca02c;stroke-linecap:square;stroke-width:1.5;"/>
   </g>
   <g id="line2d_22">
    <path clip-path="url(#p06d4a53e3e)" d="M 73.832727 265.829174 
L 77.942278 265.829174 
L 82.05183 265.829174 
L 86.161381 265.829174 
L 90.270932 265.829174 
L 94.380483 265.829174 
L 98.490035 265.829174 
L 102.599586 265.829174 
L 106.709137 265.829174 
L 110.818688 265.829174 
L 114.928239 265.829174 
L 119.037791 265.829174 
L 123.147342 265.829174 
L 127.256893 265.829174 
L 131.366444 265.829174 
L 135.475995 265.829174 
L 139.585547 265.829174 
L 143.695098 265.829174 
L 147.804649 265.829174 
L 151.9142 265.829174 
L 156.023751 265.829174 
L 160.133303 265.829174 
L 164.242854 259.385209 
L 168.352405 261.318398 
L 172.461956 252.072258 
L 176.571507 246.94427 
L 180.681059 242.501475 
L 184.79061 249.499785 
L 188.900161 238.54244 
L 193.009712 231.485856 
L 197.119264 225.480454 
L 201.228815 225.09055 
L 205.338366 220.849917 
L 209.447917 209.786273 
L 213.557468 203.018009 
L 217.66702 211.409193 
L 221.776571 214.27326 
L 225.886122 208.832073 
L 229.995673 200.155097 
L 234.105224 213.0408 
L 238.214776 201.351507 
L 242.324327 180.533229 
L 246.433878 177.638527 
L 250.543429 176.149476 
L 254.65298 176.210421 
L 258.762532 166.012003 
L 262.872083 155.02975 
L 266.981634 146.484595 
L 271.091185 150.805165 
L 275.200736 154.006636 
L 279.310288 160.80189 
L 283.419839 159.751112 
L 287.52939 157.671525 
L 291.638941 162.364987 
L 295.748493 153.667191 
L 299.858044 150.001077 
L 303.967595 143.035613 
L 308.077146 132.64997 
L 312.186697 124.193713 
L 316.296249 126.613851 
L 320.4058 122.045558 
L 324.515351 105.527858 
L 328.624902 104.779268 
L 332.734453 90.914687 
L 336.844005 90.143803 
L 340.953556 97.914901 
L 345.063107 96.333131 
L 349.172658 122.734785 
L 353.282209 109.008245 
L 357.391761 106.022048 
L 361.501312 110.540672 
L 365.610863 105.029666 
L 369.720414 118.697644 
L 373.829965 115.699054 
L 377.939517 106.63323 
L 382.049068 89.171172 
L 386.158619 93.421078 
L 390.26817 99.915918 
L 394.377722 97.953252 
L 398.487273 79.967245 
" style="fill:none;stroke:#d62728;stroke-linecap:square;stroke-width:1.5;"/>
   </g>
   <g id="patch_3">
    <path d="M 57.6 307.584 
L 57.6 41.472 
" style="fill:none;stroke:#000000;stroke-linecap:square;stroke-linejoin:miter;stroke-width:0.8;"/>
   </g>
   <g id="patch_4">
    <path d="M 414.72 307.584 
L 414.72 41.472 
" style="fill:none;stroke:#000000;stroke-linecap:square;stroke-linejoin:miter;stroke-width:0.8;"/>
   </g>
   <g id="patch_5">
    <path d="M 57.6 307.584 
L 414.72 307.584 
" style="fill:none;stroke:#000000;stroke-linecap:square;stroke-linejoin:miter;stroke-width:0.8;"/>
   </g>
   <g id="patch_6">
    <path d="M 57.6 41.472 
L 414.72 41.472 
" style="fill:none;stroke:#000000;stroke-linecap:square;stroke-linejoin:miter;stroke-width:0.8;"/>
   </g>
   <g id="legend_1">
    <g id="patch_7">
     <path d="M 64.6 108.1845 
L 172.840625 108.1845 
Q 174.840625 108.1845 174.840625 106.1845 
L 174.840625 48.472 
Q 174.840625 46.472 172.840625 46.472 
L 64.6 46.472 
Q 62.6 46.472 62.6 48.472 
L 62.6 106.1845 
Q 62.6 108.1845 64.6 108.1845 
z
" style="fill:#ffffff;opacity:0.8;stroke:#cccccc;stroke-linejoin:miter;"/>
    </g>
    <g id="line2d_23">
     <path d="M 66.6 54.570438 
L 86.6 54.570438 
" style="fill:none;stroke:#1f77b4;stroke-linecap:square;stroke-width:1.5;"/>
    </g>
    <g id="line2d_24"/>
    <g id="text_19">
     <!-- DQN -->
     <g transform="translate(94.6 58.070438)scale(0.1 -0.1)">
      <defs>
       <path d="M 1259 4147 
L 1259 519 
L 2022 519 
Q 2988 519 3436 956 
Q 3884 1394 3884 2338 
Q 3884 3275 3436 3711 
Q 2988 4147 2022 4147 
L 1259 4147 
z
M 628 4666 
L 1925 4666 
Q 3281 4666 3915 4102 
Q 4550 3538 4550 2338 
Q 4550 1131 3912 565 
Q 3275 0 1925 0 
L 628 0 
L 628 4666 
z
" id="DejaVuSans-44" transform="scale(0.015625)"/>
       <path d="M 2522 4238 
Q 1834 4238 1429 3725 
Q 1025 3213 1025 2328 
Q 1025 1447 1429 934 
Q 1834 422 2522 422 
Q 3209 422 3611 934 
Q 4013 1447 4013 2328 
Q 4013 3213 3611 3725 
Q 3209 4238 2522 4238 
z
M 3406 84 
L 4238 -825 
L 3475 -825 
L 2784 -78 
Q 2681 -84 2626 -87 
Q 2572 -91 2522 -91 
Q 1538 -91 948 567 
Q 359 1225 359 2328 
Q 359 3434 948 4092 
Q 1538 4750 2522 4750 
Q 3503 4750 4090 4092 
Q 4678 3434 4678 2328 
Q 4678 1516 4351 937 
Q 4025 359 3406 84 
z
" id="DejaVuSans-51" transform="scale(0.015625)"/>
       <path d="M 628 4666 
L 1478 4666 
L 3547 763 
L 3547 4666 
L 4159 4666 
L 4159 0 
L 3309 0 
L 1241 3903 
L 1241 0 
L 628 0 
L 628 4666 
z
" id="DejaVuSans-4e" transform="scale(0.015625)"/>
      </defs>
      <use xlink:href="#DejaVuSans-44"/>
      <use x="77.001953" xlink:href="#DejaVuSans-51"/>
      <use x="155.712891" xlink:href="#DejaVuSans-4e"/>
     </g>
    </g>
    <g id="line2d_25">
     <path d="M 66.6 69.248563 
L 86.6 69.248563 
" style="fill:none;stroke:#ff7f0e;stroke-linecap:square;stroke-width:1.5;"/>
    </g>
    <g id="line2d_26"/>
    <g id="text_20">
     <!-- BackwardDQN -->
     <g transform="translate(94.6 72.748563)scale(0.1 -0.1)">
      <defs>
       <path d="M 1259 2228 
L 1259 519 
L 2272 519 
Q 2781 519 3026 730 
Q 3272 941 3272 1375 
Q 3272 1813 3026 2020 
Q 2781 2228 2272 2228 
L 1259 2228 
z
M 1259 4147 
L 1259 2741 
L 2194 2741 
Q 2656 2741 2882 2914 
Q 3109 3088 3109 3444 
Q 3109 3797 2882 3972 
Q 2656 4147 2194 4147 
L 1259 4147 
z
M 628 4666 
L 2241 4666 
Q 2963 4666 3353 4366 
Q 3744 4066 3744 3513 
Q 3744 3084 3544 2831 
Q 3344 2578 2956 2516 
Q 3422 2416 3680 2098 
Q 3938 1781 3938 1306 
Q 3938 681 3513 340 
Q 3088 0 2303 0 
L 628 0 
L 628 4666 
z
" id="DejaVuSans-42" transform="scale(0.015625)"/>
       <path d="M 2194 1759 
Q 1497 1759 1228 1600 
Q 959 1441 959 1056 
Q 959 750 1161 570 
Q 1363 391 1709 391 
Q 2188 391 2477 730 
Q 2766 1069 2766 1631 
L 2766 1759 
L 2194 1759 
z
M 3341 1997 
L 3341 0 
L 2766 0 
L 2766 531 
Q 2569 213 2275 61 
Q 1981 -91 1556 -91 
Q 1019 -91 701 211 
Q 384 513 384 1019 
Q 384 1609 779 1909 
Q 1175 2209 1959 2209 
L 2766 2209 
L 2766 2266 
Q 2766 2663 2505 2880 
Q 2244 3097 1772 3097 
Q 1472 3097 1187 3025 
Q 903 2953 641 2809 
L 641 3341 
Q 956 3463 1253 3523 
Q 1550 3584 1831 3584 
Q 2591 3584 2966 3190 
Q 3341 2797 3341 1997 
z
" id="DejaVuSans-61" transform="scale(0.015625)"/>
       <path d="M 3122 3366 
L 3122 2828 
Q 2878 2963 2633 3030 
Q 2388 3097 2138 3097 
Q 1578 3097 1268 2742 
Q 959 2388 959 1747 
Q 959 1106 1268 751 
Q 1578 397 2138 397 
Q 2388 397 2633 464 
Q 2878 531 3122 666 
L 3122 134 
Q 2881 22 2623 -34 
Q 2366 -91 2075 -91 
Q 1284 -91 818 406 
Q 353 903 353 1747 
Q 353 2603 823 3093 
Q 1294 3584 2113 3584 
Q 2378 3584 2631 3529 
Q 2884 3475 3122 3366 
z
" id="DejaVuSans-63" transform="scale(0.015625)"/>
       <path d="M 581 4863 
L 1159 4863 
L 1159 1991 
L 2875 3500 
L 3609 3500 
L 1753 1863 
L 3688 0 
L 2938 0 
L 1159 1709 
L 1159 0 
L 581 0 
L 581 4863 
z
" id="DejaVuSans-6b" transform="scale(0.015625)"/>
       <path d="M 269 3500 
L 844 3500 
L 1563 769 
L 2278 3500 
L 2956 3500 
L 3675 769 
L 4391 3500 
L 4966 3500 
L 4050 0 
L 3372 0 
L 2619 2869 
L 1863 0 
L 1184 0 
L 269 3500 
z
" id="DejaVuSans-77" transform="scale(0.015625)"/>
       <path d="M 2631 2963 
Q 2534 3019 2420 3045 
Q 2306 3072 2169 3072 
Q 1681 3072 1420 2755 
Q 1159 2438 1159 1844 
L 1159 0 
L 581 0 
L 581 3500 
L 1159 3500 
L 1159 2956 
Q 1341 3275 1631 3429 
Q 1922 3584 2338 3584 
Q 2397 3584 2469 3576 
Q 2541 3569 2628 3553 
L 2631 2963 
z
" id="DejaVuSans-72" transform="scale(0.015625)"/>
       <path d="M 2906 2969 
L 2906 4863 
L 3481 4863 
L 3481 0 
L 2906 0 
L 2906 525 
Q 2725 213 2448 61 
Q 2172 -91 1784 -91 
Q 1150 -91 751 415 
Q 353 922 353 1747 
Q 353 2572 751 3078 
Q 1150 3584 1784 3584 
Q 2172 3584 2448 3432 
Q 2725 3281 2906 2969 
z
M 947 1747 
Q 947 1113 1208 752 
Q 1469 391 1925 391 
Q 2381 391 2643 752 
Q 2906 1113 2906 1747 
Q 2906 2381 2643 2742 
Q 2381 3103 1925 3103 
Q 1469 3103 1208 2742 
Q 947 2381 947 1747 
z
" id="DejaVuSans-64" transform="scale(0.015625)"/>
      </defs>
      <use xlink:href="#DejaVuSans-42"/>
      <use x="68.603516" xlink:href="#DejaVuSans-61"/>
      <use x="129.882812" xlink:href="#DejaVuSans-63"/>
      <use x="184.863281" xlink:href="#DejaVuSans-6b"/>
      <use x="242.773438" xlink:href="#DejaVuSans-77"/>
      <use x="324.560547" xlink:href="#DejaVuSans-61"/>
      <use x="385.839844" xlink:href="#DejaVuSans-72"/>
      <use x="425.203125" xlink:href="#DejaVuSans-64"/>
      <use x="488.679688" xlink:href="#DejaVuSans-44"/>
      <use x="565.681641" xlink:href="#DejaVuSans-51"/>
      <use x="644.392578" xlink:href="#DejaVuSans-4e"/>
     </g>
    </g>
    <g id="line2d_27">
     <path d="M 66.6 83.926688 
L 86.6 83.926688 
" style="fill:none;stroke:#2ca02c;stroke-linecap:square;stroke-width:1.5;"/>
    </g>
    <g id="line2d_28"/>
    <g id="text_21">
     <!-- MultiBatchDQN -->
     <g transform="translate(94.6 87.426688)scale(0.1 -0.1)">
      <defs>
       <path d="M 628 4666 
L 1569 4666 
L 2759 1491 
L 3956 4666 
L 4897 4666 
L 4897 0 
L 4281 0 
L 4281 4097 
L 3078 897 
L 2444 897 
L 1241 4097 
L 1241 0 
L 628 0 
L 628 4666 
z
" id="DejaVuSans-4d" transform="scale(0.015625)"/>
       <path d="M 544 1381 
L 544 3500 
L 1119 3500 
L 1119 1403 
Q 1119 906 1312 657 
Q 1506 409 1894 409 
Q 2359 409 2629 706 
Q 2900 1003 2900 1516 
L 2900 3500 
L 3475 3500 
L 3475 0 
L 2900 0 
L 2900 538 
Q 2691 219 2414 64 
Q 2138 -91 1772 -91 
Q 1169 -91 856 284 
Q 544 659 544 1381 
z
M 1991 3584 
L 1991 3584 
z
" id="DejaVuSans-75" transform="scale(0.015625)"/>
       <path d="M 603 4863 
L 1178 4863 
L 1178 0 
L 603 0 
L 603 4863 
z
" id="DejaVuSans-6c" transform="scale(0.015625)"/>
       <path d="M 1172 4494 
L 1172 3500 
L 2356 3500 
L 2356 3053 
L 1172 3053 
L 1172 1153 
Q 1172 725 1289 603 
Q 1406 481 1766 481 
L 2356 481 
L 2356 0 
L 1766 0 
Q 1100 0 847 248 
Q 594 497 594 1153 
L 594 3053 
L 172 3053 
L 172 3500 
L 594 3500 
L 594 4494 
L 1172 4494 
z
" id="DejaVuSans-74" transform="scale(0.015625)"/>
       <path d="M 603 3500 
L 1178 3500 
L 1178 0 
L 603 0 
L 603 3500 
z
M 603 4863 
L 1178 4863 
L 1178 4134 
L 603 4134 
L 603 4863 
z
" id="DejaVuSans-69" transform="scale(0.015625)"/>
       <path d="M 3513 2113 
L 3513 0 
L 2938 0 
L 2938 2094 
Q 2938 2591 2744 2837 
Q 2550 3084 2163 3084 
Q 1697 3084 1428 2787 
Q 1159 2491 1159 1978 
L 1159 0 
L 581 0 
L 581 4863 
L 1159 4863 
L 1159 2956 
Q 1366 3272 1645 3428 
Q 1925 3584 2291 3584 
Q 2894 3584 3203 3211 
Q 3513 2838 3513 2113 
z
" id="DejaVuSans-68" transform="scale(0.015625)"/>
      </defs>
      <use xlink:href="#DejaVuSans-4d"/>
      <use x="86.279297" xlink:href="#DejaVuSans-75"/>
      <use x="149.658203" xlink:href="#DejaVuSans-6c"/>
      <use x="177.441406" xlink:href="#DejaVuSans-74"/>
      <use x="216.650391" xlink:href="#DejaVuSans-69"/>
      <use x="244.433594" xlink:href="#DejaVuSans-42"/>
      <use x="313.037109" xlink:href="#DejaVuSans-61"/>
      <use x="374.316406" xlink:href="#DejaVuSans-74"/>
      <use x="413.525391" xlink:href="#DejaVuSans-63"/>
      <use x="468.505859" xlink:href="#DejaVuSans-68"/>
      <use x="531.884766" xlink:href="#DejaVuSans-44"/>
      <use x="608.886719" xlink:href="#DejaVuSans-51"/>
      <use x="687.597656" xlink:href="#DejaVuSans-4e"/>
     </g>
    </g>
    <g id="line2d_29">
     <path d="M 66.6 98.604813 
L 86.6 98.604813 
" style="fill:none;stroke:#d62728;stroke-linecap:square;stroke-width:1.5;"/>
    </g>
    <g id="line2d_30"/>
    <g id="text_22">
     <!-- DQBS -->
     <g transform="translate(94.6 102.104813)scale(0.1 -0.1)">
      <defs>
       <path d="M 3425 4513 
L 3425 3897 
Q 3066 4069 2747 4153 
Q 2428 4238 2131 4238 
Q 1616 4238 1336 4038 
Q 1056 3838 1056 3469 
Q 1056 3159 1242 3001 
Q 1428 2844 1947 2747 
L 2328 2669 
Q 3034 2534 3370 2195 
Q 3706 1856 3706 1288 
Q 3706 609 3251 259 
Q 2797 -91 1919 -91 
Q 1588 -91 1214 -16 
Q 841 59 441 206 
L 441 856 
Q 825 641 1194 531 
Q 1563 422 1919 422 
Q 2459 422 2753 634 
Q 3047 847 3047 1241 
Q 3047 1584 2836 1778 
Q 2625 1972 2144 2069 
L 1759 2144 
Q 1053 2284 737 2584 
Q 422 2884 422 3419 
Q 422 4038 858 4394 
Q 1294 4750 2059 4750 
Q 2388 4750 2728 4690 
Q 3069 4631 3425 4513 
z
" id="DejaVuSans-53" transform="scale(0.015625)"/>
      </defs>
      <use xlink:href="#DejaVuSans-44"/>
      <use x="77.001953" xlink:href="#DejaVuSans-51"/>
      <use x="155.712891" xlink:href="#DejaVuSans-42"/>
      <use x="222.566406" xlink:href="#DejaVuSans-53"/>
     </g>
    </g>
   </g>
  </g>
 </g>
 <defs>
  <clipPath id="p06d4a53e3e">
   <rect height="266.112" width="357.12" x="57.6" y="41.472"/>
  </clipPath>
 </defs>
</svg>
