<?xml version="1.0" encoding="utf-8" standalone="no"?>
<!DOCTYPE svg PUBLIC "-//W3C//DTD SVG 1.1//EN"
  "http://www.w3.org/Graphics/SVG/1.1/DTD/svg11.dtd">
<svg height="345.6pt" version="1.1" viewBox="0 0 460.8 345.6" width="460.8pt" xmlns="http://www.w3.org/2000/svg" xmlns:xlink="http://www.w3.org/1999/xlink">
 <metadata>
  <rdf:RDF xmlns:cc="http://creativecommons.org/ns#" xmlns:dc="http://purl.org/dc/elements/1.1/" xmlns:rdf="http://www.w3.org/1999/02/22-rdf-syntax-ns#">
   <cc:Work>
    <dc:type rdf:resource="http://purl.org/dc/dcmitype/StillImage"/>
    <dc:date>2022-01-03T11:57:06.561027</dc:date>
    <dc:format>image/svg+xml</dc:format>
    <dc:creator>
     <cc:Agent>
      <dc:title>Matplotlib v3.4.3, https://matplotlib.org/</dc:title>
     </cc:Agent>
    </dc:creator>
   </cc:Work>
  </rdf:RDF>
 </metadata>
 <defs>
  <style type="text/css">*{stroke-linecap:butt;stroke-linejoin:round;}</style>
 </defs>
 <g id="figure_1">
  <g id="patch_1">
   <path d="M 0 345.6 
L 460.8 345.6 
L 460.8 0 
L 0 0 
z
" style="fill:#ffffff;"/>
  </g>
  <g id="axes_1">
   <g id="patch_2">
    <path d="M 57.6 307.584 
L 414.72 307.584 
L 414.72 41.472 
L 57.6 41.472 
z
" style="fill:#ffffff;"/>
   </g>
   <g id="PolyCollection_1">
    <path clip-path="url(#pbd8e715f31)" d="M 73.832727 287.44769 
L 73.832727 287.44769 
L 82.157203 287.514696 
L 90.481678 295.488 
L 98.806154 290.62331 
L 107.130629 282.178266 
L 115.455105 275.662807 
L 123.77958 272.724121 
L 132.104056 266.340296 
L 140.428531 266.317741 
L 148.753007 250.410861 
L 157.077483 228.758413 
L 165.401958 214.0384 
L 173.726434 181.603512 
L 182.050909 175.506744 
L 190.375385 177.456075 
L 198.69986 156.51662 
L 207.024336 153.541611 
L 215.348811 155.922996 
L 223.673287 144.892139 
L 231.997762 134.024101 
L 240.322238 137.752704 
L 248.646713 135.082626 
L 256.971189 133.362203 
L 265.295664 143.845242 
L 273.62014 153.91018 
L 281.944615 151.063332 
L 290.269091 134.960628 
L 298.593566 130.293217 
L 306.918042 133.1349 
L 315.242517 125.496004 
L 323.566993 124.365168 
L 331.891469 119.173149 
L 340.215944 105.444967 
L 348.54042 108.0993 
L 356.864895 108.18128 
L 365.189371 109.021611 
L 373.513846 103.886594 
L 381.838322 96.300168 
L 390.162797 96.414697 
L 398.487273 100.737256 
L 398.487273 100.737256 
L 398.487273 59.692387 
L 390.162797 60.957565 
L 381.838322 64.189764 
L 373.513846 66.179501 
L 365.189371 68.107669 
L 356.864895 72.543721 
L 348.54042 67.745407 
L 340.215944 72.312885 
L 331.891469 76.801445 
L 323.566993 85.203927 
L 315.242517 95.24703 
L 306.918042 101.921719 
L 298.593566 87.98669 
L 290.269091 92.13508 
L 281.944615 96.548094 
L 273.62014 99.578099 
L 265.295664 102.343464 
L 256.971189 97.23867 
L 248.646713 101.770694 
L 240.322238 104.622756 
L 231.997762 111.892573 
L 223.673287 114.813962 
L 215.348811 106.194482 
L 207.024336 108.880416 
L 198.69986 113.605316 
L 190.375385 112.311737 
L 182.050909 115.578721 
L 173.726434 123.521758 
L 165.401958 111.798506 
L 157.077483 123.878314 
L 148.753007 132.370446 
L 140.428531 143.382253 
L 132.104056 160.133999 
L 123.77958 178.69438 
L 115.455105 212.836982 
L 107.130629 247.144424 
L 98.806154 257.59515 
L 90.481678 263.315051 
L 82.157203 287.179658 
L 73.832727 287.06016 
z
" style="fill:#1f77b4;fill-opacity:0.3;"/>
   </g>
   <g id="PolyCollection_2">
    <path clip-path="url(#pbd8e715f31)" d="M 73.832727 287.44769 
L 73.832727 287.44769 
L 82.157203 287.93955 
L 90.481678 293.375386 
L 98.806154 279.588818 
L 107.130629 286.015559 
L 115.455105 272.243441 
L 123.77958 254.893813 
L 132.104056 231.898665 
L 140.428531 212.013383 
L 148.753007 201.650208 
L 157.077483 201.900242 
L 165.401958 187.66112 
L 173.726434 167.483814 
L 182.050909 160.211605 
L 190.375385 149.76916 
L 198.69986 141.209209 
L 207.024336 134.862819 
L 215.348811 138.853582 
L 223.673287 152.552994 
L 231.997762 149.555685 
L 240.322238 188.266671 
L 248.646713 198.697733 
L 256.971189 188.896519 
L 265.295664 179.792598 
L 273.62014 173.720535 
L 281.944615 190.526501 
L 290.269091 178.440071 
L 298.593566 167.088561 
L 306.918042 160.962785 
L 315.242517 147.579936 
L 323.566993 160.567159 
L 331.891469 162.278764 
L 340.215944 177.584484 
L 348.54042 173.237734 
L 356.864895 159.788523 
L 365.189371 161.089805 
L 373.513846 157.421536 
L 381.838322 149.317576 
L 390.162797 160.989115 
L 398.487273 177.770488 
L 398.487273 177.770488 
L 398.487273 134.184538 
L 390.162797 118.077603 
L 381.838322 95.669595 
L 373.513846 81.138445 
L 365.189371 81.858036 
L 356.864895 84.403602 
L 348.54042 95.459049 
L 340.215944 77.543712 
L 331.891469 77.668836 
L 323.566993 85.870781 
L 315.242517 96.710197 
L 306.918042 111.217834 
L 298.593566 116.717729 
L 290.269091 105.892426 
L 281.944615 116.552389 
L 273.62014 117.628031 
L 265.295664 124.336447 
L 256.971189 132.183017 
L 248.646713 121.584429 
L 240.322238 127.548957 
L 231.997762 114.113112 
L 223.673287 121.226808 
L 215.348811 108.329613 
L 207.024336 103.593897 
L 198.69986 121.712833 
L 190.375385 128.996353 
L 182.050909 139.191749 
L 173.726434 149.290507 
L 165.401958 154.524437 
L 157.077483 161.815493 
L 148.753007 178.092755 
L 140.428531 185.321763 
L 132.104056 194.356798 
L 123.77958 205.029358 
L 115.455105 217.113362 
L 107.130629 228.895229 
L 98.806154 253.052266 
L 90.481678 260.216745 
L 82.157203 283.665169 
L 73.832727 287.06016 
z
" style="fill:#ff7f0e;fill-opacity:0.3;"/>
   </g>
   <g id="PolyCollection_3">
    <path clip-path="url(#pbd8e715f31)" d="M 73.832727 287.44769 
L 73.832727 287.44769 
L 82.157203 290.813393 
L 90.481678 282.448806 
L 98.806154 266.172241 
L 107.130629 251.132993 
L 115.455105 222.254644 
L 123.77958 190.314219 
L 132.104056 181.2689 
L 140.428531 175.459135 
L 148.753007 173.759127 
L 157.077483 173.27589 
L 165.401958 164.890223 
L 173.726434 160.675983 
L 182.050909 156.208508 
L 190.375385 161.993602 
L 198.69986 161.305638 
L 207.024336 144.168996 
L 215.348811 164.027057 
L 223.673287 161.696837 
L 231.997762 164.833698 
L 240.322238 172.089946 
L 248.646713 167.965154 
L 256.971189 156.981374 
L 265.295664 164.223247 
L 273.62014 162.219463 
L 281.944615 149.286425 
L 290.269091 148.925568 
L 298.593566 147.520052 
L 306.918042 142.094429 
L 315.242517 132.939778 
L 323.566993 131.224263 
L 331.891469 123.427322 
L 340.215944 132.710228 
L 348.54042 148.824997 
L 356.864895 139.322675 
L 365.189371 132.436725 
L 373.513846 123.999767 
L 381.838322 120.427655 
L 390.162797 120.14961 
L 398.487273 115.273443 
L 398.487273 115.273443 
L 398.487273 84.518901 
L 390.162797 78.690713 
L 381.838322 76.434673 
L 373.513846 85.956557 
L 365.189371 84.099065 
L 356.864895 96.438388 
L 348.54042 106.938586 
L 340.215944 93.189517 
L 331.891469 78.031355 
L 323.566993 73.19232 
L 315.242517 74.591955 
L 306.918042 83.82583 
L 298.593566 88.534832 
L 290.269091 92.131621 
L 281.944615 93.514084 
L 273.62014 102.608294 
L 265.295664 98.572048 
L 256.971189 104.312807 
L 248.646713 96.311367 
L 240.322238 104.107956 
L 231.997762 103.329846 
L 223.673287 100.577001 
L 215.348811 86.575187 
L 207.024336 92.489568 
L 198.69986 92.319466 
L 190.375385 92.567013 
L 182.050909 82.459927 
L 173.726434 85.982998 
L 165.401958 88.392751 
L 157.077483 90.840406 
L 148.753007 88.039278 
L 140.428531 102.551008 
L 132.104056 99.851078 
L 123.77958 113.178919 
L 115.455105 131.186596 
L 107.130629 160.150654 
L 98.806154 193.549982 
L 90.481678 223.755165 
L 82.157203 271.276752 
L 73.832727 287.06016 
z
" style="fill:#2ca02c;fill-opacity:0.3;"/>
   </g>
   <g id="PolyCollection_4">
    <path clip-path="url(#pbd8e715f31)" d="M 73.832727 287.44769 
L 73.832727 287.44769 
L 82.157203 287.543175 
L 90.481678 287.629327 
L 98.806154 288.007119 
L 107.130629 285.098138 
L 115.455105 270.924486 
L 123.77958 259.190806 
L 132.104056 237.321261 
L 140.428531 208.074171 
L 148.753007 201.108908 
L 157.077483 190.311436 
L 165.401958 189.340792 
L 173.726434 180.612175 
L 182.050909 165.201432 
L 190.375385 134.60025 
L 198.69986 120.815471 
L 207.024336 108.06883 
L 215.348811 98.149401 
L 223.673287 99.954649 
L 231.997762 90.279209 
L 240.322238 82.024646 
L 248.646713 76.246452 
L 256.971189 73.414043 
L 265.295664 70.21903 
L 273.62014 69.832612 
L 281.944615 67.712029 
L 290.269091 66.22762 
L 298.593566 66.58883 
L 306.918042 65.441381 
L 315.242517 64.638167 
L 323.566993 64.075917 
L 331.891469 69.462131 
L 340.215944 85.673245 
L 348.54042 91.661603 
L 356.864895 85.375246 
L 365.189371 78.591872 
L 373.513846 79.150953 
L 381.838322 74.823726 
L 390.162797 72.04781 
L 398.487273 69.262667 
L 398.487273 69.262667 
L 398.487273 62.686938 
L 390.162797 62.653911 
L 381.838322 60.612107 
L 373.513846 58.079663 
L 365.189371 57.701962 
L 356.864895 55.532517 
L 348.54042 53.568 
L 340.215944 55.750819 
L 331.891469 61.416324 
L 323.566993 63.234706 
L 315.242517 63.436437 
L 306.918042 63.724624 
L 298.593566 64.13632 
L 290.269091 64.915326 
L 281.944615 65.837323 
L 273.62014 67.154461 
L 265.295664 67.327369 
L 256.971189 69.283098 
L 248.646713 70.211134 
L 240.322238 73.402763 
L 231.997762 77.962233 
L 223.673287 84.010968 
L 215.348811 78.066072 
L 207.024336 76.662996 
L 198.69986 80.998313 
L 190.375385 86.051959 
L 182.050909 92.944624 
L 173.726434 100.571197 
L 165.401958 114.855672 
L 157.077483 133.186454 
L 148.753007 137.610223 
L 140.428531 156.842591 
L 132.104056 165.734478 
L 123.77958 189.922859 
L 115.455105 222.80273 
L 107.130629 265.233154 
L 98.806154 284.004631 
L 90.481678 286.8451 
L 82.157203 287.182253 
L 73.832727 287.06016 
z
" style="fill:#d62728;fill-opacity:0.3;"/>
   </g>
   <g id="matplotlib.axis_1">
    <g id="xtick_1">
     <g id="line2d_1">
      <defs>
       <path d="M 0 0 
L 0 3.5 
" id="m218f7c9d34" style="stroke:#000000;stroke-width:0.8;"/>
      </defs>
      <g>
       <use style="stroke:#000000;stroke-width:0.8;" x="65.508252" xlink:href="#m218f7c9d34" y="307.584"/>
      </g>
     </g>
     <g id="text_1">
      <!-- 0 -->
      <g transform="translate(62.327002 322.182437)scale(0.1 -0.1)">
       <defs>
        <path d="M 2034 4250 
Q 1547 4250 1301 3770 
Q 1056 3291 1056 2328 
Q 1056 1369 1301 889 
Q 1547 409 2034 409 
Q 2525 409 2770 889 
Q 3016 1369 3016 2328 
Q 3016 3291 2770 3770 
Q 2525 4250 2034 4250 
z
M 2034 4750 
Q 2819 4750 3233 4129 
Q 3647 3509 3647 2328 
Q 3647 1150 3233 529 
Q 2819 -91 2034 -91 
Q 1250 -91 836 529 
Q 422 1150 422 2328 
Q 422 3509 836 4129 
Q 1250 4750 2034 4750 
z
" id="DejaVuSans-30" transform="scale(0.015625)"/>
       </defs>
       <use xlink:href="#DejaVuSans-30"/>
      </g>
     </g>
    </g>
    <g id="xtick_2">
     <g id="line2d_2">
      <g>
       <use style="stroke:#000000;stroke-width:0.8;" x="107.130629" xlink:href="#m218f7c9d34" y="307.584"/>
      </g>
     </g>
     <g id="text_2">
      <!-- 25 -->
      <g transform="translate(100.768129 322.182437)scale(0.1 -0.1)">
       <defs>
        <path d="M 1228 531 
L 3431 531 
L 3431 0 
L 469 0 
L 469 531 
Q 828 903 1448 1529 
Q 2069 2156 2228 2338 
Q 2531 2678 2651 2914 
Q 2772 3150 2772 3378 
Q 2772 3750 2511 3984 
Q 2250 4219 1831 4219 
Q 1534 4219 1204 4116 
Q 875 4013 500 3803 
L 500 4441 
Q 881 4594 1212 4672 
Q 1544 4750 1819 4750 
Q 2544 4750 2975 4387 
Q 3406 4025 3406 3419 
Q 3406 3131 3298 2873 
Q 3191 2616 2906 2266 
Q 2828 2175 2409 1742 
Q 1991 1309 1228 531 
z
" id="DejaVuSans-32" transform="scale(0.015625)"/>
        <path d="M 691 4666 
L 3169 4666 
L 3169 4134 
L 1269 4134 
L 1269 2991 
Q 1406 3038 1543 3061 
Q 1681 3084 1819 3084 
Q 2600 3084 3056 2656 
Q 3513 2228 3513 1497 
Q 3513 744 3044 326 
Q 2575 -91 1722 -91 
Q 1428 -91 1123 -41 
Q 819 9 494 109 
L 494 744 
Q 775 591 1075 516 
Q 1375 441 1709 441 
Q 2250 441 2565 725 
Q 2881 1009 2881 1497 
Q 2881 1984 2565 2268 
Q 2250 2553 1709 2553 
Q 1456 2553 1204 2497 
Q 953 2441 691 2322 
L 691 4666 
z
" id="DejaVuSans-35" transform="scale(0.015625)"/>
       </defs>
       <use xlink:href="#DejaVuSans-32"/>
       <use x="63.623047" xlink:href="#DejaVuSans-35"/>
      </g>
     </g>
    </g>
    <g id="xtick_3">
     <g id="line2d_3">
      <g>
       <use style="stroke:#000000;stroke-width:0.8;" x="148.753007" xlink:href="#m218f7c9d34" y="307.584"/>
      </g>
     </g>
     <g id="text_3">
      <!-- 50 -->
      <g transform="translate(142.390507 322.182437)scale(0.1 -0.1)">
       <use xlink:href="#DejaVuSans-35"/>
       <use x="63.623047" xlink:href="#DejaVuSans-30"/>
      </g>
     </g>
    </g>
    <g id="xtick_4">
     <g id="line2d_4">
      <g>
       <use style="stroke:#000000;stroke-width:0.8;" x="190.375385" xlink:href="#m218f7c9d34" y="307.584"/>
      </g>
     </g>
     <g id="text_4">
      <!-- 75 -->
      <g transform="translate(184.012885 322.182437)scale(0.1 -0.1)">
       <defs>
        <path d="M 525 4666 
L 3525 4666 
L 3525 4397 
L 1831 0 
L 1172 0 
L 2766 4134 
L 525 4134 
L 525 4666 
z
" id="DejaVuSans-37" transform="scale(0.015625)"/>
       </defs>
       <use xlink:href="#DejaVuSans-37"/>
       <use x="63.623047" xlink:href="#DejaVuSans-35"/>
      </g>
     </g>
    </g>
    <g id="xtick_5">
     <g id="line2d_5">
      <g>
       <use style="stroke:#000000;stroke-width:0.8;" x="231.997762" xlink:href="#m218f7c9d34" y="307.584"/>
      </g>
     </g>
     <g id="text_5">
      <!-- 100 -->
      <g transform="translate(222.454012 322.182437)scale(0.1 -0.1)">
       <defs>
        <path d="M 794 531 
L 1825 531 
L 1825 4091 
L 703 3866 
L 703 4441 
L 1819 4666 
L 2450 4666 
L 2450 531 
L 3481 531 
L 3481 0 
L 794 0 
L 794 531 
z
" id="DejaVuSans-31" transform="scale(0.015625)"/>
       </defs>
       <use xlink:href="#DejaVuSans-31"/>
       <use x="63.623047" xlink:href="#DejaVuSans-30"/>
       <use x="127.246094" xlink:href="#DejaVuSans-30"/>
      </g>
     </g>
    </g>
    <g id="xtick_6">
     <g id="line2d_6">
      <g>
       <use style="stroke:#000000;stroke-width:0.8;" x="273.62014" xlink:href="#m218f7c9d34" y="307.584"/>
      </g>
     </g>
     <g id="text_6">
      <!-- 125 -->
      <g transform="translate(264.07639 322.182437)scale(0.1 -0.1)">
       <use xlink:href="#DejaVuSans-31"/>
       <use x="63.623047" xlink:href="#DejaVuSans-32"/>
       <use x="127.246094" xlink:href="#DejaVuSans-35"/>
      </g>
     </g>
    </g>
    <g id="xtick_7">
     <g id="line2d_7">
      <g>
       <use style="stroke:#000000;stroke-width:0.8;" x="315.242517" xlink:href="#m218f7c9d34" y="307.584"/>
      </g>
     </g>
     <g id="text_7">
      <!-- 150 -->
      <g transform="translate(305.698767 322.182437)scale(0.1 -0.1)">
       <use xlink:href="#DejaVuSans-31"/>
       <use x="63.623047" xlink:href="#DejaVuSans-35"/>
       <use x="127.246094" xlink:href="#DejaVuSans-30"/>
      </g>
     </g>
    </g>
    <g id="xtick_8">
     <g id="line2d_8">
      <g>
       <use style="stroke:#000000;stroke-width:0.8;" x="356.864895" xlink:href="#m218f7c9d34" y="307.584"/>
      </g>
     </g>
     <g id="text_8">
      <!-- 175 -->
      <g transform="translate(347.321145 322.182437)scale(0.1 -0.1)">
       <use xlink:href="#DejaVuSans-31"/>
       <use x="63.623047" xlink:href="#DejaVuSans-37"/>
       <use x="127.246094" xlink:href="#DejaVuSans-35"/>
      </g>
     </g>
    </g>
    <g id="xtick_9">
     <g id="line2d_9">
      <g>
       <use style="stroke:#000000;stroke-width:0.8;" x="398.487273" xlink:href="#m218f7c9d34" y="307.584"/>
      </g>
     </g>
     <g id="text_9">
      <!-- 200 -->
      <g transform="translate(388.943523 322.182437)scale(0.1 -0.1)">
       <use xlink:href="#DejaVuSans-32"/>
       <use x="63.623047" xlink:href="#DejaVuSans-30"/>
       <use x="127.246094" xlink:href="#DejaVuSans-30"/>
      </g>
     </g>
    </g>
   </g>
   <g id="matplotlib.axis_2">
    <g id="ytick_1">
     <g id="line2d_10">
      <defs>
       <path d="M 0 0 
L -3.5 0 
" id="m4befcebe93" style="stroke:#000000;stroke-width:0.8;"/>
      </defs>
      <g>
       <use style="stroke:#000000;stroke-width:0.8;" x="57.6" xlink:href="#m4befcebe93" y="299.690044"/>
      </g>
     </g>
     <g id="text_10">
      <!-- 0 -->
      <g transform="translate(44.2375 303.489263)scale(0.1 -0.1)">
       <use xlink:href="#DejaVuSans-30"/>
      </g>
     </g>
    </g>
    <g id="ytick_2">
     <g id="line2d_11">
      <g>
       <use style="stroke:#000000;stroke-width:0.8;" x="57.6" xlink:href="#m4befcebe93" y="267.028821"/>
      </g>
     </g>
     <g id="text_11">
      <!-- 25 -->
      <g transform="translate(37.875 270.82804)scale(0.1 -0.1)">
       <use xlink:href="#DejaVuSans-32"/>
       <use x="63.623047" xlink:href="#DejaVuSans-35"/>
      </g>
     </g>
    </g>
    <g id="ytick_3">
     <g id="line2d_12">
      <g>
       <use style="stroke:#000000;stroke-width:0.8;" x="57.6" xlink:href="#m4befcebe93" y="234.367597"/>
      </g>
     </g>
     <g id="text_12">
      <!-- 50 -->
      <g transform="translate(37.875 238.166816)scale(0.1 -0.1)">
       <use xlink:href="#DejaVuSans-35"/>
       <use x="63.623047" xlink:href="#DejaVuSans-30"/>
      </g>
     </g>
    </g>
    <g id="ytick_4">
     <g id="line2d_13">
      <g>
       <use style="stroke:#000000;stroke-width:0.8;" x="57.6" xlink:href="#m4befcebe93" y="201.706374"/>
      </g>
     </g>
     <g id="text_13">
      <!-- 75 -->
      <g transform="translate(37.875 205.505593)scale(0.1 -0.1)">
       <defs>
        <path d="M 525 4666 
L 3525 4666 
L 3525 4397 
L 1831 0 
L 1172 0 
L 2766 4134 
L 525 4134 
L 525 4666 
z
" id="DejaVuSans-37" transform="scale(0.015625)"/>
       </defs>
       <use xlink:href="#DejaVuSans-37"/>
       <use x="63.623047" xlink:href="#DejaVuSans-35"/>
      </g>
     </g>
    </g>
    <g id="ytick_5">
     <g id="line2d_14">
      <g>
       <use style="stroke:#000000;stroke-width:0.8;" x="57.6" xlink:href="#m4befcebe93" y="169.04515"/>
      </g>
     </g>
     <g id="text_14">
      <!-- 100 -->
      <g transform="translate(31.5125 172.844369)scale(0.1 -0.1)">
       <use xlink:href="#DejaVuSans-31"/>
       <use x="63.623047" xlink:href="#DejaVuSans-30"/>
       <use x="127.246094" xlink:href="#DejaVuSans-30"/>
      </g>
     </g>
    </g>
    <g id="ytick_6">
     <g id="line2d_15">
      <g>
       <use style="stroke:#000000;stroke-width:0.8;" x="57.6" xlink:href="#m4befcebe93" y="136.383927"/>
      </g>
     </g>
     <g id="text_15">
      <!-- 125 -->
      <g transform="translate(31.5125 140.183146)scale(0.1 -0.1)">
       <use xlink:href="#DejaVuSans-31"/>
       <use x="63.623047" xlink:href="#DejaVuSans-32"/>
       <use x="127.246094" xlink:href="#DejaVuSans-35"/>
      </g>
     </g>
    </g>
    <g id="ytick_7">
     <g id="line2d_16">
      <g>
       <use style="stroke:#000000;stroke-width:0.8;" x="57.6" xlink:href="#m4befcebe93" y="103.722704"/>
      </g>
     </g>
     <g id="text_16">
      <!-- 150 -->
      <g transform="translate(31.5125 107.521922)scale(0.1 -0.1)">
       <use xlink:href="#DejaVuSans-31"/>
       <use x="63.623047" xlink:href="#DejaVuSans-35"/>
       <use x="127.246094" xlink:href="#DejaVuSans-30"/>
      </g>
     </g>
    </g>
    <g id="ytick_8">
     <g id="line2d_17">
      <g>
       <use style="stroke:#000000;stroke-width:0.8;" x="57.6" xlink:href="#m4befcebe93" y="71.06148"/>
      </g>
     </g>
     <g id="text_17">
      <!-- 175 -->
      <g transform="translate(31.5125 74.860699)scale(0.1 -0.1)">
       <use xlink:href="#DejaVuSans-31"/>
       <use x="63.623047" xlink:href="#DejaVuSans-37"/>
       <use x="127.246094" xlink:href="#DejaVuSans-35"/>
      </g>
     </g>
    </g>
   </g>
   <g id="line2d_18">
    <path clip-path="url(#pbd8e715f31)" d="M 73.832727 287.253925 
L 82.157203 287.347177 
L 90.481678 279.401526 
L 98.806154 274.10923 
L 107.130629 264.661345 
L 115.455105 244.249895 
L 123.77958 225.70925 
L 132.104056 213.237148 
L 140.428531 204.849997 
L 148.753007 191.390654 
L 157.077483 176.318363 
L 165.401958 162.918453 
L 173.726434 152.562635 
L 182.050909 145.542733 
L 190.375385 144.883906 
L 198.69986 135.060968 
L 207.024336 131.211014 
L 215.348811 131.058739 
L 223.673287 129.853051 
L 231.997762 122.958337 
L 240.322238 121.18773 
L 248.646713 118.42666 
L 256.971189 115.300437 
L 265.295664 123.094353 
L 273.62014 126.74414 
L 281.944615 123.805713 
L 290.269091 113.547854 
L 298.593566 109.139954 
L 306.918042 117.52831 
L 315.242517 110.371517 
L 323.566993 104.784547 
L 331.891469 97.987297 
L 340.215944 88.878926 
L 348.54042 87.922354 
L 356.864895 90.3625 
L 365.189371 88.56464 
L 373.513846 85.033047 
L 381.838322 80.244966 
L 390.162797 78.686131 
L 398.487273 80.214821 
" style="fill:none;stroke:#1f77b4;stroke-linecap:square;stroke-width:1.5;"/>
   </g>
   <g id="line2d_19">
    <path clip-path="url(#pbd8e715f31)" d="M 73.832727 287.253925 
L 82.157203 285.80236 
L 90.481678 276.796066 
L 98.806154 266.320542 
L 107.130629 257.455394 
L 115.455105 244.678402 
L 123.77958 229.961585 
L 132.104056 213.127731 
L 140.428531 198.667573 
L 148.753007 189.871481 
L 157.077483 181.857868 
L 165.401958 171.092778 
L 173.726434 158.38716 
L 182.050909 149.701677 
L 190.375385 139.382757 
L 198.69986 131.461021 
L 207.024336 119.228358 
L 215.348811 123.591598 
L 223.673287 136.889901 
L 231.997762 131.834399 
L 240.322238 157.907814 
L 248.646713 160.141081 
L 256.971189 160.539768 
L 265.295664 152.064523 
L 273.62014 145.674283 
L 281.944615 153.539445 
L 290.269091 142.166249 
L 298.593566 141.903145 
L 306.918042 136.09031 
L 315.242517 122.145067 
L 323.566993 123.21897 
L 331.891469 119.9738 
L 340.215944 127.564098 
L 348.54042 134.348392 
L 356.864895 122.096063 
L 365.189371 121.47392 
L 373.513846 119.27999 
L 381.838322 122.493585 
L 390.162797 139.533359 
L 398.487273 155.977513 
" style="fill:none;stroke:#ff7f0e;stroke-linecap:square;stroke-width:1.5;"/>
   </g>
   <g id="line2d_20">
    <path clip-path="url(#pbd8e715f31)" d="M 73.832727 287.253925 
L 82.157203 281.045073 
L 90.481678 253.101986 
L 98.806154 229.861111 
L 107.130629 205.641824 
L 115.455105 176.72062 
L 123.77958 151.746569 
L 132.104056 140.559989 
L 140.428531 139.005072 
L 148.753007 130.899203 
L 157.077483 132.058148 
L 165.401958 126.641487 
L 173.726434 123.329491 
L 182.050909 119.334217 
L 190.375385 127.280307 
L 198.69986 126.812552 
L 207.024336 118.329282 
L 215.348811 125.301122 
L 223.673287 131.136919 
L 231.997762 134.081772 
L 240.322238 138.098951 
L 248.646713 132.13826 
L 256.971189 130.647091 
L 265.295664 131.397647 
L 273.62014 132.413878 
L 281.944615 121.400254 
L 290.269091 120.528594 
L 298.593566 118.027442 
L 306.918042 112.960129 
L 315.242517 103.765867 
L 323.566993 102.208291 
L 331.891469 100.729339 
L 340.215944 112.949873 
L 348.54042 127.881791 
L 356.864895 117.880531 
L 365.189371 108.267895 
L 373.513846 104.978162 
L 381.838322 98.431164 
L 390.162797 99.420161 
L 398.487273 99.896172 
" style="fill:none;stroke:#2ca02c;stroke-linecap:square;stroke-width:1.5;"/>
   </g>
   <g id="line2d_21">
    <path clip-path="url(#pbd8e715f31)" d="M 73.832727 287.253925 
L 82.157203 287.362714 
L 90.481678 287.237213 
L 98.806154 286.005875 
L 107.130629 275.165646 
L 115.455105 246.863608 
L 123.77958 224.556832 
L 132.104056 201.52787 
L 140.428531 182.458381 
L 148.753007 169.359566 
L 157.077483 161.748945 
L 165.401958 152.098232 
L 173.726434 140.591686 
L 182.050909 129.073028 
L 190.375385 110.326105 
L 198.69986 100.906892 
L 207.024336 92.365913 
L 215.348811 88.107737 
L 223.673287 91.982808 
L 231.997762 84.120721 
L 240.322238 77.713705 
L 248.646713 73.228793 
L 256.971189 71.348571 
L 265.295664 68.7732 
L 273.62014 68.493537 
L 281.944615 66.774676 
L 290.269091 65.571473 
L 298.593566 65.362575 
L 306.918042 64.583003 
L 315.242517 64.037302 
L 323.566993 63.655311 
L 331.891469 65.439228 
L 340.215944 70.712032 
L 348.54042 72.614802 
L 356.864895 70.453881 
L 365.189371 68.146917 
L 373.513846 68.615308 
L 381.838322 67.717916 
L 390.162797 67.350861 
L 398.487273 65.974802 
" style="fill:none;stroke:#d62728;stroke-linecap:square;stroke-width:1.5;"/>
   </g>
   <g id="patch_3">
    <path d="M 57.6 307.584 
L 57.6 41.472 
" style="fill:none;stroke:#000000;stroke-linecap:square;stroke-linejoin:miter;stroke-width:0.8;"/>
   </g>
   <g id="patch_4">
    <path d="M 414.72 307.584 
L 414.72 41.472 
" style="fill:none;stroke:#000000;stroke-linecap:square;stroke-linejoin:miter;stroke-width:0.8;"/>
   </g>
   <g id="patch_5">
    <path d="M 57.6 307.584 
L 414.72 307.584 
" style="fill:none;stroke:#000000;stroke-linecap:square;stroke-linejoin:miter;stroke-width:0.8;"/>
   </g>
   <g id="patch_6">
    <path d="M 57.6 41.472 
L 414.72 41.472 
" style="fill:none;stroke:#000000;stroke-linecap:square;stroke-linejoin:miter;stroke-width:0.8;"/>
   </g>
   <g id="legend_1">
    <g id="patch_7">
     <path d="M 64.6 108.1845 
L 172.840625 108.1845 
Q 174.840625 108.1845 174.840625 106.1845 
L 174.840625 48.472 
Q 174.840625 46.472 172.840625 46.472 
L 64.6 46.472 
Q 62.6 46.472 62.6 48.472 
L 62.6 106.1845 
Q 62.6 108.1845 64.6 108.1845 
z
" style="fill:#ffffff;opacity:0.8;stroke:#cccccc;stroke-linejoin:miter;"/>
    </g>
    <g id="line2d_21">
     <path d="M 66.6 54.570438 
L 86.6 54.570438 
" style="fill:none;stroke:#1f77b4;stroke-linecap:square;stroke-width:1.5;"/>
    </g>
    <g id="line2d_22"/>
    <g id="text_17">
     <!-- DQN -->
     <g transform="translate(94.6 58.070438)scale(0.1 -0.1)">
      <defs>
       <path d="M 1259 4147 
L 1259 519 
L 2022 519 
Q 2988 519 3436 956 
Q 3884 1394 3884 2338 
Q 3884 3275 3436 3711 
Q 2988 4147 2022 4147 
L 1259 4147 
z
M 628 4666 
L 1925 4666 
Q 3281 4666 3915 4102 
Q 4550 3538 4550 2338 
Q 4550 1131 3912 565 
Q 3275 0 1925 0 
L 628 0 
L 628 4666 
z
" id="DejaVuSans-44" transform="scale(0.015625)"/>
       <path d="M 2522 4238 
Q 1834 4238 1429 3725 
Q 1025 3213 1025 2328 
Q 1025 1447 1429 934 
Q 1834 422 2522 422 
Q 3209 422 3611 934 
Q 4013 1447 4013 2328 
Q 4013 3213 3611 3725 
Q 3209 4238 2522 4238 
z
M 3406 84 
L 4238 -825 
L 3475 -825 
L 2784 -78 
Q 2681 -84 2626 -87 
Q 2572 -91 2522 -91 
Q 1538 -91 948 567 
Q 359 1225 359 2328 
Q 359 3434 948 4092 
Q 1538 4750 2522 4750 
Q 3503 4750 4090 4092 
Q 4678 3434 4678 2328 
Q 4678 1516 4351 937 
Q 4025 359 3406 84 
z
" id="DejaVuSans-51" transform="scale(0.015625)"/>
       <path d="M 628 4666 
L 1478 4666 
L 3547 763 
L 3547 4666 
L 4159 4666 
L 4159 0 
L 3309 0 
L 1241 3903 
L 1241 0 
L 628 0 
L 628 4666 
z
" id="DejaVuSans-4e" transform="scale(0.015625)"/>
      </defs>
      <use xlink:href="#DejaVuSans-44"/>
      <use x="77.001953" xlink:href="#DejaVuSans-51"/>
      <use x="155.712891" xlink:href="#DejaVuSans-4e"/>
     </g>
    </g>
    <g id="line2d_23">
     <path d="M 66.6 69.248563 
L 86.6 69.248563 
" style="fill:none;stroke:#ff7f0e;stroke-linecap:square;stroke-width:1.5;"/>
    </g>
    <g id="line2d_24"/>
    <g id="text_18">
     <!-- BackwardDQN -->
     <g transform="translate(94.6 72.748563)scale(0.1 -0.1)">
      <defs>
       <path d="M 1259 2228 
L 1259 519 
L 2272 519 
Q 2781 519 3026 730 
Q 3272 941 3272 1375 
Q 3272 1813 3026 2020 
Q 2781 2228 2272 2228 
L 1259 2228 
z
M 1259 4147 
L 1259 2741 
L 2194 2741 
Q 2656 2741 2882 2914 
Q 3109 3088 3109 3444 
Q 3109 3797 2882 3972 
Q 2656 4147 2194 4147 
L 1259 4147 
z
M 628 4666 
L 2241 4666 
Q 2963 4666 3353 4366 
Q 3744 4066 3744 3513 
Q 3744 3084 3544 2831 
Q 3344 2578 2956 2516 
Q 3422 2416 3680 2098 
Q 3938 1781 3938 1306 
Q 3938 681 3513 340 
Q 3088 0 2303 0 
L 628 0 
L 628 4666 
z
" id="DejaVuSans-42" transform="scale(0.015625)"/>
       <path d="M 2194 1759 
Q 1497 1759 1228 1600 
Q 959 1441 959 1056 
Q 959 750 1161 570 
Q 1363 391 1709 391 
Q 2188 391 2477 730 
Q 2766 1069 2766 1631 
L 2766 1759 
L 2194 1759 
z
M 3341 1997 
L 3341 0 
L 2766 0 
L 2766 531 
Q 2569 213 2275 61 
Q 1981 -91 1556 -91 
Q 1019 -91 701 211 
Q 384 513 384 1019 
Q 384 1609 779 1909 
Q 1175 2209 1959 2209 
L 2766 2209 
L 2766 2266 
Q 2766 2663 2505 2880 
Q 2244 3097 1772 3097 
Q 1472 3097 1187 3025 
Q 903 2953 641 2809 
L 641 3341 
Q 956 3463 1253 3523 
Q 1550 3584 1831 3584 
Q 2591 3584 2966 3190 
Q 3341 2797 3341 1997 
z
" id="DejaVuSans-61" transform="scale(0.015625)"/>
       <path d="M 3122 3366 
L 3122 2828 
Q 2878 2963 2633 3030 
Q 2388 3097 2138 3097 
Q 1578 3097 1268 2742 
Q 959 2388 959 1747 
Q 959 1106 1268 751 
Q 1578 397 2138 397 
Q 2388 397 2633 464 
Q 2878 531 3122 666 
L 3122 134 
Q 2881 22 2623 -34 
Q 2366 -91 2075 -91 
Q 1284 -91 818 406 
Q 353 903 353 1747 
Q 353 2603 823 3093 
Q 1294 3584 2113 3584 
Q 2378 3584 2631 3529 
Q 2884 3475 3122 3366 
z
" id="DejaVuSans-63" transform="scale(0.015625)"/>
       <path d="M 581 4863 
L 1159 4863 
L 1159 1991 
L 2875 3500 
L 3609 3500 
L 1753 1863 
L 3688 0 
L 2938 0 
L 1159 1709 
L 1159 0 
L 581 0 
L 581 4863 
z
" id="DejaVuSans-6b" transform="scale(0.015625)"/>
       <path d="M 269 3500 
L 844 3500 
L 1563 769 
L 2278 3500 
L 2956 3500 
L 3675 769 
L 4391 3500 
L 4966 3500 
L 4050 0 
L 3372 0 
L 2619 2869 
L 1863 0 
L 1184 0 
L 269 3500 
z
" id="DejaVuSans-77" transform="scale(0.015625)"/>
       <path d="M 2631 2963 
Q 2534 3019 2420 3045 
Q 2306 3072 2169 3072 
Q 1681 3072 1420 2755 
Q 1159 2438 1159 1844 
L 1159 0 
L 581 0 
L 581 3500 
L 1159 3500 
L 1159 2956 
Q 1341 3275 1631 3429 
Q 1922 3584 2338 3584 
Q 2397 3584 2469 3576 
Q 2541 3569 2628 3553 
L 2631 2963 
z
" id="DejaVuSans-72" transform="scale(0.015625)"/>
       <path d="M 2906 2969 
L 2906 4863 
L 3481 4863 
L 3481 0 
L 2906 0 
L 2906 525 
Q 2725 213 2448 61 
Q 2172 -91 1784 -91 
Q 1150 -91 751 415 
Q 353 922 353 1747 
Q 353 2572 751 3078 
Q 1150 3584 1784 3584 
Q 2172 3584 2448 3432 
Q 2725 3281 2906 2969 
z
M 947 1747 
Q 947 1113 1208 752 
Q 1469 391 1925 391 
Q 2381 391 2643 752 
Q 2906 1113 2906 1747 
Q 2906 2381 2643 2742 
Q 2381 3103 1925 3103 
Q 1469 3103 1208 2742 
Q 947 2381 947 1747 
z
" id="DejaVuSans-64" transform="scale(0.015625)"/>
      </defs>
      <use xlink:href="#DejaVuSans-42"/>
      <use x="68.603516" xlink:href="#DejaVuSans-61"/>
      <use x="129.882812" xlink:href="#DejaVuSans-63"/>
      <use x="184.863281" xlink:href="#DejaVuSans-6b"/>
      <use x="242.773438" xlink:href="#DejaVuSans-77"/>
      <use x="324.560547" xlink:href="#DejaVuSans-61"/>
      <use x="385.839844" xlink:href="#DejaVuSans-72"/>
      <use x="425.203125" xlink:href="#DejaVuSans-64"/>
      <use x="488.679688" xlink:href="#DejaVuSans-44"/>
      <use x="565.681641" xlink:href="#DejaVuSans-51"/>
      <use x="644.392578" xlink:href="#DejaVuSans-4e"/>
     </g>
    </g>
    <g id="line2d_25">
     <path d="M 66.6 83.926688 
L 86.6 83.926688 
" style="fill:none;stroke:#2ca02c;stroke-linecap:square;stroke-width:1.5;"/>
    </g>
    <g id="line2d_26"/>
    <g id="text_19">
     <!-- MultiBatchDQN -->
     <g transform="translate(94.6 87.426688)scale(0.1 -0.1)">
      <defs>
       <path d="M 628 4666 
L 1569 4666 
L 2759 1491 
L 3956 4666 
L 4897 4666 
L 4897 0 
L 4281 0 
L 4281 4097 
L 3078 897 
L 2444 897 
L 1241 4097 
L 1241 0 
L 628 0 
L 628 4666 
z
" id="DejaVuSans-4d" transform="scale(0.015625)"/>
       <path d="M 544 1381 
L 544 3500 
L 1119 3500 
L 1119 1403 
Q 1119 906 1312 657 
Q 1506 409 1894 409 
Q 2359 409 2629 706 
Q 2900 1003 2900 1516 
L 2900 3500 
L 3475 3500 
L 3475 0 
L 2900 0 
L 2900 538 
Q 2691 219 2414 64 
Q 2138 -91 1772 -91 
Q 1169 -91 856 284 
Q 544 659 544 1381 
z
M 1991 3584 
L 1991 3584 
z
" id="DejaVuSans-75" transform="scale(0.015625)"/>
       <path d="M 603 4863 
L 1178 4863 
L 1178 0 
L 603 0 
L 603 4863 
z
" id="DejaVuSans-6c" transform="scale(0.015625)"/>
       <path d="M 1172 4494 
L 1172 3500 
L 2356 3500 
L 2356 3053 
L 1172 3053 
L 1172 1153 
Q 1172 725 1289 603 
Q 1406 481 1766 481 
L 2356 481 
L 2356 0 
L 1766 0 
Q 1100 0 847 248 
Q 594 497 594 1153 
L 594 3053 
L 172 3053 
L 172 3500 
L 594 3500 
L 594 4494 
L 1172 4494 
z
" id="DejaVuSans-74" transform="scale(0.015625)"/>
       <path d="M 603 3500 
L 1178 3500 
L 1178 0 
L 603 0 
L 603 3500 
z
M 603 4863 
L 1178 4863 
L 1178 4134 
L 603 4134 
L 603 4863 
z
" id="DejaVuSans-69" transform="scale(0.015625)"/>
       <path d="M 3513 2113 
L 3513 0 
L 2938 0 
L 2938 2094 
Q 2938 2591 2744 2837 
Q 2550 3084 2163 3084 
Q 1697 3084 1428 2787 
Q 1159 2491 1159 1978 
L 1159 0 
L 581 0 
L 581 4863 
L 1159 4863 
L 1159 2956 
Q 1366 3272 1645 3428 
Q 1925 3584 2291 3584 
Q 2894 3584 3203 3211 
Q 3513 2838 3513 2113 
z
" id="DejaVuSans-68" transform="scale(0.015625)"/>
      </defs>
      <use xlink:href="#DejaVuSans-4d"/>
      <use x="86.279297" xlink:href="#DejaVuSans-75"/>
      <use x="149.658203" xlink:href="#DejaVuSans-6c"/>
      <use x="177.441406" xlink:href="#DejaVuSans-74"/>
      <use x="216.650391" xlink:href="#DejaVuSans-69"/>
      <use x="244.433594" xlink:href="#DejaVuSans-42"/>
      <use x="313.037109" xlink:href="#DejaVuSans-61"/>
      <use x="374.316406" xlink:href="#DejaVuSans-74"/>
      <use x="413.525391" xlink:href="#DejaVuSans-63"/>
      <use x="468.505859" xlink:href="#DejaVuSans-68"/>
      <use x="531.884766" xlink:href="#DejaVuSans-44"/>
      <use x="608.886719" xlink:href="#DejaVuSans-51"/>
      <use x="687.597656" xlink:href="#DejaVuSans-4e"/>
     </g>
    </g>
    <g id="line2d_27">
     <path d="M 66.6 98.604813 
L 86.6 98.604813 
" style="fill:none;stroke:#d62728;stroke-linecap:square;stroke-width:1.5;"/>
    </g>
    <g id="line2d_28"/>
    <g id="text_20">
     <!-- DQBS -->
     <g transform="translate(94.6 102.104813)scale(0.1 -0.1)">
      <defs>
       <path d="M 3425 4513 
L 3425 3897 
Q 3066 4069 2747 4153 
Q 2428 4238 2131 4238 
Q 1616 4238 1336 4038 
Q 1056 3838 1056 3469 
Q 1056 3159 1242 3001 
Q 1428 2844 1947 2747 
L 2328 2669 
Q 3034 2534 3370 2195 
Q 3706 1856 3706 1288 
Q 3706 609 3251 259 
Q 2797 -91 1919 -91 
Q 1588 -91 1214 -16 
Q 841 59 441 206 
L 441 856 
Q 825 641 1194 531 
Q 1563 422 1919 422 
Q 2459 422 2753 634 
Q 3047 847 3047 1241 
Q 3047 1584 2836 1778 
Q 2625 1972 2144 2069 
L 1759 2144 
Q 1053 2284 737 2584 
Q 422 2884 422 3419 
Q 422 4038 858 4394 
Q 1294 4750 2059 4750 
Q 2388 4750 2728 4690 
Q 3069 4631 3425 4513 
z
" id="DejaVuSans-53" transform="scale(0.015625)"/>
      </defs>
      <use xlink:href="#DejaVuSans-44"/>
      <use x="77.001953" xlink:href="#DejaVuSans-51"/>
      <use x="155.712891" xlink:href="#DejaVuSans-42"/>
      <use x="222.566406" xlink:href="#DejaVuSans-53"/>
     </g>
    </g>
   </g>
  </g>
 </g>
 <defs>
  <clipPath id="p4ec8a01955">
   <rect height="266.112" width="357.12" x="57.6" y="41.472"/>
  </clipPath>
 </defs>
</svg>
