<?xml version="1.0" encoding="utf-8" standalone="no"?>
<!DOCTYPE svg PUBLIC "-//W3C//DTD SVG 1.1//EN"
  "http://www.w3.org/Graphics/SVG/1.1/DTD/svg11.dtd">
<svg height="345.6pt" version="1.1" viewBox="0 0 460.8 345.6" width="460.8pt" xmlns="http://www.w3.org/2000/svg" xmlns:xlink="http://www.w3.org/1999/xlink">
 <metadata>
  <rdf:RDF xmlns:cc="http://creativecommons.org/ns#" xmlns:dc="http://purl.org/dc/elements/1.1/" xmlns:rdf="http://www.w3.org/1999/02/22-rdf-syntax-ns#">
   <cc:Work>
    <dc:type rdf:resource="http://purl.org/dc/dcmitype/StillImage"/>
    <dc:date>2022-01-03T23:29:02.546883</dc:date>
    <dc:format>image/svg+xml</dc:format>
    <dc:creator>
     <cc:Agent>
      <dc:title>Matplotlib v3.4.2, https://matplotlib.org/</dc:title>
     </cc:Agent>
    </dc:creator>
   </cc:Work>
  </rdf:RDF>
 </metadata>
 <defs>
  <style type="text/css">*{stroke-linecap:butt;stroke-linejoin:round;}</style>
 </defs>
 <g id="figure_1">
  <g id="patch_1">
   <path d="M 0 345.6 
L 460.8 345.6 
L 460.8 0 
L 0 0 
z
" style="fill:#ffffff;"/>
  </g>
  <g id="axes_1">
   <g id="patch_2">
    <path d="M 57.6 307.584 
L 414.72 307.584 
L 414.72 41.472 
L 57.6 41.472 
z
" style="fill:#ffffff;"/>
   </g>
   <g id="PolyCollection_1">
    <path clip-path="url(#p49d363bcc5)" d="M 73.832727 271.298752 
L 73.832727 271.298752 
L 82.157203 272.663219 
L 90.481678 272.253879 
L 98.806154 272.236542 
L 107.130629 271.955205 
L 115.455105 271.758269 
L 123.77958 271.620414 
L 132.104056 271.523916 
L 140.428531 277.436257 
L 148.753007 285.645805 
L 157.077483 271.223586 
L 165.401958 271.246136 
L 173.726434 277.979252 
L 182.050909 278.839519 
L 190.375385 264.33184 
L 198.69986 266.421914 
L 207.024336 274.670087 
L 215.348811 259.374469 
L 223.673287 262.951754 
L 231.997762 265.455854 
L 240.322238 278.194649 
L 248.646713 276.12588 
L 256.971189 271.869193 
L 265.295664 271.698061 
L 273.62014 262.896149 
L 281.944615 248.844921 
L 290.269091 253.322853 
L 298.593566 251.179543 
L 306.918042 265.105326 
L 315.242517 268.918381 
L 323.566993 269.632492 
L 331.891469 262.603972 
L 340.215944 265.212406 
L 348.54042 275.576322 
L 356.864895 274.293051 
L 365.189371 239.738535 
L 373.513846 246.606948 
L 381.838322 254.866574 
L 390.162797 243.429565 
L 398.487273 213.250277 
L 398.487273 213.250277 
L 398.487273 163.353629 
L 390.162797 150.048374 
L 381.838322 178.051392 
L 373.513846 149.878338 
L 365.189371 188.507476 
L 356.864895 220.900988 
L 348.54042 199.301946 
L 340.215944 233.14657 
L 331.891469 216.795634 
L 323.566993 217.983576 
L 315.242517 195.134214 
L 306.918042 174.019386 
L 298.593566 191.622461 
L 290.269091 187.219906 
L 281.944615 196.103301 
L 273.62014 211.590579 
L 265.295664 222.776935 
L 256.971189 201.981871 
L 248.646713 222.100175 
L 240.322238 201.01507 
L 231.997762 240.272863 
L 223.673287 226.976054 
L 215.348811 207.980611 
L 207.024336 206.833852 
L 198.69986 232.518008 
L 190.375385 215.897689 
L 182.050909 211.68284 
L 173.726434 202.770689 
L 165.401958 229.340722 
L 157.077483 211.358708 
L 148.753007 216.806313 
L 140.428531 247.045939 
L 132.104056 270.458431 
L 123.77958 270.098293 
L 115.455105 269.583811 
L 107.130629 268.848836 
L 98.806154 267.798872 
L 90.481678 267.73417 
L 82.157203 266.206492 
L 73.832727 271.298752 
z
" style="fill:#1f77b4;fill-opacity:0.3;"/>
   </g>
   <g id="PolyCollection_2">
    <path clip-path="url(#p49d363bcc5)" d="M 73.832727 271.298752 
L 73.832727 271.298752 
L 82.157203 271.298752 
L 90.481678 271.298752 
L 98.806154 271.298752 
L 107.130629 271.298752 
L 115.455105 271.298752 
L 123.77958 271.298752 
L 132.104056 278.613607 
L 140.428531 276.925124 
L 148.753007 272.172102 
L 157.077483 275.877139 
L 165.401958 274.503623 
L 173.726434 266.815397 
L 182.050909 268.160404 
L 190.375385 269.101908 
L 198.69986 275.173366 
L 207.024336 270.50237 
L 215.348811 271.017795 
L 223.673287 284.181553 
L 231.997762 271.346917 
L 240.322238 265.784787 
L 248.646713 277.347083 
L 256.971189 280.139017 
L 265.295664 277.486937 
L 273.62014 275.630482 
L 281.944615 271.300382 
L 290.269091 273.60795 
L 298.593566 272.91519 
L 306.918042 283.030486 
L 315.242517 292.206794 
L 323.566993 274.696805 
L 331.891469 285.478793 
L 340.215944 276.330588 
L 348.54042 239.38779 
L 356.864895 239.929897 
L 365.189371 247.920173 
L 373.513846 254.933747 
L 381.838322 256.542945 
L 390.162797 260.969687 
L 398.487273 264.068407 
L 398.487273 264.068407 
L 398.487273 210.208442 
L 390.162797 184.02688 
L 381.838322 146.624649 
L 373.513846 187.775295 
L 365.189371 151.979527 
L 356.864895 150.378934 
L 348.54042 117.172867 
L 340.215944 102.68801 
L 331.891469 126.380779 
L 323.566993 133.204298 
L 315.242517 160.246489 
L 306.918042 182.301671 
L 298.593566 209.122232 
L 290.269091 182.475151 
L 281.944615 194.481774 
L 273.62014 221.13851 
L 265.295664 199.641263 
L 256.971189 168.930911 
L 248.646713 152.013418 
L 240.322238 170.289825 
L 231.997762 144.241261 
L 223.673287 179.986482 
L 215.348811 213.970118 
L 207.024336 239.189479 
L 198.69986 228.229707 
L 190.375385 257.073698 
L 182.050909 250.977246 
L 173.726434 242.268029 
L 165.401958 235.31819 
L 157.077483 219.897948 
L 148.753007 241.717051 
L 140.428531 250.300848 
L 132.104056 243.999343 
L 123.77958 271.298752 
L 115.455105 271.298752 
L 107.130629 271.298752 
L 98.806154 271.298752 
L 90.481678 271.298752 
L 82.157203 271.298752 
L 73.832727 271.298752 
z
" style="fill:#ff7f0e;fill-opacity:0.3;"/>
   </g>
   <g id="PolyCollection_3">
    <path clip-path="url(#p49d363bcc5)" d="M 73.832727 295.488 
L 73.832727 295.488 
L 82.157203 288.231226 
L 90.481678 278.921261 
L 98.806154 276.634508 
L 107.130629 275.033782 
L 115.455105 273.913273 
L 123.77958 273.128917 
L 132.104056 272.579867 
L 140.428531 272.195533 
L 148.753007 271.926499 
L 157.077483 271.738175 
L 165.401958 271.606348 
L 173.726434 271.514069 
L 182.050909 271.449474 
L 190.375385 271.404258 
L 198.69986 271.372606 
L 207.024336 271.35045 
L 215.348811 271.334941 
L 223.673287 271.324084 
L 231.997762 283.64667 
L 240.322238 279.942295 
L 248.646713 289.960486 
L 256.971189 271.301999 
L 265.295664 271.367075 
L 273.62014 271.346578 
L 281.944615 271.353286 
L 290.269091 277.057097 
L 298.593566 275.329594 
L 306.918042 272.141786 
L 315.242517 249.785082 
L 323.566993 254.074831 
L 331.891469 266.991071 
L 340.215944 261.775665 
L 348.54042 266.680953 
L 356.864895 267.342677 
L 365.189371 257.834926 
L 373.513846 265.028094 
L 381.838322 266.909291 
L 390.162797 268.22613 
L 398.487273 270.87498 
L 398.487273 270.87498 
L 398.487273 203.445766 
L 390.162797 186.729905 
L 381.838322 150.486113 
L 373.513846 98.709268 
L 365.189371 105.919864 
L 356.864895 88.913945 
L 348.54042 115.106418 
L 340.215944 123.886776 
L 331.891469 113.752155 
L 323.566993 108.592403 
L 315.242517 139.183065 
L 306.918042 146.032721 
L 298.593566 185.930101 
L 290.269091 149.343537 
L 281.944615 155.180973 
L 273.62014 207.940125 
L 265.295664 180.786428 
L 256.971189 198.81671 
L 248.646713 201.630921 
L 240.322238 239.010195 
L 231.997762 225.172242 
L 223.673287 271.146125 
L 215.348811 271.080713 
L 207.024336 270.987267 
L 198.69986 270.853774 
L 190.375385 270.663068 
L 182.050909 270.390633 
L 173.726434 270.001438 
L 165.401958 269.445447 
L 157.077483 268.651173 
L 148.753007 267.516496 
L 140.428531 265.895529 
L 132.104056 263.579861 
L 123.77958 260.271765 
L 115.455105 255.545914 
L 107.130629 248.794697 
L 98.806154 239.150102 
L 90.481678 225.372109 
L 82.157203 208.105901 
L 73.832727 181.023251 
z
" style="fill:#2ca02c;fill-opacity:0.3;"/>
   </g>
   <g id="PolyCollection_4">
    <path clip-path="url(#p49d363bcc5)" d="M 73.832727 294.626777 
L 73.832727 294.626777 
L 82.157203 287.62837 
L 90.481678 281.154884 
L 98.806154 278.198045 
L 107.130629 276.128257 
L 115.455105 274.679406 
L 123.77958 273.66521 
L 132.104056 272.955272 
L 140.428531 272.458316 
L 148.753007 272.110447 
L 157.077483 271.866939 
L 165.401958 274.317111 
L 173.726434 271.697988 
L 182.050909 271.578217 
L 190.375385 264.018667 
L 198.69986 265.648811 
L 207.024336 255.984272 
L 215.348811 257.851016 
L 223.673287 242.546909 
L 231.997762 228.15817 
L 240.322238 244.33535 
L 248.646713 199.11963 
L 256.971189 198.493655 
L 265.295664 206.105156 
L 273.62014 222.369202 
L 281.944615 218.203525 
L 290.269091 222.204063 
L 298.593566 205.940584 
L 306.918042 184.783047 
L 315.242517 173.445843 
L 323.566993 178.392508 
L 331.891469 199.403024 
L 340.215944 208.014249 
L 348.54042 193.365652 
L 356.864895 200.960585 
L 365.189371 178.556104 
L 373.513846 204.007632 
L 381.838322 207.848887 
L 390.162797 186.257377 
L 398.487273 171.910344 
L 398.487273 171.910344 
L 398.487273 92.760925 
L 390.162797 100.667147 
L 381.838322 66.281824 
L 373.513846 77.275703 
L 365.189371 71.59611 
L 356.864895 94.828738 
L 348.54042 78.967173 
L 340.215944 53.568 
L 331.891469 65.049546 
L 323.566993 69.578404 
L 315.242517 101.698083 
L 306.918042 137.104863 
L 298.593566 121.918401 
L 290.269091 104.365911 
L 281.944615 130.769259 
L 273.62014 95.225878 
L 265.295664 119.656306 
L 256.971189 131.619665 
L 248.646713 163.082107 
L 240.322238 165.250412 
L 231.997762 177.91663 
L 223.673287 161.35747 
L 215.348811 187.974892 
L 207.024336 166.973701 
L 198.69986 209.138 
L 190.375385 213.68233 
L 182.050909 228.613222 
L 173.726434 210.319424 
L 165.401958 242.998427 
L 157.077483 268.811239 
L 148.753007 267.745162 
L 140.428531 266.222195 
L 132.104056 264.046527 
L 123.77958 260.938431 
L 115.455105 256.498293 
L 107.130629 250.155239 
L 98.806154 241.093733 
L 90.481678 228.148725 
L 82.157203 210.355791 
L 73.832727 184.237379 
z
" style="fill:#d62728;fill-opacity:0.3;"/>
   </g>
   <g id="matplotlib.axis_1">
    <g id="xtick_1">
     <g id="line2d_1">
      <defs>
       <path d="M 0 0 
L 0 3.5 
" id="m84e41acaa1" style="stroke:#000000;stroke-width:0.8;"/>
      </defs>
      <g>
       <use style="stroke:#000000;stroke-width:0.8;" x="65.508252" xlink:href="#m84e41acaa1" y="307.584"/>
      </g>
     </g>
     <g id="text_1">
      <!-- 0 -->
      <g transform="translate(62.327002 322.182437)scale(0.1 -0.1)">
       <defs>
        <path d="M 2034 4250 
Q 1547 4250 1301 3770 
Q 1056 3291 1056 2328 
Q 1056 1369 1301 889 
Q 1547 409 2034 409 
Q 2525 409 2770 889 
Q 3016 1369 3016 2328 
Q 3016 3291 2770 3770 
Q 2525 4250 2034 4250 
z
M 2034 4750 
Q 2819 4750 3233 4129 
Q 3647 3509 3647 2328 
Q 3647 1150 3233 529 
Q 2819 -91 2034 -91 
Q 1250 -91 836 529 
Q 422 1150 422 2328 
Q 422 3509 836 4129 
Q 1250 4750 2034 4750 
z
" id="DejaVuSans-30" transform="scale(0.015625)"/>
       </defs>
       <use xlink:href="#DejaVuSans-30"/>
      </g>
     </g>
    </g>
    <g id="xtick_2">
     <g id="line2d_2">
      <g>
       <use style="stroke:#000000;stroke-width:0.8;" x="107.130629" xlink:href="#m84e41acaa1" y="307.584"/>
      </g>
     </g>
     <g id="text_2">
      <!-- 25 -->
      <g transform="translate(100.768129 322.182437)scale(0.1 -0.1)">
       <defs>
        <path d="M 1228 531 
L 3431 531 
L 3431 0 
L 469 0 
L 469 531 
Q 828 903 1448 1529 
Q 2069 2156 2228 2338 
Q 2531 2678 2651 2914 
Q 2772 3150 2772 3378 
Q 2772 3750 2511 3984 
Q 2250 4219 1831 4219 
Q 1534 4219 1204 4116 
Q 875 4013 500 3803 
L 500 4441 
Q 881 4594 1212 4672 
Q 1544 4750 1819 4750 
Q 2544 4750 2975 4387 
Q 3406 4025 3406 3419 
Q 3406 3131 3298 2873 
Q 3191 2616 2906 2266 
Q 2828 2175 2409 1742 
Q 1991 1309 1228 531 
z
" id="DejaVuSans-32" transform="scale(0.015625)"/>
        <path d="M 691 4666 
L 3169 4666 
L 3169 4134 
L 1269 4134 
L 1269 2991 
Q 1406 3038 1543 3061 
Q 1681 3084 1819 3084 
Q 2600 3084 3056 2656 
Q 3513 2228 3513 1497 
Q 3513 744 3044 326 
Q 2575 -91 1722 -91 
Q 1428 -91 1123 -41 
Q 819 9 494 109 
L 494 744 
Q 775 591 1075 516 
Q 1375 441 1709 441 
Q 2250 441 2565 725 
Q 2881 1009 2881 1497 
Q 2881 1984 2565 2268 
Q 2250 2553 1709 2553 
Q 1456 2553 1204 2497 
Q 953 2441 691 2322 
L 691 4666 
z
" id="DejaVuSans-35" transform="scale(0.015625)"/>
       </defs>
       <use xlink:href="#DejaVuSans-32"/>
       <use x="63.623047" xlink:href="#DejaVuSans-35"/>
      </g>
     </g>
    </g>
    <g id="xtick_3">
     <g id="line2d_3">
      <g>
       <use style="stroke:#000000;stroke-width:0.8;" x="148.753007" xlink:href="#m84e41acaa1" y="307.584"/>
      </g>
     </g>
     <g id="text_3">
      <!-- 50 -->
      <g transform="translate(142.390507 322.182437)scale(0.1 -0.1)">
       <use xlink:href="#DejaVuSans-35"/>
       <use x="63.623047" xlink:href="#DejaVuSans-30"/>
      </g>
     </g>
    </g>
    <g id="xtick_4">
     <g id="line2d_4">
      <g>
       <use style="stroke:#000000;stroke-width:0.8;" x="190.375385" xlink:href="#m84e41acaa1" y="307.584"/>
      </g>
     </g>
     <g id="text_4">
      <!-- 75 -->
      <g transform="translate(184.012885 322.182437)scale(0.1 -0.1)">
       <defs>
        <path d="M 525 4666 
L 3525 4666 
L 3525 4397 
L 1831 0 
L 1172 0 
L 2766 4134 
L 525 4134 
L 525 4666 
z
" id="DejaVuSans-37" transform="scale(0.015625)"/>
       </defs>
       <use xlink:href="#DejaVuSans-37"/>
       <use x="63.623047" xlink:href="#DejaVuSans-35"/>
      </g>
     </g>
    </g>
    <g id="xtick_5">
     <g id="line2d_5">
      <g>
       <use style="stroke:#000000;stroke-width:0.8;" x="231.997762" xlink:href="#m84e41acaa1" y="307.584"/>
      </g>
     </g>
     <g id="text_5">
      <!-- 100 -->
      <g transform="translate(222.454012 322.182437)scale(0.1 -0.1)">
       <defs>
        <path d="M 794 531 
L 1825 531 
L 1825 4091 
L 703 3866 
L 703 4441 
L 1819 4666 
L 2450 4666 
L 2450 531 
L 3481 531 
L 3481 0 
L 794 0 
L 794 531 
z
" id="DejaVuSans-31" transform="scale(0.015625)"/>
       </defs>
       <use xlink:href="#DejaVuSans-31"/>
       <use x="63.623047" xlink:href="#DejaVuSans-30"/>
       <use x="127.246094" xlink:href="#DejaVuSans-30"/>
      </g>
     </g>
    </g>
    <g id="xtick_6">
     <g id="line2d_6">
      <g>
       <use style="stroke:#000000;stroke-width:0.8;" x="273.62014" xlink:href="#m84e41acaa1" y="307.584"/>
      </g>
     </g>
     <g id="text_6">
      <!-- 125 -->
      <g transform="translate(264.07639 322.182437)scale(0.1 -0.1)">
       <use xlink:href="#DejaVuSans-31"/>
       <use x="63.623047" xlink:href="#DejaVuSans-32"/>
       <use x="127.246094" xlink:href="#DejaVuSans-35"/>
      </g>
     </g>
    </g>
    <g id="xtick_7">
     <g id="line2d_7">
      <g>
       <use style="stroke:#000000;stroke-width:0.8;" x="315.242517" xlink:href="#m84e41acaa1" y="307.584"/>
      </g>
     </g>
     <g id="text_7">
      <!-- 150 -->
      <g transform="translate(305.698767 322.182437)scale(0.1 -0.1)">
       <use xlink:href="#DejaVuSans-31"/>
       <use x="63.623047" xlink:href="#DejaVuSans-35"/>
       <use x="127.246094" xlink:href="#DejaVuSans-30"/>
      </g>
     </g>
    </g>
    <g id="xtick_8">
     <g id="line2d_8">
      <g>
       <use style="stroke:#000000;stroke-width:0.8;" x="356.864895" xlink:href="#m84e41acaa1" y="307.584"/>
      </g>
     </g>
     <g id="text_8">
      <!-- 175 -->
      <g transform="translate(347.321145 322.182437)scale(0.1 -0.1)">
       <use xlink:href="#DejaVuSans-31"/>
       <use x="63.623047" xlink:href="#DejaVuSans-37"/>
       <use x="127.246094" xlink:href="#DejaVuSans-35"/>
      </g>
     </g>
    </g>
    <g id="xtick_9">
     <g id="line2d_9">
      <g>
       <use style="stroke:#000000;stroke-width:0.8;" x="398.487273" xlink:href="#m84e41acaa1" y="307.584"/>
      </g>
     </g>
     <g id="text_9">
      <!-- 200 -->
      <g transform="translate(388.943523 322.182437)scale(0.1 -0.1)">
       <use xlink:href="#DejaVuSans-32"/>
       <use x="63.623047" xlink:href="#DejaVuSans-30"/>
       <use x="127.246094" xlink:href="#DejaVuSans-30"/>
      </g>
     </g>
    </g>
   </g>
   <g id="matplotlib.axis_2">
    <g id="ytick_1">
     <g id="line2d_10">
      <defs>
       <path d="M 0 0 
L -3.5 0 
" id="mf75536f236" style="stroke:#000000;stroke-width:0.8;"/>
      </defs>
      <g>
       <use style="stroke:#000000;stroke-width:0.8;" x="57.6" xlink:href="#mf75536f236" y="276.326273"/>
      </g>
     </g>
     <g id="text_10">
      <!-- −400 -->
      <g transform="translate(23.132812 280.125492)scale(0.1 -0.1)">
       <defs>
        <path d="M 678 2272 
L 4684 2272 
L 4684 1741 
L 678 1741 
L 678 2272 
z
" id="DejaVuSans-2212" transform="scale(0.015625)"/>
        <path d="M 2419 4116 
L 825 1625 
L 2419 1625 
L 2419 4116 
z
M 2253 4666 
L 3047 4666 
L 3047 1625 
L 3713 1625 
L 3713 1100 
L 3047 1100 
L 3047 0 
L 2419 0 
L 2419 1100 
L 313 1100 
L 313 1709 
L 2253 4666 
z
" id="DejaVuSans-34" transform="scale(0.015625)"/>
       </defs>
       <use xlink:href="#DejaVuSans-2212"/>
       <use x="83.789062" xlink:href="#DejaVuSans-34"/>
       <use x="147.412109" xlink:href="#DejaVuSans-30"/>
       <use x="211.035156" xlink:href="#DejaVuSans-30"/>
      </g>
     </g>
    </g>
    <g id="ytick_2">
     <g id="line2d_11">
      <g>
       <use style="stroke:#000000;stroke-width:0.8;" x="57.6" xlink:href="#mf75536f236" y="236.919124"/>
      </g>
     </g>
     <g id="text_11">
      <!-- −350 -->
      <g transform="translate(23.132812 240.718342)scale(0.1 -0.1)">
       <defs>
        <path d="M 2597 2516 
Q 3050 2419 3304 2112 
Q 3559 1806 3559 1356 
Q 3559 666 3084 287 
Q 2609 -91 1734 -91 
Q 1441 -91 1130 -33 
Q 819 25 488 141 
L 488 750 
Q 750 597 1062 519 
Q 1375 441 1716 441 
Q 2309 441 2620 675 
Q 2931 909 2931 1356 
Q 2931 1769 2642 2001 
Q 2353 2234 1838 2234 
L 1294 2234 
L 1294 2753 
L 1863 2753 
Q 2328 2753 2575 2939 
Q 2822 3125 2822 3475 
Q 2822 3834 2567 4026 
Q 2313 4219 1838 4219 
Q 1578 4219 1281 4162 
Q 984 4106 628 3988 
L 628 4550 
Q 988 4650 1302 4700 
Q 1616 4750 1894 4750 
Q 2613 4750 3031 4423 
Q 3450 4097 3450 3541 
Q 3450 3153 3228 2886 
Q 3006 2619 2597 2516 
z
" id="DejaVuSans-33" transform="scale(0.015625)"/>
       </defs>
       <use xlink:href="#DejaVuSans-2212"/>
       <use x="83.789062" xlink:href="#DejaVuSans-33"/>
       <use x="147.412109" xlink:href="#DejaVuSans-35"/>
       <use x="211.035156" xlink:href="#DejaVuSans-30"/>
      </g>
     </g>
    </g>
    <g id="ytick_3">
     <g id="line2d_12">
      <g>
       <use style="stroke:#000000;stroke-width:0.8;" x="57.6" xlink:href="#mf75536f236" y="197.511974"/>
      </g>
     </g>
     <g id="text_12">
      <!-- −300 -->
      <g transform="translate(23.132812 201.311193)scale(0.1 -0.1)">
       <use xlink:href="#DejaVuSans-2212"/>
       <use x="83.789062" xlink:href="#DejaVuSans-33"/>
       <use x="147.412109" xlink:href="#DejaVuSans-30"/>
       <use x="211.035156" xlink:href="#DejaVuSans-30"/>
      </g>
     </g>
    </g>
    <g id="ytick_4">
     <g id="line2d_13">
      <g>
       <use style="stroke:#000000;stroke-width:0.8;" x="57.6" xlink:href="#mf75536f236" y="158.104825"/>
      </g>
     </g>
     <g id="text_13">
      <!-- −250 -->
      <g transform="translate(23.132812 161.904044)scale(0.1 -0.1)">
       <use xlink:href="#DejaVuSans-2212"/>
       <use x="83.789062" xlink:href="#DejaVuSans-32"/>
       <use x="147.412109" xlink:href="#DejaVuSans-35"/>
       <use x="211.035156" xlink:href="#DejaVuSans-30"/>
      </g>
     </g>
    </g>
    <g id="ytick_5">
     <g id="line2d_14">
      <g>
       <use style="stroke:#000000;stroke-width:0.8;" x="57.6" xlink:href="#mf75536f236" y="118.697676"/>
      </g>
     </g>
     <g id="text_14">
      <!-- −200 -->
      <g transform="translate(23.132812 122.496895)scale(0.1 -0.1)">
       <use xlink:href="#DejaVuSans-2212"/>
       <use x="83.789062" xlink:href="#DejaVuSans-32"/>
       <use x="147.412109" xlink:href="#DejaVuSans-30"/>
       <use x="211.035156" xlink:href="#DejaVuSans-30"/>
      </g>
     </g>
    </g>
    <g id="ytick_6">
     <g id="line2d_15">
      <g>
       <use style="stroke:#000000;stroke-width:0.8;" x="57.6" xlink:href="#mf75536f236" y="79.290527"/>
      </g>
     </g>
     <g id="text_15">
      <!-- −150 -->
      <g transform="translate(23.132812 83.089745)scale(0.1 -0.1)">
       <use xlink:href="#DejaVuSans-2212"/>
       <use x="83.789062" xlink:href="#DejaVuSans-31"/>
       <use x="147.412109" xlink:href="#DejaVuSans-35"/>
       <use x="211.035156" xlink:href="#DejaVuSans-30"/>
      </g>
     </g>
    </g>
   </g>
   <g id="line2d_16">
    <path clip-path="url(#p49d363bcc5)" d="M 73.832727 271.298752 
L 82.157203 269.434856 
L 90.481678 269.994025 
L 98.806154 270.017707 
L 107.130629 270.402021 
L 115.455105 270.67104 
L 123.77958 270.859354 
L 132.104056 270.991173 
L 140.428531 262.241098 
L 148.753007 251.226059 
L 157.077483 241.291147 
L 165.401958 250.293429 
L 173.726434 240.374971 
L 182.050909 245.26118 
L 190.375385 240.114764 
L 198.69986 249.469961 
L 207.024336 240.75197 
L 215.348811 233.67754 
L 223.673287 244.963904 
L 231.997762 252.864358 
L 240.322238 239.604859 
L 248.646713 249.113027 
L 256.971189 236.925532 
L 265.295664 247.237498 
L 273.62014 237.243364 
L 281.944615 222.474111 
L 290.269091 220.271379 
L 298.593566 221.401002 
L 306.918042 219.562356 
L 315.242517 232.026298 
L 323.566993 243.808034 
L 331.891469 239.699803 
L 340.215944 249.179488 
L 348.54042 237.439134 
L 356.864895 247.59702 
L 365.189371 214.123006 
L 373.513846 198.242643 
L 381.838322 216.458983 
L 390.162797 196.73897 
L 398.487273 188.301953 
" style="fill:none;stroke:#1f77b4;stroke-linecap:square;stroke-width:1.5;"/>
   </g>
   <g id="line2d_17">
    <path clip-path="url(#p49d363bcc5)" d="M 73.832727 271.298752 
L 82.157203 271.298752 
L 90.481678 271.298752 
L 98.806154 271.298752 
L 107.130629 271.298752 
L 115.455105 271.298752 
L 123.77958 271.298752 
L 132.104056 261.306475 
L 140.428531 263.612986 
L 148.753007 256.944576 
L 157.077483 247.887544 
L 165.401958 254.910906 
L 173.726434 254.541713 
L 182.050909 259.568825 
L 190.375385 263.087803 
L 198.69986 251.701537 
L 207.024336 254.845924 
L 215.348811 242.493957 
L 223.673287 232.084017 
L 231.997762 207.794089 
L 240.322238 218.037306 
L 248.646713 214.68025 
L 256.971189 224.534964 
L 265.295664 238.5641 
L 273.62014 248.384496 
L 281.944615 232.891078 
L 290.269091 228.041551 
L 298.593566 241.018711 
L 306.918042 232.666078 
L 315.242517 226.226642 
L 323.566993 203.950552 
L 331.891469 205.929786 
L 340.215944 189.509299 
L 348.54042 178.280328 
L 356.864895 195.154416 
L 365.189371 199.94985 
L 373.513846 221.354521 
L 381.838322 201.583797 
L 390.162797 222.498283 
L 398.487273 237.138424 
" style="fill:none;stroke:#ff7f0e;stroke-linecap:square;stroke-width:1.5;"/>
   </g>
   <g id="line2d_18">
    <path clip-path="url(#p49d363bcc5)" d="M 73.832727 238.255625 
L 82.157203 248.168564 
L 90.481678 252.146685 
L 98.806154 257.892305 
L 107.130629 261.914239 
L 115.455105 264.729593 
L 123.77958 266.700341 
L 132.104056 268.079864 
L 140.428531 269.045531 
L 148.753007 269.721497 
L 157.077483 270.194674 
L 165.401958 270.525897 
L 173.726434 270.757754 
L 182.050909 270.920053 
L 190.375385 271.033663 
L 198.69986 271.11319 
L 207.024336 271.168859 
L 215.348811 271.207827 
L 223.673287 271.235104 
L 231.997762 254.409456 
L 240.322238 259.476245 
L 248.646713 245.795703 
L 256.971189 235.059354 
L 265.295664 226.076751 
L 273.62014 239.643352 
L 281.944615 213.26713 
L 290.269091 213.200317 
L 298.593566 230.629848 
L 306.918042 209.087253 
L 315.242517 194.484073 
L 323.566993 181.333617 
L 331.891469 190.371613 
L 340.215944 192.83122 
L 348.54042 190.893686 
L 356.864895 178.128311 
L 365.189371 181.877395 
L 373.513846 181.868681 
L 381.838322 208.697702 
L 390.162797 227.478017 
L 398.487273 237.160373 
" style="fill:none;stroke:#2ca02c;stroke-linecap:square;stroke-width:1.5;"/>
   </g>
   <g id="line2d_19">
    <path clip-path="url(#p49d363bcc5)" d="M 73.832727 239.432078 
L 82.157203 248.99208 
L 90.481678 254.651805 
L 98.806154 259.645889 
L 107.130629 263.141748 
L 115.455105 265.588849 
L 123.77958 267.30182 
L 132.104056 268.5009 
L 140.428531 269.340256 
L 148.753007 269.927805 
L 157.077483 270.339089 
L 165.401958 258.657769 
L 173.726434 241.008706 
L 182.050909 250.09572 
L 190.375385 238.850498 
L 198.69986 237.393405 
L 207.024336 211.478987 
L 215.348811 222.912954 
L 223.673287 201.95219 
L 231.997762 203.0374 
L 240.322238 204.792881 
L 248.646713 181.100868 
L 256.971189 165.05666 
L 265.295664 162.880731 
L 273.62014 158.79754 
L 281.944615 174.486392 
L 290.269091 163.284987 
L 298.593566 163.929492 
L 306.918042 160.943955 
L 315.242517 137.571963 
L 323.566993 123.985456 
L 331.891469 132.226285 
L 340.215944 130.791124 
L 348.54042 136.166412 
L 356.864895 147.894662 
L 365.189371 125.076107 
L 373.513846 140.641667 
L 381.838322 137.065355 
L 390.162797 143.462262 
L 398.487273 132.335634 
" style="fill:none;stroke:#d62728;stroke-linecap:square;stroke-width:1.5;"/>
   </g>
   <g id="patch_3">
    <path d="M 57.6 307.584 
L 57.6 41.472 
" style="fill:none;stroke:#000000;stroke-linecap:square;stroke-linejoin:miter;stroke-width:0.8;"/>
   </g>
   <g id="patch_4">
    <path d="M 414.72 307.584 
L 414.72 41.472 
" style="fill:none;stroke:#000000;stroke-linecap:square;stroke-linejoin:miter;stroke-width:0.8;"/>
   </g>
   <g id="patch_5">
    <path d="M 57.6 307.584 
L 414.72 307.584 
" style="fill:none;stroke:#000000;stroke-linecap:square;stroke-linejoin:miter;stroke-width:0.8;"/>
   </g>
   <g id="patch_6">
    <path d="M 57.6 41.472 
L 414.72 41.472 
" style="fill:none;stroke:#000000;stroke-linecap:square;stroke-linejoin:miter;stroke-width:0.8;"/>
   </g>
   <g id="legend_1">
    <g id="patch_7">
     <path d="M 299.479375 108.1845 
L 407.72 108.1845 
Q 409.72 108.1845 409.72 106.1845 
L 409.72 48.472 
Q 409.72 46.472 407.72 46.472 
L 299.479375 46.472 
Q 297.479375 46.472 297.479375 48.472 
L 297.479375 106.1845 
Q 297.479375 108.1845 299.479375 108.1845 
z
" style="fill:#ffffff;opacity:0.8;stroke:#cccccc;stroke-linejoin:miter;"/>
    </g>
    <g id="line2d_20">
     <path d="M 301.479375 54.570438 
L 321.479375 54.570438 
" style="fill:none;stroke:#1f77b4;stroke-linecap:square;stroke-width:1.5;"/>
    </g>
    <g id="line2d_21"/>
    <g id="text_16">
     <!-- DQN -->
     <g transform="translate(329.479375 58.070438)scale(0.1 -0.1)">
      <defs>
       <path d="M 1259 4147 
L 1259 519 
L 2022 519 
Q 2988 519 3436 956 
Q 3884 1394 3884 2338 
Q 3884 3275 3436 3711 
Q 2988 4147 2022 4147 
L 1259 4147 
z
M 628 4666 
L 1925 4666 
Q 3281 4666 3915 4102 
Q 4550 3538 4550 2338 
Q 4550 1131 3912 565 
Q 3275 0 1925 0 
L 628 0 
L 628 4666 
z
" id="DejaVuSans-44" transform="scale(0.015625)"/>
       <path d="M 2522 4238 
Q 1834 4238 1429 3725 
Q 1025 3213 1025 2328 
Q 1025 1447 1429 934 
Q 1834 422 2522 422 
Q 3209 422 3611 934 
Q 4013 1447 4013 2328 
Q 4013 3213 3611 3725 
Q 3209 4238 2522 4238 
z
M 3406 84 
L 4238 -825 
L 3475 -825 
L 2784 -78 
Q 2681 -84 2626 -87 
Q 2572 -91 2522 -91 
Q 1538 -91 948 567 
Q 359 1225 359 2328 
Q 359 3434 948 4092 
Q 1538 4750 2522 4750 
Q 3503 4750 4090 4092 
Q 4678 3434 4678 2328 
Q 4678 1516 4351 937 
Q 4025 359 3406 84 
z
" id="DejaVuSans-51" transform="scale(0.015625)"/>
       <path d="M 628 4666 
L 1478 4666 
L 3547 763 
L 3547 4666 
L 4159 4666 
L 4159 0 
L 3309 0 
L 1241 3903 
L 1241 0 
L 628 0 
L 628 4666 
z
" id="DejaVuSans-4e" transform="scale(0.015625)"/>
      </defs>
      <use xlink:href="#DejaVuSans-44"/>
      <use x="77.001953" xlink:href="#DejaVuSans-51"/>
      <use x="155.712891" xlink:href="#DejaVuSans-4e"/>
     </g>
    </g>
    <g id="line2d_22">
     <path d="M 301.479375 69.248563 
L 321.479375 69.248563 
" style="fill:none;stroke:#ff7f0e;stroke-linecap:square;stroke-width:1.5;"/>
    </g>
    <g id="line2d_23"/>
    <g id="text_17">
     <!-- BackwardDQN -->
     <g transform="translate(329.479375 72.748563)scale(0.1 -0.1)">
      <defs>
       <path d="M 1259 2228 
L 1259 519 
L 2272 519 
Q 2781 519 3026 730 
Q 3272 941 3272 1375 
Q 3272 1813 3026 2020 
Q 2781 2228 2272 2228 
L 1259 2228 
z
M 1259 4147 
L 1259 2741 
L 2194 2741 
Q 2656 2741 2882 2914 
Q 3109 3088 3109 3444 
Q 3109 3797 2882 3972 
Q 2656 4147 2194 4147 
L 1259 4147 
z
M 628 4666 
L 2241 4666 
Q 2963 4666 3353 4366 
Q 3744 4066 3744 3513 
Q 3744 3084 3544 2831 
Q 3344 2578 2956 2516 
Q 3422 2416 3680 2098 
Q 3938 1781 3938 1306 
Q 3938 681 3513 340 
Q 3088 0 2303 0 
L 628 0 
L 628 4666 
z
" id="DejaVuSans-42" transform="scale(0.015625)"/>
       <path d="M 2194 1759 
Q 1497 1759 1228 1600 
Q 959 1441 959 1056 
Q 959 750 1161 570 
Q 1363 391 1709 391 
Q 2188 391 2477 730 
Q 2766 1069 2766 1631 
L 2766 1759 
L 2194 1759 
z
M 3341 1997 
L 3341 0 
L 2766 0 
L 2766 531 
Q 2569 213 2275 61 
Q 1981 -91 1556 -91 
Q 1019 -91 701 211 
Q 384 513 384 1019 
Q 384 1609 779 1909 
Q 1175 2209 1959 2209 
L 2766 2209 
L 2766 2266 
Q 2766 2663 2505 2880 
Q 2244 3097 1772 3097 
Q 1472 3097 1187 3025 
Q 903 2953 641 2809 
L 641 3341 
Q 956 3463 1253 3523 
Q 1550 3584 1831 3584 
Q 2591 3584 2966 3190 
Q 3341 2797 3341 1997 
z
" id="DejaVuSans-61" transform="scale(0.015625)"/>
       <path d="M 3122 3366 
L 3122 2828 
Q 2878 2963 2633 3030 
Q 2388 3097 2138 3097 
Q 1578 3097 1268 2742 
Q 959 2388 959 1747 
Q 959 1106 1268 751 
Q 1578 397 2138 397 
Q 2388 397 2633 464 
Q 2878 531 3122 666 
L 3122 134 
Q 2881 22 2623 -34 
Q 2366 -91 2075 -91 
Q 1284 -91 818 406 
Q 353 903 353 1747 
Q 353 2603 823 3093 
Q 1294 3584 2113 3584 
Q 2378 3584 2631 3529 
Q 2884 3475 3122 3366 
z
" id="DejaVuSans-63" transform="scale(0.015625)"/>
       <path d="M 581 4863 
L 1159 4863 
L 1159 1991 
L 2875 3500 
L 3609 3500 
L 1753 1863 
L 3688 0 
L 2938 0 
L 1159 1709 
L 1159 0 
L 581 0 
L 581 4863 
z
" id="DejaVuSans-6b" transform="scale(0.015625)"/>
       <path d="M 269 3500 
L 844 3500 
L 1563 769 
L 2278 3500 
L 2956 3500 
L 3675 769 
L 4391 3500 
L 4966 3500 
L 4050 0 
L 3372 0 
L 2619 2869 
L 1863 0 
L 1184 0 
L 269 3500 
z
" id="DejaVuSans-77" transform="scale(0.015625)"/>
       <path d="M 2631 2963 
Q 2534 3019 2420 3045 
Q 2306 3072 2169 3072 
Q 1681 3072 1420 2755 
Q 1159 2438 1159 1844 
L 1159 0 
L 581 0 
L 581 3500 
L 1159 3500 
L 1159 2956 
Q 1341 3275 1631 3429 
Q 1922 3584 2338 3584 
Q 2397 3584 2469 3576 
Q 2541 3569 2628 3553 
L 2631 2963 
z
" id="DejaVuSans-72" transform="scale(0.015625)"/>
       <path d="M 2906 2969 
L 2906 4863 
L 3481 4863 
L 3481 0 
L 2906 0 
L 2906 525 
Q 2725 213 2448 61 
Q 2172 -91 1784 -91 
Q 1150 -91 751 415 
Q 353 922 353 1747 
Q 353 2572 751 3078 
Q 1150 3584 1784 3584 
Q 2172 3584 2448 3432 
Q 2725 3281 2906 2969 
z
M 947 1747 
Q 947 1113 1208 752 
Q 1469 391 1925 391 
Q 2381 391 2643 752 
Q 2906 1113 2906 1747 
Q 2906 2381 2643 2742 
Q 2381 3103 1925 3103 
Q 1469 3103 1208 2742 
Q 947 2381 947 1747 
z
" id="DejaVuSans-64" transform="scale(0.015625)"/>
      </defs>
      <use xlink:href="#DejaVuSans-42"/>
      <use x="68.603516" xlink:href="#DejaVuSans-61"/>
      <use x="129.882812" xlink:href="#DejaVuSans-63"/>
      <use x="184.863281" xlink:href="#DejaVuSans-6b"/>
      <use x="242.773438" xlink:href="#DejaVuSans-77"/>
      <use x="324.560547" xlink:href="#DejaVuSans-61"/>
      <use x="385.839844" xlink:href="#DejaVuSans-72"/>
      <use x="425.203125" xlink:href="#DejaVuSans-64"/>
      <use x="488.679688" xlink:href="#DejaVuSans-44"/>
      <use x="565.681641" xlink:href="#DejaVuSans-51"/>
      <use x="644.392578" xlink:href="#DejaVuSans-4e"/>
     </g>
    </g>
    <g id="line2d_24">
     <path d="M 301.479375 83.926688 
L 321.479375 83.926688 
" style="fill:none;stroke:#2ca02c;stroke-linecap:square;stroke-width:1.5;"/>
    </g>
    <g id="line2d_25"/>
    <g id="text_18">
     <!-- MultiBatchDQN -->
     <g transform="translate(329.479375 87.426688)scale(0.1 -0.1)">
      <defs>
       <path d="M 628 4666 
L 1569 4666 
L 2759 1491 
L 3956 4666 
L 4897 4666 
L 4897 0 
L 4281 0 
L 4281 4097 
L 3078 897 
L 2444 897 
L 1241 4097 
L 1241 0 
L 628 0 
L 628 4666 
z
" id="DejaVuSans-4d" transform="scale(0.015625)"/>
       <path d="M 544 1381 
L 544 3500 
L 1119 3500 
L 1119 1403 
Q 1119 906 1312 657 
Q 1506 409 1894 409 
Q 2359 409 2629 706 
Q 2900 1003 2900 1516 
L 2900 3500 
L 3475 3500 
L 3475 0 
L 2900 0 
L 2900 538 
Q 2691 219 2414 64 
Q 2138 -91 1772 -91 
Q 1169 -91 856 284 
Q 544 659 544 1381 
z
M 1991 3584 
L 1991 3584 
z
" id="DejaVuSans-75" transform="scale(0.015625)"/>
       <path d="M 603 4863 
L 1178 4863 
L 1178 0 
L 603 0 
L 603 4863 
z
" id="DejaVuSans-6c" transform="scale(0.015625)"/>
       <path d="M 1172 4494 
L 1172 3500 
L 2356 3500 
L 2356 3053 
L 1172 3053 
L 1172 1153 
Q 1172 725 1289 603 
Q 1406 481 1766 481 
L 2356 481 
L 2356 0 
L 1766 0 
Q 1100 0 847 248 
Q 594 497 594 1153 
L 594 3053 
L 172 3053 
L 172 3500 
L 594 3500 
L 594 4494 
L 1172 4494 
z
" id="DejaVuSans-74" transform="scale(0.015625)"/>
       <path d="M 603 3500 
L 1178 3500 
L 1178 0 
L 603 0 
L 603 3500 
z
M 603 4863 
L 1178 4863 
L 1178 4134 
L 603 4134 
L 603 4863 
z
" id="DejaVuSans-69" transform="scale(0.015625)"/>
       <path d="M 3513 2113 
L 3513 0 
L 2938 0 
L 2938 2094 
Q 2938 2591 2744 2837 
Q 2550 3084 2163 3084 
Q 1697 3084 1428 2787 
Q 1159 2491 1159 1978 
L 1159 0 
L 581 0 
L 581 4863 
L 1159 4863 
L 1159 2956 
Q 1366 3272 1645 3428 
Q 1925 3584 2291 3584 
Q 2894 3584 3203 3211 
Q 3513 2838 3513 2113 
z
" id="DejaVuSans-68" transform="scale(0.015625)"/>
      </defs>
      <use xlink:href="#DejaVuSans-4d"/>
      <use x="86.279297" xlink:href="#DejaVuSans-75"/>
      <use x="149.658203" xlink:href="#DejaVuSans-6c"/>
      <use x="177.441406" xlink:href="#DejaVuSans-74"/>
      <use x="216.650391" xlink:href="#DejaVuSans-69"/>
      <use x="244.433594" xlink:href="#DejaVuSans-42"/>
      <use x="313.037109" xlink:href="#DejaVuSans-61"/>
      <use x="374.316406" xlink:href="#DejaVuSans-74"/>
      <use x="413.525391" xlink:href="#DejaVuSans-63"/>
      <use x="468.505859" xlink:href="#DejaVuSans-68"/>
      <use x="531.884766" xlink:href="#DejaVuSans-44"/>
      <use x="608.886719" xlink:href="#DejaVuSans-51"/>
      <use x="687.597656" xlink:href="#DejaVuSans-4e"/>
     </g>
    </g>
    <g id="line2d_26">
     <path d="M 301.479375 98.604813 
L 321.479375 98.604813 
" style="fill:none;stroke:#d62728;stroke-linecap:square;stroke-width:1.5;"/>
    </g>
    <g id="line2d_27"/>
    <g id="text_19">
     <!-- DQBS -->
     <g transform="translate(329.479375 102.104813)scale(0.1 -0.1)">
      <defs>
       <path d="M 3425 4513 
L 3425 3897 
Q 3066 4069 2747 4153 
Q 2428 4238 2131 4238 
Q 1616 4238 1336 4038 
Q 1056 3838 1056 3469 
Q 1056 3159 1242 3001 
Q 1428 2844 1947 2747 
L 2328 2669 
Q 3034 2534 3370 2195 
Q 3706 1856 3706 1288 
Q 3706 609 3251 259 
Q 2797 -91 1919 -91 
Q 1588 -91 1214 -16 
Q 841 59 441 206 
L 441 856 
Q 825 641 1194 531 
Q 1563 422 1919 422 
Q 2459 422 2753 634 
Q 3047 847 3047 1241 
Q 3047 1584 2836 1778 
Q 2625 1972 2144 2069 
L 1759 2144 
Q 1053 2284 737 2584 
Q 422 2884 422 3419 
Q 422 4038 858 4394 
Q 1294 4750 2059 4750 
Q 2388 4750 2728 4690 
Q 3069 4631 3425 4513 
z
" id="DejaVuSans-53" transform="scale(0.015625)"/>
      </defs>
      <use xlink:href="#DejaVuSans-44"/>
      <use x="77.001953" xlink:href="#DejaVuSans-51"/>
      <use x="155.712891" xlink:href="#DejaVuSans-42"/>
      <use x="222.566406" xlink:href="#DejaVuSans-53"/>
     </g>
    </g>
   </g>
  </g>
 </g>
 <defs>
  <clipPath id="p49d363bcc5">
   <rect height="266.112" width="357.12" x="57.6" y="41.472"/>
  </clipPath>
 </defs>
</svg>
