<?xml version="1.0" encoding="utf-8" standalone="no"?>
<!DOCTYPE svg PUBLIC "-//W3C//DTD SVG 1.1//EN"
  "http://www.w3.org/Graphics/SVG/1.1/DTD/svg11.dtd">
<svg height="345.6pt" version="1.1" viewBox="0 0 460.8 345.6" width="460.8pt" xmlns="http://www.w3.org/2000/svg" xmlns:xlink="http://www.w3.org/1999/xlink">
 <metadata>
  <rdf:RDF xmlns:cc="http://creativecommons.org/ns#" xmlns:dc="http://purl.org/dc/elements/1.1/" xmlns:rdf="http://www.w3.org/1999/02/22-rdf-syntax-ns#">
   <cc:Work>
    <dc:type rdf:resource="http://purl.org/dc/dcmitype/StillImage"/>
    <dc:date>2022-01-03T21:37:53.776313</dc:date>
    <dc:format>image/svg+xml</dc:format>
    <dc:creator>
     <cc:Agent>
      <dc:title>Matplotlib v3.4.2, https://matplotlib.org/</dc:title>
     </cc:Agent>
    </dc:creator>
   </cc:Work>
  </rdf:RDF>
 </metadata>
 <defs>
  <style type="text/css">*{stroke-linecap:butt;stroke-linejoin:round;}</style>
 </defs>
 <g id="figure_1">
  <g id="patch_1">
   <path d="M 0 345.6 
L 460.8 345.6 
L 460.8 0 
L 0 0 
z
" style="fill:#ffffff;"/>
  </g>
  <g id="axes_1">
   <g id="patch_2">
    <path d="M 57.6 307.584 
L 414.72 307.584 
L 414.72 41.472 
L 57.6 41.472 
z
" style="fill:#ffffff;"/>
   </g>
   <g id="PolyCollection_1">
    <path clip-path="url(#p10058094d5)" d="M 73.832727 268.04484 
L 73.832727 268.04484 
L 82.157203 268.04484 
L 90.481678 268.04484 
L 98.806154 268.04484 
L 107.130629 268.04484 
L 115.455105 268.04484 
L 123.77958 268.04484 
L 132.104056 268.04484 
L 140.428531 268.04484 
L 148.753007 268.04484 
L 157.077483 268.04484 
L 165.401958 268.04484 
L 173.726434 268.04484 
L 182.050909 268.04484 
L 190.375385 268.04484 
L 198.69986 268.04484 
L 207.024336 268.04484 
L 215.348811 268.04484 
L 223.673287 268.551474 
L 231.997762 271.319258 
L 240.322238 274.458643 
L 248.646713 269.598874 
L 256.971189 268.554096 
L 265.295664 271.426805 
L 273.62014 275.718127 
L 281.944615 278.794624 
L 290.269091 279.961293 
L 298.593566 264.559327 
L 306.918042 261.680709 
L 315.242517 253.243736 
L 323.566993 253.901817 
L 331.891469 252.248277 
L 340.215944 260.308009 
L 348.54042 268.972933 
L 356.864895 268.501768 
L 365.189371 272.608707 
L 373.513846 275.939818 
L 381.838322 261.17184 
L 390.162797 244.153027 
L 398.487273 252.525041 
L 398.487273 252.525041 
L 398.487273 143.536082 
L 390.162797 134.338861 
L 381.838322 134.215053 
L 373.513846 159.054585 
L 365.189371 154.007282 
L 356.864895 150.570655 
L 348.54042 153.78644 
L 340.215944 142.262345 
L 331.891469 138.523733 
L 323.566993 146.523207 
L 315.242517 156.222407 
L 306.918042 168.114185 
L 298.593566 172.711067 
L 290.269091 173.2287 
L 281.944615 181.563687 
L 273.62014 186.637174 
L 265.295664 186.309274 
L 256.971189 197.658582 
L 248.646713 210.884173 
L 240.322238 244.108202 
L 231.997762 255.824547 
L 223.673287 266.154058 
L 215.348811 268.04484 
L 207.024336 268.04484 
L 198.69986 268.04484 
L 190.375385 268.04484 
L 182.050909 268.04484 
L 173.726434 268.04484 
L 165.401958 268.04484 
L 157.077483 268.04484 
L 148.753007 268.04484 
L 140.428531 268.04484 
L 132.104056 268.04484 
L 123.77958 268.04484 
L 115.455105 268.04484 
L 107.130629 268.04484 
L 98.806154 268.04484 
L 90.481678 268.04484 
L 82.157203 268.04484 
L 73.832727 268.04484 
z
" style="fill:#1f77b4;fill-opacity:0.3;"/>
   </g>
   <g id="PolyCollection_2">
    <path clip-path="url(#p10058094d5)" d="M 73.832727 268.04484 
L 73.832727 268.04484 
L 82.157203 268.04484 
L 90.481678 268.04484 
L 98.806154 268.04484 
L 107.130629 268.04484 
L 115.455105 268.04484 
L 123.77958 268.04484 
L 132.104056 268.04484 
L 140.428531 268.04484 
L 148.753007 268.04484 
L 157.077483 268.04484 
L 165.401958 268.04484 
L 173.726434 268.04484 
L 182.050909 268.04484 
L 190.375385 268.04484 
L 198.69986 268.124196 
L 207.024336 276.590567 
L 215.348811 281.560468 
L 223.673287 285.336009 
L 231.997762 286.933198 
L 240.322238 265.83437 
L 248.646713 252.354891 
L 256.971189 241.937171 
L 265.295664 238.983954 
L 273.62014 244.540899 
L 281.944615 250.105358 
L 290.269091 253.728021 
L 298.593566 240.302101 
L 306.918042 228.076605 
L 315.242517 222.092447 
L 323.566993 221.880239 
L 331.891469 188.301731 
L 340.215944 164.376962 
L 348.54042 150.852993 
L 356.864895 146.721888 
L 365.189371 159.501443 
L 373.513846 150.062086 
L 381.838322 154.315713 
L 390.162797 152.584658 
L 398.487273 150.303043 
L 398.487273 150.303043 
L 398.487273 85.016363 
L 390.162797 86.415218 
L 381.838322 89.548211 
L 373.513846 106.974677 
L 365.189371 100.955842 
L 356.864895 95.682862 
L 348.54042 98.234769 
L 340.215944 83.864742 
L 331.891469 89.074721 
L 323.566993 93.720845 
L 315.242517 96.399003 
L 306.918042 112.519519 
L 298.593566 126.259498 
L 290.269091 138.15944 
L 281.944615 149.070237 
L 273.62014 155.023946 
L 265.295664 153.965486 
L 256.971189 168.058374 
L 248.646713 156.717741 
L 240.322238 164.387515 
L 231.997762 194.201362 
L 223.673287 203.278849 
L 215.348811 217.269013 
L 207.024336 235.674013 
L 198.69986 267.74868 
L 190.375385 268.04484 
L 182.050909 268.04484 
L 173.726434 268.04484 
L 165.401958 268.04484 
L 157.077483 268.04484 
L 148.753007 268.04484 
L 140.428531 268.04484 
L 132.104056 268.04484 
L 123.77958 268.04484 
L 115.455105 268.04484 
L 107.130629 268.04484 
L 98.806154 268.04484 
L 90.481678 268.04484 
L 82.157203 268.04484 
L 73.832727 268.04484 
z
" style="fill:#ff7f0e;fill-opacity:0.3;"/>
   </g>
   <g id="PolyCollection_3">
    <path clip-path="url(#p10058094d5)" d="M 73.832727 268.04484 
L 73.832727 268.04484 
L 82.157203 268.04484 
L 90.481678 268.04484 
L 98.806154 268.04484 
L 107.130629 268.04484 
L 115.455105 268.04484 
L 123.77958 268.04484 
L 132.104056 268.04484 
L 140.428531 268.04484 
L 148.753007 268.04484 
L 157.077483 268.04484 
L 165.401958 268.04484 
L 173.726434 268.04484 
L 182.050909 268.04484 
L 190.375385 268.04484 
L 198.69986 268.04484 
L 207.024336 277.24713 
L 215.348811 285.88753 
L 223.673287 283.458921 
L 231.997762 285.332093 
L 240.322238 289.261782 
L 248.646713 291.811542 
L 256.971189 295.488 
L 265.295664 277.867342 
L 273.62014 270.928317 
L 281.944615 254.482815 
L 290.269091 247.482025 
L 298.593566 241.419968 
L 306.918042 230.714368 
L 315.242517 202.635227 
L 323.566993 185.04013 
L 331.891469 178.023566 
L 340.215944 173.558586 
L 348.54042 163.04418 
L 356.864895 149.957579 
L 365.189371 139.290306 
L 373.513846 158.357319 
L 381.838322 163.364485 
L 390.162797 141.887561 
L 398.487273 135.987231 
L 398.487273 135.987231 
L 398.487273 62.072773 
L 390.162797 68.630114 
L 381.838322 60.468195 
L 373.513846 78.115774 
L 365.189371 72.431747 
L 356.864895 70.975134 
L 348.54042 76.384556 
L 340.215944 77.341106 
L 331.891469 90.126806 
L 323.566993 109.821952 
L 315.242517 118.641662 
L 306.918042 114.11299 
L 298.593566 137.18443 
L 290.269091 100.996243 
L 281.944615 110.114668 
L 273.62014 133.427354 
L 265.295664 152.561503 
L 256.971189 165.625574 
L 248.646713 179.346303 
L 240.322238 188.862136 
L 231.997762 203.527936 
L 223.673287 210.518707 
L 215.348811 201.455015 
L 207.024336 233.701427 
L 198.69986 268.04484 
L 190.375385 268.04484 
L 182.050909 268.04484 
L 173.726434 268.04484 
L 165.401958 268.04484 
L 157.077483 268.04484 
L 148.753007 268.04484 
L 140.428531 268.04484 
L 132.104056 268.04484 
L 123.77958 268.04484 
L 115.455105 268.04484 
L 107.130629 268.04484 
L 98.806154 268.04484 
L 90.481678 268.04484 
L 82.157203 268.04484 
L 73.832727 268.04484 
z
" style="fill:#2ca02c;fill-opacity:0.3;"/>
   </g>
   <g id="PolyCollection_4">
    <path clip-path="url(#p10058094d5)" d="M 73.832727 268.04484 
L 73.832727 268.04484 
L 82.157203 268.04484 
L 90.481678 268.04484 
L 98.806154 268.04484 
L 107.130629 268.04484 
L 115.455105 268.04484 
L 123.77958 268.04484 
L 132.104056 268.04484 
L 140.428531 268.04484 
L 148.753007 268.04484 
L 157.077483 268.04484 
L 165.401958 268.903709 
L 173.726434 268.646048 
L 182.050909 268.465686 
L 190.375385 268.339432 
L 198.69986 268.251055 
L 207.024336 271.619322 
L 215.348811 268.328992 
L 223.673287 268.049631 
L 231.997762 268.100813 
L 240.322238 264.993507 
L 248.646713 246.464784 
L 256.971189 238.972688 
L 265.295664 232.803348 
L 273.62014 237.617563 
L 281.944615 228.638826 
L 290.269091 227.066042 
L 298.593566 219.794945 
L 306.918042 217.6783 
L 315.242517 216.218432 
L 323.566993 217.054318 
L 331.891469 213.19204 
L 340.215944 215.516707 
L 348.54042 211.335885 
L 356.864895 190.955872 
L 365.189371 177.541261 
L 373.513846 199.060486 
L 381.838322 146.450909 
L 390.162797 123.892508 
L 398.487273 114.952189 
L 398.487273 114.952189 
L 398.487273 68.678015 
L 390.162797 73.515253 
L 381.838322 83.319674 
L 373.513846 88.572466 
L 365.189371 92.683345 
L 356.864895 66.727914 
L 348.54042 55.520334 
L 340.215944 59.53452 
L 331.891469 53.568 
L 323.566993 68.610598 
L 315.242517 62.504755 
L 306.918042 73.329683 
L 298.593566 81.833063 
L 290.269091 98.069117 
L 281.944615 101.428522 
L 273.62014 129.097686 
L 265.295664 112.946223 
L 256.971189 104.127534 
L 248.646713 118.662683 
L 240.322238 132.804146 
L 231.997762 170.211075 
L 223.673287 195.260369 
L 215.348811 192.316965 
L 207.024336 233.30418 
L 198.69986 267.275238 
L 190.375385 266.945408 
L 182.050909 266.474223 
L 173.726434 265.801102 
L 165.401958 264.8395 
L 157.077483 268.04484 
L 148.753007 268.04484 
L 140.428531 268.04484 
L 132.104056 268.04484 
L 123.77958 268.04484 
L 115.455105 268.04484 
L 107.130629 268.04484 
L 98.806154 268.04484 
L 90.481678 268.04484 
L 82.157203 268.04484 
L 73.832727 268.04484 
z
" style="fill:#d62728;fill-opacity:0.3;"/>
   </g>
   <g id="matplotlib.axis_1">
    <g id="xtick_1">
     <g id="line2d_1">
      <defs>
       <path d="M 0 0 
L 0 3.5 
" id="mb859e43d63" style="stroke:#000000;stroke-width:0.8;"/>
      </defs>
      <g>
       <use style="stroke:#000000;stroke-width:0.8;" x="65.508252" xlink:href="#mb859e43d63" y="307.584"/>
      </g>
     </g>
     <g id="text_1">
      <!-- 0 -->
      <g transform="translate(62.327002 322.182437)scale(0.1 -0.1)">
       <defs>
        <path d="M 2034 4250 
Q 1547 4250 1301 3770 
Q 1056 3291 1056 2328 
Q 1056 1369 1301 889 
Q 1547 409 2034 409 
Q 2525 409 2770 889 
Q 3016 1369 3016 2328 
Q 3016 3291 2770 3770 
Q 2525 4250 2034 4250 
z
M 2034 4750 
Q 2819 4750 3233 4129 
Q 3647 3509 3647 2328 
Q 3647 1150 3233 529 
Q 2819 -91 2034 -91 
Q 1250 -91 836 529 
Q 422 1150 422 2328 
Q 422 3509 836 4129 
Q 1250 4750 2034 4750 
z
" id="DejaVuSans-30" transform="scale(0.015625)"/>
       </defs>
       <use xlink:href="#DejaVuSans-30"/>
      </g>
     </g>
    </g>
    <g id="xtick_2">
     <g id="line2d_2">
      <g>
       <use style="stroke:#000000;stroke-width:0.8;" x="107.130629" xlink:href="#mb859e43d63" y="307.584"/>
      </g>
     </g>
     <g id="text_2">
      <!-- 50 -->
      <g transform="translate(100.768129 322.182437)scale(0.1 -0.1)">
       <defs>
        <path d="M 691 4666 
L 3169 4666 
L 3169 4134 
L 1269 4134 
L 1269 2991 
Q 1406 3038 1543 3061 
Q 1681 3084 1819 3084 
Q 2600 3084 3056 2656 
Q 3513 2228 3513 1497 
Q 3513 744 3044 326 
Q 2575 -91 1722 -91 
Q 1428 -91 1123 -41 
Q 819 9 494 109 
L 494 744 
Q 775 591 1075 516 
Q 1375 441 1709 441 
Q 2250 441 2565 725 
Q 2881 1009 2881 1497 
Q 2881 1984 2565 2268 
Q 2250 2553 1709 2553 
Q 1456 2553 1204 2497 
Q 953 2441 691 2322 
L 691 4666 
z
" id="DejaVuSans-35" transform="scale(0.015625)"/>
       </defs>
       <use xlink:href="#DejaVuSans-35"/>
       <use x="63.623047" xlink:href="#DejaVuSans-30"/>
      </g>
     </g>
    </g>
    <g id="xtick_3">
     <g id="line2d_3">
      <g>
       <use style="stroke:#000000;stroke-width:0.8;" x="148.753007" xlink:href="#mb859e43d63" y="307.584"/>
      </g>
     </g>
     <g id="text_3">
      <!-- 100 -->
      <g transform="translate(139.209257 322.182437)scale(0.1 -0.1)">
       <defs>
        <path d="M 794 531 
L 1825 531 
L 1825 4091 
L 703 3866 
L 703 4441 
L 1819 4666 
L 2450 4666 
L 2450 531 
L 3481 531 
L 3481 0 
L 794 0 
L 794 531 
z
" id="DejaVuSans-31" transform="scale(0.015625)"/>
       </defs>
       <use xlink:href="#DejaVuSans-31"/>
       <use x="63.623047" xlink:href="#DejaVuSans-30"/>
       <use x="127.246094" xlink:href="#DejaVuSans-30"/>
      </g>
     </g>
    </g>
    <g id="xtick_4">
     <g id="line2d_4">
      <g>
       <use style="stroke:#000000;stroke-width:0.8;" x="190.375385" xlink:href="#mb859e43d63" y="307.584"/>
      </g>
     </g>
     <g id="text_4">
      <!-- 150 -->
      <g transform="translate(180.831635 322.182437)scale(0.1 -0.1)">
       <use xlink:href="#DejaVuSans-31"/>
       <use x="63.623047" xlink:href="#DejaVuSans-35"/>
       <use x="127.246094" xlink:href="#DejaVuSans-30"/>
      </g>
     </g>
    </g>
    <g id="xtick_5">
     <g id="line2d_5">
      <g>
       <use style="stroke:#000000;stroke-width:0.8;" x="231.997762" xlink:href="#mb859e43d63" y="307.584"/>
      </g>
     </g>
     <g id="text_5">
      <!-- 200 -->
      <g transform="translate(222.454012 322.182437)scale(0.1 -0.1)">
       <defs>
        <path d="M 1228 531 
L 3431 531 
L 3431 0 
L 469 0 
L 469 531 
Q 828 903 1448 1529 
Q 2069 2156 2228 2338 
Q 2531 2678 2651 2914 
Q 2772 3150 2772 3378 
Q 2772 3750 2511 3984 
Q 2250 4219 1831 4219 
Q 1534 4219 1204 4116 
Q 875 4013 500 3803 
L 500 4441 
Q 881 4594 1212 4672 
Q 1544 4750 1819 4750 
Q 2544 4750 2975 4387 
Q 3406 4025 3406 3419 
Q 3406 3131 3298 2873 
Q 3191 2616 2906 2266 
Q 2828 2175 2409 1742 
Q 1991 1309 1228 531 
z
" id="DejaVuSans-32" transform="scale(0.015625)"/>
       </defs>
       <use xlink:href="#DejaVuSans-32"/>
       <use x="63.623047" xlink:href="#DejaVuSans-30"/>
       <use x="127.246094" xlink:href="#DejaVuSans-30"/>
      </g>
     </g>
    </g>
    <g id="xtick_6">
     <g id="line2d_6">
      <g>
       <use style="stroke:#000000;stroke-width:0.8;" x="273.62014" xlink:href="#mb859e43d63" y="307.584"/>
      </g>
     </g>
     <g id="text_6">
      <!-- 250 -->
      <g transform="translate(264.07639 322.182437)scale(0.1 -0.1)">
       <use xlink:href="#DejaVuSans-32"/>
       <use x="63.623047" xlink:href="#DejaVuSans-35"/>
       <use x="127.246094" xlink:href="#DejaVuSans-30"/>
      </g>
     </g>
    </g>
    <g id="xtick_7">
     <g id="line2d_7">
      <g>
       <use style="stroke:#000000;stroke-width:0.8;" x="315.242517" xlink:href="#mb859e43d63" y="307.584"/>
      </g>
     </g>
     <g id="text_7">
      <!-- 300 -->
      <g transform="translate(305.698767 322.182437)scale(0.1 -0.1)">
       <defs>
        <path d="M 2597 2516 
Q 3050 2419 3304 2112 
Q 3559 1806 3559 1356 
Q 3559 666 3084 287 
Q 2609 -91 1734 -91 
Q 1441 -91 1130 -33 
Q 819 25 488 141 
L 488 750 
Q 750 597 1062 519 
Q 1375 441 1716 441 
Q 2309 441 2620 675 
Q 2931 909 2931 1356 
Q 2931 1769 2642 2001 
Q 2353 2234 1838 2234 
L 1294 2234 
L 1294 2753 
L 1863 2753 
Q 2328 2753 2575 2939 
Q 2822 3125 2822 3475 
Q 2822 3834 2567 4026 
Q 2313 4219 1838 4219 
Q 1578 4219 1281 4162 
Q 984 4106 628 3988 
L 628 4550 
Q 988 4650 1302 4700 
Q 1616 4750 1894 4750 
Q 2613 4750 3031 4423 
Q 3450 4097 3450 3541 
Q 3450 3153 3228 2886 
Q 3006 2619 2597 2516 
z
" id="DejaVuSans-33" transform="scale(0.015625)"/>
       </defs>
       <use xlink:href="#DejaVuSans-33"/>
       <use x="63.623047" xlink:href="#DejaVuSans-30"/>
       <use x="127.246094" xlink:href="#DejaVuSans-30"/>
      </g>
     </g>
    </g>
    <g id="xtick_8">
     <g id="line2d_8">
      <g>
       <use style="stroke:#000000;stroke-width:0.8;" x="356.864895" xlink:href="#mb859e43d63" y="307.584"/>
      </g>
     </g>
     <g id="text_8">
      <!-- 350 -->
      <g transform="translate(347.321145 322.182437)scale(0.1 -0.1)">
       <use xlink:href="#DejaVuSans-33"/>
       <use x="63.623047" xlink:href="#DejaVuSans-35"/>
       <use x="127.246094" xlink:href="#DejaVuSans-30"/>
      </g>
     </g>
    </g>
    <g id="xtick_9">
     <g id="line2d_9">
      <g>
       <use style="stroke:#000000;stroke-width:0.8;" x="398.487273" xlink:href="#mb859e43d63" y="307.584"/>
      </g>
     </g>
     <g id="text_9">
      <!-- 400 -->
      <g transform="translate(388.943523 322.182437)scale(0.1 -0.1)">
       <defs>
        <path d="M 2419 4116 
L 825 1625 
L 2419 1625 
L 2419 4116 
z
M 2253 4666 
L 3047 4666 
L 3047 1625 
L 3713 1625 
L 3713 1100 
L 3047 1100 
L 3047 0 
L 2419 0 
L 2419 1100 
L 313 1100 
L 313 1709 
L 2253 4666 
z
" id="DejaVuSans-34" transform="scale(0.015625)"/>
       </defs>
       <use xlink:href="#DejaVuSans-34"/>
       <use x="63.623047" xlink:href="#DejaVuSans-30"/>
       <use x="127.246094" xlink:href="#DejaVuSans-30"/>
      </g>
     </g>
    </g>
   </g>
   <g id="matplotlib.axis_2">
    <g id="ytick_1">
     <g id="line2d_10">
      <defs>
       <path d="M 0 0 
L -3.5 0 
" id="mb0a2c32609" style="stroke:#000000;stroke-width:0.8;"/>
      </defs>
      <g>
       <use style="stroke:#000000;stroke-width:0.8;" x="57.6" xlink:href="#mb0a2c32609" y="264.076867"/>
      </g>
     </g>
     <g id="text_10">
      <!-- −180 -->
      <g transform="translate(23.132812 267.876086)scale(0.1 -0.1)">
       <defs>
        <path d="M 678 2272 
L 4684 2272 
L 4684 1741 
L 678 1741 
L 678 2272 
z
" id="DejaVuSans-2212" transform="scale(0.015625)"/>
        <path d="M 2034 2216 
Q 1584 2216 1326 1975 
Q 1069 1734 1069 1313 
Q 1069 891 1326 650 
Q 1584 409 2034 409 
Q 2484 409 2743 651 
Q 3003 894 3003 1313 
Q 3003 1734 2745 1975 
Q 2488 2216 2034 2216 
z
M 1403 2484 
Q 997 2584 770 2862 
Q 544 3141 544 3541 
Q 544 4100 942 4425 
Q 1341 4750 2034 4750 
Q 2731 4750 3128 4425 
Q 3525 4100 3525 3541 
Q 3525 3141 3298 2862 
Q 3072 2584 2669 2484 
Q 3125 2378 3379 2068 
Q 3634 1759 3634 1313 
Q 3634 634 3220 271 
Q 2806 -91 2034 -91 
Q 1263 -91 848 271 
Q 434 634 434 1313 
Q 434 1759 690 2068 
Q 947 2378 1403 2484 
z
M 1172 3481 
Q 1172 3119 1398 2916 
Q 1625 2713 2034 2713 
Q 2441 2713 2670 2916 
Q 2900 3119 2900 3481 
Q 2900 3844 2670 4047 
Q 2441 4250 2034 4250 
Q 1625 4250 1398 4047 
Q 1172 3844 1172 3481 
z
" id="DejaVuSans-38" transform="scale(0.015625)"/>
       </defs>
       <use xlink:href="#DejaVuSans-2212"/>
       <use x="83.789062" xlink:href="#DejaVuSans-31"/>
       <use x="147.412109" xlink:href="#DejaVuSans-38"/>
       <use x="211.035156" xlink:href="#DejaVuSans-30"/>
      </g>
     </g>
    </g>
    <g id="ytick_2">
     <g id="line2d_11">
      <g>
       <use style="stroke:#000000;stroke-width:0.8;" x="57.6" xlink:href="#mb0a2c32609" y="205.343003"/>
      </g>
     </g>
     <g id="text_11">
      <!-- −160 -->
      <g transform="translate(23.132812 209.142222)scale(0.1 -0.1)">
       <defs>
        <path d="M 2113 2584 
Q 1688 2584 1439 2293 
Q 1191 2003 1191 1497 
Q 1191 994 1439 701 
Q 1688 409 2113 409 
Q 2538 409 2786 701 
Q 3034 994 3034 1497 
Q 3034 2003 2786 2293 
Q 2538 2584 2113 2584 
z
M 3366 4563 
L 3366 3988 
Q 3128 4100 2886 4159 
Q 2644 4219 2406 4219 
Q 1781 4219 1451 3797 
Q 1122 3375 1075 2522 
Q 1259 2794 1537 2939 
Q 1816 3084 2150 3084 
Q 2853 3084 3261 2657 
Q 3669 2231 3669 1497 
Q 3669 778 3244 343 
Q 2819 -91 2113 -91 
Q 1303 -91 875 529 
Q 447 1150 447 2328 
Q 447 3434 972 4092 
Q 1497 4750 2381 4750 
Q 2619 4750 2861 4703 
Q 3103 4656 3366 4563 
z
" id="DejaVuSans-36" transform="scale(0.015625)"/>
       </defs>
       <use xlink:href="#DejaVuSans-2212"/>
       <use x="83.789062" xlink:href="#DejaVuSans-31"/>
       <use x="147.412109" xlink:href="#DejaVuSans-36"/>
       <use x="211.035156" xlink:href="#DejaVuSans-30"/>
      </g>
     </g>
    </g>
    <g id="ytick_3">
     <g id="line2d_12">
      <g>
       <use style="stroke:#000000;stroke-width:0.8;" x="57.6" xlink:href="#mb0a2c32609" y="146.609139"/>
      </g>
     </g>
     <g id="text_12">
      <!-- −140 -->
      <g transform="translate(23.132812 150.408358)scale(0.1 -0.1)">
       <use xlink:href="#DejaVuSans-2212"/>
       <use x="83.789062" xlink:href="#DejaVuSans-31"/>
       <use x="147.412109" xlink:href="#DejaVuSans-34"/>
       <use x="211.035156" xlink:href="#DejaVuSans-30"/>
      </g>
     </g>
    </g>
    <g id="ytick_4">
     <g id="line2d_13">
      <g>
       <use style="stroke:#000000;stroke-width:0.8;" x="57.6" xlink:href="#mb0a2c32609" y="87.875275"/>
      </g>
     </g>
     <g id="text_13">
      <!-- −120 -->
      <g transform="translate(23.132812 91.674494)scale(0.1 -0.1)">
       <use xlink:href="#DejaVuSans-2212"/>
       <use x="83.789062" xlink:href="#DejaVuSans-31"/>
       <use x="147.412109" xlink:href="#DejaVuSans-32"/>
       <use x="211.035156" xlink:href="#DejaVuSans-30"/>
      </g>
     </g>
    </g>
   </g>
   <g id="line2d_14">
    <path clip-path="url(#p10058094d5)" d="M 73.832727 268.04484 
L 82.157203 268.04484 
L 90.481678 268.04484 
L 98.806154 268.04484 
L 107.130629 268.04484 
L 115.455105 268.04484 
L 123.77958 268.04484 
L 132.104056 268.04484 
L 140.428531 268.04484 
L 148.753007 268.04484 
L 157.077483 268.04484 
L 165.401958 268.04484 
L 173.726434 268.04484 
L 182.050909 268.04484 
L 190.375385 268.04484 
L 198.69986 268.04484 
L 207.024336 268.04484 
L 215.348811 268.04484 
L 223.673287 267.352766 
L 231.997762 263.571902 
L 240.322238 259.283423 
L 248.646713 240.241524 
L 256.971189 233.106339 
L 265.295664 228.868039 
L 273.62014 231.177651 
L 281.944615 230.179156 
L 290.269091 226.594997 
L 298.593566 218.635197 
L 306.918042 214.897447 
L 315.242517 204.733072 
L 323.566993 200.212512 
L 331.891469 195.386005 
L 340.215944 201.285177 
L 348.54042 211.379686 
L 356.864895 209.536211 
L 365.189371 213.307995 
L 373.513846 217.497201 
L 381.838322 197.693447 
L 390.162797 189.245944 
L 398.487273 198.030562 
" style="fill:none;stroke:#1f77b4;stroke-linecap:square;stroke-width:1.5;"/>
   </g>
   <g id="line2d_15">
    <path clip-path="url(#p10058094d5)" d="M 73.832727 268.04484 
L 82.157203 268.04484 
L 90.481678 268.04484 
L 98.806154 268.04484 
L 107.130629 268.04484 
L 115.455105 268.04484 
L 123.77958 268.04484 
L 132.104056 268.04484 
L 140.428531 268.04484 
L 148.753007 268.04484 
L 157.077483 268.04484 
L 165.401958 268.04484 
L 173.726434 268.04484 
L 182.050909 268.04484 
L 190.375385 268.04484 
L 198.69986 267.936438 
L 207.024336 256.13229 
L 215.348811 249.414741 
L 223.673287 244.307429 
L 231.997762 240.56728 
L 240.322238 215.110942 
L 248.646713 204.536316 
L 256.971189 204.997773 
L 265.295664 196.47472 
L 273.62014 199.782422 
L 281.944615 199.587797 
L 290.269091 195.943731 
L 298.593566 183.280799 
L 306.918042 170.298062 
L 315.242517 159.245725 
L 323.566993 157.800542 
L 331.891469 138.688226 
L 340.215944 124.120852 
L 348.54042 124.543881 
L 356.864895 121.202375 
L 365.189371 130.228642 
L 373.513846 128.518381 
L 381.838322 121.931962 
L 390.162797 119.499938 
L 398.487273 117.659703 
" style="fill:none;stroke:#ff7f0e;stroke-linecap:square;stroke-width:1.5;"/>
   </g>
   <g id="line2d_16">
    <path clip-path="url(#p10058094d5)" d="M 73.832727 268.04484 
L 82.157203 268.04484 
L 90.481678 268.04484 
L 98.806154 268.04484 
L 107.130629 268.04484 
L 115.455105 268.04484 
L 123.77958 268.04484 
L 132.104056 268.04484 
L 140.428531 268.04484 
L 148.753007 268.04484 
L 157.077483 268.04484 
L 165.401958 268.04484 
L 173.726434 268.04484 
L 182.050909 268.04484 
L 190.375385 268.04484 
L 198.69986 268.04484 
L 207.024336 255.474279 
L 215.348811 243.671273 
L 223.673287 246.988814 
L 231.997762 244.430014 
L 240.322238 239.061959 
L 248.646713 235.578923 
L 256.971189 230.556787 
L 265.295664 215.214422 
L 273.62014 202.177836 
L 281.944615 182.298742 
L 290.269091 174.239134 
L 298.593566 189.302199 
L 306.918042 172.413679 
L 315.242517 160.638445 
L 323.566993 147.431041 
L 331.891469 134.075186 
L 340.215944 125.449846 
L 348.54042 119.714368 
L 356.864895 110.466357 
L 365.189371 105.861027 
L 373.513846 118.236547 
L 381.838322 111.91634 
L 390.162797 105.258837 
L 398.487273 99.030002 
" style="fill:none;stroke:#2ca02c;stroke-linecap:square;stroke-width:1.5;"/>
   </g>
   <g id="line2d_17">
    <path clip-path="url(#p10058094d5)" d="M 73.832727 268.04484 
L 82.157203 268.04484 
L 90.481678 268.04484 
L 98.806154 268.04484 
L 107.130629 268.04484 
L 115.455105 268.04484 
L 123.77958 268.04484 
L 132.104056 268.04484 
L 140.428531 268.04484 
L 148.753007 268.04484 
L 157.077483 268.04484 
L 165.401958 266.871604 
L 173.726434 267.223575 
L 182.050909 267.469955 
L 190.375385 267.64242 
L 198.69986 267.763146 
L 207.024336 252.461751 
L 215.348811 230.322979 
L 223.673287 231.655 
L 231.997762 219.155944 
L 240.322238 198.898826 
L 248.646713 182.563733 
L 256.971189 171.550111 
L 265.295664 172.874785 
L 273.62014 183.357624 
L 281.944615 165.033674 
L 290.269091 162.567579 
L 298.593566 150.814004 
L 306.918042 145.503991 
L 315.242517 139.361594 
L 323.566993 142.832458 
L 331.891469 133.38002 
L 340.215944 137.525614 
L 348.54042 133.428109 
L 356.864895 128.841893 
L 365.189371 135.112303 
L 373.513846 143.816476 
L 381.838322 114.885291 
L 390.162797 98.703881 
L 398.487273 91.815102 
" style="fill:none;stroke:#d62728;stroke-linecap:square;stroke-width:1.5;"/>
   </g>
   <g id="patch_3">
    <path d="M 57.6 307.584 
L 57.6 41.472 
" style="fill:none;stroke:#000000;stroke-linecap:square;stroke-linejoin:miter;stroke-width:0.8;"/>
   </g>
   <g id="patch_4">
    <path d="M 414.72 307.584 
L 414.72 41.472 
" style="fill:none;stroke:#000000;stroke-linecap:square;stroke-linejoin:miter;stroke-width:0.8;"/>
   </g>
   <g id="patch_5">
    <path d="M 57.6 307.584 
L 414.72 307.584 
" style="fill:none;stroke:#000000;stroke-linecap:square;stroke-linejoin:miter;stroke-width:0.8;"/>
   </g>
   <g id="patch_6">
    <path d="M 57.6 41.472 
L 414.72 41.472 
" style="fill:none;stroke:#000000;stroke-linecap:square;stroke-linejoin:miter;stroke-width:0.8;"/>
   </g>
   <g id="legend_1">
    <g id="patch_7">
     <path d="M 64.6 108.1845 
L 169.457812 108.1845 
Q 171.457812 108.1845 171.457812 106.1845 
L 171.457812 48.472 
Q 171.457812 46.472 169.457812 46.472 
L 64.6 46.472 
Q 62.6 46.472 62.6 48.472 
L 62.6 106.1845 
Q 62.6 108.1845 64.6 108.1845 
z
" style="fill:#ffffff;opacity:0.8;stroke:#cccccc;stroke-linejoin:miter;"/>
    </g>
    <g id="line2d_18">
     <path d="M 66.6 54.570438 
L 86.6 54.570438 
" style="fill:none;stroke:#1f77b4;stroke-linecap:square;stroke-width:1.5;"/>
    </g>
    <g id="line2d_19"/>
    <g id="text_14">
     <!-- backstep = 1 -->
     <g transform="translate(94.6 58.070438)scale(0.1 -0.1)">
      <defs>
       <path d="M 3116 1747 
Q 3116 2381 2855 2742 
Q 2594 3103 2138 3103 
Q 1681 3103 1420 2742 
Q 1159 2381 1159 1747 
Q 1159 1113 1420 752 
Q 1681 391 2138 391 
Q 2594 391 2855 752 
Q 3116 1113 3116 1747 
z
M 1159 2969 
Q 1341 3281 1617 3432 
Q 1894 3584 2278 3584 
Q 2916 3584 3314 3078 
Q 3713 2572 3713 1747 
Q 3713 922 3314 415 
Q 2916 -91 2278 -91 
Q 1894 -91 1617 61 
Q 1341 213 1159 525 
L 1159 0 
L 581 0 
L 581 4863 
L 1159 4863 
L 1159 2969 
z
" id="DejaVuSans-62" transform="scale(0.015625)"/>
       <path d="M 2194 1759 
Q 1497 1759 1228 1600 
Q 959 1441 959 1056 
Q 959 750 1161 570 
Q 1363 391 1709 391 
Q 2188 391 2477 730 
Q 2766 1069 2766 1631 
L 2766 1759 
L 2194 1759 
z
M 3341 1997 
L 3341 0 
L 2766 0 
L 2766 531 
Q 2569 213 2275 61 
Q 1981 -91 1556 -91 
Q 1019 -91 701 211 
Q 384 513 384 1019 
Q 384 1609 779 1909 
Q 1175 2209 1959 2209 
L 2766 2209 
L 2766 2266 
Q 2766 2663 2505 2880 
Q 2244 3097 1772 3097 
Q 1472 3097 1187 3025 
Q 903 2953 641 2809 
L 641 3341 
Q 956 3463 1253 3523 
Q 1550 3584 1831 3584 
Q 2591 3584 2966 3190 
Q 3341 2797 3341 1997 
z
" id="DejaVuSans-61" transform="scale(0.015625)"/>
       <path d="M 3122 3366 
L 3122 2828 
Q 2878 2963 2633 3030 
Q 2388 3097 2138 3097 
Q 1578 3097 1268 2742 
Q 959 2388 959 1747 
Q 959 1106 1268 751 
Q 1578 397 2138 397 
Q 2388 397 2633 464 
Q 2878 531 3122 666 
L 3122 134 
Q 2881 22 2623 -34 
Q 2366 -91 2075 -91 
Q 1284 -91 818 406 
Q 353 903 353 1747 
Q 353 2603 823 3093 
Q 1294 3584 2113 3584 
Q 2378 3584 2631 3529 
Q 2884 3475 3122 3366 
z
" id="DejaVuSans-63" transform="scale(0.015625)"/>
       <path d="M 581 4863 
L 1159 4863 
L 1159 1991 
L 2875 3500 
L 3609 3500 
L 1753 1863 
L 3688 0 
L 2938 0 
L 1159 1709 
L 1159 0 
L 581 0 
L 581 4863 
z
" id="DejaVuSans-6b" transform="scale(0.015625)"/>
       <path d="M 2834 3397 
L 2834 2853 
Q 2591 2978 2328 3040 
Q 2066 3103 1784 3103 
Q 1356 3103 1142 2972 
Q 928 2841 928 2578 
Q 928 2378 1081 2264 
Q 1234 2150 1697 2047 
L 1894 2003 
Q 2506 1872 2764 1633 
Q 3022 1394 3022 966 
Q 3022 478 2636 193 
Q 2250 -91 1575 -91 
Q 1294 -91 989 -36 
Q 684 19 347 128 
L 347 722 
Q 666 556 975 473 
Q 1284 391 1588 391 
Q 1994 391 2212 530 
Q 2431 669 2431 922 
Q 2431 1156 2273 1281 
Q 2116 1406 1581 1522 
L 1381 1569 
Q 847 1681 609 1914 
Q 372 2147 372 2553 
Q 372 3047 722 3315 
Q 1072 3584 1716 3584 
Q 2034 3584 2315 3537 
Q 2597 3491 2834 3397 
z
" id="DejaVuSans-73" transform="scale(0.015625)"/>
       <path d="M 1172 4494 
L 1172 3500 
L 2356 3500 
L 2356 3053 
L 1172 3053 
L 1172 1153 
Q 1172 725 1289 603 
Q 1406 481 1766 481 
L 2356 481 
L 2356 0 
L 1766 0 
Q 1100 0 847 248 
Q 594 497 594 1153 
L 594 3053 
L 172 3053 
L 172 3500 
L 594 3500 
L 594 4494 
L 1172 4494 
z
" id="DejaVuSans-74" transform="scale(0.015625)"/>
       <path d="M 3597 1894 
L 3597 1613 
L 953 1613 
Q 991 1019 1311 708 
Q 1631 397 2203 397 
Q 2534 397 2845 478 
Q 3156 559 3463 722 
L 3463 178 
Q 3153 47 2828 -22 
Q 2503 -91 2169 -91 
Q 1331 -91 842 396 
Q 353 884 353 1716 
Q 353 2575 817 3079 
Q 1281 3584 2069 3584 
Q 2775 3584 3186 3129 
Q 3597 2675 3597 1894 
z
M 3022 2063 
Q 3016 2534 2758 2815 
Q 2500 3097 2075 3097 
Q 1594 3097 1305 2825 
Q 1016 2553 972 2059 
L 3022 2063 
z
" id="DejaVuSans-65" transform="scale(0.015625)"/>
       <path d="M 1159 525 
L 1159 -1331 
L 581 -1331 
L 581 3500 
L 1159 3500 
L 1159 2969 
Q 1341 3281 1617 3432 
Q 1894 3584 2278 3584 
Q 2916 3584 3314 3078 
Q 3713 2572 3713 1747 
Q 3713 922 3314 415 
Q 2916 -91 2278 -91 
Q 1894 -91 1617 61 
Q 1341 213 1159 525 
z
M 3116 1747 
Q 3116 2381 2855 2742 
Q 2594 3103 2138 3103 
Q 1681 3103 1420 2742 
Q 1159 2381 1159 1747 
Q 1159 1113 1420 752 
Q 1681 391 2138 391 
Q 2594 391 2855 752 
Q 3116 1113 3116 1747 
z
" id="DejaVuSans-70" transform="scale(0.015625)"/>
       <path id="DejaVuSans-20" transform="scale(0.015625)"/>
       <path d="M 678 2906 
L 4684 2906 
L 4684 2381 
L 678 2381 
L 678 2906 
z
M 678 1631 
L 4684 1631 
L 4684 1100 
L 678 1100 
L 678 1631 
z
" id="DejaVuSans-3d" transform="scale(0.015625)"/>
      </defs>
      <use xlink:href="#DejaVuSans-62"/>
      <use x="63.476562" xlink:href="#DejaVuSans-61"/>
      <use x="124.755859" xlink:href="#DejaVuSans-63"/>
      <use x="179.736328" xlink:href="#DejaVuSans-6b"/>
      <use x="237.646484" xlink:href="#DejaVuSans-73"/>
      <use x="289.746094" xlink:href="#DejaVuSans-74"/>
      <use x="328.955078" xlink:href="#DejaVuSans-65"/>
      <use x="390.478516" xlink:href="#DejaVuSans-70"/>
      <use x="453.955078" xlink:href="#DejaVuSans-20"/>
      <use x="485.742188" xlink:href="#DejaVuSans-3d"/>
      <use x="569.53125" xlink:href="#DejaVuSans-20"/>
      <use x="601.318359" xlink:href="#DejaVuSans-31"/>
     </g>
    </g>
    <g id="line2d_20">
     <path d="M 66.6 69.248563 
L 86.6 69.248563 
" style="fill:none;stroke:#ff7f0e;stroke-linecap:square;stroke-width:1.5;"/>
    </g>
    <g id="line2d_21"/>
    <g id="text_15">
     <!-- backstep = 3 -->
     <g transform="translate(94.6 72.748563)scale(0.1 -0.1)">
      <use xlink:href="#DejaVuSans-62"/>
      <use x="63.476562" xlink:href="#DejaVuSans-61"/>
      <use x="124.755859" xlink:href="#DejaVuSans-63"/>
      <use x="179.736328" xlink:href="#DejaVuSans-6b"/>
      <use x="237.646484" xlink:href="#DejaVuSans-73"/>
      <use x="289.746094" xlink:href="#DejaVuSans-74"/>
      <use x="328.955078" xlink:href="#DejaVuSans-65"/>
      <use x="390.478516" xlink:href="#DejaVuSans-70"/>
      <use x="453.955078" xlink:href="#DejaVuSans-20"/>
      <use x="485.742188" xlink:href="#DejaVuSans-3d"/>
      <use x="569.53125" xlink:href="#DejaVuSans-20"/>
      <use x="601.318359" xlink:href="#DejaVuSans-33"/>
     </g>
    </g>
    <g id="line2d_22">
     <path d="M 66.6 83.926688 
L 86.6 83.926688 
" style="fill:none;stroke:#2ca02c;stroke-linecap:square;stroke-width:1.5;"/>
    </g>
    <g id="line2d_23"/>
    <g id="text_16">
     <!-- backstep = 5 -->
     <g transform="translate(94.6 87.426688)scale(0.1 -0.1)">
      <use xlink:href="#DejaVuSans-62"/>
      <use x="63.476562" xlink:href="#DejaVuSans-61"/>
      <use x="124.755859" xlink:href="#DejaVuSans-63"/>
      <use x="179.736328" xlink:href="#DejaVuSans-6b"/>
      <use x="237.646484" xlink:href="#DejaVuSans-73"/>
      <use x="289.746094" xlink:href="#DejaVuSans-74"/>
      <use x="328.955078" xlink:href="#DejaVuSans-65"/>
      <use x="390.478516" xlink:href="#DejaVuSans-70"/>
      <use x="453.955078" xlink:href="#DejaVuSans-20"/>
      <use x="485.742188" xlink:href="#DejaVuSans-3d"/>
      <use x="569.53125" xlink:href="#DejaVuSans-20"/>
      <use x="601.318359" xlink:href="#DejaVuSans-35"/>
     </g>
    </g>
    <g id="line2d_24">
     <path d="M 66.6 98.604813 
L 86.6 98.604813 
" style="fill:none;stroke:#d62728;stroke-linecap:square;stroke-width:1.5;"/>
    </g>
    <g id="line2d_25"/>
    <g id="text_17">
     <!-- backstep = 10 -->
     <g transform="translate(94.6 102.104813)scale(0.1 -0.1)">
      <use xlink:href="#DejaVuSans-62"/>
      <use x="63.476562" xlink:href="#DejaVuSans-61"/>
      <use x="124.755859" xlink:href="#DejaVuSans-63"/>
      <use x="179.736328" xlink:href="#DejaVuSans-6b"/>
      <use x="237.646484" xlink:href="#DejaVuSans-73"/>
      <use x="289.746094" xlink:href="#DejaVuSans-74"/>
      <use x="328.955078" xlink:href="#DejaVuSans-65"/>
      <use x="390.478516" xlink:href="#DejaVuSans-70"/>
      <use x="453.955078" xlink:href="#DejaVuSans-20"/>
      <use x="485.742188" xlink:href="#DejaVuSans-3d"/>
      <use x="569.53125" xlink:href="#DejaVuSans-20"/>
      <use x="601.318359" xlink:href="#DejaVuSans-31"/>
      <use x="664.941406" xlink:href="#DejaVuSans-30"/>
     </g>
    </g>
   </g>
  </g>
 </g>
 <defs>
  <clipPath id="p10058094d5">
   <rect height="266.112" width="357.12" x="57.6" y="41.472"/>
  </clipPath>
 </defs>
</svg>
