<?xml version="1.0" encoding="utf-8" standalone="no"?>
<!DOCTYPE svg PUBLIC "-//W3C//DTD SVG 1.1//EN"
  "http://www.w3.org/Graphics/SVG/1.1/DTD/svg11.dtd">
<svg height="345.6pt" version="1.1" viewBox="0 0 460.8 345.6" width="460.8pt" xmlns="http://www.w3.org/2000/svg" xmlns:xlink="http://www.w3.org/1999/xlink">
 <metadata>
  <rdf:RDF xmlns:cc="http://creativecommons.org/ns#" xmlns:dc="http://purl.org/dc/elements/1.1/" xmlns:rdf="http://www.w3.org/1999/02/22-rdf-syntax-ns#">
   <cc:Work>
    <dc:type rdf:resource="http://purl.org/dc/dcmitype/StillImage"/>
    <dc:date>2022-01-03T22:24:10.759383</dc:date>
    <dc:format>image/svg+xml</dc:format>
    <dc:creator>
     <cc:Agent>
      <dc:title>Matplotlib v3.4.2, https://matplotlib.org/</dc:title>
     </cc:Agent>
    </dc:creator>
   </cc:Work>
  </rdf:RDF>
 </metadata>
 <defs>
  <style type="text/css">*{stroke-linecap:butt;stroke-linejoin:round;}</style>
 </defs>
 <g id="figure_1">
  <g id="patch_1">
   <path d="M 0 345.6 
L 460.8 345.6 
L 460.8 0 
L 0 0 
z
" style="fill:#ffffff;"/>
  </g>
  <g id="axes_1">
   <g id="patch_2">
    <path d="M 57.6 307.584 
L 414.72 307.584 
L 414.72 41.472 
L 57.6 41.472 
z
" style="fill:#ffffff;"/>
   </g>
   <g id="PolyCollection_1">
    <path clip-path="url(#pe13e008350)" d="M 73.832727 257.700397 
L 73.832727 257.700397 
L 82.157203 257.700397 
L 90.481678 257.700397 
L 98.806154 257.700397 
L 107.130629 257.700397 
L 115.455105 257.700397 
L 123.77958 257.700397 
L 132.104056 257.700397 
L 140.428531 257.700397 
L 148.753007 257.700397 
L 157.077483 257.700397 
L 165.401958 257.700397 
L 173.726434 257.700397 
L 182.050909 257.700397 
L 190.375385 257.700397 
L 198.69986 257.700397 
L 207.024336 257.700397 
L 215.348811 257.700397 
L 223.673287 257.700397 
L 231.997762 257.700397 
L 240.322238 257.700397 
L 248.646713 257.700397 
L 256.971189 257.700397 
L 265.295664 257.700397 
L 273.62014 257.700397 
L 281.944615 257.700397 
L 290.269091 257.700397 
L 298.593566 257.700397 
L 306.918042 257.700397 
L 315.242517 257.700397 
L 323.566993 257.700397 
L 331.891469 257.700397 
L 340.215944 257.700397 
L 348.54042 257.700397 
L 356.864895 257.700397 
L 365.189371 257.700397 
L 373.513846 257.700397 
L 381.838322 257.700397 
L 390.162797 257.700397 
L 398.487273 257.700397 
L 398.487273 257.700397 
L 398.487273 257.700397 
L 390.162797 257.700397 
L 381.838322 257.700397 
L 373.513846 257.700397 
L 365.189371 257.700397 
L 356.864895 257.700397 
L 348.54042 257.700397 
L 340.215944 257.700397 
L 331.891469 257.700397 
L 323.566993 257.700397 
L 315.242517 257.700397 
L 306.918042 257.700397 
L 298.593566 257.700397 
L 290.269091 257.700397 
L 281.944615 257.700397 
L 273.62014 257.700397 
L 265.295664 257.700397 
L 256.971189 257.700397 
L 248.646713 257.700397 
L 240.322238 257.700397 
L 231.997762 257.700397 
L 223.673287 257.700397 
L 215.348811 257.700397 
L 207.024336 257.700397 
L 198.69986 257.700397 
L 190.375385 257.700397 
L 182.050909 257.700397 
L 173.726434 257.700397 
L 165.401958 257.700397 
L 157.077483 257.700397 
L 148.753007 257.700397 
L 140.428531 257.700397 
L 132.104056 257.700397 
L 123.77958 257.700397 
L 115.455105 257.700397 
L 107.130629 257.700397 
L 98.806154 257.700397 
L 90.481678 257.700397 
L 82.157203 257.700397 
L 73.832727 257.700397 
z
" style="fill:#1f77b4;fill-opacity:0.3;"/>
   </g>
   <g id="PolyCollection_2">
    <path clip-path="url(#pe13e008350)" d="M 73.832727 257.700397 
L 73.832727 257.700397 
L 82.157203 257.700397 
L 90.481678 257.700397 
L 98.806154 257.700397 
L 107.130629 257.700397 
L 115.455105 257.700397 
L 123.77958 257.700397 
L 132.104056 257.700397 
L 140.428531 257.700397 
L 148.753007 257.700397 
L 157.077483 257.700397 
L 165.401958 257.700397 
L 173.726434 257.700397 
L 182.050909 257.700397 
L 190.375385 257.700397 
L 198.69986 257.700397 
L 207.024336 257.700397 
L 215.348811 257.700397 
L 223.673287 257.700397 
L 231.997762 257.700397 
L 240.322238 257.700397 
L 248.646713 257.700397 
L 256.971189 257.700397 
L 265.295664 257.700397 
L 273.62014 257.700397 
L 281.944615 257.700397 
L 290.269091 257.700397 
L 298.593566 257.700397 
L 306.918042 257.700397 
L 315.242517 257.700397 
L 323.566993 257.700397 
L 331.891469 257.700397 
L 340.215944 257.700397 
L 348.54042 257.700397 
L 356.864895 257.700397 
L 365.189371 257.700397 
L 373.513846 257.700397 
L 381.838322 257.700397 
L 390.162797 257.700397 
L 398.487273 257.700397 
L 398.487273 257.700397 
L 398.487273 257.700397 
L 390.162797 257.700397 
L 381.838322 257.700397 
L 373.513846 257.700397 
L 365.189371 257.700397 
L 356.864895 257.700397 
L 348.54042 257.700397 
L 340.215944 257.700397 
L 331.891469 257.700397 
L 323.566993 257.700397 
L 315.242517 257.700397 
L 306.918042 257.700397 
L 298.593566 257.700397 
L 290.269091 257.700397 
L 281.944615 257.700397 
L 273.62014 257.700397 
L 265.295664 257.700397 
L 256.971189 257.700397 
L 248.646713 257.700397 
L 240.322238 257.700397 
L 231.997762 257.700397 
L 223.673287 257.700397 
L 215.348811 257.700397 
L 207.024336 257.700397 
L 198.69986 257.700397 
L 190.375385 257.700397 
L 182.050909 257.700397 
L 173.726434 257.700397 
L 165.401958 257.700397 
L 157.077483 257.700397 
L 148.753007 257.700397 
L 140.428531 257.700397 
L 132.104056 257.700397 
L 123.77958 257.700397 
L 115.455105 257.700397 
L 107.130629 257.700397 
L 98.806154 257.700397 
L 90.481678 257.700397 
L 82.157203 257.700397 
L 73.832727 257.700397 
z
" style="fill:#ff7f0e;fill-opacity:0.3;"/>
   </g>
   <g id="PolyCollection_3">
    <path clip-path="url(#pe13e008350)" d="M 73.832727 257.700397 
L 73.832727 257.700397 
L 82.157203 257.700397 
L 90.481678 257.700397 
L 98.806154 257.700397 
L 107.130629 257.700397 
L 115.455105 257.700397 
L 123.77958 257.700397 
L 132.104056 257.700397 
L 140.428531 257.700397 
L 148.753007 257.700397 
L 157.077483 257.700397 
L 165.401958 257.700397 
L 173.726434 257.700397 
L 182.050909 257.700397 
L 190.375385 257.700397 
L 198.69986 257.700397 
L 207.024336 257.700397 
L 215.348811 257.700397 
L 223.673287 257.700397 
L 231.997762 257.700397 
L 240.322238 257.700397 
L 248.646713 257.700397 
L 256.971189 257.700397 
L 265.295664 257.700397 
L 273.62014 257.700397 
L 281.944615 257.700397 
L 290.269091 257.700397 
L 298.593566 257.700397 
L 306.918042 258.043417 
L 315.242517 257.940511 
L 323.566993 257.868476 
L 331.891469 257.818052 
L 340.215944 259.172545 
L 348.54042 258.877951 
L 356.864895 258.524685 
L 365.189371 272.587232 
L 373.513846 280.475766 
L 381.838322 284.408297 
L 390.162797 295.488 
L 398.487273 294.9649 
L 398.487273 294.9649 
L 398.487273 118.627375 
L 390.162797 116.675141 
L 381.838322 158.025156 
L 373.513846 172.701561 
L 365.189371 202.141969 
L 356.864895 254.624112 
L 348.54042 253.305704 
L 340.215944 252.206265 
L 331.891469 257.261299 
L 323.566993 257.073115 
L 315.242517 256.804279 
L 306.918042 256.420229 
L 298.593566 257.700397 
L 290.269091 257.700397 
L 281.944615 257.700397 
L 273.62014 257.700397 
L 265.295664 257.700397 
L 256.971189 257.700397 
L 248.646713 257.700397 
L 240.322238 257.700397 
L 231.997762 257.700397 
L 223.673287 257.700397 
L 215.348811 257.700397 
L 207.024336 257.700397 
L 198.69986 257.700397 
L 190.375385 257.700397 
L 182.050909 257.700397 
L 173.726434 257.700397 
L 165.401958 257.700397 
L 157.077483 257.700397 
L 148.753007 257.700397 
L 140.428531 257.700397 
L 132.104056 257.700397 
L 123.77958 257.700397 
L 115.455105 257.700397 
L 107.130629 257.700397 
L 98.806154 257.700397 
L 90.481678 257.700397 
L 82.157203 257.700397 
L 73.832727 257.700397 
z
" style="fill:#2ca02c;fill-opacity:0.3;"/>
   </g>
   <g id="PolyCollection_4">
    <path clip-path="url(#pe13e008350)" d="M 73.832727 257.700397 
L 73.832727 257.700397 
L 82.157203 257.700397 
L 90.481678 257.700397 
L 98.806154 257.700397 
L 107.130629 257.700397 
L 115.455105 257.700397 
L 123.77958 257.700397 
L 132.104056 257.700397 
L 140.428531 257.700397 
L 148.753007 257.700397 
L 157.077483 257.700397 
L 165.401958 257.700397 
L 173.726434 257.700397 
L 182.050909 257.700397 
L 190.375385 257.700397 
L 198.69986 257.700397 
L 207.024336 257.700397 
L 215.348811 257.700397 
L 223.673287 257.700397 
L 231.997762 257.700397 
L 240.322238 257.700397 
L 248.646713 257.700397 
L 256.971189 257.700397 
L 265.295664 257.700397 
L 273.62014 257.700397 
L 281.944615 260.612004 
L 290.269091 261.481884 
L 298.593566 273.218195 
L 306.918042 273.994184 
L 315.242517 265.252156 
L 323.566993 267.742504 
L 331.891469 264.284095 
L 340.215944 265.702301 
L 348.54042 259.415797 
L 356.864895 258.773611 
L 365.189371 263.639276 
L 373.513846 270.717549 
L 381.838322 275.853907 
L 390.162797 284.485993 
L 398.487273 291.178166 
L 398.487273 291.178166 
L 398.487273 64.815665 
L 390.162797 68.24835 
L 381.838322 75.033587 
L 373.513846 75.766456 
L 365.189371 89.29584 
L 356.864895 85.878588 
L 348.54042 68.790737 
L 340.215944 53.568 
L 331.891469 73.384093 
L 323.566993 97.443634 
L 315.242517 132.798597 
L 306.918042 196.891156 
L 298.593566 199.787183 
L 290.269091 243.587693 
L 281.944615 246.83413 
L 273.62014 257.700397 
L 265.295664 257.700397 
L 256.971189 257.700397 
L 248.646713 257.700397 
L 240.322238 257.700397 
L 231.997762 257.700397 
L 223.673287 257.700397 
L 215.348811 257.700397 
L 207.024336 257.700397 
L 198.69986 257.700397 
L 190.375385 257.700397 
L 182.050909 257.700397 
L 173.726434 257.700397 
L 165.401958 257.700397 
L 157.077483 257.700397 
L 148.753007 257.700397 
L 140.428531 257.700397 
L 132.104056 257.700397 
L 123.77958 257.700397 
L 115.455105 257.700397 
L 107.130629 257.700397 
L 98.806154 257.700397 
L 90.481678 257.700397 
L 82.157203 257.700397 
L 73.832727 257.700397 
z
" style="fill:#d62728;fill-opacity:0.3;"/>
   </g>
   <g id="matplotlib.axis_1">
    <g id="xtick_1">
     <g id="line2d_1">
      <defs>
       <path d="M 0 0 
L 0 3.5 
" id="m51f4a770c4" style="stroke:#000000;stroke-width:0.8;"/>
      </defs>
      <g>
       <use style="stroke:#000000;stroke-width:0.8;" x="65.508252" xlink:href="#m51f4a770c4" y="307.584"/>
      </g>
     </g>
     <g id="text_1">
      <!-- 0 -->
      <g transform="translate(62.327002 322.182437)scale(0.1 -0.1)">
       <defs>
        <path d="M 2034 4250 
Q 1547 4250 1301 3770 
Q 1056 3291 1056 2328 
Q 1056 1369 1301 889 
Q 1547 409 2034 409 
Q 2525 409 2770 889 
Q 3016 1369 3016 2328 
Q 3016 3291 2770 3770 
Q 2525 4250 2034 4250 
z
M 2034 4750 
Q 2819 4750 3233 4129 
Q 3647 3509 3647 2328 
Q 3647 1150 3233 529 
Q 2819 -91 2034 -91 
Q 1250 -91 836 529 
Q 422 1150 422 2328 
Q 422 3509 836 4129 
Q 1250 4750 2034 4750 
z
" id="DejaVuSans-30" transform="scale(0.015625)"/>
       </defs>
       <use xlink:href="#DejaVuSans-30"/>
      </g>
     </g>
    </g>
    <g id="xtick_2">
     <g id="line2d_2">
      <g>
       <use style="stroke:#000000;stroke-width:0.8;" x="107.130629" xlink:href="#m51f4a770c4" y="307.584"/>
      </g>
     </g>
     <g id="text_2">
      <!-- 50 -->
      <g transform="translate(100.768129 322.182437)scale(0.1 -0.1)">
       <defs>
        <path d="M 691 4666 
L 3169 4666 
L 3169 4134 
L 1269 4134 
L 1269 2991 
Q 1406 3038 1543 3061 
Q 1681 3084 1819 3084 
Q 2600 3084 3056 2656 
Q 3513 2228 3513 1497 
Q 3513 744 3044 326 
Q 2575 -91 1722 -91 
Q 1428 -91 1123 -41 
Q 819 9 494 109 
L 494 744 
Q 775 591 1075 516 
Q 1375 441 1709 441 
Q 2250 441 2565 725 
Q 2881 1009 2881 1497 
Q 2881 1984 2565 2268 
Q 2250 2553 1709 2553 
Q 1456 2553 1204 2497 
Q 953 2441 691 2322 
L 691 4666 
z
" id="DejaVuSans-35" transform="scale(0.015625)"/>
       </defs>
       <use xlink:href="#DejaVuSans-35"/>
       <use x="63.623047" xlink:href="#DejaVuSans-30"/>
      </g>
     </g>
    </g>
    <g id="xtick_3">
     <g id="line2d_3">
      <g>
       <use style="stroke:#000000;stroke-width:0.8;" x="148.753007" xlink:href="#m51f4a770c4" y="307.584"/>
      </g>
     </g>
     <g id="text_3">
      <!-- 100 -->
      <g transform="translate(139.209257 322.182437)scale(0.1 -0.1)">
       <defs>
        <path d="M 794 531 
L 1825 531 
L 1825 4091 
L 703 3866 
L 703 4441 
L 1819 4666 
L 2450 4666 
L 2450 531 
L 3481 531 
L 3481 0 
L 794 0 
L 794 531 
z
" id="DejaVuSans-31" transform="scale(0.015625)"/>
       </defs>
       <use xlink:href="#DejaVuSans-31"/>
       <use x="63.623047" xlink:href="#DejaVuSans-30"/>
       <use x="127.246094" xlink:href="#DejaVuSans-30"/>
      </g>
     </g>
    </g>
    <g id="xtick_4">
     <g id="line2d_4">
      <g>
       <use style="stroke:#000000;stroke-width:0.8;" x="190.375385" xlink:href="#m51f4a770c4" y="307.584"/>
      </g>
     </g>
     <g id="text_4">
      <!-- 150 -->
      <g transform="translate(180.831635 322.182437)scale(0.1 -0.1)">
       <use xlink:href="#DejaVuSans-31"/>
       <use x="63.623047" xlink:href="#DejaVuSans-35"/>
       <use x="127.246094" xlink:href="#DejaVuSans-30"/>
      </g>
     </g>
    </g>
    <g id="xtick_5">
     <g id="line2d_5">
      <g>
       <use style="stroke:#000000;stroke-width:0.8;" x="231.997762" xlink:href="#m51f4a770c4" y="307.584"/>
      </g>
     </g>
     <g id="text_5">
      <!-- 200 -->
      <g transform="translate(222.454012 322.182437)scale(0.1 -0.1)">
       <defs>
        <path d="M 1228 531 
L 3431 531 
L 3431 0 
L 469 0 
L 469 531 
Q 828 903 1448 1529 
Q 2069 2156 2228 2338 
Q 2531 2678 2651 2914 
Q 2772 3150 2772 3378 
Q 2772 3750 2511 3984 
Q 2250 4219 1831 4219 
Q 1534 4219 1204 4116 
Q 875 4013 500 3803 
L 500 4441 
Q 881 4594 1212 4672 
Q 1544 4750 1819 4750 
Q 2544 4750 2975 4387 
Q 3406 4025 3406 3419 
Q 3406 3131 3298 2873 
Q 3191 2616 2906 2266 
Q 2828 2175 2409 1742 
Q 1991 1309 1228 531 
z
" id="DejaVuSans-32" transform="scale(0.015625)"/>
       </defs>
       <use xlink:href="#DejaVuSans-32"/>
       <use x="63.623047" xlink:href="#DejaVuSans-30"/>
       <use x="127.246094" xlink:href="#DejaVuSans-30"/>
      </g>
     </g>
    </g>
    <g id="xtick_6">
     <g id="line2d_6">
      <g>
       <use style="stroke:#000000;stroke-width:0.8;" x="273.62014" xlink:href="#m51f4a770c4" y="307.584"/>
      </g>
     </g>
     <g id="text_6">
      <!-- 250 -->
      <g transform="translate(264.07639 322.182437)scale(0.1 -0.1)">
       <use xlink:href="#DejaVuSans-32"/>
       <use x="63.623047" xlink:href="#DejaVuSans-35"/>
       <use x="127.246094" xlink:href="#DejaVuSans-30"/>
      </g>
     </g>
    </g>
    <g id="xtick_7">
     <g id="line2d_7">
      <g>
       <use style="stroke:#000000;stroke-width:0.8;" x="315.242517" xlink:href="#m51f4a770c4" y="307.584"/>
      </g>
     </g>
     <g id="text_7">
      <!-- 300 -->
      <g transform="translate(305.698767 322.182437)scale(0.1 -0.1)">
       <defs>
        <path d="M 2597 2516 
Q 3050 2419 3304 2112 
Q 3559 1806 3559 1356 
Q 3559 666 3084 287 
Q 2609 -91 1734 -91 
Q 1441 -91 1130 -33 
Q 819 25 488 141 
L 488 750 
Q 750 597 1062 519 
Q 1375 441 1716 441 
Q 2309 441 2620 675 
Q 2931 909 2931 1356 
Q 2931 1769 2642 2001 
Q 2353 2234 1838 2234 
L 1294 2234 
L 1294 2753 
L 1863 2753 
Q 2328 2753 2575 2939 
Q 2822 3125 2822 3475 
Q 2822 3834 2567 4026 
Q 2313 4219 1838 4219 
Q 1578 4219 1281 4162 
Q 984 4106 628 3988 
L 628 4550 
Q 988 4650 1302 4700 
Q 1616 4750 1894 4750 
Q 2613 4750 3031 4423 
Q 3450 4097 3450 3541 
Q 3450 3153 3228 2886 
Q 3006 2619 2597 2516 
z
" id="DejaVuSans-33" transform="scale(0.015625)"/>
       </defs>
       <use xlink:href="#DejaVuSans-33"/>
       <use x="63.623047" xlink:href="#DejaVuSans-30"/>
       <use x="127.246094" xlink:href="#DejaVuSans-30"/>
      </g>
     </g>
    </g>
    <g id="xtick_8">
     <g id="line2d_8">
      <g>
       <use style="stroke:#000000;stroke-width:0.8;" x="356.864895" xlink:href="#m51f4a770c4" y="307.584"/>
      </g>
     </g>
     <g id="text_8">
      <!-- 350 -->
      <g transform="translate(347.321145 322.182437)scale(0.1 -0.1)">
       <use xlink:href="#DejaVuSans-33"/>
       <use x="63.623047" xlink:href="#DejaVuSans-35"/>
       <use x="127.246094" xlink:href="#DejaVuSans-30"/>
      </g>
     </g>
    </g>
    <g id="xtick_9">
     <g id="line2d_9">
      <g>
       <use style="stroke:#000000;stroke-width:0.8;" x="398.487273" xlink:href="#m51f4a770c4" y="307.584"/>
      </g>
     </g>
     <g id="text_9">
      <!-- 400 -->
      <g transform="translate(388.943523 322.182437)scale(0.1 -0.1)">
       <defs>
        <path d="M 2419 4116 
L 825 1625 
L 2419 1625 
L 2419 4116 
z
M 2253 4666 
L 3047 4666 
L 3047 1625 
L 3713 1625 
L 3713 1100 
L 3047 1100 
L 3047 0 
L 2419 0 
L 2419 1100 
L 313 1100 
L 313 1709 
L 2253 4666 
z
" id="DejaVuSans-34" transform="scale(0.015625)"/>
       </defs>
       <use xlink:href="#DejaVuSans-34"/>
       <use x="63.623047" xlink:href="#DejaVuSans-30"/>
       <use x="127.246094" xlink:href="#DejaVuSans-30"/>
      </g>
     </g>
    </g>
   </g>
   <g id="matplotlib.axis_2">
    <g id="ytick_1">
     <g id="line2d_10">
      <defs>
       <path d="M 0 0 
L -3.5 0 
" id="m76c767313e" style="stroke:#000000;stroke-width:0.8;"/>
      </defs>
      <g>
       <use style="stroke:#000000;stroke-width:0.8;" x="57.6" xlink:href="#m76c767313e" y="304.765982"/>
      </g>
     </g>
     <g id="text_10">
      <!-- −190 -->
      <g transform="translate(23.132812 308.565201)scale(0.1 -0.1)">
       <defs>
        <path d="M 678 2272 
L 4684 2272 
L 4684 1741 
L 678 1741 
L 678 2272 
z
" id="DejaVuSans-2212" transform="scale(0.015625)"/>
        <path d="M 703 97 
L 703 672 
Q 941 559 1184 500 
Q 1428 441 1663 441 
Q 2288 441 2617 861 
Q 2947 1281 2994 2138 
Q 2813 1869 2534 1725 
Q 2256 1581 1919 1581 
Q 1219 1581 811 2004 
Q 403 2428 403 3163 
Q 403 3881 828 4315 
Q 1253 4750 1959 4750 
Q 2769 4750 3195 4129 
Q 3622 3509 3622 2328 
Q 3622 1225 3098 567 
Q 2575 -91 1691 -91 
Q 1453 -91 1209 -44 
Q 966 3 703 97 
z
M 1959 2075 
Q 2384 2075 2632 2365 
Q 2881 2656 2881 3163 
Q 2881 3666 2632 3958 
Q 2384 4250 1959 4250 
Q 1534 4250 1286 3958 
Q 1038 3666 1038 3163 
Q 1038 2656 1286 2365 
Q 1534 2075 1959 2075 
z
" id="DejaVuSans-39" transform="scale(0.015625)"/>
       </defs>
       <use xlink:href="#DejaVuSans-2212"/>
       <use x="83.789062" xlink:href="#DejaVuSans-31"/>
       <use x="147.412109" xlink:href="#DejaVuSans-39"/>
       <use x="211.035156" xlink:href="#DejaVuSans-30"/>
      </g>
     </g>
    </g>
    <g id="ytick_2">
     <g id="line2d_11">
      <g>
       <use style="stroke:#000000;stroke-width:0.8;" x="57.6" xlink:href="#m76c767313e" y="250.347537"/>
      </g>
     </g>
     <g id="text_11">
      <!-- −180 -->
      <g transform="translate(23.132812 254.146756)scale(0.1 -0.1)">
       <defs>
        <path d="M 2034 2216 
Q 1584 2216 1326 1975 
Q 1069 1734 1069 1313 
Q 1069 891 1326 650 
Q 1584 409 2034 409 
Q 2484 409 2743 651 
Q 3003 894 3003 1313 
Q 3003 1734 2745 1975 
Q 2488 2216 2034 2216 
z
M 1403 2484 
Q 997 2584 770 2862 
Q 544 3141 544 3541 
Q 544 4100 942 4425 
Q 1341 4750 2034 4750 
Q 2731 4750 3128 4425 
Q 3525 4100 3525 3541 
Q 3525 3141 3298 2862 
Q 3072 2584 2669 2484 
Q 3125 2378 3379 2068 
Q 3634 1759 3634 1313 
Q 3634 634 3220 271 
Q 2806 -91 2034 -91 
Q 1263 -91 848 271 
Q 434 634 434 1313 
Q 434 1759 690 2068 
Q 947 2378 1403 2484 
z
M 1172 3481 
Q 1172 3119 1398 2916 
Q 1625 2713 2034 2713 
Q 2441 2713 2670 2916 
Q 2900 3119 2900 3481 
Q 2900 3844 2670 4047 
Q 2441 4250 2034 4250 
Q 1625 4250 1398 4047 
Q 1172 3844 1172 3481 
z
" id="DejaVuSans-38" transform="scale(0.015625)"/>
       </defs>
       <use xlink:href="#DejaVuSans-2212"/>
       <use x="83.789062" xlink:href="#DejaVuSans-31"/>
       <use x="147.412109" xlink:href="#DejaVuSans-38"/>
       <use x="211.035156" xlink:href="#DejaVuSans-30"/>
      </g>
     </g>
    </g>
    <g id="ytick_3">
     <g id="line2d_12">
      <g>
       <use style="stroke:#000000;stroke-width:0.8;" x="57.6" xlink:href="#m76c767313e" y="195.929092"/>
      </g>
     </g>
     <g id="text_12">
      <!-- −170 -->
      <g transform="translate(23.132812 199.728311)scale(0.1 -0.1)">
       <defs>
        <path d="M 525 4666 
L 3525 4666 
L 3525 4397 
L 1831 0 
L 1172 0 
L 2766 4134 
L 525 4134 
L 525 4666 
z
" id="DejaVuSans-37" transform="scale(0.015625)"/>
       </defs>
       <use xlink:href="#DejaVuSans-2212"/>
       <use x="83.789062" xlink:href="#DejaVuSans-31"/>
       <use x="147.412109" xlink:href="#DejaVuSans-37"/>
       <use x="211.035156" xlink:href="#DejaVuSans-30"/>
      </g>
     </g>
    </g>
    <g id="ytick_4">
     <g id="line2d_13">
      <g>
       <use style="stroke:#000000;stroke-width:0.8;" x="57.6" xlink:href="#m76c767313e" y="141.510647"/>
      </g>
     </g>
     <g id="text_13">
      <!-- −160 -->
      <g transform="translate(23.132812 145.309866)scale(0.1 -0.1)">
       <defs>
        <path d="M 2113 2584 
Q 1688 2584 1439 2293 
Q 1191 2003 1191 1497 
Q 1191 994 1439 701 
Q 1688 409 2113 409 
Q 2538 409 2786 701 
Q 3034 994 3034 1497 
Q 3034 2003 2786 2293 
Q 2538 2584 2113 2584 
z
M 3366 4563 
L 3366 3988 
Q 3128 4100 2886 4159 
Q 2644 4219 2406 4219 
Q 1781 4219 1451 3797 
Q 1122 3375 1075 2522 
Q 1259 2794 1537 2939 
Q 1816 3084 2150 3084 
Q 2853 3084 3261 2657 
Q 3669 2231 3669 1497 
Q 3669 778 3244 343 
Q 2819 -91 2113 -91 
Q 1303 -91 875 529 
Q 447 1150 447 2328 
Q 447 3434 972 4092 
Q 1497 4750 2381 4750 
Q 2619 4750 2861 4703 
Q 3103 4656 3366 4563 
z
" id="DejaVuSans-36" transform="scale(0.015625)"/>
       </defs>
       <use xlink:href="#DejaVuSans-2212"/>
       <use x="83.789062" xlink:href="#DejaVuSans-31"/>
       <use x="147.412109" xlink:href="#DejaVuSans-36"/>
       <use x="211.035156" xlink:href="#DejaVuSans-30"/>
      </g>
     </g>
    </g>
    <g id="ytick_5">
     <g id="line2d_14">
      <g>
       <use style="stroke:#000000;stroke-width:0.8;" x="57.6" xlink:href="#m76c767313e" y="87.092202"/>
      </g>
     </g>
     <g id="text_14">
      <!-- −150 -->
      <g transform="translate(23.132812 90.891421)scale(0.1 -0.1)">
       <use xlink:href="#DejaVuSans-2212"/>
       <use x="83.789062" xlink:href="#DejaVuSans-31"/>
       <use x="147.412109" xlink:href="#DejaVuSans-35"/>
       <use x="211.035156" xlink:href="#DejaVuSans-30"/>
      </g>
     </g>
    </g>
   </g>
   <g id="line2d_15">
    <path clip-path="url(#pe13e008350)" d="M 73.832727 257.700397 
L 82.157203 257.700397 
L 90.481678 257.700397 
L 98.806154 257.700397 
L 107.130629 257.700397 
L 115.455105 257.700397 
L 123.77958 257.700397 
L 132.104056 257.700397 
L 140.428531 257.700397 
L 148.753007 257.700397 
L 157.077483 257.700397 
L 165.401958 257.700397 
L 173.726434 257.700397 
L 182.050909 257.700397 
L 190.375385 257.700397 
L 198.69986 257.700397 
L 207.024336 257.700397 
L 215.348811 257.700397 
L 223.673287 257.700397 
L 231.997762 257.700397 
L 240.322238 257.700397 
L 248.646713 257.700397 
L 256.971189 257.700397 
L 265.295664 257.700397 
L 273.62014 257.700397 
L 281.944615 257.700397 
L 290.269091 257.700397 
L 298.593566 257.700397 
L 306.918042 257.700397 
L 315.242517 257.700397 
L 323.566993 257.700397 
L 331.891469 257.700397 
L 340.215944 257.700397 
L 348.54042 257.700397 
L 356.864895 257.700397 
L 365.189371 257.700397 
L 373.513846 257.700397 
L 381.838322 257.700397 
L 390.162797 257.700397 
L 398.487273 257.700397 
" style="fill:none;stroke:#1f77b4;stroke-linecap:square;stroke-width:1.5;"/>
   </g>
   <g id="line2d_16">
    <path clip-path="url(#pe13e008350)" d="M 73.832727 257.700397 
L 82.157203 257.700397 
L 90.481678 257.700397 
L 98.806154 257.700397 
L 107.130629 257.700397 
L 115.455105 257.700397 
L 123.77958 257.700397 
L 132.104056 257.700397 
L 140.428531 257.700397 
L 148.753007 257.700397 
L 157.077483 257.700397 
L 165.401958 257.700397 
L 173.726434 257.700397 
L 182.050909 257.700397 
L 190.375385 257.700397 
L 198.69986 257.700397 
L 207.024336 257.700397 
L 215.348811 257.700397 
L 223.673287 257.700397 
L 231.997762 257.700397 
L 240.322238 257.700397 
L 248.646713 257.700397 
L 256.971189 257.700397 
L 265.295664 257.700397 
L 273.62014 257.700397 
L 281.944615 257.700397 
L 290.269091 257.700397 
L 298.593566 257.700397 
L 306.918042 257.700397 
L 315.242517 257.700397 
L 323.566993 257.700397 
L 331.891469 257.700397 
L 340.215944 257.700397 
L 348.54042 257.700397 
L 356.864895 257.700397 
L 365.189371 257.700397 
L 373.513846 257.700397 
L 381.838322 257.700397 
L 390.162797 257.700397 
L 398.487273 257.700397 
" style="fill:none;stroke:#ff7f0e;stroke-linecap:square;stroke-width:1.5;"/>
   </g>
   <g id="line2d_17">
    <path clip-path="url(#pe13e008350)" d="M 73.832727 257.700397 
L 82.157203 257.700397 
L 90.481678 257.700397 
L 98.806154 257.700397 
L 107.130629 257.700397 
L 115.455105 257.700397 
L 123.77958 257.700397 
L 132.104056 257.700397 
L 140.428531 257.700397 
L 148.753007 257.700397 
L 157.077483 257.700397 
L 165.401958 257.700397 
L 173.726434 257.700397 
L 182.050909 257.700397 
L 190.375385 257.700397 
L 198.69986 257.700397 
L 207.024336 257.700397 
L 215.348811 257.700397 
L 223.673287 257.700397 
L 231.997762 257.700397 
L 240.322238 257.700397 
L 248.646713 257.700397 
L 256.971189 257.700397 
L 265.295664 257.700397 
L 273.62014 257.700397 
L 281.944615 257.700397 
L 290.269091 257.700397 
L 298.593566 257.700397 
L 306.918042 257.231823 
L 315.242517 257.372395 
L 323.566993 257.470795 
L 331.891469 257.539676 
L 340.215944 255.689405 
L 348.54042 256.091828 
L 356.864895 256.574398 
L 365.189371 237.364601 
L 373.513846 226.588663 
L 381.838322 221.216726 
L 390.162797 206.081571 
L 398.487273 206.796138 
" style="fill:none;stroke:#2ca02c;stroke-linecap:square;stroke-width:1.5;"/>
   </g>
   <g id="line2d_18">
    <path clip-path="url(#pe13e008350)" d="M 73.832727 257.700397 
L 82.157203 257.700397 
L 90.481678 257.700397 
L 98.806154 257.700397 
L 107.130629 257.700397 
L 115.455105 257.700397 
L 123.77958 257.700397 
L 132.104056 257.700397 
L 140.428531 257.700397 
L 148.753007 257.700397 
L 157.077483 257.700397 
L 165.401958 257.700397 
L 173.726434 257.700397 
L 182.050909 257.700397 
L 190.375385 257.700397 
L 198.69986 257.700397 
L 207.024336 257.700397 
L 215.348811 257.700397 
L 223.673287 257.700397 
L 231.997762 257.700397 
L 240.322238 257.700397 
L 248.646713 257.700397 
L 256.971189 257.700397 
L 265.295664 257.700397 
L 273.62014 257.700397 
L 281.944615 253.723067 
L 290.269091 252.534789 
L 298.593566 236.502689 
L 306.918042 235.44267 
L 315.242517 199.025377 
L 323.566993 182.593069 
L 331.891469 168.834094 
L 340.215944 159.635151 
L 348.54042 164.103267 
L 356.864895 172.3261 
L 365.189371 176.467558 
L 373.513846 173.242002 
L 381.838322 175.443747 
L 390.162797 176.367172 
L 398.487273 177.996915 
" style="fill:none;stroke:#d62728;stroke-linecap:square;stroke-width:1.5;"/>
   </g>
   <g id="patch_3">
    <path d="M 57.6 307.584 
L 57.6 41.472 
" style="fill:none;stroke:#000000;stroke-linecap:square;stroke-linejoin:miter;stroke-width:0.8;"/>
   </g>
   <g id="patch_4">
    <path d="M 414.72 307.584 
L 414.72 41.472 
" style="fill:none;stroke:#000000;stroke-linecap:square;stroke-linejoin:miter;stroke-width:0.8;"/>
   </g>
   <g id="patch_5">
    <path d="M 57.6 307.584 
L 414.72 307.584 
" style="fill:none;stroke:#000000;stroke-linecap:square;stroke-linejoin:miter;stroke-width:0.8;"/>
   </g>
   <g id="patch_6">
    <path d="M 57.6 41.472 
L 414.72 41.472 
" style="fill:none;stroke:#000000;stroke-linecap:square;stroke-linejoin:miter;stroke-width:0.8;"/>
   </g>
   <g id="legend_1">
    <g id="patch_7">
     <path d="M 302.862188 108.1845 
L 407.72 108.1845 
Q 409.72 108.1845 409.72 106.1845 
L 409.72 48.472 
Q 409.72 46.472 407.72 46.472 
L 302.862188 46.472 
Q 300.862188 46.472 300.862188 48.472 
L 300.862188 106.1845 
Q 300.862188 108.1845 302.862188 108.1845 
z
" style="fill:#ffffff;opacity:0.8;stroke:#cccccc;stroke-linejoin:miter;"/>
    </g>
    <g id="line2d_19">
     <path d="M 304.862188 54.570438 
L 324.862188 54.570438 
" style="fill:none;stroke:#1f77b4;stroke-linecap:square;stroke-width:1.5;"/>
    </g>
    <g id="line2d_20"/>
    <g id="text_15">
     <!-- backstep = 1 -->
     <g transform="translate(332.862188 58.070438)scale(0.1 -0.1)">
      <defs>
       <path d="M 3116 1747 
Q 3116 2381 2855 2742 
Q 2594 3103 2138 3103 
Q 1681 3103 1420 2742 
Q 1159 2381 1159 1747 
Q 1159 1113 1420 752 
Q 1681 391 2138 391 
Q 2594 391 2855 752 
Q 3116 1113 3116 1747 
z
M 1159 2969 
Q 1341 3281 1617 3432 
Q 1894 3584 2278 3584 
Q 2916 3584 3314 3078 
Q 3713 2572 3713 1747 
Q 3713 922 3314 415 
Q 2916 -91 2278 -91 
Q 1894 -91 1617 61 
Q 1341 213 1159 525 
L 1159 0 
L 581 0 
L 581 4863 
L 1159 4863 
L 1159 2969 
z
" id="DejaVuSans-62" transform="scale(0.015625)"/>
       <path d="M 2194 1759 
Q 1497 1759 1228 1600 
Q 959 1441 959 1056 
Q 959 750 1161 570 
Q 1363 391 1709 391 
Q 2188 391 2477 730 
Q 2766 1069 2766 1631 
L 2766 1759 
L 2194 1759 
z
M 3341 1997 
L 3341 0 
L 2766 0 
L 2766 531 
Q 2569 213 2275 61 
Q 1981 -91 1556 -91 
Q 1019 -91 701 211 
Q 384 513 384 1019 
Q 384 1609 779 1909 
Q 1175 2209 1959 2209 
L 2766 2209 
L 2766 2266 
Q 2766 2663 2505 2880 
Q 2244 3097 1772 3097 
Q 1472 3097 1187 3025 
Q 903 2953 641 2809 
L 641 3341 
Q 956 3463 1253 3523 
Q 1550 3584 1831 3584 
Q 2591 3584 2966 3190 
Q 3341 2797 3341 1997 
z
" id="DejaVuSans-61" transform="scale(0.015625)"/>
       <path d="M 3122 3366 
L 3122 2828 
Q 2878 2963 2633 3030 
Q 2388 3097 2138 3097 
Q 1578 3097 1268 2742 
Q 959 2388 959 1747 
Q 959 1106 1268 751 
Q 1578 397 2138 397 
Q 2388 397 2633 464 
Q 2878 531 3122 666 
L 3122 134 
Q 2881 22 2623 -34 
Q 2366 -91 2075 -91 
Q 1284 -91 818 406 
Q 353 903 353 1747 
Q 353 2603 823 3093 
Q 1294 3584 2113 3584 
Q 2378 3584 2631 3529 
Q 2884 3475 3122 3366 
z
" id="DejaVuSans-63" transform="scale(0.015625)"/>
       <path d="M 581 4863 
L 1159 4863 
L 1159 1991 
L 2875 3500 
L 3609 3500 
L 1753 1863 
L 3688 0 
L 2938 0 
L 1159 1709 
L 1159 0 
L 581 0 
L 581 4863 
z
" id="DejaVuSans-6b" transform="scale(0.015625)"/>
       <path d="M 2834 3397 
L 2834 2853 
Q 2591 2978 2328 3040 
Q 2066 3103 1784 3103 
Q 1356 3103 1142 2972 
Q 928 2841 928 2578 
Q 928 2378 1081 2264 
Q 1234 2150 1697 2047 
L 1894 2003 
Q 2506 1872 2764 1633 
Q 3022 1394 3022 966 
Q 3022 478 2636 193 
Q 2250 -91 1575 -91 
Q 1294 -91 989 -36 
Q 684 19 347 128 
L 347 722 
Q 666 556 975 473 
Q 1284 391 1588 391 
Q 1994 391 2212 530 
Q 2431 669 2431 922 
Q 2431 1156 2273 1281 
Q 2116 1406 1581 1522 
L 1381 1569 
Q 847 1681 609 1914 
Q 372 2147 372 2553 
Q 372 3047 722 3315 
Q 1072 3584 1716 3584 
Q 2034 3584 2315 3537 
Q 2597 3491 2834 3397 
z
" id="DejaVuSans-73" transform="scale(0.015625)"/>
       <path d="M 1172 4494 
L 1172 3500 
L 2356 3500 
L 2356 3053 
L 1172 3053 
L 1172 1153 
Q 1172 725 1289 603 
Q 1406 481 1766 481 
L 2356 481 
L 2356 0 
L 1766 0 
Q 1100 0 847 248 
Q 594 497 594 1153 
L 594 3053 
L 172 3053 
L 172 3500 
L 594 3500 
L 594 4494 
L 1172 4494 
z
" id="DejaVuSans-74" transform="scale(0.015625)"/>
       <path d="M 3597 1894 
L 3597 1613 
L 953 1613 
Q 991 1019 1311 708 
Q 1631 397 2203 397 
Q 2534 397 2845 478 
Q 3156 559 3463 722 
L 3463 178 
Q 3153 47 2828 -22 
Q 2503 -91 2169 -91 
Q 1331 -91 842 396 
Q 353 884 353 1716 
Q 353 2575 817 3079 
Q 1281 3584 2069 3584 
Q 2775 3584 3186 3129 
Q 3597 2675 3597 1894 
z
M 3022 2063 
Q 3016 2534 2758 2815 
Q 2500 3097 2075 3097 
Q 1594 3097 1305 2825 
Q 1016 2553 972 2059 
L 3022 2063 
z
" id="DejaVuSans-65" transform="scale(0.015625)"/>
       <path d="M 1159 525 
L 1159 -1331 
L 581 -1331 
L 581 3500 
L 1159 3500 
L 1159 2969 
Q 1341 3281 1617 3432 
Q 1894 3584 2278 3584 
Q 2916 3584 3314 3078 
Q 3713 2572 3713 1747 
Q 3713 922 3314 415 
Q 2916 -91 2278 -91 
Q 1894 -91 1617 61 
Q 1341 213 1159 525 
z
M 3116 1747 
Q 3116 2381 2855 2742 
Q 2594 3103 2138 3103 
Q 1681 3103 1420 2742 
Q 1159 2381 1159 1747 
Q 1159 1113 1420 752 
Q 1681 391 2138 391 
Q 2594 391 2855 752 
Q 3116 1113 3116 1747 
z
" id="DejaVuSans-70" transform="scale(0.015625)"/>
       <path id="DejaVuSans-20" transform="scale(0.015625)"/>
       <path d="M 678 2906 
L 4684 2906 
L 4684 2381 
L 678 2381 
L 678 2906 
z
M 678 1631 
L 4684 1631 
L 4684 1100 
L 678 1100 
L 678 1631 
z
" id="DejaVuSans-3d" transform="scale(0.015625)"/>
      </defs>
      <use xlink:href="#DejaVuSans-62"/>
      <use x="63.476562" xlink:href="#DejaVuSans-61"/>
      <use x="124.755859" xlink:href="#DejaVuSans-63"/>
      <use x="179.736328" xlink:href="#DejaVuSans-6b"/>
      <use x="237.646484" xlink:href="#DejaVuSans-73"/>
      <use x="289.746094" xlink:href="#DejaVuSans-74"/>
      <use x="328.955078" xlink:href="#DejaVuSans-65"/>
      <use x="390.478516" xlink:href="#DejaVuSans-70"/>
      <use x="453.955078" xlink:href="#DejaVuSans-20"/>
      <use x="485.742188" xlink:href="#DejaVuSans-3d"/>
      <use x="569.53125" xlink:href="#DejaVuSans-20"/>
      <use x="601.318359" xlink:href="#DejaVuSans-31"/>
     </g>
    </g>
    <g id="line2d_21">
     <path d="M 304.862188 69.248563 
L 324.862188 69.248563 
" style="fill:none;stroke:#ff7f0e;stroke-linecap:square;stroke-width:1.5;"/>
    </g>
    <g id="line2d_22"/>
    <g id="text_16">
     <!-- backstep = 3 -->
     <g transform="translate(332.862188 72.748563)scale(0.1 -0.1)">
      <use xlink:href="#DejaVuSans-62"/>
      <use x="63.476562" xlink:href="#DejaVuSans-61"/>
      <use x="124.755859" xlink:href="#DejaVuSans-63"/>
      <use x="179.736328" xlink:href="#DejaVuSans-6b"/>
      <use x="237.646484" xlink:href="#DejaVuSans-73"/>
      <use x="289.746094" xlink:href="#DejaVuSans-74"/>
      <use x="328.955078" xlink:href="#DejaVuSans-65"/>
      <use x="390.478516" xlink:href="#DejaVuSans-70"/>
      <use x="453.955078" xlink:href="#DejaVuSans-20"/>
      <use x="485.742188" xlink:href="#DejaVuSans-3d"/>
      <use x="569.53125" xlink:href="#DejaVuSans-20"/>
      <use x="601.318359" xlink:href="#DejaVuSans-33"/>
     </g>
    </g>
    <g id="line2d_23">
     <path d="M 304.862188 83.926688 
L 324.862188 83.926688 
" style="fill:none;stroke:#2ca02c;stroke-linecap:square;stroke-width:1.5;"/>
    </g>
    <g id="line2d_24"/>
    <g id="text_17">
     <!-- backstep = 5 -->
     <g transform="translate(332.862188 87.426688)scale(0.1 -0.1)">
      <use xlink:href="#DejaVuSans-62"/>
      <use x="63.476562" xlink:href="#DejaVuSans-61"/>
      <use x="124.755859" xlink:href="#DejaVuSans-63"/>
      <use x="179.736328" xlink:href="#DejaVuSans-6b"/>
      <use x="237.646484" xlink:href="#DejaVuSans-73"/>
      <use x="289.746094" xlink:href="#DejaVuSans-74"/>
      <use x="328.955078" xlink:href="#DejaVuSans-65"/>
      <use x="390.478516" xlink:href="#DejaVuSans-70"/>
      <use x="453.955078" xlink:href="#DejaVuSans-20"/>
      <use x="485.742188" xlink:href="#DejaVuSans-3d"/>
      <use x="569.53125" xlink:href="#DejaVuSans-20"/>
      <use x="601.318359" xlink:href="#DejaVuSans-35"/>
     </g>
    </g>
    <g id="line2d_25">
     <path d="M 304.862188 98.604813 
L 324.862188 98.604813 
" style="fill:none;stroke:#d62728;stroke-linecap:square;stroke-width:1.5;"/>
    </g>
    <g id="line2d_26"/>
    <g id="text_18">
     <!-- backstep = 10 -->
     <g transform="translate(332.862188 102.104813)scale(0.1 -0.1)">
      <use xlink:href="#DejaVuSans-62"/>
      <use x="63.476562" xlink:href="#DejaVuSans-61"/>
      <use x="124.755859" xlink:href="#DejaVuSans-63"/>
      <use x="179.736328" xlink:href="#DejaVuSans-6b"/>
      <use x="237.646484" xlink:href="#DejaVuSans-73"/>
      <use x="289.746094" xlink:href="#DejaVuSans-74"/>
      <use x="328.955078" xlink:href="#DejaVuSans-65"/>
      <use x="390.478516" xlink:href="#DejaVuSans-70"/>
      <use x="453.955078" xlink:href="#DejaVuSans-20"/>
      <use x="485.742188" xlink:href="#DejaVuSans-3d"/>
      <use x="569.53125" xlink:href="#DejaVuSans-20"/>
      <use x="601.318359" xlink:href="#DejaVuSans-31"/>
      <use x="664.941406" xlink:href="#DejaVuSans-30"/>
     </g>
    </g>
   </g>
  </g>
 </g>
 <defs>
  <clipPath id="pe13e008350">
   <rect height="266.112" width="357.12" x="57.6" y="41.472"/>
  </clipPath>
 </defs>
</svg>
