<?xml version="1.0" encoding="utf-8" standalone="no"?>
<!DOCTYPE svg PUBLIC "-//W3C//DTD SVG 1.1//EN"
  "http://www.w3.org/Graphics/SVG/1.1/DTD/svg11.dtd">
<svg height="345.6pt" version="1.1" viewBox="0 0 460.8 345.6" width="460.8pt" xmlns="http://www.w3.org/2000/svg" xmlns:xlink="http://www.w3.org/1999/xlink">
 <metadata>
  <rdf:RDF xmlns:cc="http://creativecommons.org/ns#" xmlns:dc="http://purl.org/dc/elements/1.1/" xmlns:rdf="http://www.w3.org/1999/02/22-rdf-syntax-ns#">
   <cc:Work>
    <dc:type rdf:resource="http://purl.org/dc/dcmitype/StillImage"/>
    <dc:date>2022-01-03T15:09:57.581297</dc:date>
    <dc:format>image/svg+xml</dc:format>
    <dc:creator>
     <cc:Agent>
      <dc:title>Matplotlib v3.4.3, https://matplotlib.org/</dc:title>
     </cc:Agent>
    </dc:creator>
   </cc:Work>
  </rdf:RDF>
 </metadata>
 <defs>
  <style type="text/css">*{stroke-linecap:butt;stroke-linejoin:round;}</style>
 </defs>
 <g id="figure_1">
  <g id="patch_1">
   <path d="M 0 345.6 
L 460.8 345.6 
L 460.8 0 
L 0 0 
z
" style="fill:#ffffff;"/>
  </g>
  <g id="axes_1">
   <g id="patch_2">
    <path d="M 57.6 307.584 
L 414.72 307.584 
L 414.72 41.472 
L 57.6 41.472 
z
" style="fill:#ffffff;"/>
   </g>
   <g id="PolyCollection_1">
    <path clip-path="url(#p190ae6bb38)" d="M 73.832727 281.029713 
L 73.832727 281.029713 
L 82.157203 285.264481 
L 90.481678 287.255252 
L 98.806154 267.668938 
L 107.130629 258.449706 
L 115.455105 249.350809 
L 123.77958 257.201195 
L 132.104056 270.751177 
L 140.428531 281.766177 
L 148.753007 271.692344 
L 157.077483 271.134526 
L 165.401958 276.692138 
L 173.726434 278.812906 
L 182.050909 273.051536 
L 190.375385 241.952031 
L 198.69986 220.482602 
L 207.024336 183.119801 
L 215.348811 193.236473 
L 223.673287 179.848605 
L 231.997762 146.73005 
L 240.322238 124.683185 
L 248.646713 148.128717 
L 256.971189 169.376666 
L 265.295664 183.139499 
L 273.62014 182.174403 
L 281.944615 148.880636 
L 290.269091 138.772549 
L 298.593566 159.519224 
L 306.918042 176.727366 
L 315.242517 164.244118 
L 323.566993 148.319272 
L 331.891469 181.504025 
L 340.215944 160.684268 
L 348.54042 189.710276 
L 356.864895 188.519435 
L 365.189371 148.964016 
L 373.513846 123.977078 
L 381.838322 106.657213 
L 390.162797 92.508197 
L 398.487273 82.003634 
L 398.487273 82.003634 
L 398.487273 56.187106 
L 390.162797 58.596407 
L 381.838322 56.651977 
L 373.513846 57.407601 
L 365.189371 56.387475 
L 356.864895 55.803492 
L 348.54042 61.91858 
L 340.215944 61.142342 
L 331.891469 62.236352 
L 323.566993 65.467416 
L 315.242517 69.662656 
L 306.918042 54.282719 
L 298.593566 61.674954 
L 290.269091 74.901981 
L 281.944615 66.640114 
L 273.62014 69.01192 
L 265.295664 63.900523 
L 256.971189 75.126143 
L 248.646713 85.618076 
L 240.322238 87.547754 
L 231.997762 95.943623 
L 223.673287 110.286352 
L 215.348811 120.313241 
L 207.024336 123.578148 
L 198.69986 145.189539 
L 190.375385 126.603952 
L 182.050909 135.22636 
L 173.726434 162.902322 
L 165.401958 160.665232 
L 157.077483 165.202623 
L 148.753007 146.153971 
L 140.428531 160.539649 
L 132.104056 156.893658 
L 123.77958 154.865111 
L 115.455105 144.377766 
L 107.130629 151.372892 
L 98.806154 183.952425 
L 90.481678 225.660991 
L 82.157203 265.22534 
L 73.832727 281.029713 
z
" style="fill:#1f77b4;fill-opacity:0.3;"/>
   </g>
   <g id="PolyCollection_2">
    <path clip-path="url(#p190ae6bb38)" d="M 73.832727 281.029713 
L 73.832727 281.029713 
L 82.157203 281.029713 
L 90.481678 281.044198 
L 98.806154 287.974102 
L 107.130629 259.583051 
L 115.455105 241.656296 
L 123.77958 227.390928 
L 132.104056 222.514784 
L 140.428531 201.76811 
L 148.753007 221.604964 
L 157.077483 219.057902 
L 165.401958 196.001873 
L 173.726434 153.143823 
L 182.050909 145.441824 
L 190.375385 179.794191 
L 198.69986 142.564757 
L 207.024336 118.993608 
L 215.348811 100.947268 
L 223.673287 131.051602 
L 231.997762 157.208661 
L 240.322238 128.469286 
L 248.646713 116.662395 
L 256.971189 99.351439 
L 265.295664 121.308618 
L 273.62014 127.751486 
L 281.944615 107.775604 
L 290.269091 110.219644 
L 298.593566 94.782267 
L 306.918042 82.978586 
L 315.242517 76.308271 
L 323.566993 116.712687 
L 331.891469 100.21613 
L 340.215944 117.642107 
L 348.54042 123.853384 
L 356.864895 118.194543 
L 365.189371 105.646989 
L 373.513846 101.498644 
L 381.838322 131.403294 
L 390.162797 134.401169 
L 398.487273 110.774006 
L 398.487273 110.774006 
L 398.487273 73.972721 
L 390.162797 79.130636 
L 381.838322 73.170456 
L 373.513846 89.97113 
L 365.189371 89.17201 
L 356.864895 75.691024 
L 348.54042 70.543684 
L 340.215944 68.487728 
L 331.891469 64.548098 
L 323.566993 69.092509 
L 315.242517 58.915546 
L 306.918042 55.587638 
L 298.593566 56.605316 
L 290.269091 53.568 
L 281.944615 57.26274 
L 273.62014 57.750426 
L 265.295664 55.222441 
L 256.971189 58.061242 
L 248.646713 57.892288 
L 240.322238 63.692967 
L 231.997762 67.349778 
L 223.673287 63.107963 
L 215.348811 76.744192 
L 207.024336 84.529181 
L 198.69986 95.727882 
L 190.375385 108.856101 
L 182.050909 101.871278 
L 173.726434 107.431412 
L 165.401958 129.485839 
L 157.077483 168.200804 
L 148.753007 135.037383 
L 140.428531 162.582334 
L 132.104056 142.048477 
L 123.77958 189.22604 
L 115.455105 187.421711 
L 107.130629 199.321579 
L 98.806154 204.875074 
L 90.481678 227.356776 
L 82.157203 281.029713 
L 73.832727 281.029713 
z
" style="fill:#ff7f0e;fill-opacity:0.3;"/>
   </g>
   <g id="PolyCollection_3">
    <path clip-path="url(#p190ae6bb38)" d="M 73.832727 281.029713 
L 73.832727 281.029713 
L 82.157203 282.916314 
L 90.481678 282.350334 
L 98.806154 276.152335 
L 107.130629 279.750425 
L 115.455105 240.899141 
L 123.77958 220.901843 
L 132.104056 220.094186 
L 140.428531 208.476428 
L 148.753007 197.626105 
L 157.077483 167.506554 
L 165.401958 185.890981 
L 173.726434 188.274415 
L 182.050909 150.187273 
L 190.375385 125.946627 
L 198.69986 113.983714 
L 207.024336 134.545455 
L 215.348811 158.012522 
L 223.673287 127.42491 
L 231.997762 133.148652 
L 240.322238 185.62172 
L 248.646713 175.300304 
L 256.971189 181.698322 
L 265.295664 168.32982 
L 273.62014 140.206567 
L 281.944615 115.544279 
L 290.269091 130.291538 
L 298.593566 135.112641 
L 306.918042 151.749665 
L 315.242517 128.47782 
L 323.566993 112.986909 
L 331.891469 95.313647 
L 340.215944 90.435873 
L 348.54042 104.052193 
L 356.864895 120.398653 
L 365.189371 101.611722 
L 373.513846 132.887789 
L 381.838322 166.263621 
L 390.162797 133.621515 
L 398.487273 127.065478 
L 398.487273 127.065478 
L 398.487273 73.528207 
L 390.162797 73.091136 
L 381.838322 78.718079 
L 373.513846 70.586336 
L 365.189371 75.647523 
L 356.864895 71.755256 
L 348.54042 64.085408 
L 340.215944 74.020751 
L 331.891469 76.672502 
L 323.566993 86.039 
L 315.242517 94.285323 
L 306.918042 110.77993 
L 298.593566 65.184268 
L 290.269091 59.205845 
L 281.944615 66.069245 
L 273.62014 71.50629 
L 265.295664 71.679343 
L 256.971189 64.323031 
L 248.646713 80.766284 
L 240.322238 91.554243 
L 231.997762 67.913475 
L 223.673287 64.175983 
L 215.348811 65.806215 
L 207.024336 74.611254 
L 198.69986 75.647312 
L 190.375385 87.80505 
L 182.050909 87.388609 
L 173.726434 95.21638 
L 165.401958 126.08081 
L 157.077483 147.108396 
L 148.753007 171.118372 
L 140.428531 124.093437 
L 132.104056 155.489557 
L 123.77958 166.963205 
L 115.455105 213.89244 
L 107.130629 210.109376 
L 98.806154 221.74038 
L 90.481678 276.101087 
L 82.157203 273.98882 
L 73.832727 281.029713 
z
" style="fill:#2ca02c;fill-opacity:0.3;"/>
   </g>
   <g id="PolyCollection_4">
    <path clip-path="url(#p190ae6bb38)" d="M 73.832727 281.029713 
L 73.832727 281.029713 
L 82.157203 281.029713 
L 90.481678 281.029713 
L 98.806154 281.029713 
L 107.130629 281.029713 
L 115.455105 281.029713 
L 123.77958 281.029713 
L 132.104056 281.029713 
L 140.428531 281.029713 
L 148.753007 281.029713 
L 157.077483 281.029713 
L 165.401958 281.029713 
L 173.726434 293.267412 
L 182.050909 282.860848 
L 190.375385 281.610923 
L 198.69986 288.028595 
L 207.024336 285.928931 
L 215.348811 295.488 
L 223.673287 257.968983 
L 231.997762 272.751988 
L 240.322238 247.969306 
L 248.646713 229.943289 
L 256.971189 230.845248 
L 265.295664 245.900588 
L 273.62014 236.116524 
L 281.944615 194.19257 
L 290.269091 208.241989 
L 298.593566 181.355084 
L 306.918042 167.669618 
L 315.242517 174.46997 
L 323.566993 193.11571 
L 331.891469 217.629229 
L 340.215944 203.264408 
L 348.54042 192.327719 
L 356.864895 177.093055 
L 365.189371 186.852763 
L 373.513846 214.288334 
L 381.838322 169.359617 
L 390.162797 202.674598 
L 398.487273 183.861205 
L 398.487273 183.861205 
L 398.487273 98.77259 
L 390.162797 84.164108 
L 381.838322 92.492003 
L 373.513846 102.730899 
L 365.189371 120.703989 
L 356.864895 145.523946 
L 348.54042 123.304345 
L 340.215944 102.944504 
L 331.891469 122.249224 
L 323.566993 125.536145 
L 315.242517 111.25724 
L 306.918042 132.769146 
L 298.593566 142.302863 
L 290.269091 153.982709 
L 281.944615 172.250085 
L 273.62014 140.345783 
L 265.295664 181.602042 
L 256.971189 138.990183 
L 248.646713 119.128105 
L 240.322238 156.699161 
L 231.997762 158.221871 
L 223.673287 162.742507 
L 215.348811 186.452689 
L 207.024336 210.002347 
L 198.69986 179.562048 
L 190.375385 188.98823 
L 182.050909 244.031321 
L 173.726434 235.357997 
L 165.401958 281.029713 
L 157.077483 281.029713 
L 148.753007 281.029713 
L 140.428531 281.029713 
L 132.104056 281.029713 
L 123.77958 281.029713 
L 115.455105 281.029713 
L 107.130629 281.029713 
L 98.806154 281.029713 
L 90.481678 281.029713 
L 82.157203 281.029713 
L 73.832727 281.029713 
z
" style="fill:#d62728;fill-opacity:0.3;"/>
   </g>
   <g id="PolyCollection_5">
    <path clip-path="url(#p190ae6bb38)" d="M 73.832727 281.029713 
L 73.832727 281.029713 
L 82.157203 281.029713 
L 90.481678 281.029713 
L 98.806154 281.029713 
L 107.130629 281.029713 
L 115.455105 281.029713 
L 123.77958 281.029713 
L 132.104056 281.029713 
L 140.428531 281.029713 
L 148.753007 281.029713 
L 157.077483 281.029713 
L 165.401958 281.029713 
L 173.726434 281.029713 
L 182.050909 281.029713 
L 190.375385 281.029713 
L 198.69986 281.029713 
L 207.024336 281.029713 
L 215.348811 281.029713 
L 223.673287 281.029713 
L 231.997762 281.029713 
L 240.322238 281.029713 
L 248.646713 281.029713 
L 256.971189 281.029713 
L 265.295664 281.029713 
L 273.62014 281.029713 
L 281.944615 281.029713 
L 290.269091 281.029713 
L 298.593566 281.029713 
L 306.918042 281.029713 
L 315.242517 281.029713 
L 323.566993 281.029713 
L 331.891469 281.029713 
L 340.215944 281.029713 
L 348.54042 281.029713 
L 356.864895 281.029713 
L 365.189371 281.029713 
L 373.513846 281.029713 
L 381.838322 281.029713 
L 390.162797 281.029713 
L 398.487273 281.029713 
L 398.487273 281.029713 
L 398.487273 281.029713 
L 390.162797 281.029713 
L 381.838322 281.029713 
L 373.513846 281.029713 
L 365.189371 281.029713 
L 356.864895 281.029713 
L 348.54042 281.029713 
L 340.215944 281.029713 
L 331.891469 281.029713 
L 323.566993 281.029713 
L 315.242517 281.029713 
L 306.918042 281.029713 
L 298.593566 281.029713 
L 290.269091 281.029713 
L 281.944615 281.029713 
L 273.62014 281.029713 
L 265.295664 281.029713 
L 256.971189 281.029713 
L 248.646713 281.029713 
L 240.322238 281.029713 
L 231.997762 281.029713 
L 223.673287 281.029713 
L 215.348811 281.029713 
L 207.024336 281.029713 
L 198.69986 281.029713 
L 190.375385 281.029713 
L 182.050909 281.029713 
L 173.726434 281.029713 
L 165.401958 281.029713 
L 157.077483 281.029713 
L 148.753007 281.029713 
L 140.428531 281.029713 
L 132.104056 281.029713 
L 123.77958 281.029713 
L 115.455105 281.029713 
L 107.130629 281.029713 
L 98.806154 281.029713 
L 90.481678 281.029713 
L 82.157203 281.029713 
L 73.832727 281.029713 
z
" style="fill:#9467bd;fill-opacity:0.3;"/>
   </g>
   <g id="PolyCollection_6">
    <path clip-path="url(#p190ae6bb38)" d="M 73.832727 281.029713 
L 73.832727 281.029713 
L 82.157203 281.029713 
L 90.481678 281.029713 
L 98.806154 281.029713 
L 107.130629 281.029713 
L 115.455105 281.029713 
L 123.77958 281.029713 
L 132.104056 281.029713 
L 140.428531 281.029713 
L 148.753007 281.029713 
L 157.077483 281.029713 
L 165.401958 281.029713 
L 173.726434 281.029713 
L 182.050909 281.029713 
L 190.375385 281.029713 
L 198.69986 281.029713 
L 207.024336 281.029713 
L 215.348811 281.029713 
L 223.673287 281.029713 
L 231.997762 281.029713 
L 240.322238 281.029713 
L 248.646713 281.029713 
L 256.971189 281.029713 
L 265.295664 281.029713 
L 273.62014 281.029713 
L 281.944615 281.029713 
L 290.269091 281.029713 
L 298.593566 281.029713 
L 306.918042 281.029713 
L 315.242517 281.029713 
L 323.566993 281.029713 
L 331.891469 281.029713 
L 340.215944 281.029713 
L 348.54042 281.029713 
L 356.864895 281.029713 
L 365.189371 281.029713 
L 373.513846 281.029713 
L 381.838322 281.029713 
L 390.162797 281.029713 
L 398.487273 281.029713 
L 398.487273 281.029713 
L 398.487273 281.029713 
L 390.162797 281.029713 
L 381.838322 281.029713 
L 373.513846 281.029713 
L 365.189371 281.029713 
L 356.864895 281.029713 
L 348.54042 281.029713 
L 340.215944 281.029713 
L 331.891469 281.029713 
L 323.566993 281.029713 
L 315.242517 281.029713 
L 306.918042 281.029713 
L 298.593566 281.029713 
L 290.269091 281.029713 
L 281.944615 281.029713 
L 273.62014 281.029713 
L 265.295664 281.029713 
L 256.971189 281.029713 
L 248.646713 281.029713 
L 240.322238 281.029713 
L 231.997762 281.029713 
L 223.673287 281.029713 
L 215.348811 281.029713 
L 207.024336 281.029713 
L 198.69986 281.029713 
L 190.375385 281.029713 
L 182.050909 281.029713 
L 173.726434 281.029713 
L 165.401958 281.029713 
L 157.077483 281.029713 
L 148.753007 281.029713 
L 140.428531 281.029713 
L 132.104056 281.029713 
L 123.77958 281.029713 
L 115.455105 281.029713 
L 107.130629 281.029713 
L 98.806154 281.029713 
L 90.481678 281.029713 
L 82.157203 281.029713 
L 73.832727 281.029713 
z
" style="fill:#8c564b;fill-opacity:0.3;"/>
   </g>
   <g id="matplotlib.axis_1">
    <g id="xtick_1">
     <g id="line2d_1">
      <defs>
       <path d="M 0 0 
L 0 3.5 
" id="m491ee64713" style="stroke:#000000;stroke-width:0.8;"/>
      </defs>
      <g>
       <use style="stroke:#000000;stroke-width:0.8;" x="65.508252" xlink:href="#m491ee64713" y="307.584"/>
      </g>
     </g>
     <g id="text_1">
      <!-- 0 -->
      <g transform="translate(62.327002 322.182437)scale(0.1 -0.1)">
       <defs>
        <path d="M 2034 4250 
Q 1547 4250 1301 3770 
Q 1056 3291 1056 2328 
Q 1056 1369 1301 889 
Q 1547 409 2034 409 
Q 2525 409 2770 889 
Q 3016 1369 3016 2328 
Q 3016 3291 2770 3770 
Q 2525 4250 2034 4250 
z
M 2034 4750 
Q 2819 4750 3233 4129 
Q 3647 3509 3647 2328 
Q 3647 1150 3233 529 
Q 2819 -91 2034 -91 
Q 1250 -91 836 529 
Q 422 1150 422 2328 
Q 422 3509 836 4129 
Q 1250 4750 2034 4750 
z
" id="DejaVuSans-30" transform="scale(0.015625)"/>
       </defs>
       <use xlink:href="#DejaVuSans-30"/>
      </g>
     </g>
    </g>
    <g id="xtick_2">
     <g id="line2d_2">
      <g>
       <use style="stroke:#000000;stroke-width:0.8;" x="107.130629" xlink:href="#m491ee64713" y="307.584"/>
      </g>
     </g>
     <g id="text_2">
      <!-- 25 -->
      <g transform="translate(100.768129 322.182437)scale(0.1 -0.1)">
       <defs>
        <path d="M 1228 531 
L 3431 531 
L 3431 0 
L 469 0 
L 469 531 
Q 828 903 1448 1529 
Q 2069 2156 2228 2338 
Q 2531 2678 2651 2914 
Q 2772 3150 2772 3378 
Q 2772 3750 2511 3984 
Q 2250 4219 1831 4219 
Q 1534 4219 1204 4116 
Q 875 4013 500 3803 
L 500 4441 
Q 881 4594 1212 4672 
Q 1544 4750 1819 4750 
Q 2544 4750 2975 4387 
Q 3406 4025 3406 3419 
Q 3406 3131 3298 2873 
Q 3191 2616 2906 2266 
Q 2828 2175 2409 1742 
Q 1991 1309 1228 531 
z
" id="DejaVuSans-32" transform="scale(0.015625)"/>
        <path d="M 691 4666 
L 3169 4666 
L 3169 4134 
L 1269 4134 
L 1269 2991 
Q 1406 3038 1543 3061 
Q 1681 3084 1819 3084 
Q 2600 3084 3056 2656 
Q 3513 2228 3513 1497 
Q 3513 744 3044 326 
Q 2575 -91 1722 -91 
Q 1428 -91 1123 -41 
Q 819 9 494 109 
L 494 744 
Q 775 591 1075 516 
Q 1375 441 1709 441 
Q 2250 441 2565 725 
Q 2881 1009 2881 1497 
Q 2881 1984 2565 2268 
Q 2250 2553 1709 2553 
Q 1456 2553 1204 2497 
Q 953 2441 691 2322 
L 691 4666 
z
" id="DejaVuSans-35" transform="scale(0.015625)"/>
       </defs>
       <use xlink:href="#DejaVuSans-32"/>
       <use x="63.623047" xlink:href="#DejaVuSans-35"/>
      </g>
     </g>
    </g>
    <g id="xtick_3">
     <g id="line2d_3">
      <g>
       <use style="stroke:#000000;stroke-width:0.8;" x="148.753007" xlink:href="#m491ee64713" y="307.584"/>
      </g>
     </g>
     <g id="text_3">
      <!-- 50 -->
      <g transform="translate(142.390507 322.182437)scale(0.1 -0.1)">
       <use xlink:href="#DejaVuSans-35"/>
       <use x="63.623047" xlink:href="#DejaVuSans-30"/>
      </g>
     </g>
    </g>
    <g id="xtick_4">
     <g id="line2d_4">
      <g>
       <use style="stroke:#000000;stroke-width:0.8;" x="190.375385" xlink:href="#m491ee64713" y="307.584"/>
      </g>
     </g>
     <g id="text_4">
      <!-- 75 -->
      <g transform="translate(184.012885 322.182437)scale(0.1 -0.1)">
       <defs>
        <path d="M 525 4666 
L 3525 4666 
L 3525 4397 
L 1831 0 
L 1172 0 
L 2766 4134 
L 525 4134 
L 525 4666 
z
" id="DejaVuSans-37" transform="scale(0.015625)"/>
       </defs>
       <use xlink:href="#DejaVuSans-37"/>
       <use x="63.623047" xlink:href="#DejaVuSans-35"/>
      </g>
     </g>
    </g>
    <g id="xtick_5">
     <g id="line2d_5">
      <g>
       <use style="stroke:#000000;stroke-width:0.8;" x="231.997762" xlink:href="#m491ee64713" y="307.584"/>
      </g>
     </g>
     <g id="text_5">
      <!-- 100 -->
      <g transform="translate(222.454012 322.182437)scale(0.1 -0.1)">
       <defs>
        <path d="M 794 531 
L 1825 531 
L 1825 4091 
L 703 3866 
L 703 4441 
L 1819 4666 
L 2450 4666 
L 2450 531 
L 3481 531 
L 3481 0 
L 794 0 
L 794 531 
z
" id="DejaVuSans-31" transform="scale(0.015625)"/>
       </defs>
       <use xlink:href="#DejaVuSans-31"/>
       <use x="63.623047" xlink:href="#DejaVuSans-30"/>
       <use x="127.246094" xlink:href="#DejaVuSans-30"/>
      </g>
     </g>
    </g>
    <g id="xtick_6">
     <g id="line2d_6">
      <g>
       <use style="stroke:#000000;stroke-width:0.8;" x="273.62014" xlink:href="#m491ee64713" y="307.584"/>
      </g>
     </g>
     <g id="text_6">
      <!-- 125 -->
      <g transform="translate(264.07639 322.182437)scale(0.1 -0.1)">
       <use xlink:href="#DejaVuSans-31"/>
       <use x="63.623047" xlink:href="#DejaVuSans-32"/>
       <use x="127.246094" xlink:href="#DejaVuSans-35"/>
      </g>
     </g>
    </g>
    <g id="xtick_7">
     <g id="line2d_7">
      <g>
       <use style="stroke:#000000;stroke-width:0.8;" x="315.242517" xlink:href="#m491ee64713" y="307.584"/>
      </g>
     </g>
     <g id="text_7">
      <!-- 150 -->
      <g transform="translate(305.698767 322.182437)scale(0.1 -0.1)">
       <use xlink:href="#DejaVuSans-31"/>
       <use x="63.623047" xlink:href="#DejaVuSans-35"/>
       <use x="127.246094" xlink:href="#DejaVuSans-30"/>
      </g>
     </g>
    </g>
    <g id="xtick_8">
     <g id="line2d_8">
      <g>
       <use style="stroke:#000000;stroke-width:0.8;" x="356.864895" xlink:href="#m491ee64713" y="307.584"/>
      </g>
     </g>
     <g id="text_8">
      <!-- 175 -->
      <g transform="translate(347.321145 322.182437)scale(0.1 -0.1)">
       <use xlink:href="#DejaVuSans-31"/>
       <use x="63.623047" xlink:href="#DejaVuSans-37"/>
       <use x="127.246094" xlink:href="#DejaVuSans-35"/>
      </g>
     </g>
    </g>
    <g id="xtick_9">
     <g id="line2d_9">
      <g>
       <use style="stroke:#000000;stroke-width:0.8;" x="398.487273" xlink:href="#m491ee64713" y="307.584"/>
      </g>
     </g>
     <g id="text_9">
      <!-- 200 -->
      <g transform="translate(388.943523 322.182437)scale(0.1 -0.1)">
       <use xlink:href="#DejaVuSans-32"/>
       <use x="63.623047" xlink:href="#DejaVuSans-30"/>
       <use x="127.246094" xlink:href="#DejaVuSans-30"/>
      </g>
     </g>
    </g>
    <g id="text_10">
     <!-- Epoch -->
     <g transform="translate(220.849063 335.860562)scale(0.1 -0.1)">
      <defs>
       <path d="M 628 4666 
L 3578 4666 
L 3578 4134 
L 1259 4134 
L 1259 2753 
L 3481 2753 
L 3481 2222 
L 1259 2222 
L 1259 531 
L 3634 531 
L 3634 0 
L 628 0 
L 628 4666 
z
" id="DejaVuSans-45" transform="scale(0.015625)"/>
       <path d="M 1159 525 
L 1159 -1331 
L 581 -1331 
L 581 3500 
L 1159 3500 
L 1159 2969 
Q 1341 3281 1617 3432 
Q 1894 3584 2278 3584 
Q 2916 3584 3314 3078 
Q 3713 2572 3713 1747 
Q 3713 922 3314 415 
Q 2916 -91 2278 -91 
Q 1894 -91 1617 61 
Q 1341 213 1159 525 
z
M 3116 1747 
Q 3116 2381 2855 2742 
Q 2594 3103 2138 3103 
Q 1681 3103 1420 2742 
Q 1159 2381 1159 1747 
Q 1159 1113 1420 752 
Q 1681 391 2138 391 
Q 2594 391 2855 752 
Q 3116 1113 3116 1747 
z
" id="DejaVuSans-70" transform="scale(0.015625)"/>
       <path d="M 1959 3097 
Q 1497 3097 1228 2736 
Q 959 2375 959 1747 
Q 959 1119 1226 758 
Q 1494 397 1959 397 
Q 2419 397 2687 759 
Q 2956 1122 2956 1747 
Q 2956 2369 2687 2733 
Q 2419 3097 1959 3097 
z
M 1959 3584 
Q 2709 3584 3137 3096 
Q 3566 2609 3566 1747 
Q 3566 888 3137 398 
Q 2709 -91 1959 -91 
Q 1206 -91 779 398 
Q 353 888 353 1747 
Q 353 2609 779 3096 
Q 1206 3584 1959 3584 
z
" id="DejaVuSans-6f" transform="scale(0.015625)"/>
       <path d="M 3122 3366 
L 3122 2828 
Q 2878 2963 2633 3030 
Q 2388 3097 2138 3097 
Q 1578 3097 1268 2742 
Q 959 2388 959 1747 
Q 959 1106 1268 751 
Q 1578 397 2138 397 
Q 2388 397 2633 464 
Q 2878 531 3122 666 
L 3122 134 
Q 2881 22 2623 -34 
Q 2366 -91 2075 -91 
Q 1284 -91 818 406 
Q 353 903 353 1747 
Q 353 2603 823 3093 
Q 1294 3584 2113 3584 
Q 2378 3584 2631 3529 
Q 2884 3475 3122 3366 
z
" id="DejaVuSans-63" transform="scale(0.015625)"/>
       <path d="M 3513 2113 
L 3513 0 
L 2938 0 
L 2938 2094 
Q 2938 2591 2744 2837 
Q 2550 3084 2163 3084 
Q 1697 3084 1428 2787 
Q 1159 2491 1159 1978 
L 1159 0 
L 581 0 
L 581 4863 
L 1159 4863 
L 1159 2956 
Q 1366 3272 1645 3428 
Q 1925 3584 2291 3584 
Q 2894 3584 3203 3211 
Q 3513 2838 3513 2113 
z
" id="DejaVuSans-68" transform="scale(0.015625)"/>
      </defs>
      <!--
      <use xlink:href="#DejaVuSans-45"/>
      <use x="63.183594" xlink:href="#DejaVuSans-70"/>
      <use x="126.660156" xlink:href="#DejaVuSans-6f"/>
      <use x="187.841797" xlink:href="#DejaVuSans-63"/>
      <use x="242.822266" xlink:href="#DejaVuSans-68"/>
    -->
     </g>
    </g>
   </g>
   <g id="matplotlib.axis_2">
    <g id="ytick_1">
     <g id="line2d_10">
      <defs>
       <path d="M 0 0 
L -3.5 0 
" id="m99ea798b42" style="stroke:#000000;stroke-width:0.8;"/>
      </defs>
      <g>
       <use style="stroke:#000000;stroke-width:0.8;" x="57.6" xlink:href="#m99ea798b42" y="285.584902"/>
      </g>
     </g>
     <g id="text_11">
      <!-- −400 -->
      <g transform="translate(23.132812 289.384121)scale(0.1 -0.1)">
       <defs>
        <path d="M 678 2272 
L 4684 2272 
L 4684 1741 
L 678 1741 
L 678 2272 
z
" id="DejaVuSans-2212" transform="scale(0.015625)"/>
        <path d="M 2419 4116 
L 825 1625 
L 2419 1625 
L 2419 4116 
z
M 2253 4666 
L 3047 4666 
L 3047 1625 
L 3713 1625 
L 3713 1100 
L 3047 1100 
L 3047 0 
L 2419 0 
L 2419 1100 
L 313 1100 
L 313 1709 
L 2253 4666 
z
" id="DejaVuSans-34" transform="scale(0.015625)"/>
       </defs>
       <use xlink:href="#DejaVuSans-2212"/>
       <use x="83.789062" xlink:href="#DejaVuSans-34"/>
       <use x="147.412109" xlink:href="#DejaVuSans-30"/>
       <use x="211.035156" xlink:href="#DejaVuSans-30"/>
      </g>
     </g>
    </g>
    <g id="ytick_2">
     <g id="line2d_11">
      <g>
       <use style="stroke:#000000;stroke-width:0.8;" x="57.6" xlink:href="#m99ea798b42" y="249.880019"/>
      </g>
     </g>
     <g id="text_12">
      <!-- −350 -->
      <g transform="translate(23.132812 253.679238)scale(0.1 -0.1)">
       <defs>
        <path d="M 2597 2516 
Q 3050 2419 3304 2112 
Q 3559 1806 3559 1356 
Q 3559 666 3084 287 
Q 2609 -91 1734 -91 
Q 1441 -91 1130 -33 
Q 819 25 488 141 
L 488 750 
Q 750 597 1062 519 
Q 1375 441 1716 441 
Q 2309 441 2620 675 
Q 2931 909 2931 1356 
Q 2931 1769 2642 2001 
Q 2353 2234 1838 2234 
L 1294 2234 
L 1294 2753 
L 1863 2753 
Q 2328 2753 2575 2939 
Q 2822 3125 2822 3475 
Q 2822 3834 2567 4026 
Q 2313 4219 1838 4219 
Q 1578 4219 1281 4162 
Q 984 4106 628 3988 
L 628 4550 
Q 988 4650 1302 4700 
Q 1616 4750 1894 4750 
Q 2613 4750 3031 4423 
Q 3450 4097 3450 3541 
Q 3450 3153 3228 2886 
Q 3006 2619 2597 2516 
z
" id="DejaVuSans-33" transform="scale(0.015625)"/>
       </defs>
       <use xlink:href="#DejaVuSans-2212"/>
       <use x="83.789062" xlink:href="#DejaVuSans-33"/>
       <use x="147.412109" xlink:href="#DejaVuSans-35"/>
       <use x="211.035156" xlink:href="#DejaVuSans-30"/>
      </g>
     </g>
    </g>
    <g id="ytick_3">
     <g id="line2d_12">
      <g>
       <use style="stroke:#000000;stroke-width:0.8;" x="57.6" xlink:href="#m99ea798b42" y="214.175136"/>
      </g>
     </g>
     <g id="text_13">
      <!-- −300 -->
      <g transform="translate(23.132812 217.974355)scale(0.1 -0.1)">
       <use xlink:href="#DejaVuSans-2212"/>
       <use x="83.789062" xlink:href="#DejaVuSans-33"/>
       <use x="147.412109" xlink:href="#DejaVuSans-30"/>
       <use x="211.035156" xlink:href="#DejaVuSans-30"/>
      </g>
     </g>
    </g>
    <g id="ytick_4">
     <g id="line2d_13">
      <g>
       <use style="stroke:#000000;stroke-width:0.8;" x="57.6" xlink:href="#m99ea798b42" y="178.470253"/>
      </g>
     </g>
     <g id="text_14">
      <!-- −250 -->
      <g transform="translate(23.132812 182.269472)scale(0.1 -0.1)">
       <use xlink:href="#DejaVuSans-2212"/>
       <use x="83.789062" xlink:href="#DejaVuSans-32"/>
       <use x="147.412109" xlink:href="#DejaVuSans-35"/>
       <use x="211.035156" xlink:href="#DejaVuSans-30"/>
      </g>
     </g>
    </g>
    <g id="ytick_5">
     <g id="line2d_14">
      <g>
       <use style="stroke:#000000;stroke-width:0.8;" x="57.6" xlink:href="#m99ea798b42" y="142.76537"/>
      </g>
     </g>
     <g id="text_15">
      <!-- −200 -->
      <g transform="translate(23.132812 146.564589)scale(0.1 -0.1)">
       <use xlink:href="#DejaVuSans-2212"/>
       <use x="83.789062" xlink:href="#DejaVuSans-32"/>
       <use x="147.412109" xlink:href="#DejaVuSans-30"/>
       <use x="211.035156" xlink:href="#DejaVuSans-30"/>
      </g>
     </g>
    </g>
    <g id="ytick_6">
     <g id="line2d_15">
      <g>
       <use style="stroke:#000000;stroke-width:0.8;" x="57.6" xlink:href="#m99ea798b42" y="107.060487"/>
      </g>
     </g>
     <g id="text_16">
      <!-- −150 -->
      <g transform="translate(23.132812 110.859706)scale(0.1 -0.1)">
       <use xlink:href="#DejaVuSans-2212"/>
       <use x="83.789062" xlink:href="#DejaVuSans-31"/>
       <use x="147.412109" xlink:href="#DejaVuSans-35"/>
       <use x="211.035156" xlink:href="#DejaVuSans-30"/>
      </g>
     </g>
    </g>
    <g id="ytick_7">
     <g id="line2d_16">
      <g>
       <use style="stroke:#000000;stroke-width:0.8;" x="57.6" xlink:href="#m99ea798b42" y="71.355605"/>
      </g>
     </g>
     <g id="text_17">
      <!-- −100 -->
      <g transform="translate(23.132812 75.154823)scale(0.1 -0.1)">
       <use xlink:href="#DejaVuSans-2212"/>
       <use x="83.789062" xlink:href="#DejaVuSans-31"/>
       <use x="147.412109" xlink:href="#DejaVuSans-30"/>
       <use x="211.035156" xlink:href="#DejaVuSans-30"/>
      </g>
     </g>
    </g>
    <g id="text_18">
     <!-- Average Reward -->
     <g transform="translate(17.053125 215.270969)rotate(-90)scale(0.1 -0.1)">
      <defs>
       <path d="M 2188 4044 
L 1331 1722 
L 3047 1722 
L 2188 4044 
z
M 1831 4666 
L 2547 4666 
L 4325 0 
L 3669 0 
L 3244 1197 
L 1141 1197 
L 716 0 
L 50 0 
L 1831 4666 
z
" id="DejaVuSans-41" transform="scale(0.015625)"/>
       <path d="M 191 3500 
L 800 3500 
L 1894 563 
L 2988 3500 
L 3597 3500 
L 2284 0 
L 1503 0 
L 191 3500 
z
" id="DejaVuSans-76" transform="scale(0.015625)"/>
       <path d="M 3597 1894 
L 3597 1613 
L 953 1613 
Q 991 1019 1311 708 
Q 1631 397 2203 397 
Q 2534 397 2845 478 
Q 3156 559 3463 722 
L 3463 178 
Q 3153 47 2828 -22 
Q 2503 -91 2169 -91 
Q 1331 -91 842 396 
Q 353 884 353 1716 
Q 353 2575 817 3079 
Q 1281 3584 2069 3584 
Q 2775 3584 3186 3129 
Q 3597 2675 3597 1894 
z
M 3022 2063 
Q 3016 2534 2758 2815 
Q 2500 3097 2075 3097 
Q 1594 3097 1305 2825 
Q 1016 2553 972 2059 
L 3022 2063 
z
" id="DejaVuSans-65" transform="scale(0.015625)"/>
       <path d="M 2631 2963 
Q 2534 3019 2420 3045 
Q 2306 3072 2169 3072 
Q 1681 3072 1420 2755 
Q 1159 2438 1159 1844 
L 1159 0 
L 581 0 
L 581 3500 
L 1159 3500 
L 1159 2956 
Q 1341 3275 1631 3429 
Q 1922 3584 2338 3584 
Q 2397 3584 2469 3576 
Q 2541 3569 2628 3553 
L 2631 2963 
z
" id="DejaVuSans-72" transform="scale(0.015625)"/>
       <path d="M 2194 1759 
Q 1497 1759 1228 1600 
Q 959 1441 959 1056 
Q 959 750 1161 570 
Q 1363 391 1709 391 
Q 2188 391 2477 730 
Q 2766 1069 2766 1631 
L 2766 1759 
L 2194 1759 
z
M 3341 1997 
L 3341 0 
L 2766 0 
L 2766 531 
Q 2569 213 2275 61 
Q 1981 -91 1556 -91 
Q 1019 -91 701 211 
Q 384 513 384 1019 
Q 384 1609 779 1909 
Q 1175 2209 1959 2209 
L 2766 2209 
L 2766 2266 
Q 2766 2663 2505 2880 
Q 2244 3097 1772 3097 
Q 1472 3097 1187 3025 
Q 903 2953 641 2809 
L 641 3341 
Q 956 3463 1253 3523 
Q 1550 3584 1831 3584 
Q 2591 3584 2966 3190 
Q 3341 2797 3341 1997 
z
" id="DejaVuSans-61" transform="scale(0.015625)"/>
       <path d="M 2906 1791 
Q 2906 2416 2648 2759 
Q 2391 3103 1925 3103 
Q 1463 3103 1205 2759 
Q 947 2416 947 1791 
Q 947 1169 1205 825 
Q 1463 481 1925 481 
Q 2391 481 2648 825 
Q 2906 1169 2906 1791 
z
M 3481 434 
Q 3481 -459 3084 -895 
Q 2688 -1331 1869 -1331 
Q 1566 -1331 1297 -1286 
Q 1028 -1241 775 -1147 
L 775 -588 
Q 1028 -725 1275 -790 
Q 1522 -856 1778 -856 
Q 2344 -856 2625 -561 
Q 2906 -266 2906 331 
L 2906 616 
Q 2728 306 2450 153 
Q 2172 0 1784 0 
Q 1141 0 747 490 
Q 353 981 353 1791 
Q 353 2603 747 3093 
Q 1141 3584 1784 3584 
Q 2172 3584 2450 3431 
Q 2728 3278 2906 2969 
L 2906 3500 
L 3481 3500 
L 3481 434 
z
" id="DejaVuSans-67" transform="scale(0.015625)"/>
       <path id="DejaVuSans-20" transform="scale(0.015625)"/>
       <path d="M 2841 2188 
Q 3044 2119 3236 1894 
Q 3428 1669 3622 1275 
L 4263 0 
L 3584 0 
L 2988 1197 
Q 2756 1666 2539 1819 
Q 2322 1972 1947 1972 
L 1259 1972 
L 1259 0 
L 628 0 
L 628 4666 
L 2053 4666 
Q 2853 4666 3247 4331 
Q 3641 3997 3641 3322 
Q 3641 2881 3436 2590 
Q 3231 2300 2841 2188 
z
M 1259 4147 
L 1259 2491 
L 2053 2491 
Q 2509 2491 2742 2702 
Q 2975 2913 2975 3322 
Q 2975 3731 2742 3939 
Q 2509 4147 2053 4147 
L 1259 4147 
z
" id="DejaVuSans-52" transform="scale(0.015625)"/>
       <path d="M 269 3500 
L 844 3500 
L 1563 769 
L 2278 3500 
L 2956 3500 
L 3675 769 
L 4391 3500 
L 4966 3500 
L 4050 0 
L 3372 0 
L 2619 2869 
L 1863 0 
L 1184 0 
L 269 3500 
z
" id="DejaVuSans-77" transform="scale(0.015625)"/>
       <path d="M 2906 2969 
L 2906 4863 
L 3481 4863 
L 3481 0 
L 2906 0 
L 2906 525 
Q 2725 213 2448 61 
Q 2172 -91 1784 -91 
Q 1150 -91 751 415 
Q 353 922 353 1747 
Q 353 2572 751 3078 
Q 1150 3584 1784 3584 
Q 2172 3584 2448 3432 
Q 2725 3281 2906 2969 
z
M 947 1747 
Q 947 1113 1208 752 
Q 1469 391 1925 391 
Q 2381 391 2643 752 
Q 2906 1113 2906 1747 
Q 2906 2381 2643 2742 
Q 2381 3103 1925 3103 
Q 1469 3103 1208 2742 
Q 947 2381 947 1747 
z
" id="DejaVuSans-64" transform="scale(0.015625)"/>
      </defs>
      <!--
      <use xlink:href="#DejaVuSans-41"/>
      <use x="62.533203" xlink:href="#DejaVuSans-76"/>
      <use x="121.712891" xlink:href="#DejaVuSans-65"/>
      <use x="183.236328" xlink:href="#DejaVuSans-72"/>
      <use x="224.349609" xlink:href="#DejaVuSans-61"/>
      <use x="285.628906" xlink:href="#DejaVuSans-67"/>
      <use x="349.105469" xlink:href="#DejaVuSans-65"/>
      <use x="410.628906" xlink:href="#DejaVuSans-20"/>
      <use x="442.416016" xlink:href="#DejaVuSans-52"/>
      <use x="507.398438" xlink:href="#DejaVuSans-65"/>
      <use x="568.921875" xlink:href="#DejaVuSans-77"/>
      <use x="650.708984" xlink:href="#DejaVuSans-61"/>
      <use x="711.988281" xlink:href="#DejaVuSans-72"/>
      <use x="751.351562" xlink:href="#DejaVuSans-64"/>
    -->
     </g>
    </g>
   </g>
   <g id="line2d_17">
    <path clip-path="url(#p190ae6bb38)" d="M 73.832727 281.029713 
L 82.157203 275.244911 
L 90.481678 256.458121 
L 98.806154 225.810681 
L 107.130629 204.911299 
L 115.455105 196.864288 
L 123.77958 206.033153 
L 132.104056 213.822418 
L 140.428531 221.152913 
L 148.753007 208.923158 
L 157.077483 218.168574 
L 165.401958 218.678685 
L 173.726434 220.857614 
L 182.050909 204.138948 
L 190.375385 184.277992 
L 198.69986 182.836071 
L 207.024336 153.348975 
L 215.348811 156.774857 
L 223.673287 145.067478 
L 231.997762 121.336837 
L 240.322238 106.11547 
L 248.646713 116.873397 
L 256.971189 122.251405 
L 265.295664 123.520011 
L 273.62014 125.593161 
L 281.944615 107.760375 
L 290.269091 106.837265 
L 298.593566 110.597089 
L 306.918042 115.505042 
L 315.242517 116.953387 
L 323.566993 106.893344 
L 331.891469 121.870188 
L 340.215944 110.913305 
L 348.54042 125.814428 
L 356.864895 122.161463 
L 365.189371 102.675745 
L 373.513846 90.69234 
L 381.838322 81.654595 
L 390.162797 75.552302 
L 398.487273 69.09537 
" style="fill:none;stroke:#1f77b4;stroke-linecap:square;stroke-width:1.5;"/>
   </g>
   <g id="line2d_18">
    <path clip-path="url(#p190ae6bb38)" d="M 73.832727 281.029713 
L 82.157203 281.029713 
L 90.481678 254.200487 
L 98.806154 246.424588 
L 107.130629 229.452315 
L 115.455105 214.539004 
L 123.77958 208.308484 
L 132.104056 182.28163 
L 140.428531 182.175222 
L 148.753007 178.321173 
L 157.077483 193.629353 
L 165.401958 162.743856 
L 173.726434 130.287618 
L 182.050909 123.656551 
L 190.375385 144.325146 
L 198.69986 119.146319 
L 207.024336 101.761394 
L 215.348811 88.84573 
L 223.673287 97.079782 
L 231.997762 112.279219 
L 240.322238 96.081126 
L 248.646713 87.277341 
L 256.971189 78.706341 
L 265.295664 88.265529 
L 273.62014 92.750956 
L 281.944615 82.519172 
L 290.269091 81.893822 
L 298.593566 75.693792 
L 306.918042 69.283112 
L 315.242517 67.611908 
L 323.566993 92.902598 
L 331.891469 82.382114 
L 340.215944 93.064918 
L 348.54042 97.198534 
L 356.864895 96.942784 
L 365.189371 97.4095 
L 373.513846 95.734887 
L 381.838322 102.286875 
L 390.162797 106.765903 
L 398.487273 92.373364 
" style="fill:none;stroke:#ff7f0e;stroke-linecap:square;stroke-width:1.5;"/>
   </g>
   <g id="line2d_19">
    <path clip-path="url(#p190ae6bb38)" d="M 73.832727 281.029713 
L 82.157203 278.452567 
L 90.481678 279.225711 
L 98.806154 248.946357 
L 107.130629 244.929901 
L 115.455105 227.395791 
L 123.77958 193.932524 
L 132.104056 187.791872 
L 140.428531 166.284932 
L 148.753007 184.372238 
L 157.077483 157.307475 
L 165.401958 155.985896 
L 173.726434 141.745398 
L 182.050909 118.787941 
L 190.375385 106.875838 
L 198.69986 94.815513 
L 207.024336 104.578355 
L 215.348811 111.909369 
L 223.673287 95.800446 
L 231.997762 100.531063 
L 240.322238 138.587981 
L 248.646713 128.033294 
L 256.971189 123.010676 
L 265.295664 120.004582 
L 273.62014 105.856428 
L 281.944615 90.806762 
L 290.269091 94.748691 
L 298.593566 100.148454 
L 306.918042 131.264798 
L 315.242517 111.381572 
L 323.566993 99.512954 
L 331.891469 85.993074 
L 340.215944 82.228312 
L 348.54042 84.0688 
L 356.864895 96.076954 
L 365.189371 88.629623 
L 373.513846 101.737063 
L 381.838322 122.49085 
L 390.162797 103.356325 
L 398.487273 100.296842 
" style="fill:none;stroke:#2ca02c;stroke-linecap:square;stroke-width:1.5;"/>
   </g>
   <g id="line2d_20">
    <path clip-path="url(#p190ae6bb38)" d="M 73.832727 281.029713 
L 82.157203 281.029713 
L 90.481678 281.029713 
L 98.806154 281.029713 
L 107.130629 281.029713 
L 115.455105 281.029713 
L 123.77958 281.029713 
L 132.104056 281.029713 
L 140.428531 281.029713 
L 148.753007 281.029713 
L 157.077483 281.029713 
L 165.401958 281.029713 
L 173.726434 264.312704 
L 182.050909 263.446084 
L 190.375385 235.299577 
L 198.69986 233.795322 
L 207.024336 247.965639 
L 215.348811 240.970344 
L 223.673287 210.355745 
L 231.997762 215.48693 
L 240.322238 202.334233 
L 248.646713 174.535697 
L 256.971189 184.917716 
L 265.295664 213.751315 
L 273.62014 188.231154 
L 281.944615 183.221328 
L 290.269091 181.112349 
L 298.593566 161.828973 
L 306.918042 150.219382 
L 315.242517 142.863605 
L 323.566993 159.325928 
L 331.891469 169.939226 
L 340.215944 153.104456 
L 348.54042 157.816032 
L 356.864895 161.3085 
L 365.189371 153.778376 
L 373.513846 158.509617 
L 381.838322 130.92581 
L 390.162797 143.419353 
L 398.487273 141.316897 
" style="fill:none;stroke:#d62728;stroke-linecap:square;stroke-width:1.5;"/>
   </g>
   <g id="line2d_21">
    <path clip-path="url(#p190ae6bb38)" d="M 73.832727 281.029713 
L 82.157203 281.029713 
L 90.481678 281.029713 
L 98.806154 281.029713 
L 107.130629 281.029713 
L 115.455105 281.029713 
L 123.77958 281.029713 
L 132.104056 281.029713 
L 140.428531 281.029713 
L 148.753007 281.029713 
L 157.077483 281.029713 
L 165.401958 281.029713 
L 173.726434 281.029713 
L 182.050909 281.029713 
L 190.375385 281.029713 
L 198.69986 281.029713 
L 207.024336 281.029713 
L 215.348811 281.029713 
L 223.673287 281.029713 
L 231.997762 281.029713 
L 240.322238 281.029713 
L 248.646713 281.029713 
L 256.971189 281.029713 
L 265.295664 281.029713 
L 273.62014 281.029713 
L 281.944615 281.029713 
L 290.269091 281.029713 
L 298.593566 281.029713 
L 306.918042 281.029713 
L 315.242517 281.029713 
L 323.566993 281.029713 
L 331.891469 281.029713 
L 340.215944 281.029713 
L 348.54042 281.029713 
L 356.864895 281.029713 
L 365.189371 281.029713 
L 373.513846 281.029713 
L 381.838322 281.029713 
L 390.162797 281.029713 
L 398.487273 281.029713 
" style="fill:none;stroke:#9467bd;stroke-linecap:square;stroke-width:1.5;"/>
   </g>
   <g id="line2d_22">
    <path clip-path="url(#p190ae6bb38)" d="M 73.832727 281.029713 
L 82.157203 281.029713 
L 90.481678 281.029713 
L 98.806154 281.029713 
L 107.130629 281.029713 
L 115.455105 281.029713 
L 123.77958 281.029713 
L 132.104056 281.029713 
L 140.428531 281.029713 
L 148.753007 281.029713 
L 157.077483 281.029713 
L 165.401958 281.029713 
L 173.726434 281.029713 
L 182.050909 281.029713 
L 190.375385 281.029713 
L 198.69986 281.029713 
L 207.024336 281.029713 
L 215.348811 281.029713 
L 223.673287 281.029713 
L 231.997762 281.029713 
L 240.322238 281.029713 
L 248.646713 281.029713 
L 256.971189 281.029713 
L 265.295664 281.029713 
L 273.62014 281.029713 
L 281.944615 281.029713 
L 290.269091 281.029713 
L 298.593566 281.029713 
L 306.918042 281.029713 
L 315.242517 281.029713 
L 323.566993 281.029713 
L 331.891469 281.029713 
L 340.215944 281.029713 
L 348.54042 281.029713 
L 356.864895 281.029713 
L 365.189371 281.029713 
L 373.513846 281.029713 
L 381.838322 281.029713 
L 390.162797 281.029713 
L 398.487273 281.029713 
" style="fill:none;stroke:#8c564b;stroke-linecap:square;stroke-width:1.5;"/>
   </g>
   <g id="patch_3">
    <path d="M 57.6 307.584 
L 57.6 41.472 
" style="fill:none;stroke:#000000;stroke-linecap:square;stroke-linejoin:miter;stroke-width:0.8;"/>
   </g>
   <g id="patch_4">
    <path d="M 414.72 307.584 
L 414.72 41.472 
" style="fill:none;stroke:#000000;stroke-linecap:square;stroke-linejoin:miter;stroke-width:0.8;"/>
   </g>
   <g id="patch_5">
    <path d="M 57.6 307.584 
L 414.72 307.584 
" style="fill:none;stroke:#000000;stroke-linecap:square;stroke-linejoin:miter;stroke-width:0.8;"/>
   </g>
   <g id="patch_6">
    <path d="M 57.6 41.472 
L 414.72 41.472 
" style="fill:none;stroke:#000000;stroke-linecap:square;stroke-linejoin:miter;stroke-width:0.8;"/>
   </g>
   <g id="legend_1">
    <g id="patch_7">
     <path d="M 64.6 137.54075 
L 140.710938 137.54075 
Q 142.710938 137.54075 142.710938 135.54075 
L 142.710938 48.472 
Q 142.710938 46.472 140.710938 46.472 
L 64.6 46.472 
Q 62.6 46.472 62.6 48.472 
L 62.6 135.54075 
Q 62.6 137.54075 64.6 137.54075 
z
" style="fill:#ffffff;opacity:0.8;stroke:#cccccc;stroke-linejoin:miter;"/>
    </g>
    <g id="line2d_21">
     <path d="M 66.6 54.570438 
L 86.6 54.570438 
" style="fill:none;stroke:#1f77b4;stroke-linecap:square;stroke-width:1.5;"/>
    </g>
    <g id="line2d_22"/>
    <g id="text_15">
     <!-- lr = 1e-4 -->
     <g transform="translate(94.6 58.070438)scale(0.1 -0.1)">
      <defs>
       <path d="M 603 4863 
L 1178 4863 
L 1178 0 
L 603 0 
L 603 4863 
z
" id="DejaVuSans-6c" transform="scale(0.015625)"/>
       <path d="M 2631 2963 
Q 2534 3019 2420 3045 
Q 2306 3072 2169 3072 
Q 1681 3072 1420 2755 
Q 1159 2438 1159 1844 
L 1159 0 
L 581 0 
L 581 3500 
L 1159 3500 
L 1159 2956 
Q 1341 3275 1631 3429 
Q 1922 3584 2338 3584 
Q 2397 3584 2469 3576 
Q 2541 3569 2628 3553 
L 2631 2963 
z
" id="DejaVuSans-72" transform="scale(0.015625)"/>
       <path id="DejaVuSans-20" transform="scale(0.015625)"/>
       <path d="M 678 2906 
L 4684 2906 
L 4684 2381 
L 678 2381 
L 678 2906 
z
M 678 1631 
L 4684 1631 
L 4684 1100 
L 678 1100 
L 678 1631 
z
" id="DejaVuSans-3d" transform="scale(0.015625)"/>
       <path d="M 3597 1894 
L 3597 1613 
L 953 1613 
Q 991 1019 1311 708 
Q 1631 397 2203 397 
Q 2534 397 2845 478 
Q 3156 559 3463 722 
L 3463 178 
Q 3153 47 2828 -22 
Q 2503 -91 2169 -91 
Q 1331 -91 842 396 
Q 353 884 353 1716 
Q 353 2575 817 3079 
Q 1281 3584 2069 3584 
Q 2775 3584 3186 3129 
Q 3597 2675 3597 1894 
z
M 3022 2063 
Q 3016 2534 2758 2815 
Q 2500 3097 2075 3097 
Q 1594 3097 1305 2825 
Q 1016 2553 972 2059 
L 3022 2063 
z
" id="DejaVuSans-65" transform="scale(0.015625)"/>
       <path d="M 313 2009 
L 1997 2009 
L 1997 1497 
L 313 1497 
L 313 2009 
z
" id="DejaVuSans-2d" transform="scale(0.015625)"/>
      </defs>
      <use xlink:href="#DejaVuSans-6c"/>
      <use x="27.783203" xlink:href="#DejaVuSans-72"/>
      <use x="68.896484" xlink:href="#DejaVuSans-20"/>
      <use x="100.683594" xlink:href="#DejaVuSans-3d"/>
      <use x="184.472656" xlink:href="#DejaVuSans-20"/>
      <use x="216.259766" xlink:href="#DejaVuSans-31"/>
      <use x="279.882812" xlink:href="#DejaVuSans-65"/>
      <use x="341.40625" xlink:href="#DejaVuSans-2d"/>
      <use x="377.490234" xlink:href="#DejaVuSans-34"/>
     </g>
    </g>
    <g id="line2d_23">
     <path d="M 66.6 69.248563 
L 86.6 69.248563 
" style="fill:none;stroke:#ff7f0e;stroke-linecap:square;stroke-width:1.5;"/>
    </g>
    <g id="line2d_24"/>
    <g id="text_16">
     <!-- lr = 5e-4 -->
     <g transform="translate(94.6 72.748563)scale(0.1 -0.1)">
      <use xlink:href="#DejaVuSans-6c"/>
      <use x="27.783203" xlink:href="#DejaVuSans-72"/>
      <use x="68.896484" xlink:href="#DejaVuSans-20"/>
      <use x="100.683594" xlink:href="#DejaVuSans-3d"/>
      <use x="184.472656" xlink:href="#DejaVuSans-20"/>
      <use x="216.259766" xlink:href="#DejaVuSans-35"/>
      <use x="279.882812" xlink:href="#DejaVuSans-65"/>
      <use x="341.40625" xlink:href="#DejaVuSans-2d"/>
      <use x="377.490234" xlink:href="#DejaVuSans-34"/>
     </g>
    </g>
    <g id="line2d_25">
     <path d="M 66.6 83.926688 
L 86.6 83.926688 
" style="fill:none;stroke:#2ca02c;stroke-linecap:square;stroke-width:1.5;"/>
    </g>
    <g id="line2d_26"/>
    <g id="text_17">
     <!-- lr = 1e-3 -->
     <g transform="translate(94.6 87.426688)scale(0.1 -0.1)">
      <use xlink:href="#DejaVuSans-6c"/>
      <use x="27.783203" xlink:href="#DejaVuSans-72"/>
      <use x="68.896484" xlink:href="#DejaVuSans-20"/>
      <use x="100.683594" xlink:href="#DejaVuSans-3d"/>
      <use x="184.472656" xlink:href="#DejaVuSans-20"/>
      <use x="216.259766" xlink:href="#DejaVuSans-31"/>
      <use x="279.882812" xlink:href="#DejaVuSans-65"/>
      <use x="341.40625" xlink:href="#DejaVuSans-2d"/>
      <use x="377.490234" xlink:href="#DejaVuSans-33"/>
     </g>
    </g>
    <g id="line2d_27">
     <path d="M 66.6 98.604813 
L 86.6 98.604813 
" style="fill:none;stroke:#d62728;stroke-linecap:square;stroke-width:1.5;"/>
    </g>
    <g id="line2d_28"/>
    <g id="text_18">
     <!-- lr = 5e-3 -->
     <g transform="translate(94.6 102.104813)scale(0.1 -0.1)">
      <use xlink:href="#DejaVuSans-6c"/>
      <use x="27.783203" xlink:href="#DejaVuSans-72"/>
      <use x="68.896484" xlink:href="#DejaVuSans-20"/>
      <use x="100.683594" xlink:href="#DejaVuSans-3d"/>
      <use x="184.472656" xlink:href="#DejaVuSans-20"/>
      <use x="216.259766" xlink:href="#DejaVuSans-35"/>
      <use x="279.882812" xlink:href="#DejaVuSans-65"/>
      <use x="341.40625" xlink:href="#DejaVuSans-2d"/>
      <use x="377.490234" xlink:href="#DejaVuSans-33"/>
     </g>
    </g>
    <g id="line2d_29">
     <path d="M 66.6 113.282938 
L 86.6 113.282938 
" style="fill:none;stroke:#9467bd;stroke-linecap:square;stroke-width:1.5;"/>
    </g>
    <g id="line2d_30"/>
    <g id="text_19">
     <!-- lr = 1e-2 -->
     <g transform="translate(94.6 116.782938)scale(0.1 -0.1)">
      <defs>
       <path d="M 1228 531 
L 3431 531 
L 3431 0 
L 469 0 
L 469 531 
Q 828 903 1448 1529 
Q 2069 2156 2228 2338 
Q 2531 2678 2651 2914 
Q 2772 3150 2772 3378 
Q 2772 3750 2511 3984 
Q 2250 4219 1831 4219 
Q 1534 4219 1204 4116 
Q 875 4013 500 3803 
L 500 4441 
Q 881 4594 1212 4672 
Q 1544 4750 1819 4750 
Q 2544 4750 2975 4387 
Q 3406 4025 3406 3419 
Q 3406 3131 3298 2873 
Q 3191 2616 2906 2266 
Q 2828 2175 2409 1742 
Q 1991 1309 1228 531 
z
" id="DejaVuSans-32" transform="scale(0.015625)"/>
      </defs>
      <use xlink:href="#DejaVuSans-6c"/>
      <use x="27.783203" xlink:href="#DejaVuSans-72"/>
      <use x="68.896484" xlink:href="#DejaVuSans-20"/>
      <use x="100.683594" xlink:href="#DejaVuSans-3d"/>
      <use x="184.472656" xlink:href="#DejaVuSans-20"/>
      <use x="216.259766" xlink:href="#DejaVuSans-31"/>
      <use x="279.882812" xlink:href="#DejaVuSans-65"/>
      <use x="341.40625" xlink:href="#DejaVuSans-2d"/>
      <use x="377.490234" xlink:href="#DejaVuSans-32"/>
     </g>
    </g>
    <g id="line2d_31">
     <path d="M 66.6 127.961063 
L 86.6 127.961063 
" style="fill:none;stroke:#8c564b;stroke-linecap:square;stroke-width:1.5;"/>
    </g>
    <g id="line2d_32"/>
    <g id="text_20">
     <!-- lr = 5e-2 -->
     <g transform="translate(94.6 131.461063)scale(0.1 -0.1)">
      <use xlink:href="#DejaVuSans-6c"/>
      <use x="27.783203" xlink:href="#DejaVuSans-72"/>
      <use x="68.896484" xlink:href="#DejaVuSans-20"/>
      <use x="100.683594" xlink:href="#DejaVuSans-3d"/>
      <use x="184.472656" xlink:href="#DejaVuSans-20"/>
      <use x="216.259766" xlink:href="#DejaVuSans-35"/>
      <use x="279.882812" xlink:href="#DejaVuSans-65"/>
      <use x="341.40625" xlink:href="#DejaVuSans-2d"/>
      <use x="377.490234" xlink:href="#DejaVuSans-32"/>
     </g>
    </g>
   </g>
  </g>
 </g>
 <defs>
  <clipPath id="p7c9d6d8db0">
   <rect height="266.112" width="357.12" x="57.6" y="41.472"/>
  </clipPath>
 </defs>
</svg>
