<?xml version="1.0" encoding="utf-8" standalone="no"?>
<!DOCTYPE svg PUBLIC "-//W3C//DTD SVG 1.1//EN"
  "http://www.w3.org/Graphics/SVG/1.1/DTD/svg11.dtd">
<svg height="345.6pt" version="1.1" viewBox="0 0 460.8 345.6" width="460.8pt" xmlns="http://www.w3.org/2000/svg" xmlns:xlink="http://www.w3.org/1999/xlink">
 <metadata>
  <rdf:RDF xmlns:cc="http://creativecommons.org/ns#" xmlns:dc="http://purl.org/dc/elements/1.1/" xmlns:rdf="http://www.w3.org/1999/02/22-rdf-syntax-ns#">
   <cc:Work>
    <dc:type rdf:resource="http://purl.org/dc/dcmitype/StillImage"/>
    <dc:date>2022-01-03T14:37:37.508219</dc:date>
    <dc:format>image/svg+xml</dc:format>
    <dc:creator>
     <cc:Agent>
      <dc:title>Matplotlib v3.4.3, https://matplotlib.org/</dc:title>
     </cc:Agent>
    </dc:creator>
   </cc:Work>
  </rdf:RDF>
 </metadata>
 <defs>
  <style type="text/css">*{stroke-linecap:butt;stroke-linejoin:round;}</style>
 </defs>
 <g id="figure_1">
  <g id="patch_1">
   <path d="M 0 345.6 
L 460.8 345.6 
L 460.8 0 
L 0 0 
z
" style="fill:#ffffff;"/>
  </g>
  <g id="axes_1">
   <g id="patch_2">
    <path d="M 57.6 307.584 
L 414.72 307.584 
L 414.72 41.472 
L 57.6 41.472 
z
" style="fill:#ffffff;"/>
   </g>
   <g id="PolyCollection_1">
    <path clip-path="url(#pd88f800be0)" d="M 73.832727 291.767606 
L 73.832727 291.767606 
L 82.157203 291.821731 
L 90.481678 292.034476 
L 98.806154 292.211245 
L 107.130629 292.140336 
L 115.455105 292.228138 
L 123.77958 292.08346 
L 132.104056 292.088565 
L 140.428531 292.14488 
L 148.753007 292.029221 
L 157.077483 291.949568 
L 165.401958 291.987232 
L 173.726434 292.06369 
L 182.050909 292.100249 
L 190.375385 292.018576 
L 198.69986 292.061402 
L 207.024336 292.067 
L 215.348811 291.977402 
L 223.673287 292.085705 
L 231.997762 292.094749 
L 240.322238 292.517114 
L 248.646713 292.249457 
L 256.971189 292.170401 
L 265.295664 292.172527 
L 273.62014 292.027799 
L 281.944615 292.575525 
L 290.269091 292.335166 
L 298.593566 292.165242 
L 306.918042 292.056254 
L 315.242517 291.778762 
L 323.566993 292.113714 
L 331.891469 292.577471 
L 340.215944 293.527626 
L 348.54042 293.107865 
L 356.864895 292.711756 
L 365.189371 292.40586 
L 373.513846 292.203213 
L 381.838322 292.009239 
L 390.162797 291.888478 
L 398.487273 291.93537 
L 398.487273 291.93537 
L 398.487273 291.266121 
L 390.162797 291.108433 
L 381.838322 290.957339 
L 373.513846 290.300962 
L 365.189371 289.437844 
L 356.864895 288.659801 
L 348.54042 287.379686 
L 340.215944 285.43524 
L 331.891469 288.154435 
L 323.566993 289.545111 
L 315.242517 290.685182 
L 306.918042 290.723221 
L 298.593566 290.176373 
L 290.269091 289.328725 
L 281.944615 288.43427 
L 273.62014 291.532297 
L 265.295664 291.44156 
L 256.971189 291.258945 
L 248.646713 291.020543 
L 240.322238 290.315899 
L 231.997762 291.888628 
L 223.673287 291.871093 
L 215.348811 291.836801 
L 207.024336 291.910151 
L 198.69986 291.991438 
L 190.375385 291.880363 
L 182.050909 291.893225 
L 173.726434 291.855168 
L 165.401958 291.825031 
L 157.077483 291.762886 
L 148.753007 291.59291 
L 140.428531 291.662609 
L 132.104056 291.721902 
L 123.77958 291.835885 
L 115.455105 291.63729 
L 107.130629 291.595494 
L 98.806154 291.549112 
L 90.481678 291.551305 
L 82.157203 291.514551 
L 73.832727 291.42202 
z
" style="fill:#1f77b4;fill-opacity:0.3;"/>
   </g>
   <g id="PolyCollection_2">
    <path clip-path="url(#pd88f800be0)" d="M 73.832727 291.767606 
L 73.832727 291.767606 
L 82.157203 291.86814 
L 90.481678 292.006932 
L 98.806154 292.164069 
L 107.130629 292.21862 
L 115.455105 292.084199 
L 123.77958 292.075086 
L 132.104056 291.950377 
L 140.428531 291.877255 
L 148.753007 292.183473 
L 157.077483 294.851197 
L 165.401958 293.21217 
L 173.726434 288.437688 
L 182.050909 277.023261 
L 190.375385 259.061296 
L 198.69986 253.582136 
L 207.024336 249.818963 
L 215.348811 230.100458 
L 223.673287 219.410592 
L 231.997762 207.883092 
L 240.322238 200.707681 
L 248.646713 187.93238 
L 256.971189 176.893595 
L 265.295664 151.99041 
L 273.62014 138.337706 
L 281.944615 140.64721 
L 290.269091 143.109585 
L 298.593566 149.601849 
L 306.918042 148.20503 
L 315.242517 149.226993 
L 323.566993 138.292133 
L 331.891469 125.643666 
L 340.215944 116.605952 
L 348.54042 105.562682 
L 356.864895 97.832393 
L 365.189371 92.421191 
L 373.513846 88.633349 
L 381.838322 85.98186 
L 390.162797 84.125817 
L 398.487273 82.826588 
L 398.487273 82.826588 
L 398.487273 79.158238 
L 390.162797 78.885318 
L 381.838322 78.495432 
L 373.513846 77.938452 
L 365.189371 77.142766 
L 356.864895 76.006073 
L 348.54042 74.382224 
L 340.215944 72.062441 
L 331.891469 70.551046 
L 323.566993 68.461215 
L 315.242517 67.380275 
L 306.918042 70.262346 
L 298.593566 71.293876 
L 290.269091 77.189158 
L 281.944615 83.494059 
L 273.62014 90.053209 
L 265.295664 91.88053 
L 256.971189 95.032979 
L 248.646713 92.616202 
L 240.322238 97.721863 
L 231.997762 105.067449 
L 223.673287 119.693893 
L 215.348811 137.378443 
L 207.024336 163.979206 
L 198.69986 182.236285 
L 190.375385 196.541476 
L 182.050909 220.117969 
L 173.726434 233.585988 
L 165.401958 250.552341 
L 157.077483 280.011577 
L 148.753007 290.454232 
L 140.428531 291.724626 
L 132.104056 291.828185 
L 123.77958 291.746212 
L 115.455105 291.798305 
L 107.130629 291.698645 
L 98.806154 291.488774 
L 90.481678 291.582455 
L 82.157203 291.57818 
L 73.832727 291.42202 
z
" style="fill:#ff7f0e;fill-opacity:0.3;"/>
   </g>
   <g id="PolyCollection_3">
    <path clip-path="url(#pd88f800be0)" d="M 73.832727 291.767606 
L 73.832727 291.767606 
L 82.157203 291.868141 
L 90.481678 291.996886 
L 98.806154 291.961451 
L 107.130629 291.846029 
L 115.455105 295.488 
L 123.77958 287.436562 
L 132.104056 272.578154 
L 140.428531 264.33877 
L 148.753007 253.139234 
L 157.077483 240.558856 
L 165.401958 227.106046 
L 173.726434 218.145136 
L 182.050909 201.386107 
L 190.375385 186.759263 
L 198.69986 187.779754 
L 207.024336 188.23588 
L 215.348811 184.922926 
L 223.673287 185.212708 
L 231.997762 184.183213 
L 240.322238 174.490301 
L 248.646713 156.085877 
L 256.971189 136.555191 
L 265.295664 119.811903 
L 273.62014 107.806848 
L 281.944615 99.403309 
L 290.269091 93.520832 
L 298.593566 89.403098 
L 306.918042 86.520684 
L 315.242517 84.502994 
L 323.566993 83.090612 
L 331.891469 82.101944 
L 340.215944 81.409876 
L 348.54042 80.925429 
L 356.864895 80.586316 
L 365.189371 80.348937 
L 373.513846 81.570909 
L 381.838322 82.085737 
L 390.162797 81.849162 
L 398.487273 81.232929 
L 398.487273 81.232929 
L 398.487273 79.786429 
L 390.162797 79.782733 
L 381.838322 79.200879 
L 373.513846 79.347208 
L 365.189371 79.686343 
L 356.864895 79.639753 
L 348.54042 79.573196 
L 340.215944 79.478115 
L 331.891469 79.342285 
L 323.566993 79.148242 
L 315.242517 78.871038 
L 306.918042 78.475033 
L 298.593566 77.90931 
L 290.269091 77.101135 
L 281.944615 75.946599 
L 273.62014 74.297262 
L 265.295664 71.941066 
L 256.971189 67.260691 
L 248.646713 63.173077 
L 240.322238 59.876658 
L 231.997762 59.610285 
L 223.673287 62.652155 
L 215.348811 67.445429 
L 207.024336 73.251125 
L 198.69986 82.798436 
L 190.375385 93.389261 
L 182.050909 106.870471 
L 173.726434 126.162479 
L 165.401958 140.406839 
L 157.077483 155.264436 
L 148.753007 178.186152 
L 140.428531 196.415453 
L 132.104056 228.567839 
L 123.77958 256.755155 
L 115.455105 273.047485 
L 107.130629 291.573211 
L 98.806154 291.556144 
L 90.481678 291.555858 
L 82.157203 291.578143 
L 73.832727 291.42202 
z
" style="fill:#2ca02c;fill-opacity:0.3;"/>
   </g>
   <g id="PolyCollection_4">
    <path clip-path="url(#pd88f800be0)" d="M 73.832727 291.767606 
L 73.832727 291.767606 
L 82.157203 291.868141 
L 90.481678 292.847632 
L 98.806154 286.208309 
L 107.130629 249.734167 
L 115.455105 207.877334 
L 123.77958 180.062681 
L 132.104056 156.203536 
L 140.428531 133.280991 
L 148.753007 125.084714 
L 157.077483 111.368946 
L 165.401958 113.24325 
L 173.726434 114.469128 
L 182.050909 104.249219 
L 190.375385 97.22433 
L 198.69986 107.1529 
L 207.024336 98.945545 
L 215.348811 98.127488 
L 223.673287 92.783652 
L 231.997762 88.887072 
L 240.322238 86.683857 
L 248.646713 84.575841 
L 256.971189 83.740883 
L 265.295664 84.027628 
L 273.62014 82.757855 
L 281.944615 85.697651 
L 290.269091 83.926871 
L 298.593566 107.537783 
L 306.918042 99.216648 
L 315.242517 93.581859 
L 323.566993 97.972961 
L 331.891469 108.176825 
L 340.215944 113.643698 
L 348.54042 106.112692 
L 356.864895 102.442157 
L 365.189371 107.401852 
L 373.513846 103.989462 
L 381.838322 107.400832 
L 390.162797 113.894384 
L 398.487273 118.092253 
L 398.487273 118.092253 
L 398.487273 75.265003 
L 390.162797 78.70327 
L 381.838322 83.325377 
L 373.513846 86.350249 
L 365.189371 80.329615 
L 356.864895 80.371808 
L 348.54042 78.753859 
L 340.215944 72.274171 
L 331.891469 74.399068 
L 323.566993 78.062083 
L 315.242517 80.531779 
L 306.918042 78.895039 
L 298.593566 78.468426 
L 290.269091 79.821758 
L 281.944615 79.833203 
L 273.62014 80.713736 
L 265.295664 81.107457 
L 256.971189 81.832522 
L 248.646713 82.687574 
L 240.322238 83.694664 
L 231.997762 82.898571 
L 223.673287 84.22865 
L 215.348811 86.091417 
L 207.024336 85.729561 
L 198.69986 88.272922 
L 190.375385 94.266774 
L 182.050909 95.729389 
L 173.726434 100.157087 
L 165.401958 96.720463 
L 157.077483 104.139355 
L 148.753007 105.138185 
L 140.428531 114.055222 
L 132.104056 128.738152 
L 123.77958 146.984177 
L 115.455105 173.97411 
L 107.130629 204.035829 
L 98.806154 250.745048 
L 90.481678 283.563234 
L 82.157203 291.578143 
L 73.832727 291.42202 
z
" style="fill:#d62728;fill-opacity:0.3;"/>
   </g>
   <g id="PolyCollection_5">
    <path clip-path="url(#pd88f800be0)" d="M 73.832727 291.767606 
L 73.832727 291.767606 
L 82.157203 291.880001 
L 90.481678 291.939105 
L 98.806154 280.671992 
L 107.130629 254.502532 
L 115.455105 214.623947 
L 123.77958 198.491812 
L 132.104056 185.111309 
L 140.428531 173.927904 
L 148.753007 168.772384 
L 157.077483 144.408988 
L 165.401958 158.757215 
L 173.726434 140.516395 
L 182.050909 122.299992 
L 190.375385 112.867461 
L 198.69986 122.157976 
L 207.024336 110.97778 
L 215.348811 106.181779 
L 223.673287 114.986166 
L 231.997762 104.428832 
L 240.322238 101.511785 
L 248.646713 106.957257 
L 256.971189 111.289521 
L 265.295664 104.153572 
L 273.62014 108.758424 
L 281.944615 100.069413 
L 290.269091 94.938755 
L 298.593566 90.395644 
L 306.918042 88.354541 
L 315.242517 127.503043 
L 323.566993 156.465521 
L 331.891469 176.876992 
L 340.215944 191.239642 
L 348.54042 204.999567 
L 356.864895 204.212989 
L 365.189371 210.868419 
L 373.513846 209.513804 
L 381.838322 195.078821 
L 390.162797 164.19322 
L 398.487273 138.87377 
L 398.487273 138.87377 
L 398.487273 76.282915 
L 390.162797 74.777714 
L 381.838322 66.386727 
L 373.513846 61.516224 
L 365.189371 54.204635 
L 356.864895 57.543061 
L 348.54042 62.003393 
L 340.215944 53.568 
L 331.891469 58.962021 
L 323.566993 66.613582 
L 315.242517 77.347617 
L 306.918042 83.468447 
L 298.593566 84.707012 
L 290.269091 86.812138 
L 281.944615 83.354217 
L 273.62014 84.879573 
L 265.295664 83.317553 
L 256.971189 78.297606 
L 248.646713 82.183234 
L 240.322238 86.451872 
L 231.997762 82.21257 
L 223.673287 83.248649 
L 215.348811 89.416466 
L 207.024336 86.164159 
L 198.69986 86.700298 
L 190.375385 95.823802 
L 182.050909 99.648985 
L 173.726434 108.157813 
L 165.401958 98.004398 
L 157.077483 118.370742 
L 148.753007 124.037762 
L 140.428531 124.671051 
L 132.104056 143.815848 
L 123.77958 162.877339 
L 115.455105 187.552919 
L 107.130629 218.431987 
L 98.806154 248.9969 
L 90.481678 283.035396 
L 82.157203 291.566282 
L 73.832727 291.42202 
z
" style="fill:#9467bd;fill-opacity:0.3;"/>
   </g>
   <g id="PolyCollection_6">
    <path clip-path="url(#pd88f800be0)" d="M 73.832727 291.767606 
L 73.832727 291.767606 
L 82.157203 291.821847 
L 90.481678 291.998769 
L 98.806154 283.783341 
L 107.130629 269.782489 
L 115.455105 270.002014 
L 123.77958 264.455366 
L 132.104056 237.900746 
L 140.428531 227.277381 
L 148.753007 203.365474 
L 157.077483 171.08802 
L 165.401958 169.398904 
L 173.726434 178.679772 
L 182.050909 166.629205 
L 190.375385 140.578959 
L 198.69986 146.324999 
L 207.024336 159.567879 
L 215.348811 169.369168 
L 223.673287 182.216591 
L 231.997762 151.490129 
L 240.322238 137.579993 
L 248.646713 159.400412 
L 256.971189 140.769246 
L 265.295664 178.236785 
L 273.62014 181.331306 
L 281.944615 181.30179 
L 290.269091 196.634278 
L 298.593566 207.999881 
L 306.918042 201.59462 
L 315.242517 196.918827 
L 323.566993 203.165335 
L 331.891469 212.132736 
L 340.215944 208.566691 
L 348.54042 205.810212 
L 356.864895 211.091896 
L 365.189371 218.12268 
L 373.513846 233.025064 
L 381.838322 220.766196 
L 390.162797 222.452985 
L 398.487273 241.148634 
L 398.487273 241.148634 
L 398.487273 193.489768 
L 390.162797 205.451835 
L 381.838322 183.750841 
L 373.513846 187.200719 
L 365.189371 184.091908 
L 356.864895 189.605294 
L 348.54042 159.247377 
L 340.215944 156.490348 
L 331.891469 168.513567 
L 323.566993 160.802816 
L 315.242517 119.786273 
L 306.918042 114.975821 
L 298.593566 108.622286 
L 290.269091 104.272266 
L 281.944615 99.336553 
L 273.62014 88.836794 
L 265.295664 86.358917 
L 256.971189 78.94478 
L 248.646713 73.562638 
L 240.322238 83.425008 
L 231.997762 77.249518 
L 223.673287 76.158575 
L 215.348811 88.250431 
L 207.024336 98.523847 
L 198.69986 102.529661 
L 190.375385 92.494266 
L 182.050909 97.936787 
L 173.726434 101.961999 
L 165.401958 103.082051 
L 157.077483 122.513707 
L 148.753007 142.492319 
L 140.428531 147.674983 
L 132.104056 161.2192 
L 123.77958 195.02793 
L 115.455105 200.74914 
L 107.130629 216.805715 
L 98.806154 248.113042 
L 90.481678 265.127865 
L 82.157203 291.55109 
L 73.832727 291.42202 
z
" style="fill:#8c564b;fill-opacity:0.3;"/>
   </g>
   <g id="matplotlib.axis_1">
    <g id="xtick_1">
     <g id="line2d_1">
      <defs>
       <path d="M 0 0 
L 0 3.5 
" id="m7d2801cb2a" style="stroke:#000000;stroke-width:0.8;"/>
      </defs>
      <g>
       <use style="stroke:#000000;stroke-width:0.8;" x="65.508252" xlink:href="#m7d2801cb2a" y="307.584"/>
      </g>
     </g>
     <g id="text_1">
      <!-- 0 -->
      <g transform="translate(62.327002 322.182437)scale(0.1 -0.1)">
       <defs>
        <path d="M 2034 4250 
Q 1547 4250 1301 3770 
Q 1056 3291 1056 2328 
Q 1056 1369 1301 889 
Q 1547 409 2034 409 
Q 2525 409 2770 889 
Q 3016 1369 3016 2328 
Q 3016 3291 2770 3770 
Q 2525 4250 2034 4250 
z
M 2034 4750 
Q 2819 4750 3233 4129 
Q 3647 3509 3647 2328 
Q 3647 1150 3233 529 
Q 2819 -91 2034 -91 
Q 1250 -91 836 529 
Q 422 1150 422 2328 
Q 422 3509 836 4129 
Q 1250 4750 2034 4750 
z
" id="DejaVuSans-30" transform="scale(0.015625)"/>
       </defs>
       <use xlink:href="#DejaVuSans-30"/>
      </g>
     </g>
    </g>
    <g id="xtick_2">
     <g id="line2d_2">
      <g>
       <use style="stroke:#000000;stroke-width:0.8;" x="107.130629" xlink:href="#m7d2801cb2a" y="307.584"/>
      </g>
     </g>
     <g id="text_2">
      <!-- 25 -->
      <g transform="translate(100.768129 322.182437)scale(0.1 -0.1)">
       <defs>
        <path d="M 1228 531 
L 3431 531 
L 3431 0 
L 469 0 
L 469 531 
Q 828 903 1448 1529 
Q 2069 2156 2228 2338 
Q 2531 2678 2651 2914 
Q 2772 3150 2772 3378 
Q 2772 3750 2511 3984 
Q 2250 4219 1831 4219 
Q 1534 4219 1204 4116 
Q 875 4013 500 3803 
L 500 4441 
Q 881 4594 1212 4672 
Q 1544 4750 1819 4750 
Q 2544 4750 2975 4387 
Q 3406 4025 3406 3419 
Q 3406 3131 3298 2873 
Q 3191 2616 2906 2266 
Q 2828 2175 2409 1742 
Q 1991 1309 1228 531 
z
" id="DejaVuSans-32" transform="scale(0.015625)"/>
        <path d="M 691 4666 
L 3169 4666 
L 3169 4134 
L 1269 4134 
L 1269 2991 
Q 1406 3038 1543 3061 
Q 1681 3084 1819 3084 
Q 2600 3084 3056 2656 
Q 3513 2228 3513 1497 
Q 3513 744 3044 326 
Q 2575 -91 1722 -91 
Q 1428 -91 1123 -41 
Q 819 9 494 109 
L 494 744 
Q 775 591 1075 516 
Q 1375 441 1709 441 
Q 2250 441 2565 725 
Q 2881 1009 2881 1497 
Q 2881 1984 2565 2268 
Q 2250 2553 1709 2553 
Q 1456 2553 1204 2497 
Q 953 2441 691 2322 
L 691 4666 
z
" id="DejaVuSans-35" transform="scale(0.015625)"/>
       </defs>
       <use xlink:href="#DejaVuSans-32"/>
       <use x="63.623047" xlink:href="#DejaVuSans-35"/>
      </g>
     </g>
    </g>
    <g id="xtick_3">
     <g id="line2d_3">
      <g>
       <use style="stroke:#000000;stroke-width:0.8;" x="148.753007" xlink:href="#m7d2801cb2a" y="307.584"/>
      </g>
     </g>
     <g id="text_3">
      <!-- 50 -->
      <g transform="translate(142.390507 322.182437)scale(0.1 -0.1)">
       <use xlink:href="#DejaVuSans-35"/>
       <use x="63.623047" xlink:href="#DejaVuSans-30"/>
      </g>
     </g>
    </g>
    <g id="xtick_4">
     <g id="line2d_4">
      <g>
       <use style="stroke:#000000;stroke-width:0.8;" x="190.375385" xlink:href="#m7d2801cb2a" y="307.584"/>
      </g>
     </g>
     <g id="text_4">
      <!-- 75 -->
      <g transform="translate(184.012885 322.182437)scale(0.1 -0.1)">
       <defs>
        <path d="M 525 4666 
L 3525 4666 
L 3525 4397 
L 1831 0 
L 1172 0 
L 2766 4134 
L 525 4134 
L 525 4666 
z
" id="DejaVuSans-37" transform="scale(0.015625)"/>
       </defs>
       <use xlink:href="#DejaVuSans-37"/>
       <use x="63.623047" xlink:href="#DejaVuSans-35"/>
      </g>
     </g>
    </g>
    <g id="xtick_5">
     <g id="line2d_5">
      <g>
       <use style="stroke:#000000;stroke-width:0.8;" x="231.997762" xlink:href="#m7d2801cb2a" y="307.584"/>
      </g>
     </g>
     <g id="text_5">
      <!-- 100 -->
      <g transform="translate(222.454012 322.182437)scale(0.1 -0.1)">
       <defs>
        <path d="M 794 531 
L 1825 531 
L 1825 4091 
L 703 3866 
L 703 4441 
L 1819 4666 
L 2450 4666 
L 2450 531 
L 3481 531 
L 3481 0 
L 794 0 
L 794 531 
z
" id="DejaVuSans-31" transform="scale(0.015625)"/>
       </defs>
       <use xlink:href="#DejaVuSans-31"/>
       <use x="63.623047" xlink:href="#DejaVuSans-30"/>
       <use x="127.246094" xlink:href="#DejaVuSans-30"/>
      </g>
     </g>
    </g>
    <g id="xtick_6">
     <g id="line2d_6">
      <g>
       <use style="stroke:#000000;stroke-width:0.8;" x="273.62014" xlink:href="#m7d2801cb2a" y="307.584"/>
      </g>
     </g>
     <g id="text_6">
      <!-- 125 -->
      <g transform="translate(264.07639 322.182437)scale(0.1 -0.1)">
       <use xlink:href="#DejaVuSans-31"/>
       <use x="63.623047" xlink:href="#DejaVuSans-32"/>
       <use x="127.246094" xlink:href="#DejaVuSans-35"/>
      </g>
     </g>
    </g>
    <g id="xtick_7">
     <g id="line2d_7">
      <g>
       <use style="stroke:#000000;stroke-width:0.8;" x="315.242517" xlink:href="#m7d2801cb2a" y="307.584"/>
      </g>
     </g>
     <g id="text_7">
      <!-- 150 -->
      <g transform="translate(305.698767 322.182437)scale(0.1 -0.1)">
       <use xlink:href="#DejaVuSans-31"/>
       <use x="63.623047" xlink:href="#DejaVuSans-35"/>
       <use x="127.246094" xlink:href="#DejaVuSans-30"/>
      </g>
     </g>
    </g>
    <g id="xtick_8">
     <g id="line2d_8">
      <g>
       <use style="stroke:#000000;stroke-width:0.8;" x="356.864895" xlink:href="#m7d2801cb2a" y="307.584"/>
      </g>
     </g>
     <g id="text_8">
      <!-- 175 -->
      <g transform="translate(347.321145 322.182437)scale(0.1 -0.1)">
       <use xlink:href="#DejaVuSans-31"/>
       <use x="63.623047" xlink:href="#DejaVuSans-37"/>
       <use x="127.246094" xlink:href="#DejaVuSans-35"/>
      </g>
     </g>
    </g>
    <g id="xtick_9">
     <g id="line2d_9">
      <g>
       <use style="stroke:#000000;stroke-width:0.8;" x="398.487273" xlink:href="#m7d2801cb2a" y="307.584"/>
      </g>
     </g>
     <g id="text_9">
      <!-- 200 -->
      <g transform="translate(388.943523 322.182437)scale(0.1 -0.1)">
       <use xlink:href="#DejaVuSans-32"/>
       <use x="63.623047" xlink:href="#DejaVuSans-30"/>
       <use x="127.246094" xlink:href="#DejaVuSans-30"/>
      </g>
     </g>
    </g>
    <g id="text_10">
     <!-- Epoch -->
     <g transform="translate(220.849063 335.860562)scale(0.1 -0.1)">
      <defs>
       <path d="M 628 4666 
L 3578 4666 
L 3578 4134 
L 1259 4134 
L 1259 2753 
L 3481 2753 
L 3481 2222 
L 1259 2222 
L 1259 531 
L 3634 531 
L 3634 0 
L 628 0 
L 628 4666 
z
" id="DejaVuSans-45" transform="scale(0.015625)"/>
       <path d="M 1159 525 
L 1159 -1331 
L 581 -1331 
L 581 3500 
L 1159 3500 
L 1159 2969 
Q 1341 3281 1617 3432 
Q 1894 3584 2278 3584 
Q 2916 3584 3314 3078 
Q 3713 2572 3713 1747 
Q 3713 922 3314 415 
Q 2916 -91 2278 -91 
Q 1894 -91 1617 61 
Q 1341 213 1159 525 
z
M 3116 1747 
Q 3116 2381 2855 2742 
Q 2594 3103 2138 3103 
Q 1681 3103 1420 2742 
Q 1159 2381 1159 1747 
Q 1159 1113 1420 752 
Q 1681 391 2138 391 
Q 2594 391 2855 752 
Q 3116 1113 3116 1747 
z
" id="DejaVuSans-70" transform="scale(0.015625)"/>
       <path d="M 1959 3097 
Q 1497 3097 1228 2736 
Q 959 2375 959 1747 
Q 959 1119 1226 758 
Q 1494 397 1959 397 
Q 2419 397 2687 759 
Q 2956 1122 2956 1747 
Q 2956 2369 2687 2733 
Q 2419 3097 1959 3097 
z
M 1959 3584 
Q 2709 3584 3137 3096 
Q 3566 2609 3566 1747 
Q 3566 888 3137 398 
Q 2709 -91 1959 -91 
Q 1206 -91 779 398 
Q 353 888 353 1747 
Q 353 2609 779 3096 
Q 1206 3584 1959 3584 
z
" id="DejaVuSans-6f" transform="scale(0.015625)"/>
       <path d="M 3122 3366 
L 3122 2828 
Q 2878 2963 2633 3030 
Q 2388 3097 2138 3097 
Q 1578 3097 1268 2742 
Q 959 2388 959 1747 
Q 959 1106 1268 751 
Q 1578 397 2138 397 
Q 2388 397 2633 464 
Q 2878 531 3122 666 
L 3122 134 
Q 2881 22 2623 -34 
Q 2366 -91 2075 -91 
Q 1284 -91 818 406 
Q 353 903 353 1747 
Q 353 2603 823 3093 
Q 1294 3584 2113 3584 
Q 2378 3584 2631 3529 
Q 2884 3475 3122 3366 
z
" id="DejaVuSans-63" transform="scale(0.015625)"/>
       <path d="M 3513 2113 
L 3513 0 
L 2938 0 
L 2938 2094 
Q 2938 2591 2744 2837 
Q 2550 3084 2163 3084 
Q 1697 3084 1428 2787 
Q 1159 2491 1159 1978 
L 1159 0 
L 581 0 
L 581 4863 
L 1159 4863 
L 1159 2956 
Q 1366 3272 1645 3428 
Q 1925 3584 2291 3584 
Q 2894 3584 3203 3211 
Q 3513 2838 3513 2113 
z
" id="DejaVuSans-68" transform="scale(0.015625)"/>
      </defs>
      <!--
      <use xlink:href="#DejaVuSans-45"/>
      <use x="63.183594" xlink:href="#DejaVuSans-70"/>
      <use x="126.660156" xlink:href="#DejaVuSans-6f"/>
      <use x="187.841797" xlink:href="#DejaVuSans-63"/>
      <use x="242.822266" xlink:href="#DejaVuSans-68"/>
    -->
     </g>
    </g>
   </g>
   <g id="matplotlib.axis_2">
    <g id="ytick_1">
     <g id="line2d_10">
      <defs>
       <path d="M 0 0 
L -3.5 0 
" id="m8c2b8ded55" style="stroke:#000000;stroke-width:0.8;"/>
      </defs>
      <g>
       <use style="stroke:#000000;stroke-width:0.8;" x="57.6" xlink:href="#m8c2b8ded55" y="303.3795"/>
      </g>
     </g>
     <g id="text_11">
      <!-- 0 -->
      <g transform="translate(44.2375 307.178719)scale(0.1 -0.1)">
       <use xlink:href="#DejaVuSans-30"/>
      </g>
     </g>
    </g>
    <g id="ytick_2">
     <g id="line2d_11">
      <g>
       <use style="stroke:#000000;stroke-width:0.8;" x="57.6" xlink:href="#m8c2b8ded55" y="272.55747"/>
      </g>
     </g>
     <g id="text_12">
      <!-- 25 -->
      <g transform="translate(37.875 276.356689)scale(0.1 -0.1)">
       <use xlink:href="#DejaVuSans-32"/>
       <use x="63.623047" xlink:href="#DejaVuSans-35"/>
      </g>
     </g>
    </g>
    <g id="ytick_3">
     <g id="line2d_12">
      <g>
       <use style="stroke:#000000;stroke-width:0.8;" x="57.6" xlink:href="#m8c2b8ded55" y="241.73544"/>
      </g>
     </g>
     <g id="text_13">
      <!-- 50 -->
      <g transform="translate(37.875 245.534659)scale(0.1 -0.1)">
       <use xlink:href="#DejaVuSans-35"/>
       <use x="63.623047" xlink:href="#DejaVuSans-30"/>
      </g>
     </g>
    </g>
    <g id="ytick_4">
     <g id="line2d_13">
      <g>
       <use style="stroke:#000000;stroke-width:0.8;" x="57.6" xlink:href="#m8c2b8ded55" y="210.91341"/>
      </g>
     </g>
     <g id="text_14">
      <!-- 75 -->
      <g transform="translate(37.875 214.712629)scale(0.1 -0.1)">
       <use xlink:href="#DejaVuSans-37"/>
       <use x="63.623047" xlink:href="#DejaVuSans-35"/>
      </g>
     </g>
    </g>
    <g id="ytick_5">
     <g id="line2d_14">
      <g>
       <use style="stroke:#000000;stroke-width:0.8;" x="57.6" xlink:href="#m8c2b8ded55" y="180.09138"/>
      </g>
     </g>
     <g id="text_15">
      <!-- 100 -->
      <g transform="translate(31.5125 183.890599)scale(0.1 -0.1)">
       <use xlink:href="#DejaVuSans-31"/>
       <use x="63.623047" xlink:href="#DejaVuSans-30"/>
       <use x="127.246094" xlink:href="#DejaVuSans-30"/>
      </g>
     </g>
    </g>
    <g id="ytick_6">
     <g id="line2d_15">
      <g>
       <use style="stroke:#000000;stroke-width:0.8;" x="57.6" xlink:href="#m8c2b8ded55" y="149.26935"/>
      </g>
     </g>
     <g id="text_16">
      <!-- 125 -->
      <g transform="translate(31.5125 153.068569)scale(0.1 -0.1)">
       <use xlink:href="#DejaVuSans-31"/>
       <use x="63.623047" xlink:href="#DejaVuSans-32"/>
       <use x="127.246094" xlink:href="#DejaVuSans-35"/>
      </g>
     </g>
    </g>
    <g id="ytick_7">
     <g id="line2d_16">
      <g>
       <use style="stroke:#000000;stroke-width:0.8;" x="57.6" xlink:href="#m8c2b8ded55" y="118.44732"/>
      </g>
     </g>
     <g id="text_17">
      <!-- 150 -->
      <g transform="translate(31.5125 122.246539)scale(0.1 -0.1)">
       <use xlink:href="#DejaVuSans-31"/>
       <use x="63.623047" xlink:href="#DejaVuSans-35"/>
       <use x="127.246094" xlink:href="#DejaVuSans-30"/>
      </g>
     </g>
    </g>
    <g id="ytick_8">
     <g id="line2d_17">
      <g>
       <use style="stroke:#000000;stroke-width:0.8;" x="57.6" xlink:href="#m8c2b8ded55" y="87.625291"/>
      </g>
     </g>
     <g id="text_18">
      <!-- 175 -->
      <g transform="translate(31.5125 91.424509)scale(0.1 -0.1)">
       <use xlink:href="#DejaVuSans-31"/>
       <use x="63.623047" xlink:href="#DejaVuSans-37"/>
       <use x="127.246094" xlink:href="#DejaVuSans-35"/>
      </g>
     </g>
    </g>
    <g id="ytick_9">
     <g id="line2d_18">
      <g>
       <use style="stroke:#000000;stroke-width:0.8;" x="57.6" xlink:href="#m8c2b8ded55" y="56.803261"/>
      </g>
     </g>
     <g id="text_19">
      <!-- 200 -->
      <g transform="translate(31.5125 60.602479)scale(0.1 -0.1)">
       <use xlink:href="#DejaVuSans-32"/>
       <use x="63.623047" xlink:href="#DejaVuSans-30"/>
       <use x="127.246094" xlink:href="#DejaVuSans-30"/>
      </g>
     </g>
    </g>
    <g id="text_20">
     <!-- Average Reward -->
     <g transform="translate(25.432812 215.270969)rotate(-90)scale(0.1 -0.1)">
      <defs>
       <path d="M 2188 4044 
L 1331 1722 
L 3047 1722 
L 2188 4044 
z
M 1831 4666 
L 2547 4666 
L 4325 0 
L 3669 0 
L 3244 1197 
L 1141 1197 
L 716 0 
L 50 0 
L 1831 4666 
z
" id="DejaVuSans-41" transform="scale(0.015625)"/>
       <path d="M 191 3500 
L 800 3500 
L 1894 563 
L 2988 3500 
L 3597 3500 
L 2284 0 
L 1503 0 
L 191 3500 
z
" id="DejaVuSans-76" transform="scale(0.015625)"/>
       <path d="M 3597 1894 
L 3597 1613 
L 953 1613 
Q 991 1019 1311 708 
Q 1631 397 2203 397 
Q 2534 397 2845 478 
Q 3156 559 3463 722 
L 3463 178 
Q 3153 47 2828 -22 
Q 2503 -91 2169 -91 
Q 1331 -91 842 396 
Q 353 884 353 1716 
Q 353 2575 817 3079 
Q 1281 3584 2069 3584 
Q 2775 3584 3186 3129 
Q 3597 2675 3597 1894 
z
M 3022 2063 
Q 3016 2534 2758 2815 
Q 2500 3097 2075 3097 
Q 1594 3097 1305 2825 
Q 1016 2553 972 2059 
L 3022 2063 
z
" id="DejaVuSans-65" transform="scale(0.015625)"/>
       <path d="M 2631 2963 
Q 2534 3019 2420 3045 
Q 2306 3072 2169 3072 
Q 1681 3072 1420 2755 
Q 1159 2438 1159 1844 
L 1159 0 
L 581 0 
L 581 3500 
L 1159 3500 
L 1159 2956 
Q 1341 3275 1631 3429 
Q 1922 3584 2338 3584 
Q 2397 3584 2469 3576 
Q 2541 3569 2628 3553 
L 2631 2963 
z
" id="DejaVuSans-72" transform="scale(0.015625)"/>
       <path d="M 2194 1759 
Q 1497 1759 1228 1600 
Q 959 1441 959 1056 
Q 959 750 1161 570 
Q 1363 391 1709 391 
Q 2188 391 2477 730 
Q 2766 1069 2766 1631 
L 2766 1759 
L 2194 1759 
z
M 3341 1997 
L 3341 0 
L 2766 0 
L 2766 531 
Q 2569 213 2275 61 
Q 1981 -91 1556 -91 
Q 1019 -91 701 211 
Q 384 513 384 1019 
Q 384 1609 779 1909 
Q 1175 2209 1959 2209 
L 2766 2209 
L 2766 2266 
Q 2766 2663 2505 2880 
Q 2244 3097 1772 3097 
Q 1472 3097 1187 3025 
Q 903 2953 641 2809 
L 641 3341 
Q 956 3463 1253 3523 
Q 1550 3584 1831 3584 
Q 2591 3584 2966 3190 
Q 3341 2797 3341 1997 
z
" id="DejaVuSans-61" transform="scale(0.015625)"/>
       <path d="M 2906 1791 
Q 2906 2416 2648 2759 
Q 2391 3103 1925 3103 
Q 1463 3103 1205 2759 
Q 947 2416 947 1791 
Q 947 1169 1205 825 
Q 1463 481 1925 481 
Q 2391 481 2648 825 
Q 2906 1169 2906 1791 
z
M 3481 434 
Q 3481 -459 3084 -895 
Q 2688 -1331 1869 -1331 
Q 1566 -1331 1297 -1286 
Q 1028 -1241 775 -1147 
L 775 -588 
Q 1028 -725 1275 -790 
Q 1522 -856 1778 -856 
Q 2344 -856 2625 -561 
Q 2906 -266 2906 331 
L 2906 616 
Q 2728 306 2450 153 
Q 2172 0 1784 0 
Q 1141 0 747 490 
Q 353 981 353 1791 
Q 353 2603 747 3093 
Q 1141 3584 1784 3584 
Q 2172 3584 2450 3431 
Q 2728 3278 2906 2969 
L 2906 3500 
L 3481 3500 
L 3481 434 
z
" id="DejaVuSans-67" transform="scale(0.015625)"/>
       <path id="DejaVuSans-20" transform="scale(0.015625)"/>
       <path d="M 2841 2188 
Q 3044 2119 3236 1894 
Q 3428 1669 3622 1275 
L 4263 0 
L 3584 0 
L 2988 1197 
Q 2756 1666 2539 1819 
Q 2322 1972 1947 1972 
L 1259 1972 
L 1259 0 
L 628 0 
L 628 4666 
L 2053 4666 
Q 2853 4666 3247 4331 
Q 3641 3997 3641 3322 
Q 3641 2881 3436 2590 
Q 3231 2300 2841 2188 
z
M 1259 4147 
L 1259 2491 
L 2053 2491 
Q 2509 2491 2742 2702 
Q 2975 2913 2975 3322 
Q 2975 3731 2742 3939 
Q 2509 4147 2053 4147 
L 1259 4147 
z
" id="DejaVuSans-52" transform="scale(0.015625)"/>
       <path d="M 269 3500 
L 844 3500 
L 1563 769 
L 2278 3500 
L 2956 3500 
L 3675 769 
L 4391 3500 
L 4966 3500 
L 4050 0 
L 3372 0 
L 2619 2869 
L 1863 0 
L 1184 0 
L 269 3500 
z
" id="DejaVuSans-77" transform="scale(0.015625)"/>
       <path d="M 2906 2969 
L 2906 4863 
L 3481 4863 
L 3481 0 
L 2906 0 
L 2906 525 
Q 2725 213 2448 61 
Q 2172 -91 1784 -91 
Q 1150 -91 751 415 
Q 353 922 353 1747 
Q 353 2572 751 3078 
Q 1150 3584 1784 3584 
Q 2172 3584 2448 3432 
Q 2725 3281 2906 2969 
z
M 947 1747 
Q 947 1113 1208 752 
Q 1469 391 1925 391 
Q 2381 391 2643 752 
Q 2906 1113 2906 1747 
Q 2906 2381 2643 2742 
Q 2381 3103 1925 3103 
Q 1469 3103 1208 2742 
Q 947 2381 947 1747 
z
" id="DejaVuSans-64" transform="scale(0.015625)"/>
      </defs>
      <!--
      <use xlink:href="#DejaVuSans-41"/>
      <use x="62.533203" xlink:href="#DejaVuSans-76"/>
      <use x="121.712891" xlink:href="#DejaVuSans-65"/>
      <use x="183.236328" xlink:href="#DejaVuSans-72"/>
      <use x="224.349609" xlink:href="#DejaVuSans-61"/>
      <use x="285.628906" xlink:href="#DejaVuSans-67"/>
      <use x="349.105469" xlink:href="#DejaVuSans-65"/>
      <use x="410.628906" xlink:href="#DejaVuSans-20"/>
      <use x="442.416016" xlink:href="#DejaVuSans-52"/>
      <use x="507.398438" xlink:href="#DejaVuSans-65"/>
      <use x="568.921875" xlink:href="#DejaVuSans-77"/>
      <use x="650.708984" xlink:href="#DejaVuSans-61"/>
      <use x="711.988281" xlink:href="#DejaVuSans-72"/>
      <use x="751.351562" xlink:href="#DejaVuSans-64"/>
    -->
     </g>
    </g>
   </g>
   <g id="line2d_19">
    <path clip-path="url(#pd88f800be0)" d="M 73.832727 291.594813 
L 82.157203 291.668141 
L 90.481678 291.79289 
L 98.806154 291.880178 
L 107.130629 291.867915 
L 115.455105 291.932714 
L 123.77958 291.959673 
L 132.104056 291.905234 
L 140.428531 291.903745 
L 148.753007 291.811065 
L 157.077483 291.856227 
L 165.401958 291.906132 
L 173.726434 291.959429 
L 182.050909 291.996737 
L 190.375385 291.94947 
L 198.69986 292.02642 
L 207.024336 291.988575 
L 215.348811 291.907101 
L 223.673287 291.978399 
L 231.997762 291.991688 
L 240.322238 291.416507 
L 248.646713 291.635 
L 256.971189 291.714673 
L 265.295664 291.807044 
L 273.62014 291.780048 
L 281.944615 290.504898 
L 290.269091 290.831946 
L 298.593566 291.170807 
L 306.918042 291.389738 
L 315.242517 291.231972 
L 323.566993 290.829412 
L 331.891469 290.365953 
L 340.215944 289.481433 
L 348.54042 290.243776 
L 356.864895 290.685778 
L 365.189371 290.921852 
L 373.513846 291.252088 
L 381.838322 291.483289 
L 390.162797 291.498455 
L 398.487273 291.600746 
" style="fill:none;stroke:#1f77b4;stroke-linecap:square;stroke-width:1.5;"/>
   </g>
   <g id="line2d_20">
    <path clip-path="url(#pd88f800be0)" d="M 73.832727 291.594813 
L 82.157203 291.72316 
L 90.481678 291.794694 
L 98.806154 291.826422 
L 107.130629 291.958633 
L 115.455105 291.941252 
L 123.77958 291.910649 
L 132.104056 291.889281 
L 140.428531 291.800941 
L 148.753007 291.318852 
L 157.077483 287.431387 
L 165.401958 271.882255 
L 173.726434 261.011838 
L 182.050909 248.570615 
L 190.375385 227.801386 
L 198.69986 217.909211 
L 207.024336 206.899084 
L 215.348811 183.739451 
L 223.673287 169.552243 
L 231.997762 156.47527 
L 240.322238 149.214772 
L 248.646713 140.274291 
L 256.971189 135.963287 
L 265.295664 121.93547 
L 273.62014 114.195458 
L 281.944615 112.070635 
L 290.269091 110.149372 
L 298.593566 110.447862 
L 306.918042 109.233688 
L 315.242517 108.303634 
L 323.566993 103.376674 
L 331.891469 98.097356 
L 340.215944 94.334196 
L 348.54042 89.972453 
L 356.864895 86.919233 
L 365.189371 84.781978 
L 373.513846 83.2859 
L 381.838322 82.238646 
L 390.162797 81.505568 
L 398.487273 80.992413 
" style="fill:none;stroke:#ff7f0e;stroke-linecap:square;stroke-width:1.5;"/>
   </g>
   <g id="line2d_21">
    <path clip-path="url(#pd88f800be0)" d="M 73.832727 291.594813 
L 82.157203 291.723142 
L 90.481678 291.776372 
L 98.806154 291.758797 
L 107.130629 291.70962 
L 115.455105 284.267743 
L 123.77958 272.095858 
L 132.104056 250.572996 
L 140.428531 230.377112 
L 148.753007 215.662693 
L 157.077483 197.911646 
L 165.401958 183.756442 
L 173.726434 172.153808 
L 182.050909 154.128289 
L 190.375385 140.074262 
L 198.69986 135.289095 
L 207.024336 130.743503 
L 215.348811 126.184177 
L 223.673287 123.932431 
L 231.997762 121.896749 
L 240.322238 117.18348 
L 248.646713 109.629477 
L 256.971189 101.907941 
L 265.295664 95.876485 
L 273.62014 91.052055 
L 281.944615 87.674954 
L 290.269091 85.310983 
L 298.593566 83.656204 
L 306.918042 82.497858 
L 315.242517 81.687016 
L 323.566993 81.119427 
L 331.891469 80.722114 
L 340.215944 80.443996 
L 348.54042 80.249313 
L 356.864895 80.113034 
L 365.189371 80.01764 
L 373.513846 80.459058 
L 381.838322 80.643308 
L 390.162797 80.815947 
L 398.487273 80.509679 
" style="fill:none;stroke:#2ca02c;stroke-linecap:square;stroke-width:1.5;"/>
   </g>
   <g id="line2d_22">
    <path clip-path="url(#pd88f800be0)" d="M 73.832727 291.594813 
L 82.157203 291.723142 
L 90.481678 288.205433 
L 98.806154 268.476679 
L 107.130629 226.884998 
L 115.455105 190.925722 
L 123.77958 163.523429 
L 132.104056 142.470844 
L 140.428531 123.668106 
L 148.753007 115.11145 
L 157.077483 107.754151 
L 165.401958 104.981856 
L 173.726434 107.313108 
L 182.050909 99.989304 
L 190.375385 95.745552 
L 198.69986 97.712911 
L 207.024336 92.337553 
L 215.348811 92.109453 
L 223.673287 88.506151 
L 231.997762 85.892821 
L 240.322238 85.189261 
L 248.646713 83.631708 
L 256.971189 82.786703 
L 265.295664 82.567543 
L 273.62014 81.735795 
L 281.944615 82.765427 
L 290.269091 81.874314 
L 298.593566 93.003105 
L 306.918042 89.055844 
L 315.242517 87.056819 
L 323.566993 88.017522 
L 331.891469 91.287947 
L 340.215944 92.958934 
L 348.54042 92.433276 
L 356.864895 91.406983 
L 365.189371 93.865733 
L 373.513846 95.169856 
L 381.838322 95.363104 
L 390.162797 96.298827 
L 398.487273 96.678628 
" style="fill:none;stroke:#d62728;stroke-linecap:square;stroke-width:1.5;"/>
   </g>
   <g id="line2d_23">
    <path clip-path="url(#pd88f800be0)" d="M 73.832727 291.594813 
L 82.157203 291.723142 
L 90.481678 287.48725 
L 98.806154 264.834446 
L 107.130629 236.467259 
L 115.455105 201.088433 
L 123.77958 180.684575 
L 132.104056 164.463579 
L 140.428531 149.299477 
L 148.753007 146.405073 
L 157.077483 131.389865 
L 165.401958 128.380807 
L 173.726434 124.337104 
L 182.050909 110.974489 
L 190.375385 104.345632 
L 198.69986 104.429137 
L 207.024336 98.570969 
L 215.348811 97.799122 
L 223.673287 99.117407 
L 231.997762 93.320701 
L 240.322238 93.981829 
L 248.646713 94.570246 
L 256.971189 94.793563 
L 265.295664 93.735562 
L 273.62014 96.818999 
L 281.944615 91.711815 
L 290.269091 90.875446 
L 298.593566 87.551328 
L 306.918042 85.911494 
L 315.242517 102.42533 
L 323.566993 111.539552 
L 331.891469 117.919507 
L 340.215944 122.403821 
L 348.54042 133.50148 
L 356.864895 130.878025 
L 365.189371 132.536527 
L 373.513846 135.515014 
L 381.838322 130.732774 
L 390.162797 119.485467 
L 398.487273 107.578343 
" style="fill:none;stroke:#9467bd;stroke-linecap:square;stroke-width:1.5;"/>
   </g>
   <g id="line2d_24">
    <path clip-path="url(#pd88f800be0)" d="M 73.832727 291.594813 
L 82.157203 291.686468 
L 90.481678 278.563317 
L 98.806154 265.948191 
L 107.130629 243.294102 
L 115.455105 235.375577 
L 123.77958 229.741648 
L 132.104056 199.559973 
L 140.428531 187.476182 
L 148.753007 172.928896 
L 157.077483 146.800863 
L 165.401958 136.240477 
L 173.726434 140.320886 
L 182.050909 132.282996 
L 190.375385 116.536613 
L 198.69986 124.42733 
L 207.024336 129.045863 
L 215.348811 128.8098 
L 223.673287 129.187583 
L 231.997762 114.369824 
L 240.322238 110.5025 
L 248.646713 116.481525 
L 256.971189 109.857013 
L 265.295664 132.297851 
L 273.62014 135.08405 
L 281.944615 140.319171 
L 290.269091 150.453272 
L 298.593566 158.311084 
L 306.918042 158.28522 
L 315.242517 158.35255 
L 323.566993 181.984075 
L 331.891469 190.323152 
L 340.215944 182.52852 
L 348.54042 182.528795 
L 356.864895 200.348595 
L 365.189371 201.107294 
L 373.513846 210.112892 
L 381.838322 202.258518 
L 390.162797 213.95241 
L 398.487273 217.319201 
" style="fill:none;stroke:#8c564b;stroke-linecap:square;stroke-width:1.5;"/>
   </g>
   <g id="patch_3">
    <path d="M 57.6 307.584 
L 57.6 41.472 
" style="fill:none;stroke:#000000;stroke-linecap:square;stroke-linejoin:miter;stroke-width:0.8;"/>
   </g>
   <g id="patch_4">
    <path d="M 414.72 307.584 
L 414.72 41.472 
" style="fill:none;stroke:#000000;stroke-linecap:square;stroke-linejoin:miter;stroke-width:0.8;"/>
   </g>
   <g id="patch_5">
    <path d="M 57.6 307.584 
L 414.72 307.584 
" style="fill:none;stroke:#000000;stroke-linecap:square;stroke-linejoin:miter;stroke-width:0.8;"/>
   </g>
   <g id="patch_6">
    <path d="M 57.6 41.472 
L 414.72 41.472 
" style="fill:none;stroke:#000000;stroke-linecap:square;stroke-linejoin:miter;stroke-width:0.8;"/>
   </g>
   <g id="legend_1">
    <g id="patch_7">
     <path d="M 64.6 137.54075 
L 140.710938 137.54075 
Q 142.710938 137.54075 142.710938 135.54075 
L 142.710938 48.472 
Q 142.710938 46.472 140.710938 46.472 
L 64.6 46.472 
Q 62.6 46.472 62.6 48.472 
L 62.6 135.54075 
Q 62.6 137.54075 64.6 137.54075 
z
" style="fill:#ffffff;opacity:0.8;stroke:#cccccc;stroke-linejoin:miter;"/>
    </g>
    <g id="line2d_22">
     <path d="M 66.6 54.570438 
L 86.6 54.570438 
" style="fill:none;stroke:#1f77b4;stroke-linecap:square;stroke-width:1.5;"/>
    </g>
    <g id="line2d_23"/>
    <g id="text_16">
     <!-- lr = 1e-4 -->
     <g transform="translate(94.6 58.070438)scale(0.1 -0.1)">
      <defs>
       <path d="M 603 4863 
L 1178 4863 
L 1178 0 
L 603 0 
L 603 4863 
z
" id="DejaVuSans-6c" transform="scale(0.015625)"/>
       <path d="M 2631 2963 
Q 2534 3019 2420 3045 
Q 2306 3072 2169 3072 
Q 1681 3072 1420 2755 
Q 1159 2438 1159 1844 
L 1159 0 
L 581 0 
L 581 3500 
L 1159 3500 
L 1159 2956 
Q 1341 3275 1631 3429 
Q 1922 3584 2338 3584 
Q 2397 3584 2469 3576 
Q 2541 3569 2628 3553 
L 2631 2963 
z
" id="DejaVuSans-72" transform="scale(0.015625)"/>
       <path id="DejaVuSans-20" transform="scale(0.015625)"/>
       <path d="M 678 2906 
L 4684 2906 
L 4684 2381 
L 678 2381 
L 678 2906 
z
M 678 1631 
L 4684 1631 
L 4684 1100 
L 678 1100 
L 678 1631 
z
" id="DejaVuSans-3d" transform="scale(0.015625)"/>
       <path d="M 3597 1894 
L 3597 1613 
L 953 1613 
Q 991 1019 1311 708 
Q 1631 397 2203 397 
Q 2534 397 2845 478 
Q 3156 559 3463 722 
L 3463 178 
Q 3153 47 2828 -22 
Q 2503 -91 2169 -91 
Q 1331 -91 842 396 
Q 353 884 353 1716 
Q 353 2575 817 3079 
Q 1281 3584 2069 3584 
Q 2775 3584 3186 3129 
Q 3597 2675 3597 1894 
z
M 3022 2063 
Q 3016 2534 2758 2815 
Q 2500 3097 2075 3097 
Q 1594 3097 1305 2825 
Q 1016 2553 972 2059 
L 3022 2063 
z
" id="DejaVuSans-65" transform="scale(0.015625)"/>
       <path d="M 313 2009 
L 1997 2009 
L 1997 1497 
L 313 1497 
L 313 2009 
z
" id="DejaVuSans-2d" transform="scale(0.015625)"/>
       <path d="M 2419 4116 
L 825 1625 
L 2419 1625 
L 2419 4116 
z
M 2253 4666 
L 3047 4666 
L 3047 1625 
L 3713 1625 
L 3713 1100 
L 3047 1100 
L 3047 0 
L 2419 0 
L 2419 1100 
L 313 1100 
L 313 1709 
L 2253 4666 
z
" id="DejaVuSans-34" transform="scale(0.015625)"/>
      </defs>
      <use xlink:href="#DejaVuSans-6c"/>
      <use x="27.783203" xlink:href="#DejaVuSans-72"/>
      <use x="68.896484" xlink:href="#DejaVuSans-20"/>
      <use x="100.683594" xlink:href="#DejaVuSans-3d"/>
      <use x="184.472656" xlink:href="#DejaVuSans-20"/>
      <use x="216.259766" xlink:href="#DejaVuSans-31"/>
      <use x="279.882812" xlink:href="#DejaVuSans-65"/>
      <use x="341.40625" xlink:href="#DejaVuSans-2d"/>
      <use x="377.490234" xlink:href="#DejaVuSans-34"/>
     </g>
    </g>
    <g id="line2d_24">
     <path d="M 66.6 69.248563 
L 86.6 69.248563 
" style="fill:none;stroke:#ff7f0e;stroke-linecap:square;stroke-width:1.5;"/>
    </g>
    <g id="line2d_25"/>
    <g id="text_17">
     <!-- lr = 5e-4 -->
     <g transform="translate(94.6 72.748563)scale(0.1 -0.1)">
      <use xlink:href="#DejaVuSans-6c"/>
      <use x="27.783203" xlink:href="#DejaVuSans-72"/>
      <use x="68.896484" xlink:href="#DejaVuSans-20"/>
      <use x="100.683594" xlink:href="#DejaVuSans-3d"/>
      <use x="184.472656" xlink:href="#DejaVuSans-20"/>
      <use x="216.259766" xlink:href="#DejaVuSans-35"/>
      <use x="279.882812" xlink:href="#DejaVuSans-65"/>
      <use x="341.40625" xlink:href="#DejaVuSans-2d"/>
      <use x="377.490234" xlink:href="#DejaVuSans-34"/>
     </g>
    </g>
    <g id="line2d_26">
     <path d="M 66.6 83.926688 
L 86.6 83.926688 
" style="fill:none;stroke:#2ca02c;stroke-linecap:square;stroke-width:1.5;"/>
    </g>
    <g id="line2d_27"/>
    <g id="text_18">
     <!-- lr = 1e-3 -->
     <g transform="translate(94.6 87.426688)scale(0.1 -0.1)">
      <defs>
       <path d="M 2597 2516 
Q 3050 2419 3304 2112 
Q 3559 1806 3559 1356 
Q 3559 666 3084 287 
Q 2609 -91 1734 -91 
Q 1441 -91 1130 -33 
Q 819 25 488 141 
L 488 750 
Q 750 597 1062 519 
Q 1375 441 1716 441 
Q 2309 441 2620 675 
Q 2931 909 2931 1356 
Q 2931 1769 2642 2001 
Q 2353 2234 1838 2234 
L 1294 2234 
L 1294 2753 
L 1863 2753 
Q 2328 2753 2575 2939 
Q 2822 3125 2822 3475 
Q 2822 3834 2567 4026 
Q 2313 4219 1838 4219 
Q 1578 4219 1281 4162 
Q 984 4106 628 3988 
L 628 4550 
Q 988 4650 1302 4700 
Q 1616 4750 1894 4750 
Q 2613 4750 3031 4423 
Q 3450 4097 3450 3541 
Q 3450 3153 3228 2886 
Q 3006 2619 2597 2516 
z
" id="DejaVuSans-33" transform="scale(0.015625)"/>
      </defs>
      <use xlink:href="#DejaVuSans-6c"/>
      <use x="27.783203" xlink:href="#DejaVuSans-72"/>
      <use x="68.896484" xlink:href="#DejaVuSans-20"/>
      <use x="100.683594" xlink:href="#DejaVuSans-3d"/>
      <use x="184.472656" xlink:href="#DejaVuSans-20"/>
      <use x="216.259766" xlink:href="#DejaVuSans-31"/>
      <use x="279.882812" xlink:href="#DejaVuSans-65"/>
      <use x="341.40625" xlink:href="#DejaVuSans-2d"/>
      <use x="377.490234" xlink:href="#DejaVuSans-33"/>
     </g>
    </g>
    <g id="line2d_28">
     <path d="M 66.6 98.604813 
L 86.6 98.604813 
" style="fill:none;stroke:#d62728;stroke-linecap:square;stroke-width:1.5;"/>
    </g>
    <g id="line2d_29"/>
    <g id="text_19">
     <!-- lr = 5e-3 -->
     <g transform="translate(94.6 102.104813)scale(0.1 -0.1)">
      <use xlink:href="#DejaVuSans-6c"/>
      <use x="27.783203" xlink:href="#DejaVuSans-72"/>
      <use x="68.896484" xlink:href="#DejaVuSans-20"/>
      <use x="100.683594" xlink:href="#DejaVuSans-3d"/>
      <use x="184.472656" xlink:href="#DejaVuSans-20"/>
      <use x="216.259766" xlink:href="#DejaVuSans-35"/>
      <use x="279.882812" xlink:href="#DejaVuSans-65"/>
      <use x="341.40625" xlink:href="#DejaVuSans-2d"/>
      <use x="377.490234" xlink:href="#DejaVuSans-33"/>
     </g>
    </g>
    <g id="line2d_30">
     <path d="M 66.6 113.282938 
L 86.6 113.282938 
" style="fill:none;stroke:#9467bd;stroke-linecap:square;stroke-width:1.5;"/>
    </g>
    <g id="line2d_31"/>
    <g id="text_20">
     <!-- lr = 1e-2 -->
     <g transform="translate(94.6 116.782938)scale(0.1 -0.1)">
      <use xlink:href="#DejaVuSans-6c"/>
      <use x="27.783203" xlink:href="#DejaVuSans-72"/>
      <use x="68.896484" xlink:href="#DejaVuSans-20"/>
      <use x="100.683594" xlink:href="#DejaVuSans-3d"/>
      <use x="184.472656" xlink:href="#DejaVuSans-20"/>
      <use x="216.259766" xlink:href="#DejaVuSans-31"/>
      <use x="279.882812" xlink:href="#DejaVuSans-65"/>
      <use x="341.40625" xlink:href="#DejaVuSans-2d"/>
      <use x="377.490234" xlink:href="#DejaVuSans-32"/>
     </g>
    </g>
    <g id="line2d_32">
     <path d="M 66.6 127.961063 
L 86.6 127.961063 
" style="fill:none;stroke:#8c564b;stroke-linecap:square;stroke-width:1.5;"/>
    </g>
    <g id="line2d_33"/>
    <g id="text_21">
     <!-- lr = 5e-2 -->
     <g transform="translate(94.6 131.461063)scale(0.1 -0.1)">
      <use xlink:href="#DejaVuSans-6c"/>
      <use x="27.783203" xlink:href="#DejaVuSans-72"/>
      <use x="68.896484" xlink:href="#DejaVuSans-20"/>
      <use x="100.683594" xlink:href="#DejaVuSans-3d"/>
      <use x="184.472656" xlink:href="#DejaVuSans-20"/>
      <use x="216.259766" xlink:href="#DejaVuSans-35"/>
      <use x="279.882812" xlink:href="#DejaVuSans-65"/>
      <use x="341.40625" xlink:href="#DejaVuSans-2d"/>
      <use x="377.490234" xlink:href="#DejaVuSans-32"/>
     </g>
    </g>
   </g>
  </g>
 </g>
 <defs>
  <clipPath id="p498c2197c5">
   <rect height="266.112" width="357.12" x="57.6" y="41.472"/>
  </clipPath>
 </defs>
</svg>
