<?xml version="1.0" encoding="utf-8" standalone="no"?>
<!DOCTYPE svg PUBLIC "-//W3C//DTD SVG 1.1//EN"
  "http://www.w3.org/Graphics/SVG/1.1/DTD/svg11.dtd">
<svg height="345.6pt" version="1.1" viewBox="0 0 460.8 345.6" width="460.8pt" xmlns="http://www.w3.org/2000/svg" xmlns:xlink="http://www.w3.org/1999/xlink">
 <metadata>
  <rdf:RDF xmlns:cc="http://creativecommons.org/ns#" xmlns:dc="http://purl.org/dc/elements/1.1/" xmlns:rdf="http://www.w3.org/1999/02/22-rdf-syntax-ns#">
   <cc:Work>
    <dc:type rdf:resource="http://purl.org/dc/dcmitype/StillImage"/>
    <dc:date>2022-01-03T14:43:47.827567</dc:date>
    <dc:format>image/svg+xml</dc:format>
    <dc:creator>
     <cc:Agent>
      <dc:title>Matplotlib v3.4.3, https://matplotlib.org/</dc:title>
     </cc:Agent>
    </dc:creator>
   </cc:Work>
  </rdf:RDF>
 </metadata>
 <defs>
  <style type="text/css">*{stroke-linecap:butt;stroke-linejoin:round;}</style>
 </defs>
 <g id="figure_1">
  <g id="patch_1">
   <path d="M 0 345.6 
L 460.8 345.6 
L 460.8 0 
L 0 0 
z
" style="fill:#ffffff;"/>
  </g>
  <g id="axes_1">
   <g id="patch_2">
    <path d="M 57.6 307.584 
L 414.72 307.584 
L 414.72 41.472 
L 57.6 41.472 
z
" style="fill:#ffffff;"/>
   </g>
   <g id="PolyCollection_1">
    <path clip-path="url(#pf0e1fa8159)" d="M 73.832727 291.80408 
L 73.832727 291.80408 
L 82.157203 291.864182 
L 90.481678 292.100419 
L 98.806154 292.296709 
L 107.130629 292.217969 
L 115.455105 292.315467 
L 123.77958 292.154812 
L 132.104056 292.160481 
L 140.428531 292.223016 
L 148.753007 292.094584 
L 157.077483 292.006136 
L 165.401958 292.047959 
L 173.726434 292.13286 
L 182.050909 292.173456 
L 190.375385 292.082764 
L 198.69986 292.130319 
L 207.024336 292.136535 
L 215.348811 292.037043 
L 223.673287 292.157305 
L 231.997762 292.164944 
L 240.322238 292.199656 
L 248.646713 292.133507 
L 256.971189 291.93631 
L 265.295664 291.977852 
L 273.62014 291.875972 
L 281.944615 292.10684 
L 290.269091 292.327765 
L 298.593566 292.355349 
L 306.918042 292.140943 
L 315.242517 292.148966 
L 323.566993 292.160064 
L 331.891469 292.412931 
L 340.215944 293.216342 
L 348.54042 295.488 
L 356.864895 294.656875 
L 365.189371 294.097881 
L 373.513846 293.408314 
L 381.838322 292.905418 
L 390.162797 292.755302 
L 398.487273 292.608877 
L 398.487273 292.608877 
L 398.487273 290.394279 
L 390.162797 289.396891 
L 381.838322 288.554493 
L 373.513846 287.236944 
L 365.189371 285.092913 
L 356.864895 282.16544 
L 348.54042 278.415132 
L 340.215944 286.886641 
L 331.891469 289.699558 
L 323.566993 290.403617 
L 315.242517 290.828142 
L 306.918042 291.426775 
L 298.593566 291.417529 
L 290.269091 291.737853 
L 281.944615 291.621245 
L 273.62014 291.776891 
L 265.295664 291.742341 
L 256.971189 291.821863 
L 248.646713 291.795157 
L 240.322238 291.914538 
L 231.997762 291.981532 
L 223.673287 291.918994 
L 215.348811 291.880916 
L 207.024336 291.962366 
L 198.69986 292.05263 
L 190.375385 291.929288 
L 182.050909 291.943571 
L 173.726434 291.901311 
L 165.401958 291.867846 
L 157.077483 291.798839 
L 148.753007 291.610092 
L 140.428531 291.687488 
L 132.104056 291.753329 
L 123.77958 291.879899 
L 115.455105 291.659374 
L 107.130629 291.612963 
L 98.806154 291.561458 
L 90.481678 291.563894 
L 82.157203 291.52308 
L 73.832727 291.420332 
z
" style="fill:#1f77b4;fill-opacity:0.3;"/>
   </g>
   <g id="PolyCollection_2">
    <path clip-path="url(#pf0e1fa8159)" d="M 73.832727 291.80408 
L 73.832727 291.80408 
L 82.157203 291.864311 
L 90.481678 292.113162 
L 98.806154 292.22374 
L 107.130629 292.296819 
L 115.455105 292.018257 
L 123.77958 292.400009 
L 132.104056 292.412748 
L 140.428531 292.285393 
L 148.753007 292.067502 
L 157.077483 292.033186 
L 165.401958 292.10242 
L 173.726434 293.14322 
L 182.050909 294.422549 
L 190.375385 281.932715 
L 198.69986 274.567913 
L 207.024336 271.994325 
L 215.348811 267.119632 
L 223.673287 266.139505 
L 231.997762 264.90536 
L 240.322238 260.1087 
L 248.646713 262.331644 
L 256.971189 256.126932 
L 265.295664 255.670591 
L 273.62014 237.507685 
L 281.944615 227.193547 
L 290.269091 229.396297 
L 298.593566 225.452888 
L 306.918042 218.900993 
L 315.242517 215.612342 
L 323.566993 215.923093 
L 331.891469 211.419709 
L 340.215944 209.368375 
L 348.54042 213.844128 
L 356.864895 206.065777 
L 365.189371 204.034408 
L 373.513846 210.935281 
L 381.838322 201.400838 
L 390.162797 185.908712 
L 398.487273 173.609128 
L 398.487273 173.609128 
L 398.487273 80.266488 
L 390.162797 83.430142 
L 381.838322 90.027871 
L 373.513846 89.374521 
L 365.189371 83.718733 
L 356.864895 95.363425 
L 348.54042 101.513376 
L 340.215944 120.447239 
L 331.891469 144.332282 
L 323.566993 155.339431 
L 315.242517 156.383093 
L 306.918042 162.971046 
L 298.593566 148.095875 
L 290.269091 159.359615 
L 281.944615 150.533212 
L 273.62014 164.262968 
L 265.295664 162.008758 
L 256.971189 182.749619 
L 248.646713 189.308839 
L 240.322238 197.695095 
L 231.997762 207.896024 
L 223.673287 218.89718 
L 215.348811 238.500462 
L 207.024336 248.079532 
L 198.69986 255.363168 
L 190.375385 264.150996 
L 182.050909 272.821647 
L 173.726434 285.702041 
L 165.401958 291.477538 
L 157.077483 291.350152 
L 148.753007 291.034895 
L 140.428531 290.64836 
L 132.104056 290.280086 
L 123.77958 289.599602 
L 115.455105 291.71389 
L 107.130629 291.710494 
L 98.806154 291.479199 
L 90.481678 291.620305 
L 82.157203 291.563654 
L 73.832727 291.420332 
z
" style="fill:#ff7f0e;fill-opacity:0.3;"/>
   </g>
   <g id="PolyCollection_3">
    <path clip-path="url(#pf0e1fa8159)" d="M 73.832727 291.80408 
L 73.832727 291.80408 
L 82.157203 291.918937 
L 90.481678 292.056186 
L 98.806154 292.109804 
L 107.130629 292.188794 
L 115.455105 292.092733 
L 123.77958 292.120094 
L 132.104056 284.940609 
L 140.428531 269.478295 
L 148.753007 260.354378 
L 157.077483 240.461026 
L 165.401958 223.685333 
L 173.726434 203.745501 
L 182.050909 178.998076 
L 190.375385 197.859132 
L 198.69986 207.859626 
L 207.024336 203.494811 
L 215.348811 210.921514 
L 223.673287 198.428988 
L 231.997762 195.294134 
L 240.322238 200.253136 
L 248.646713 194.588593 
L 256.971189 173.538227 
L 265.295664 138.895441 
L 273.62014 116.153474 
L 281.944615 98.869227 
L 290.269091 86.176662 
L 298.593566 77.646894 
L 306.918042 71.526185 
L 315.242517 68.797617 
L 323.566993 76.183894 
L 331.891469 70.284198 
L 340.215944 69.354876 
L 348.54042 68.998308 
L 356.864895 66.210242 
L 365.189371 63.92594 
L 373.513846 63.718558 
L 381.838322 67.461975 
L 390.162797 64.150568 
L 398.487273 61.832583 
L 398.487273 61.832583 
L 398.487273 55.559698 
L 390.162797 55.189304 
L 381.838322 54.66017 
L 373.513846 56.11703 
L 365.189371 56.692422 
L 356.864895 57.014751 
L 348.54042 57.559599 
L 340.215944 58.751362 
L 331.891469 58.343197 
L 323.566993 59.109933 
L 315.242517 58.387688 
L 306.918042 58.727956 
L 298.593566 59.536687 
L 290.269091 60.517607 
L 281.944615 61.218357 
L 273.62014 62.617009 
L 265.295664 61.783282 
L 256.971189 62.650083 
L 248.646713 67.086861 
L 240.322238 69.183644 
L 231.997762 74.803752 
L 223.673287 87.283917 
L 215.348811 103.00701 
L 207.024336 109.975926 
L 198.69986 110.384759 
L 190.375385 128.096738 
L 182.050909 154.913931 
L 173.726434 173.560269 
L 165.401958 200.455951 
L 157.077483 225.520818 
L 148.753007 243.102756 
L 140.428531 257.634168 
L 132.104056 267.565602 
L 123.77958 289.584379 
L 115.455105 291.799828 
L 107.130629 291.757239 
L 98.806154 291.796383 
L 90.481678 291.502288 
L 82.157203 291.549771 
L 73.832727 291.420332 
z
" style="fill:#2ca02c;fill-opacity:0.3;"/>
   </g>
   <g id="PolyCollection_4">
    <path clip-path="url(#pf0e1fa8159)" d="M 73.832727 291.80408 
L 73.832727 291.80408 
L 82.157203 292.647304 
L 90.481678 292.322595 
L 98.806154 285.29085 
L 107.130629 265.231235 
L 115.455105 240.940129 
L 123.77958 225.13214 
L 132.104056 198.48783 
L 140.428531 175.082226 
L 148.753007 171.072717 
L 157.077483 165.616194 
L 165.401958 154.062217 
L 173.726434 148.798308 
L 182.050909 127.963732 
L 190.375385 108.564373 
L 198.69986 110.69083 
L 207.024336 115.936956 
L 215.348811 98.083054 
L 223.673287 85.585323 
L 231.997762 76.836911 
L 240.322238 82.895353 
L 248.646713 74.991644 
L 256.971189 69.421336 
L 265.295664 66.767243 
L 273.62014 63.664255 
L 281.944615 61.492164 
L 290.269091 59.9717 
L 298.593566 58.907375 
L 306.918042 58.162347 
L 315.242517 70.940566 
L 323.566993 66.585581 
L 331.891469 63.537092 
L 340.215944 61.403149 
L 348.54042 59.90939 
L 356.864895 58.863758 
L 365.189371 58.869999 
L 373.513846 63.424687 
L 381.838322 61.324466 
L 390.162797 59.854311 
L 398.487273 65.80055 
L 398.487273 65.80055 
L 398.487273 55.571588 
L 390.162797 55.991627 
L 381.838322 55.806346 
L 373.513846 55.541658 
L 365.189371 55.890291 
L 356.864895 55.943951 
L 348.54042 55.738237 
L 340.215944 55.444359 
L 331.891469 55.024535 
L 323.566993 54.424785 
L 315.242517 53.568 
L 306.918042 57.237796 
L 298.593566 57.586587 
L 290.269091 58.084859 
L 281.944615 58.796678 
L 273.62014 59.813561 
L 265.295664 61.266251 
L 256.971189 61.729694 
L 248.646713 64.003584 
L 240.322238 61.6105 
L 231.997762 60.436149 
L 223.673287 62.155663 
L 215.348811 64.612111 
L 207.024336 68.121323 
L 198.69986 66.589711 
L 190.375385 76.60695 
L 182.050909 83.786134 
L 173.726434 92.388535 
L 165.401958 111.736895 
L 157.077483 114.870302 
L 148.753007 116.009152 
L 140.428531 130.836548 
L 132.104056 161.490727 
L 123.77958 189.623004 
L 115.455105 211.391625 
L 107.130629 229.789907 
L 98.806154 242.652328 
L 90.481678 287.905105 
L 82.157203 288.152017 
L 73.832727 291.420332 
z
" style="fill:#d62728;fill-opacity:0.3;"/>
   </g>
   <g id="PolyCollection_5">
    <path clip-path="url(#pf0e1fa8159)" d="M 73.832727 291.80408 
L 73.832727 291.80408 
L 82.157203 290.99312 
L 90.481678 290.77128 
L 98.806154 271.081368 
L 107.130629 246.816313 
L 115.455105 201.638882 
L 123.77958 184.824328 
L 132.104056 164.120199 
L 140.428531 143.932367 
L 148.753007 140.187387 
L 157.077483 136.986366 
L 165.401958 128.640739 
L 173.726434 125.725145 
L 182.050909 121.039777 
L 190.375385 114.612971 
L 198.69986 112.092468 
L 207.024336 118.09817 
L 215.348811 101.949036 
L 223.673287 88.29151 
L 231.997762 95.999675 
L 240.322238 107.976654 
L 248.646713 113.943051 
L 256.971189 107.922436 
L 265.295664 101.570615 
L 273.62014 98.859187 
L 281.944615 86.128616 
L 290.269091 77.217216 
L 298.593566 91.996175 
L 306.918042 81.324508 
L 315.242517 73.85434 
L 323.566993 98.808236 
L 331.891469 116.407779 
L 340.215944 112.305773 
L 348.54042 118.698734 
L 356.864895 100.016299 
L 365.189371 125.091448 
L 373.513846 104.491199 
L 381.838322 90.071024 
L 390.162797 93.659992 
L 398.487273 102.092063 
L 398.487273 102.092063 
L 398.487273 67.70601 
L 390.162797 63.734506 
L 381.838322 59.651642 
L 373.513846 61.034938 
L 365.189371 63.011076 
L 356.864895 59.640793 
L 348.54042 61.01944 
L 340.215944 67.536984 
L 331.891469 53.6753 
L 323.566993 56.738596 
L 315.242517 56.128649 
L 306.918042 56.002092 
L 298.593566 55.821296 
L 290.269091 62.008246 
L 281.944615 64.401516 
L 273.62014 67.820472 
L 265.295664 63.914835 
L 256.971189 66.745011 
L 248.646713 64.236394 
L 240.322238 73.036232 
L 231.997762 72.180862 
L 223.673287 63.109528 
L 215.348811 65.974775 
L 207.024336 68.498128 
L 198.69986 67.637645 
L 190.375385 76.154775 
L 182.050909 75.555474 
L 173.726434 78.979572 
L 165.401958 84.581199 
L 157.077483 97.998665 
L 148.753007 111.817052 
L 140.428531 126.958904 
L 132.104056 150.413232 
L 123.77958 164.517144 
L 115.455105 177.070435 
L 107.130629 190.60777 
L 98.806154 231.130292 
L 90.481678 251.536112 
L 82.157203 289.349495 
L 73.832727 291.420332 
z
" style="fill:#9467bd;fill-opacity:0.3;"/>
   </g>
   <g id="PolyCollection_6">
    <path clip-path="url(#pf0e1fa8159)" d="M 73.832727 291.80408 
L 73.832727 291.80408 
L 82.157203 291.987409 
L 90.481678 291.845288 
L 98.806154 269.184899 
L 107.130629 256.991498 
L 115.455105 236.079299 
L 123.77958 233.556797 
L 132.104056 234.992989 
L 140.428531 244.623992 
L 148.753007 188.09293 
L 157.077483 218.962193 
L 165.401958 215.710618 
L 173.726434 228.482075 
L 182.050909 226.384968 
L 190.375385 220.215423 
L 198.69986 203.482732 
L 207.024336 179.769918 
L 215.348811 167.449201 
L 223.673287 169.780493 
L 231.997762 204.195137 
L 240.322238 223.930442 
L 248.646713 216.769078 
L 256.971189 222.265855 
L 265.295664 236.314333 
L 273.62014 231.525348 
L 281.944615 242.987068 
L 290.269091 255.787768 
L 298.593566 261.057853 
L 306.918042 270.338884 
L 315.242517 276.521849 
L 323.566993 283.476249 
L 331.891469 289.929117 
L 340.215944 285.244221 
L 348.54042 285.043509 
L 356.864895 276.241753 
L 365.189371 268.36259 
L 373.513846 276.59967 
L 381.838322 272.174022 
L 390.162797 269.433951 
L 398.487273 268.650284 
L 398.487273 268.650284 
L 398.487273 157.388001 
L 390.162797 183.812496 
L 381.838322 205.434548 
L 373.513846 195.807541 
L 365.189371 190.416504 
L 356.864895 183.176851 
L 348.54042 204.119879 
L 340.215944 225.778309 
L 331.891469 232.294696 
L 323.566993 235.098715 
L 315.242517 233.87948 
L 306.918042 223.30616 
L 298.593566 197.49537 
L 290.269091 172.215721 
L 281.944615 136.006684 
L 273.62014 123.116185 
L 265.295664 142.625188 
L 256.971189 134.995592 
L 248.646713 158.548245 
L 240.322238 145.587361 
L 231.997762 135.28448 
L 223.673287 131.004793 
L 215.348811 131.441319 
L 207.024336 156.462625 
L 198.69986 148.873959 
L 190.375385 108.018482 
L 182.050909 120.392519 
L 173.726434 106.080352 
L 165.401958 119.794102 
L 157.077483 139.1768 
L 148.753007 150.267334 
L 140.428531 176.168282 
L 132.104056 178.978296 
L 123.77958 203.755487 
L 115.455105 182.643988 
L 107.130629 215.652069 
L 98.806154 263.45872 
L 90.481678 268.345278 
L 82.157203 290.912073 
L 73.832727 291.420332 
z
" style="fill:#8c564b;fill-opacity:0.3;"/>
   </g>
   <g id="matplotlib.axis_1">
    <g id="xtick_1">
     <g id="line2d_1">
      <defs>
       <path d="M 0 0 
L 0 3.5 
" id="mb8e76e863d" style="stroke:#000000;stroke-width:0.8;"/>
      </defs>
      <g>
       <use style="stroke:#000000;stroke-width:0.8;" x="65.508252" xlink:href="#mb8e76e863d" y="307.584"/>
      </g>
     </g>
     <g id="text_1">
      <!-- 0 -->
      <g transform="translate(62.327002 322.182437)scale(0.1 -0.1)">
       <defs>
        <path d="M 2034 4250 
Q 1547 4250 1301 3770 
Q 1056 3291 1056 2328 
Q 1056 1369 1301 889 
Q 1547 409 2034 409 
Q 2525 409 2770 889 
Q 3016 1369 3016 2328 
Q 3016 3291 2770 3770 
Q 2525 4250 2034 4250 
z
M 2034 4750 
Q 2819 4750 3233 4129 
Q 3647 3509 3647 2328 
Q 3647 1150 3233 529 
Q 2819 -91 2034 -91 
Q 1250 -91 836 529 
Q 422 1150 422 2328 
Q 422 3509 836 4129 
Q 1250 4750 2034 4750 
z
" id="DejaVuSans-30" transform="scale(0.015625)"/>
       </defs>
       <use xlink:href="#DejaVuSans-30"/>
      </g>
     </g>
    </g>
    <g id="xtick_2">
     <g id="line2d_2">
      <g>
       <use style="stroke:#000000;stroke-width:0.8;" x="107.130629" xlink:href="#mb8e76e863d" y="307.584"/>
      </g>
     </g>
     <g id="text_2">
      <!-- 25 -->
      <g transform="translate(100.768129 322.182437)scale(0.1 -0.1)">
       <defs>
        <path d="M 1228 531 
L 3431 531 
L 3431 0 
L 469 0 
L 469 531 
Q 828 903 1448 1529 
Q 2069 2156 2228 2338 
Q 2531 2678 2651 2914 
Q 2772 3150 2772 3378 
Q 2772 3750 2511 3984 
Q 2250 4219 1831 4219 
Q 1534 4219 1204 4116 
Q 875 4013 500 3803 
L 500 4441 
Q 881 4594 1212 4672 
Q 1544 4750 1819 4750 
Q 2544 4750 2975 4387 
Q 3406 4025 3406 3419 
Q 3406 3131 3298 2873 
Q 3191 2616 2906 2266 
Q 2828 2175 2409 1742 
Q 1991 1309 1228 531 
z
" id="DejaVuSans-32" transform="scale(0.015625)"/>
        <path d="M 691 4666 
L 3169 4666 
L 3169 4134 
L 1269 4134 
L 1269 2991 
Q 1406 3038 1543 3061 
Q 1681 3084 1819 3084 
Q 2600 3084 3056 2656 
Q 3513 2228 3513 1497 
Q 3513 744 3044 326 
Q 2575 -91 1722 -91 
Q 1428 -91 1123 -41 
Q 819 9 494 109 
L 494 744 
Q 775 591 1075 516 
Q 1375 441 1709 441 
Q 2250 441 2565 725 
Q 2881 1009 2881 1497 
Q 2881 1984 2565 2268 
Q 2250 2553 1709 2553 
Q 1456 2553 1204 2497 
Q 953 2441 691 2322 
L 691 4666 
z
" id="DejaVuSans-35" transform="scale(0.015625)"/>
       </defs>
       <use xlink:href="#DejaVuSans-32"/>
       <use x="63.623047" xlink:href="#DejaVuSans-35"/>
      </g>
     </g>
    </g>
    <g id="xtick_3">
     <g id="line2d_3">
      <g>
       <use style="stroke:#000000;stroke-width:0.8;" x="148.753007" xlink:href="#mb8e76e863d" y="307.584"/>
      </g>
     </g>
     <g id="text_3">
      <!-- 50 -->
      <g transform="translate(142.390507 322.182437)scale(0.1 -0.1)">
       <use xlink:href="#DejaVuSans-35"/>
       <use x="63.623047" xlink:href="#DejaVuSans-30"/>
      </g>
     </g>
    </g>
    <g id="xtick_4">
     <g id="line2d_4">
      <g>
       <use style="stroke:#000000;stroke-width:0.8;" x="190.375385" xlink:href="#mb8e76e863d" y="307.584"/>
      </g>
     </g>
     <g id="text_4">
      <!-- 75 -->
      <g transform="translate(184.012885 322.182437)scale(0.1 -0.1)">
       <defs>
        <path d="M 525 4666 
L 3525 4666 
L 3525 4397 
L 1831 0 
L 1172 0 
L 2766 4134 
L 525 4134 
L 525 4666 
z
" id="DejaVuSans-37" transform="scale(0.015625)"/>
       </defs>
       <use xlink:href="#DejaVuSans-37"/>
       <use x="63.623047" xlink:href="#DejaVuSans-35"/>
      </g>
     </g>
    </g>
    <g id="xtick_5">
     <g id="line2d_5">
      <g>
       <use style="stroke:#000000;stroke-width:0.8;" x="231.997762" xlink:href="#mb8e76e863d" y="307.584"/>
      </g>
     </g>
     <g id="text_5">
      <!-- 100 -->
      <g transform="translate(222.454012 322.182437)scale(0.1 -0.1)">
       <defs>
        <path d="M 794 531 
L 1825 531 
L 1825 4091 
L 703 3866 
L 703 4441 
L 1819 4666 
L 2450 4666 
L 2450 531 
L 3481 531 
L 3481 0 
L 794 0 
L 794 531 
z
" id="DejaVuSans-31" transform="scale(0.015625)"/>
       </defs>
       <use xlink:href="#DejaVuSans-31"/>
       <use x="63.623047" xlink:href="#DejaVuSans-30"/>
       <use x="127.246094" xlink:href="#DejaVuSans-30"/>
      </g>
     </g>
    </g>
    <g id="xtick_6">
     <g id="line2d_6">
      <g>
       <use style="stroke:#000000;stroke-width:0.8;" x="273.62014" xlink:href="#mb8e76e863d" y="307.584"/>
      </g>
     </g>
     <g id="text_6">
      <!-- 125 -->
      <g transform="translate(264.07639 322.182437)scale(0.1 -0.1)">
       <use xlink:href="#DejaVuSans-31"/>
       <use x="63.623047" xlink:href="#DejaVuSans-32"/>
       <use x="127.246094" xlink:href="#DejaVuSans-35"/>
      </g>
     </g>
    </g>
    <g id="xtick_7">
     <g id="line2d_7">
      <g>
       <use style="stroke:#000000;stroke-width:0.8;" x="315.242517" xlink:href="#mb8e76e863d" y="307.584"/>
      </g>
     </g>
     <g id="text_7">
      <!-- 150 -->
      <g transform="translate(305.698767 322.182437)scale(0.1 -0.1)">
       <use xlink:href="#DejaVuSans-31"/>
       <use x="63.623047" xlink:href="#DejaVuSans-35"/>
       <use x="127.246094" xlink:href="#DejaVuSans-30"/>
      </g>
     </g>
    </g>
    <g id="xtick_8">
     <g id="line2d_8">
      <g>
       <use style="stroke:#000000;stroke-width:0.8;" x="356.864895" xlink:href="#mb8e76e863d" y="307.584"/>
      </g>
     </g>
     <g id="text_8">
      <!-- 175 -->
      <g transform="translate(347.321145 322.182437)scale(0.1 -0.1)">
       <use xlink:href="#DejaVuSans-31"/>
       <use x="63.623047" xlink:href="#DejaVuSans-37"/>
       <use x="127.246094" xlink:href="#DejaVuSans-35"/>
      </g>
     </g>
    </g>
    <g id="xtick_9">
     <g id="line2d_9">
      <g>
       <use style="stroke:#000000;stroke-width:0.8;" x="398.487273" xlink:href="#mb8e76e863d" y="307.584"/>
      </g>
     </g>
     <g id="text_9">
      <!-- 200 -->
      <g transform="translate(388.943523 322.182437)scale(0.1 -0.1)">
       <use xlink:href="#DejaVuSans-32"/>
       <use x="63.623047" xlink:href="#DejaVuSans-30"/>
       <use x="127.246094" xlink:href="#DejaVuSans-30"/>
      </g>
     </g>
    </g>
    <g id="text_10">
     <!-- Epoch -->
     <g transform="translate(220.849063 335.860562)scale(0.1 -0.1)">
      <defs>
       <path d="M 628 4666 
L 3578 4666 
L 3578 4134 
L 1259 4134 
L 1259 2753 
L 3481 2753 
L 3481 2222 
L 1259 2222 
L 1259 531 
L 3634 531 
L 3634 0 
L 628 0 
L 628 4666 
z
" id="DejaVuSans-45" transform="scale(0.015625)"/>
       <path d="M 1159 525 
L 1159 -1331 
L 581 -1331 
L 581 3500 
L 1159 3500 
L 1159 2969 
Q 1341 3281 1617 3432 
Q 1894 3584 2278 3584 
Q 2916 3584 3314 3078 
Q 3713 2572 3713 1747 
Q 3713 922 3314 415 
Q 2916 -91 2278 -91 
Q 1894 -91 1617 61 
Q 1341 213 1159 525 
z
M 3116 1747 
Q 3116 2381 2855 2742 
Q 2594 3103 2138 3103 
Q 1681 3103 1420 2742 
Q 1159 2381 1159 1747 
Q 1159 1113 1420 752 
Q 1681 391 2138 391 
Q 2594 391 2855 752 
Q 3116 1113 3116 1747 
z
" id="DejaVuSans-70" transform="scale(0.015625)"/>
       <path d="M 1959 3097 
Q 1497 3097 1228 2736 
Q 959 2375 959 1747 
Q 959 1119 1226 758 
Q 1494 397 1959 397 
Q 2419 397 2687 759 
Q 2956 1122 2956 1747 
Q 2956 2369 2687 2733 
Q 2419 3097 1959 3097 
z
M 1959 3584 
Q 2709 3584 3137 3096 
Q 3566 2609 3566 1747 
Q 3566 888 3137 398 
Q 2709 -91 1959 -91 
Q 1206 -91 779 398 
Q 353 888 353 1747 
Q 353 2609 779 3096 
Q 1206 3584 1959 3584 
z
" id="DejaVuSans-6f" transform="scale(0.015625)"/>
       <path d="M 3122 3366 
L 3122 2828 
Q 2878 2963 2633 3030 
Q 2388 3097 2138 3097 
Q 1578 3097 1268 2742 
Q 959 2388 959 1747 
Q 959 1106 1268 751 
Q 1578 397 2138 397 
Q 2388 397 2633 464 
Q 2878 531 3122 666 
L 3122 134 
Q 2881 22 2623 -34 
Q 2366 -91 2075 -91 
Q 1284 -91 818 406 
Q 353 903 353 1747 
Q 353 2603 823 3093 
Q 1294 3584 2113 3584 
Q 2378 3584 2631 3529 
Q 2884 3475 3122 3366 
z
" id="DejaVuSans-63" transform="scale(0.015625)"/>
       <path d="M 3513 2113 
L 3513 0 
L 2938 0 
L 2938 2094 
Q 2938 2591 2744 2837 
Q 2550 3084 2163 3084 
Q 1697 3084 1428 2787 
Q 1159 2491 1159 1978 
L 1159 0 
L 581 0 
L 581 4863 
L 1159 4863 
L 1159 2956 
Q 1366 3272 1645 3428 
Q 1925 3584 2291 3584 
Q 2894 3584 3203 3211 
Q 3513 2838 3513 2113 
z
" id="DejaVuSans-68" transform="scale(0.015625)"/>
      </defs>
      <!--
      <use xlink:href="#DejaVuSans-45"/>
      <use x="63.183594" xlink:href="#DejaVuSans-70"/>
      <use x="126.660156" xlink:href="#DejaVuSans-6f"/>
      <use x="187.841797" xlink:href="#DejaVuSans-63"/>
      <use x="242.822266" xlink:href="#DejaVuSans-68"/>
    -->
     </g>
    </g>
   </g>
   <g id="matplotlib.axis_2">
    <g id="ytick_1">
     <g id="line2d_10">
      <defs>
       <path d="M 0 0 
L -3.5 0 
" id="mb1fa1ab893" style="stroke:#000000;stroke-width:0.8;"/>
      </defs>
      <g>
       <use style="stroke:#000000;stroke-width:0.8;" x="57.6" xlink:href="#mb1fa1ab893" y="304.698245"/>
      </g>
     </g>
     <g id="text_11">
      <!-- 0 -->
      <g transform="translate(44.2375 308.497464)scale(0.1 -0.1)">
       <use xlink:href="#DejaVuSans-30"/>
      </g>
     </g>
    </g>
    <g id="ytick_2">
     <g id="line2d_11">
      <g>
       <use style="stroke:#000000;stroke-width:0.8;" x="57.6" xlink:href="#mb1fa1ab893" y="270.472619"/>
      </g>
     </g>
     <g id="text_12">
      <!-- 25 -->
      <g transform="translate(37.875 274.271837)scale(0.1 -0.1)">
       <use xlink:href="#DejaVuSans-32"/>
       <use x="63.623047" xlink:href="#DejaVuSans-35"/>
      </g>
     </g>
    </g>
    <g id="ytick_3">
     <g id="line2d_12">
      <g>
       <use style="stroke:#000000;stroke-width:0.8;" x="57.6" xlink:href="#mb1fa1ab893" y="236.246993"/>
      </g>
     </g>
     <g id="text_13">
      <!-- 50 -->
      <g transform="translate(37.875 240.046211)scale(0.1 -0.1)">
       <use xlink:href="#DejaVuSans-35"/>
       <use x="63.623047" xlink:href="#DejaVuSans-30"/>
      </g>
     </g>
    </g>
    <g id="ytick_4">
     <g id="line2d_13">
      <g>
       <use style="stroke:#000000;stroke-width:0.8;" x="57.6" xlink:href="#mb1fa1ab893" y="202.021366"/>
      </g>
     </g>
     <g id="text_14">
      <!-- 75 -->
      <g transform="translate(37.875 205.820585)scale(0.1 -0.1)">
       <use xlink:href="#DejaVuSans-37"/>
       <use x="63.623047" xlink:href="#DejaVuSans-35"/>
      </g>
     </g>
    </g>
    <g id="ytick_5">
     <g id="line2d_14">
      <g>
       <use style="stroke:#000000;stroke-width:0.8;" x="57.6" xlink:href="#mb1fa1ab893" y="167.79574"/>
      </g>
     </g>
     <g id="text_15">
      <!-- 100 -->
      <g transform="translate(31.5125 171.594959)scale(0.1 -0.1)">
       <use xlink:href="#DejaVuSans-31"/>
       <use x="63.623047" xlink:href="#DejaVuSans-30"/>
       <use x="127.246094" xlink:href="#DejaVuSans-30"/>
      </g>
     </g>
    </g>
    <g id="ytick_6">
     <g id="line2d_15">
      <g>
       <use style="stroke:#000000;stroke-width:0.8;" x="57.6" xlink:href="#mb1fa1ab893" y="133.570114"/>
      </g>
     </g>
     <g id="text_16">
      <!-- 125 -->
      <g transform="translate(31.5125 137.369333)scale(0.1 -0.1)">
       <use xlink:href="#DejaVuSans-31"/>
       <use x="63.623047" xlink:href="#DejaVuSans-32"/>
       <use x="127.246094" xlink:href="#DejaVuSans-35"/>
      </g>
     </g>
    </g>
    <g id="ytick_7">
     <g id="line2d_16">
      <g>
       <use style="stroke:#000000;stroke-width:0.8;" x="57.6" xlink:href="#mb1fa1ab893" y="99.344488"/>
      </g>
     </g>
     <g id="text_17">
      <!-- 150 -->
      <g transform="translate(31.5125 103.143707)scale(0.1 -0.1)">
       <use xlink:href="#DejaVuSans-31"/>
       <use x="63.623047" xlink:href="#DejaVuSans-35"/>
       <use x="127.246094" xlink:href="#DejaVuSans-30"/>
      </g>
     </g>
    </g>
    <g id="ytick_8">
     <g id="line2d_17">
      <g>
       <use style="stroke:#000000;stroke-width:0.8;" x="57.6" xlink:href="#mb1fa1ab893" y="65.118862"/>
      </g>
     </g>
     <g id="text_18">
      <!-- 175 -->
      <g transform="translate(31.5125 68.91808)scale(0.1 -0.1)">
       <use xlink:href="#DejaVuSans-31"/>
       <use x="63.623047" xlink:href="#DejaVuSans-37"/>
       <use x="127.246094" xlink:href="#DejaVuSans-35"/>
      </g>
     </g>
    </g>
    <g id="text_19">
     <!-- Average Reward -->
     <g transform="translate(25.432812 215.270969)rotate(-90)scale(0.1 -0.1)">
      <defs>
       <path d="M 2188 4044 
L 1331 1722 
L 3047 1722 
L 2188 4044 
z
M 1831 4666 
L 2547 4666 
L 4325 0 
L 3669 0 
L 3244 1197 
L 1141 1197 
L 716 0 
L 50 0 
L 1831 4666 
z
" id="DejaVuSans-41" transform="scale(0.015625)"/>
       <path d="M 191 3500 
L 800 3500 
L 1894 563 
L 2988 3500 
L 3597 3500 
L 2284 0 
L 1503 0 
L 191 3500 
z
" id="DejaVuSans-76" transform="scale(0.015625)"/>
       <path d="M 3597 1894 
L 3597 1613 
L 953 1613 
Q 991 1019 1311 708 
Q 1631 397 2203 397 
Q 2534 397 2845 478 
Q 3156 559 3463 722 
L 3463 178 
Q 3153 47 2828 -22 
Q 2503 -91 2169 -91 
Q 1331 -91 842 396 
Q 353 884 353 1716 
Q 353 2575 817 3079 
Q 1281 3584 2069 3584 
Q 2775 3584 3186 3129 
Q 3597 2675 3597 1894 
z
M 3022 2063 
Q 3016 2534 2758 2815 
Q 2500 3097 2075 3097 
Q 1594 3097 1305 2825 
Q 1016 2553 972 2059 
L 3022 2063 
z
" id="DejaVuSans-65" transform="scale(0.015625)"/>
       <path d="M 2631 2963 
Q 2534 3019 2420 3045 
Q 2306 3072 2169 3072 
Q 1681 3072 1420 2755 
Q 1159 2438 1159 1844 
L 1159 0 
L 581 0 
L 581 3500 
L 1159 3500 
L 1159 2956 
Q 1341 3275 1631 3429 
Q 1922 3584 2338 3584 
Q 2397 3584 2469 3576 
Q 2541 3569 2628 3553 
L 2631 2963 
z
" id="DejaVuSans-72" transform="scale(0.015625)"/>
       <path d="M 2194 1759 
Q 1497 1759 1228 1600 
Q 959 1441 959 1056 
Q 959 750 1161 570 
Q 1363 391 1709 391 
Q 2188 391 2477 730 
Q 2766 1069 2766 1631 
L 2766 1759 
L 2194 1759 
z
M 3341 1997 
L 3341 0 
L 2766 0 
L 2766 531 
Q 2569 213 2275 61 
Q 1981 -91 1556 -91 
Q 1019 -91 701 211 
Q 384 513 384 1019 
Q 384 1609 779 1909 
Q 1175 2209 1959 2209 
L 2766 2209 
L 2766 2266 
Q 2766 2663 2505 2880 
Q 2244 3097 1772 3097 
Q 1472 3097 1187 3025 
Q 903 2953 641 2809 
L 641 3341 
Q 956 3463 1253 3523 
Q 1550 3584 1831 3584 
Q 2591 3584 2966 3190 
Q 3341 2797 3341 1997 
z
" id="DejaVuSans-61" transform="scale(0.015625)"/>
       <path d="M 2906 1791 
Q 2906 2416 2648 2759 
Q 2391 3103 1925 3103 
Q 1463 3103 1205 2759 
Q 947 2416 947 1791 
Q 947 1169 1205 825 
Q 1463 481 1925 481 
Q 2391 481 2648 825 
Q 2906 1169 2906 1791 
z
M 3481 434 
Q 3481 -459 3084 -895 
Q 2688 -1331 1869 -1331 
Q 1566 -1331 1297 -1286 
Q 1028 -1241 775 -1147 
L 775 -588 
Q 1028 -725 1275 -790 
Q 1522 -856 1778 -856 
Q 2344 -856 2625 -561 
Q 2906 -266 2906 331 
L 2906 616 
Q 2728 306 2450 153 
Q 2172 0 1784 0 
Q 1141 0 747 490 
Q 353 981 353 1791 
Q 353 2603 747 3093 
Q 1141 3584 1784 3584 
Q 2172 3584 2450 3431 
Q 2728 3278 2906 2969 
L 2906 3500 
L 3481 3500 
L 3481 434 
z
" id="DejaVuSans-67" transform="scale(0.015625)"/>
       <path id="DejaVuSans-20" transform="scale(0.015625)"/>
       <path d="M 2841 2188 
Q 3044 2119 3236 1894 
Q 3428 1669 3622 1275 
L 4263 0 
L 3584 0 
L 2988 1197 
Q 2756 1666 2539 1819 
Q 2322 1972 1947 1972 
L 1259 1972 
L 1259 0 
L 628 0 
L 628 4666 
L 2053 4666 
Q 2853 4666 3247 4331 
Q 3641 3997 3641 3322 
Q 3641 2881 3436 2590 
Q 3231 2300 2841 2188 
z
M 1259 4147 
L 1259 2491 
L 2053 2491 
Q 2509 2491 2742 2702 
Q 2975 2913 2975 3322 
Q 2975 3731 2742 3939 
Q 2509 4147 2053 4147 
L 1259 4147 
z
" id="DejaVuSans-52" transform="scale(0.015625)"/>
       <path d="M 269 3500 
L 844 3500 
L 1563 769 
L 2278 3500 
L 2956 3500 
L 3675 769 
L 4391 3500 
L 4966 3500 
L 4050 0 
L 3372 0 
L 2619 2869 
L 1863 0 
L 1184 0 
L 269 3500 
z
" id="DejaVuSans-77" transform="scale(0.015625)"/>
       <path d="M 2906 2969 
L 2906 4863 
L 3481 4863 
L 3481 0 
L 2906 0 
L 2906 525 
Q 2725 213 2448 61 
Q 2172 -91 1784 -91 
Q 1150 -91 751 415 
Q 353 922 353 1747 
Q 353 2572 751 3078 
Q 1150 3584 1784 3584 
Q 2172 3584 2448 3432 
Q 2725 3281 2906 2969 
z
M 947 1747 
Q 947 1113 1208 752 
Q 1469 391 1925 391 
Q 2381 391 2643 752 
Q 2906 1113 2906 1747 
Q 2906 2381 2643 2742 
Q 2381 3103 1925 3103 
Q 1469 3103 1208 2742 
Q 947 2381 947 1747 
z
" id="DejaVuSans-64" transform="scale(0.015625)"/>
      </defs>
      <!--
      <use xlink:href="#DejaVuSans-41"/>
      <use x="62.533203" xlink:href="#DejaVuSans-76"/>
      <use x="121.712891" xlink:href="#DejaVuSans-65"/>
      <use x="183.236328" xlink:href="#DejaVuSans-72"/>
      <use x="224.349609" xlink:href="#DejaVuSans-61"/>
      <use x="285.628906" xlink:href="#DejaVuSans-67"/>
      <use x="349.105469" xlink:href="#DejaVuSans-65"/>
      <use x="410.628906" xlink:href="#DejaVuSans-20"/>
      <use x="442.416016" xlink:href="#DejaVuSans-52"/>
      <use x="507.398438" xlink:href="#DejaVuSans-65"/>
      <use x="568.921875" xlink:href="#DejaVuSans-77"/>
      <use x="650.708984" xlink:href="#DejaVuSans-61"/>
      <use x="711.988281" xlink:href="#DejaVuSans-72"/>
      <use x="751.351562" xlink:href="#DejaVuSans-64"/>
    -->
     </g>
    </g>
   </g>
   <g id="line2d_18">
    <path clip-path="url(#pf0e1fa8159)" d="M 73.832727 291.612206 
L 82.157203 291.693631 
L 90.481678 291.832156 
L 98.806154 291.929083 
L 107.130629 291.915466 
L 115.455105 291.98742 
L 123.77958 292.017356 
L 132.104056 291.956905 
L 140.428531 291.955252 
L 148.753007 291.852338 
L 157.077483 291.902488 
L 165.401958 291.957903 
L 173.726434 292.017085 
L 182.050909 292.058513 
L 190.375385 292.006026 
L 198.69986 292.091474 
L 207.024336 292.04945 
L 215.348811 291.958979 
L 223.673287 292.03815 
L 231.997762 292.073238 
L 240.322238 292.057097 
L 248.646713 291.964332 
L 256.971189 291.879086 
L 265.295664 291.860096 
L 273.62014 291.826432 
L 281.944615 291.864043 
L 290.269091 292.032809 
L 298.593566 291.886439 
L 306.918042 291.783859 
L 315.242517 291.488554 
L 323.566993 291.281841 
L 331.891469 291.056244 
L 340.215944 290.051491 
L 348.54042 286.951566 
L 356.864895 288.411158 
L 365.189371 289.595397 
L 373.513846 290.322629 
L 381.838322 290.729955 
L 390.162797 291.076097 
L 398.487273 291.501578 
" style="fill:none;stroke:#1f77b4;stroke-linecap:square;stroke-width:1.5;"/>
   </g>
   <g id="line2d_19">
    <path clip-path="url(#pf0e1fa8159)" d="M 73.832727 291.612206 
L 82.157203 291.713982 
L 90.481678 291.866733 
L 98.806154 291.85147 
L 107.130629 292.003657 
L 115.455105 291.866073 
L 123.77958 290.999806 
L 132.104056 291.346417 
L 140.428531 291.466877 
L 148.753007 291.551198 
L 157.077483 291.691669 
L 165.401958 291.789979 
L 173.726434 289.422631 
L 182.050909 283.622098 
L 190.375385 273.041855 
L 198.69986 264.965541 
L 207.024336 260.036928 
L 215.348811 252.810047 
L 223.673287 242.518343 
L 231.997762 236.400692 
L 240.322238 228.901898 
L 248.646713 225.820241 
L 256.971189 219.438275 
L 265.295664 208.839674 
L 273.62014 200.885327 
L 281.944615 188.863379 
L 290.269091 194.377956 
L 298.593566 186.774381 
L 306.918042 190.93602 
L 315.242517 185.997717 
L 323.566993 185.631262 
L 331.891469 177.875995 
L 340.215944 164.907807 
L 348.54042 157.678752 
L 356.864895 150.714601 
L 365.189371 143.87657 
L 373.513846 150.154901 
L 381.838322 145.714354 
L 390.162797 134.669427 
L 398.487273 126.937808 
" style="fill:none;stroke:#ff7f0e;stroke-linecap:square;stroke-width:1.5;"/>
   </g>
   <g id="line2d_20">
    <path clip-path="url(#pf0e1fa8159)" d="M 73.832727 291.612206 
L 82.157203 291.734354 
L 90.481678 291.779237 
L 98.806154 291.953094 
L 107.130629 291.973016 
L 115.455105 291.94628 
L 123.77958 290.852236 
L 132.104056 276.253106 
L 140.428531 263.556232 
L 148.753007 251.728567 
L 157.077483 232.990922 
L 165.401958 212.070642 
L 173.726434 188.652885 
L 182.050909 166.956003 
L 190.375385 162.977935 
L 198.69986 159.122193 
L 207.024336 156.735369 
L 215.348811 156.964262 
L 223.673287 142.856453 
L 231.997762 135.048943 
L 240.322238 134.71839 
L 248.646713 130.837727 
L 256.971189 118.094155 
L 265.295664 100.339361 
L 273.62014 89.385241 
L 281.944615 80.043792 
L 290.269091 73.347135 
L 298.593566 68.591791 
L 306.918042 65.127071 
L 315.242517 63.592653 
L 323.566993 67.646913 
L 331.891469 64.313697 
L 340.215944 64.053119 
L 348.54042 63.278954 
L 356.864895 61.612497 
L 365.189371 60.309181 
L 373.513846 59.917794 
L 381.838322 61.061073 
L 390.162797 59.669936 
L 398.487273 58.69614 
" style="fill:none;stroke:#2ca02c;stroke-linecap:square;stroke-width:1.5;"/>
   </g>
   <g id="line2d_21">
    <path clip-path="url(#pf0e1fa8159)" d="M 73.832727 291.612206 
L 82.157203 290.399661 
L 90.481678 290.11385 
L 98.806154 263.971589 
L 107.130629 247.510571 
L 115.455105 226.165877 
L 123.77958 207.377572 
L 132.104056 179.989278 
L 140.428531 152.959387 
L 148.753007 143.540935 
L 157.077483 140.243248 
L 165.401958 132.899556 
L 173.726434 120.593422 
L 182.050909 105.874933 
L 190.375385 92.585662 
L 198.69986 88.640271 
L 207.024336 92.029139 
L 215.348811 81.347583 
L 223.673287 73.870493 
L 231.997762 68.63653 
L 240.322238 72.252926 
L 248.646713 69.497614 
L 256.971189 65.575515 
L 265.295664 64.016747 
L 273.62014 61.738908 
L 281.944615 60.144421 
L 290.269091 59.028279 
L 298.593566 58.246981 
L 306.918042 57.700072 
L 315.242517 62.254283 
L 323.566993 60.505183 
L 331.891469 59.280813 
L 340.215944 58.423754 
L 348.54042 57.823813 
L 356.864895 57.403854 
L 365.189371 57.380145 
L 373.513846 59.483173 
L 381.838322 58.565406 
L 390.162797 57.922969 
L 398.487273 60.686069 
" style="fill:none;stroke:#d62728;stroke-linecap:square;stroke-width:1.5;"/>
   </g>
   <g id="line2d_22">
    <path clip-path="url(#pf0e1fa8159)" d="M 73.832727 291.612206 
L 82.157203 290.171308 
L 90.481678 271.153696 
L 98.806154 251.10583 
L 107.130629 218.712042 
L 115.455105 189.354659 
L 123.77958 174.670736 
L 132.104056 157.266716 
L 140.428531 135.445636 
L 148.753007 126.00222 
L 157.077483 117.492515 
L 165.401958 106.610969 
L 173.726434 102.352359 
L 182.050909 98.297625 
L 190.375385 95.383873 
L 198.69986 89.865056 
L 207.024336 93.298149 
L 215.348811 83.961906 
L 223.673287 75.700519 
L 231.997762 84.090268 
L 240.322238 90.506443 
L 248.646713 89.089722 
L 256.971189 87.333724 
L 265.295664 82.742725 
L 273.62014 83.33983 
L 281.944615 75.265066 
L 290.269091 69.612731 
L 298.593566 73.908735 
L 306.918042 68.6633 
L 315.242517 64.991495 
L 323.566993 77.773416 
L 331.891469 85.04154 
L 340.215944 89.921379 
L 348.54042 89.859087 
L 356.864895 79.828546 
L 365.189371 94.051262 
L 373.513846 82.763069 
L 381.838322 74.861333 
L 390.162797 78.697249 
L 398.487273 84.899036 
" style="fill:none;stroke:#9467bd;stroke-linecap:square;stroke-width:1.5;"/>
   </g>
   <g id="line2d_23">
    <path clip-path="url(#pf0e1fa8159)" d="M 73.832727 291.612206 
L 82.157203 291.449741 
L 90.481678 280.095283 
L 98.806154 266.321809 
L 107.130629 236.321783 
L 115.455105 209.361644 
L 123.77958 218.656142 
L 132.104056 206.985643 
L 140.428531 210.396137 
L 148.753007 169.180132 
L 157.077483 179.069496 
L 165.401958 167.75236 
L 173.726434 167.281213 
L 182.050909 173.388743 
L 190.375385 164.116953 
L 198.69986 176.178346 
L 207.024336 168.116272 
L 215.348811 149.44526 
L 223.673287 150.392643 
L 231.997762 169.739809 
L 240.322238 184.758902 
L 248.646713 187.658661 
L 256.971189 178.630723 
L 265.295664 189.46976 
L 273.62014 177.320767 
L 281.944615 189.496876 
L 290.269091 214.001744 
L 298.593566 229.276612 
L 306.918042 246.822522 
L 315.242517 255.200665 
L 323.566993 259.287482 
L 331.891469 261.111906 
L 340.215944 255.511265 
L 348.54042 244.581694 
L 356.864895 229.709302 
L 365.189371 229.389547 
L 373.513846 236.203605 
L 381.838322 238.804285 
L 390.162797 226.623223 
L 398.487273 213.019143 
" style="fill:none;stroke:#8c564b;stroke-linecap:square;stroke-width:1.5;"/>
   </g>
   <g id="patch_3">
    <path d="M 57.6 307.584 
L 57.6 41.472 
" style="fill:none;stroke:#000000;stroke-linecap:square;stroke-linejoin:miter;stroke-width:0.8;"/>
   </g>
   <g id="patch_4">
    <path d="M 414.72 307.584 
L 414.72 41.472 
" style="fill:none;stroke:#000000;stroke-linecap:square;stroke-linejoin:miter;stroke-width:0.8;"/>
   </g>
   <g id="patch_5">
    <path d="M 57.6 307.584 
L 414.72 307.584 
" style="fill:none;stroke:#000000;stroke-linecap:square;stroke-linejoin:miter;stroke-width:0.8;"/>
   </g>
   <g id="patch_6">
    <path d="M 57.6 41.472 
L 414.72 41.472 
" style="fill:none;stroke:#000000;stroke-linecap:square;stroke-linejoin:miter;stroke-width:0.8;"/>
   </g>
   <g id="legend_1">
    <g id="patch_7">
     <path d="M 64.6 137.54075 
L 140.710938 137.54075 
Q 142.710938 137.54075 142.710938 135.54075 
L 142.710938 48.472 
Q 142.710938 46.472 140.710938 46.472 
L 64.6 46.472 
Q 62.6 46.472 62.6 48.472 
L 62.6 135.54075 
Q 62.6 137.54075 64.6 137.54075 
z
" style="fill:#ffffff;opacity:0.8;stroke:#cccccc;stroke-linejoin:miter;"/>
    </g>
    <g id="line2d_22">
     <path d="M 66.6 54.570438 
L 86.6 54.570438 
" style="fill:none;stroke:#1f77b4;stroke-linecap:square;stroke-width:1.5;"/>
    </g>
    <g id="line2d_23"/>
    <g id="text_16">
     <!-- lr = 1e-4 -->
     <g transform="translate(94.6 58.070438)scale(0.1 -0.1)">
      <defs>
       <path d="M 603 4863 
L 1178 4863 
L 1178 0 
L 603 0 
L 603 4863 
z
" id="DejaVuSans-6c" transform="scale(0.015625)"/>
       <path d="M 2631 2963 
Q 2534 3019 2420 3045 
Q 2306 3072 2169 3072 
Q 1681 3072 1420 2755 
Q 1159 2438 1159 1844 
L 1159 0 
L 581 0 
L 581 3500 
L 1159 3500 
L 1159 2956 
Q 1341 3275 1631 3429 
Q 1922 3584 2338 3584 
Q 2397 3584 2469 3576 
Q 2541 3569 2628 3553 
L 2631 2963 
z
" id="DejaVuSans-72" transform="scale(0.015625)"/>
       <path id="DejaVuSans-20" transform="scale(0.015625)"/>
       <path d="M 678 2906 
L 4684 2906 
L 4684 2381 
L 678 2381 
L 678 2906 
z
M 678 1631 
L 4684 1631 
L 4684 1100 
L 678 1100 
L 678 1631 
z
" id="DejaVuSans-3d" transform="scale(0.015625)"/>
       <path d="M 3597 1894 
L 3597 1613 
L 953 1613 
Q 991 1019 1311 708 
Q 1631 397 2203 397 
Q 2534 397 2845 478 
Q 3156 559 3463 722 
L 3463 178 
Q 3153 47 2828 -22 
Q 2503 -91 2169 -91 
Q 1331 -91 842 396 
Q 353 884 353 1716 
Q 353 2575 817 3079 
Q 1281 3584 2069 3584 
Q 2775 3584 3186 3129 
Q 3597 2675 3597 1894 
z
M 3022 2063 
Q 3016 2534 2758 2815 
Q 2500 3097 2075 3097 
Q 1594 3097 1305 2825 
Q 1016 2553 972 2059 
L 3022 2063 
z
" id="DejaVuSans-65" transform="scale(0.015625)"/>
       <path d="M 313 2009 
L 1997 2009 
L 1997 1497 
L 313 1497 
L 313 2009 
z
" id="DejaVuSans-2d" transform="scale(0.015625)"/>
       <path d="M 2419 4116 
L 825 1625 
L 2419 1625 
L 2419 4116 
z
M 2253 4666 
L 3047 4666 
L 3047 1625 
L 3713 1625 
L 3713 1100 
L 3047 1100 
L 3047 0 
L 2419 0 
L 2419 1100 
L 313 1100 
L 313 1709 
L 2253 4666 
z
" id="DejaVuSans-34" transform="scale(0.015625)"/>
      </defs>
      <use xlink:href="#DejaVuSans-6c"/>
      <use x="27.783203" xlink:href="#DejaVuSans-72"/>
      <use x="68.896484" xlink:href="#DejaVuSans-20"/>
      <use x="100.683594" xlink:href="#DejaVuSans-3d"/>
      <use x="184.472656" xlink:href="#DejaVuSans-20"/>
      <use x="216.259766" xlink:href="#DejaVuSans-31"/>
      <use x="279.882812" xlink:href="#DejaVuSans-65"/>
      <use x="341.40625" xlink:href="#DejaVuSans-2d"/>
      <use x="377.490234" xlink:href="#DejaVuSans-34"/>
     </g>
    </g>
    <g id="line2d_24">
     <path d="M 66.6 69.248563 
L 86.6 69.248563 
" style="fill:none;stroke:#ff7f0e;stroke-linecap:square;stroke-width:1.5;"/>
    </g>
    <g id="line2d_25"/>
    <g id="text_17">
     <!-- lr = 5e-4 -->
     <g transform="translate(94.6 72.748563)scale(0.1 -0.1)">
      <use xlink:href="#DejaVuSans-6c"/>
      <use x="27.783203" xlink:href="#DejaVuSans-72"/>
      <use x="68.896484" xlink:href="#DejaVuSans-20"/>
      <use x="100.683594" xlink:href="#DejaVuSans-3d"/>
      <use x="184.472656" xlink:href="#DejaVuSans-20"/>
      <use x="216.259766" xlink:href="#DejaVuSans-35"/>
      <use x="279.882812" xlink:href="#DejaVuSans-65"/>
      <use x="341.40625" xlink:href="#DejaVuSans-2d"/>
      <use x="377.490234" xlink:href="#DejaVuSans-34"/>
     </g>
    </g>
    <g id="line2d_26">
     <path d="M 66.6 83.926688 
L 86.6 83.926688 
" style="fill:none;stroke:#2ca02c;stroke-linecap:square;stroke-width:1.5;"/>
    </g>
    <g id="line2d_27"/>
    <g id="text_18">
     <!-- lr = 1e-3 -->
     <g transform="translate(94.6 87.426688)scale(0.1 -0.1)">
      <defs>
       <path d="M 2597 2516 
Q 3050 2419 3304 2112 
Q 3559 1806 3559 1356 
Q 3559 666 3084 287 
Q 2609 -91 1734 -91 
Q 1441 -91 1130 -33 
Q 819 25 488 141 
L 488 750 
Q 750 597 1062 519 
Q 1375 441 1716 441 
Q 2309 441 2620 675 
Q 2931 909 2931 1356 
Q 2931 1769 2642 2001 
Q 2353 2234 1838 2234 
L 1294 2234 
L 1294 2753 
L 1863 2753 
Q 2328 2753 2575 2939 
Q 2822 3125 2822 3475 
Q 2822 3834 2567 4026 
Q 2313 4219 1838 4219 
Q 1578 4219 1281 4162 
Q 984 4106 628 3988 
L 628 4550 
Q 988 4650 1302 4700 
Q 1616 4750 1894 4750 
Q 2613 4750 3031 4423 
Q 3450 4097 3450 3541 
Q 3450 3153 3228 2886 
Q 3006 2619 2597 2516 
z
" id="DejaVuSans-33" transform="scale(0.015625)"/>
      </defs>
      <use xlink:href="#DejaVuSans-6c"/>
      <use x="27.783203" xlink:href="#DejaVuSans-72"/>
      <use x="68.896484" xlink:href="#DejaVuSans-20"/>
      <use x="100.683594" xlink:href="#DejaVuSans-3d"/>
      <use x="184.472656" xlink:href="#DejaVuSans-20"/>
      <use x="216.259766" xlink:href="#DejaVuSans-31"/>
      <use x="279.882812" xlink:href="#DejaVuSans-65"/>
      <use x="341.40625" xlink:href="#DejaVuSans-2d"/>
      <use x="377.490234" xlink:href="#DejaVuSans-33"/>
     </g>
    </g>
    <g id="line2d_28">
     <path d="M 66.6 98.604813 
L 86.6 98.604813 
" style="fill:none;stroke:#d62728;stroke-linecap:square;stroke-width:1.5;"/>
    </g>
    <g id="line2d_29"/>
    <g id="text_19">
     <!-- lr = 5e-3 -->
     <g transform="translate(94.6 102.104813)scale(0.1 -0.1)">
      <use xlink:href="#DejaVuSans-6c"/>
      <use x="27.783203" xlink:href="#DejaVuSans-72"/>
      <use x="68.896484" xlink:href="#DejaVuSans-20"/>
      <use x="100.683594" xlink:href="#DejaVuSans-3d"/>
      <use x="184.472656" xlink:href="#DejaVuSans-20"/>
      <use x="216.259766" xlink:href="#DejaVuSans-35"/>
      <use x="279.882812" xlink:href="#DejaVuSans-65"/>
      <use x="341.40625" xlink:href="#DejaVuSans-2d"/>
      <use x="377.490234" xlink:href="#DejaVuSans-33"/>
     </g>
    </g>
    <g id="line2d_30">
     <path d="M 66.6 113.282938 
L 86.6 113.282938 
" style="fill:none;stroke:#9467bd;stroke-linecap:square;stroke-width:1.5;"/>
    </g>
    <g id="line2d_31"/>
    <g id="text_20">
     <!-- lr = 1e-2 -->
     <g transform="translate(94.6 116.782938)scale(0.1 -0.1)">
      <use xlink:href="#DejaVuSans-6c"/>
      <use x="27.783203" xlink:href="#DejaVuSans-72"/>
      <use x="68.896484" xlink:href="#DejaVuSans-20"/>
      <use x="100.683594" xlink:href="#DejaVuSans-3d"/>
      <use x="184.472656" xlink:href="#DejaVuSans-20"/>
      <use x="216.259766" xlink:href="#DejaVuSans-31"/>
      <use x="279.882812" xlink:href="#DejaVuSans-65"/>
      <use x="341.40625" xlink:href="#DejaVuSans-2d"/>
      <use x="377.490234" xlink:href="#DejaVuSans-32"/>
     </g>
    </g>
    <g id="line2d_32">
     <path d="M 66.6 127.961063 
L 86.6 127.961063 
" style="fill:none;stroke:#8c564b;stroke-linecap:square;stroke-width:1.5;"/>
    </g>
    <g id="line2d_33"/>
    <g id="text_21">
     <!-- lr = 5e-2 -->
     <g transform="translate(94.6 131.461063)scale(0.1 -0.1)">
      <use xlink:href="#DejaVuSans-6c"/>
      <use x="27.783203" xlink:href="#DejaVuSans-72"/>
      <use x="68.896484" xlink:href="#DejaVuSans-20"/>
      <use x="100.683594" xlink:href="#DejaVuSans-3d"/>
      <use x="184.472656" xlink:href="#DejaVuSans-20"/>
      <use x="216.259766" xlink:href="#DejaVuSans-35"/>
      <use x="279.882812" xlink:href="#DejaVuSans-65"/>
      <use x="341.40625" xlink:href="#DejaVuSans-2d"/>
      <use x="377.490234" xlink:href="#DejaVuSans-32"/>
     </g>
    </g>
   </g>
  </g>
 </g>
 <defs>
  <clipPath id="p498c2197c5">
   <rect height="266.112" width="357.12" x="57.6" y="41.472"/>
  </clipPath>
 </defs>
</svg>
